g Jackie_01_LOD1_Eye
v -0.02164672 -0.1727768 1.6761656
v -0.01952636 -0.1769239 1.688458
v -0.01098526 -0.18014312 1.680062
v -0.055084895 -0.16228962 1.6944903
v -0.05792511 -0.15631922 1.6753432
v -0.0673096 -0.15202832 1.6964507
v -0.01952636 -0.1769239 1.688458
v -0.01741967 -0.18321358 1.6998225
v -0.01098526 -0.18014312 1.680062
v 0.02164672 -0.1727768 1.6761656
v 0.010985262 -0.18014312 1.6800619
v 0.01952636 -0.1769239 1.688458
v 0.055084895 -0.16228962 1.6944903
v 0.06651919 -0.15202832 1.6964507
v 0.05792511 -0.15631922 1.6753432
v 0.01952636 -0.1769239 1.688458
v 0.010985262 -0.18014312 1.6800619
v 0.01741967 -0.18321358 1.6998225
v -0.03972137 -0.166279 1.6721454
v -0.05792511 -0.15631922 1.6753432
v -0.055084895 -0.16228962 1.6944903
v -0.03824393 -0.1719048 1.6912485
v -0.03824393 -0.1719048 1.6912485
v -0.01952636 -0.1769239 1.688458
v -0.02164672 -0.1727768 1.6761656
v -0.03972137 -0.166279 1.6721454
v -0.03824393 -0.1719048 1.6912485
v -0.037519895 -0.17878173 1.7096286
v -0.01741967 -0.18321358 1.6998225
v -0.01952636 -0.1769239 1.688458
v -0.05597268 -0.16786005 1.7130935
v -0.037519895 -0.17878173 1.7096286
v -0.03824393 -0.1719048 1.6912485
v -0.055084895 -0.16228962 1.6944903
v -0.0673096 -0.15202832 1.6964507
v -0.07032499 -0.15529254 1.7162282
v -0.05597268 -0.16786005 1.7130935
v -0.055084895 -0.16228962 1.6944903
v -0.07308417 -0.14599799 1.718288
v -0.07032499 -0.15529254 1.7162282
v -0.0673096 -0.15202832 1.6964507
v -0.07064521 -0.13989285 1.6987748
v 0.039721377 -0.16627899 1.6721454
v 0.03824393 -0.1719048 1.6912485
v 0.055084895 -0.16228962 1.6944903
v 0.05792511 -0.15631922 1.6753432
v 0.03824393 -0.1719048 1.6912485
v 0.039721377 -0.16627899 1.6721454
v 0.02164672 -0.1727768 1.6761656
v 0.01952636 -0.1769239 1.688458
v 0.03824393 -0.1719048 1.6912485
v 0.01952636 -0.1769239 1.688458
v 0.01741967 -0.18321358 1.6998225
v 0.037519895 -0.17878173 1.7096286
v 0.05597268 -0.16786005 1.7130935
v 0.055084895 -0.16228962 1.6944903
v 0.03824393 -0.1719048 1.6912485
v 0.037519895 -0.17878173 1.7096286
v 0.06651919 -0.15202832 1.6964507
v 0.055084895 -0.16228962 1.6944903
v 0.05597268 -0.16786005 1.7130935
v 0.069534585 -0.15529254 1.7162282
v 0.07229376 -0.14599799 1.718288
v 0.0698548 -0.13989285 1.6987748
v 0.06651919 -0.15202832 1.6964507
v 0.069534585 -0.15529254 1.7162282
vt 0.58203125 0.27368164
vt 0.58740234 0.28735352
vt 0.5986328 0.27978516
vt 0.5463867 0.29760742
vt 0.5415039 0.27319336
vt 0.5307617 0.2998047
vt 0.58740234 0.28735352
vt 0.59277344 0.3010254
vt 0.5986328 0.27978516
vt 0.58203125 0.27368164
vt 0.5986328 0.27978516
vt 0.58740234 0.28735352
vt 0.5463867 0.29760742
vt 0.5307617 0.2998047
vt 0.5415039 0.27319336
vt 0.58740234 0.28735352
vt 0.5986328 0.27978516
vt 0.59277344 0.3010254
vt 0.56103516 0.27246094
vt 0.5415039 0.27319336
vt 0.5463867 0.29760742
vt 0.56640625 0.29296875
vt 0.56640625 0.29296875
vt 0.58740234 0.28735352
vt 0.58203125 0.27368164
vt 0.56103516 0.27246094
vt 0.56640625 0.29296875
vt 0.57128906 0.31323242
vt 0.59277344 0.3010254
vt 0.58740234 0.28735352
vt 0.5493164 0.3173828
vt 0.57128906 0.31323242
vt 0.56640625 0.29296875
vt 0.5463867 0.29760742
vt 0.5307617 0.2998047
vt 0.53125 0.32177734
vt 0.5493164 0.3173828
vt 0.5463867 0.29760742
vt 0.5214844 0.3190918
vt 0.53125 0.32177734
vt 0.5307617 0.2998047
vt 0.51904297 0.30200195
vt 0.56103516 0.27246094
vt 0.56640625 0.29296875
vt 0.5463867 0.29760742
vt 0.5415039 0.27319336
vt 0.56640625 0.29296875
vt 0.56103516 0.27246094
vt 0.58203125 0.27368164
vt 0.58740234 0.28735352
vt 0.56640625 0.29296875
vt 0.58740234 0.28735352
vt 0.59277344 0.3010254
vt 0.57128906 0.31323242
vt 0.5493164 0.3173828
vt 0.5463867 0.29760742
vt 0.56640625 0.29296875
vt 0.57128906 0.31323242
vt 0.5307617 0.2998047
vt 0.5463867 0.29760742
vt 0.5493164 0.3173828
vt 0.53125 0.32177734
vt 0.5214844 0.3190918
vt 0.51904297 0.30200195
vt 0.5307617 0.2998047
vt 0.53125 0.32177734
vn -0.50817025 -0.8388128 -0.19533567
vn -0.50817025 -0.8388128 -0.19533567
vn -0.50817025 -0.8388128 -0.19533567
vn -0.6496522 -0.7478192 -0.13681541
vn -0.6496522 -0.7478192 -0.13681541
vn -0.6496522 -0.7478192 -0.13681541
vn -0.58484286 -0.75076765 -0.30709404
vn -0.58484286 -0.75076765 -0.30709404
vn -0.5848428 -0.75076765 -0.307094
vn 0.50817263 -0.8388116 -0.19533488
vn 0.5081726 -0.8388116 -0.19533488
vn 0.5081726 -0.8388116 -0.1953349
vn 0.6744626 -0.7273473 -0.12675165
vn 0.67446256 -0.7273474 -0.12675163
vn 0.6744626 -0.7273474 -0.12675166
vn 0.5848462 -0.75076574 -0.30709234
vn 0.5848462 -0.75076574 -0.30709234
vn 0.5848462 -0.75076574 -0.3070924
vn -0.5054625 -0.83992255 -0.19757947
vn -0.5054625 -0.8399226 -0.19757949
vn -0.5054626 -0.83992255 -0.19757952
vn -0.5054625 -0.83992255 -0.19757952
vn -0.2810038 -0.92500585 -0.25573638
vn -0.2810038 -0.92500585 -0.25573638
vn -0.2810038 -0.92500585 -0.25573638
vn -0.2810038 -0.92500585 -0.25573638
vn -0.32851854 -0.8748414 -0.355989
vn -0.32851854 -0.8748414 -0.355989
vn -0.3285185 -0.8748414 -0.35598895
vn -0.32851854 -0.8748414 -0.35598898
vn -0.52205503 -0.80765384 -0.27414197
vn -0.52205503 -0.80765384 -0.27414194
vn -0.522055 -0.80765384 -0.27414194
vn -0.52205503 -0.80765384 -0.27414194
vn -0.65903676 -0.715524 -0.2317239
vn -0.65903676 -0.715524 -0.23172393
vn -0.65903676 -0.715524 -0.23172393
vn -0.65903676 -0.715524 -0.2317239
vn -0.95415455 -0.2329091 -0.18799622
vn -0.95415455 -0.23290911 -0.18799625
vn -0.95415455 -0.23290913 -0.18799625
vn -0.95415455 -0.2329091 -0.18799622
vn 0.50546235 -0.8399226 -0.19757983
vn 0.50546235 -0.8399226 -0.19757985
vn 0.50546235 -0.8399226 -0.19757982
vn 0.50546235 -0.8399226 -0.19757983
vn 0.28100416 -0.92500556 -0.25573674
vn 0.2810042 -0.92500556 -0.25573677
vn 0.28100416 -0.92500556 -0.25573674
vn 0.28100416 -0.92500556 -0.25573674
vn 0.32851854 -0.8748414 -0.355989
vn 0.32851854 -0.8748414 -0.35598898
vn 0.32851854 -0.8748414 -0.35598895
vn 0.32851854 -0.8748414 -0.355989
vn 0.52205503 -0.80765384 -0.27414197
vn 0.5220549 -0.80765384 -0.27414197
vn 0.522055 -0.80765384 -0.27414194
vn 0.522055 -0.80765384 -0.27414194
vn 0.68147296 -0.69499975 -0.22928125
vn 0.68147296 -0.69499975 -0.22928125
vn 0.68147296 -0.69499975 -0.22928129
vn 0.68147296 -0.69499975 -0.22928125
vn 0.95415455 -0.23290907 -0.18799622
vn 0.95415455 -0.23290905 -0.18799622
vn 0.95415455 -0.23290907 -0.18799625
vn 0.95415455 -0.23290907 -0.18799625
g Jackie_01_LOD1_Eye_0
f 3/3/3 2/2/2 1/1/1
f 6/6/6 5/5/5 4/4/4
f 9/9/9 8/8/8 7/7/7
f 12/12/12 11/11/11 10/10/10
f 15/15/15 14/14/14 13/13/13
f 18/18/18 17/17/17 16/16/16
f 21/21/21 20/20/20 19/19/19
f 22/22/22 21/21/21 19/19/19
f 25/25/25 24/24/24 23/23/23
f 26/26/26 25/25/25 23/23/23
f 29/29/29 28/28/28 27/27/27
f 30/30/30 29/29/29 27/27/27
f 33/33/33 32/32/32 31/31/31
f 34/34/34 33/33/33 31/31/31
f 37/37/37 36/36/36 35/35/35
f 38/38/38 37/37/37 35/35/35
f 41/41/41 40/40/40 39/39/39
f 42/42/42 41/41/41 39/39/39
f 45/45/45 44/44/44 43/43/43
f 46/46/46 45/45/45 43/43/43
f 49/49/49 48/48/48 47/47/47
f 50/50/50 49/49/49 47/47/47
f 53/53/53 52/52/52 51/51/51
f 54/54/54 53/53/53 51/51/51
f 57/57/57 56/56/56 55/55/55
f 58/58/58 57/57/57 55/55/55
f 61/61/61 60/60/60 59/59/59
f 62/62/62 61/61/61 59/59/59
f 65/65/65 64/64/64 63/63/63
f 66/66/66 65/65/65 63/63/63
