g Jackie_001_LOD1_Eye
v 0.065414 -0.16504182 1.7335227
v 0.07599075 -0.14418502 1.7295849
v 0.07320766 -0.14348452 1.7147336
v 0.06231843 -0.1629288 1.719711
v 0.0446535 -0.18141271 1.7359338
v 0.06824283 -0.1476038 1.7050015
v 0.068135396 -0.13757929 1.6941168
v 0.06624358 -0.14646815 1.6973656
v 0.059406154 -0.16051912 1.7096969
v 0.059243686 -0.15205258 1.6835644
v 0.0444406 -0.17445987 1.7160684
v 0.0126173515 -0.18850374 1.7071173
v 0.04425955 -0.17069389 1.7079638
v 0.04218377 -0.16137068 1.6792172
v 0.021520387 -0.18010278 1.704397
v 0.014896182 -0.17608245 1.6918594
v 0.027841564 -0.17279539 1.7001425
v 0.02191466 -0.17003454 1.6865888
v -0.06541403 -0.16504182 1.7335227
v -0.07320769 -0.14348452 1.7147336
v -0.07599078 -0.14418502 1.7295849
v -0.062318455 -0.1629288 1.719711
v -0.044653527 -0.18141271 1.7359338
v -0.06824287 -0.1476038 1.7050015
v -0.06813543 -0.13757929 1.6941168
v -0.06624361 -0.14646815 1.6973656
v -0.059406195 -0.16051912 1.7096969
v -0.059243724 -0.15205258 1.6835644
v -0.044440642 -0.17445987 1.7160684
v -0.012617385 -0.18850374 1.7071173
v -0.044259585 -0.17069389 1.7079638
v -0.04218381 -0.16137068 1.6792172
v -0.02152042 -0.18010278 1.704397
v -0.014896216 -0.17608245 1.6918594
v -0.027841598 -0.17279539 1.7001425
v -0.021914694 -0.17003454 1.6865888
vt 0.66503906 0.47924805
vt 0.6899414 0.4753418
vt 0.6875 0.45654297
vt 0.6635742 0.46435547
vt 0.63720703 0.48168945
vt 0.6796875 0.4440918
vt 0.68896484 0.4296875
vt 0.67871094 0.43408203
vt 0.6621094 0.4506836
vt 0.6669922 0.4169922
vt 0.63964844 0.45996094
vt 0.60058594 0.4489746
vt 0.6411133 0.4482422
vt 0.64453125 0.4104004
vt 0.61279297 0.44311523
vt 0.60839844 0.42529297
vt 0.6230469 0.4362793
vt 0.61865234 0.4182129
vt 0.66503906 0.47924805
vt 0.6875 0.45654297
vt 0.6899414 0.4753418
vt 0.6635742 0.46435547
vt 0.63720703 0.48168945
vt 0.6796875 0.4440918
vt 0.68896484 0.4296875
vt 0.67871094 0.43408203
vt 0.6621094 0.4506836
vt 0.6669922 0.4169922
vt 0.63964844 0.45996094
vt 0.60058594 0.4489746
vt 0.6411133 0.4482422
vt 0.64453125 0.4104004
vt 0.61279297 0.44311523
vt 0.60839844 0.42529297
vt 0.6230469 0.4362793
vt 0.61865234 0.4182129
vn 0.70501673 -0.6619586 -0.25448427
vn 0.8622387 -0.47196072 -0.1838413
vn 0.8364775 -0.48587644 -0.25343555
vn 0.69160414 -0.66300607 -0.28654262
vn 0.52184385 -0.8057241 -0.28015637
vn 0.8408295 -0.46934637 -0.26966587
vn 0.90115833 -0.3143955 -0.29844466
vn 0.85356957 -0.45901793 -0.24641722
vn 0.6661753 -0.68755305 -0.2889312
vn 0.6277654 -0.7330665 -0.26177132
vn 0.50034744 -0.79831606 -0.33517745
vn 0.48501486 -0.73568046 -0.4727947
vn 0.45526782 -0.8152145 -0.3579896
vn 0.41983885 -0.8575419 -0.29724944
vn 0.46513978 -0.71527135 -0.5215668
vn 0.48119062 -0.75484866 -0.44571194
vn 0.37132922 -0.8111139 -0.45189476
vn 0.3663917 -0.8565116 -0.36351764
vn -0.7050168 -0.6619585 -0.25448418
vn -0.8364777 -0.4858763 -0.2534352
vn -0.8622387 -0.47196072 -0.1838413
vn -0.69160414 -0.6630061 -0.28654233
vn -0.5218439 -0.8057241 -0.2801562
vn -0.8408297 -0.46934623 -0.26966575
vn -0.90115815 -0.31439584 -0.29844496
vn -0.85356927 -0.45901844 -0.2464178
vn -0.6661755 -0.68755305 -0.28893092
vn -0.6277655 -0.73306644 -0.26177138
vn -0.5003475 -0.79831606 -0.33517733
vn -0.48501486 -0.7356805 -0.47279465
vn -0.45526773 -0.8152146 -0.35798952
vn -0.41983882 -0.8575419 -0.29724947
vn -0.46513975 -0.7152714 -0.52156675
vn -0.48119068 -0.75484866 -0.44571194
vn -0.37132922 -0.8111139 -0.45189485
vn -0.36639166 -0.8565116 -0.36351764
g Jackie_001_LOD1_Eye_0
f 3/3/3 2/2/2 1/1/1
f 4/4/4 3/3/3 1/1/1
f 1/1/1 5/5/5 4/4/4
f 6/6/6 3/3/3 4/4/4
f 3/3/3 6/6/6 7/7/7
f 7/7/7 6/6/6 8/8/8
f 6/6/6 9/9/9 8/8/8
f 9/9/9 6/6/6 4/4/4
f 9/9/9 10/10/10 8/8/8
f 5/5/5 11/11/11 4/4/4
f 4/4/4 11/11/11 9/9/9
f 12/12/12 11/11/11 5/5/5
f 9/9/9 13/13/13 10/10/10
f 11/11/11 13/13/13 9/9/9
f 13/13/13 14/14/14 10/10/10
f 15/15/15 11/11/11 12/12/12
f 13/13/13 11/11/11 15/15/15
f 15/15/15 12/12/12 16/16/16
f 17/17/17 14/14/14 13/13/13
f 17/17/17 13/13/13 15/15/15
f 17/17/17 15/15/15 16/16/16
f 18/18/18 14/14/14 17/17/17
f 18/18/18 17/17/17 16/16/16
f 21/21/21 20/20/20 19/19/19
f 20/20/20 22/22/22 19/19/19
f 23/23/23 19/19/19 22/22/22
f 20/20/20 24/24/24 22/22/22
f 24/24/24 20/20/20 25/25/25
f 24/24/24 25/25/25 26/26/26
f 24/24/24 26/26/26 27/27/27
f 24/24/24 27/27/27 22/22/22
f 26/26/26 28/28/28 27/27/27
f 29/29/29 23/23/23 22/22/22
f 29/29/29 22/22/22 27/27/27
f 29/29/29 30/30/30 23/23/23
f 27/27/27 28/28/28 31/31/31
f 31/31/31 29/29/29 27/27/27
f 28/28/28 32/32/32 31/31/31
f 29/29/29 33/33/33 30/30/30
f 29/29/29 31/31/31 33/33/33
f 30/30/30 33/33/33 34/34/34
f 32/32/32 35/35/35 31/31/31
f 31/31/31 35/35/35 33/33/33
f 33/33/33 35/35/35 34/34/34
f 32/32/32 36/36/36 35/35/35
f 35/35/35 36/36/36 34/34/34
