g Bg_Uptown_OBJ_Fence_05
v 0.9999997 0.04949768 0.12550288
v -1.0000001 0.049497373 0.12550257
v -1.0000001 -7.6293944E-08 0.076005094
v 0.9999997 2.2888183E-07 0.07600542
v -1.0000001 -7.6293944E-08 0.076005094
v -1.0000001 -0.049497526 0.12550257
v 0.9999997 -0.04949722 0.12550288
v 0.9999997 2.2888183E-07 0.07600542
v -1.0000001 -7.6293944E-08 0.17500003
v 0.9999997 2.2888183E-07 0.17500038
v 0.9999997 -0.04949722 0.12550288
v -1.0000001 -0.049497526 0.12550257
v 0.9999997 2.2888183E-07 0.17500038
v -1.0000001 -7.6293944E-08 0.17500003
v -1.0000001 0.049497373 0.12550257
v 0.9999997 0.04949768 0.12550288
v 0.21695282 0.0023878478 0.124999784
v 0.25230834 -0.032967452 0.124999784
v 0.25230834 -0.032967452 -0.1750002
v 0.21695311 0.0023878478 -0.1750002
v 0.25230834 0.037743226 -0.1750002
v 0.28766388 0.0023878478 -0.1750002
v 0.28766358 0.0023878478 0.124999784
v 0.25230834 0.037743226 0.124999784
v 0.28766358 0.0023878478 0.124999784
v 0.28766388 0.0023878478 -0.1750002
v 0.25230834 -0.032967452 -0.1750002
v 0.25230834 -0.032967452 0.124999784
v 0.21695282 0.0023878478 0.124999784
v 0.21695311 0.0023878478 -0.1750002
v 0.25230834 0.037743226 -0.1750002
v 0.25230834 0.037743226 0.124999784
v 0.72542936 0.0023879241 0.124999866
v 0.7607849 -0.032967377 0.124999866
v 0.7607849 -0.032967377 -0.17500013
v 0.72542965 0.0023879241 -0.17500013
v 0.7607849 0.0377433 -0.17500013
v 0.79614043 0.0023879241 -0.17500012
v 0.79614013 0.0023879241 0.12499987
v 0.7607849 0.0377433 0.124999866
v 0.79614013 0.0023879241 0.12499987
v 0.79614043 0.0023879241 -0.17500012
v 0.7607849 -0.032967377 -0.17500013
v 0.7607849 -0.032967377 0.124999866
v 0.72542936 0.0023879241 0.124999866
v 0.72542965 0.0023879241 -0.17500013
v 0.7607849 0.0377433 -0.17500013
v 0.7607849 0.0377433 0.124999866
v -0.29152343 0.0023877716 0.12499984
v -0.2561679 -0.03296753 0.124999866
v -0.2561679 -0.03296753 -0.17500013
v -0.29152313 0.0023877716 -0.17500015
v -0.2561679 0.037743147 -0.17500013
v -0.22081238 0.0023877716 -0.17500013
v -0.22081268 0.0023877716 0.124999866
v -0.2561679 0.037743147 0.124999866
v -0.22081268 0.0023877716 0.124999866
v -0.22081238 0.0023877716 -0.17500013
v -0.2561679 -0.03296753 -0.17500013
v -0.2561679 -0.03296753 0.124999866
v -0.29152343 0.0023877716 0.12499984
v -0.29152313 0.0023877716 -0.17500015
v -0.2561679 0.037743147 -0.17500013
v -0.2561679 0.037743147 0.124999866
v -0.79999965 0.0023876952 0.12499977
v -0.76464444 -0.032967605 0.12499977
v -0.76464444 -0.032967605 -0.17500022
v -0.79999983 0.0023876952 -0.17500022
v -0.76464444 0.037743073 -0.17500022
v -0.72928905 0.0023876952 -0.1750002
v -0.72928905 0.0023876952 0.12499978
v -0.76464444 0.037743073 0.12499977
v -0.72928905 0.0023876952 0.12499978
v -0.72928905 0.0023876952 -0.1750002
v -0.76464444 -0.032967605 -0.17500022
v -0.76464444 -0.032967605 0.12499977
v -0.79999965 0.0023876952 0.12499977
v -0.79999983 0.0023876952 -0.17500022
v -0.76464444 0.037743073 -0.17500022
v -0.76464444 0.037743073 0.12499977
vt -0.2680664 -1.2548828
vt -0.2680664 -0.6484375
vt -0.2467041 -0.6484375
vt -0.2467041 -1.2548828
vt -0.23779297 -0.6484375
vt -0.21655273 -0.6484375
vt -0.21655273 -1.2548828
vt -0.23779297 -1.2548828
vt 0.2680664 -0.6484375
vt 0.2680664 -1.2548828
vt 0.2467041 -1.2548828
vt 0.2467041 -0.6484375
vt 0.21655273 -1.2548828
vt 0.21655273 -0.6484375
vt 0.23779297 -0.6484375
vt 0.23779297 -1.2548828
vt -0.015151978 0.09088135
vt 0 0.09088135
vt 0 0
vt -0.015151978 0
vt 0.015151978 0
vt 0 0
vt 0 0.09088135
vt 0.015151978 0.09088135
vt 0.018188477 0.09088135
vt 0.018188477 0
vt 0.003030777 0
vt 0.003030777 0.09088135
vt -0.003030777 0.09088135
vt -0.003030777 0
vt -0.018188477 0
vt -0.018188477 0.09088135
vt -0.015151978 0.09088135
vt 0 0.09088135
vt 0 0
vt -0.015151978 0
vt 0.015151978 0
vt 0 0
vt 0 0.09088135
vt 0.015151978 0.09088135
vt 0.018188477 0.09088135
vt 0.018188477 0
vt 0.003030777 0
vt 0.003030777 0.09088135
vt -0.003030777 0.09088135
vt -0.003030777 0
vt -0.018188477 0
vt -0.018188477 0.09088135
vt -0.015151978 0.09088135
vt 0 0.09088135
vt 0 0
vt -0.015151978 0
vt 0.015151978 0
vt 0 0
vt 0 0.09088135
vt 0.015151978 0.09088135
vt 0.018188477 0.09088135
vt 0.018188477 0
vt 0.003030777 0
vt 0.003030777 0.09088135
vt -0.003030777 0.09088135
vt -0.003030777 0
vt -0.018188477 0
vt -0.018188477 0.09088135
vt -0.015151978 0.09088135
vt 0 0.09088135
vt 0 0
vt -0.015151978 0
vt 0.015151978 0
vt 0 0
vt 0 0.09088135
vt 0.015151978 0.09088135
vt 0.018188477 0.09088135
vt 0.018188477 0
vt 0.003030777 0
vt 0.003030777 0.09088135
vt -0.003030777 0.09088135
vt -0.003030777 0
vt -0.018188477 0
vt -0.018188477 0.09088135
vn -1.7881393E-07 1 0
vn -1.7881393E-07 1 -1.1920929E-07
vn 1.7881393E-07 -1.1920929E-07 -1
vn 1.7881393E-07 0 -1
vn 1.7881393E-07 -1.1920929E-07 -1
vn 1.7881393E-07 -1 -1.1920929E-07
vn 1.7881393E-07 -1 0
vn 1.7881393E-07 0 -1
vn -1.7881393E-07 -1.1920929E-07 1
vn -1.7881393E-07 0 1
vn 1.7881393E-07 -1 0
vn 1.7881393E-07 -1 -1.1920929E-07
vn -1.7881393E-07 0 1
vn -1.7881393E-07 -1.1920929E-07 1
vn -1.7881393E-07 1 -1.1920929E-07
vn -1.7881393E-07 1 0
vn -1 -5.364418E-07 -5.364418E-07
vn -0 -1 0
vn -0 -1 0
vn -1 -5.364418E-07 -5.364418E-07
vn -0 1 0
vn 1 -5.364418E-07 5.364418E-07
vn 1 -5.364418E-07 5.364418E-07
vn -0 1 0
vn 1 -5.364418E-07 5.364418E-07
vn 1 -5.364418E-07 5.364418E-07
vn -0 -1 0
vn -0 -1 0
vn -1 -5.364418E-07 -5.364418E-07
vn -1 -5.364418E-07 -5.364418E-07
vn -0 1 0
vn -0 1 0
vn -1 -5.364418E-07 -5.364418E-07
vn -0 -1 0
vn -2.3841858E-07 -1 0
vn -1 -5.364418E-07 -5.364418E-07
vn -1.7881393E-07 1 0
vn 1 -5.364418E-07 5.364418E-07
vn 1 -5.364418E-07 5.364418E-07
vn -0 1 0
vn 1 -5.364418E-07 5.364418E-07
vn 1 -5.364418E-07 5.364418E-07
vn -2.3841858E-07 -1 0
vn -0 -1 0
vn -1 -5.364418E-07 -5.364418E-07
vn -1 -5.364418E-07 -5.364418E-07
vn -1.7881393E-07 1 0
vn -0 1 0
vn -1 -5.364418E-07 -5.364418E-07
vn 1.7881393E-07 -1 0
vn -1.1920929E-07 -1 0
vn -1 -5.9604645E-07 -5.364418E-07
vn -1.1920929E-07 1 0
vn 1 -5.364418E-07 5.364418E-07
vn 1 -5.364418E-07 5.364418E-07
vn 1.7881393E-07 1 0
vn 1 -5.364418E-07 5.364418E-07
vn 1 -5.364418E-07 5.364418E-07
vn -1.1920929E-07 -1 0
vn 1.7881393E-07 -1 0
vn -1 -5.364418E-07 -5.364418E-07
vn -1 -5.9604645E-07 -5.364418E-07
vn -1.1920929E-07 1 0
vn 1.7881393E-07 1 0
vn -1 -5.364418E-07 2.3841858E-07
vn -5.9604645E-07 -1 1.1920929E-07
vn -7.748604E-07 -1 1.1920929E-07
vn -1 -5.9604645E-07 2.3841858E-07
vn -7.1525574E-07 1 1.1920929E-07
vn 1 -5.364418E-07 0
vn 1 -5.364418E-07 0
vn -4.7683716E-07 1 1.1920929E-07
vn 1 -5.364418E-07 0
vn 1 -5.364418E-07 0
vn -7.748604E-07 -1 1.1920929E-07
vn -5.9604645E-07 -1 1.1920929E-07
vn -1 -5.364418E-07 2.3841858E-07
vn -1 -5.9604645E-07 2.3841858E-07
vn -7.1525574E-07 1 1.1920929E-07
vn -4.7683716E-07 1 1.1920929E-07
g Bg_Uptown_OBJ_Fence_05_0
f 3/3/3 2/2/2 1/1/1
f 4/4/4 3/3/3 1/1/1
f 7/7/7 6/6/6 5/5/5
f 8/8/8 7/7/7 5/5/5
f 11/11/11 10/10/10 9/9/9
f 12/12/12 11/11/11 9/9/9
f 15/15/15 14/14/14 13/13/13
f 16/16/16 15/15/15 13/13/13
f 19/19/19 18/18/18 17/17/17
f 20/20/20 19/19/19 17/17/17
f 23/23/23 22/22/22 21/21/21
f 24/24/24 23/23/23 21/21/21
f 27/27/27 26/26/26 25/25/25
f 28/28/28 27/27/27 25/25/25
f 31/31/31 30/30/30 29/29/29
f 32/32/32 31/31/31 29/29/29
f 35/35/35 34/34/34 33/33/33
f 36/36/36 35/35/35 33/33/33
f 39/39/39 38/38/38 37/37/37
f 40/40/40 39/39/39 37/37/37
f 43/43/43 42/42/42 41/41/41
f 44/44/44 43/43/43 41/41/41
f 47/47/47 46/46/46 45/45/45
f 48/48/48 47/47/47 45/45/45
f 51/51/51 50/50/50 49/49/49
f 52/52/52 51/51/51 49/49/49
f 55/55/55 54/54/54 53/53/53
f 56/56/56 55/55/55 53/53/53
f 59/59/59 58/58/58 57/57/57
f 60/60/60 59/59/59 57/57/57
f 63/63/63 62/62/62 61/61/61
f 64/64/64 63/63/63 61/61/61
f 67/67/67 66/66/66 65/65/65
f 68/68/68 67/67/67 65/65/65
f 71/71/71 70/70/70 69/69/69
f 72/72/72 71/71/71 69/69/69
f 75/75/75 74/74/74 73/73/73
f 76/76/76 75/75/75 73/73/73
f 79/79/79 78/78/78 77/77/77
f 80/80/80 79/79/79 77/77/77
