g Bg_Uptown_STR_Base_Wall_07
v -4.400005 4.558633 0.7008853
v -4.400005 -1.0070605 0.7008853
v -4.7000046 -1.0070605 0.7008853
v -4.7000046 4.76708 0.7008853
v -4.400005 4.558633 0.7008853
v -4.7000046 4.76708 0.7008853
v 0.0950122 6.819995 0.70088655
v 0.15250732 6.5199947 0.70088655
v 0.15250732 6.5199947 0.70088655
v 0.0950122 6.819995 0.70088655
v 4.7 6.819995 0.7008853
v 4.7 6.52 0.7008853
v 0.15250732 6.52 0.30088592
v -4.400005 4.558633 0.30088592
v -4.400005 4.558633 0.7008853
v 0.15250732 6.5199947 0.70088655
v 4.7 6.52 0.7008853
v 4.7 6.52 0.30088532
v 0.15250732 6.52 0.30088592
v 0.15250732 6.5199947 0.70088655
v -4.7000046 0.7199951 0.30088347
v -4.7000046 -1.0070605 0.7008853
v -4.7000046 -1.0070604 0.30088404
v -4.7000046 4.76708 0.7008853
v -4.7000046 4.76708 -0.7008841
v -4.7000046 0.7199951 -0.70088655
v -4.400005 -6.7799997 0.30088592
v -4.400005 -6.8199997 0.30088592
v -4.400005 -6.8199997 0.7008853
v -4.400005 -1.0070605 0.7008853
v -4.400005 -1.0070605 0.30088592
v 0.0950122 6.819995 0.70088655
v 0.0950122 6.819995 -0.6991137
v 4.7 6.819995 -0.6991141
v 4.7 6.819995 0.7008853
v 0.0950122 6.819995 0.70088655
v -4.7000046 4.76708 0.7008853
v -4.7000046 4.76708 -0.7008841
v 0.0950122 6.819995 -0.6991137
v -4.7000046 -6.8199997 0.7008853
v -4.7000046 -1.0070605 0.7008853
v -4.400005 -1.0070605 0.7008853
v -4.400005 -6.8199997 0.7008853
v -4.7000046 -6.8199997 0.30088592
v -4.7000046 -1.0070604 0.30088404
v -4.7000046 -1.0070605 0.7008853
v -4.7000046 -6.8199997 0.7008853
v -4.400005 4.558633 0.30088592
v -4.400005 -1.0070605 0.30088592
v -4.400005 -1.0070605 0.7008853
v -4.400005 4.558633 0.7008853
vt 0.9765625 0.23779297
vt 0.50341797 0.23779297
vt 0.50341797 0.2631836
vt 0.9941406 0.2631836
vt 0.5209961 0.23779297
vt 0.50439453 0.2631836
vt 0.9482422 0.2631836
vt 0.9423828 0.23779297
vt 0.50927734 0.23779297
vt 0.50439453 0.2631836
vt 0.8959961 0.2631836
vt 0.8959961 0.23779297
vt 0.9423828 0.20361328
vt 0.5209961 0.20361328
vt 0.5209961 0.23779297
vt 0.9423828 0.23779297
vt 0.8959961 0.23779297
vt 0.8959961 0.20361328
vt 0.50927734 0.20361328
vt 0.50927734 0.23779297
vt 0.6503906 0.19921875
vt 0.50390625 0.23449707
vt 0.50390625 0.19921875
vt 0.99658203 0.23449707
vt 0.99658203 0.124694824
vt 0.6503906 0.124694824
vt 0.5078125 0.20361328
vt 0.50439453 0.20361328
vt 0.50439453 0.23779297
vt 0.99902344 0.23779297
vt 0.99902344 0.20361328
vt 0.50390625 0.23449707
vt 0.50390625 0.124694824
vt 0.8955078 0.124694824
vt 0.8955078 0.23449707
vt 0.9472656 0.23449707
vt 0.50390625 0.23449707
vt 0.50390625 0.124572754
vt 0.9472656 0.124694824
vt 0.50439453 0.2631836
vt 0.99902344 0.2631836
vt 0.99902344 0.23779297
vt 0.50439453 0.23779297
vt 0.50390625 0.19921875
vt 0.99658203 0.19921875
vt 0.99658203 0.23449707
vt 0.50390625 0.23449707
vt 0.9765625 0.20361328
vt 0.50341797 0.20361328
vt 0.50341797 0.23779297
vt 0.9765625 0.23779297
vn -0 0 1
vn -0 0 1
vn -0 0 1
vn -1.1920929E-07 0 1
vn -0 0 1
vn -1.1920929E-07 0 1
vn -0 0 1
vn -0 0 1
vn -0 0 1
vn -0 0 1
vn 2.3841858E-07 0 1
vn 2.3841858E-07 0 1
vn 0.20202637 -0.9794922 -5.9604645E-06
vn 0.39575195 -0.91845703 -5.6028366E-06
vn 0.39575195 -0.91845703 -5.6028366E-06
vn 0.20202637 -0.9794922 -5.9604645E-06
vn 5.364418E-07 -1 -6.0796738E-06
vn 5.364418E-07 -1 -6.0796738E-06
vn 0.20202637 -0.9794922 -5.9604645E-06
vn 0.20202637 -0.9794922 -5.9604645E-06
vn -1 0 0
vn -1 0 0
vn -1 0 0
vn -0.83496094 0.55078125 0
vn -0.83496094 0.55078125 0
vn -1 0 0
vn 1 0 0
vn 1 0 0
vn 1 0 0
vn 1 0 0
vn 1 0 0
vn -0.20092773 0.9794922 0
vn -0.20092773 0.9794922 0
vn -0 1 0
vn -0 1 0
vn -0.20092773 0.9794922 0
vn -0.83496094 0.55078125 0
vn -0.83496094 0.55078125 0
vn -0.20092773 0.9794922 0
vn -0 0 1
vn -0 0 1
vn -0 0 1
vn -0 0 1
vn -1 0 0
vn -1 0 0
vn -1 0 0
vn -1 0 0
vn 1 0 0
vn 1 0 0
vn 1 0 0
vn 1 0 0
g Bg_Uptown_STR_Base_Wall_07_0
f 3/3/3 2/2/2 1/1/1
f 4/4/4 3/3/3 1/1/1
f 7/7/7 6/6/6 5/5/5
f 8/8/8 7/7/7 5/5/5
f 11/11/11 10/10/10 9/9/9
f 12/12/12 11/11/11 9/9/9
f 15/15/15 14/14/14 13/13/13
f 16/16/16 15/15/15 13/13/13
f 19/19/19 18/18/18 17/17/17
f 20/20/20 19/19/19 17/17/17
f 23/23/23 22/22/22 21/21/21
f 22/22/22 24/24/24 21/21/21
f 25/25/25 21/21/21 24/24/24
f 26/26/26 21/21/21 25/25/25
f 29/29/29 28/28/28 27/27/27
f 27/27/27 30/30/30 29/29/29
f 27/27/27 31/31/31 30/30/30
f 34/34/34 33/33/33 32/32/32
f 35/35/35 34/34/34 32/32/32
f 38/38/38 37/37/37 36/36/36
f 39/39/39 38/38/38 36/36/36
f 42/42/42 41/41/41 40/40/40
f 43/43/43 42/42/42 40/40/40
f 46/46/46 45/45/45 44/44/44
f 47/47/47 46/46/46 44/44/44
f 50/50/50 49/49/49 48/48/48
f 51/51/51 50/50/50 48/48/48
