g Common_OBJ_UpTown_RoofDeco_01
v -1.0293624 -0.3679611 0.028804196
v -1.0329517 -0.3679599 -0.10114622
v -1.0329517 -0.25751677 -0.10114561
v -1.0293624 -0.25751922 0.028804807
v -0.08403462 -0.3679611 -0.08162226
v -1.0329517 -0.25751677 -0.10114561
v -1.0329517 -0.3679599 -0.10114622
v -0.0840349 -0.257518 -0.08162348
v 0.5923765 -0.25751922 -0.030142106
v 0.59237677 -0.3679611 -0.030142099
v -0.080441765 -0.3679599 0.048326414
v -1.0329517 -0.3679599 -0.10114622
v -1.0293624 -0.3679611 0.028804196
v -0.08403462 -0.3679611 -0.08162226
v 0.59237677 -0.3679611 -0.030142099
v 0.5846293 -0.3679599 0.09903057
v -0.08044209 -0.25751922 0.048327018
v -1.0293624 -0.3679611 0.028804196
v -1.0293624 -0.25751922 0.028804807
v -0.080441765 -0.3679599 0.048326414
v 0.5846293 -0.3679599 0.09903057
v 0.584629 -0.257518 0.09903057
v -0.0840349 -0.257518 -0.08162348
v -1.0293624 -0.25751922 0.028804807
v -1.0329517 -0.25751677 -0.10114561
v -0.08044209 -0.25751922 0.048327018
v 0.5923765 -0.25751922 -0.030142106
v 0.584629 -0.257518 0.09903057
v -1.029362 0.06540802 0.028803596
v -1.0329514 0.06540802 -0.10114682
v -1.0329514 0.17584991 -0.101146206
v -1.0293623 0.17584991 0.028803587
v -0.08403459 0.0654068 -0.08162348
v -1.0329514 0.17584991 -0.101146206
v -1.0329514 0.06540802 -0.10114682
v -0.08403459 0.17585114 -0.08162348
v 0.60360175 0.17585114 -0.034425225
v 0.60360175 0.06540802 -0.034425225
v -0.080441184 0.06541046 0.048327643
v -1.0329514 0.06540802 -0.10114682
v -1.029362 0.06540802 0.028803596
v -0.08403459 0.0654068 -0.08162348
v 0.60360175 0.06540802 -0.034425225
v 0.5958689 0.065409236 0.09479908
v -0.08044148 0.17584991 0.04832703
v -1.029362 0.06540802 0.028803596
v -1.0293623 0.17584991 0.028803587
v -0.080441184 0.06541046 0.048327643
v 0.5958689 0.065409236 0.09479908
v 0.5958686 0.17584991 0.09479908
v -0.08403459 0.17585114 -0.08162348
v -1.0293623 0.17584991 0.028803587
v -1.0329514 0.17584991 -0.101146206
v -0.08044148 0.17584991 0.04832703
v 0.60360175 0.17585114 -0.034425225
v 0.5958686 0.17584991 0.09479908
v -0.66296583 0.42732543 0.0006033492
v -0.6545004 0.42732665 -0.12911998
v -0.6544998 -0.5822537 -0.12911996
v -0.66296524 -0.5822525 0.0006033611
v -0.7842225 0.42732665 -0.13758723
v -0.7842219 -0.5822537 -0.13758722
v -0.6544998 -0.5822537 -0.12911996
v -0.6545004 0.42732665 -0.12911998
v -0.7842225 0.42732665 -0.13758723
v -0.79268795 0.42732543 -0.007862683
v -0.79268736 -0.58225495 -0.0078632785
v -0.7842219 -0.5822537 -0.13758722
v -0.79268795 0.42732543 -0.007862683
v -0.66296583 0.42732543 0.0006033492
v -0.66296524 -0.5822525 0.0006033611
v -0.79268736 -0.58225495 -0.0078632785
v 0.07100855 0.4493289 0.036291532
v 0.07947584 0.44932768 -0.09343237
v 0.07947616 -0.5876822 -0.09343297
v 0.07100914 -0.5876822 0.03629215
v -0.050246514 0.44933012 -0.10190024
v -0.050245903 -0.5876834 -0.10190022
v 0.07947616 -0.5876822 -0.09343297
v 0.07947584 0.44932768 -0.09343237
v -0.050246514 0.44933012 -0.10190024
v -0.05871353 0.44933012 0.027824888
v -0.058712892 -0.5876822 0.027823681
v -0.050245903 -0.5876834 -0.10190022
v -0.05871353 0.44933012 0.027824888
v 0.07100855 0.4493289 0.036291532
v 0.07100914 -0.5876822 0.03629215
v -0.058712892 -0.5876822 0.027823681
v -1.0341926 -0.604245 -0.113032825
v -1.0341918 -0.1623288 -0.11303159
v -1.0381765 -0.1623288 -0.052002676
v -1.038177 -0.6042462 -0.052003298
v 0.580691 -0.16825165 0.049260043
v -1.1126431 -0.16825165 -0.05960198
v -1.1126441 0.4616989 -0.059602004
v 0.58069015 0.4616989 0.0492588
v 0.58467454 -0.16825287 -0.011769504
v -1.1086586 -0.16825287 -0.12063089
v -1.1126431 -0.16825165 -0.05960198
v 0.580691 -0.16825165 0.049260043
v -1.0341918 -0.1623288 -0.11303159
v 0.52521354 -0.16233002 -0.07461876
v 0.57636404 -0.16233794 0.051660597
v -1.0381765 -0.1623288 -0.052002676
v 0.57636404 -0.16233794 0.051660597
v 0.57636464 -0.604245 0.05165024
v -1.038177 -0.6042462 -0.052003298
v -1.0381765 -0.1623288 -0.052002676
v -1.1086586 -0.16825287 -0.12063089
v -1.1086608 0.46169767 -0.12063033
v -1.1126441 0.4616989 -0.059602004
v -1.1126431 -0.16825165 -0.05960198
v 0.57636464 -0.604245 0.05165024
v 0.52530044 -0.60424435 -0.07608865
v -1.0341641 -0.6042459 -0.11450779
v -1.038177 -0.6042462 -0.052003298
v -1.1126441 0.4616989 -0.059602004
v -1.1086259 0.4616986 -0.12210575
v 0.5847082 0.4616986 -0.013245562
v 0.58069015 0.4616989 0.0492588
vt 0.5932617 0.109313965
vt 0.5932617 0.07434082
vt 0.62841797 0.07434082
vt 0.62841797 0.109313965
vt 1.1132812 0.13000488
vt 1.5214844 0.06304932
vt 1.5214844 0.13000488
vt 1.1132812 0.06304932
vt 0.9140625 0.06304932
vt 0.9140625 0.13000488
vt 1.1132812 0.13000488
vt 1.5214844 0.06304932
vt 1.5214844 0.13000488
vt 1.1132812 0.06304932
vt 0.9135742 0.050109863
vt 0.9140625 0.117248535
vt 1.1132812 0.13000488
vt 1.5214844 0.06304932
vt 1.5214844 0.13000488
vt 1.1132812 0.06304932
vt 0.9140625 0.06304932
vt 0.9140625 0.13000488
vt 1.1132812 0.13000488
vt 1.5214844 0.06304932
vt 1.5214844 0.13000488
vt 1.1132812 0.06304932
vt 0.9140625 0.1427002
vt 0.9135742 0.07598877
vt 0.12756348 0.109313965
vt 0.12756348 0.07434082
vt 0.16259766 0.07434082
vt 0.16259766 0.109313965
vt 0.64746094 0.13000488
vt 1.0556641 0.06304932
vt 1.0556641 0.13000488
vt 0.64746094 0.06304932
vt 0.44677734 0.06304932
vt 0.44677734 0.13000488
vt 0.64746094 0.13000488
vt 1.0556641 0.06304932
vt 1.0556641 0.13000488
vt 0.64746094 0.06304932
vt 0.44628906 0.052581787
vt 0.44702148 0.119628906
vt 0.64746094 0.13000488
vt 1.0556641 0.06304932
vt 1.0556641 0.13000488
vt 0.64746094 0.06304932
vt 0.44702148 0.06304932
vt 0.44702148 0.13000488
vt 0.64746094 0.13000488
vt 1.0556641 0.06304932
vt 1.0556641 0.13000488
vt 0.64746094 0.06304932
vt 0.44677734 0.14025879
vt 0.4465332 0.07354736
vt 0.8198242 0.06304932
vt 0.8198242 0.13000488
vt 0.30078125 0.13000488
vt 0.30078125 0.06304932
vt 0.8198242 0.13000488
vt 0.30078125 0.13000488
vt 0.30078125 0.06304932
vt 0.8198242 0.06304932
vt 0.8198242 0.06304932
vt 0.8198242 0.13000488
vt 0.30078125 0.13000488
vt 0.30078125 0.06304932
vt 0.8198242 0.06304932
vt 0.8198242 0.13000488
vt 0.30078125 0.13000488
vt 0.30078125 0.06304932
vt 1.8857422 0.06304932
vt 1.8857422 0.13000488
vt 1.3525391 0.13000488
vt 1.3525391 0.06304932
vt 1.8857422 0.13000488
vt 1.3525391 0.13000488
vt 1.3525391 0.06304932
vt 1.8857422 0.06304932
vt 1.8857422 0.06304932
vt 1.8857422 0.13000488
vt 1.3525391 0.13000488
vt 1.3525391 0.06304932
vt 1.8857422 0.06304932
vt 1.8857422 0.13000488
vt 1.3525391 0.13000488
vt 1.3525391 0.06304932
vt 0.93896484 0.0061912537
vt 0.71435547 0.0061912537
vt 0.71435547 0.03729248
vt 0.93896484 0.03729248
vt 0.6191406 0.734375
vt 0.6191406 0.026992798
vt 0.35620117 0.026992798
vt 0.35620117 0.734375
vt 0.64453125 0.734375
vt 0.64453125 0.027008057
vt 0.6191406 0.026992798
vt 0.6191406 0.734375
vt 0.68310547 0.037322998
vt 0.65185547 0.8300781
vt 0.71435547 0.86035156
vt 0.71435547 0.03729248
vt 0.71435547 0.86035156
vt 0.93896484 0.86035156
vt 0.93896484 0.03729248
vt 0.71435547 0.03729248
vt 0.3527832 0.030593872
vt 0.61572266 0.030853271
vt 0.61572266 0.0053482056
vt 0.3527832 0.005092621
vt 0.40795898 0.77441406
vt 0.46240234 0.74853516
vt 0.43554688 0.06604004
vt 0.40795898 0.06604004
vt 0.38793945 0.06518555
vt 0.36279297 0.06518555
vt 0.36279297 0.7475586
vt 0.38793945 0.7475586
vn -0.9995117 -1.7881393E-07 0.02760315
vn -0.9995117 -1.7881393E-07 0.02760315
vn -0.9995117 -1.7881393E-07 0.02760315
vn -0.9995117 -1.7881393E-07 0.02760315
vn 0.04824829 -4.053116E-06 -0.99902344
vn 0.020568848 -2.7418137E-06 -1
vn 0.020568848 -2.7418137E-06 -1
vn 0.04824829 -4.053116E-06 -0.99902344
vn 0.0758667 -5.364418E-06 -0.9970703
vn 0.0758667 -5.364418E-06 -0.9970703
vn -3.5762787E-07 -1 4.9471855E-06
vn -0 -1 0
vn -0 -1 0
vn -3.5762787E-07 -1 4.4703484E-06
vn -7.1525574E-07 -1 9.417534E-06
vn -7.1525574E-07 -1 9.417534E-06
vn -0.048309326 -4.23193E-06 0.99902344
vn -0.020568848 -5.4836273E-06 1
vn -0.020568848 -5.4836273E-06 1
vn -0.048309326 -4.23193E-06 0.99902344
vn -0.07598877 -2.9206276E-06 0.9970703
vn -0.07598877 -2.9206276E-06 0.9970703
vn 1.7881393E-07 1 7.390976E-06
vn 3.5762787E-07 1 1.4066696E-05
vn 3.5762787E-07 1 1.4066696E-05
vn 1.7881393E-07 1 6.735325E-06
vn -0 1 0
vn -0 1 0
vn -0.9995117 -1.4305115E-06 0.02760315
vn -0.9995117 -1.4305115E-06 0.02760315
vn -0.9995117 -1.4305115E-06 0.02760315
vn -0.9995117 -1.4305115E-06 0.02760315
vn 0.044525146 1.3709068E-06 -0.99902344
vn 0.020568848 2.7418137E-06 -1
vn 0.020568848 2.7418137E-06 -1
vn 0.044525146 1.3709068E-06 -0.99902344
vn 0.068481445 0 -0.9975586
vn 0.068481445 0 -0.9975586
vn -5.364418E-07 -1 1.6570091E-05
vn 3.5762787E-07 -1 1.4066696E-05
vn 3.5762787E-07 -1 1.4066696E-05
vn -4.172325E-07 -1 1.6331673E-05
vn -1.3113022E-06 -1 1.8835068E-05
vn -1.3113022E-06 -1 1.8835068E-05
vn -0.04458618 2.682209E-06 0.99902344
vn -0.020568848 2.8014183E-06 1
vn -0.020568848 2.8014183E-06 1
vn -0.04458618 2.682209E-06 0.99902344
vn -0.06854248 2.5629997E-06 0.9975586
vn -0.06854248 2.5629997E-06 0.9975586
vn -7.1525574E-07 1 6.9737434E-06
vn -7.1525574E-07 1 4.708767E-06
vn -7.1525574E-07 1 4.708767E-06
vn -7.1525574E-07 1 7.1525574E-06
vn -6.556511E-07 1 9.417534E-06
vn -6.556511E-07 1 9.417534E-06
vn 0.9980469 5.9604645E-07 0.06512451
vn 0.9980469 5.9604645E-07 0.06512451
vn 0.9980469 5.9604645E-07 0.06512451
vn 0.9980469 5.9604645E-07 0.06512451
vn 0.06512451 0 -0.9980469
vn 0.06512451 0 -0.9980469
vn 0.06512451 0 -0.9980469
vn 0.06512451 0 -0.9980469
vn -0.9980469 -5.9604645E-07 -0.06512451
vn -0.9980469 -5.9604645E-07 -0.06512451
vn -0.9980469 -5.9604645E-07 -0.06512451
vn -0.9980469 -5.9604645E-07 -0.06512451
vn -0.06512451 -2.9802322E-07 0.9980469
vn -0.06512451 -2.9802322E-07 0.9980469
vn -0.06512451 -2.9802322E-07 0.9980469
vn -0.06512451 -2.9802322E-07 0.9980469
vn 0.9980469 4.172325E-07 0.06512451
vn 0.9980469 4.172325E-07 0.06512451
vn 0.9980469 4.172325E-07 0.06512451
vn 0.9980469 4.172325E-07 0.06512451
vn 0.06512451 2.9802322E-07 -0.9980469
vn 0.06512451 2.9802322E-07 -0.9980469
vn 0.06512451 2.9802322E-07 -0.9980469
vn 0.06512451 2.9802322E-07 -0.9980469
vn -0.9980469 -5.364418E-07 -0.06512451
vn -0.9980469 -5.364418E-07 -0.06512451
vn -0.9980469 -5.364418E-07 -0.06512451
vn -0.9980469 -5.364418E-07 -0.06512451
vn -0.06512451 -2.9802322E-07 0.9980469
vn -0.06512451 -2.9802322E-07 0.9980469
vn -0.06512451 -2.9802322E-07 0.9980469
vn -0.06512451 -2.9802322E-07 0.9980469
vn -0.9980469 1.4901161E-06 -0.06512451
vn -0.9980469 1.4901161E-06 -0.06512451
vn -0.9980469 1.4901161E-06 -0.06512451
vn -0.9980469 1.4901161E-06 -0.06512451
vn -0.06414795 8.940697E-07 0.9980469
vn -0.06414795 8.940697E-07 0.9980469
vn -0.06414795 8.940697E-07 0.9980469
vn -0.06414795 8.940697E-07 0.9980469
vn -1.2516975E-06 -1 1.9907951E-05
vn -1.2516975E-06 -1 1.9907951E-05
vn -1.2516975E-06 -1 1.9907951E-05
vn -1.2516975E-06 -1 1.9907951E-05
vn 1.3709068E-06 1 4.2021275E-05
vn 1.3709068E-06 1 4.2021275E-05
vn 1.3709068E-06 1 4.2021275E-05
vn 1.3709068E-06 1 4.2021275E-05
vn -0.064086914 -1.2397766E-05 0.9980469
vn -0.064086914 -1.2397766E-05 0.9980469
vn -0.064086914 -1.2397766E-05 0.9980469
vn -0.064086914 -1.2397766E-05 0.9980469
vn -0.9980469 -2.503395E-06 -0.06512451
vn -0.9980469 -2.503395E-06 -0.06512451
vn -0.9980469 -2.503395E-06 -0.06512451
vn -0.9980469 -2.503395E-06 -0.06512451
vn 1.0728836E-06 -1 -5.066395E-06
vn 1.0728836E-06 -1 -5.066395E-06
vn 1.0728836E-06 -1 -5.066395E-06
vn 1.0728836E-06 -1 -5.066395E-06
vn 2.9802322E-07 1 -4.887581E-06
vn 2.9802322E-07 1 -4.887581E-06
vn 2.9802322E-07 1 -4.887581E-06
vn 2.9802322E-07 1 -4.887581E-06
g Common_OBJ_UpTown_RoofDeco_01_0
f 3/3/3 2/2/2 1/1/1
f 4/4/4 3/3/3 1/1/1
f 7/7/7 6/6/6 5/5/5
f 6/6/6 8/8/8 5/5/5
f 8/8/8 9/9/9 5/5/5
f 9/9/9 10/10/10 5/5/5
f 13/13/13 12/12/12 11/11/11
f 12/12/12 14/14/14 11/11/11
f 14/14/14 15/15/15 11/11/11
f 15/15/15 16/16/16 11/11/11
f 19/19/19 18/18/18 17/17/17
f 18/18/18 20/20/20 17/17/17
f 20/20/20 21/21/21 17/17/17
f 21/21/21 22/22/22 17/17/17
f 25/25/25 24/24/24 23/23/23
f 24/24/24 26/26/26 23/23/23
f 23/23/23 26/26/26 27/27/27
f 26/26/26 28/28/28 27/27/27
f 31/31/31 30/30/30 29/29/29
f 32/32/32 31/31/31 29/29/29
f 35/35/35 34/34/34 33/33/33
f 34/34/34 36/36/36 33/33/33
f 36/36/36 37/37/37 33/33/33
f 37/37/37 38/38/38 33/33/33
f 41/41/41 40/40/40 39/39/39
f 40/40/40 42/42/42 39/39/39
f 42/42/42 43/43/43 39/39/39
f 43/43/43 44/44/44 39/39/39
f 47/47/47 46/46/46 45/45/45
f 46/46/46 48/48/48 45/45/45
f 48/48/48 49/49/49 45/45/45
f 49/49/49 50/50/50 45/45/45
f 53/53/53 52/52/52 51/51/51
f 52/52/52 54/54/54 51/51/51
f 51/51/51 54/54/54 55/55/55
f 54/54/54 56/56/56 55/55/55
f 59/59/59 58/58/58 57/57/57
f 60/60/60 59/59/59 57/57/57
f 63/63/63 62/62/62 61/61/61
f 64/64/64 63/63/63 61/61/61
f 67/67/67 66/66/66 65/65/65
f 68/68/68 67/67/67 65/65/65
f 71/71/71 70/70/70 69/69/69
f 72/72/72 71/71/71 69/69/69
f 75/75/75 74/74/74 73/73/73
f 76/76/76 75/75/75 73/73/73
f 79/79/79 78/78/78 77/77/77
f 80/80/80 79/79/79 77/77/77
f 83/83/83 82/82/82 81/81/81
f 84/84/84 83/83/83 81/81/81
f 87/87/87 86/86/86 85/85/85
f 88/88/88 87/87/87 85/85/85
g Common_OBJ_UpTown_RoofDeco_01_1
f 91/91/91 90/90/90 89/89/89
f 92/92/92 91/91/91 89/89/89
f 95/95/95 94/94/94 93/93/93
f 96/96/96 95/95/95 93/93/93
f 99/99/99 98/98/98 97/97/97
f 100/100/100 99/99/99 97/97/97
f 103/103/103 102/102/102 101/101/101
f 104/104/104 103/103/103 101/101/101
f 107/107/107 106/106/106 105/105/105
f 108/108/108 107/107/107 105/105/105
f 111/111/111 110/110/110 109/109/109
f 112/112/112 111/111/111 109/109/109
f 115/115/115 114/114/114 113/113/113
f 116/116/116 115/115/115 113/113/113
f 119/119/119 118/118/118 117/117/117
f 120/120/120 119/119/119 117/117/117
