g Common_OBJ_UpTown_RoofDeco_05
v -0.2747054 -0.14984907 -0.047482625
v 0.07251923 0.18128398 -0.036649413
v -0.27422693 -0.031558756 -0.048532944
v 0.07251923 0.18128398 -0.036649413
v 0.13736391 0.008648298 -0.03250352
v 0.14886542 0.07930342 -0.032685157
v -0.2747054 -0.14984907 -0.047482625
v 0.13736391 0.008648298 -0.03250352
v 0.07251923 0.18128398 -0.036649413
v 0.06316243 0.18172942 0.0101921065
v -0.27561638 0.13119876 0.024743417
v -0.27465743 0.1816446 -0.003262155
v 0.07161352 0.13129026 0.039255217
v -0.27611646 0.0770038 0.035452772
v 0.10489266 0.07710048 0.05062822
v 0.109110475 0.022713723 0.041050196
v -0.2760561 0.022616029 0.025709152
v 0.11016346 -0.031016367 0.013991825
v -0.2755184 -0.031112492 -0.0013693201
v 0.06360979 -0.14931545 0.013207313
v -0.27599606 -0.14940162 -0.00031896113
v 0.06360979 -0.14931545 0.013207313
v -0.2747054 -0.14984907 -0.047482625
v -0.27599606 -0.14940162 -0.00031896113
v 0.11157909 -0.14975108 -0.032096315
v 0.06316243 0.18172942 0.0101921065
v -0.2733654 0.18119831 -0.050425142
v 0.07251923 0.18128398 -0.036649413
v -0.27465743 0.1816446 -0.003262155
v -0.27561638 0.13119876 0.024743417
v -0.2733654 0.18119831 -0.050425142
v -0.27465743 0.1816446 -0.003262155
v -0.27357113 0.13048819 -0.049974546
v -0.27611646 0.0770038 0.035452772
v -0.27379033 0.076199226 -0.049492035
v -0.2760561 0.022616029 0.025709152
v -0.27401018 0.021909079 -0.049009398
v -0.2755184 -0.031112492 -0.0013693201
v -0.27422693 -0.031558756 -0.048532944
v -0.27599606 -0.14940162 -0.00031896113
v -0.2747054 -0.14984907 -0.047482625
v -0.27357113 0.13048819 -0.049974546
v 0.07251923 0.18128398 -0.036649413
v -0.2733654 0.18119831 -0.050425142
v -0.27379033 0.076199226 -0.049492035
v -0.27401018 0.021909079 -0.049009398
v -0.27422693 -0.031558756 -0.048532944
v -0.2747054 -0.14984907 -0.047482625
v 0.12898263 -0.042839013 -0.03237116
v 0.13736391 0.008648298 -0.03250352
v 0.11157909 -0.14975108 -0.032096315
v 0.11016346 -0.031016367 0.013991825
v 0.11157909 -0.14975108 -0.032096315
v 0.06360979 -0.14931545 0.013207313
v 0.11157909 -0.14975108 -0.032096315
v 0.11016346 -0.031016367 0.013991825
v 0.12898263 -0.042839013 -0.03237116
v 0.109110475 0.022713723 0.041050196
v 0.12898263 -0.042839013 -0.03237116
v 0.11016346 -0.031016367 0.013991825
v 0.14886542 0.07930342 -0.032685157
v 0.109110475 0.022713723 0.041050196
v 0.10489266 0.07710048 0.05062822
v 0.07251923 0.18128398 -0.036649413
v 0.07161352 0.13129026 0.039255217
v 0.06316243 0.18172942 0.0101921065
v 0.12898263 -0.042839013 -0.03237116
v 0.109110475 0.022713723 0.041050196
v 0.13736391 0.008648298 -0.03250352
v 0.14886542 0.07930342 -0.032685157
v 0.07251923 0.18128398 -0.036649413
v 0.10489266 0.07710048 0.05062822
v 0.07161352 0.13129026 0.039255217
v 0.14886542 0.07930342 -0.032685157
vt -20.421875 23.5625
vt -20.421875 23.59375
vt -20.21875 23.765625
vt -20.421875 23.59375
vt -20.40625 23.609375
vt -20.421875 23.609375
vt -20.421875 23.5625
vt -20.40625 23.609375
vt -20.421875 23.59375
vt -19.21875 21.40625
vt -19.203125 21.3125
vt -19.21875 21.3125
vt -19.203125 21.421875
vt -19.1875 21.3125
vt -19.1875 21.421875
vt -19.171875 21.421875
vt -19.171875 21.3125
vt -19.15625 21.421875
vt -19.15625 21.3125
vt -19.125 21.421875
vt -19.125 21.3125
vt -20.4375 23.609375
vt -20.421875 23.5625
vt -20.4375 23.5625
vt -20.421875 23.625
vt -20.4375 23.59375
vt -20.421875 23.640625
vt -20.421875 23.59375
vt -20.4375 23.640625
vt -20.234375 23.8125
vt -20.21875 23.8125
vt -20.234375 23.8125
vt -20.21875 23.8125
vt -20.234375 23.796875
vt -20.21875 23.796875
vt -20.234375 23.78125
vt -20.21875 23.78125
vt -20.234375 23.765625
vt -20.21875 23.765625
vt -20.234375 23.75
vt -20.21875 23.75
vt -20.21875 23.8125
vt -20.421875 23.59375
vt -20.21875 23.8125
vt -20.21875 23.796875
vt -20.21875 23.78125
vt -20.21875 23.765625
vt -20.421875 23.5625
vt -20.390625 23.625
vt -20.40625 23.609375
vt -20.375 23.640625
vt 0.34594727 0.26879883
vt 0.032958984 0.111206055
vt -0.0021209717 0.28686523
vt 0.032958984 0.111206055
vt 0.34594727 0.26879883
vt 0.32885742 0.13122559
vt 0.48754883 0.3540039
vt 0.32836914 0.12841797
vt 0.34594727 0.26879883
vt 0.66845703 0.1430664
vt 0.48754883 0.3540039
vt 0.6308594 0.39916992
vt 0.99365234 0.27319336
vt 0.8046875 0.43652344
vt 0.96240234 0.40063477
vt 0.32836914 0.12841797
vt 0.48754883 0.3540039
vt 0.4716797 0.13452148
vt 0.66845703 0.1430664
vt 0.99365234 0.27319336
vt 0.6308594 0.39916992
vt 0.8046875 0.43652344
vt 0.66845703 0.1430664
vn 0.039794922 -0.009033203 -0.99902344
vn 0.039794922 -0.009033203 -0.99902344
vn 0.039794922 -0.009033203 -0.99902344
vn 0.039794922 -0.009048462 -0.99902344
vn 0.039794922 -0.009048462 -0.99902344
vn 0.039794922 -0.009048462 -0.99902344
vn 0.039794922 -0.009048462 -0.99902344
vn 0.039794922 -0.009048462 -0.99902344
vn 0.039794922 -0.009048462 -0.99902344
vn -0.0362854 0.4934082 0.8691406
vn -0.038513184 0.34472656 0.9379883
vn -0.03491211 0.4855957 0.87353516
vn -0.03866577 0.3112793 0.94970703
vn -0.04067993 0.007987976 0.99902344
vn -0.039764404 -0.039245605 0.99853516
vn -0.037628174 -0.31958008 0.94677734
vn -0.03765869 -0.31713867 0.9477539
vn -0.038360596 -0.25878906 0.96533203
vn -0.038726807 -0.22595215 0.97314453
vn -0.039794922 0.009033203 0.99902344
vn -0.039794922 0.009033203 0.99902344
vn -0.00012409687 -1 0.009483337
vn -0.00012397766 -1 0.009483337
vn -0.00012397766 -1 0.009483337
vn -0.00012409687 -1 0.009483337
vn 0.0001296997 1 -0.009483337
vn 0.00012600422 1 -0.009460449
vn 0.00012993813 1 -0.009483337
vn 0.00012564659 1 -0.009460449
vn -0.9995117 0.0038051605 -0.027404785
vn -0.9995117 0.0037994385 -0.027404785
vn -0.9995117 0.003780365 -0.027420044
vn -0.9995117 0.0038051605 -0.027404785
vn -0.9995117 0.0038013458 -0.027404785
vn -0.9995117 0.0037975311 -0.027404785
vn -0.9995117 0.0038051605 -0.027404785
vn -0.9995117 0.0038070679 -0.027404785
vn -0.9995117 0.0038013458 -0.027404785
vn -0.9995117 0.0038013458 -0.027404785
vn -0.9995117 0.0037994385 -0.027389526
vn -0.9995117 0.0037994385 -0.027389526
vn 0.039794922 -0.0090408325 -0.99902344
vn 0.039794922 -0.0090408325 -0.99902344
vn 0.039794922 -0.0090408325 -0.99902344
vn 0.039794922 -0.0090408325 -0.99902344
vn 0.039794922 -0.0090408325 -0.99902344
vn 0.039794922 -0.009063721 -0.99902344
vn 0.039794922 -0.009048462 -0.99902344
vn 0.039794922 -0.009048462 -0.99902344
vn 0.039794922 -0.009048462 -0.99902344
vn 0.039794922 -0.009048462 -0.99902344
vn 0.66064453 -0.26464844 0.70214844
vn 0.66064453 -0.26464844 0.70214844
vn 0.66064453 -0.26464844 0.70214844
vn 0.9033203 -0.1459961 0.4038086
vn 0.9033203 -0.1459961 0.4038086
vn 0.9033203 -0.1459961 0.4038086
vn 0.89208984 -0.18920898 0.4104004
vn 0.89208984 -0.18920898 0.4104004
vn 0.89208984 -0.18920898 0.4104004
vn 0.88427734 -0.013557434 0.46655273
vn 0.88427734 -0.013557434 0.46655273
vn 0.88427734 -0.013557434 0.46655273
vn 0.9458008 0.26586914 0.18640137
vn 0.9458008 0.26586914 0.18640137
vn 0.9458008 0.26586914 0.18640137
vn 0.9135742 -0.14770508 0.3791504
vn 0.9135742 -0.14770508 0.3791504
vn 0.9135742 -0.14770508 0.3791504
vn 0.9135742 -0.14770508 0.3791504
vn 0.75683594 0.5415039 0.36572266
vn 0.75683594 0.5415039 0.36572266
vn 0.75683594 0.5415039 0.36572266
vn 0.7265625 0.5595703 0.3984375
g Common_OBJ_UpTown_RoofDeco_05_0
f 3/3/3 2/2/2 1/1/1
f 6/6/6 5/5/5 4/4/4
f 9/9/9 8/8/8 7/7/7
f 12/12/12 11/11/11 10/10/10
f 13/13/13 10/10/10 11/11/11
f 11/11/11 14/14/14 13/13/13
f 15/15/15 13/13/13 14/14/14
f 15/15/15 14/14/14 16/16/16
f 17/17/17 16/16/16 14/14/14
f 16/16/16 17/17/17 18/18/18
f 19/19/19 18/18/18 17/17/17
f 18/18/18 19/19/19 20/20/20
f 21/21/21 20/20/20 19/19/19
f 24/24/24 23/23/23 22/22/22
f 25/25/25 22/22/22 23/23/23
f 28/28/28 27/27/27 26/26/26
f 29/29/29 26/26/26 27/27/27
f 32/32/32 31/31/31 30/30/30
f 33/33/33 30/30/30 31/31/31
f 30/30/30 33/33/33 34/34/34
f 35/35/35 34/34/34 33/33/33
f 34/34/34 35/35/35 36/36/36
f 37/37/37 36/36/36 35/35/35
f 36/36/36 37/37/37 38/38/38
f 39/39/39 38/38/38 37/37/37
f 38/38/38 39/39/39 40/40/40
f 41/41/41 40/40/40 39/39/39
f 44/44/44 43/43/43 42/42/42
f 42/42/42 43/43/43 45/45/45
f 45/45/45 43/43/43 46/46/46
f 46/46/46 43/43/43 47/47/47
f 50/50/50 49/49/49 48/48/48
f 49/49/49 51/51/51 48/48/48
g Common_OBJ_UpTown_RoofDeco_05_1
f 54/54/54 53/53/53 52/52/52
f 57/57/57 56/56/56 55/55/55
f 60/60/60 59/59/59 58/58/58
f 63/63/63 62/62/62 61/61/61
f 66/66/66 65/65/65 64/64/64
f 69/69/69 68/68/68 67/67/67
f 69/69/69 70/70/70 68/68/68
f 73/73/73 72/72/72 71/71/71
f 74/74/74 71/71/71 72/72/72
