g Uptown_STR_House_01_Door
v 17.26 9.99 7.219114E-16
v 17.7 9.99 3.609557E-16
v 17.73 9.99 3.609557E-16
v 6.41 14.059999 2.8999999
v 4.5899997 14.53 2.8999999
v 6.41 14.53 2.8999999
v 4.5899997 14.53 2.8999999
v 6.41 14.059999 2.8999999
v 4.5899997 14.059999 2.8999999
v 4.5899997 14.53 2.8999999
v 4.5899997 14.059999 1.082867E-15
v 4.5899997 14.53 1.082867E-15
v 4.5899997 14.059999 1.082867E-15
v 4.5899997 14.53 2.8999999
v 4.5899997 14.059999 2.8999999
v 6.41 14.059999 2.8999999
v 6.41 14.53 1.082867E-15
v 6.41 14.059999 1.082867E-15
v 6.41 14.53 1.082867E-15
v 6.41 14.059999 2.8999999
v 6.41 14.53 2.8999999
v 17.73 12.61 2.8
v 17.26 12.61 5.414335E-16
v 17.26 12.61 2.8
v 17.7 12.610001 5.414335E-16
v 17.73 12.61 5.414335E-16
v 17.73 9.889999 2.8999999
v 17.73 9.99 3.609557E-16
v 17.73 9.889999 3.609557E-16
v 17.73 9.99 2.8
v 17.73 12.71 2.8999999
v 17.73 12.61 2.8
v 17.73 12.71 5.414335E-16
v 17.73 12.61 5.414335E-16
v 17.26 12.71 2.8999999
v 17.26 12.61 5.414335E-16
v 17.26 12.71 0
v 17.26 12.61 2.8
v 17.26 9.99 2.8
v 17.26 9.889999 2.8999999
v 17.26 9.889999 0
v 17.26 9.99 7.219114E-16
v 17.26 9.889999 2.8999999
v 17.73 9.889999 3.609557E-16
v 17.26 9.889999 0
v 17.73 9.889999 2.8999999
v 17.26 9.889999 2.8999999
v 17.73 12.71 2.8999999
v 17.73 9.889999 2.8999999
v 17.26 12.71 2.8999999
v 17.73 12.71 2.8999999
v 17.26 12.71 0
v 17.73 12.71 5.414335E-16
v 17.26 12.71 2.8999999
v 17.73 12.61 2.8
v 17.26 9.99 2.8
v 17.73 9.99 2.8
v 17.26 12.61 2.8
v 17.26 9.99 7.219114E-16
v 17.73 9.99 2.8
v 17.26 9.99 2.8
v 17.73 9.99 3.609557E-16
v 6.41 14.53 1.082867E-15
v 6.31 14.53 2.8
v 6.31 14.53 1.082867E-15
v 6.41 14.53 2.8999999
v 4.5899997 14.53 2.8999999
v 4.69 14.53 2.8
v 4.69 14.53 1.082867E-15
v 4.5899997 14.53 1.082867E-15
v 6.31 14.53 2.8
v 6.31 14.059999 1.082867E-15
v 6.31 14.53 1.082867E-15
v 6.31 14.059999 2.8
v 6.31 14.53 2.8
v 4.69 14.059999 2.8
v 6.31 14.059999 2.8
v 4.69 14.53 2.8
v 4.69 14.53 1.082867E-15
v 4.69 14.059999 2.8
v 4.69 14.53 2.8
v 4.69 14.059999 1.082867E-15
v 4.5899997 14.059999 1.082867E-15
v 4.69 14.059999 2.8
v 4.69 14.059999 1.082867E-15
v 4.5899997 14.059999 2.8999999
v 6.41 14.059999 2.8999999
v 6.31 14.059999 2.8
v 6.31 14.059999 1.082867E-15
v 6.41 14.059999 1.082867E-15
v 3.61 0.53999996 2.8
v 1.99 0.089999996 2.8
v 3.61 0.089999996 2.8
v 1.99 0.53999996 2.8
v 1.99 0.53999996 1.8047785E-16
v 1.99 0.089999996 2.8
v 1.99 0.53999996 2.8
v 1.99 0.089999996 1.8047785E-16
v 3.61 0.089999996 2.8
v 3.61 0.53999996 1.8047785E-16
v 3.61 0.53999996 2.8
v 3.61 0.089999996 1.8047785E-16
v 1.99 0.089999996 2.8
v 1.99 0.089999996 1.8047785E-16
v 1.8899997 0.089999996 3.609557E-16
v 1.8899997 0.089999996 2.8999999
v 3.7099996 0.089999996 2.8999999
v 3.61 0.089999996 2.8
v 3.61 0.089999996 1.8047785E-16
v 3.7099996 0.089999996 1.8047785E-16
v 3.7099996 0.53999996 1.8047785E-16
v 3.61 0.53999996 2.8
v 3.61 0.53999996 1.8047785E-16
v 3.7099996 0.53999996 2.8999999
v 1.8899997 0.53999996 2.8999999
v 1.99 0.53999996 2.8
v 1.8899997 0.53999996 3.609557E-16
v 1.99 0.53999996 1.8047785E-16
v 1.8899997 0.53999996 2.8999999
v 1.8899997 0.089999996 3.609557E-16
v 1.8899997 0.53999996 3.609557E-16
v 1.8899997 0.089999996 2.8999999
v 1.8899997 0.53999996 2.8999999
v 3.7099996 0.089999996 2.8999999
v 1.8899997 0.089999996 2.8999999
v 3.7099996 0.53999996 2.8999999
v 3.7099996 0.53999996 1.8047785E-16
v 3.7099996 0.089999996 2.8999999
v 3.7099996 0.53999996 2.8999999
v 3.7099996 0.089999996 1.8047785E-16
vt -5.2304688 0
vt -5.3632812 0
vt -5.3710938 0
vt 1.1591797 4.40625
vt 4.4882812 0.5180664
vt 4.6289062 -0.33032227
vt 4.4882812 0.5180664
vt 1.1591797 4.40625
vt 1.7109375 0.88183594
vt 4.4335938 0.8461914
vt 4.4179688 0.9667969
vt 4.4335938 -0.0022735596
vt 4.4179688 0.9667969
vt 4.4335938 0.8461914
vt 1.9570312 0.9667969
vt 5.0351562 0.5073242
vt 4.4765625 -0.33032227
vt 2.0234375 4.0625
vt 4.4765625 -0.33032227
vt 5.0351562 0.5073242
vt -1.6972656 3.9296875
vt 5.3710938 0.8486328
vt 5.2304688 0
vt 5.2304688 0.8486328
vt 5.3632812 0
vt 5.3710938 0
vt 2.9960938 0.87890625
vt 3.0273438 -0
vt 2.9960938 -0
vt 3.0273438 0.8486328
vt 3.8515625 0.87890625
vt 3.8203125 0.8486328
vt 3.8515625 -0
vt 3.8203125 -0
vt -3.8515625 0.87890625
vt -3.8203125 -0
vt -3.8515625 -0
vt -3.8203125 0.8486328
vt -3.0273438 0.8486328
vt -2.9960938 0.87890625
vt -2.9960938 -0
vt -3.0273438 -0
vt 0.0020008087 0.3371582
vt 0.05630493 0.0020008087
vt 0.0020008087 0.0020008087
vt 0.05630493 0.3371582
vt 0.0020008087 0.3371582
vt 0.05630493 0.66308594
vt 0.05630493 0.3371582
vt 0.0020008087 0.66308594
vt 0.05630493 0.66308594
vt 0.0020008087 0.9980469
vt 0.05630493 0.9980469
vt 0.0020008087 0.66308594
vt -5.3710938 3.8203125
vt -5.2304688 3.0273438
vt -5.3710938 3.0273438
vt -5.2304688 3.8203125
vt -5.2304688 0
vt -5.3710938 0.8486328
vt -5.2304688 0.8486328
vt -5.3710938 0
vt -1.9423828 0
vt -1.9121094 0.8486328
vt -1.9121094 0
vt -1.9423828 0.87890625
vt -1.390625 0.87890625
vt -1.4208984 0.8486328
vt -1.4208984 0
vt -1.390625 0
vt -4.4023438 0.8486328
vt -4.2617188 0
vt -4.4023438 0
vt -4.2617188 0.8486328
vt -1.9121094 4.4023438
vt -1.4208984 4.2617188
vt -1.9121094 4.2617188
vt -1.4208984 4.4023438
vt 4.4023438 0
vt 4.2617188 0.8486328
vt 4.4023438 0.8486328
vt 4.2617188 0
vt 1.390625 0
vt 1.4208984 0.8486328
vt 1.4208984 0
vt 1.390625 0.87890625
vt 1.9423828 0.87890625
vt 1.9121094 0.8486328
vt 1.9121094 0
vt 1.9423828 0
vt -1.09375 0.16369629
vt -0.60302734 0.027267456
vt -1.09375 0.027267456
vt -0.60302734 0.16369629
vt 0.16369629 0
vt 0.027267456 0.8486328
vt 0.16369629 0.8486328
vt 0.027267456 0
vt -0.027267456 0.8486328
vt -0.16369629 0
vt -0.16369629 0.8486328
vt -0.027267456 0
vt 0.60302734 0.8486328
vt 0.60302734 0
vt 0.5727539 0
vt 0.5727539 0.87890625
vt 1.1240234 0.87890625
vt 1.09375 0.8486328
vt 1.09375 0
vt 1.1240234 0
vt -1.1240234 0
vt -1.09375 0.8486328
vt -1.09375 0
vt -1.1240234 0.87890625
vt -0.5727539 0.87890625
vt -0.60302734 0.8486328
vt -0.5727539 0
vt -0.60302734 0
vt 0.0020008087 0.38110352
vt 0.060821533 0.0020008087
vt 0.0020008087 0.0020008087
vt 0.060821533 0.38110352
vt 0.0020008087 0.38110352
vt 0.060821533 0.6191406
vt 0.060821533 0.38110352
vt 0.0020008087 0.6191406
vt 0.0020008087 0.9980469
vt 0.060821533 0.6191406
vt 0.0020008087 0.6191406
vt 0.060821533 0.9980469
vn -0 1 0
vn -0 1 0
vn -0 1 0
vn -0 0 1
vn -0 0 1
vn -0 0 1
vn -0 0 1
vn -0 0 1
vn -0 0 1
vn -1 0 0
vn -1 0 0
vn -1 0 0
vn -1 0 0
vn -1 0 0
vn -1 0 0
vn 1 0 0
vn 1 0 0
vn 1 0 0
vn 1 0 0
vn 1 0 0
vn 1 0 0
vn -0 -1 0
vn -0 -1 0
vn -0 -1 0
vn 2.8014183E-06 -1 -4.7683716E-07
vn -4.0709972E-05 -1 0
vn 1 0 0
vn 1 0 0
vn 1 0 0
vn 1 0 0
vn 1 0 0
vn 1 0 0
vn 1 0 0
vn 1 0 0
vn -1 0 0
vn -1 0 0
vn -1 0 0
vn -1 0 0
vn -1 0 0
vn -1 0 0
vn -1 0 0
vn -1 0 0
vn -0 -1 0
vn -0 -1 0
vn -0 -1 0
vn -0 -1 0
vn -0 0 1
vn -0 0 1
vn -0 0 1
vn -0 0 1
vn -0 1 0
vn -0 1 0
vn -0 1 0
vn -0 1 0
vn -0 0 -1
vn -0 0 -1
vn -0 0 -1
vn -0 0 -1
vn -0 1 0
vn -0 1 0
vn -0 1 0
vn -0 1 0
vn -0 1 0
vn -0 1 0
vn -0 1 0
vn -0 1 0
vn -0 1 0
vn -0 1 0
vn -0 1 0
vn -0 1 0
vn -1 0 0
vn -1 0 0
vn -1 0 0
vn -1 0 0
vn -0 0 -1
vn -0 0 -1
vn -0 0 -1
vn -0 0 -1
vn 1 0 0
vn 1 0 0
vn 1 0 0
vn 1 0 0
vn -0 -1 0
vn -0 -1 0
vn -0 -1 0
vn -0 -1 0
vn -0 -1 0
vn -0 -1 0
vn -0 -1 0
vn -0 -1 0
vn -0 0 -1
vn -0 0 -1
vn -0 0 -1
vn -0 0 -1
vn 1 0 0
vn 1 0 0
vn 1 0 0
vn 1 0 0
vn -1 0 0
vn -1 0 0
vn -1 0 0
vn -1 0 0
vn -0 -1 0
vn -0 -1 0
vn -0 -1 0
vn -0 -1 0
vn -0 -1 0
vn -0 -1 0
vn -0 -1 0
vn -0 -1 0
vn -0 1 0
vn -0 1 0
vn -0 1 0
vn -0 1 0
vn -0 1 0
vn -0 1 0
vn -0 1 0
vn -0 1 0
vn -1 0 0
vn -1 0 0
vn -1 0 0
vn -1 0 0
vn -0 0 1
vn -0 0 1
vn -0 0 1
vn -0 0 1
vn 1 0 0
vn 1 0 0
vn 1 0 0
vn 1 0 0
g Uptown_STR_House_01_Door_0
f 3/3/3 2/2/2 1/1/1
f 6/6/6 5/5/5 4/4/4
f 9/9/9 8/8/8 7/7/7
f 12/12/12 11/11/11 10/10/10
f 15/15/15 14/14/14 13/13/13
f 18/18/18 17/17/17 16/16/16
f 21/21/21 20/20/20 19/19/19
f 24/24/24 23/23/23 22/22/22
f 23/23/23 25/25/25 22/22/22
f 25/25/25 26/26/26 22/22/22
f 29/29/29 28/28/28 27/27/27
f 30/30/30 27/27/27 28/28/28
f 27/27/27 30/30/30 31/31/31
f 32/32/32 31/31/31 30/30/30
f 31/31/31 32/32/32 33/33/33
f 34/34/34 33/33/33 32/32/32
f 37/37/37 36/36/36 35/35/35
f 36/36/36 38/38/38 35/35/35
f 38/38/38 39/39/39 35/35/35
f 39/39/39 40/40/40 35/35/35
f 41/41/41 40/40/40 39/39/39
f 42/42/42 41/41/41 39/39/39
f 45/45/45 44/44/44 43/43/43
f 46/46/46 43/43/43 44/44/44
f 49/49/49 48/48/48 47/47/47
f 50/50/50 47/47/47 48/48/48
f 53/53/53 52/52/52 51/51/51
f 54/54/54 51/51/51 52/52/52
f 57/57/57 56/56/56 55/55/55
f 58/58/58 55/55/55 56/56/56
f 61/61/61 60/60/60 59/59/59
f 60/60/60 62/62/62 59/59/59
f 65/65/65 64/64/64 63/63/63
f 64/64/64 66/66/66 63/63/63
f 67/67/67 66/66/66 64/64/64
f 68/68/68 67/67/67 64/64/64
f 69/69/69 67/67/67 68/68/68
f 70/70/70 67/67/67 69/69/69
f 73/73/73 72/72/72 71/71/71
f 74/74/74 71/71/71 72/72/72
f 77/77/77 76/76/76 75/75/75
f 78/78/78 75/75/75 76/76/76
f 81/81/81 80/80/80 79/79/79
f 82/82/82 79/79/79 80/80/80
f 85/85/85 84/84/84 83/83/83
f 84/84/84 86/86/86 83/83/83
f 87/87/87 86/86/86 84/84/84
f 88/88/88 87/87/87 84/84/84
f 89/89/89 87/87/87 88/88/88
f 90/90/90 87/87/87 89/89/89
f 93/93/93 92/92/92 91/91/91
f 94/94/94 91/91/91 92/92/92
f 97/97/97 96/96/96 95/95/95
f 98/98/98 95/95/95 96/96/96
f 101/101/101 100/100/100 99/99/99
f 102/102/102 99/99/99 100/100/100
f 105/105/105 104/104/104 103/103/103
f 106/106/106 105/105/105 103/103/103
f 107/107/107 106/106/106 103/103/103
f 108/108/108 107/107/107 103/103/103
f 108/108/108 109/109/109 107/107/107
f 110/110/110 107/107/107 109/109/109
f 113/113/113 112/112/112 111/111/111
f 112/112/112 114/114/114 111/111/111
f 115/115/115 114/114/114 112/112/112
f 116/116/116 115/115/115 112/112/112
f 117/117/117 115/115/115 116/116/116
f 118/118/118 117/117/117 116/116/116
f 121/121/121 120/120/120 119/119/119
f 122/122/122 119/119/119 120/120/120
f 125/125/125 124/124/124 123/123/123
f 126/126/126 123/123/123 124/124/124
f 129/129/129 128/128/128 127/127/127
f 130/130/130 127/127/127 128/128/128
