g Uptown_STR_Garden_03
v 11.15 -0.109999985 -4.6328664E-13
v 11.15 1.03 0.14999999
v 11.15 1.03 0
v 11.15 -0.109999985 0.14999999
v -0 1.03 8.6786385E-12
v 11.15 1.03 0.14999999
v 9.8179955E-14 1.03 0.14999999
v 11.15 1.03 0
v 11.15 -0.109999985 0.14999999
v 11.13 1.01 0.14999999
v 11.15 1.03 0.14999999
v 11.13 -0.109999985 0.14999999
v 9.8179955E-14 1.03 0.14999999
v -0 -0.109999985 -4.6328664E-13
v -0 1.03 8.6786385E-12
v -9.8179955E-14 -0.109999985 0.14999999
v 0.019999998 -0.109999985 0.14999999
v 9.8179955E-14 1.03 0.14999999
v 0.019999998 1.01 0.14999999
v -9.8179955E-14 -0.109999985 0.14999999
v 0.019999998 1.01 0.14999999
v 11.15 1.03 0.14999999
v 11.13 1.01 0.14999999
v 9.8179955E-14 1.03 0.14999999
v 11.13 -0.109999985 0.14999999
v -9.8179955E-14 -0.109999985 0.14999999
v 0.019999998 -0.109999985 0.14999999
v 11.13 -0.109999985 0.14999999
v -0 -0.109999985 -4.6328664E-13
v -9.8179955E-14 -0.109999985 0.14999999
v 11.15 -0.109999985 0.14999999
v -0 -0.109999985 -4.6328664E-13
v 11.13 -0.109999985 0.14999999
v 11.15 -0.109999985 0.14999999
v 11.15 -0.109999985 -4.6328664E-13
v -0 -0.109999985 -4.6328664E-13
v 11.15 1.03 0.39999998
v 1.2994404E-13 1.03 0.39999998
v 1.2994404E-13 1.01 0.39999998
v 0.099999994 -0.015 0.39999998
v 11.065 -0.015 0.39999998
v 11.05 -0.015 0.39999998
v 11.05 -0.009999999 0.39999998
v 0.099999994 -0.015 0.39999998
v 11.05 -0.015 0.39999998
v 0.099999994 -0.015 0.39999998
v 11.05 -0.009999999 0.39999998
v 0.099999994 -0.009999999 0.39999998
v 11.13 -0.109999985 0.39999998
v 0.019999998 -0.109999985 0.14999999
v 0.019999998 -0.109999985 0.39999998
v 11.13 -0.109999985 0.14999999
v 0.019999998 1.01 0.39999998
v 11.13 1.01 0.14999999
v 11.13 1.01 0.39999998
v 0.019999998 1.01 0.14999999
v 11.13 -0.109999985 0.14999999
v 11.13 1.01 0.39999998
v 11.13 1.01 0.14999999
v 11.13 -0.109999985 0.39999998
v 0.019999998 1.01 0.39999998
v 0.019999998 -0.109999985 0.14999999
v 0.019999998 1.01 0.14999999
v 0.019999998 -0.109999985 0.39999998
v 11.15 1.03 0.39999998
v 11.13 1.01 0.39999998
v 11.15 1.01 0.39999998
v 0.019999998 1.01 0.39999998
v 1.2994404E-13 1.01 0.39999998
v 0.019999998 1.01 0.39999998
v 1.2994404E-13 -0.109999985 0.39999998
v 0.019999998 -0.109999985 0.39999998
v 1.2994404E-13 1.01 0.39999998
v 11.15 1.01 0.39999998
v 11.13 -0.109999985 0.39999998
v 11.15 -0.109999985 0.39999998
v 11.13 1.01 0.39999998
v 11.065 0.9449999 0.39999998
v 0.085 0.9449999 0.35
v 0.085 0.9449999 0.39999998
v 11.065 0.9449999 0.35
v 0.085 0.9449999 0.35
v 0.085 0.93 0.39999998
v 0.085 0.9449999 0.39999998
v 0.085 -0.015 0.35
v 0.085 -0.015 0.39999998
v 11.065 0.93 0.39999998
v 11.065 0.9449999 0.35
v 11.065 0.9449999 0.39999998
v 11.065 -0.015 0.35
v 11.065 -0.015 0.39999998
v 0.085 -0.015 0.35
v 0.099999994 -0.015 0.39999998
v 0.085 -0.015 0.39999998
v 11.065 -0.015 0.39999998
v 11.065 -0.015 0.35
v 11.15 -0.109999985 0.45
v 1.2994404E-13 -0.109999985 0.39999998
v 1.7614638E-13 -0.109999985 0.45
v 11.15 -0.109999985 0.45
v 0.019999998 -0.109999985 0.39999998
v 1.2994404E-13 -0.109999985 0.39999998
v 11.065 0.9449999 0.39999998
v 0.085 0.93 0.39999998
v 0.099999994 0.93 0.39999998
v 11.065 0.9449999 0.39999998
v 0.085 0.9449999 0.39999998
v 0.085 0.93 0.39999998
v 11.065 0.93 0.39999998
v 11.05 0.93 0.39999998
v 11.05 -0.009999999 0.39999998
v 0.099999994 0.93 0.39999998
v 0.099999994 -0.015 0.39999998
v 0.099999994 -0.009999999 0.39999998
v 11.15 -0.109999985 0.45
v 11.05 0.93 0.45
v 11.15 1.03 0.45
v 11.05 -0.009999999 0.45
v 1.2994404E-13 1.03 0.39999998
v 11.15 1.03 0.45
v 1.7614638E-13 1.03 0.45
v 11.15 1.03 0.39999998
v 1.7614638E-13 1.03 0.45
v 1.2994404E-13 1.01 0.39999998
v 1.2994404E-13 1.03 0.39999998
v 1.2994404E-13 -0.109999985 0.39999998
v 1.7614638E-13 -0.109999985 0.45
v 11.15 1.01 0.39999998
v 11.15 1.03 0.45
v 11.15 1.03 0.39999998
v 11.15 -0.109999985 0.39999998
v 11.15 -0.109999985 0.45
v 0.099999994 -0.009999999 0.39999998
v 11.05 -0.009999999 0.45
v 0.099999994 -0.009999999 0.45
v 11.05 -0.009999999 0.39999998
v 11.05 0.93 0.45
v 11.05 -0.009999999 0.39999998
v 11.05 0.93 0.39999998
v 11.05 -0.009999999 0.45
v 11.05 0.93 0.45
v 0.099999994 0.93 0.39999998
v 0.099999994 0.93 0.45
v 11.05 0.93 0.39999998
v 0.099999994 -0.009999999 0.39999998
v 0.099999994 0.93 0.45
v 0.099999994 0.93 0.39999998
v 0.099999994 -0.009999999 0.45
v 11.15 -0.109999985 0.45
v 0.099999994 -0.009999999 0.45
v 11.05 -0.009999999 0.45
v 1.7614638E-13 -0.109999985 0.45
v 0.099999994 0.93 0.45
v 11.15 1.03 0.45
v 11.05 0.93 0.45
v 1.7614638E-13 1.03 0.45
v 0.099999994 -0.009999999 0.45
v 1.7614638E-13 1.03 0.45
v 0.099999994 0.93 0.45
v 1.7614638E-13 -0.109999985 0.45
v 11.15 -0.109999985 0.45
v 11.13 -0.109999985 0.39999998
v 0.019999998 -0.109999985 0.39999998
v 11.15 -0.109999985 0.39999998
v 11.065 0.9449999 0.39999998
v 11.05 0.93 0.39999998
v 11.065 0.93 0.39999998
v 0.099999994 0.93 0.39999998
v 11.065 0.93 0.39999998
v 11.05 -0.015 0.39999998
v 11.065 -0.015 0.39999998
v 11.05 -0.009999999 0.39999998
v 0.099999994 0.93 0.39999998
v 0.085 -0.015 0.39999998
v 0.099999994 -0.015 0.39999998
v 0.085 0.93 0.39999998
v 11.065 -0.015 0.35
v 0.085 0.9449999 0.35
v 11.065 0.9449999 0.35
v 0.085 -0.015 0.35
vt -3.6894531 0.6796875
vt -3.3320312 0.7265625
vt -3.3320312 0.6796875
vt -3.6894531 0.7265625
vt 0.15148926 0.6796875
vt -3.3320312 0.7265625
vt 0.15148926 0.7265625
vt -3.3320312 0.6796875
vt -3.6894531 0.7265625
vt -3.3398438 0.73291016
vt -3.3320312 0.7265625
vt -3.6894531 0.73291016
vt 0.15148926 0.7265625
vt 0.5078125 0.6796875
vt 0.15148926 0.6796875
vt 0.5078125 0.7265625
vt 0.5078125 0.73291016
vt 0.15148926 0.7265625
vt 0.15771484 0.73291016
vt 0.5078125 0.7265625
vt 0.14526367 0.73291016
vt -3.3320312 0.7265625
vt -3.3261719 0.73291016
vt 0.15148926 0.7265625
vt 21.71875 0.032714844
vt 18.234375 0.032714844
vt 18.25 0.032714844
vt 21.71875 0.032714844
vt 18.234375 -0.014167786
vt 18.234375 0.032714844
vt 21.71875 0.032714844
vt 18.234375 -0.014167786
vt 21.71875 0.032714844
vt 21.71875 0.032714844
vt 21.71875 -0.014167786
vt 18.234375 -0.014167786
vt 14.421875 9.421875
vt 17.90625 9.421875
vt 17.90625 9.4140625
vt 21.65625 0.110839844
vt 18.21875 0.110839844
vt 18.234375 0.110839844
vt 18.234375 9.1015625
vt 21.65625 9.09375
vt 18.234375 9.09375
vt 21.65625 9.09375
vt 18.234375 9.1015625
vt 21.65625 9.1015625
vt 21.71875 0.110839844
vt 18.25 0.032714844
vt 18.25 0.110839844
vt 21.71875 0.032714844
vt 17.890625 0.110839844
vt 14.421875 0.032714844
vt 14.421875 0.110839844
vt 17.890625 0.032714844
vt 14.078125 0.032714844
vt 14.421875 0.110839844
vt 14.421875 0.032714844
vt 14.078125 0.110839844
vt 17.890625 0.110839844
vt 18.25 0.032714844
vt 17.890625 0.032714844
vt 18.25 0.110839844
vt 14.421875 9.421875
vt 14.421875 9.4140625
vt 14.421875 9.4140625
vt 17.890625 9.4140625
vt 17.90625 9.4140625
vt 32.5 9.4140625
vt 32.5 9.0703125
vt 32.5 9.0703125
vt 32.5 9.4140625
vt 5.8046875 9.4140625
vt 5.8125 9.0703125
vt 5.8046875 9.0703125
vt 5.8125 9.4140625
vt 26.484375 0.110839844
vt 23.0625 0.095214844
vt 23.0625 0.110839844
vt 26.484375 0.095214844
vt 23.046875 0.095214844
vt 23.046875 0.110839844
vt 23.046875 0.110839844
vt 22.75 0.095214844
vt 22.75 0.110839844
vt 17.921875 0.110839844
vt 17.921875 0.095214844
vt 17.921875 0.110839844
vt 18.21875 0.095214844
vt 18.21875 0.110839844
vt 21.65625 0.095214844
vt 21.65625 0.110839844
vt 21.65625 0.110839844
vt 18.21875 0.110839844
vt 18.21875 0.095214844
vt 6.4140625 0.72265625
vt 4 0.7114258
vt 4 0.72265625
vt 6.4140625 0.72265625
vt 4.0039062 0.7114258
vt 4 0.7114258
vt 6.6835938 0.71728516
vt 9.0625 0.7138672
vt 9.0625 0.7138672
vt 6.6835938 0.71728516
vt 9.0625 0.71728516
vt 9.0625 0.7138672
vt 6.5976562 0.71728516
vt 6.5976562 0.71435547
vt 6.3945312 0.71435547
vt 9.0625 0.7138672
vt 9.265625 0.7138672
vt 9.265625 0.7138672
vt 1.0859375 0.7207031
vt 1.3115234 0.7426758
vt 1.3330078 0.7207031
vt 1.1083984 0.7426758
vt 3.7480469 0.70996094
vt 1.3330078 0.7207031
vt 3.7480469 0.7207031
vt 1.3330078 0.70996094
vt 3.7480469 0.7207031
vt 3.7519531 0.70996094
vt 3.7480469 0.70996094
vt 3.9941406 0.70996094
vt 3.9941406 0.7207031
vt 1.3291016 0.70996094
vt 1.3330078 0.7207031
vt 1.3330078 0.70996094
vt 1.0859375 0.70996094
vt 1.0859375 0.7207031
vt 4.0234375 0.71435547
vt 6.3945312 0.703125
vt 4.0234375 0.703125
vt 6.3945312 0.71435547
vt 6.5976562 0.703125
vt 6.3945312 0.71435547
vt 6.5976562 0.71435547
vt 6.3945312 0.703125
vt 6.6875 0.703125
vt 9.0625 0.7138672
vt 9.0625 0.703125
vt 6.6875 0.7138672
vt 9.265625 0.7138672
vt 9.0625 0.703125
vt 9.0625 0.7138672
vt 9.265625 0.703125
vt 6.4140625 0.7211914
vt 4.0234375 0.74316406
vt 6.3945312 0.74316406
vt 4 0.7211914
vt 3.7265625 0.7426758
vt 1.3330078 0.7207031
vt 1.3544922 0.7426758
vt 3.7480469 0.7207031
vt 3.9726562 0.7426758
vt 3.7480469 0.7207031
vt 3.7695312 0.7426758
vt 3.9941406 0.7207031
vt 6.4140625 0.72265625
vt 6.4101562 0.7114258
vt 4.0039062 0.7114258
vt 6.4140625 0.7114258
vt 6.6835938 0.71728516
vt 6.6875 0.7138672
vt 6.6835938 0.7138672
vt 9.0625 0.7138672
vt 6.5976562 0.71728516
vt 6.390625 0.71435547
vt 6.390625 0.71728516
vt 6.3945312 0.71435547
vt 9.0625 0.7138672
vt 9.265625 0.71728516
vt 9.265625 0.7138672
vt 9.0625 0.71728516
vt 1.84375 -0.002500534
vt 0.014167786 0.1574707
vt 1.84375 0.1574707
vt 0.014167786 -0.002500534
vn 1 0 0
vn 1 0 0
vn 1 0 0
vn 1 0 0
vn -0 1 0
vn -0 1 0
vn -0 1 0
vn -0 1 0
vn -0 0 1
vn -0 0 1
vn -0 0 1
vn -0 0 1
vn -1 0 0
vn -1 0 0
vn -1 0 0
vn -1 0 0
vn -0 0 1
vn -0 0 1
vn -0 0 1
vn -0 0 1
vn -0 0 1
vn -0 0 1
vn -0 0 1
vn -0 0 1
vn -0 -1 0
vn -0 -1 0
vn -0 -1 0
vn -0 -1 0
vn -0 -1 0
vn -0 -1 0
vn -0 -1 0
vn -0 -1 0
vn -0 -1 0
vn -0 -1 0
vn -0 -1 0
vn -0 -1 0
vn -0 0 -1
vn -0 0 -1
vn -0 0 -1
vn -0 1 0
vn -0 1 0
vn -0 1 0
vn -0 0 -1
vn -0 0 -1
vn -0 0 -1
vn -0 0 -1
vn -0 0 -1
vn -0 0 -1
vn -0 -1 0
vn -0 -1 0
vn -0 -1 0
vn -0 -1 0
vn -0 1 0
vn -0 1 0
vn -0 1 0
vn -0 1 0
vn 1 0 0
vn 1 0 0
vn 1 0 0
vn 1 0 0
vn -1 0 0
vn -1 0 0
vn -1 0 0
vn -1 0 0
vn -0 0 -1
vn -0 0 -1
vn -0 0 -1
vn -0 0 -1
vn -0 0 -1
vn -0 0 -1
vn -0 0 -1
vn -0 0 -1
vn -0 0 -1
vn -0 0 -1
vn -0 0 -1
vn -0 0 -1
vn -0 0 -1
vn -0 -1 0
vn -0 -1 0
vn -0 -1 0
vn -0 -1 0
vn 1 0 0
vn 1 0 0
vn 1 0 0
vn 1 0 0
vn 1 0 0
vn -1 0 0
vn -1 0 0
vn -1 0 0
vn -1 0 0
vn -1 0 0
vn -0 1 0
vn -0 1 0
vn -0 1 0
vn -0 1 0
vn -0 1 0
vn -0 -1 0
vn -0 -1 0
vn -0 -1 0
vn -0 -1 0
vn -0 -1 0
vn -0 -1 0
vn -0 0 -1
vn -0 0 -1
vn -0 0 -1
vn -0 0 -1
vn -0 0 -1
vn -0 0 -1
vn -0 0 -1
vn -0 0 -1
vn -0 0 -1
vn -0 0 -1
vn -0 0 -1
vn -0 0 -1
vn -0 0 1
vn -0 0 1
vn -0 0 1
vn -0 0 1
vn -0 1 0
vn -0 1 0
vn -0 1 0
vn -0 1 0
vn -1 0 0
vn -1 0 0
vn -1 0 0
vn -1 0 0
vn -1 0 0
vn 1 0 0
vn 1 0 0
vn 1 0 0
vn 1 0 0
vn 1 0 0
vn -0 1 0
vn -0 1 0
vn -0 1 0
vn -0 1 0
vn -1 0 0
vn -1 0 0
vn -1 0 0
vn -1 0 0
vn -0 -1 0
vn -0 -1 0
vn -0 -1 0
vn -0 -1 0
vn 1 0 0
vn 1 0 0
vn 1 0 0
vn 1 0 0
vn -0 0 1
vn -0 0 1
vn -0 0 1
vn -0 0 1
vn -0 0 1
vn -0 0 1
vn -0 0 1
vn -0 0 1
vn -0 0 1
vn -0 0 1
vn -0 0 1
vn -0 0 1
vn -0 -1 0
vn -0 -1 0
vn -0 -1 0
vn -0 -1 0
vn -0 0 -1
vn -0 0 -1
vn -0 0 -1
vn -0 0 -1
vn -0 0 -1
vn -0 0 -1
vn -0 0 -1
vn -0 0 -1
vn -0 0 -1
vn -0 0 -1
vn -0 0 -1
vn -0 0 -1
vn -0 0 1
vn -0 0 1
vn -0 0 1
vn -0 0 1
g Uptown_STR_Garden_03_0
f 3/3/3 2/2/2 1/1/1
f 4/4/4 1/1/1 2/2/2
f 7/7/7 6/6/6 5/5/5
f 8/8/8 5/5/5 6/6/6
f 11/11/11 10/10/10 9/9/9
f 12/12/12 9/9/9 10/10/10
f 15/15/15 14/14/14 13/13/13
f 16/16/16 13/13/13 14/14/14
f 19/19/19 18/18/18 17/17/17
f 20/20/20 17/17/17 18/18/18
f 23/23/23 22/22/22 21/21/21
f 24/24/24 21/21/21 22/22/22
g Uptown_STR_Garden_03_1
f 27/27/27 26/26/26 25/25/25
f 30/30/30 29/29/29 28/28/28
f 33/33/33 32/32/32 31/31/31
f 36/36/36 35/35/35 34/34/34
f 39/39/39 38/38/38 37/37/37
f 42/42/42 41/41/41 40/40/40
f 45/45/45 44/44/44 43/43/43
f 48/48/48 47/47/47 46/46/46
f 51/51/51 50/50/50 49/49/49
f 49/49/49 50/50/50 52/52/52
f 55/55/55 54/54/54 53/53/53
f 56/56/56 53/53/53 54/54/54
f 59/59/59 58/58/58 57/57/57
f 60/60/60 57/57/57 58/58/58
f 63/63/63 62/62/62 61/61/61
f 64/64/64 61/61/61 62/62/62
f 67/67/67 66/66/66 65/65/65
f 66/66/66 68/68/68 65/65/65
f 68/68/68 69/69/69 65/65/65
f 72/72/72 71/71/71 70/70/70
f 73/73/73 70/70/70 71/71/71
f 76/76/76 75/75/75 74/74/74
f 77/77/77 74/74/74 75/75/75
f 80/80/80 79/79/79 78/78/78
f 81/81/81 78/78/78 79/79/79
f 84/84/84 83/83/83 82/82/82
f 82/82/82 83/83/83 85/85/85
f 83/83/83 86/86/86 85/85/85
f 89/89/89 88/88/88 87/87/87
f 88/88/88 90/90/90 87/87/87
f 90/90/90 91/91/91 87/87/87
f 94/94/94 93/93/93 92/92/92
f 93/93/93 95/95/95 92/92/92
f 95/95/95 96/96/96 92/92/92
g Uptown_STR_Garden_03_2
f 99/99/99 98/98/98 97/97/97
f 102/102/102 101/101/101 100/100/100
f 105/105/105 104/104/104 103/103/103
f 108/108/108 107/107/107 106/106/106
f 111/111/111 110/110/110 109/109/109
f 114/114/114 113/113/113 112/112/112
f 117/117/117 116/116/116 115/115/115
f 118/118/118 115/115/115 116/116/116
f 121/121/121 120/120/120 119/119/119
f 122/122/122 119/119/119 120/120/120
f 125/125/125 124/124/124 123/123/123
f 124/124/124 126/126/126 123/123/123
f 126/126/126 127/127/127 123/123/123
f 130/130/130 129/129/129 128/128/128
f 128/128/128 129/129/129 131/131/131
f 129/129/129 132/132/132 131/131/131
f 135/135/135 134/134/134 133/133/133
f 136/136/136 133/133/133 134/134/134
f 139/139/139 138/138/138 137/137/137
f 140/140/140 137/137/137 138/138/138
f 143/143/143 142/142/142 141/141/141
f 144/144/144 141/141/141 142/142/142
f 147/147/147 146/146/146 145/145/145
f 148/148/148 145/145/145 146/146/146
f 151/151/151 150/150/150 149/149/149
f 152/152/152 149/149/149 150/150/150
f 155/155/155 154/154/154 153/153/153
f 156/156/156 153/153/153 154/154/154
f 159/159/159 158/158/158 157/157/157
f 160/160/160 157/157/157 158/158/158
f 163/163/163 162/162/162 161/161/161
f 162/162/162 164/164/164 161/161/161
f 167/167/167 166/166/166 165/165/165
f 166/166/166 168/168/168 165/165/165
f 171/171/171 170/170/170 169/169/169
f 170/170/170 172/172/172 169/169/169
f 175/175/175 174/174/174 173/173/173
f 174/174/174 176/176/176 173/173/173
g Uptown_STR_Garden_03_3
f 179/179/179 178/178/178 177/177/177
f 180/180/180 177/177/177 178/178/178
