g Uptown_STR_Garden_01_anchor
v 4.699991 2.0000014 1.6999999
v 4.0999913 2.0000014 1.6999999
v 4.0999913 1.4000014 1.6999999
v 4.699991 1.4000014 1.6999999
v 4.699991 1.4000014 2.1999998
v 4.0999913 1.4000014 2.1999998
v 4.0999913 2.0000014 2.1999998
v 4.699991 2.0000014 2.1999998
v 4.699991 2.0000014 1.6999999
v 4.699991 1.4000014 1.6999999
v 4.699991 1.4000014 2.1999998
v 4.699991 2.0000014 2.1999998
v 4.0999913 2.0000014 2.1999998
v 4.0999913 2.0000014 1.6999999
v 4.699991 2.0000014 1.6999999
v 4.699991 2.0000014 2.1999998
v 4.0999913 2.0000014 2.1999998
v 4.0999913 1.4000014 2.1999998
v 4.0999913 1.4000014 1.6999999
v 4.0999913 2.0000014 1.6999999
v 4.699991 1.4000014 2.1999998
v 4.699991 1.4000014 1.6999999
v 4.0999913 1.4000014 1.6999999
v 4.0999913 1.4000014 2.1999998
vt 0 0
vt 0 0
vt 0 0
vt 0 0
vt 0 0
vt 0 0
vt 0 0
vt 0 0
vt 0 0
vt 0 0
vt 0 0
vt 0 0
vt 0 0
vt 0 0
vt 0 0
vt 0 0
vt 0 0
vt 0 0
vt 0 0
vt 0 0
vt 0 0
vt 0 0
vt 0 0
vt 0 0
vn -0 0 -1
vn -0 0 -1
vn -0 0 -1
vn -0 0 -1
vn -0 0 1
vn -0 0 1
vn -0 0 1
vn -0 0 1
vn 1 0 0
vn 1 0 0
vn 1 0 0
vn 1 0 0
vn -0 1 0
vn -0 1 0
vn -0 1 0
vn -0 1 0
vn -1 0 0
vn -1 0 0
vn -1 0 0
vn -1 0 0
vn -0 -1 0
vn -0 -1 0
vn -0 -1 0
vn -0 -1 0
g Uptown_STR_Garden_01_anchor_0
f 3/3/3 2/2/2 1/1/1
f 1/1/1 4/4/4 3/3/3
f 7/7/7 6/6/6 5/5/5
f 5/5/5 8/8/8 7/7/7
f 11/11/11 10/10/10 9/9/9
f 9/9/9 12/12/12 11/11/11
f 15/15/15 14/14/14 13/13/13
f 13/13/13 16/16/16 15/15/15
f 19/19/19 18/18/18 17/17/17
f 17/17/17 20/20/20 19/19/19
f 23/23/23 22/22/22 21/21/21
f 21/21/21 24/24/24 23/23/23
