g Uptown_STR_Base_RegionBorder_04
v -41.649998 28.84 3.6600003
v -41.649998 28.84 3.4600003
v -41.85 28.84 3.4600003
v -41.85 28.84 3.6600003
v -41.649998 22.859999 3.4600003
v -41.85 22.859999 3.4600003
v -41.85 28.84 3.4600003
v -41.649998 28.84 3.4600003
v -41.85 22.859999 3.4600003
v -41.649998 22.859999 3.4600003
v -41.649998 22.859999 3.6600003
v -41.85 22.859999 3.6600003
v -41.649998 28.84 3.6600003
v -41.85 28.84 3.6600003
v -41.85 30.849998 3.6600003
v -41.649998 30.849998 3.6600003
v -41.85 19.85 3.6600003
v -41.85 22.859999 3.6600003
v -41.649998 22.859999 3.6600003
v -41.649998 19.85 3.6600003
v -41.85 30.849998 3.6500003
v -41.649998 30.849998 3.6500003
v -41.649998 30.849998 3.6600003
v -41.85 30.849998 3.6600003
v -41.649998 19.85 3.6600003
v -41.649998 19.85 3.6500003
v -41.85 19.85 3.6500003
v -41.85 19.85 3.6600003
vt -13.3046875 -28.046875
vt -13.3515625 -28.046875
vt -13.3515625 -28
vt -13.3046875 -28
vt -15.7578125 -28.046875
vt -15.7578125 -28
vt -14.2578125 -28
vt -14.2578125 -28.046875
vt -15.5625 -28
vt -15.5625 -28.046875
vt -15.6171875 -28.046875
vt -15.6171875 -28
vt -13.3046875 -28.046875
vt -13.3046875 -28
vt -12.8046875 -28
vt -12.8046875 -28.046875
vt -16.359375 -28
vt -15.609375 -28
vt -15.609375 -28.046875
vt -16.359375 -28.046875
vt -12.796875 -28
vt -12.796875 -28.046875
vt -12.8046875 -28.046875
vt -12.8046875 -28
vt -16.359375 -28.046875
vt -16.359375 -28.046875
vt -16.359375 -28
vt -16.359375 -28
vn -0 -1 0
vn -0 -1 0
vn -0 -1 0
vn -0 -1 0
vn -0 0 1
vn -0 0 1
vn -0 0 1
vn -0 0 1
vn -0 1 0
vn -0 1 0
vn -0 1 0
vn -0 1 0
vn -0 0 1
vn -0 0 1
vn -0 0 1
vn -0 0 1
vn -0 0 1
vn -0 0 1
vn -0 0 1
vn -0 0 1
vn -0 1 0
vn -0 1 0
vn -0 1 0
vn -0 1 0
vn -0 -1 0
vn -0 -1 0
vn -0 -1 0
vn -0 -1 0
g Uptown_STR_Base_RegionBorder_04_0
f 3/3/3 2/2/2 1/1/1
f 4/4/4 3/3/3 1/1/1
f 7/7/7 6/6/6 5/5/5
f 8/8/8 7/7/7 5/5/5
f 11/11/11 10/10/10 9/9/9
f 12/12/12 11/11/11 9/9/9
f 15/15/15 14/14/14 13/13/13
f 16/16/16 15/15/15 13/13/13
f 19/19/19 18/18/18 17/17/17
f 20/20/20 19/19/19 17/17/17
f 23/23/23 22/22/22 21/21/21
f 24/24/24 23/23/23 21/21/21
f 27/27/27 26/26/26 25/25/25
f 28/28/28 27/27/27 25/25/25
