g Uptown_STR_Base_RegionBorder_02
v 41.25 38.55 2.6500003
v 41.25 38.35 2.6500003
v 41.25 38.35 2.6600003
v 41.25 38.55 2.6600003
v 41.25 38.35 2.6600003
v 36.25 38.35 2.6600003
v 36.25 38.55 2.6600003
v 41.25 38.55 2.6600003
v 36.25 38.55 2.6600003
v 36.25 38.35 2.6600003
v 36.25 38.35 2.6500003
v 36.25 38.55 2.6500003
vt 11.8828125 -27
vt 11.8828125 -27.046875
vt 11.875 -27.046875
vt 11.875 -27
vt 11.875 -27.046875
vt 10.625 -27.046875
vt 10.625 -27
vt 11.875 -27
vt 10.625 -27
vt 10.625 -27.046875
vt 10.625 -27.046875
vt 10.625 -27
vn 1 0 0
vn 1 0 0
vn 1 0 0
vn 1 0 0
vn -0 0 1
vn -0 0 1
vn -0 0 1
vn -0 0 1
vn -1 0 0
vn -1 0 0
vn -1 0 0
vn -1 0 0
g Uptown_STR_Base_RegionBorder_02_0
f 3/3/3 2/2/2 1/1/1
f 4/4/4 3/3/3 1/1/1
f 7/7/7 6/6/6 5/5/5
f 8/8/8 7/7/7 5/5/5
f 11/11/11 10/10/10 9/9/9
f 12/12/12 11/11/11 9/9/9
