g Uptown_STR_Base_RegionBorder_05
v -41.649998 4.85 3.0600002
v -41.85 4.85 3.0600002
v -41.85 8.849999 3.0600002
v -41.649998 8.849999 3.0600002
v -41.649998 4.85 3.0600002
v -41.649998 4.85 3.0500002
v -41.85 4.85 3.0500002
v -41.85 4.85 3.0600002
v -41.85 8.849999 3.0600002
v -41.85 8.849999 3.0500002
v -41.649998 8.849999 3.0500002
v -41.649998 8.849999 3.0600002
vt -22.28125 -28.046875
vt -22.28125 -28
vt -21.28125 -28
vt -21.28125 -28.046875
vt -22.28125 -28.046875
vt -22.28125 -28.046875
vt -22.28125 -28
vt -22.28125 -28
vt -21.28125 -28
vt -21.28125 -28
vt -21.28125 -28.046875
vt -21.28125 -28.046875
vn -0 0 1
vn -0 0 1
vn -0 0 1
vn -0 0 1
vn -0 -1 0
vn -0 -1 0
vn -0 -1 0
vn -0 -1 0
vn -0 1 0
vn -0 1 0
vn -0 1 0
vn -0 1 0
g Uptown_STR_Base_RegionBorder_05_0
f 3/3/3 2/2/2 1/1/1
f 4/4/4 3/3/3 1/1/1
f 7/7/7 6/6/6 5/5/5
f 8/8/8 7/7/7 5/5/5
f 11/11/11 10/10/10 9/9/9
f 12/12/12 11/11/11 9/9/9
