g Uptown_STR_Base_RegionBorder_03
v -0.1500003 31.65 3.6600003
v -5.15 31.65 3.6600003
v -5.15 31.849998 3.6600003
v -0.1500003 31.849998 3.6600003
v -0.1500003 31.849998 3.6500003
v -0.1500003 31.65 3.6500003
v -0.1500003 31.65 3.6600003
v -0.1500003 31.849998 3.6600003
v -5.15 31.849998 3.6600003
v -5.15 31.65 3.6600003
v -5.15 31.65 3.6500003
v -5.15 31.849998 3.6500003
vt 1.6240234 -28.046875
vt 0.37402344 -28.046875
vt 0.37402344 -28
vt 1.6240234 -28
vt 1.6259766 -28
vt 1.6259766 -28.046875
vt 1.6240234 -28.046875
vt 1.6240234 -28
vt 0.37402344 -28
vt 0.37402344 -28.046875
vt 0.3713379 -28.046875
vt 0.3713379 -28
vn -0 0 1
vn -0 0 1
vn -0 0 1
vn -0 0 1
vn 1 0 0
vn 1 0 0
vn 1 0 0
vn 1 0 0
vn -1 0 0
vn -1 0 0
vn -1 0 0
vn -1 0 0
g Uptown_STR_Base_RegionBorder_03_0
f 3/3/3 2/2/2 1/1/1
f 4/4/4 3/3/3 1/1/1
f 7/7/7 6/6/6 5/5/5
f 8/8/8 7/7/7 5/5/5
f 11/11/11 10/10/10 9/9/9
f 12/12/12 11/11/11 9/9/9
