g Uptown_STR_House_04_Door
v 1.9799955 1.2500012 2.4199998
v 1.9999956 1.2700012 1.3
v 1.9799955 1.2500012 1.2799999
v 1.9999956 1.2700012 1.3
v 1.9799955 1.2500012 2.4199998
v 1.9999956 1.2700012 2.3999999
v 2.4199953 1.2500012 1.2799999
v 2.3999956 1.2700012 2.3999999
v 2.4199953 1.2500012 2.4199998
v 2.3999956 1.2700012 2.3999999
v 2.4199953 1.2500012 1.2799999
v 2.3999956 1.2700012 1.3
v 1.9799955 1.2500012 0.17999999
v 2.5799956 1.2500012 0.17999999
v 3.0199955 1.2500012 0.17999999
v 2.5799956 1.2500012 0.17999999
v 1.9799955 1.2500012 0.17999999
v 2.4199953 1.2500012 0.17999999
v 1.9799955 1.2500012 1.2799999
v 2.5799956 1.2500012 1.2799999
v 3.0199955 1.2500012 1.2799999
v 2.5799956 1.2500012 1.2799999
v 1.9799955 1.2500012 1.2799999
v 2.4199953 1.2500012 1.2799999
v 2.5999954 1.2700012 1.1
v 2.9999955 1.2700012 0.19999999
v 2.5999954 1.2700012 0.19999999
v 2.9999955 1.2700012 1.1
v 1.9999956 1.2700012 1.1
v 2.3999956 1.2700012 0.19999999
v 1.9999956 1.2700012 0.19999999
v 2.3999956 1.2700012 1.1
v 2.4199953 1.2500012 0.17999999
v 2.3999956 1.2700012 1.1
v 2.4199953 1.2500012 1.12
v 2.3999956 1.2700012 0.19999999
v 2.5799956 1.2500012 1.12
v 2.5999954 1.2700012 0.19999999
v 2.5799956 1.2500012 0.17999999
v 2.5999954 1.2700012 1.1
v 2.5999954 1.2700012 0.19999999
v 3.0199955 1.2500012 0.17999999
v 2.5799956 1.2500012 0.17999999
v 2.9999955 1.2700012 0.19999999
v 3.0199955 1.2500012 0.17999999
v 2.9999955 1.2700012 1.1
v 3.0199955 1.2500012 1.12
v 2.9999955 1.2700012 0.19999999
v 1.9799955 1.2500012 1.12
v 1.9999956 1.2700012 0.19999999
v 1.9799955 1.2500012 0.17999999
v 1.9999956 1.2700012 1.1
v 1.9999956 1.2700012 0.19999999
v 2.4199953 1.2500012 0.17999999
v 1.9799955 1.2500012 0.17999999
v 2.3999956 1.2700012 0.19999999
v 1.9999956 1.2700012 2.3999999
v 1.9999956 1.3500012 1.3
v 1.9999956 1.2700012 1.3
v 1.9999956 1.3500012 2.3999999
v 1.9999956 1.3500012 1.3
v 2.3999956 1.2700012 1.3
v 1.9999956 1.2700012 1.3
v 2.3999956 1.3500012 1.3
v 2.3999956 1.2700012 1.3
v 2.3999956 1.3500012 2.3999999
v 2.3999956 1.2700012 2.3999999
v 2.3999956 1.3500012 1.3
v 2.5999954 1.2700012 2.3999999
v 2.5999954 1.3500012 1.3
v 2.5999954 1.2700012 1.3
v 2.5999954 1.3500012 2.3999999
v 2.5999954 1.3500012 1.3
v 2.9999955 1.2700012 1.3
v 2.5999954 1.2700012 1.3
v 2.9999955 1.3500012 1.3
v 2.9999955 1.2700012 1.3
v 2.9999955 1.3500012 2.3999999
v 2.9999955 1.2700012 2.3999999
v 2.9999955 1.3500012 1.3
v 3.0199955 1.2500012 2.4199998
v 2.5999954 1.2700012 2.3999999
v 2.5799956 1.2500012 2.4199998
v 2.9999955 1.2700012 2.3999999
v 2.5799956 1.2500012 2.4199998
v 2.5999954 1.2700012 1.3
v 2.5799956 1.2500012 1.2799999
v 2.5999954 1.2700012 2.3999999
v 1.9999956 1.2700012 1.3
v 2.4199953 1.2500012 1.2799999
v 1.9799955 1.2500012 1.2799999
v 2.3999956 1.2700012 1.3
v 2.4199953 1.2500012 2.4199998
v 1.9999956 1.2700012 2.3999999
v 1.9799955 1.2500012 2.4199998
v 2.3999956 1.2700012 2.3999999
v 2.5999954 1.2700012 1.3
v 3.0199955 1.2500012 1.2799999
v 2.5799956 1.2500012 1.2799999
v 2.9999955 1.2700012 1.3
v 3.0199955 1.2500012 1.2799999
v 2.9999955 1.2700012 2.3999999
v 3.0199955 1.2500012 2.4199998
v 2.9999955 1.2700012 1.3
v 1.7999955 1.2300011 0
v 3.1999953 1.2300011 0.099999994
v 3.1999953 1.2300011 0
v 1.7999955 1.2300011 0.099999994
v 1.7999955 1.2500012 0.099999994
v 3.1999953 1.2300011 0.099999994
v 1.7999955 1.2300011 0.099999994
v 3.1999953 1.2500012 0.099999994
v 2.4199953 1.2500012 0.17999999
v 2.5799956 1.2500012 1.12
v 2.5799956 1.2500012 0.17999999
v 2.4199953 1.2500012 1.12
v 3.0199955 1.2500012 1.2799999
v 3.0199955 1.2500012 1.12
v 1.9799955 1.2500012 1.2799999
v 1.9799955 1.2500012 1.12
v 3.1999953 1.2500012 0.099999994
v 3.0199955 1.2500012 0.17999999
v 3.0199955 1.2500012 2.4199998
v 1.7999955 1.2500012 0.099999994
v 1.9799955 1.2500012 0.17999999
v 3.1999953 1.2500012 2.7
v 1.7999955 1.2500012 2.7
v 1.9799955 1.2500012 2.4199998
v 2.4199953 1.2500012 2.4199998
v 2.5799956 1.2500012 2.4199998
v 2.4199953 1.2500012 1.2799999
v 2.5799956 1.2500012 1.2799999
v 3.0899954 1.2000011 1.2499999
v 3.0899954 1.1600012 1.05
v 3.0899954 1.2000011 1.05
v 3.0899954 1.1600012 1.29
v 3.0899954 1.2500012 1.29
v 3.0899954 1.2500012 1.2499999
v 3.1299953 1.2000011 1.2499999
v 3.1299953 1.2500012 1.29
v 3.1299953 1.2500012 1.2499999
v 3.1299953 1.1600012 1.29
v 3.1299953 1.2000011 1.05
v 3.1299953 1.1600012 1.05
v 3.0899954 1.1600012 1.05
v 3.1299953 1.1600012 1.29
v 3.1299953 1.1600012 1.05
v 3.0899954 1.1600012 1.29
v 3.0899954 1.2500012 1.29
v 3.1299953 1.1600012 1.29
v 3.0899954 1.1600012 1.29
v 3.1299953 1.2500012 1.29
v 2.0899954 1.2200012 0.29
v 2.3099954 1.2200012 1.01
v 2.3099954 1.2200012 0.29
v 2.0899954 1.2200012 1.01
v 2.6899953 1.2200012 0.29
v 2.9099956 1.2200012 1.01
v 2.9099956 1.2200012 0.29
v 2.6899953 1.2200012 1.01
v 2.3099954 1.2200012 1.01
v 2.3299956 1.2700012 0.26999998
v 2.3099954 1.2200012 0.29
v 2.3299956 1.2700012 1.03
v 2.6899953 1.2200012 0.29
v 2.9299953 1.2700012 0.26999998
v 2.6699953 1.2700012 0.26999998
v 2.9099956 1.2200012 0.29
v 2.3299956 1.2700012 1.03
v 2.0899954 1.2200012 1.01
v 2.0699956 1.2700012 1.03
v 2.3099954 1.2200012 1.01
v 2.0899954 1.2200012 0.29
v 2.0699956 1.2700012 1.03
v 2.0899954 1.2200012 1.01
v 2.0699956 1.2700012 0.26999998
v 2.6899953 1.2200012 0.29
v 2.6699953 1.2700012 1.03
v 2.6899953 1.2200012 1.01
v 2.6699953 1.2700012 0.26999998
v 2.0899954 1.2200012 0.29
v 2.3299956 1.2700012 0.26999998
v 2.0699956 1.2700012 0.26999998
v 2.3099954 1.2200012 0.29
v 2.9299953 1.2700012 1.03
v 2.6899953 1.2200012 1.01
v 2.6699953 1.2700012 1.03
v 2.9099956 1.2200012 1.01
v 2.9099956 1.2200012 1.01
v 2.9299953 1.2700012 0.26999998
v 2.9099956 1.2200012 0.29
v 2.9299953 1.2700012 1.03
v 1.6999954 1.1800023 0
v 1.7999955 1.1800023 2.7
v 1.7999955 1.1800023 0
v 1.6999954 1.1800023 2.8
v 3.2999954 1.1800023 2.8
v 3.1999953 1.1800023 2.7
v 3.1999953 1.1800023 0
v 3.2999954 1.1800023 0
v 1.6999954 1.1800023 0
v 1.6999954 1.2800024 2.8
v 1.6999954 1.1800023 2.8
v 1.6999954 1.2800024 0
v 3.2999954 1.1800023 2.8
v 3.2999954 1.2800024 0
v 3.2999954 1.1800023 0
v 3.2999954 1.2800024 2.8
v 3.1999953 1.1800023 0
v 3.1999953 1.2800024 2.7
v 3.1999953 1.1800023 2.7
v 3.1999953 1.2800024 0
v 1.7999955 1.1800023 2.7
v 1.7999955 1.2800024 0
v 1.7999955 1.1800023 0
v 1.7999955 1.2800024 2.7
v 1.6999954 1.2800024 2.8
v 3.2999954 1.1800023 2.8
v 1.6999954 1.1800023 2.8
v 3.2999954 1.2800024 2.8
v 1.9999957 1.3 1.2999998
v 2.3999956 1.3 2.3999999
v 2.3999956 1.3 1.2999998
v 1.9999957 1.3 2.3999999
v 2.5999956 1.3 1.2999998
v 2.9999957 1.3 2.3999999
v 2.9999957 1.3 1.2999998
v 2.5999956 1.3 2.3999999
vt 0.03857422 0.73339844
vt 0.04714966 0.39404297
vt 0.03857422 0.38793945
vt 0.04714966 0.39404297
vt 0.03857422 0.73339844
vt 0.04714966 0.7270508
vt 0.1328125 0.38793945
vt 0.12426758 0.7270508
vt 0.1328125 0.73339844
vt 0.12426758 0.7270508
vt 0.1328125 0.38793945
vt 0.12426758 0.39404297
vt 0.054534912 0.054534912
vt 0.23632812 0.054534912
vt 0.3696289 0.054534912
vt 0.23632812 0.054534912
vt 0.054534912 0.054534912
vt 0.18786621 0.054534912
vt 0.054534912 0.38793945
vt 0.23632812 0.38793945
vt 0.3696289 0.38793945
vt 0.23632812 0.38793945
vt 0.054534912 0.38793945
vt 0.18786621 0.38793945
vt 0.24243164 0.33325195
vt 0.3635254 0.06060791
vt 0.24243164 0.06060791
vt 0.3635254 0.33325195
vt 0.06060791 0.33325195
vt 0.1817627 0.06060791
vt 0.06060791 0.06060791
vt 0.1817627 0.33325195
vt 0.1328125 0.054534912
vt 0.12426758 0.33325195
vt 0.1328125 0.33935547
vt 0.12426758 0.06060791
vt 0.16711426 0.33935547
vt 0.17565918 0.06060791
vt 0.16711426 0.054534912
vt 0.17565918 0.33325195
vt 0.24243164 0.04714966
vt 0.3696289 0.03857422
vt 0.23632812 0.03857422
vt 0.3635254 0.04714966
vt 0.2614746 0.054534912
vt 0.2529297 0.33325195
vt 0.2614746 0.33935547
vt 0.2529297 0.06060791
vt 0.03857422 0.33935547
vt 0.04714966 0.06060791
vt 0.03857422 0.054534912
vt 0.04714966 0.33325195
vt 0.06060791 0.04714966
vt 0.18786621 0.03857422
vt 0.054534912 0.03857422
vt 0.1817627 0.04714966
vt 0.006061554 0.7270508
vt 0.030303955 0.39404297
vt 0.006061554 0.39404297
vt 0.030303955 0.7270508
vt 0.06060791 0.030303955
vt 0.1817627 0.006061554
vt 0.06060791 0.006061554
vt 0.1817627 0.030303955
vt -0.006061554 0.39404297
vt -0.030303955 0.7270508
vt -0.006061554 0.7270508
vt -0.030303955 0.39404297
vt 0.006061554 0.7270508
vt 0.030303955 0.39404297
vt 0.006061554 0.39404297
vt 0.030303955 0.7270508
vt 0.24243164 0.030303955
vt 0.3635254 0.006061554
vt 0.24243164 0.006061554
vt 0.3635254 0.030303955
vt -0.006061554 0.39404297
vt -0.030303955 0.7270508
vt -0.006061554 0.7270508
vt -0.030303955 0.39404297
vt 0.3696289 0.5185547
vt 0.24243164 0.5097656
vt 0.23632812 0.5185547
vt 0.3635254 0.5097656
vt 0.16711426 0.73339844
vt 0.17565918 0.39404297
vt 0.16711426 0.38793945
vt 0.17565918 0.7270508
vt 0.06060791 0.28295898
vt 0.18786621 0.27416992
vt 0.054534912 0.27416992
vt 0.1817627 0.28295898
vt 0.18786621 0.5185547
vt 0.06060791 0.5097656
vt 0.054534912 0.5185547
vt 0.1817627 0.5097656
vt 0.24243164 0.28295898
vt 0.3696289 0.27416992
vt 0.23632812 0.27416992
vt 0.3635254 0.28295898
vt 0.2614746 0.38793945
vt 0.2529297 0.7270508
vt 0.2614746 0.73339844
vt 0.2529297 0.39404297
vt 0 0
vt 0.4243164 0.030303955
vt 0.4243164 0
vt 0 0.030303955
vt 0 0
vt 0.4243164 -0.006061554
vt 0 -0.006061554
vt 0.4243164 0
vt 0.18786621 0.054534912
vt 0.23632812 0.33935547
vt 0.23632812 0.054534912
vt 0.18786621 0.33935547
vt 0.3696289 0.38793945
vt 0.3696289 0.33935547
vt 0.054534912 0.38793945
vt 0.054534912 0.33935547
vt 0.4243164 0.030303955
vt 0.3696289 0.054534912
vt 0.3696289 0.73339844
vt 0 0.030303955
vt 0.054534912 0.054534912
vt 0.4243164 0.8183594
vt 0 0.8183594
vt 0.054534912 0.73339844
vt 0.18786621 0.73339844
vt 0.23632812 0.73339844
vt 0.18786621 0.38793945
vt 0.23632812 0.38793945
vt 0.015151978 0.37890625
vt 0.027267456 0.31811523
vt 0.015151978 0.31811523
vt 0.027267456 0.39086914
vt 0 0.39086914
vt 0 0.37890625
vt -0.015151978 0.37890625
vt 0 0.39086914
vt 0 0.37890625
vt -0.027267456 0.39086914
vt -0.015151978 0.31811523
vt -0.027267456 0.31811523
vt 0.39086914 0.31811523
vt 0.40307617 0.39086914
vt 0.40307617 0.31811523
vt 0.39086914 0.39086914
vt 0.39086914 0
vt 0.40307617 -0.027267456
vt 0.39086914 -0.027267456
vt 0.40307617 0
vt 0.09063721 0.09063721
vt 0.15942383 0.31567383
vt 0.15942383 0.09063721
vt 0.09063721 0.31567383
vt 0.27807617 0.09063721
vt 0.34692383 0.31567383
vt 0.34692383 0.09063721
vt 0.27807617 0.31567383
vt 0.050476074 0.31567383
vt 0.06732178 0.084350586
vt 0.050476074 0.09063721
vt 0.06732178 0.32177734
vt 0.27807617 0.0423584
vt 0.35302734 0.025527954
vt 0.27197266 0.025527954
vt 0.34692383 0.0423584
vt 0.16564941 0.12536621
vt 0.09063721 0.10852051
vt 0.084350586 0.12536621
vt 0.15942383 0.10852051
vt 0.0423584 0.09063721
vt 0.025527954 0.32177734
vt 0.0423584 0.31567383
vt 0.025527954 0.084350586
vt 0.11199951 0.09063721
vt 0.09515381 0.32177734
vt 0.11199951 0.31567383
vt 0.09515381 0.084350586
vt 0.09063721 0.0423584
vt 0.16564941 0.025527954
vt 0.084350586 0.025527954
vt 0.15942383 0.0423584
vt 0.35302734 0.12536621
vt 0.27807617 0.10852051
vt 0.27197266 0.12536621
vt 0.34692383 0.10852051
vt 0.12011719 0.31567383
vt 0.13696289 0.084350586
vt 0.12011719 0.09063721
vt 0.13696289 0.32177734
vt 0 0
vt 0.03125 0.84375
vt 0.03125 0
vt 0 0.875
vt 0.5 0.875
vt 0.46875 0.84375
vt 0.46875 0
vt 0.5 0
vt 0 0
vt -0.03125 0.875
vt 0 0.875
vt -0.03125 0
vt 0 0.875
vt 0.03125 0
vt 0 0
vt 0.03125 0.875
vt 0 0
vt -0.03125 0.84375
vt 0 0.84375
vt -0.03125 0
vt 0 0.84375
vt 0.03125 0
vt 0 0
vt 0.03125 0.84375
vt 0 0.03125
vt 0.5 0
vt 0 0
vt 0.5 0.03125
vt -1.6201172 -0.99853516
vt -1.4951172 -0.65478516
vt -1.4951172 -0.99853516
vt -1.6201172 -0.65478516
vt -1.4667969 -1.0009766
vt -1.3417969 -0.65722656
vt -1.3417969 -1.0009766
vt -1.4667969 -0.65722656
vn 0.70703125 -0.70703125 0
vn 0.70703125 -0.70703125 0
vn 0.70703125 -0.70703125 0
vn 0.70703125 -0.70703125 0
vn 0.70703125 -0.70703125 0
vn 0.70703125 -0.70703125 0
vn -0.70703125 -0.70703125 0
vn -0.70703125 -0.70703125 0
vn -0.70703125 -0.70703125 0
vn -0.70703125 -0.70703125 0
vn -0.70703125 -0.70703125 0
vn -0.70703125 -0.70703125 0
vn 1 0 0
vn 1 0 0
vn 1 0 0
vn 1 0 0
vn 1 0 0
vn 1 0 0
vn 1 0 0
vn 1 0 0
vn 1 0 0
vn 1 0 0
vn 1 0 0
vn 1 0 0
vn -0 -1 0
vn -0 -1 0
vn -0 -1 0
vn -0 -1 0
vn -0 -1 0
vn -0 -1 0
vn -0 -1 0
vn -0 -1 0
vn -0.70703125 -0.70703125 0
vn -0.70703125 -0.70703125 0
vn -0.70703125 -0.70703125 0
vn -0.70703125 -0.70703125 0
vn 0.70703125 -0.70703125 0
vn 0.70703125 -0.70703125 0
vn 0.70703125 -0.70703125 0
vn 0.70703125 -0.70703125 0
vn -0 -0.70703125 0.70703125
vn -0 -0.70703125 0.70703125
vn -0 -0.70703125 0.70703125
vn -0 -0.70703125 0.70703125
vn -0.70703125 -0.70703125 0
vn -0.70703125 -0.70703125 0
vn -0.70703125 -0.70703125 0
vn -0.70703125 -0.70703125 0
vn 0.70703125 -0.70703125 0
vn 0.70703125 -0.70703125 0
vn 0.70703125 -0.70703125 0
vn 0.70703125 -0.70703125 0
vn -0 -0.70703125 0.70703125
vn -0 -0.70703125 0.70703125
vn -0 -0.70703125 0.70703125
vn -0 -0.70703125 0.70703125
vn 1 0 0
vn 1 0 0
vn 1 0 0
vn 1 0 0
vn -0 0 1
vn -0 0 1
vn -0 0 1
vn -0 0 1
vn -1 0 0
vn -1 0 0
vn -1 0 0
vn -1 0 0
vn 1 0 0
vn 1 0 0
vn 1 0 0
vn 1 0 0
vn -0 0 1
vn -0 0 1
vn -0 0 1
vn -0 0 1
vn -1 0 0
vn -1 0 0
vn -1 0 0
vn -1 0 0
vn -0 -0.70703125 -0.70703125
vn -0 -0.70703125 -0.70703125
vn -0 -0.70703125 -0.70703125
vn -0 -0.70703125 -0.70703125
vn 0.70703125 -0.70703125 0
vn 0.70703125 -0.70703125 0
vn 0.70703125 -0.70703125 0
vn 0.70703125 -0.70703125 0
vn -0 -0.70703125 0.70703125
vn -0 -0.70703125 0.70703125
vn -0 -0.70703125 0.70703125
vn -0 -0.70703125 0.70703125
vn -0 -0.70703125 -0.70703125
vn -0 -0.70703125 -0.70703125
vn -0 -0.70703125 -0.70703125
vn -0 -0.70703125 -0.70703125
vn -0 -0.70703125 0.70703125
vn -0 -0.70703125 0.70703125
vn -0 -0.70703125 0.70703125
vn -0 -0.70703125 0.70703125
vn -0.70703125 -0.70703125 0
vn -0.70703125 -0.70703125 0
vn -0.70703125 -0.70703125 0
vn -0.70703125 -0.70703125 0
vn -0 -1 0
vn -0 -1 0
vn -0 -1 0
vn -0 -1 0
vn -0 0 1
vn -0 0 1
vn -0 0 1
vn -0 0 1
vn -0 -1 0
vn -0 -1 0
vn -0 -1 0
vn -0 -1 0
vn -0 -1 0
vn -0 -1 0
vn -0 -1 0
vn -0 -1 0
vn -0 -1 0
vn -0 -1 0
vn -0 -1 0
vn -0 -1 0
vn -0 -1 0
vn -0 -1 0
vn -0 -1 0
vn -0 -1 0
vn -0 -1 0
vn -0 -1 0
vn -0 -1 0
vn -0 -1 0
vn -1 0 0
vn -1 0 0
vn -1 0 0
vn -1 0 0
vn -1 0 0
vn -1 0 0
vn 1 0 0
vn 1 0 0
vn 1 0 0
vn 1 0 0
vn 1 0 0
vn 1 0 0
vn -0 -1 0
vn -0 -1 0
vn -0 -1 0
vn -0 -1 0
vn -0 0 1
vn -0 0 1
vn -0 0 1
vn -0 0 1
vn -0 -1 0
vn -0 -1 0
vn -0 -1 0
vn -0 -1 0
vn -0 -1 0
vn -0 -1 0
vn -0 -1 0
vn -0 -1 0
vn 0.92871094 -0.3713379 0
vn 0.92871094 -0.3713379 0
vn 0.92871094 -0.3713379 0
vn 0.92871094 -0.3713379 0
vn -0 -0.3713379 -0.92871094
vn -0 -0.3713379 -0.92871094
vn -0 -0.3713379 -0.92871094
vn -0 -0.3713379 -0.92871094
vn -0 -0.3713379 0.92871094
vn -0 -0.3713379 0.92871094
vn -0 -0.3713379 0.92871094
vn -0 -0.3713379 0.92871094
vn -0.92871094 -0.3713379 0
vn -0.92871094 -0.3713379 0
vn -0.92871094 -0.3713379 0
vn -0.92871094 -0.3713379 0
vn -0.92871094 -0.3713379 0
vn -0.92871094 -0.3713379 0
vn -0.92871094 -0.3713379 0
vn -0.92871094 -0.3713379 0
vn -0 -0.3713379 -0.92871094
vn -0 -0.3713379 -0.92871094
vn -0 -0.3713379 -0.92871094
vn -0 -0.3713379 -0.92871094
vn -0 -0.3713379 0.92871094
vn -0 -0.3713379 0.92871094
vn -0 -0.3713379 0.92871094
vn -0 -0.3713379 0.92871094
vn 0.92871094 -0.3713379 0
vn 0.92871094 -0.3713379 0
vn 0.92871094 -0.3713379 0
vn 0.92871094 -0.3713379 0
vn -0 -1 0
vn -0 -1 0
vn -0 -1 0
vn -0 -1 0
vn -0 -1 0
vn -0 -1 0
vn -0 -1 0
vn -0 -1 0
vn -1 0 0
vn -1 0 0
vn -1 0 0
vn -1 0 0
vn 1 0 0
vn 1 0 0
vn 1 0 0
vn 1 0 0
vn -1 0 0
vn -1 0 0
vn -1 0 0
vn -1 0 0
vn 1 0 0
vn 1 0 0
vn 1 0 0
vn 1 0 0
vn -0 0 1
vn -0 0 1
vn -0 0 1
vn -0 0 1
vn -0 -1 0
vn -0 -1 0
vn -0 -1 0
vn -0 -1 0
vn -0 -1 0
vn -0 -1 0
vn -0 -1 0
vn -0 -1 0
g Uptown_STR_House_04_Door_0
f 3/3/3 2/2/2 1/1/1
f 6/6/6 5/5/5 4/4/4
f 9/9/9 8/8/8 7/7/7
f 12/12/12 11/11/11 10/10/10
f 15/15/15 14/14/14 13/13/13
f 18/18/18 17/17/17 16/16/16
f 21/21/21 20/20/20 19/19/19
f 24/24/24 23/23/23 22/22/22
f 27/27/27 26/26/26 25/25/25
f 28/28/28 25/25/25 26/26/26
f 31/31/31 30/30/30 29/29/29
f 32/32/32 29/29/29 30/30/30
f 35/35/35 34/34/34 33/33/33
f 36/36/36 33/33/33 34/34/34
f 39/39/39 38/38/38 37/37/37
f 40/40/40 37/37/37 38/38/38
f 43/43/43 42/42/42 41/41/41
f 44/44/44 41/41/41 42/42/42
f 47/47/47 46/46/46 45/45/45
f 48/48/48 45/45/45 46/46/46
f 51/51/51 50/50/50 49/49/49
f 52/52/52 49/49/49 50/50/50
f 55/55/55 54/54/54 53/53/53
f 56/56/56 53/53/53 54/54/54
f 59/59/59 58/58/58 57/57/57
f 60/60/60 57/57/57 58/58/58
f 63/63/63 62/62/62 61/61/61
f 64/64/64 61/61/61 62/62/62
f 67/67/67 66/66/66 65/65/65
f 68/68/68 65/65/65 66/66/66
f 71/71/71 70/70/70 69/69/69
f 72/72/72 69/69/69 70/70/70
f 75/75/75 74/74/74 73/73/73
f 76/76/76 73/73/73 74/74/74
f 79/79/79 78/78/78 77/77/77
f 80/80/80 77/77/77 78/78/78
f 83/83/83 82/82/82 81/81/81
f 84/84/84 81/81/81 82/82/82
f 87/87/87 86/86/86 85/85/85
f 88/88/88 85/85/85 86/86/86
f 91/91/91 90/90/90 89/89/89
f 92/92/92 89/89/89 90/90/90
f 95/95/95 94/94/94 93/93/93
f 96/96/96 93/93/93 94/94/94
f 99/99/99 98/98/98 97/97/97
f 100/100/100 97/97/97 98/98/98
f 103/103/103 102/102/102 101/101/101
f 104/104/104 101/101/101 102/102/102
f 107/107/107 106/106/106 105/105/105
f 108/108/108 105/105/105 106/106/106
f 111/111/111 110/110/110 109/109/109
f 112/112/112 109/109/109 110/110/110
f 115/115/115 114/114/114 113/113/113
f 116/116/116 113/113/113 114/114/114
f 114/114/114 117/117/117 116/116/116
f 118/118/118 117/117/117 114/114/114
f 117/117/117 119/119/119 116/116/116
f 119/119/119 120/120/120 116/116/116
f 121/121/121 117/117/117 118/118/118
f 122/122/122 121/121/121 118/118/118
f 123/123/123 117/117/117 121/121/121
f 121/121/121 122/122/122 124/124/124
f 125/125/125 124/124/124 122/122/122
f 126/126/126 123/123/123 121/121/121
f 127/127/127 124/124/124 125/125/125
f 125/125/125 120/120/120 127/127/127
f 119/119/119 127/127/127 120/120/120
f 119/119/119 128/128/128 127/127/127
f 127/127/127 128/128/128 126/126/126
f 128/128/128 129/129/129 126/126/126
f 130/130/130 123/123/123 126/126/126
f 129/129/129 130/130/130 126/126/126
f 129/129/129 131/131/131 130/130/130
f 132/132/132 130/130/130 131/131/131
f 135/135/135 134/134/134 133/133/133
f 134/134/134 136/136/136 133/133/133
f 136/136/136 137/137/137 133/133/133
f 137/137/137 138/138/138 133/133/133
f 141/141/141 140/140/140 139/139/139
f 140/140/140 142/142/142 139/139/139
f 142/142/142 143/143/143 139/139/139
f 144/144/144 143/143/143 142/142/142
f 147/147/147 146/146/146 145/145/145
f 148/148/148 145/145/145 146/146/146
f 151/151/151 150/150/150 149/149/149
f 152/152/152 149/149/149 150/150/150
g Uptown_STR_House_04_Door_1
f 155/155/155 154/154/154 153/153/153
f 156/156/156 153/153/153 154/154/154
f 159/159/159 158/158/158 157/157/157
f 160/160/160 157/157/157 158/158/158
f 163/163/163 162/162/162 161/161/161
f 164/164/164 161/161/161 162/162/162
f 167/167/167 166/166/166 165/165/165
f 168/168/168 165/165/165 166/166/166
f 171/171/171 170/170/170 169/169/169
f 172/172/172 169/169/169 170/170/170
f 175/175/175 174/174/174 173/173/173
f 176/176/176 173/173/173 174/174/174
f 179/179/179 178/178/178 177/177/177
f 180/180/180 177/177/177 178/178/178
f 183/183/183 182/182/182 181/181/181
f 184/184/184 181/181/181 182/182/182
f 187/187/187 186/186/186 185/185/185
f 188/188/188 185/185/185 186/186/186
f 191/191/191 190/190/190 189/189/189
f 192/192/192 189/189/189 190/190/190
f 195/195/195 194/194/194 193/193/193
f 196/196/196 193/193/193 194/194/194
f 196/196/196 194/194/194 197/197/197
f 198/198/198 197/197/197 194/194/194
f 198/198/198 199/199/199 197/197/197
f 200/200/200 197/197/197 199/199/199
f 203/203/203 202/202/202 201/201/201
f 204/204/204 201/201/201 202/202/202
f 207/207/207 206/206/206 205/205/205
f 208/208/208 205/205/205 206/206/206
f 211/211/211 210/210/210 209/209/209
f 212/212/212 209/209/209 210/210/210
f 215/215/215 214/214/214 213/213/213
f 216/216/216 213/213/213 214/214/214
f 219/219/219 218/218/218 217/217/217
f 220/220/220 217/217/217 218/218/218
g Uptown_STR_House_04_Door_2
f 223/223/223 222/222/222 221/221/221
f 224/224/224 221/221/221 222/222/222
f 227/227/227 226/226/226 225/225/225
f 228/228/228 225/225/225 226/226/226
