g Uptown_STR_House_03_Garden
v -0.22000019 0.8999994 0.59999996
v 2.1999998 -3.7200003 0.59999996
v -0.22000019 -3.7200003 0.59999996
v 2.1999998 0.8977264 0.59999996
v 5.9 -3.1000001 0.7
v 16.119999 -3.8018765 0.7
v 5.9000006 -3.7975547 0.70000005
v 16.119999 -3.1000001 0.70000005
v 5.72 -2.9000003 0.7
v 5.72 -3.7975547 0.7
v 5.72 -2.9200003 0.7
v 5.9 -3.7975547 0.79999995
v 5.9 -3.1000001 0.7
v 5.9000006 -3.7975547 0.70000005
v 5.9 -3.1000001 0.79999995
v 5.9 -3.1000001 0.7
v 16.119999 -3.1000001 0.79999995
v 16.119999 -3.1000001 0.70000005
v 5.9 -3.1000001 0.79999995
v 5.7 -2.9000003 0.79999995
v 5.9 -3.7975547 0.79999995
v 5.7 -3.7975547 0.79999995
v 5.9 -3.1000001 0.79999995
v 5.7 -3.7975547 0.7
v 5.7 -2.9000003 0.79999995
v 5.7 -3.7975547 0.79999995
v 5.7 -2.9000003 0.7
v 2.3999999 -3.7200003 0.7
v 2.3799999 -1.0585898 0.7
v 2.3799999 -3.7200003 0.7
v 2.3999999 -1.0585898 0.7
v 2.1799998 -3.7200003 0.7
v 2.1999998 -1.0585898 0.7
v 2.1799998 -1.0585898 0.7
v 2.1999998 -3.7200003 0.7
v 5.7 -2.9000003 0.79999995
v 16.119999 -2.9000003 0.7
v 16.119999 -2.9000003 0.79999995
v 5.72 -2.9000003 0.7
v 5.7 -2.9000003 0.7
v 16.119999 -2.9000003 0.79999995
v 5.9 -3.1000001 0.79999995
v 5.7 -2.9000003 0.79999995
v 16.119999 -3.1000001 0.79999995
v 2.1799998 -0.54513425 0.7
v 2.1799998 0.8977261 0.79999995
v 2.1799998 -0.54513425 0.79999995
v 2.1799998 0.8977261 0.7
v 2.3999999 -3.7200003 0.79999995
v 2.3999999 -1.0585898 0.7
v 2.3999999 -3.7200003 0.7
v 2.3999999 -1.0585898 0.79999995
v 2.1799998 -1.0585898 0.79999995
v 2.3999999 -3.7200003 0.79999995
v 2.1799998 -3.7200003 0.79999995
v 2.3999999 -1.0585898 0.79999995
v 2.3999999 -0.495148 0.79999995
v 2.3999999 0.8977261 0.7
v 2.3999999 -0.51402587 0.7
v 2.3999999 0.8977261 0.79999995
v 2.1799998 -1.0585898 0.7
v 2.1799998 -3.7200003 0.79999995
v 2.1799998 -3.7200003 0.7
v 2.1799998 -1.0585898 0.79999995
v 2.1799998 -0.54513425 0.7
v 2.1999998 0.8977261 0.7
v 2.1799998 0.8977261 0.7
v 2.1999998 -0.54513425 0.7
v 2.3248491 -0.54513425 0.79999995
v 2.3999999 0.8977261 0.79999995
v 2.3999999 -0.495148 0.79999995
v 2.1799998 0.8977261 0.79999995
v 2.1799998 -0.54513425 0.79999995
v 2.3799999 -0.54513425 0.7
v 2.3999999 0.8977261 0.7
v 2.3799999 0.8977261 0.7
v 2.3999999 -0.51402587 0.7
v 5.72 -3.7975547 0.7
v 5.7 -2.9000003 0.7
v 5.7 -3.7975547 0.7
v 5.72 -2.9000003 0.7
v 5.72 -2.9200003 0.7
v 16.119999 -2.9000003 0.7
v 5.72 -2.9000003 0.7
v 16.119999 -2.9200003 0.7
v 2.1999998 -0.54513425 0.7
v 2.1999998 0.8977264 0.59999996
v 2.1999998 0.8977261 0.7
v 2.1999998 -0.645134 0.62
v 2.1999998 -0.645134 0.7
v 2.1999998 -0.95329404 0.62
v 2.1999998 -3.7200003 0.59999996
v 2.1999998 -1.0585898 0.7
v 2.1999998 -3.7200003 0.7
v 2.1999998 -0.95329404 0.7
v 5.72 -3.7975547 0.19999999
v 5.72 -2.9200003 0.7
v 5.72 -3.7975547 0.7
v 5.72 -2.9200003 0.19999999
v 16.119999 -2.9200003 0.19999999
v 5.72 -2.9200003 0.7
v 5.72 -2.9200003 0.19999999
v 16.119999 -2.9200003 0.7
v 2.3799999 -0.91513395 0.62
v 2.3799999 -1.0585898 0.7
v 2.3799999 -0.91513395 0.7
v 2.38 -3.7200003 0.19999999
v 2.3799999 -3.7200003 0.7
v 2.38 0.8977264 0.19999999
v 2.3799999 -0.645134 0.62
v 2.3799999 -0.645134 0.7
v 2.3799999 -0.54513425 0.7
v 2.3799999 0.8977261 0.7
v 2.3999999 0.8977261 0.19999999
v 2.3999999 -3.7200003 1.8047785E-16
v 2.3999999 -3.7200003 0.19999999
v 2.3999999 0.8977261 0
v 2.38 0.8977264 0.19999999
v 2.3999999 -3.7200003 0.19999999
v 2.38 -3.7200003 0.19999999
v 2.3999999 0.8977261 0.19999999
v 16.119999 -2.9000003 1.6152768E-13
v 5.7 -2.9000003 0.19999999
v 5.7 -2.9000003 1.6152768E-13
v 16.119999 -2.9000003 0.19999999
v 5.7 -3.7975547 0
v 5.7 -2.9000003 0.19999999
v 5.7 -3.7975547 0.19999999
v 5.7 -2.9000003 1.6152768E-13
v 5.7 -2.9000003 0.19999999
v 5.72 -3.7975547 0.19999999
v 5.7 -3.7975547 0.19999999
v 5.72 -2.9200003 0.19999999
v 16.119999 -2.9000003 0.19999999
v 5.72 -2.9200003 0.19999999
v 5.7 -2.9000003 0.19999999
v 16.119999 -2.9200003 0.19999999
v 2.3248491 -0.54513425 0.79999995
v 2.3999999 -0.495148 0.79999995
v 2.3799999 -0.54513425 0.7
v 2.3999999 -0.495148 0.79999995
v 2.3999999 -0.51402587 0.7
v 2.3799999 -0.54513425 0.7
v 2.1799998 -1.0585898 0.79999995
v 2.3999999 -1.0585898 0.7
v 2.3999999 -1.0585898 0.79999995
v 2.3799999 -1.0585898 0.7
v 2.1999998 -1.0585898 0.7
v 2.1799998 -1.0585898 0.7
v 2.3799999 -1.0585898 0.7
v 2.2636185 -0.91513395 0.7
v 2.3799999 -0.91513395 0.7
v 2.1999998 -0.95329404 0.7
v 2.1999998 -1.0585898 0.7
v 2.3799999 -0.91513395 0.62
v 2.2636185 -0.91513395 0.7
v 2.2636185 -0.91513395 0.62
v 2.3799999 -0.91513395 0.7
v 2.2636185 -0.91513395 0.62
v 2.3799999 -0.645134 0.62
v 2.3799999 -0.91513395 0.62
v 2.1999998 -0.645134 0.62
v 2.1999998 -0.95329404 0.62
v 2.1999998 -0.645134 0.62
v 2.3799999 -0.645134 0.7
v 2.3799999 -0.645134 0.62
v 2.1999998 -0.645134 0.7
v 2.1999998 -0.54513425 0.7
v 2.3799999 -0.645134 0.7
v 2.1999998 -0.645134 0.7
v 2.3799999 -0.54513425 0.7
v 2.3248491 -0.54513425 0.79999995
v 2.1799998 -0.54513425 0.7
v 2.1799998 -0.54513425 0.79999995
v 2.1999998 -0.54513425 0.7
v 2.3799999 -0.54513425 0.7
v 2.2636185 -0.91513395 0.62
v 2.1999998 -0.95329404 0.7
v 2.1999998 -0.95329404 0.62
v 2.2636185 -0.91513395 0.7
vt 2.5625 -10.1640625
vt 2.9667969 -10.9375
vt 2.5625 -10.9375
vt 2.9667969 -10.1640625
vt 3.5839844 -8.5
vt 5.2851562 -8.6171875
vt 3.5839844 -8.6171875
vt 5.2851562 -8.5
vt 17.8125 9
vt 17.8125 8.71875
vt 17.8125 8.9921875
vt 0.39404297 0.53515625
vt 0.64501953 0.50390625
vt 0.39404297 0.50390625
vt 0.64501953 0.53515625
vt -0.9711914 0.5053711
vt 2.21875 0.53466797
vt 2.21875 0.5053711
vt -0.9711914 0.53466797
vt 0.0011968613 0.53271484
vt 0.3232422 0.6044922
vt 0.3232422 0.53271484
vt 0.07293701 0.6044922
vt 0.6567383 0.4987793
vt 0.3347168 0.5366211
vt 0.6567383 0.5366211
vt 0.3347168 0.4987793
vt -0.0011262894 0.20568848
vt 0.7919922 0.19970703
vt -0.0011262894 0.19970703
vt 0.7919922 0.20568848
vt -0.13635254 0.22021484
vt -0.1303711 -0.5732422
vt -0.13635254 -0.5732422
vt -0.1303711 0.22021484
vt 2.1757812 0.5361328
vt -1.0732422 0.50439453
vt -1.0732422 0.5361328
vt 2.1699219 0.50439453
vt 2.1757812 0.50439453
vt 2.1230469 0.53564453
vt -1.0615234 0.47338867
vt -1.1230469 0.53564453
vt 2.1230469 0.47338867
vt 0.11047363 -0.43579102
vt 0.54052734 -0.46557617
vt 0.11047363 -0.46557617
vt 0.54052734 -0.43579102
vt 0.5541992 -0.4658203
vt -0.23937988 -0.4362793
vt 0.5541992 -0.4362793
vt -0.23937988 -0.4658203
vt -0.23937988 -0.52783203
vt 0.5541992 -0.46240234
vt 0.5541992 -0.52783203
vt -0.23937988 -0.46240234
vt -0.40722656 -0.4650879
vt -0.8227539 -0.4350586
vt -0.40161133 -0.43530273
vt -0.8227539 -0.46484375
vt -0.042419434 -0.43847656
vt -0.8359375 -0.46801758
vt -0.8359375 -0.43847656
vt -0.042419434 -0.46801758
vt -0.13635254 -0.7260742
vt -0.1303711 -1.15625
vt -0.13635254 -1.15625
vt -0.1303711 -0.7260742
vt -0.39233398 -0.48706055
vt -0.8227539 -0.46557617
vt -0.40722656 -0.46484375
vt -0.8227539 -0.53027344
vt -0.39233398 -0.53027344
vt 0.9453125 0.19970703
vt 1.375 0.20568848
vt 1.375 0.19970703
vt 0.95458984 0.20568848
vt 17.8125 8.71875
vt 17.8125 9
vt 17.8125 8.71875
vt 17.8125 9
vt -6.6640625 8.9921875
vt -9.9140625 9
vt -6.6640625 9
vt -9.9140625 8.9921875
vt -18.34375 0.20471191
vt -18.78125 0.17492676
vt -18.78125 0.20471191
vt -18.3125 0.18078613
vt -18.3125 0.20471191
vt -18.21875 0.18078613
vt -17.390625 0.17492676
vt -18.1875 0.20471191
vt -17.390625 0.20471191
vt -18.21875 0.20471191
vt 2.7207031 0.6611328
vt 2.375 0.85839844
vt 2.7207031 0.85839844
vt 2.375 0.6611328
vt -1.7207031 0.6611328
vt 2.375 0.85839844
vt 2.375 0.6611328
vt -1.7207031 0.85839844
vt 0.7290039 0.70947266
vt 0.66259766 0.74609375
vt 0.7290039 0.74609375
vt -0.56591797 0.515625
vt -0.56591797 0.74609375
vt 1.5654297 0.515625
vt 0.8535156 0.70947266
vt 0.8535156 0.74609375
vt 0.89990234 0.74609375
vt 1.5654297 0.74609375
vt -0.7207031 0.5239258
vt 0.72265625 0.5864258
vt 0.72265625 0.5239258
vt -0.7207031 0.5864258
vt -0.7207031 0.5175781
vt 0.72265625 0.5239258
vt 0.72265625 0.5175781
vt -0.7207031 0.5239258
vt 20.53125 0.5864258
vt 17.28125 0.5239258
vt 17.28125 0.5864258
vt 20.53125 0.5239258
vt 17 0.5864258
vt 17.28125 0.5239258
vt 17 0.5239258
vt 17.28125 0.5864258
vt 17.28125 0.5239258
vt 17 0.5175781
vt 17 0.5239258
vt 17.265625 0.5175781
vt 20.53125 0.5239258
vt 17.28125 0.5175781
vt 17.28125 0.5239258
vt 20.53125 0.5175781
vt 1.1669922 0.34057617
vt 1.1943359 0.34057617
vt 1.1806641 0.3088379
vt 1.2431641 0.22717285
vt 1.2382812 0.19677734
vt 1.2265625 0.19677734
vt -0.7211914 0.24243164
vt -0.78808594 0.2121582
vt -0.78808594 0.24243164
vt -0.7817383 0.2121582
vt -0.7270508 0.2121582
vt -0.7211914 0.2121582
vt 0.7817383 0.80029297
vt 0.74658203 0.84375
vt 0.7817383 0.84375
vt 0.7270508 0.83251953
vt 0.7270508 0.80029297
vt -0.7817383 0.18786621
vt -0.74658203 0.2121582
vt -0.74658203 0.18786621
vt -0.7817383 0.2121582
vt 0.74658203 0.84375
vt 0.7817383 0.92578125
vt 0.7817383 0.84375
vt 0.7270508 0.92578125
vt 0.7270508 0.83251953
vt 0.7270508 0.18786621
vt 0.7817383 0.2121582
vt 0.7817383 0.18786621
vt 0.7270508 0.2121582
vt 0.7270508 0.9560547
vt 0.7817383 0.92578125
vt 0.7270508 0.92578125
vt 0.7817383 0.9560547
vt 0.7651367 0.24243164
vt 0.7211914 0.2121582
vt 0.7211914 0.24243164
vt 0.7270508 0.2121582
vt 0.7817383 0.2121582
vt -1.0742188 0.18786621
vt -1.0517578 0.2121582
vt -1.0517578 0.18786621
vt -1.0742188 0.2121582
vn -0 0 1
vn -0 0 1
vn -0 0 1
vn -0 0 1
vn -0 0 1
vn -0 0 1
vn -0 0 1
vn -0 0 1
vn -0 0 -1
vn -0 0 -1
vn -0 0 -1
vn 1 0 0
vn 1 0 0
vn 1 0 0
vn 1 0 0
vn -0 -1 0
vn -0 -1 0
vn -0 -1 0
vn -0 -1 0
vn -0 0 1
vn -0 0 1
vn -0 0 1
vn -0 0 1
vn -1 0 0
vn -1 0 0
vn -1 0 0
vn -1 0 0
vn -0 0 -1
vn -0 0 -1
vn -0 0 -1
vn -0 0 -1
vn -0 0 -1
vn -0 0 -1
vn -0 0 -1
vn -0 0 -1
vn -0 1 0
vn -0 1 0
vn -0 1 0
vn -0 1 0
vn -0 1 0
vn -0 0 1
vn -0 0 1
vn -0 0 1
vn -0 0 1
vn -1 0 0
vn -1 0 0
vn -1 0 0
vn -1 0 0
vn 1 0 0
vn 1 0 0
vn 1 0 0
vn 1 0 0
vn -0 0 1
vn -0 0 1
vn -0 0 1
vn -0 0 1
vn 1 0 0
vn 1 0 0
vn 1 0 0
vn 1 0 0
vn -1 0 0
vn -1 0 0
vn -1 0 0
vn -1 0 0
vn -0 0 -1
vn -0 0 -1
vn -0 0 -1
vn -0 0 -1
vn -0 0 1
vn -0 0 1
vn -0 0 1
vn -0 0 1
vn -0 0 1
vn -0 0 -1
vn -0 0 -1
vn -0 0 -1
vn -0 0 -1
vn -0 0 -1
vn -0 0 -1
vn -0 0 -1
vn -0 0 -1
vn -0 0 -1
vn -0 0 -1
vn -0 0 -1
vn -0 0 -1
vn -1 0 0
vn -1 0 0
vn -1 0 0
vn -1 0 0
vn -1 0 0
vn -1 0 0
vn -1 0 0
vn -1 0 0
vn -1 0 0
vn -1 0 0
vn -1 0 0
vn -1 0 0
vn -1 0 0
vn -1 0 0
vn -0 1 0
vn -0 1 0
vn -0 1 0
vn -0 1 0
vn 1 0 0
vn 1 0 0
vn 1 0 0
vn 1 0 0
vn 1 0 0
vn 1 0 0
vn 1 0 0
vn 1 0 0
vn 1 0 0
vn 1 0 0
vn 1 0 0
vn 1 0 0
vn 1 0 0
vn 1 0 0
vn -0 0 1
vn -0 0 1
vn -0 0 1
vn -0 0 1
vn -0 1 0
vn -0 1 0
vn -0 1 0
vn -0 1 0
vn -1 0 0
vn -1 0 0
vn -1 0 0
vn -1 0 0
vn -0 0 1
vn -0 0 1
vn -0 0 1
vn -0 0 1
vn -0 0 1
vn -0 0 1
vn -0 0 1
vn -0 0 1
vn 0.52978516 -0.7963867 0.29223633
vn 0.52978516 -0.7963867 0.29223633
vn 0.52978516 -0.7963867 0.29223633
vn 0.83691406 -0.53808594 0.1015625
vn 0.83691406 -0.53808594 0.1015625
vn 0.83691406 -0.53808594 0.1015625
vn -0 1 0
vn -0 1 0
vn -0 1 0
vn -0 1 0
vn -0 1 0
vn -0 1 0
vn -0 0 1
vn -0 0 1
vn -0 0 1
vn -0 0 1
vn -0 0 1
vn -0 1 0
vn -0 1 0
vn -0 1 0
vn -0 1 0
vn -0 0 1
vn -0 0 1
vn -0 0 1
vn -0 0 1
vn -0 0 1
vn -0 -1 0
vn -0 -1 0
vn -0 -1 0
vn -0 -1 0
vn -0 0 1
vn -0 0 1
vn -0 0 1
vn -0 0 1
vn -0 -1 0
vn -0 -1 0
vn -0 -1 0
vn -0 -1 0
vn -0 -1 0
vn -0.51416016 0.8574219 0
vn -0.51416016 0.8574219 0
vn -0.51416016 0.8574219 0
vn -0.51416016 0.8574219 0
g Uptown_STR_House_03_Garden_0
f 3/3/3 2/2/2 1/1/1
f 4/4/4 1/1/1 2/2/2
f 7/7/7 6/6/6 5/5/5
f 8/8/8 5/5/5 6/6/6
g Uptown_STR_House_03_Garden_1
f 11/11/11 10/10/10 9/9/9
f 14/14/14 13/13/13 12/12/12
f 15/15/15 12/12/12 13/13/13
f 18/18/18 17/17/17 16/16/16
f 19/19/19 16/16/16 17/17/17
f 22/22/22 21/21/21 20/20/20
f 23/23/23 20/20/20 21/21/21
f 26/26/26 25/25/25 24/24/24
f 27/27/27 24/24/24 25/25/25
f 30/30/30 29/29/29 28/28/28
f 31/31/31 28/28/28 29/29/29
f 34/34/34 33/33/33 32/32/32
f 35/35/35 32/32/32 33/33/33
f 38/38/38 37/37/37 36/36/36
f 37/37/37 39/39/39 36/36/36
f 39/39/39 40/40/40 36/36/36
f 43/43/43 42/42/42 41/41/41
f 44/44/44 41/41/41 42/42/42
f 47/47/47 46/46/46 45/45/45
f 48/48/48 45/45/45 46/46/46
f 51/51/51 50/50/50 49/49/49
f 52/52/52 49/49/49 50/50/50
f 55/55/55 54/54/54 53/53/53
f 56/56/56 53/53/53 54/54/54
f 59/59/59 58/58/58 57/57/57
f 60/60/60 57/57/57 58/58/58
f 63/63/63 62/62/62 61/61/61
f 64/64/64 61/61/61 62/62/62
f 67/67/67 66/66/66 65/65/65
f 68/68/68 65/65/65 66/66/66
f 71/71/71 70/70/70 69/69/69
f 70/70/70 72/72/72 69/69/69
f 72/72/72 73/73/73 69/69/69
f 76/76/76 75/75/75 74/74/74
f 77/77/77 74/74/74 75/75/75
f 80/80/80 79/79/79 78/78/78
f 78/78/78 79/79/79 81/81/81
f 84/84/84 83/83/83 82/82/82
f 85/85/85 82/82/82 83/83/83
g Uptown_STR_House_03_Garden_2
f 88/88/88 87/87/87 86/86/86
f 87/87/87 89/89/89 86/86/86
f 89/89/89 90/90/90 86/86/86
f 91/91/91 89/89/89 87/87/87
f 92/92/92 91/91/91 87/87/87
f 93/93/93 91/91/91 92/92/92
f 94/94/94 93/93/93 92/92/92
f 95/95/95 91/91/91 93/93/93
f 98/98/98 97/97/97 96/96/96
f 99/99/99 96/96/96 97/97/97
f 102/102/102 101/101/101 100/100/100
f 103/103/103 100/100/100 101/101/101
f 106/106/106 105/105/105 104/104/104
f 105/105/105 107/107/107 104/104/104
f 108/108/108 107/107/107 105/105/105
f 107/107/107 109/109/109 104/104/104
f 109/109/109 110/110/110 104/104/104
f 111/111/111 110/110/110 109/109/109
f 112/112/112 111/111/111 109/109/109
f 113/113/113 112/112/112 109/109/109
g Uptown_STR_House_03_Garden_3
f 116/116/116 115/115/115 114/114/114
f 117/117/117 114/114/114 115/115/115
f 120/120/120 119/119/119 118/118/118
f 121/121/121 118/118/118 119/119/119
f 124/124/124 123/123/123 122/122/122
f 125/125/125 122/122/122 123/123/123
f 128/128/128 127/127/127 126/126/126
f 129/129/129 126/126/126 127/127/127
f 132/132/132 131/131/131 130/130/130
f 133/133/133 130/130/130 131/131/131
f 136/136/136 135/135/135 134/134/134
f 137/137/137 134/134/134 135/135/135
g Uptown_STR_House_03_Garden_4
f 140/140/140 139/139/139 138/138/138
f 143/143/143 142/142/142 141/141/141
f 146/146/146 145/145/145 144/144/144
f 145/145/145 147/147/147 144/144/144
f 147/147/147 148/148/148 144/144/144
f 148/148/148 149/149/149 144/144/144
f 152/152/152 151/151/151 150/150/150
f 151/151/151 153/153/153 150/150/150
f 153/153/153 154/154/154 150/150/150
f 157/157/157 156/156/156 155/155/155
f 158/158/158 155/155/155 156/156/156
f 161/161/161 160/160/160 159/159/159
f 160/160/160 162/162/162 159/159/159
f 162/162/162 163/163/163 159/159/159
f 166/166/166 165/165/165 164/164/164
f 167/167/167 164/164/164 165/165/165
f 170/170/170 169/169/169 168/168/168
f 171/171/171 168/168/168 169/169/169
f 174/174/174 173/173/173 172/172/172
f 173/173/173 175/175/175 172/172/172
f 175/175/175 176/176/176 172/172/172
f 179/179/179 178/178/178 177/177/177
f 180/180/180 177/177/177 178/178/178
