g Uptown_STR_Base_RegionBorder_01
v 41.849995 35.54 2.4600043
v 41.649994 35.54 2.4600043
v 41.649994 35.54 2.6600003
v 41.849995 35.54 2.6600003
v 41.649994 29.56 2.460004
v 41.849995 29.56 2.460004
v 41.849995 29.56 2.6600003
v 41.649994 29.56 2.6599998
v 41.849995 29.56 2.460004
v 41.649994 29.56 2.460004
v 41.649994 35.54 2.4600043
v 41.849995 35.54 2.4600043
v 41.849995 20.949999 2.6600003
v 41.849995 20.949999 2.6500003
v 41.649994 20.949999 2.6500003
v 41.649994 20.949999 2.6600003
v 41.849995 35.54 2.6600003
v 41.649994 35.54 2.6600003
v 41.649994 37.55 2.6600003
v 41.849995 37.55 2.6600003
v 41.649994 29.56 2.6599998
v 41.849995 29.56 2.6600003
v 41.849995 20.949999 2.6600003
v 41.649994 20.949999 2.6600003
v 41.649994 24.55 2.6600003
v 41.649994 37.55 2.6600003
v 41.649994 37.55 2.6500003
v 41.849995 37.55 2.6500003
v 41.849995 37.55 2.6600003
vt 13.3359375 -28
vt 13.3359375 -28.046875
vt 13.2890625 -28.046875
vt 13.2890625 -28
vt 14.8359375 -28.046875
vt 14.8359375 -28
vt 14.890625 -28
vt 14.890625 -28.046875
vt 14.8359375 -28
vt 14.8359375 -28.046875
vt 13.3359375 -28.046875
vt 13.3359375 -28
vt 17.03125 -28
vt 17.046875 -28
vt 17.046875 -28.046875
vt 17.03125 -28.046875
vt 13.2890625 -28
vt 13.2890625 -28.046875
vt 12.7890625 -28.046875
vt 12.7890625 -28
vt 14.8828125 -28.046875
vt 14.8828125 -28
vt 17.03125 -28
vt 17.03125 -28.046875
vt 16.140625 -28.046875
vt 0 0
vt 0 0
vt 0 0
vt 0 0
vn -0 -1 0
vn -0 -1 0
vn -0 -1 0
vn -0 -1 0
vn -0 1 0
vn -0 1 0
vn -0 1 0
vn -0 1 0
vn -0 0 1
vn -0 0 1
vn -0 0 1
vn -0 0 1
vn -0 -1 0
vn -0 -1 0
vn -0 -1 0
vn -0 -1 0
vn -0 0 1
vn -0 0 1
vn -0 0 1
vn -0 0 1
vn -0 0 1
vn -0 0 1
vn -0 0 1
vn -0 0 1
vn -0 0 1
vn -0 1 0
vn -0 1 0
vn -0 1 0
vn -0 1 0
g Uptown_STR_Base_RegionBorder_01_0
f 3/3/3 2/2/2 1/1/1
f 4/4/4 3/3/3 1/1/1
f 7/7/7 6/6/6 5/5/5
f 8/8/8 7/7/7 5/5/5
f 11/11/11 10/10/10 9/9/9
f 12/12/12 11/11/11 9/9/9
f 15/15/15 14/14/14 13/13/13
f 16/16/16 15/15/15 13/13/13
f 19/19/19 18/18/18 17/17/17
f 20/20/20 19/19/19 17/17/17
f 23/23/23 22/22/22 21/21/21
f 21/21/21 24/24/24 23/23/23
f 21/21/21 25/25/25 24/24/24
f 28/28/28 27/27/27 26/26/26
f 29/29/29 28/28/28 26/26/26
