g Downtown_STR_Base_RegionBorder_02
v 36.5 -23.510002 2.31
v 36.3 -23.510002 2.31
v 36.3 -23.510002 2.51
v 36.5 -23.510002 2.51
v 36.5 -29.500002 2.31
v 36.3 -29.500002 2.31
v 36.3 -23.510002 2.31
v 36.5 -23.510002 2.31
v 36.5 -23.510002 2.51
v 36.3 -23.510002 2.51
v 36.3 -21.900002 2.51
v 36.5 -21.900002 2.51
v 36.3 -21.900002 2.51
v 36.3 -21.900002 2.5
v 36.5 -21.900002 2.5
v 36.5 -21.900002 2.51
v 36.5 -29.500002 2.3
v 36.3 -29.500002 2.3
v 36.3 -29.500002 2.31
v 36.5 -29.500002 2.31
vt -36.90625 13
vt -36.90625 12.953125
vt -36.96875 12.953125
vt -36.96875 13
vt -35.40625 13
vt -35.40625 12.953125
vt -36.90625 12.953125
vt -36.90625 13
vt -36.90625 13
vt -36.90625 12.953125
vt -37.3125 12.953125
vt -37.3125 13
vt -37.3125 12.953125
vt -37.3125 12.953125
vt -37.3125 13
vt -37.3125 13
vt -35.40625 13
vt -35.40625 12.953125
vt -35.40625 12.953125
vt -35.40625 13
vn -0 -1 0
vn -0 -1 0
vn -0 -1 0
vn -0 -1 0
vn -0 0 1
vn -0 0 1
vn -0 0 1
vn -0 0 1
vn -0 0 1
vn -0 0 1
vn -0 0 1
vn -0 0 1
vn -0 1 0
vn -0 1 0
vn -0 1 0
vn -0 1 0
vn -0 -1 0
vn -0 -1 0
vn -0 -1 0
vn -0 -1 0
g Downtown_STR_Base_RegionBorder_02_0
f 3/3/3 2/2/2 1/1/1
f 4/4/4 3/3/3 1/1/1
f 7/7/7 6/6/6 5/5/5
f 8/8/8 7/7/7 5/5/5
f 11/11/11 10/10/10 9/9/9
f 12/12/12 11/11/11 9/9/9
f 15/15/15 14/14/14 13/13/13
f 16/16/16 15/15/15 13/13/13
f 19/19/19 18/18/18 17/17/17
f 20/20/20 19/19/19 17/17/17
