g Downtown_STR_House_02_Door_Frame
v 22.23 -9.67 0.10000305
v 22.270002 -9.670011 3.360002
v 22.230001 -9.670011 3.400002
v 22.270002 -9.670011 3.360002
v 22.23 -9.67 0.10000305
v 22.269999 -9.67 0.10000305
v 22.230001 -9.87001 3.400002
v 22.269999 -9.870001 0.10000305
v 22.23 -9.870001 0.10000305
v 22.269999 -9.870001 0.10000305
v 22.230001 -9.87001 3.400002
v 22.270002 -9.87001 3.360002
v 22.270002 -9.670011 3.360002
v 24.830002 -9.67 3.400003
v 22.230001 -9.670011 3.400002
v 24.830002 -9.67 3.400003
v 22.270002 -9.670011 3.360002
v 24.790003 -9.67 3.360003
v 24.789999 -9.669991 0.100003965
v 24.830002 -9.67 3.400003
v 24.790003 -9.67 3.360003
v 24.830002 -9.67 3.400003
v 24.789999 -9.669991 0.100003965
v 24.83 -9.669991 0.100003965
v 24.83 -9.86999 0.100003965
v 24.790003 -9.870001 3.360003
v 24.830002 -9.870001 3.400003
v 24.790003 -9.870001 3.360003
v 24.83 -9.86999 0.100003965
v 24.789999 -9.86999 0.100003965
v 24.830002 -9.870001 3.400003
v 22.270002 -9.87001 3.360002
v 22.230001 -9.87001 3.400002
v 22.270002 -9.87001 3.360002
v 24.830002 -9.870001 3.400003
v 24.790003 -9.870001 3.360003
v 30.629997 -6.5700035 0.10000213
v 30.630007 -6.530001 3.360001
v 30.630007 -6.570001 3.400001
v 30.630007 -6.530001 3.360001
v 30.629997 -6.5700035 0.10000213
v 30.629997 -6.5300035 0.10000213
v 30.830008 -6.570001 3.400001
v 30.829996 -6.5300035 0.10000213
v 30.829996 -6.5700035 0.10000213
v 30.829996 -6.5300035 0.10000213
v 30.830008 -6.570001 3.400001
v 30.830008 -6.530001 3.360001
v 30.630007 -6.530001 3.360001
v 30.630009 -2.170001 3.4000008
v 30.630007 -6.570001 3.400001
v 30.630009 -2.170001 3.4000008
v 30.630007 -6.530001 3.360001
v 30.630009 -2.210001 3.3600008
v 30.63 -2.2100034 0.10000183
v 30.630009 -2.170001 3.4000008
v 30.630009 -2.210001 3.3600008
v 30.630009 -2.170001 3.4000008
v 30.63 -2.2100034 0.10000183
v 30.63 -2.1700034 0.10000183
v 30.83 -2.1700034 0.10000183
v 30.83001 -2.210001 3.3600008
v 30.83001 -2.170001 3.4000008
v 30.83001 -2.210001 3.3600008
v 30.83 -2.1700034 0.10000183
v 30.83 -2.2100034 0.10000183
v 30.83001 -2.170001 3.4000008
v 30.830008 -6.530001 3.360001
v 30.830008 -6.570001 3.400001
v 30.830008 -6.530001 3.360001
v 30.83001 -2.170001 3.4000008
v 30.83001 -2.210001 3.3600008
v 18.63 -7.3400006 0.10000244
v 18.63 -7.3000007 2.8600023
v 18.63 -7.3400006 2.9000025
v 18.63 -7.3000007 0.10000244
v 18.83 -7.3400006 2.9000025
v 18.83 -7.3000007 0.10000244
v 18.83 -7.3400006 0.10000244
v 18.83 -7.3000007 2.8600023
v 18.83 -7.3000007 0.10000244
v 18.63 -7.3000007 2.8600023
v 18.63 -7.3000007 0.10000244
v 18.83 -7.3000007 2.8600023
v 18.63 -7.3000007 2.8600023
v 18.83 -5.7800007 2.8600023
v 18.63 -5.7800007 2.8600023
v 18.83 -7.3000007 2.8600023
v 18.63 -5.7800007 0.10000244
v 18.83 -5.7800007 2.8600023
v 18.83 -5.7800007 0.10000244
v 18.63 -5.7800007 2.8600023
v 18.63 -7.3000007 2.8600023
v 18.63 -5.7400002 2.9000025
v 18.63 -7.3400006 2.9000025
v 18.63 -5.7800007 2.8600023
v 18.63 -5.7800007 0.10000244
v 18.63 -5.7400002 2.9000025
v 18.63 -5.7800007 2.8600023
v 18.63 -5.7400002 0.10000244
v 18.83 -5.7400002 0.10000244
v 18.83 -5.7800007 2.8600023
v 18.83 -5.7400002 2.9000025
v 18.83 -5.7800007 0.10000244
v 18.83 -5.7400002 2.9000025
v 18.83 -7.3000007 2.8600023
v 18.83 -7.3400006 2.9000025
v 18.83 -5.7800007 2.8600023
v 22.269999 -9.870001 0.10000305
v 22.270002 -9.670011 3.360002
v 22.269999 -9.67 0.10000305
v 22.270002 -9.87001 3.360002
v 22.270002 -9.670011 3.360002
v 24.790003 -9.870001 3.360003
v 24.790003 -9.67 3.360003
v 22.270002 -9.87001 3.360002
v 24.789999 -9.669991 0.100003965
v 24.790003 -9.870001 3.360003
v 24.789999 -9.86999 0.100003965
v 24.790003 -9.67 3.360003
v 22.269999 -9.85 2.9000025
v 24.789999 -9.690001 2.9000025
v 22.269999 -9.690001 2.9000025
v 24.789999 -9.85 2.9000025
v 24.789999 -9.690001 2.9000025
v 22.269999 -9.690001 2.9600024
v 22.269999 -9.690001 2.9000025
v 24.789999 -9.690001 2.9600024
v 22.269999 -9.85 2.9000025
v 24.789999 -9.85 2.9600024
v 24.789999 -9.85 2.9000025
v 22.269999 -9.85 2.9600024
v 24.789999 -9.690001 2.9600024
v 22.269999 -9.85 2.9600024
v 22.269999 -9.690001 2.9600024
v 24.789999 -9.85 2.9600024
v 23.5 -9.85 2.9600024
v 23.5 -9.690001 3.3600023
v 23.5 -9.85 3.3600023
v 23.5 -9.690001 2.9600024
v 23.56 -9.85 3.3600023
v 23.56 -9.690001 2.9600024
v 23.56 -9.85 2.9600024
v 23.56 -9.690001 3.3600023
v 23.5 -9.85 2.9600024
v 23.56 -9.85 3.3600023
v 23.56 -9.85 2.9600024
v 23.5 -9.85 3.3600023
v 23.56 -9.690001 2.9600024
v 23.5 -9.690001 3.3600023
v 23.5 -9.690001 2.9600024
v 23.56 -9.690001 3.3600023
v 30.829996 -6.5300035 0.10000213
v 30.630007 -6.530001 3.360001
v 30.629997 -6.5300035 0.10000213
v 30.830008 -6.530001 3.360001
v 30.630007 -6.530001 3.360001
v 30.83001 -2.210001 3.3600008
v 30.630009 -2.210001 3.3600008
v 30.830008 -6.530001 3.360001
v 30.63 -2.2100034 0.10000183
v 30.83001 -2.210001 3.3600008
v 30.83 -2.2100034 0.10000183
v 30.630009 -2.210001 3.3600008
v 30.81 -6.530003 2.9200025
v 30.650011 -2.210003 2.9200013
v 30.65 -6.530003 2.9200025
v 30.81001 -2.210003 2.9200013
v 30.650011 -2.210003 2.9200013
v 30.65 -6.530003 2.9800024
v 30.65 -6.530003 2.9200025
v 30.650011 -2.210003 2.9800012
v 30.81 -6.530003 2.9200025
v 30.81001 -2.210003 2.9800012
v 30.81001 -2.210003 2.9200013
v 30.81 -6.530003 2.9800024
v 30.650011 -2.210003 2.9800012
v 30.81 -6.530003 2.9800024
v 30.65 -6.530003 2.9800024
v 30.81001 -2.210003 2.9800012
v 30.81 -5.330003 2.9800029
v 30.65 -5.330003 3.380003
v 30.81 -5.330003 3.380003
v 30.65 -5.330003 2.9800029
v 30.81 -5.270003 3.380003
v 30.65 -5.270003 2.9800029
v 30.81 -5.270003 2.9800029
v 30.65 -5.270003 3.380003
v 30.81 -5.330003 2.9800029
v 30.81 -5.270003 3.380003
v 30.81 -5.270003 2.9800029
v 30.81 -5.330003 3.380003
v 30.65 -5.270003 2.9800029
v 30.65 -5.330003 3.380003
v 30.65 -5.330003 2.9800029
v 30.65 -5.270003 3.380003
v 30.81 -3.4712029 2.9800029
v 30.65 -3.4712029 3.380003
v 30.81 -3.4712029 3.380003
v 30.65 -3.4712029 2.9800029
v 30.81 -3.411203 3.380003
v 30.65 -3.411203 2.9800029
v 30.81 -3.411203 2.9800029
v 30.65 -3.411203 3.380003
v 30.81 -3.4712029 2.9800029
v 30.81 -3.411203 3.380003
v 30.81 -3.411203 2.9800029
v 30.81 -3.4712029 3.380003
v 30.65 -3.411203 2.9800029
v 30.65 -3.4712029 3.380003
v 30.65 -3.4712029 2.9800029
v 30.65 -3.411203 3.380003
vt 0.3791504 0.2401123
vt 0.3762207 0.44189453
vt 0.3791504 0.44482422
vt 0.3762207 0.44189453
vt 0.3791504 0.2401123
vt 0.3762207 0.2401123
vt 0.35864258 0.44482422
vt 0.36157227 0.2401123
vt 0.35864258 0.2401123
vt 0.36157227 0.2401123
vt 0.35864258 0.44482422
vt 0.36157227 0.44189453
vt 0.35180664 0.3251953
vt 0.35473633 0.44018555
vt 0.35473633 0.32226562
vt 0.35473633 0.44018555
vt 0.35180664 0.3251953
vt 0.35180664 0.43725586
vt 0.33691406 0.24072266
vt 0.33398438 0.4453125
vt 0.33691406 0.4423828
vt 0.33398438 0.4453125
vt 0.33691406 0.24072266
vt 0.33398438 0.24072266
vt 0.3544922 0.24072266
vt 0.3515625 0.4423828
vt 0.3544922 0.4453125
vt 0.3515625 0.4423828
vt 0.3544922 0.24072266
vt 0.3515625 0.24072266
vt 0.33422852 0.44018555
vt 0.3371582 0.3251953
vt 0.33422852 0.32226562
vt 0.3371582 0.3251953
vt 0.33422852 0.44018555
vt 0.3371582 0.43725586
vt 0.3791504 0.2401123
vt 0.3762207 0.44189453
vt 0.3791504 0.44482422
vt 0.3762207 0.44189453
vt 0.3791504 0.2401123
vt 0.3762207 0.2401123
vt 0.35864258 0.44482422
vt 0.36157227 0.2401123
vt 0.35864258 0.2401123
vt 0.36157227 0.2401123
vt 0.35864258 0.44482422
vt 0.36157227 0.44189453
vt 0.35180664 0.3251953
vt 0.35473633 0.44018555
vt 0.35473633 0.32226562
vt 0.35473633 0.44018555
vt 0.35180664 0.3251953
vt 0.35180664 0.43725586
vt 0.33691406 0.24072266
vt 0.33398438 0.4453125
vt 0.33691406 0.4423828
vt 0.33398438 0.4453125
vt 0.33691406 0.24072266
vt 0.33398438 0.24072266
vt 0.3544922 0.24072266
vt 0.3515625 0.4423828
vt 0.3544922 0.4453125
vt 0.3515625 0.4423828
vt 0.3544922 0.24072266
vt 0.3515625 0.24072266
vt 0.33422852 0.44018555
vt 0.3371582 0.3251953
vt 0.33422852 0.32226562
vt 0.3371582 0.3251953
vt 0.33422852 0.44018555
vt 0.3371582 0.43725586
vt 0.3791504 0.2401123
vt 0.3762207 0.44189453
vt 0.3791504 0.44482422
vt 0.3762207 0.2401123
vt 0.35864258 0.44482422
vt 0.36157227 0.2401123
vt 0.35864258 0.2401123
vt 0.36157227 0.44189453
vt 0.36157227 0.2401123
vt 0.3762207 0.44189453
vt 0.3762207 0.2401123
vt 0.36157227 0.44189453
vt 0.35180664 0.3251953
vt 0.3371582 0.43725586
vt 0.35180664 0.43725586
vt 0.3371582 0.3251953
vt 0.33691406 0.24072266
vt 0.3515625 0.4423828
vt 0.3515625 0.24072266
vt 0.33691406 0.4423828
vt 0.35180664 0.3251953
vt 0.35473633 0.44018555
vt 0.35473633 0.32226562
vt 0.35180664 0.43725586
vt 0.33691406 0.24072266
vt 0.33398438 0.4453125
vt 0.33691406 0.4423828
vt 0.33398438 0.24072266
vt 0.3544922 0.24072266
vt 0.3515625 0.4423828
vt 0.3544922 0.4453125
vt 0.3515625 0.24072266
vt 0.33422852 0.44018555
vt 0.3371582 0.3251953
vt 0.33422852 0.32226562
vt 0.3371582 0.43725586
vt 0.36157227 0.2401123
vt 0.3762207 0.44189453
vt 0.3762207 0.2401123
vt 0.36157227 0.44189453
vt 0.35180664 0.3251953
vt 0.3371582 0.43725586
vt 0.35180664 0.43725586
vt 0.3371582 0.3251953
vt 0.33691406 0.24072266
vt 0.3515625 0.4423828
vt 0.3515625 0.24072266
vt 0.33691406 0.4423828
vt 0.36157227 0.21655273
vt 0.375 0.4267578
vt 0.375 0.21655273
vt 0.36157227 0.4267578
vt 0.35668945 0.4267578
vt 0.36157227 0.21655273
vt 0.35668945 0.21655273
vt 0.36157227 0.4267578
vt 0.3798828 0.21655273
vt 0.375 0.4267578
vt 0.3798828 0.4267578
vt 0.375 0.21655273
vt 0.36157227 0.4267578
vt 0.375 0.21655273
vt 0.36157227 0.21655273
vt 0.375 0.4267578
vt 0.35107422 0.39794922
vt 0.33740234 0.4321289
vt 0.35107422 0.4321289
vt 0.33740234 0.39794922
vt 0.33740234 0.4321289
vt 0.35107422 0.39794922
vt 0.33740234 0.39794922
vt 0.35107422 0.4321289
vt 0.35107422 0.39794922
vt 0.35620117 0.4321289
vt 0.35620117 0.39794922
vt 0.35107422 0.4321289
vt 0.35107422 0.39794922
vt 0.35620117 0.4321289
vt 0.35620117 0.39794922
vt 0.35107422 0.4321289
vt 0.36157227 0.2401123
vt 0.3762207 0.44189453
vt 0.3762207 0.2401123
vt 0.36157227 0.44189453
vt 0.35180664 0.3251953
vt 0.3371582 0.43725586
vt 0.35180664 0.43725586
vt 0.3371582 0.3251953
vt 0.33691406 0.24072266
vt 0.3515625 0.4423828
vt 0.3515625 0.24072266
vt 0.33691406 0.4423828
vt 0.36157227 0.21655273
vt 0.375 0.4267578
vt 0.375 0.21655273
vt 0.36157227 0.4267578
vt 0.35668945 0.4267578
vt 0.36157227 0.21655273
vt 0.35668945 0.21655273
vt 0.36157227 0.4267578
vt 0.3798828 0.21655273
vt 0.375 0.4267578
vt 0.3798828 0.4267578
vt 0.375 0.21655273
vt 0.36157227 0.4267578
vt 0.375 0.21655273
vt 0.36157227 0.21655273
vt 0.375 0.4267578
vt 0.35107422 0.39794922
vt 0.33740234 0.4321289
vt 0.35107422 0.4321289
vt 0.33740234 0.39794922
vt 0.33740234 0.4321289
vt 0.35107422 0.39794922
vt 0.33740234 0.39794922
vt 0.35107422 0.4321289
vt 0.35107422 0.39794922
vt 0.35620117 0.4321289
vt 0.35620117 0.39794922
vt 0.35107422 0.4321289
vt 0.35107422 0.39794922
vt 0.35620117 0.4321289
vt 0.35620117 0.39794922
vt 0.35107422 0.4321289
vt 0.35107422 0.39794922
vt 0.33740234 0.4321289
vt 0.35107422 0.4321289
vt 0.33740234 0.39794922
vt 0.33740234 0.4321289
vt 0.35107422 0.39794922
vt 0.33740234 0.39794922
vt 0.35107422 0.4321289
vt 0.35107422 0.39794922
vt 0.35620117 0.4321289
vt 0.35620117 0.39794922
vt 0.35107422 0.4321289
vt 0.35107422 0.39794922
vt 0.35620117 0.4321289
vt 0.35620117 0.39794922
vt 0.35107422 0.4321289
vn 2.9802322E-06 1 2.9802322E-06
vn 2.9802322E-06 1 2.9802322E-06
vn 2.9802322E-06 1 2.9802322E-06
vn -0 1 2.9802322E-06
vn -0 1 2.9802322E-06
vn -0 1 2.9802322E-06
vn -0 -1 -2.9802322E-06
vn -0 -1 -2.9802322E-06
vn -0 -1 -2.9802322E-06
vn -2.9802322E-06 -1 -2.9802322E-06
vn -2.9802322E-06 -1 -2.9802322E-06
vn -2.9802322E-06 -1 -2.9802322E-06
vn -3.7550926E-06 1 -3.7550926E-06
vn -3.7550926E-06 1 -3.7550926E-06
vn -3.7550926E-06 1 -3.7550926E-06
vn -3.874302E-06 1 3.874302E-06
vn -3.874302E-06 1 3.874302E-06
vn -3.874302E-06 1 3.874302E-06
vn -2.9802322E-06 1 2.9802322E-06
vn -2.9802322E-06 1 2.9802322E-06
vn -2.9802322E-06 1 2.9802322E-06
vn -0 1 2.9802322E-06
vn -0 1 2.9802322E-06
vn -0 1 2.9802322E-06
vn 2.9802322E-06 -1 -2.9802322E-06
vn 2.9802322E-06 -1 -2.9802322E-06
vn 2.9802322E-06 -1 -2.9802322E-06
vn -0 -1 -2.9802322E-06
vn -0 -1 -2.9802322E-06
vn -0 -1 -2.9802322E-06
vn 3.7550926E-06 -1 3.7550926E-06
vn 3.7550926E-06 -1 3.7550926E-06
vn 3.7550926E-06 -1 3.7550926E-06
vn 3.874302E-06 -1 -3.874302E-06
vn 3.874302E-06 -1 -3.874302E-06
vn 3.874302E-06 -1 -3.874302E-06
vn -1 2.9802322E-06 2.9802322E-06
vn -1 2.9802322E-06 2.9802322E-06
vn -1 2.9802322E-06 2.9802322E-06
vn -1 0 2.9802322E-06
vn -1 0 2.9802322E-06
vn -1 0 2.9802322E-06
vn 1 0 -2.9802322E-06
vn 1 0 -2.9802322E-06
vn 1 0 -2.9802322E-06
vn 1 -2.9802322E-06 -2.9802322E-06
vn 1 -2.9802322E-06 -2.9802322E-06
vn 1 -2.9802322E-06 -2.9802322E-06
vn -1 5.364418E-07 5.364418E-07
vn -1 5.364418E-07 5.364418E-07
vn -1 5.364418E-07 5.364418E-07
vn -1 5.364418E-07 -5.364418E-07
vn -1 5.364418E-07 -5.364418E-07
vn -1 5.364418E-07 -5.364418E-07
vn -1 -2.9802322E-06 2.9802322E-06
vn -1 -2.9802322E-06 2.9802322E-06
vn -1 -2.9802322E-06 2.9802322E-06
vn -1 0 2.9802322E-06
vn -1 0 2.9802322E-06
vn -1 0 2.9802322E-06
vn 1 2.9802322E-06 -2.9802322E-06
vn 1 2.9802322E-06 -2.9802322E-06
vn 1 2.9802322E-06 -2.9802322E-06
vn 1 0 -2.9802322E-06
vn 1 0 -2.9802322E-06
vn 1 0 -2.9802322E-06
vn 1 -5.364418E-07 -5.364418E-07
vn 1 -5.364418E-07 -5.364418E-07
vn 1 -5.364418E-07 -5.364418E-07
vn 1 -5.364418E-07 5.364418E-07
vn 1 -5.364418E-07 5.364418E-07
vn 1 -5.364418E-07 5.364418E-07
vn -1 0 0
vn -1 0 0
vn -1 0 0
vn -1 0 0
vn 1 0 0
vn 1 0 0
vn 1 0 0
vn 1 0 0
vn -0 1 0
vn -0 1 0
vn -0 1 0
vn -0 1 0
vn -0 0 -1
vn -0 0 -1
vn -0 0 -1
vn -0 0 -1
vn -0 -1 0
vn -0 -1 0
vn -0 -1 0
vn -0 -1 0
vn -1 0 0
vn -1 0 0
vn -1 0 0
vn -1 0 0
vn -1 0 0
vn -1 0 0
vn -1 0 0
vn -1 0 0
vn 1 0 0
vn 1 0 0
vn 1 0 0
vn 1 0 0
vn 1 0 0
vn 1 0 0
vn 1 0 0
vn 1 0 0
vn 1 0 -7.748604E-07
vn 1 0 -7.748604E-07
vn 1 0 -7.748604E-07
vn 1 0 -7.748604E-07
vn 3.5762787E-07 0 -1
vn 3.5762787E-07 0 -1
vn 3.5762787E-07 0 -1
vn 3.5762787E-07 0 -1
vn -1 0 7.748604E-07
vn -1 0 7.748604E-07
vn -1 0 7.748604E-07
vn -1 0 7.748604E-07
vn -0 0 -1
vn -0 0 -1
vn -0 0 -1
vn -0 0 -1
vn -0 1 0
vn -0 1 0
vn -0 1 0
vn -0 1 0
vn -0 -1 0
vn -0 -1 0
vn -0 -1 0
vn -0 -1 0
vn -0 0 1
vn -0 0 1
vn -0 0 1
vn -0 0 1
vn -1 0 0
vn -1 0 0
vn -1 0 0
vn -1 0 0
vn 1 0 0
vn 1 0 0
vn 1 0 0
vn 1 0 0
vn -0 -1 0
vn -0 -1 0
vn -0 -1 0
vn -0 -1 0
vn -0 1 0
vn -0 1 0
vn -0 1 0
vn -0 1 0
vn -0 1 -7.748604E-07
vn -0 1 -7.748604E-07
vn -0 1 -7.748604E-07
vn -0 1 -7.748604E-07
vn -0 0 -1
vn -0 0 -1
vn -0 0 -1
vn -0 0 -1
vn -0 -1 7.748604E-07
vn -0 -1 7.748604E-07
vn -0 -1 7.748604E-07
vn -0 -1 7.748604E-07
vn -0 -2.9802322E-07 -1
vn -0 -2.9802322E-07 -1
vn -0 -2.9802322E-07 -1
vn -0 -2.9802322E-07 -1
vn -1 2.8014183E-06 0
vn -1 2.8014183E-06 0
vn -1 2.8014183E-06 0
vn -1 2.8014183E-06 0
vn 1 -2.8014183E-06 0
vn 1 -2.8014183E-06 0
vn 1 -2.8014183E-06 0
vn 1 -2.8014183E-06 0
vn -0 2.9802322E-07 1
vn -0 2.9802322E-07 1
vn -0 2.9802322E-07 1
vn -0 2.9802322E-07 1
vn -0 -1 0
vn -0 -1 0
vn -0 -1 0
vn -0 -1 0
vn -0 1 0
vn -0 1 0
vn -0 1 0
vn -0 1 0
vn 1 0 0
vn 1 0 0
vn 1 0 0
vn 1 0 0
vn -1 0 0
vn -1 0 0
vn -1 0 0
vn -1 0 0
vn -0 -1 0
vn -0 -1 0
vn -0 -1 0
vn -0 -1 0
vn -0 1 0
vn -0 1 0
vn -0 1 0
vn -0 1 0
vn 1 0 0
vn 1 0 0
vn 1 0 0
vn 1 0 0
vn -1 0 0
vn -1 0 0
vn -1 0 0
vn -1 0 0
g Downtown_STR_House_02_Door_Frame_0
f 3/3/3 2/2/2 1/1/1
f 6/6/6 5/5/5 4/4/4
f 9/9/9 8/8/8 7/7/7
f 12/12/12 11/11/11 10/10/10
f 15/15/15 14/14/14 13/13/13
f 18/18/18 17/17/17 16/16/16
f 21/21/21 20/20/20 19/19/19
f 24/24/24 23/23/23 22/22/22
f 27/27/27 26/26/26 25/25/25
f 30/30/30 29/29/29 28/28/28
f 33/33/33 32/32/32 31/31/31
f 36/36/36 35/35/35 34/34/34
f 39/39/39 38/38/38 37/37/37
f 42/42/42 41/41/41 40/40/40
f 45/45/45 44/44/44 43/43/43
f 48/48/48 47/47/47 46/46/46
f 51/51/51 50/50/50 49/49/49
f 54/54/54 53/53/53 52/52/52
f 57/57/57 56/56/56 55/55/55
f 60/60/60 59/59/59 58/58/58
f 63/63/63 62/62/62 61/61/61
f 66/66/66 65/65/65 64/64/64
f 69/69/69 68/68/68 67/67/67
f 72/72/72 71/71/71 70/70/70
f 75/75/75 74/74/74 73/73/73
f 76/76/76 73/73/73 74/74/74
f 79/79/79 78/78/78 77/77/77
f 80/80/80 77/77/77 78/78/78
f 83/83/83 82/82/82 81/81/81
f 84/84/84 81/81/81 82/82/82
f 87/87/87 86/86/86 85/85/85
f 88/88/88 85/85/85 86/86/86
f 91/91/91 90/90/90 89/89/89
f 92/92/92 89/89/89 90/90/90
f 95/95/95 94/94/94 93/93/93
f 96/96/96 93/93/93 94/94/94
f 99/99/99 98/98/98 97/97/97
f 100/100/100 97/97/97 98/98/98
f 103/103/103 102/102/102 101/101/101
f 104/104/104 101/101/101 102/102/102
f 107/107/107 106/106/106 105/105/105
f 108/108/108 105/105/105 106/106/106
f 111/111/111 110/110/110 109/109/109
f 112/112/112 109/109/109 110/110/110
f 115/115/115 114/114/114 113/113/113
f 116/116/116 113/113/113 114/114/114
f 119/119/119 118/118/118 117/117/117
f 120/120/120 117/117/117 118/118/118
f 123/123/123 122/122/122 121/121/121
f 124/124/124 121/121/121 122/122/122
f 127/127/127 126/126/126 125/125/125
f 128/128/128 125/125/125 126/126/126
f 131/131/131 130/130/130 129/129/129
f 132/132/132 129/129/129 130/130/130
f 135/135/135 134/134/134 133/133/133
f 136/136/136 133/133/133 134/134/134
f 139/139/139 138/138/138 137/137/137
f 140/140/140 137/137/137 138/138/138
f 143/143/143 142/142/142 141/141/141
f 144/144/144 141/141/141 142/142/142
f 147/147/147 146/146/146 145/145/145
f 148/148/148 145/145/145 146/146/146
f 151/151/151 150/150/150 149/149/149
f 152/152/152 149/149/149 150/150/150
f 155/155/155 154/154/154 153/153/153
f 156/156/156 153/153/153 154/154/154
f 159/159/159 158/158/158 157/157/157
f 160/160/160 157/157/157 158/158/158
f 163/163/163 162/162/162 161/161/161
f 164/164/164 161/161/161 162/162/162
f 167/167/167 166/166/166 165/165/165
f 168/168/168 165/165/165 166/166/166
f 171/171/171 170/170/170 169/169/169
f 172/172/172 169/169/169 170/170/170
f 175/175/175 174/174/174 173/173/173
f 176/176/176 173/173/173 174/174/174
f 179/179/179 178/178/178 177/177/177
f 180/180/180 177/177/177 178/178/178
f 183/183/183 182/182/182 181/181/181
f 184/184/184 181/181/181 182/182/182
f 187/187/187 186/186/186 185/185/185
f 188/188/188 185/185/185 186/186/186
f 191/191/191 190/190/190 189/189/189
f 192/192/192 189/189/189 190/190/190
f 195/195/195 194/194/194 193/193/193
f 196/196/196 193/193/193 194/194/194
f 199/199/199 198/198/198 197/197/197
f 200/200/200 197/197/197 198/198/198
f 203/203/203 202/202/202 201/201/201
f 204/204/204 201/201/201 202/202/202
f 207/207/207 206/206/206 205/205/205
f 208/208/208 205/205/205 206/206/206
f 211/211/211 210/210/210 209/209/209
f 212/212/212 209/209/209 210/210/210
