g Downtown_STR_Base_RegionBorder_05
v 41.5 35.799995 2.51
v 41.3 35.799995 2.51
v 41.3 39.199997 2.51
v 41.5 39.199997 2.51
v 41.3 39.199997 2.51
v 41.3 39.199997 2.5
v 41.5 39.199997 2.5
v 41.5 39.199997 2.51
v 41.5 35.799995 2.51
v 41.5 35.799995 2.5
v 41.3 35.799995 2.5
v 41.3 35.799995 2.51
vt -16.578125 5
vt -16.578125 4.9492188
vt -17.421875 4.9492188
vt -17.421875 5
vt -17.421875 4.9492188
vt -17.421875 4.9492188
vt -17.421875 5
vt -17.421875 5
vt -16.578125 5
vt -16.578125 5
vt -16.578125 4.9492188
vt -16.578125 4.9492188
vn -0 0 1
vn -0 0 1
vn -0 0 1
vn -0 0 1
vn -0 1 0
vn -0 1 0
vn -0 1 0
vn -0 1 0
vn -0 -1 0
vn -0 -1 0
vn -0 -1 0
vn -0 -1 0
g Downtown_STR_Base_RegionBorder_05_0
f 3/3/3 2/2/2 1/1/1
f 4/4/4 3/3/3 1/1/1
f 7/7/7 6/6/6 5/5/5
f 8/8/8 7/7/7 5/5/5
f 11/11/11 10/10/10 9/9/9
f 12/12/12 11/11/11 9/9/9
