g Downtown_STR_House_01_Roof_Window
v 9.577288 12.566842 2.1417692
v 8.9885 10.807336 2.5300014
v 8.9885 11.977883 2.5300014
v 9.577288 10.232173 2.1463602
v 4.2189636 10.238 2.149788
v 4.8052683 11.977883 2.5354517
v 4.8052683 10.807336 2.5354517
v 4.2189636 12.576811 2.145197
v 9.577288 10.232173 2.1463602
v 4.8052683 10.807336 2.5354517
v 8.9885 10.807336 2.5300014
v 4.2189636 10.238 2.149788
v 4.8052683 11.977883 2.5354517
v 8.9885 10.807336 2.5300014
v 4.8052683 10.807336 2.5354517
v 8.9885 11.977883 2.5300014
v 4.2189636 12.576811 2.145197
v 8.9885 11.977883 2.5300014
v 4.8052683 11.977883 2.5354517
v 9.577288 12.566842 2.1417692
v 9.577288 7.5839095 2.1417692
v 8.9885 5.8244042 2.5300014
v 8.9885 6.9949512 2.5300014
v 9.577288 5.2492404 2.1463602
v 4.2189636 5.2550683 2.149788
v 4.8052683 6.9949512 2.5354517
v 4.8052683 5.8244042 2.5354517
v 4.2189636 7.593879 2.145197
v 9.577288 5.2492404 2.1463602
v 4.8052683 5.8244042 2.5354517
v 8.9885 5.8244042 2.5300014
v 4.2189636 5.2550683 2.149788
v 4.8052683 6.9949512 2.5354517
v 8.9885 5.8244042 2.5300014
v 4.8052683 5.8244042 2.5354517
v 8.9885 6.9949512 2.5300014
v 4.2189636 7.593879 2.145197
v 8.9885 6.9949512 2.5300014
v 4.8052683 6.9949512 2.5354517
v 9.577288 7.5839095 2.1417692
vt 0.43823242 0.0020008087
vt 0.12524414 0.12805176
vt 0.3334961 0.12768555
vt 0.022583008 0.0031433105
vt 0.025268555 0.9980469
vt 0.3347168 0.8725586
vt 0.12646484 0.8730469
vt 0.4416504 0.9975586
vt 0.0020008087 0.023376465
vt 0.12646484 0.8730469
vt 0.12524414 0.12805176
vt 0.0040893555 0.97753906
vt 0.3347168 0.8725586
vt 0.12524414 0.12805176
vt 0.12646484 0.8730469
vt 0.3334961 0.12768555
vt 0.46240234 0.9765625
vt 0.3334961 0.12768555
vt 0.3347168 0.8725586
vt 0.45898438 0.022613525
vt 0.80908203 0.0020008087
vt 0.49609375 0.12805176
vt 0.70458984 0.12768555
vt 0.3935547 0.0031433105
vt 0.39624023 0.9980469
vt 0.7055664 0.8725586
vt 0.49731445 0.8730469
vt 0.8125 0.9975586
vt 0.37304688 0.023376465
vt 0.49731445 0.8730469
vt 0.49609375 0.12805176
vt 0.375 0.97753906
vt 0.7055664 0.8725586
vt 0.49609375 0.12805176
vt 0.49731445 0.8730469
vt 0.70458984 0.12768555
vt 0.8334961 0.9765625
vt 0.70458984 0.12768555
vt 0.7055664 0.8725586
vt 0.8300781 0.022613525
vn 0.55029297 0 0.83496094
vn 0.55029297 0 0.83496094
vn 0.55029297 0 0.83496094
vn 0.546875 0.0016460419 0.83691406
vn -0.5493164 0 0.8354492
vn -0.5493164 0 0.8354492
vn -0.5493164 0 0.8354492
vn -0.5527344 0.0016355515 0.8330078
vn 0.0010843277 -0.5541992 0.83251953
vn 0.0010843277 -0.5541992 0.83251953
vn 0.0010843277 -0.5541992 0.83251953
vn -8.022785E-05 -0.5605469 0.828125
vn 0.0013027191 0 1
vn 0.0013027191 0 1
vn 0.0013027191 0 1
vn 0.0013027191 0 1
vn 0.0010910034 0.546875 0.83740234
vn 0.0010910034 0.546875 0.83740234
vn 0.0010910034 0.546875 0.83740234
vn 0.0015563965 0.5493164 0.8354492
vn 0.55029297 0 0.83496094
vn 0.55029297 0 0.83496094
vn 0.55029297 0 0.83496094
vn 0.546875 0.0016460419 0.83691406
vn -0.5493164 0 0.8354492
vn -0.5493164 0 0.8354492
vn -0.5493164 0 0.8354492
vn -0.5527344 0.0016355515 0.8330078
vn 0.0010843277 -0.5541992 0.83251953
vn 0.0010843277 -0.5541992 0.83251953
vn 0.0010843277 -0.5541992 0.83251953
vn -8.022785E-05 -0.5605469 0.828125
vn 0.0013027191 0 1
vn 0.0013027191 0 1
vn 0.0013027191 0 1
vn 0.0013027191 0 1
vn 0.0010910034 0.546875 0.83740234
vn 0.0010910034 0.546875 0.83740234
vn 0.0010910034 0.546875 0.83740234
vn 0.0015563965 0.5493164 0.8354492
g Downtown_STR_House_01_Roof_Window_0
f 3/3/3 2/2/2 1/1/1
f 4/4/4 1/1/1 2/2/2
f 7/7/7 6/6/6 5/5/5
f 8/8/8 5/5/5 6/6/6
f 11/11/11 10/10/10 9/9/9
f 12/12/12 9/9/9 10/10/10
f 15/15/15 14/14/14 13/13/13
f 16/16/16 13/13/13 14/14/14
f 19/19/19 18/18/18 17/17/17
f 20/20/20 17/17/17 18/18/18
f 23/23/23 22/22/22 21/21/21
f 24/24/24 21/21/21 22/22/22
f 27/27/27 26/26/26 25/25/25
f 28/28/28 25/25/25 26/26/26
f 31/31/31 30/30/30 29/29/29
f 32/32/32 29/29/29 30/30/30
f 35/35/35 34/34/34 33/33/33
f 36/36/36 33/33/33 34/34/34
f 39/39/39 38/38/38 37/37/37
f 40/40/40 37/37/37 38/38/38
