g Downtown_STR_Base_RegionBorder_08
v -41.299988 -15.500002 2.51
v -41.49999 -15.500002 2.51
v -41.49999 -12.490003 2.51
v -41.299988 -12.490003 2.51
v -41.49999 -12.490003 2.51
v -41.49999 -12.490003 2.31
v -41.299988 -12.490003 2.31
v -41.299988 -12.490003 2.51
v -41.49999 -12.490003 2.31
v -41.49999 -6.510002 2.31
v -41.299988 -6.510002 2.31
v -41.299988 -12.490003 2.31
v -41.299988 -6.510002 2.51
v -41.299988 -6.510002 2.31
v -41.49999 -6.510002 2.31
v -41.49999 -6.510002 2.51
v -41.299988 -6.510002 2.51
v -41.49999 -6.510002 2.51
v -41.49999 -3.3000023 2.51
v -41.299988 -3.3000023 2.51
v -41.49999 -3.3000023 2.51
v -41.49999 -3.3000023 2.5
v -41.299988 -3.3000023 2.5
v -41.299988 -3.3000023 2.51
v -41.299988 -15.500002 2.5
v -41.49999 -15.500002 2.5
v -41.49999 -15.500002 2.51
v -41.299988 -15.500002 2.51
vt -17.34375 8.953125
vt -17.34375 9
vt -16.59375 9
vt -16.59375 8.953125
vt -16.59375 9
vt -16.546875 9
vt -16.546875 8.953125
vt -16.59375 8.953125
vt -15.75 9
vt -14.25 9
vt -14.25 8.953125
vt -15.75 8.953125
vt -14 8.953125
vt -14.0546875 8.953125
vt -14.0546875 9
vt -14 9
vt -14.0078125 8.953125
vt -14.0078125 9
vt -13.203125 9
vt -13.203125 8.953125
vt -13.203125 9
vt -13.203125 9
vt -13.203125 8.953125
vt -13.203125 8.953125
vt -17.359375 8.953125
vt -17.359375 9
vt -17.34375 9
vt -17.34375 8.953125
vn -0 0 1
vn -0 0 1
vn -0 0 1
vn -0 0 1
vn -0 1 0
vn -0 1 0
vn -0 1 0
vn -0 1 0
vn -0 0 1
vn -0 0 1
vn -0 0 1
vn -0 0 1
vn -0 -1 0
vn -0 -1 0
vn -0 -1 0
vn -0 -1 0
vn -0 0 1
vn -0 0 1
vn -0 0 1
vn -0 0 1
vn -0 1 0
vn -0 1 0
vn -0 1 0
vn -0 1 0
vn -0 -1 0
vn -0 -1 0
vn -0 -1 0
vn -0 -1 0
g Downtown_STR_Base_RegionBorder_08_0
f 3/3/3 2/2/2 1/1/1
f 4/4/4 3/3/3 1/1/1
f 7/7/7 6/6/6 5/5/5
f 8/8/8 7/7/7 5/5/5
f 11/11/11 10/10/10 9/9/9
f 12/12/12 11/11/11 9/9/9
f 15/15/15 14/14/14 13/13/13
f 16/16/16 15/15/15 13/13/13
f 19/19/19 18/18/18 17/17/17
f 20/20/20 19/19/19 17/17/17
f 23/23/23 22/22/22 21/21/21
f 24/24/24 23/23/23 21/21/21
f 27/27/27 26/26/26 25/25/25
f 28/28/28 27/27/27 25/25/25
