g Fx_Fbx_Range_Wickline_Skill02
v -0.5 -6.6501446 0
v -0.27476114 -6.7321033 0
v -0.5 -6.9623947 0
v -0.27476114 -0.29975158 0
v -0.5 -0.3817105 0
v -0.5339094 -0.3816574 0
v -0.5339094 -6.6509094 0
v -0.5 -0.037605286 0
v -0.4623947 0 0
v -0.16666666 0 0
v 0.16666666 0 0
v 0.27476117 -0.29975158 0
v 9.536743E-09 -3.5159276 0
v 0.4623947 0 0
v -0.5339094 -0.0037011718 0
v 0.16851078 0.033904113 0
v -0.16851078 0.033904113 0
v 0.49630415 0.033904113 0
v -0.4963041 0.033904113 0
v 0.5 -0.037605286 0
v 0.5 -0.3817105 0
v 0.27476117 -6.7321033 0
v 0.5 -6.6501446 0
v 0.5 -6.9623947 0
v 0.5339094 -6.99842 0
v 0.5339094 -6.6509094 0
v 0.4623947 -7 0
v 0.16666666 -7 0
v -0.16666666 -7 0
v -0.4623947 -7 0
v -0.16853043 -7.03696 0
v -0.4893972 -7.03696 0
v 0.16853043 -7.03696 0
v 0.48939726 -7.03696 0
v 0.5339094 -0.3816574 0
v -0.5339094 -6.99842 0
v 0.5339094 -0.0037011718 0
vt 0.42960718 0.057331655
vt 0.46131703 0.045793373
vt 0.42960715 0.013371915
vt 0.46131703 0.951372
vt 0.42960718 0.9398342
vt 0.42483342 0.9398416
vt 0.42483342 0.05722401
vt 0.42960715 0.98827744
vt 0.43490124 0.9935709
vt 0.4765349 0.9935707
vt 0.5234626 0.9935707
vt 0.5386804 0.951372
vt 0.4999988 0.49858287
vt 0.5650959 0.9935709
vt 0.4248333 0.9930504
vt 0.5237222 0.9983433
vt 0.4762753 0.9983433
vt 0.5698697 0.99834365
vt 0.43012732 0.99834365
vt 0.5703898 0.98827744
vt 0.5703897 0.9398342
vt 0.5386804 0.045793388
vt 0.57038975 0.05733176
vt 0.5703898 0.013372047
vt 0.5751636 0.008300375
vt 0.5751635 0.05722417
vt 0.5650959 0.008078069
vt 0.5234626 0.008078143
vt 0.4765349 0.008078128
vt 0.43490124 0.008078011
vt 0.47627255 0.0028747434
vt 0.4310997 0.002874611
vt 0.523725 0.0028747583
vt 0.56889737 0.0028746845
vt 0.5751634 0.93984175
vt 0.4248333 0.008300213
vt 0.5751636 0.9930504
vn -0 0 1
vn -0 0 1
vn -0 0 1
vn -0 0 1
vn -0 0 1
vn -0 0 1
vn -0 0 1
vn -0 0 1
vn -0 0 1
vn -0 0 1
vn -0 0 1
vn -0 0 1
vn -0 0 1
vn -0 0 1
vn -0 0 1
vn -0 0 1
vn -0 0 1
vn -0 0 1
vn -0 0 1
vn -0 0 1
vn -0 0 1
vn -0 0 1
vn -0 0 1
vn -0 0 1
vn -0 0 1
vn -0 0 1
vn -0 0 1
vn -0 0 1
vn -0 0 1
vn -0 0 1
vn -0 0 1
vn -0 0 1
vn -0 0 1
vn -0 0 1
vn -0 0 1
vn -0 0 1
vn -0 0 1
g Fx_Fbx_Range_Wickline_Skill02_0
f 3/3/3 2/2/2 1/1/1
f 2/2/2 4/4/4 1/1/1
f 4/4/4 5/5/5 1/1/1
f 5/5/5 6/6/6 1/1/1
f 6/6/6 7/7/7 1/1/1
f 1/1/1 7/7/7 3/3/3
f 6/6/6 5/5/5 8/8/8
f 5/5/5 4/4/4 8/8/8
f 8/8/8 4/4/4 9/9/9
f 4/4/4 10/10/10 9/9/9
f 11/11/11 10/10/10 4/4/4
f 12/12/12 11/11/11 4/4/4
f 13/13/13 12/12/12 4/4/4
f 2/2/2 13/13/13 4/4/4
f 12/12/12 14/14/14 11/11/11
f 15/15/15 6/6/6 8/8/8
f 15/15/15 8/8/8 9/9/9
f 11/11/11 16/16/16 10/10/10
f 16/16/16 11/11/11 14/14/14
f 16/16/16 17/17/17 10/10/10
f 10/10/10 17/17/17 9/9/9
f 18/18/18 16/16/16 14/14/14
f 19/19/19 15/15/15 9/9/9
f 17/17/17 19/19/19 9/9/9
f 18/18/18 14/14/14 20/20/20
f 20/20/20 14/14/14 12/12/12
f 21/21/21 20/20/20 12/12/12
f 21/21/21 12/12/12 22/22/22
f 12/12/12 13/13/13 22/22/22
f 23/23/23 21/21/21 22/22/22
f 24/24/24 23/23/23 22/22/22
f 24/24/24 25/25/25 23/23/23
f 25/25/25 26/26/26 23/23/23
f 23/23/23 26/26/26 21/21/21
f 25/25/25 24/24/24 27/27/27
f 27/27/27 24/24/24 22/22/22
f 28/28/28 27/27/27 22/22/22
f 28/28/28 22/22/22 29/29/29
f 22/22/22 2/2/2 29/29/29
f 29/29/29 2/2/2 30/30/30
f 31/31/31 29/29/29 30/30/30
f 29/29/29 31/31/31 28/28/28
f 32/32/32 31/31/31 30/30/30
f 31/31/31 33/33/33 28/28/28
f 28/28/28 33/33/33 27/27/27
f 34/34/34 25/25/25 27/27/27
f 33/33/33 34/34/34 27/27/27
f 26/26/26 35/35/35 21/21/21
f 32/32/32 30/30/30 3/3/3
f 30/30/30 2/2/2 3/3/3
f 36/36/36 32/32/32 3/3/3
f 7/7/7 36/36/36 3/3/3
f 35/35/35 37/37/37 20/20/20
f 37/37/37 18/18/18 20/20/20
f 21/21/21 35/35/35 20/20/20
f 2/2/2 22/22/22 13/13/13
