g Bg_Factory_STR_House_03
v -8.466056 -12.616257 0
v -8.466056 12.000223 0
v 3.3044786 11.912429 0.2387735
v 3.3044786 -12.704051 0.2387735
v -8.466056 -12.616256 -0.23126578
v 3.3044786 -12.704051 0.0075077056
v 3.3044786 11.912429 0.0075077056
v -8.466056 12.000224 -0.23126578
v -8.466056 -12.616257 0
v 3.3044786 -12.704051 0.2387735
v 3.3044786 -12.704051 0.0075077056
v -8.466056 -12.616256 -0.23126578
v 3.3044786 -12.704051 0.2387735
v 3.3044786 11.912429 0.2387735
v 3.3044786 11.912429 0.0075077056
v 3.3044786 -12.704051 0.0075077056
v 3.3044786 11.912429 0.2387735
v -8.466056 12.000223 0
v -8.466056 12.000224 -0.23126578
v 3.3044786 11.912429 0.0075077056
v -8.466056 12.000223 0
v -8.466056 -12.616257 0
v -8.466056 -12.616256 -0.23126578
v -8.466056 12.000224 -0.23126578
vt 1 0
vt 1 1
vt 0 1
vt 0 0
vt 0 0
vt 1 0
vt 1 1
vt 0 1
vt 0 0
vt 1 0
vt 1 1
vt 0 1
vt 0 0
vt 1 0
vt 1 1
vt 0 1
vt 0 0
vt 1 0
vt 1 1
vt 0 1
vt 0 0
vt 1 0
vt 1 1
vt 0 1
vn -0.02027893 0 1
vn -0.02027893 0 1
vn -0.02027893 0 1
vn -0.02027893 0 1
vn 0.02027893 0 -1
vn 0.02027893 0 -1
vn 0.02027893 0 -1
vn 0.02027893 0 -1
vn -0.007457733 -1 -2.6226044E-06
vn -0.007457733 -1 -2.6226044E-06
vn -0.007457733 -1 -2.6226044E-06
vn -0.007457733 -1 -2.6226044E-06
vn 1 0 0
vn 1 0 0
vn 1 0 0
vn 1 0 0
vn 0.007457733 1 2.6226044E-06
vn 0.007457733 1 2.6226044E-06
vn 0.007457733 1 2.6226044E-06
vn 0.007457733 1 2.6226044E-06
vn -1 0 0
vn -1 0 0
vn -1 0 0
vn -1 0 0
g Bg_Factory_STR_House_03_0
f 3/3/3 2/2/2 1/1/1
f 4/4/4 3/3/3 1/1/1
f 7/7/7 6/6/6 5/5/5
f 8/8/8 7/7/7 5/5/5
f 11/11/11 10/10/10 9/9/9
f 12/12/12 11/11/11 9/9/9
f 15/15/15 14/14/14 13/13/13
f 16/16/16 15/15/15 13/13/13
f 19/19/19 18/18/18 17/17/17
f 20/20/20 19/19/19 17/17/17
f 23/23/23 22/22/22 21/21/21
f 24/24/24 23/23/23 21/21/21
