g Bg_Factory_STR_RegionBorder_04
v 2.3101165E-14 1.01 0.19999999
v 2.3101165E-14 1.01 0
v 0.19999999 1.01 1.4438227E-14
v 0.19999999 1.01 0.19999999
v 0.19999999 6.9899993 1.4438227E-14
v 2.3101165E-14 6.9899993 0
v 2.3101165E-14 6.9899993 0.19999999
v 0.19999999 6.9899993 0.19999999
v 2.3101165E-14 6.9899993 0.19999999
v -0 9.999999 0.19999999
v 0.19999999 9.999999 0.19999999
v 0.19999999 6.9899993 0.19999999
v 0.19999999 1.01 1.4438227E-14
v 2.3101165E-14 1.01 0
v 2.3101165E-14 6.9899993 0
v 0.19999999 6.9899993 1.4438227E-14
v 2.3101165E-14 1.01 0.19999999
v 0.19999999 1.01 0.19999999
v 0.19999999 0.099999994 0.19999999
v 0.19999999 0 0.19999999
v -0 0 0.19999999
v -0 9.999999 0.19999999
v -0 9.999999 0.19
v 0.19999999 9.999999 0.19
v 0.19999999 9.999999 0.19999999
vt -26.546875 -42
vt -26.5 -42
vt -26.5 -42.0625
vt -26.546875 -42.0625
vt -25.09375 -42.0625
vt -25.09375 -42
vt -25.046875 -42
vt -25.046875 -42.0625
vt -25.09375 -42
vt -24.34375 -42
vt -24.34375 -42.0625
vt -25.09375 -42.0625
vt -26.59375 -42.0625
vt -26.59375 -42
vt -25.09375 -42
vt -25.09375 -42.0625
vt -26.546875 -42
vt -26.546875 -42.0625
vt -26.765625 -42.0625
vt -26.796875 -42.0625
vt -26.796875 -42
vt -24.34375 -42
vt -24.34375 -42
vt -24.34375 -42.0625
vt -24.34375 -42.0625
vn -0 1 0
vn -0 1 0
vn -0 1 0
vn -0 1 0
vn -0 -1 0
vn -0 -1 0
vn -0 -1 0
vn -0 -1 0
vn -0 0 1
vn -0 0 1
vn -0 0 1
vn -0 0 1
vn -0 0 1
vn -0 0 1
vn -0 0 1
vn -0 0 1
vn -0 0 1
vn -0 0 1
vn -0 0 1
vn -0 0 1
vn -0 0 1
vn -0 1 0
vn -0 1 0
vn -0 1 0
vn -0 1 0
g Bg_Factory_STR_RegionBorder_04_0
f 3/3/3 2/2/2 1/1/1
f 4/4/4 3/3/3 1/1/1
f 7/7/7 6/6/6 5/5/5
f 8/8/8 7/7/7 5/5/5
f 11/11/11 10/10/10 9/9/9
f 12/12/12 11/11/11 9/9/9
f 15/15/15 14/14/14 13/13/13
f 16/16/16 15/15/15 13/13/13
f 19/19/19 18/18/18 17/17/17
f 17/17/17 20/20/20 19/19/19
f 17/17/17 21/21/21 20/20/20
f 24/24/24 23/23/23 22/22/22
f 25/25/25 24/24/24 22/22/22
