g Bg_Factory_STR_RegionBorder_02
v 6.930349E-14 0 0.009999999
v 4.620233E-14 8.2 0.009999999
v 0.19999999 8.2 0.009999999
v 0.19999999 0 0.009999999
v 4.620233E-14 8.2 0.009999999
v -0 8.2 0
v 0.19999999 8.2 2.0213518E-14
v 0.19999999 8.2 0.009999999
vt -45.65625 -38
vt -43.59375 -38
vt -43.59375 -38.0625
vt -45.65625 -38.0625
vt -43.59375 -38
vt -43.59375 -38
vt -43.59375 -38.0625
vt -43.59375 -38.0625
vn -0 0 1
vn -0 0 1
vn -0 0 1
vn -0 0 1
vn -0 1 0
vn -0 1 0
vn -0 1 0
vn -0 1 0
g Bg_Factory_STR_RegionBorder_02_0
f 3/3/3 2/2/2 1/1/1
f 4/4/4 3/3/3 1/1/1
f 7/7/7 6/6/6 5/5/5
f 8/8/8 7/7/7 5/5/5
