g Bg_Factory_STR_Base_Wall_04
v -13.849999 -8.117344 -0.5099997
v -9.849999 -8.117344 -0.5099997
v -13.450002 -8.117344 -0.5099997
v -9.849999 -5.9173436 -0.20425811
v -12.529004 -5.9173436 -0.5093106
v -9.849999 -5.9173436 -0.5099997
v -12.529004 -5.9173436 -0.20436981
v -9.849999 -8.117344 -0.20425811
v -9.849999 -5.9173436 -0.5099997
v -9.849999 -8.117344 -0.5099997
v -9.849999 -5.9173436 -0.20425811
v -9.849999 -8.117344 0.5099997
v -10.05 -8.117344 0.4900003
v -10.05 -8.117344 0.5099997
v -9.849999 -8.117344 -0.20425811
v -13.849999 -8.117333 0.4900003
v -13.849999 -8.117344 -0.5099997
v -9.849999 -8.117344 -0.5099997
v -13.849999 -8.117344 -0.5099997
v -13.849999 -12.882661 0.4900003
v -13.849999 -8.117333 0.4900003
v -13.849999 -12.882661 0.39000028
v -13.849999 -12.882661 -0.5099997
v -12.509883 -1.3173437 -0.50977933
v -9.849999 -1.3173486 -0.20425873
v -9.849999 -1.3173437 -0.5099997
v -12.509883 -1.3173437 -0.20436981
v 10.078731 12.882656 0.4900003
v 13.849995 12.882656 -0.5099997
v 10.078731 12.882656 -0.5099997
v 13.849995 12.882656 0.4900003
v -11.849999 12.882656 0.4900003
v -11.849999 8.671143 -0.5099997
v -11.849999 8.671143 0.4900003
v -11.849999 12.882656 -0.5099997
v -10.05 -0.117343746 0.4900003
v -9.849999 -0.11734863 0.5099991
v -10.05 -0.117343746 0.5099997
v -9.849999 -0.117343746 -0.20425811
v -11.849999 -0.117343746 0.4900003
v -9.849999 -0.117343746 -0.5099997
v -11.849999 -0.117343746 -0.5099997
v -9.849999 -0.117343746 -0.5099997
v -9.849999 -1.3173486 -0.20425873
v -9.849999 -0.117343746 -0.20425811
v -9.849999 -1.3173437 -0.5099997
v -11.849999 -0.117343746 0.4900003
v -11.849999 4.2741013 -0.5099997
v -11.849999 -0.117343746 -0.5099997
v -11.849999 4.2741013 0.4900003
v -11.849999 4.2741013 0.4900003
v -11.849999 8.671143 -0.5099997
v -11.849999 4.2741013 -0.5099997
v -11.849999 8.671143 0.4900003
v -11.849999 12.882656 0.4900003
v -7.457949 12.882656 -0.5099997
v -11.849999 12.882656 -0.5099997
v -7.457949 12.882656 0.4900003
v -7.457949 12.882656 0.4900003
v -3.07041 12.882656 -0.5099997
v -7.457949 12.882656 -0.5099997
v -3.07041 12.882656 0.4900003
v -3.07041 12.882656 0.4900003
v 1.2927734 12.882656 -0.5099997
v -3.07041 12.882656 -0.5099997
v 1.2927734 12.882656 0.4900003
v 1.2927734 12.882656 0.4900003
v 5.6878514 12.882656 -0.5099997
v 1.2927734 12.882656 -0.5099997
v 5.6878514 12.882656 0.4900003
v 5.6878514 12.882656 0.4900003
v 10.078731 12.882656 -0.5099997
v 5.6878514 12.882656 -0.5099997
v 10.078731 12.882656 0.4900003
v -9.849999 -5.9173584 0.50999784
v -10.049994 -6.407358 0.50999784
v -10.05 -6.117358 0.50999784
v -9.849995 -6.407358 0.50999784
v -10.049994 -8.117358 0.50999784
v -9.849999 -8.117358 0.50999784
v -12.630918 -5.9173584 0.50999784
v -11.4209175 -6.117358 0.50999784
v -12.630918 -6.117358 0.50999784
v -11.4209175 -5.917363 0.50999784
v -10.05 -6.117358 0.50999784
v -9.849999 -5.9173584 0.50999784
v -9.849995 -6.407358 -0.20425995
v -9.849999 -5.9173584 0.50999784
v -9.849999 -5.9173584 -0.20425995
v -9.849995 -6.407358 0.50999784
v -9.849995 -8.117358 -0.20425995
v -9.849999 -8.117358 0.50999784
v -11.4209175 -5.9173584 -0.20425995
v -12.630918 -5.9173584 0.50999784
v -12.630918 -5.9173584 -0.20425995
v -11.4209175 -5.917363 0.50999784
v -9.849999 -5.9173584 -0.20425995
v -9.849999 -5.9173584 0.50999784
v -10.05 -6.117358 0.50999784
v -10.04999 -6.407358 0.48999786
v -10.049994 -6.1173534 0.48999786
v -10.049994 -6.407358 0.50999784
v -10.04999 -8.117358 0.48999786
v -10.049994 -8.117358 0.50999784
v -12.630918 -6.117358 0.50999784
v -11.4209175 -6.1173534 0.48999786
v -12.630918 -6.1173534 0.48999786
v -11.4209175 -6.117358 0.50999784
v -10.049994 -6.1173534 0.48999786
v -10.05 -6.117358 0.50999784
v -10.049994 -0.8273535 0.50999784
v -9.849999 -1.3173535 0.50999784
v -10.05 -1.1173534 0.50999784
v -9.849995 -0.8273535 0.50999784
v -10.049994 -0.117353514 0.50999784
v -9.849999 -0.11734863 0.5099991
v -11.4209175 -1.1173534 0.50999784
v -12.630918 -1.3173535 0.50999784
v -12.630918 -1.1173534 0.50999784
v -11.4209175 -1.3173535 0.50999784
v -10.05 -1.1173534 0.50999784
v -9.849999 -1.3173535 0.50999784
v -9.849999 -1.3173535 0.50999784
v -9.849995 -0.8273535 -0.20425995
v -9.849999 -1.3173486 -0.20425873
v -9.849995 -0.8273535 0.50999784
v -9.849995 -0.117353514 -0.20425995
v -9.849999 -0.11734863 0.5099991
v -12.630918 -1.3173535 0.50999784
v -11.4209175 -1.3173535 -0.20425995
v -12.630918 -1.3173535 -0.20425995
v -11.4209175 -1.3173535 0.50999784
v -9.849999 -1.3173486 -0.20425873
v -9.849999 -1.3173535 0.50999784
v -10.04999 -0.8273535 0.48999786
v -10.05 -1.1173534 0.50999784
v -10.049994 -1.1173632 0.48999786
v -10.049994 -0.8273535 0.50999784
v -10.04999 -0.117353514 0.48999786
v -10.049994 -0.117353514 0.50999784
v -11.4209175 -1.1173632 0.48999786
v -12.630918 -1.1173534 0.50999784
v -12.630918 -1.1173632 0.48999786
v -11.4209175 -1.1173534 0.50999784
v -10.049994 -1.1173632 0.48999786
v -10.05 -1.1173534 0.50999784
vt 0.50390625 0.12213135
vt 0.95458984 0.12213135
vt 0.5488281 0.12213135
vt 0.0028629303 0.31958008
vt 0.3232422 0.28320312
vt 0.0028629303 0.28320312
vt 0.3232422 0.31958008
vt 0.0028629303 0.31958008
vt 0.26611328 0.28295898
vt 0.0028629303 0.28320312
vt 0.26611328 0.31958008
vt 0.95458984 0.23706055
vt 0.9321289 0.23486328
vt 0.9321289 0.23706055
vt 0.95458984 0.15661621
vt 0.50390625 0.23486328
vt 0.50390625 0.12213135
vt 0.95458984 0.12213135
vt 0.99658203 0.12213135
vt 0.50390625 0.23486328
vt 0.99658203 0.23486328
vt 0.50390625 0.22351074
vt 0.50390625 0.12213135
vt 0.0011034012 0.2841797
vt 0.30981445 0.31958008
vt 0.30981445 0.2841797
vt 0.0011110306 0.31958008
vt 0.5053711 0.23352051
vt 0.93066406 0.120910645
vt 0.5053711 0.120910645
vt 0.93066406 0.23352051
vt 0.97802734 0.23352051
vt 0.50390625 0.120910645
vt 0.50390625 0.23352051
vt 0.97802734 0.120910645
vt 0.52685547 0.23352051
vt 0.50439453 0.23583984
vt 0.52685547 0.23583984
vt 0.50439453 0.15527344
vt 0.7294922 0.23352051
vt 0.50439453 0.120910645
vt 0.7294922 0.120910645
vt 0.003932953 0.2841797
vt 0.14318848 0.31958008
vt 0.003932953 0.31958008
vt 0.14318848 0.2841797
vt 0.50439453 0.23352051
vt 0.99902344 0.120910645
vt 0.50439453 0.120910645
vt 0.99902344 0.23352051
vt 0.50341797 0.23352051
vt 0.99853516 0.120910645
vt 0.50341797 0.120910645
vt 0.99853516 0.23352051
vt 0.50439453 0.23352051
vt 0.99902344 0.120910645
vt 0.50439453 0.120910645
vt 0.99902344 0.23352051
vt 0.50439453 0.23352051
vt 0.99853516 0.120910645
vt 0.50439453 0.120910645
vt 0.99853516 0.23352051
vt 0.5073242 0.23352051
vt 0.99902344 0.120910645
vt 0.5073242 0.120910645
vt 0.99902344 0.23352051
vt 0.50341797 0.23352051
vt 0.99853516 0.120910645
vt 0.50341797 0.120910645
vt 0.99853516 0.23352051
vt 0.50341797 0.23352051
vt 0.9980469 0.120910645
vt 0.50341797 0.120910645
vt 0.9980469 0.23352051
vt 0.85839844 0.23803711
vt 0.7792969 0.27026367
vt 0.8261719 0.27026367
vt 0.7792969 0.23803711
vt 0.50390625 0.27026367
vt 0.50390625 0.23803711
vt 0.9916992 0.23803711
vt 0.796875 0.27026367
vt 0.9916992 0.27026367
vt 0.796875 0.23803711
vt 0.5761719 0.27026367
vt 0.5439453 0.23803711
vt 0.7792969 0.12298584
vt 0.85839844 0.23803711
vt 0.85839844 0.12298584
vt 0.7792969 0.23803711
vt 0.50390625 0.12298584
vt 0.50390625 0.23803711
vt 0.796875 0.12298584
vt 0.9916992 0.23803711
vt 0.9916992 0.12298584
vt 0.796875 0.23803711
vt 0.5439453 0.12298584
vt 0.5439453 0.23803711
vt 8.328125 1.2958984
vt 8.28125 1.2988281
vt 8.328125 1.2988281
vt 8.28125 1.2958984
vt 8.0078125 1.2988281
vt 8.0078125 1.2958984
vt 8.8125 1.2958984
vt 8.6171875 1.2988281
vt 8.8125 1.2988281
vt 8.6171875 1.2958984
vt 8.3984375 1.2988281
vt 8.3984375 1.2958984
vt 0.5839844 0.26538086
vt 0.5048828 0.23742676
vt 0.5371094 0.265625
vt 0.5839844 0.23730469
vt 0.6982422 0.26513672
vt 0.6982422 0.23706055
vt 0.69970703 0.265625
vt 0.5048828 0.23742676
vt 0.5048828 0.265625
vt 0.69970703 0.2376709
vt 0.92041016 0.265625
vt 0.9526367 0.2376709
vt 0.5048828 0.23742676
vt 0.5834961 0.12231445
vt 0.5048828 0.12243652
vt 0.5839844 0.23730469
vt 0.6977539 0.12207031
vt 0.6982422 0.23706055
vt 0.5048828 0.23742676
vt 0.69970703 0.122558594
vt 0.5048828 0.12243652
vt 0.69970703 0.2376709
vt 0.9526367 0.122558594
vt 0.9526367 0.2376709
vt 0.5839844 0.23498535
vt 0.5371094 0.2319336
vt 0.5371094 0.23510742
vt 0.5839844 0.23181152
vt 0.6982422 0.23486328
vt 0.6982422 0.23156738
vt 0.69970703 0.23535156
vt 0.5048828 0.2319336
vt 0.5048828 0.23522949
vt 0.69970703 0.23217773
vt 0.92041016 0.23535156
vt 0.92041016 0.23217773
vn 1 0 0
vn 1 0 0
vn 1 0 0
vn -0 1 0
vn -0 1 0
vn -0 1 0
vn -0 1 0
vn 1 0 0
vn 1 0 0
vn 1 0 0
vn 1 0 0
vn -0 -1 0
vn -0 -1 0
vn -0 -1 0
vn -0 -1 0
vn -7.748604E-07 -1 9.775162E-06
vn -0 -1 0
vn -0 -1 0
vn 1 0 0
vn 1 0 0
vn 1 0 0
vn 1 0 0
vn 1 0 0
vn -0 -1 -1.5974045E-05
vn -0 -1 -1.5974045E-05
vn -0 -1 -1.5974045E-05
vn -1.847744E-06 -1 0
vn -0 -1 0
vn -0 -1 0
vn -0 -1 0
vn -0 -1 0
vn 1 0 0
vn 1 0 0
vn 1 0 0
vn 1 0 0
vn 2.4437904E-05 1 0
vn 2.4437904E-05 1 0
vn 2.4437904E-05 1 0
vn 2.3722649E-05 1 6.854534E-06
vn -0 1 0
vn -0 1 0
vn -0 1 0
vn 1 0 0
vn 1 0 0
vn 1 0 0
vn 1 0 0
vn 1 0 0
vn 1 0 0
vn 1 0 0
vn 1 0 0
vn 1 0 0
vn 1 0 0
vn 1 0 0
vn 1 0 0
vn -0 -1 0
vn -0 -1 0
vn -0 -1 0
vn -0 -1 0
vn -0 -1 0
vn -0 -1 0
vn -0 -1 0
vn -0 -1 0
vn -0 -1 0
vn -0 -1 0
vn -0 -1 0
vn -0 -1 0
vn -0 -1 0
vn -0 -1 0
vn -0 -1 0
vn -0 -1 0
vn -0 -1 0
vn -0 -1 0
vn -0 -1 0
vn -0 -1 0
vn -0 0 1
vn -0 0 1
vn -0 0 1
vn -0 0 1
vn -0 0 1
vn -0 0 1
vn -0 0 1
vn -0 0 1
vn -0 0 1
vn -0 0 1
vn -0 0 1
vn -0 0 1
vn 1 9.953976E-06 0
vn 1 9.953976E-06 0
vn 1 9.953976E-06 0
vn 1 9.953976E-06 0
vn 1 -2.861023E-06 6.854534E-06
vn 1 -2.861023E-06 6.854534E-06
vn 4.053116E-06 1 6.854534E-06
vn 4.053116E-06 1 6.854534E-06
vn -0 1 0
vn 4.053116E-06 1 6.854534E-06
vn -3.0994415E-06 1 0
vn -3.0994415E-06 1 0
vn -1 -1.680851E-05 -0.00024414062
vn -1 -1.680851E-05 -0.00024414062
vn -1 -1.680851E-05 -0.00024414062
vn -1 -1.680851E-05 -0.00024414062
vn -1 0 -0.00024414062
vn -1 0 -0.00024414062
vn -0 -1 -0.00024414062
vn -0 -1 -0.00024414062
vn -0 -1 -0.00024414062
vn -0 -1 -0.00024414062
vn -0 -1 -0.00024414062
vn -0 -1 -0.00024414062
vn -0 0 1
vn -0 0 1
vn -0 0 1
vn -0 0 1
vn -6.0796738E-06 -1.7285347E-06 1
vn -6.0796738E-06 -1.7285347E-06 1
vn -0 0 1
vn -0 0 1
vn -0 0 1
vn -0 0 1
vn -0 0 1
vn -0 0 1
vn 1 -9.953976E-06 0
vn 1 -9.953976E-06 0
vn 1 -9.953976E-06 0
vn 1 -9.953976E-06 0
vn 1 0 0
vn 1 6.854534E-06 6.854534E-06
vn -0 -1 0
vn -0 -1 0
vn -0 -1 0
vn -0 -1 0
vn 3.0994415E-06 -1 0
vn -0 -1 -6.854534E-06
vn -1 1.680851E-05 -0.00024414062
vn -1 1.680851E-05 -0.00024414062
vn -1 1.680851E-05 -0.00024414062
vn -1 1.680851E-05 -0.00024414062
vn -1 0 -0.00024414062
vn -1 0 -0.00024414062
vn -0 1 -0.00048828125
vn -0 1 -0.00048828125
vn -0 1 -0.00048828125
vn -0 1 -0.00048828125
vn -0 1 -0.00048828125
vn -0 1 -0.00048828125
g Bg_Factory_STR_Base_Wall_04_0
f 3/3/3 2/2/2 1/1/1
f 6/6/6 5/5/5 4/4/4
f 7/7/7 4/4/4 5/5/5
f 10/10/10 9/9/9 8/8/8
f 11/11/11 8/8/8 9/9/9
f 14/14/14 13/13/13 12/12/12
f 13/13/13 15/15/15 12/12/12
f 16/16/16 15/15/15 13/13/13
f 17/17/17 15/15/15 16/16/16
f 18/18/18 15/15/15 17/17/17
f 21/21/21 20/20/20 19/19/19
f 20/20/20 22/22/22 19/19/19
f 22/22/22 23/23/23 19/19/19
f 26/26/26 25/25/25 24/24/24
f 27/27/27 24/24/24 25/25/25
f 30/30/30 29/29/29 28/28/28
f 31/31/31 28/28/28 29/29/29
f 34/34/34 33/33/33 32/32/32
f 35/35/35 32/32/32 33/33/33
f 38/38/38 37/37/37 36/36/36
f 37/37/37 39/39/39 36/36/36
f 39/39/39 40/40/40 36/36/36
f 41/41/41 40/40/40 39/39/39
f 42/42/42 40/40/40 41/41/41
f 45/45/45 44/44/44 43/43/43
f 46/46/46 43/43/43 44/44/44
f 49/49/49 48/48/48 47/47/47
f 50/50/50 47/47/47 48/48/48
f 53/53/53 52/52/52 51/51/51
f 54/54/54 51/51/51 52/52/52
f 57/57/57 56/56/56 55/55/55
f 58/58/58 55/55/55 56/56/56
f 61/61/61 60/60/60 59/59/59
f 62/62/62 59/59/59 60/60/60
f 65/65/65 64/64/64 63/63/63
f 66/66/66 63/63/63 64/64/64
f 69/69/69 68/68/68 67/67/67
f 70/70/70 67/67/67 68/68/68
f 73/73/73 72/72/72 71/71/71
f 74/74/74 71/71/71 72/72/72
f 77/77/77 76/76/76 75/75/75
f 78/78/78 75/75/75 76/76/76
f 76/76/76 79/79/79 78/78/78
f 80/80/80 78/78/78 79/79/79
f 83/83/83 82/82/82 81/81/81
f 84/84/84 81/81/81 82/82/82
f 82/82/82 85/85/85 84/84/84
f 86/86/86 84/84/84 85/85/85
f 89/89/89 88/88/88 87/87/87
f 90/90/90 87/87/87 88/88/88
f 87/87/87 90/90/90 91/91/91
f 92/92/92 91/91/91 90/90/90
f 95/95/95 94/94/94 93/93/93
f 96/96/96 93/93/93 94/94/94
f 93/93/93 96/96/96 97/97/97
f 98/98/98 97/97/97 96/96/96
f 101/101/101 100/100/100 99/99/99
f 102/102/102 99/99/99 100/100/100
f 100/100/100 103/103/103 102/102/102
f 104/104/104 102/102/102 103/103/103
f 107/107/107 106/106/106 105/105/105
f 108/108/108 105/105/105 106/106/106
f 106/106/106 109/109/109 108/108/108
f 110/110/110 108/108/108 109/109/109
f 113/113/113 112/112/112 111/111/111
f 114/114/114 111/111/111 112/112/112
f 111/111/111 114/114/114 115/115/115
f 116/116/116 115/115/115 114/114/114
f 119/119/119 118/118/118 117/117/117
f 120/120/120 117/117/117 118/118/118
f 117/117/117 120/120/120 121/121/121
f 122/122/122 121/121/121 120/120/120
f 125/125/125 124/124/124 123/123/123
f 126/126/126 123/123/123 124/124/124
f 124/124/124 127/127/127 126/126/126
f 128/128/128 126/126/126 127/127/127
f 131/131/131 130/130/130 129/129/129
f 132/132/132 129/129/129 130/130/130
f 130/130/130 133/133/133 132/132/132
f 134/134/134 132/132/132 133/133/133
f 137/137/137 136/136/136 135/135/135
f 138/138/138 135/135/135 136/136/136
f 135/135/135 138/138/138 139/139/139
f 140/140/140 139/139/139 138/138/138
f 143/143/143 142/142/142 141/141/141
f 144/144/144 141/141/141 142/142/142
f 141/141/141 144/144/144 145/145/145
f 146/146/146 145/145/145 144/144/144
