g Bg_Factory_STR_Base_Wall_07
v -7.6000586 -19.78498 0.19999939
v -3.5000584 -19.78498 0.19999939
v -3.5000536 -20.124931 0.19999939
v -7.6000533 -20.124931 0.19999939
v -7.6000533 -20.124931 0.19999939
v -3.5000536 -20.124931 0.19999939
v -3.5000486 -20.125029 -0.19999878
v -7.6000485 -20.125029 -0.19999878
v -7.6000586 -19.78498 0.100000605
v -3.5000584 -19.78498 0.100000605
v -3.5000584 -19.78498 0.19999939
v -7.6000586 -19.78498 0.19999939
v -3.5000584 -19.78498 0.19999939
v 0.5999414 -19.78498 0.19999939
v 0.59994626 -20.124931 0.19999939
v -3.5000536 -20.124931 0.19999939
v -3.5000536 -20.124931 0.19999939
v 0.59994626 -20.124931 0.19999939
v 0.59995115 -20.125029 -0.19999878
v -3.5000486 -20.125029 -0.19999878
v -3.5000584 -19.78498 0.100000605
v 0.5999414 -19.78498 0.100000605
v 0.5999414 -19.78498 0.19999939
v -3.5000584 -19.78498 0.19999939
v 0.5999414 -19.78498 0.19999939
v 4.699941 -19.78498 0.19999939
v 4.6999464 -20.124931 0.19999939
v 0.59994626 -20.124931 0.19999939
v 0.59994626 -20.124931 0.19999939
v 4.6999464 -20.124931 0.19999939
v 4.699951 -20.125029 -0.19999878
v 0.59995115 -20.125029 -0.19999878
v 0.5999414 -19.78498 0.100000605
v 4.699941 -19.78498 0.100000605
v 4.699941 -19.78498 0.19999939
v 0.5999414 -19.78498 0.19999939
v 4.699941 -19.78498 0.19999939
v 7.2599607 -19.78498 0.19999939
v 7.5999312 -20.124956 0.19999939
v 4.6999464 -20.124931 0.19999939
v 4.6999464 -20.124931 0.19999939
v 7.5999312 -20.124956 0.19999939
v 7.5999804 -20.125 -0.19999878
v 4.699951 -20.125029 -0.19999878
v 4.699941 -19.78498 0.100000605
v 7.2599607 -19.78498 0.100000605
v 7.2599607 -19.78498 0.19999939
v 4.699941 -19.78498 0.19999939
v 7.2599607 -19.78498 0.19999939
v 7.259985 -16.024984 0.19999939
v 7.5999365 -16.02498 0.19999939
v 7.5999312 -20.124956 0.19999939
v 7.5999312 -20.124956 0.19999939
v 7.5999365 -16.02498 0.19999939
v 7.600034 -16.024975 -0.19999878
v 7.5999804 -20.125 -0.19999878
v 7.2599607 -19.78498 0.100000605
v 7.259985 -16.024984 0.100000605
v 7.259985 -16.024984 0.19999939
v 7.2599607 -19.78498 0.19999939
v 7.259985 -16.024984 0.19999939
v 7.259985 -11.924985 0.19999939
v 7.5999365 -11.92498 0.19999939
v 7.5999365 -16.02498 0.19999939
v 7.5999365 -16.02498 0.19999939
v 7.5999365 -11.92498 0.19999939
v 7.600034 -11.924975 -0.19999878
v 7.600034 -16.024975 -0.19999878
v 7.259985 -16.024984 0.100000605
v 7.259985 -11.924985 0.100000605
v 7.259985 -11.924985 0.19999939
v 7.259985 -16.024984 0.19999939
v 7.259985 -11.924985 0.19999939
v 7.259985 -7.824985 0.19999939
v 7.5999365 -7.8249803 0.19999939
v 7.5999365 -11.92498 0.19999939
v 7.5999365 -11.92498 0.19999939
v 7.5999365 -7.8249803 0.19999939
v 7.600034 -7.8249755 -0.19999878
v 7.600034 -11.924975 -0.19999878
v 7.259985 -11.924985 0.100000605
v 7.259985 -7.824985 0.100000605
v 7.259985 -7.824985 0.19999939
v 7.259985 -11.924985 0.19999939
v 7.259985 -7.824985 0.19999939
v 7.259985 -3.7249854 0.19999939
v 7.5999365 -3.7249804 0.19999939
v 7.5999365 -7.8249803 0.19999939
v 7.5999365 -7.8249803 0.19999939
v 7.5999365 -3.7249804 0.19999939
v 7.600034 -3.7249756 -0.19999878
v 7.600034 -7.8249755 -0.19999878
v 7.259985 -7.824985 0.100000605
v 7.259985 -3.7249854 0.100000605
v 7.259985 -3.7249854 0.19999939
v 7.259985 -7.824985 0.19999939
v 7.259985 -3.7249854 0.19999939
v 7.259985 0.37501463 0.19999939
v 7.5999365 0.37501952 0.19999939
v 7.5999365 -3.7249804 0.19999939
v 7.5999365 -3.7249804 0.19999939
v 7.5999365 0.37501952 0.19999939
v 7.600034 0.3750244 -0.19999878
v 7.600034 -3.7249756 -0.19999878
v 7.259985 -3.7249854 0.100000605
v 7.259985 0.37501463 0.100000605
v 7.259985 0.37501463 0.19999939
v 7.259985 -3.7249854 0.19999939
v 7.259985 0.37501463 0.19999939
v 7.259985 4.4750147 0.19999939
v 7.5999365 4.4750195 0.19999939
v 7.5999365 0.37501952 0.19999939
v 7.5999365 0.37501952 0.19999939
v 7.5999365 4.4750195 0.19999939
v 7.600034 4.475024 -0.19999878
v 7.600034 0.3750244 -0.19999878
v 7.259985 0.37501463 0.100000605
v 7.259985 4.4750147 0.100000605
v 7.259985 4.4750147 0.19999939
v 7.259985 0.37501463 0.19999939
v 7.259985 4.4750147 0.19999939
v 7.259985 8.575014 0.19999939
v 7.5999365 8.575019 0.19999939
v 7.5999365 4.4750195 0.19999939
v 7.5999365 4.4750195 0.19999939
v 7.5999365 8.575019 0.19999939
v 7.600034 8.575025 -0.19999878
v 7.600034 4.475024 -0.19999878
v 7.259985 4.4750147 0.100000605
v 7.259985 8.575014 0.100000605
v 7.259985 8.575014 0.19999939
v 7.259985 4.4750147 0.19999939
v 7.259985 8.575014 0.19999939
v 7.259985 12.6750145 0.19999939
v 7.5999365 12.675019 0.19999939
v 7.5999365 8.575019 0.19999939
v 7.5999365 8.575019 0.19999939
v 7.5999365 12.675019 0.19999939
v 7.600034 12.675024 -0.19999878
v 7.600034 8.575025 -0.19999878
v 7.259985 8.575014 0.100000605
v 7.259985 12.6750145 0.100000605
v 7.259985 12.6750145 0.19999939
v 7.259985 8.575014 0.19999939
v 7.259985 12.6750145 0.19999939
v 7.259985 16.775015 0.19999939
v 7.5999365 16.775019 0.19999939
v 7.5999365 12.675019 0.19999939
v 7.5999365 12.675019 0.19999939
v 7.5999365 16.775019 0.19999939
v 7.600034 16.775024 -0.19999878
v 7.600034 12.675024 -0.19999878
v 7.259985 12.6750145 0.100000605
v 7.259985 16.775015 0.100000605
v 7.259985 16.775015 0.19999939
v 7.259985 12.6750145 0.19999939
v 7.259985 16.775015 0.19999939
v 7.259985 20.125013 0.19999939
v 7.5999365 20.12502 0.19999939
v 7.5999365 16.775019 0.19999939
v 7.5999365 16.775019 0.19999939
v 7.5999365 20.12502 0.19999939
v 7.600034 20.125025 -0.19999878
v 7.600034 16.775024 -0.19999878
v 7.259985 16.775015 0.100000605
v 7.259985 20.125013 0.100000605
v 7.259985 20.125013 0.19999939
v 7.259985 16.775015 0.19999939
vt 0.7558594 0.25463867
vt 0.56640625 0.25463867
vt 0.56640625 0.23803711
vt 0.7558594 0.23803711
vt 0.56640625 0.23803711
vt 0.7558594 0.23803711
vt 0.7558594 0.21508789
vt 0.56640625 0.21508789
vt 0.7558594 0.23608398
vt 0.56640625 0.23608398
vt 0.56640625 0.23791504
vt 0.7558594 0.23791504
vt 0.7558594 0.25463867
vt 0.56640625 0.25463867
vt 0.56640625 0.23803711
vt 0.7558594 0.23803711
vt 0.56640625 0.23803711
vt 0.7558594 0.23803711
vt 0.7558594 0.21508789
vt 0.56640625 0.21508789
vt 0.7558594 0.23608398
vt 0.56640625 0.23608398
vt 0.56640625 0.23791504
vt 0.7558594 0.23791504
vt 0.7558594 0.25463867
vt 0.56640625 0.25463867
vt 0.56640625 0.23803711
vt 0.7558594 0.23803711
vt 0.56640625 0.23803711
vt 0.7558594 0.23803711
vt 0.7558594 0.21508789
vt 0.56640625 0.21508789
vt 0.7558594 0.23608398
vt 0.56640625 0.23608398
vt 0.56640625 0.23791504
vt 0.7558594 0.23791504
vt 0.7558594 0.25463867
vt 0.6513672 0.25463867
vt 0.6376953 0.23803711
vt 0.7558594 0.23803711
vt 0.56640625 0.23803711
vt 0.6845703 0.23803711
vt 0.6845703 0.21508789
vt 0.56640625 0.21508789
vt 0.7558594 0.23608398
vt 0.6513672 0.23608398
vt 0.6513672 0.23791504
vt 0.7558594 0.23791504
vt 0.7402344 0.25463867
vt 0.56640625 0.25463867
vt 0.56640625 0.23803711
vt 0.7558594 0.23803711
vt 0.56640625 0.23803711
vt 0.7558594 0.23803711
vt 0.7558594 0.21508789
vt 0.56640625 0.21508789
vt 0.7402344 0.23608398
vt 0.56640625 0.23608398
vt 0.56640625 0.23791504
vt 0.7402344 0.23791504
vt 0.7558594 0.25463867
vt 0.56640625 0.25463867
vt 0.56640625 0.23803711
vt 0.7558594 0.23803711
vt 0.56640625 0.23803711
vt 0.7558594 0.23803711
vt 0.7558594 0.21508789
vt 0.56640625 0.21508789
vt 0.7558594 0.23608398
vt 0.56640625 0.23608398
vt 0.56640625 0.23791504
vt 0.7558594 0.23791504
vt 0.7558594 0.25463867
vt 0.56640625 0.25463867
vt 0.56640625 0.23803711
vt 0.7558594 0.23803711
vt 0.56640625 0.23803711
vt 0.7558594 0.23803711
vt 0.7558594 0.21508789
vt 0.56640625 0.21508789
vt 0.7558594 0.23608398
vt 0.56640625 0.23608398
vt 0.56640625 0.23791504
vt 0.7558594 0.23791504
vt 0.7558594 0.25463867
vt 0.56640625 0.25463867
vt 0.56640625 0.23803711
vt 0.7558594 0.23803711
vt 0.56640625 0.23803711
vt 0.7558594 0.23803711
vt 0.7558594 0.21508789
vt 0.56640625 0.21508789
vt 0.7558594 0.23608398
vt 0.56640625 0.23608398
vt 0.56640625 0.23791504
vt 0.7558594 0.23791504
vt 0.7558594 0.25463867
vt 0.56640625 0.25463867
vt 0.56640625 0.23803711
vt 0.7558594 0.23803711
vt 0.56640625 0.23803711
vt 0.7558594 0.23803711
vt 0.7558594 0.21508789
vt 0.56640625 0.21508789
vt 0.7558594 0.23608398
vt 0.56640625 0.23608398
vt 0.56640625 0.23791504
vt 0.7558594 0.23791504
vt 0.7558594 0.25463867
vt 0.56640625 0.25463867
vt 0.56640625 0.23803711
vt 0.7558594 0.23803711
vt 0.56640625 0.23803711
vt 0.7558594 0.23803711
vt 0.7558594 0.21508789
vt 0.56640625 0.21508789
vt 0.7558594 0.23608398
vt 0.56640625 0.23608398
vt 0.56640625 0.23791504
vt 0.7558594 0.23791504
vt 0.7558594 0.25463867
vt 0.56640625 0.25463867
vt 0.56640625 0.23803711
vt 0.7558594 0.23803711
vt 0.56640625 0.23803711
vt 0.7558594 0.23803711
vt 0.7558594 0.21508789
vt 0.56640625 0.21508789
vt 0.7558594 0.23608398
vt 0.56640625 0.23608398
vt 0.56640625 0.23791504
vt 0.7558594 0.23791504
vt 0.7558594 0.25463867
vt 0.56640625 0.25463867
vt 0.56640625 0.23803711
vt 0.7558594 0.23803711
vt 0.56640625 0.23803711
vt 0.7558594 0.23803711
vt 0.7558594 0.21508789
vt 0.56640625 0.21508789
vt 0.7558594 0.23608398
vt 0.56640625 0.23608398
vt 0.56640625 0.23791504
vt 0.7558594 0.23791504
vt 0.7558594 0.25463867
vt 0.56640625 0.25463867
vt 0.56640625 0.23803711
vt 0.7558594 0.23803711
vt 0.56640625 0.23803711
vt 0.7558594 0.23803711
vt 0.7558594 0.21508789
vt 0.56640625 0.21508789
vt 0.7558594 0.23608398
vt 0.56640625 0.23608398
vt 0.56640625 0.23791504
vt 0.7558594 0.23791504
vt 0.7558594 0.25463867
vt 0.6010742 0.25463867
vt 0.6010742 0.23803711
vt 0.7558594 0.23803711
vt 0.56640625 0.23803711
vt 0.7211914 0.23803711
vt 0.7211914 0.21508789
vt 0.56640625 0.21508789
vt 0.7558594 0.23608398
vt 0.6010742 0.23608398
vt 0.6010742 0.23791504
vt 0.7558594 0.23791504
vn -0 0 1
vn -0 0 1
vn -0 0 1
vn -0 0 1
vn -0 -1 0.00024414062
vn -0 -1 0.00024414062
vn -0 -1 0.00024414062
vn -0 -1 0.00024414062
vn -0 1 0
vn -0 1 0
vn -0 1 0
vn -0 1 0
vn -0 0 1
vn -0 0 1
vn -0 0 1
vn -0 0 1
vn -0 -1 0.00024414062
vn -0 -1 0.00024414062
vn -0 -1 0.00024414062
vn -0 -1 0.00024414062
vn -0 1 0
vn -0 1 0
vn -0 1 0
vn -0 1 0
vn -0 0 1
vn -0 0 1
vn -0 0 1
vn -0 0 1
vn -0 -1 0.00024414062
vn -0 -1 0.00024414062
vn -0 -1 0.00024414062
vn -0 -1 0.00024414062
vn -0 1 0
vn -0 1 0
vn -0 1 0
vn -0 1 0
vn -0 0 1
vn -0 0 1
vn -0 0 1
vn -0 0 1
vn 8.34465E-07 -1 0.0001770258
vn 8.34465E-07 -1 0.0001770258
vn 8.34465E-07 -1 0.0001770258
vn 8.34465E-07 -1 0.0001770258
vn -0 1 0
vn -0 1 0
vn -0 1 0
vn -0 1 0
vn -0 0 1
vn -0 0 1
vn -0 0 1
vn -0 0 1
vn 1 -7.1525574E-06 0.00018310547
vn 1 -7.1525574E-06 0.00018310547
vn 1 -7.1525574E-06 0.00018310547
vn 1 -7.1525574E-06 0.00018310547
vn -1 6.4969063E-06 0
vn -1 6.4969063E-06 0
vn -1 6.4969063E-06 0
vn -1 6.4969063E-06 0
vn -0 0 1
vn -0 0 1
vn -0 0 1
vn -0 0 1
vn 1 0 0.00024414062
vn 1 0 0.00024414062
vn 1 0 0.00024414062
vn 1 0 0.00024414062
vn -1 0 0
vn -1 0 0
vn -1 0 0
vn -1 0 0
vn -0 0 1
vn -0 0 1
vn -0 0 1
vn -0 0 1
vn 1 0 0.00024414062
vn 1 0 0.00024414062
vn 1 0 0.00024414062
vn 1 0 0.00024414062
vn -1 0 0
vn -1 0 0
vn -1 0 0
vn -1 0 0
vn -0 0 1
vn -0 0 1
vn -0 0 1
vn -0 0 1
vn 1 0 0.00024414062
vn 1 0 0.00024414062
vn 1 0 0.00024414062
vn 1 0 0.00024414062
vn -1 0 0
vn -1 0 0
vn -1 0 0
vn -1 0 0
vn -0 0 1
vn -0 0 1
vn -0 0 1
vn -0 0 1
vn 1 0 0.00024414062
vn 1 0 0.00024414062
vn 1 0 0.00024414062
vn 1 0 0.00024414062
vn -1 0 0
vn -1 0 0
vn -1 0 0
vn -1 0 0
vn -0 0 1
vn -0 0 1
vn -0 0 1
vn -0 0 1
vn 1 0 0.00024414062
vn 1 0 0.00024414062
vn 1 0 0.00024414062
vn 1 0 0.00024414062
vn -1 0 0
vn -1 0 0
vn -1 0 0
vn -1 0 0
vn -0 0 1
vn -0 0 1
vn -0 0 1
vn -0 0 1
vn 1 0 0.00024414062
vn 1 0 0.00024414062
vn 1 0 0.00024414062
vn 1 0 0.00024414062
vn -1 0 0
vn -1 0 0
vn -1 0 0
vn -1 0 0
vn -0 0 1
vn -0 0 1
vn -0 0 1
vn -0 0 1
vn 1 0 0.00024414062
vn 1 0 0.00024414062
vn 1 0 0.00024414062
vn 1 0 0.00024414062
vn -1 0 0
vn -1 0 0
vn -1 0 0
vn -1 0 0
vn -0 0 1
vn -0 0 1
vn -0 0 1
vn -0 0 1
vn 1 0 0.00024414062
vn 1 0 0.00024414062
vn 1 0 0.00024414062
vn 1 0 0.00024414062
vn -1 0 0
vn -1 0 0
vn -1 0 0
vn -1 0 0
vn -0 0 1
vn -0 0 1
vn -0 0 1
vn -0 0 1
vn 1 0 0.00024414062
vn 1 0 0.00024414062
vn 1 0 0.00024414062
vn 1 0 0.00024414062
vn -1 0 0
vn -1 0 0
vn -1 0 0
vn -1 0 0
g Bg_Factory_STR_Base_Wall_07_0
f 3/3/3 2/2/2 1/1/1
f 4/4/4 3/3/3 1/1/1
f 7/7/7 6/6/6 5/5/5
f 8/8/8 7/7/7 5/5/5
f 11/11/11 10/10/10 9/9/9
f 12/12/12 11/11/11 9/9/9
f 15/15/15 14/14/14 13/13/13
f 16/16/16 15/15/15 13/13/13
f 19/19/19 18/18/18 17/17/17
f 20/20/20 19/19/19 17/17/17
f 23/23/23 22/22/22 21/21/21
f 24/24/24 23/23/23 21/21/21
f 27/27/27 26/26/26 25/25/25
f 28/28/28 27/27/27 25/25/25
f 31/31/31 30/30/30 29/29/29
f 32/32/32 31/31/31 29/29/29
f 35/35/35 34/34/34 33/33/33
f 36/36/36 35/35/35 33/33/33
f 39/39/39 38/38/38 37/37/37
f 40/40/40 39/39/39 37/37/37
f 43/43/43 42/42/42 41/41/41
f 44/44/44 43/43/43 41/41/41
f 47/47/47 46/46/46 45/45/45
f 48/48/48 47/47/47 45/45/45
f 51/51/51 50/50/50 49/49/49
f 52/52/52 51/51/51 49/49/49
f 55/55/55 54/54/54 53/53/53
f 56/56/56 55/55/55 53/53/53
f 59/59/59 58/58/58 57/57/57
f 60/60/60 59/59/59 57/57/57
f 63/63/63 62/62/62 61/61/61
f 64/64/64 63/63/63 61/61/61
f 67/67/67 66/66/66 65/65/65
f 68/68/68 67/67/67 65/65/65
f 71/71/71 70/70/70 69/69/69
f 72/72/72 71/71/71 69/69/69
f 75/75/75 74/74/74 73/73/73
f 76/76/76 75/75/75 73/73/73
f 79/79/79 78/78/78 77/77/77
f 80/80/80 79/79/79 77/77/77
f 83/83/83 82/82/82 81/81/81
f 84/84/84 83/83/83 81/81/81
f 87/87/87 86/86/86 85/85/85
f 88/88/88 87/87/87 85/85/85
f 91/91/91 90/90/90 89/89/89
f 92/92/92 91/91/91 89/89/89
f 95/95/95 94/94/94 93/93/93
f 96/96/96 95/95/95 93/93/93
f 99/99/99 98/98/98 97/97/97
f 100/100/100 99/99/99 97/97/97
f 103/103/103 102/102/102 101/101/101
f 104/104/104 103/103/103 101/101/101
f 107/107/107 106/106/106 105/105/105
f 108/108/108 107/107/107 105/105/105
f 111/111/111 110/110/110 109/109/109
f 112/112/112 111/111/111 109/109/109
f 115/115/115 114/114/114 113/113/113
f 116/116/116 115/115/115 113/113/113
f 119/119/119 118/118/118 117/117/117
f 120/120/120 119/119/119 117/117/117
f 123/123/123 122/122/122 121/121/121
f 124/124/124 123/123/123 121/121/121
f 127/127/127 126/126/126 125/125/125
f 128/128/128 127/127/127 125/125/125
f 131/131/131 130/130/130 129/129/129
f 132/132/132 131/131/131 129/129/129
f 135/135/135 134/134/134 133/133/133
f 136/136/136 135/135/135 133/133/133
f 139/139/139 138/138/138 137/137/137
f 140/140/140 139/139/139 137/137/137
f 143/143/143 142/142/142 141/141/141
f 144/144/144 143/143/143 141/141/141
f 147/147/147 146/146/146 145/145/145
f 148/148/148 147/147/147 145/145/145
f 151/151/151 150/150/150 149/149/149
f 152/152/152 151/151/151 149/149/149
f 155/155/155 154/154/154 153/153/153
f 156/156/156 155/155/155 153/153/153
f 159/159/159 158/158/158 157/157/157
f 160/160/160 159/159/159 157/157/157
f 163/163/163 162/162/162 161/161/161
f 164/164/164 163/163/163 161/161/161
f 167/167/167 166/166/166 165/165/165
f 168/168/168 167/167/167 165/165/165
