g Factory_ConcreateWall_Dust
v 0.6871289 6.590693 -4.1000004
v 0.6871289 -0.008583984 -4.1000004
v 0.6871289 -0.008583984 1.0999993
v 0.6871289 6.590693 1.0999993
v 0.6871289 -0.008583984 1.0999993
v -0.3128711 -0.008603515 4.1000004
v -0.3128711 6.5906734 4.1000004
v 0.6871289 6.590693 1.0999993
v 0.6871289 13.18997 -4.1000004
v 0.6871289 6.590693 -4.1000004
v 0.6871289 6.590693 1.0999993
v 0.6871289 13.18997 1.0999993
v 0.6871289 6.590693 1.0999993
v -0.3128711 6.5906734 4.1000004
v -0.3128711 13.189951 4.1000004
v 0.6871289 13.18997 1.0999993
v 0.6871289 19.789248 -4.1000004
v 0.6871289 13.18997 -4.1000004
v 0.6871289 13.18997 1.0999993
v 0.6871289 19.789248 1.0999993
v 0.6871289 13.18997 1.0999993
v -0.3128711 13.189951 4.1000004
v -0.3128711 19.789223 4.1000004
v 0.6871289 19.789248 1.0999993
v 0.6871191 26.388525 -4.1000004
v 0.6871289 19.789248 -4.1000004
v 0.6871289 19.789248 1.0999993
v 0.6871191 26.388525 1.0999993
v 0.6871289 19.789248 1.0999993
v -0.3128711 19.789223 4.1000004
v -0.31288084 26.388525 4.1000004
v 0.6871191 26.388525 1.0999993
v 0.6871289 -0.008583984 -4.1000004
v 0.6871191 -0.6114746 -4.1000004
v 0.6871191 -0.6114746 1.0999993
v 0.6871289 -0.008583984 1.0999993
v 0.6871191 -0.6114746 1.0999993
v -0.31288084 -1.6114794 4.1000004
v -0.3128711 -0.008603515 4.1000004
v 0.6871289 -0.008583984 1.0999993
v 0.6871191 -0.6114746 -4.1000004
v 5.087119 -0.61147946 -4.1000004
v 5.087119 -0.61147946 1.0999993
v 0.6871191 -0.6114746 1.0999993
v 5.087119 -0.61147946 1.0999993
v 4.0871286 -1.6114794 4.1000004
v -0.31288084 -1.6114794 4.1000004
v 0.6871191 -0.6114746 1.0999993
v 5.087119 -2.012168 -4.1000004
v 5.087119 -7.6114745 -4.1000004
v 5.087119 -7.6114745 1.0999993
v 5.087119 -2.012168 1.0999993
v 5.087119 -7.6114745 1.0999993
v 4.087119 -8.611485 4.1000004
v 4.087119 -2.0121875 4.1000004
v 5.087119 -2.012168 1.0999993
v 5.087119 -0.61147946 -4.1000004
v 5.087119 -2.012168 -4.1000004
v 5.087119 -2.012168 1.0999993
v 5.087119 -0.61147946 1.0999993
v 5.087119 -2.012168 1.0999993
v 4.087119 -2.0121875 4.1000004
v 4.0871286 -1.6114794 4.1000004
v 5.087119 -0.61147946 1.0999993
v -11.61289 26.388529 -4.1000004
v -5.013613 26.388529 -4.1000004
v -5.013613 26.388529 1.0999993
v -11.61289 26.388529 1.0999993
v -11.612871 26.388529 4.1000004
v -5.0135937 26.388529 4.1000004
v -5.013613 26.388529 -4.1000004
v 0.6871191 26.388525 -4.1000004
v 0.6871191 26.388525 1.0999993
v -5.013613 26.388529 1.0999993
v -5.0135937 26.388529 4.1000004
v -0.31288084 26.388525 4.1000004
v 5.2870994 -7.6114745 1.0999993
v 5.287119 -8.611474 4.1000004
v 4.0871286 -8.611474 4.1000004
v 5.087119 -7.6114745 1.0999993
v -4.8128805 26.38852 -4.0999985
v -4.8128805 26.38852 1.1999999
v -4.8128805 32.26352 1.1999999
v -4.8128805 32.26352 -4.0999985
v -4.8128805 38.138523 -4.0999985
v -4.8128805 32.26352 -4.0999985
v -4.8128805 32.26352 1.1999999
v -4.8128805 38.138523 1.1999999
v -4.8128805 41.588516 -4.0999985
v -4.8128805 38.138523 -4.0999985
v -4.8128805 38.138523 1.1999999
v -4.8128805 41.588516 1.1999999
v -10.6878805 41.588516 -4.0999985
v -4.8128805 41.588516 -4.0999985
v -4.8128805 41.588516 1.1999999
v -10.6878805 41.588516 1.1999999
v -16.562891 41.588516 -4.0999985
v -10.6878805 41.588516 -4.0999985
v -10.6878805 41.588516 1.1999999
v -16.562891 41.588516 1.1999999
v -22.437895 41.588516 -4.0999985
v -16.562891 41.588516 -4.0999985
v -16.562891 41.588516 1.1999999
v -22.437895 41.588516 1.1999999
v -28.3129 41.588505 -4.0999985
v -22.437895 41.588516 -4.0999985
v -22.437895 41.588516 1.1999999
v -28.3129 41.588505 1.1999999
v -34.187904 41.588505 -4.0999985
v -28.3129 41.588505 -4.0999985
v -28.3129 41.588505 1.1999999
v -34.187904 41.588505 1.1999999
v -40.062904 41.588505 -4.0999985
v -34.187904 41.588505 -4.0999985
v -34.187904 41.588505 1.1999999
v -40.062904 41.588505 1.1999999
v -45.062885 41.588516 -4.099998
v -40.062904 41.588505 -4.0999985
v -40.062904 41.588505 1.1999999
v -45.06288 41.588505 1.1999999
v -51.537884 41.588516 -4.099998
v -45.062885 41.588516 -4.099998
v -45.06289 41.588516 3.1
v -51.537884 41.588516 3.1
v -58.01288 41.588516 -4.099998
v -51.537884 41.588516 -4.099998
v -51.537884 41.588516 3.1
v -58.01288 41.588516 3.1
v -63.88787 41.588505 -4.099998
v -58.01288 41.588516 -4.099998
v -58.01287 41.588505 4.0999994
v -63.88787 41.588505 4.0999994
v -69.76287 41.588505 -4.099998
v -63.88787 41.588505 -4.099998
v -63.88787 41.588505 4.0999994
v -69.76287 41.588505 4.0999994
v -75.63787 41.588505 -4.099998
v -69.76287 41.588505 -4.099998
v -69.76287 41.588505 4.0999994
v -75.63787 41.588505 4.0999994
v -81.51288 41.588505 -4.099998
v -75.63787 41.588505 -4.099998
v -75.63787 41.588505 4.0999994
v -81.51288 41.588505 4.0999994
v -87.31288 41.588505 -4.099998
v -81.51288 41.588505 -4.099998
v -81.51288 41.588505 4.0999994
v -87.31288 41.588505 4.0999994
vt 0.49682617 0.1116333
vt 0.009376526 0.1116333
vt 0.009376526 0.7524414
vt 0.49682617 0.7524414
vt 0.009376526 0.7524414
vt 0.009376526 0.99609375
vt 0.49682617 0.99658203
vt 0.49682617 0.7524414
vt 0.49682617 0.1116333
vt 0.009376526 0.1116333
vt 0.009376526 0.7524414
vt 0.49682617 0.7524414
vt 0.009376526 0.7524414
vt 0.009376526 0.99609375
vt 0.49682617 0.99658203
vt 0.49682617 0.7524414
vt 0.49682617 0.1116333
vt 0.009376526 0.1116333
vt 0.009376526 0.7524414
vt 0.49682617 0.7524414
vt 0.009376526 0.7524414
vt 0.009376526 0.99609375
vt 0.49682617 0.99658203
vt 0.49682617 0.7524414
vt 0.49682617 0.1116333
vt 0.009376526 0.1116333
vt 0.009376526 0.7524414
vt 0.49682617 0.7524414
vt 0.009376526 0.7524414
vt 0.009376526 0.99609375
vt 0.49682617 0.99658203
vt 0.49682617 0.7524414
vt 0.49682617 0.1116333
vt 0.45214844 0.1116333
vt 0.45214844 0.7524414
vt 0.49682617 0.7524414
vt 0.45214844 0.7524414
vt 0.37841797 0.99609375
vt 0.49682617 0.99658203
vt 0.49682617 0.7524414
vt 0.33422852 0.1116333
vt 0.009376526 0.1116333
vt 0.009376526 0.7524414
vt 0.33422852 0.7524414
vt 0.009376526 0.7524414
vt 0.08325195 0.99609375
vt 0.40820312 0.99609375
vt 0.33422852 0.7524414
vt 0.49682617 0.1116333
vt 0.08325195 0.1116333
vt 0.08325195 0.7524414
vt 0.49682617 0.7524414
vt 0.08325195 0.7524414
vt 0.009376526 0.99609375
vt 0.49682617 0.99658203
vt 0.49682617 0.7524414
vt 0.112854004 0.1116333
vt 0.009376526 0.1116333
vt 0.009376526 0.7524414
vt 0.112854004 0.7524414
vt 0.009376526 0.7524414
vt 0.009376526 0.99609375
vt 0.038970947 0.99609375
vt 0.112854004 0.7524414
vt 0.49682617 0.1116333
vt 0.009376526 0.1116333
vt 0.009376526 0.7524414
vt 0.49682617 0.7524414
vt 0.49682617 0.99658203
vt 0.009376526 0.99609375
vt 0.49682617 0.1116333
vt 0.07574463 0.1116333
vt 0.07574463 0.7524414
vt 0.49682617 0.7524414
vt 0.49682617 0.99658203
vt 0.1496582 0.99609375
vt 0.009376526 0.7524414
vt 0.009376526 0.99609375
vt 0.09802246 0.99609375
vt 0.024154663 0.7524414
vt 0.000834465 0.44140625
vt 0.000834465 0.9951172
vt 0.49902344 0.9951172
vt 0.49902344 0.44140625
vt 0.49902344 0.44140625
vt 0.000834465 0.44140625
vt 0.000834465 0.9951172
vt 0.49902344 0.9951172
vt 0.29345703 0.44140625
vt 0.000834465 0.44140625
vt 0.000834465 0.9951172
vt 0.29345703 0.9951172
vt 0.49902344 0.44140625
vt 0.000834465 0.44140625
vt 0.000834465 0.9951172
vt 0.49902344 0.9951172
vt 0.49902344 0.44140625
vt 0.000834465 0.44140625
vt 0.000834465 0.9951172
vt 0.49902344 0.9951172
vt 0.49902344 0.44140625
vt 0.000834465 0.44140625
vt 0.000834465 0.9951172
vt 0.49902344 0.9951172
vt 0.49902344 0.44140625
vt 0.000834465 0.44140625
vt 0.000834465 0.9951172
vt 0.49902344 0.9951172
vt 0.49902344 0.44140625
vt 0.000834465 0.44140625
vt 0.000834465 0.9951172
vt 0.49902344 0.9951172
vt 0.49902344 0.44140625
vt 0.000834465 0.44140625
vt 0.000834465 0.9951172
vt 0.49902344 0.9951172
vt 0.4248047 0.44140625
vt 0.000834465 0.44140625
vt 0.000834465 0.9951172
vt 0.4248047 0.9951172
vt 0.49902344 0.24291992
vt 0.000834465 0.24291992
vt 0.000834465 0.9951172
vt 0.49902344 0.9951172
vt 0.49902344 0.24291992
vt 0.000834465 0.24291992
vt 0.000834465 0.9951172
vt 0.49902344 0.9951172
vt 0.49902344 0.1385498
vt 0.000834465 0.1385498
vt 0.000834465 0.9951172
vt 0.49902344 0.9951172
vt 0.49902344 0.1385498
vt 0.000834465 0.1385498
vt 0.000834465 0.9951172
vt 0.49902344 0.9951172
vt 0.49902344 0.1385498
vt 0.000834465 0.1385498
vt 0.000834465 0.9951172
vt 0.49902344 0.9951172
vt 0.49902344 0.1385498
vt 0.000834465 0.1385498
vt 0.000834465 0.9951172
vt 0.49902344 0.9951172
vt 0.49902344 0.1385498
vt 0.000834465 0.1385498
vt 0.000834465 0.9951172
vt 0.49902344 0.9951172
vn 1 0 0
vn 1 0 0
vn 1 0 0
vn 1 0 0
vn 0.94873047 0 0.3161621
vn 0.94873047 0 0.3161621
vn 0.94873047 0 0.3161621
vn 0.94873047 0 0.3161621
vn 1 0 0
vn 1 0 0
vn 1 0 0
vn 1 0 0
vn 0.94873047 0 0.3161621
vn 0.94873047 0 0.3161621
vn 0.94873047 0 0.3161621
vn 0.94873047 0 0.3161621
vn 1 0 0
vn 1 0 0
vn 1 0 0
vn 1 0 0
vn 0.94873047 0 0.3161621
vn 0.94873047 0 0.3161621
vn 0.94873047 0 0.3161621
vn 0.94873047 0 0.3161621
vn 1 1.4901161E-06 0
vn 1 1.4901161E-06 0
vn 1 1.4901161E-06 0
vn 1 1.4901161E-06 0
vn 0.94873047 1.4305115E-06 0.3161621
vn 0.94873047 1.4305115E-06 0.3161621
vn 0.94873047 1.4305115E-06 0.3161621
vn 0.94873047 1.4305115E-06 0.3161621
vn 1 -1.6212463E-05 0
vn 1 -1.6212463E-05 0
vn 1 -1.6212463E-05 0
vn 1 -1.6212463E-05 0
vn 0.94873047 -8.404255E-06 0.3161621
vn 0.94873047 -8.404255E-06 0.3161621
vn 0.94873047 -8.404255E-06 0.3161621
vn 0.94873047 -8.404255E-06 0.3161621
vn 1.1324883E-06 1 0
vn 1.1324883E-06 1 0
vn 1.1324883E-06 1 0
vn 1.1324883E-06 1 0
vn 5.364418E-07 0.94873047 0.3161621
vn 5.364418E-07 0.94873047 0.3161621
vn 5.364418E-07 0.94873047 0.3161621
vn 5.364418E-07 0.94873047 0.3161621
vn 1 0 0
vn 1 0 0
vn 1 0 0
vn 1 0 0
vn 0.94873047 0 0.3161621
vn 0.94873047 0 0.3161621
vn 0.94873047 0 0.3161621
vn 0.94873047 0 0.3161621
vn 1 0 0
vn 1 0 0
vn 1 0 0
vn 1 0 0
vn 0.94873047 -5.1259995E-06 0.3161621
vn 0.94873047 -5.1259995E-06 0.3161621
vn 0.94873047 -5.1259995E-06 0.3161621
vn 0.94873047 -5.1259995E-06 0.3161621
vn -0 1 0
vn -0 1 0
vn -0 1 0
vn -0 1 0
vn -0 1 0
vn -0 1 0
vn 8.34465E-07 1 0
vn 8.34465E-07 1 0
vn 8.34465E-07 1 0
vn 8.34465E-07 1 0
vn 9.536743E-07 1 1.7881393E-07
vn 9.536743E-07 1 1.7881393E-07
vn -0 0.94873047 0.3161621
vn -0 0.94873047 0.3161621
vn -0 0.94873047 0.3161621
vn -0 0.94873047 0.3161621
vn 1 0 0
vn 1 0 0
vn 1 0 0
vn 1 0 0
vn 1 0 0
vn 1 0 0
vn 1 0 0
vn 1 0 0
vn 1 0 0
vn 1 0 0
vn 1 0 0
vn 1 0 0
vn -0 1 0
vn -0 1 0
vn -0 1 0
vn -0 1 0
vn -0 1 0
vn -0 1 0
vn -0 1 0
vn -0 1 0
vn -0 1 0
vn -0 1 0
vn -0 1 0
vn -0 1 0
vn -1.66893E-06 1 0
vn -1.66893E-06 1 0
vn -1.66893E-06 1 0
vn -1.66893E-06 1 0
vn -0 1 0
vn -0 1 0
vn -0 1 0
vn -0 1 0
vn -0 1 0
vn -0 1 0
vn -0 1 0
vn -0 1 0
vn 9.536743E-07 1 8.940697E-07
vn 9.536743E-07 1 8.940697E-07
vn 9.536743E-07 1 8.940697E-07
vn 9.536743E-07 1 8.940697E-07
vn -0 1 0
vn -0 1 0
vn -0 1 0
vn -0 1 0
vn -0 1 0
vn -0 1 0
vn -0 1 0
vn -0 1 0
vn -8.34465E-07 1 5.9604645E-07
vn -8.34465E-07 1 5.9604645E-07
vn -8.34465E-07 1 5.9604645E-07
vn -8.34465E-07 1 5.9604645E-07
vn -0 1 0
vn -0 1 0
vn -0 1 0
vn -0 1 0
vn -0 1 0
vn -0 1 0
vn -0 1 0
vn -0 1 0
vn -0 1 0
vn -0 1 0
vn -0 1 0
vn -0 1 0
vn -0 1 0
vn -0 1 0
vn -0 1 0
vn -0 1 0
g Factory_ConcreateWall_Dust_0
f 3/3/3 2/2/2 1/1/1
f 4/4/4 3/3/3 1/1/1
f 7/7/7 6/6/6 5/5/5
f 8/8/8 7/7/7 5/5/5
f 11/11/11 10/10/10 9/9/9
f 12/12/12 11/11/11 9/9/9
f 15/15/15 14/14/14 13/13/13
f 16/16/16 15/15/15 13/13/13
f 19/19/19 18/18/18 17/17/17
f 20/20/20 19/19/19 17/17/17
f 23/23/23 22/22/22 21/21/21
f 24/24/24 23/23/23 21/21/21
f 27/27/27 26/26/26 25/25/25
f 28/28/28 27/27/27 25/25/25
f 31/31/31 30/30/30 29/29/29
f 32/32/32 31/31/31 29/29/29
f 35/35/35 34/34/34 33/33/33
f 36/36/36 35/35/35 33/33/33
f 39/39/39 38/38/38 37/37/37
f 40/40/40 39/39/39 37/37/37
f 43/43/43 42/42/42 41/41/41
f 44/44/44 43/43/43 41/41/41
f 47/47/47 46/46/46 45/45/45
f 48/48/48 47/47/47 45/45/45
f 51/51/51 50/50/50 49/49/49
f 52/52/52 51/51/51 49/49/49
f 55/55/55 54/54/54 53/53/53
f 56/56/56 55/55/55 53/53/53
f 59/59/59 58/58/58 57/57/57
f 60/60/60 59/59/59 57/57/57
f 63/63/63 62/62/62 61/61/61
f 64/64/64 63/63/63 61/61/61
f 67/67/67 66/66/66 65/65/65
f 68/68/68 67/67/67 65/65/65
f 68/68/68 69/69/69 67/67/67
f 69/69/69 70/70/70 67/67/67
f 73/73/73 72/72/72 71/71/71
f 74/74/74 73/73/73 71/71/71
f 74/74/74 75/75/75 73/73/73
f 75/75/75 76/76/76 73/73/73
f 79/79/79 78/78/78 77/77/77
f 80/80/80 79/79/79 77/77/77
f 83/83/83 82/82/82 81/81/81
f 84/84/84 83/83/83 81/81/81
f 87/87/87 86/86/86 85/85/85
f 88/88/88 87/87/87 85/85/85
f 91/91/91 90/90/90 89/89/89
f 92/92/92 91/91/91 89/89/89
f 95/95/95 94/94/94 93/93/93
f 96/96/96 95/95/95 93/93/93
f 99/99/99 98/98/98 97/97/97
f 100/100/100 99/99/99 97/97/97
f 103/103/103 102/102/102 101/101/101
f 104/104/104 103/103/103 101/101/101
f 107/107/107 106/106/106 105/105/105
f 108/108/108 107/107/107 105/105/105
f 111/111/111 110/110/110 109/109/109
f 112/112/112 111/111/111 109/109/109
f 115/115/115 114/114/114 113/113/113
f 116/116/116 115/115/115 113/113/113
f 119/119/119 118/118/118 117/117/117
f 120/120/120 119/119/119 117/117/117
f 123/123/123 122/122/122 121/121/121
f 124/124/124 123/123/123 121/121/121
f 127/127/127 126/126/126 125/125/125
f 128/128/128 127/127/127 125/125/125
f 131/131/131 130/130/130 129/129/129
f 132/132/132 131/131/131 129/129/129
f 135/135/135 134/134/134 133/133/133
f 136/136/136 135/135/135 133/133/133
f 139/139/139 138/138/138 137/137/137
f 140/140/140 139/139/139 137/137/137
f 143/143/143 142/142/142 141/141/141
f 144/144/144 143/143/143 141/141/141
f 147/147/147 146/146/146 145/145/145
f 148/148/148 147/147/147 145/145/145
