g Hotel_STR_Wall_01_anchor
v 2.8978589 0.5984692 -0.44999993
v 2.8978589 -0.0015307617 -0.44999993
v 2.8978589 -0.0015307617 -0.9499999
v 2.8978589 0.5984692 -0.9499999
v 3.4978588 0.5984692 -0.9499999
v 3.4978588 -0.0015307617 -0.9499999
v 3.4978588 -0.0015307617 -0.44999993
v 3.4978588 0.5984692 -0.44999993
v 3.4978588 -0.0015307617 -0.44999993
v 2.8978589 -0.0015307617 -0.44999993
v 2.8978589 0.5984692 -0.44999993
v 3.4978588 0.5984692 -0.44999993
v 2.8978589 0.5984692 -0.44999993
v 2.8978589 0.5984692 -0.9499999
v 3.4978588 0.5984692 -0.9499999
v 3.4978588 0.5984692 -0.44999993
v 3.4978588 -0.0015307617 -0.44999993
v 3.4978588 -0.0015307617 -0.9499999
v 2.8978589 -0.0015307617 -0.9499999
v 2.8978589 -0.0015307617 -0.44999993
v 3.4978588 0.5984692 -0.9499999
v 2.8978589 0.5984692 -0.9499999
v 2.8978589 -0.0015307617 -0.9499999
v 3.4978588 -0.0015307617 -0.9499999
vt 0 0
vt 0 0
vt 0 0
vt 0 0
vt 0 0
vt 0 0
vt 0 0
vt 0 0
vt 0 0
vt 0 0
vt 0 0
vt 0 0
vt 0 0
vt 0 0
vt 0 0
vt 0 0
vt 0 0
vt 0 0
vt 0 0
vt 0 0
vt 0 0
vt 0 0
vt 0 0
vt 0 0
vn -1 0 0
vn -1 0 0
vn -1 0 0
vn -1 0 0
vn 1 0 0
vn 1 0 0
vn 1 0 0
vn 1 0 0
vn -0 0 1
vn -0 0 1
vn -0 0 1
vn -0 0 1
vn -0 1 0
vn -0 1 0
vn -0 1 0
vn -0 1 0
vn -0 -1 0
vn -0 -1 0
vn -0 -1 0
vn -0 -1 0
vn -0 0 -1
vn -0 0 -1
vn -0 0 -1
vn -0 0 -1
g Hotel_STR_Wall_01_anchor_0
f 3/3/3 2/2/2 1/1/1
f 4/4/4 3/3/3 1/1/1
f 7/7/7 6/6/6 5/5/5
f 8/8/8 7/7/7 5/5/5
f 11/11/11 10/10/10 9/9/9
f 12/12/12 11/11/11 9/9/9
f 15/15/15 14/14/14 13/13/13
f 16/16/16 15/15/15 13/13/13
f 19/19/19 18/18/18 17/17/17
f 20/20/20 19/19/19 17/17/17
f 23/23/23 22/22/22 21/21/21
f 24/24/24 23/23/23 21/21/21
