g Hotel_OBJ_Sofa_01
v 0.007926406 1.1091033 0.22761278
v 0.0079264445 6.1035155E-07 0.22761278
v 0.021868285 6.1035155E-07 0.25297818
v 0.021868285 1.1091033 0.25297818
v 0.021868285 1.1091033 0.32295635
v 0.021868324 6.1035155E-07 0.32295635
v 0.011763 1.1091033 0.414882
v 0.011763 6.1035155E-07 0.41488203
v -0.018552665 1.1091033 0.47003737
v -0.018552665 6.1035155E-07 0.4700374
v -0.0690789 1.1091033 0.48842254
v -0.0690789 6.1035155E-07 0.48842254
v -0.9523346 1.1091033 0.48842254
v -0.9523346 6.1035155E-07 0.48842254
v -0.98428845 1.1071564 0.7479424
v -0.98428845 1.2543174 0.7479424
v -0.064228244 1.2543174 0.7479424
v -0.064228244 1.1071564 0.7479424
v 0.065587156 1.0978839 0.53027
v 0.065587156 1.0978839 0.004684391
v -0.98428845 1.0978839 0.00468441
v -0.98428845 1.0978839 0.7310723
v 0.051108893 1.0978839 0.6267115
v 0.008471374 1.0978839 0.7042848
v -0.06514641 1.0978839 0.7310723
v 0.07485969 1.1071564 0.004684391
v 0.07485969 1.2543174 0.53253245
v 0.07485969 1.2543174 0.004684391
v 0.07485969 1.1071564 0.53253245
v 0.05940544 1.1071564 0.635475
v 0.05940544 1.2543174 0.635475
v 0.013042831 1.1071564 0.71982557
v 0.013042831 1.2543174 0.71982557
v -0.064228244 1.1071564 0.7479424
v -0.064228244 1.2543174 0.7479424
v -0.98428845 1.2635899 0.00468441
v 0.065587156 1.2635899 0.004684391
v 0.065587156 1.2635899 0.53027
v -0.98428845 1.2635899 0.7310723
v 0.051108893 1.2635899 0.6267115
v 0.008471374 1.2635899 0.7042848
v -0.06514641 1.2635899 0.7310723
v -0.98428845 1.1071564 0.7479424
v -0.98428845 1.0978839 0.7310723
v -0.98428845 1.0978839 0.00468441
v -0.98428845 1.2635899 0.00468441
v -0.98428845 1.2543174 0.7479424
v -0.98428845 1.2635899 0.7310723
v -0.98428845 1.1071564 0.7479424
v -0.06514641 1.0978839 0.7310723
v -0.98428845 1.0978839 0.7310723
v -0.064228244 1.1071564 0.7479424
v 0.008471374 1.0978839 0.7042848
v 0.013042831 1.1071564 0.71982557
v 0.051108893 1.0978839 0.6267115
v 0.05940544 1.1071564 0.635475
v 0.065587156 1.0978839 0.53027
v 0.07485969 1.1071564 0.53253245
v 0.065587156 1.0978839 0.004684391
v 0.07485969 1.1071564 0.004684391
v -0.064228244 1.2543174 0.7479424
v -0.98428845 1.2543174 0.7479424
v -0.98428845 1.2635899 0.7310723
v -0.06514641 1.2635899 0.7310723
v 0.013042831 1.2543174 0.71982557
v 0.008471374 1.2635899 0.7042848
v 0.05940544 1.2543174 0.635475
v 0.051108893 1.2635899 0.6267115
v 0.07485969 1.2543174 0.53253245
v 0.065587156 1.2635899 0.53027
v 0.07485969 1.2543174 0.004684391
v 0.065587156 1.2635899 0.004684391
v -0.9760609 1.1113919 0.77616554
v -0.9760609 1.2500819 0.77616554
v -0.07328224 1.2500819 0.7761658
v -0.07328224 1.1113919 0.7761658
v -0.06864597 1.1067557 0.7677307
v -0.06864597 1.1067557 0.7475708
v -0.98069715 1.1067557 0.7475707
v -0.98069715 1.1067557 0.7677305
v -0.06864597 1.2547182 0.7677307
v -0.06864597 1.2547182 0.7475708
v -0.06864597 1.1067557 0.7475708
v -0.06864597 1.1067557 0.7677307
v -0.98069715 1.2547182 0.7677305
v -0.98069715 1.2547182 0.7475707
v -0.06864597 1.2547182 0.7475708
v -0.06864597 1.2547182 0.7677307
v -0.98069715 1.1067557 0.7677305
v -0.98069715 1.1067557 0.7475707
v -0.98069715 1.2547182 0.7475707
v -0.98069715 1.2547182 0.7677305
v -0.9760609 1.1113919 0.77616554
v -0.07328224 1.1113919 0.7761658
v -0.06864597 1.1067557 0.7677307
v -0.98069715 1.1067557 0.7677305
v -0.07328224 1.1113919 0.7761658
v -0.07328224 1.2500819 0.7761658
v -0.06864597 1.2547182 0.7677307
v -0.06864597 1.1067557 0.7677307
v -0.07328224 1.2500819 0.7761658
v -0.9760609 1.2500819 0.77616554
v -0.98069715 1.2547182 0.7677305
v -0.06864597 1.2547182 0.7677307
v -0.9760609 1.2500819 0.77616554
v -0.9760609 1.1113919 0.77616554
v -0.98069715 1.1067557 0.7677305
v -0.98069715 1.2547182 0.7677305
v 5.340576E-07 6.1035155E-07 0
v 4.959106E-07 6.1035155E-07 0.22761285
v 4.959106E-07 1.1091033 0.22761285
v 4.959106E-07 1.1091033 0
v 0.007926406 -1.1091021 0.22761278
v 0.021868285 6.1035155E-07 0.25297818
v 0.0079264445 6.1035155E-07 0.22761278
v 0.021868285 -1.1091021 0.25297818
v 0.021868285 -1.1091021 0.32295635
v 0.021868324 6.1035155E-07 0.32295635
v 0.011763 -1.1091021 0.414882
v 0.011763 6.1035155E-07 0.41488203
v -0.018552665 -1.1091021 0.47003737
v -0.018552665 6.1035155E-07 0.4700374
v -0.0690789 -1.1091021 0.48842254
v -0.0690789 6.1035155E-07 0.48842254
v -0.9523346 -1.1091021 0.48842254
v -0.9523346 6.1035155E-07 0.48842254
v -0.98428845 -1.1071551 0.7479424
v -0.064228244 -1.1071551 0.7479424
v -0.064228244 -1.2543161 0.7479424
v -0.98428845 -1.2543161 0.7479424
v -0.98428845 -1.0978826 0.00468441
v 0.065587156 -1.0978826 0.004684391
v 0.065587156 -1.0978826 0.53027
v -0.98428845 -1.0978826 0.7310723
v 0.051108893 -1.0978826 0.6267115
v 0.008471374 -1.0978826 0.7042848
v -0.06514641 -1.0978826 0.7310723
v 0.07485969 -1.1071551 0.004684391
v 0.07485969 -1.2543161 0.004684391
v 0.07485969 -1.2543161 0.53253245
v 0.07485969 -1.1071551 0.53253245
v 0.05940544 -1.1071551 0.635475
v 0.05940544 -1.2543161 0.635475
v 0.013042831 -1.1071551 0.71982557
v 0.013042831 -1.2543161 0.71982557
v -0.064228244 -1.1071551 0.7479424
v -0.064228244 -1.2543161 0.7479424
v 0.065587156 -1.2635887 0.53027
v 0.065587156 -1.2635887 0.004684391
v -0.98428845 -1.2635887 0.00468441
v -0.98428845 -1.2635887 0.7310723
v 0.051108893 -1.2635887 0.6267115
v 0.008471374 -1.2635887 0.7042848
v -0.06514641 -1.2635887 0.7310723
v -0.98428845 -1.2543161 0.7479424
v -0.98428845 -1.2635887 0.7310723
v -0.98428845 -1.2635887 0.00468441
v -0.98428845 -1.0978826 0.00468441
v -0.98428845 -1.1071551 0.7479424
v -0.98428845 -1.0978826 0.7310723
v -0.98428845 -1.1071551 0.7479424
v -0.98428845 -1.0978826 0.7310723
v -0.06514641 -1.0978826 0.7310723
v -0.064228244 -1.1071551 0.7479424
v 0.008471374 -1.0978826 0.7042848
v 0.013042831 -1.1071551 0.71982557
v 0.051108893 -1.0978826 0.6267115
v 0.05940544 -1.1071551 0.635475
v 0.065587156 -1.0978826 0.53027
v 0.07485969 -1.1071551 0.53253245
v 0.065587156 -1.0978826 0.004684391
v 0.07485969 -1.1071551 0.004684391
v -0.064228244 -1.2543161 0.7479424
v -0.98428845 -1.2635887 0.7310723
v -0.98428845 -1.2543161 0.7479424
v -0.06514641 -1.2635887 0.7310723
v 0.013042831 -1.2543161 0.71982557
v 0.008471374 -1.2635887 0.7042848
v 0.05940544 -1.2543161 0.635475
v 0.051108893 -1.2635887 0.6267115
v 0.07485969 -1.2543161 0.53253245
v 0.065587156 -1.2635887 0.53027
v 0.07485969 -1.2543161 0.004684391
v 0.065587156 -1.2635887 0.004684391
v -0.9760609 -1.1113907 0.77616554
v -0.07328224 -1.1113907 0.7761658
v -0.07328224 -1.2500807 0.7761658
v -0.9760609 -1.2500807 0.77616554
v -0.06864597 -1.1067544 0.7677307
v -0.98069715 -1.1067544 0.7677305
v -0.98069715 -1.1067544 0.7475707
v -0.06864597 -1.1067544 0.7475708
v -0.06864597 -1.2547169 0.7677307
v -0.06864597 -1.1067544 0.7677307
v -0.06864597 -1.1067544 0.7475708
v -0.06864597 -1.2547169 0.7475708
v -0.98069715 -1.2547169 0.7677305
v -0.06864597 -1.2547169 0.7677307
v -0.06864597 -1.2547169 0.7475708
v -0.98069715 -1.2547169 0.7475707
v -0.98069715 -1.1067544 0.7677305
v -0.98069715 -1.2547169 0.7677305
v -0.98069715 -1.2547169 0.7475707
v -0.98069715 -1.1067544 0.7475707
v -0.9760609 -1.1113907 0.77616554
v -0.98069715 -1.1067544 0.7677305
v -0.06864597 -1.1067544 0.7677307
v -0.07328224 -1.1113907 0.7761658
v -0.07328224 -1.1113907 0.7761658
v -0.06864597 -1.1067544 0.7677307
v -0.06864597 -1.2547169 0.7677307
v -0.07328224 -1.2500807 0.7761658
v -0.07328224 -1.2500807 0.7761658
v -0.06864597 -1.2547169 0.7677307
v -0.98069715 -1.2547169 0.7677305
v -0.9760609 -1.2500807 0.77616554
v -0.9760609 -1.2500807 0.77616554
v -0.98069715 -1.2547169 0.7677305
v -0.98069715 -1.1067544 0.7677305
v -0.9760609 -1.1113907 0.77616554
v 5.340576E-07 6.1035155E-07 0
v 4.959106E-07 -1.1091021 0
v 4.959106E-07 -1.1091021 0.22761285
v 4.959106E-07 6.1035155E-07 0.22761285
vt 0.13232422 0.5473633
vt 0.0049476624 0.5473633
vt 0.0049476624 0.5498047
vt 0.13232422 0.5498047
vt 0.13232422 0.5541992
vt 0.0049476624 0.5541992
vt 0.13232422 0.5600586
vt 0.0049476624 0.5600586
vt 0.13232422 0.5649414
vt 0.0049476624 0.5649414
vt 0.13232422 0.5708008
vt 0.0049476624 0.5708008
vt 0.13232422 0.6723633
vt 0.0049476624 0.6723633
vt 0.19311523 0.67285156
vt 0.20812988 0.67285156
vt 0.20812988 0.57910156
vt 0.19311523 0.57910156
vt 0.1505127 0.52978516
vt 0.18981934 0.52978516
vt 0.18981934 0.6723633
vt 0.13549805 0.6723633
vt 0.14331055 0.5317383
vt 0.13745117 0.53759766
vt 0.13549805 0.5473633
vt 0.19311523 0.5292969
vt 0.20812988 0.55908203
vt 0.20812988 0.5292969
vt 0.19311523 0.55908203
vt 0.19311523 0.5649414
vt 0.20800781 0.5649414
vt 0.19311523 0.57128906
vt 0.20800781 0.57128906
vt 0.19311523 0.57910156
vt 0.20812988 0.57910156
vt 0.18981934 0.6723633
vt 0.18981934 0.52978516
vt 0.1505127 0.52978516
vt 0.13549805 0.6723633
vt 0.14331055 0.5317383
vt 0.13745117 0.53759766
vt 0.13549805 0.5473633
vt 0.15014648 1.1396484
vt 0.14904785 1.1386719
vt 0.14904785 1.1025391
vt 0.1685791 1.1025391
vt 0.16748047 1.1396484
vt 0.1685791 1.1386719
vt 0.19311523 0.67285156
vt 0.19177246 0.57910156
vt 0.19177246 0.67285156
vt 0.19311523 0.57910156
vt 0.19177246 0.57128906
vt 0.19311523 0.57128906
vt 0.19177246 0.5649414
vt 0.19311523 0.5649414
vt 0.19177246 0.55908203
vt 0.19311523 0.55908203
vt 0.19177246 0.5292969
vt 0.19311523 0.5292969
vt 0.20812988 0.57910156
vt 0.20812988 0.67285156
vt 0.20947266 0.67285156
vt 0.20947266 0.57910156
vt 0.20800781 0.57128906
vt 0.20935059 0.57128906
vt 0.20800781 0.5649414
vt 0.20935059 0.5649414
vt 0.20812988 0.55908203
vt 0.20947266 0.55908203
vt 0.20812988 0.5292969
vt 0.20947266 0.5292969
vt 0.22607422 0.5883789
vt 0.21325684 0.5883789
vt 0.21325684 0.671875
vt 0.22607422 0.671875
vt 0.22668457 0.6723633
vt 0.22766113 0.6723633
vt 0.22766113 0.5878906
vt 0.22668457 0.5878906
vt 0.21276855 0.6723633
vt 0.21276855 0.67333984
vt 0.2265625 0.67333984
vt 0.2265625 0.6723633
vt 0.21264648 0.5878906
vt 0.21154785 0.5878906
vt 0.21154785 0.6723633
vt 0.21264648 0.6723633
vt 0.2265625 0.58740234
vt 0.2265625 0.5864258
vt 0.21276855 0.5864258
vt 0.21276855 0.58740234
vt 0.22607422 0.5883789
vt 0.22607422 0.671875
vt 0.22668457 0.6723633
vt 0.22668457 0.5878906
vt 0.22607422 0.671875
vt 0.21325684 0.671875
vt 0.21276855 0.6723633
vt 0.2265625 0.6723633
vt 0.21325684 0.671875
vt 0.21325684 0.5883789
vt 0.21264648 0.5878906
vt 0.21264648 0.6723633
vt 0.21325684 0.5883789
vt 0.22607422 0.5883789
vt 0.2265625 0.58740234
vt 0.21276855 0.58740234
vt 0.0048103333 0.5307617
vt 0.0048103333 0.5449219
vt 0.13208008 0.5449219
vt 0.13208008 0.5307617
vt 0.13232422 0.5473633
vt 0.0049476624 0.5498047
vt 0.0049476624 0.5473633
vt 0.13232422 0.5498047
vt 0.13232422 0.5541992
vt 0.0049476624 0.5541992
vt 0.13232422 0.5600586
vt 0.0049476624 0.5600586
vt 0.13232422 0.5649414
vt 0.0049476624 0.5649414
vt 0.13232422 0.5708008
vt 0.0049476624 0.5708008
vt 0.13232422 0.6723633
vt 0.0049476624 0.6723633
vt 0.19311523 0.67285156
vt 0.19311523 0.57910156
vt 0.20812988 0.57910156
vt 0.20812988 0.67285156
vt 0.18981934 0.6723633
vt 0.18981934 0.52978516
vt 0.1505127 0.52978516
vt 0.13549805 0.6723633
vt 0.14331055 0.5317383
vt 0.13745117 0.53759766
vt 0.13549805 0.5473633
vt 0.19311523 0.5292969
vt 0.20812988 0.5292969
vt 0.20812988 0.55908203
vt 0.19311523 0.55908203
vt 0.19311523 0.5649414
vt 0.20800781 0.5649414
vt 0.19311523 0.57128906
vt 0.20800781 0.57128906
vt 0.19311523 0.57910156
vt 0.20812988 0.57910156
vt 0.1505127 0.52978516
vt 0.18981934 0.52978516
vt 0.18981934 0.6723633
vt 0.13549805 0.6723633
vt 0.14331055 0.5317383
vt 0.13745117 0.53759766
vt 0.13549805 0.5473633
vt 0.16748047 1.1396484
vt 0.1685791 1.1386719
vt 0.1685791 1.1025391
vt 0.14904785 1.1025391
vt 0.15014648 1.1396484
vt 0.14904785 1.1386719
vt 0.19311523 0.67285156
vt 0.19177246 0.67285156
vt 0.19177246 0.57910156
vt 0.19311523 0.57910156
vt 0.19177246 0.57128906
vt 0.19311523 0.57128906
vt 0.19177246 0.5649414
vt 0.19311523 0.5649414
vt 0.19177246 0.55908203
vt 0.19311523 0.55908203
vt 0.19177246 0.5292969
vt 0.19311523 0.5292969
vt 0.20812988 0.57910156
vt 0.20947266 0.67285156
vt 0.20812988 0.67285156
vt 0.20947266 0.57910156
vt 0.20800781 0.57128906
vt 0.20935059 0.57128906
vt 0.20800781 0.5649414
vt 0.20935059 0.5649414
vt 0.20812988 0.55908203
vt 0.20947266 0.55908203
vt 0.20812988 0.5292969
vt 0.20947266 0.5292969
vt 0.22607422 0.5883789
vt 0.22607422 0.671875
vt 0.21325684 0.671875
vt 0.21325684 0.5883789
vt 0.22668457 0.6723633
vt 0.22668457 0.5878906
vt 0.22766113 0.5878906
vt 0.22766113 0.6723633
vt 0.21276855 0.6723633
vt 0.2265625 0.6723633
vt 0.2265625 0.67333984
vt 0.21276855 0.67333984
vt 0.21264648 0.5878906
vt 0.21264648 0.6723633
vt 0.21154785 0.6723633
vt 0.21154785 0.5878906
vt 0.2265625 0.58740234
vt 0.21276855 0.58740234
vt 0.21276855 0.5864258
vt 0.2265625 0.5864258
vt 0.22607422 0.5883789
vt 0.22668457 0.5878906
vt 0.22668457 0.6723633
vt 0.22607422 0.671875
vt 0.22607422 0.671875
vt 0.2265625 0.6723633
vt 0.21276855 0.6723633
vt 0.21325684 0.671875
vt 0.21325684 0.671875
vt 0.21264648 0.6723633
vt 0.21264648 0.5878906
vt 0.21325684 0.5883789
vt 0.21325684 0.5883789
vt 0.21276855 0.58740234
vt 0.2265625 0.58740234
vt 0.22607422 0.5883789
vt 0.0048103333 0.5307617
vt 0.13208008 0.5307617
vt 0.13208008 0.5449219
vt 0.0048103333 0.5449219
vn 0.87646484 0 -0.48168945
vn 0.87646484 0 -0.48168945
vn 0.96875 0 -0.24865723
vn 0.96875 0 -0.24865723
vn 0.99853516 0 0.054718018
vn 0.99853516 0 0.054718018
vn 0.9536133 0 0.30126953
vn 0.9536133 0 0.30126953
vn 0.6508789 0 0.75927734
vn 0.6508789 0 0.75927734
vn 0.17358398 0 0.9848633
vn 0.17358398 0 0.9848633
vn -0 0 1
vn -0 0 1
vn -0 0 1
vn -0 0 1
vn -0 0 1
vn -0 0 1
vn -0 -1 0
vn -0 -1 0
vn -0 -1 0
vn -0 -1 0
vn -0 -1 0
vn -0 -1 0
vn -0 -1 0
vn 1 0 0
vn 0.9970703 0 0.07446289
vn 1 0 0
vn 0.9970703 0 0.07446289
vn 0.9472656 0 0.32006836
vn 0.9472656 0 0.32006836
vn 0.6508789 0 0.75927734
vn 0.6508789 0 0.75927734
vn 0.34204102 0 0.9399414
vn 0.34204102 0 0.9399414
vn -0 1 0
vn -0 1 0
vn -0 1 0
vn -0 1 0
vn -0 1 0
vn -0 1 0
vn -0 1 0
vn -1 0 0
vn -1 0 0
vn -1 0 0
vn -1 0 0
vn -1 0 0
vn -1 0 0
vn -0 -0.87646484 0.48168945
vn 0.09057617 -0.875 0.47583008
vn -0 -0.87646484 0.48168945
vn 0.07904053 -0.8754883 0.47680664
vn 0.40527344 -0.83251953 0.3774414
vn 0.31347656 -0.85302734 0.4169922
vn 0.640625 -0.74560547 0.18237305
vn 0.6064453 -0.7607422 0.23083496
vn 0.7001953 -0.71191406 0.04812622
vn 0.69921875 -0.7128906 0.05593872
vn 0.70703125 -0.70703125 0
vn 0.70703125 -0.70703125 0
vn 0.07904053 0.8754883 0.47680664
vn -0 0.87646484 0.48168945
vn -0 0.87646484 0.48168945
vn 0.09057617 0.875 0.47583008
vn 0.31347656 0.85302734 0.4169922
vn 0.40527344 0.83251953 0.3774414
vn 0.6064453 0.7607422 0.23083496
vn 0.640625 0.74560547 0.18237305
vn 0.69921875 0.7128906 0.05593872
vn 0.7001953 0.71191406 0.04812622
vn 0.70703125 0.70703125 0
vn 0.70703125 0.70703125 0
vn -2.3841858E-07 0 1
vn -2.3841858E-07 0 1
vn -2.3841858E-07 0 1
vn -2.3841858E-07 0 1
vn -0 -1 0
vn -0 -1 0
vn -0 -1 0
vn -0 -1 0
vn 1 0 0
vn 1 0 0
vn 1 0 0
vn 1 0 0
vn -0 1 0
vn -0 1 0
vn -0 1 0
vn -0 1 0
vn -1 0 0
vn -1 0 0
vn -1 0 0
vn -1 0 0
vn -1.1920929E-07 -0.87646484 0.48168945
vn -1.1920929E-07 -0.87646484 0.48168945
vn -1.1920929E-07 -0.87646484 0.48168945
vn -1.1920929E-07 -0.87646484 0.48168945
vn 0.87646484 0 0.48168945
vn 0.87646484 0 0.48168945
vn 0.87646484 0 0.48168945
vn 0.87646484 0 0.48168945
vn -1.1920929E-07 0.87646484 0.48168945
vn -1.1920929E-07 0.87646484 0.48168945
vn -1.1920929E-07 0.87646484 0.48168945
vn -1.1920929E-07 0.87646484 0.48168945
vn -0.87646484 0 0.48168945
vn -0.87646484 0 0.48168945
vn -0.87646484 0 0.48168945
vn -0.87646484 0 0.48168945
vn 1 0 0
vn 1 0 0
vn 1 0 0
vn 1 0 0
vn 0.87646484 0 -0.48168945
vn 0.96875 0 -0.24865723
vn 0.87646484 0 -0.48168945
vn 0.96875 0 -0.24865723
vn 0.99853516 0 0.054718018
vn 0.99853516 0 0.054718018
vn 0.9536133 0 0.30126953
vn 0.9536133 0 0.30126953
vn 0.6508789 0 0.75927734
vn 0.6508789 0 0.75927734
vn 0.17358398 0 0.9848633
vn 0.17358398 0 0.9848633
vn -0 0 1
vn -0 0 1
vn -0 0 1
vn -0 0 1
vn -0 0 1
vn -0 0 1
vn -0 1 0
vn -0 1 0
vn -0 1 0
vn -0 1 0
vn -0 1 0
vn -0 1 0
vn -0 1 0
vn 1 0 0
vn 1 0 0
vn 0.9970703 0 0.07446289
vn 0.9970703 0 0.07446289
vn 0.9472656 0 0.32006836
vn 0.9472656 0 0.32006836
vn 0.6508789 0 0.75927734
vn 0.6508789 0 0.75927734
vn 0.34204102 0 0.9399414
vn 0.34204102 0 0.9399414
vn -0 -1 0
vn -0 -1 0
vn -0 -1 0
vn -0 -1 0
vn -0 -1 0
vn -0 -1 0
vn -0 -1 0
vn -1 0 0
vn -1 0 0
vn -1 0 0
vn -1 0 0
vn -1 0 0
vn -1 0 0
vn -0 0.87646484 0.48168945
vn -0 0.87646484 0.48168945
vn 0.09057617 0.875 0.47583008
vn 0.07904053 0.8754883 0.47680664
vn 0.40527344 0.83251953 0.3774414
vn 0.31347656 0.85302734 0.4169922
vn 0.640625 0.74560547 0.18237305
vn 0.6064453 0.7607422 0.23083496
vn 0.7001953 0.71191406 0.04812622
vn 0.69921875 0.7128906 0.05593872
vn 0.70703125 0.70703125 0
vn 0.70703125 0.70703125 0
vn 0.07904053 -0.8754883 0.47680664
vn -0 -0.87646484 0.48168945
vn -0 -0.87646484 0.48168945
vn 0.09057617 -0.875 0.47583008
vn 0.31347656 -0.85302734 0.4169922
vn 0.40527344 -0.83251953 0.3774414
vn 0.6064453 -0.7607422 0.23083496
vn 0.640625 -0.74560547 0.18237305
vn 0.69921875 -0.7128906 0.05593872
vn 0.7001953 -0.71191406 0.04812622
vn 0.70703125 -0.70703125 0
vn 0.70703125 -0.70703125 0
vn -2.3841858E-07 0 1
vn -2.3841858E-07 0 1
vn -2.3841858E-07 0 1
vn -2.3841858E-07 0 1
vn -0 1 0
vn -0 1 0
vn -0 1 0
vn -0 1 0
vn 1 0 0
vn 1 0 0
vn 1 0 0
vn 1 0 0
vn -0 -1 0
vn -0 -1 0
vn -0 -1 0
vn -0 -1 0
vn -1 0 0
vn -1 0 0
vn -1 0 0
vn -1 0 0
vn -1.1920929E-07 0.87646484 0.48168945
vn -1.1920929E-07 0.87646484 0.48168945
vn -1.1920929E-07 0.87646484 0.48168945
vn -1.1920929E-07 0.87646484 0.48168945
vn 0.87646484 0 0.48168945
vn 0.87646484 0 0.48168945
vn 0.87646484 0 0.48168945
vn 0.87646484 0 0.48168945
vn -1.1920929E-07 -0.87646484 0.48168945
vn -1.1920929E-07 -0.87646484 0.48168945
vn -1.1920929E-07 -0.87646484 0.48168945
vn -1.1920929E-07 -0.87646484 0.48168945
vn -0.87646484 0 0.48168945
vn -0.87646484 0 0.48168945
vn -0.87646484 0 0.48168945
vn -0.87646484 0 0.48168945
vn 1 0 0
vn 1 0 0
vn 1 0 0
vn 1 0 0
g Hotel_OBJ_Sofa_01_0
f 3/3/3 2/2/2 1/1/1
f 4/4/4 3/3/3 1/1/1
f 4/4/4 5/5/5 3/3/3
f 5/5/5 6/6/6 3/3/3
f 5/5/5 7/7/7 6/6/6
f 7/7/7 8/8/8 6/6/6
f 7/7/7 9/9/9 8/8/8
f 9/9/9 10/10/10 8/8/8
f 9/9/9 11/11/11 10/10/10
f 11/11/11 12/12/12 10/10/10
f 11/11/11 13/13/13 12/12/12
f 13/13/13 14/14/14 12/12/12
f 17/17/17 16/16/16 15/15/15
f 18/18/18 17/17/17 15/15/15
f 21/21/21 20/20/20 19/19/19
f 19/19/19 22/22/22 21/21/21
f 19/19/19 23/23/23 22/22/22
f 23/23/23 24/24/24 22/22/22
f 24/24/24 25/25/25 22/22/22
f 28/28/28 27/27/27 26/26/26
f 27/27/27 29/29/29 26/26/26
f 29/29/29 27/27/27 30/30/30
f 27/27/27 31/31/31 30/30/30
f 30/30/30 31/31/31 32/32/32
f 31/31/31 33/33/33 32/32/32
f 32/32/32 33/33/33 34/34/34
f 33/33/33 35/35/35 34/34/34
f 38/38/38 37/37/37 36/36/36
f 36/36/36 39/39/39 38/38/38
f 39/39/39 40/40/40 38/38/38
f 39/39/39 41/41/41 40/40/40
f 39/39/39 42/42/42 41/41/41
f 45/45/45 44/44/44 43/43/43
f 43/43/43 46/46/46 45/45/45
f 43/43/43 47/47/47 46/46/46
f 47/47/47 48/48/48 46/46/46
f 51/51/51 50/50/50 49/49/49
f 50/50/50 52/52/52 49/49/49
f 50/50/50 53/53/53 52/52/52
f 53/53/53 54/54/54 52/52/52
f 53/53/53 55/55/55 54/54/54
f 55/55/55 56/56/56 54/54/54
f 55/55/55 57/57/57 56/56/56
f 57/57/57 58/58/58 56/56/56
f 58/58/58 57/57/57 59/59/59
f 60/60/60 58/58/58 59/59/59
f 63/63/63 62/62/62 61/61/61
f 64/64/64 63/63/63 61/61/61
f 64/64/64 61/61/61 65/65/65
f 66/66/66 64/64/64 65/65/65
f 66/66/66 65/65/65 67/67/67
f 68/68/68 66/66/66 67/67/67
f 68/68/68 67/67/67 69/69/69
f 70/70/70 68/68/68 69/69/69
f 70/70/70 69/69/69 71/71/71
f 72/72/72 70/70/70 71/71/71
f 75/75/75 74/74/74 73/73/73
f 76/76/76 75/75/75 73/73/73
f 79/79/79 78/78/78 77/77/77
f 80/80/80 79/79/79 77/77/77
f 83/83/83 82/82/82 81/81/81
f 84/84/84 83/83/83 81/81/81
f 87/87/87 86/86/86 85/85/85
f 88/88/88 87/87/87 85/85/85
f 91/91/91 90/90/90 89/89/89
f 92/92/92 91/91/91 89/89/89
f 95/95/95 94/94/94 93/93/93
f 96/96/96 95/95/95 93/93/93
f 99/99/99 98/98/98 97/97/97
f 100/100/100 99/99/99 97/97/97
f 103/103/103 102/102/102 101/101/101
f 104/104/104 103/103/103 101/101/101
f 107/107/107 106/106/106 105/105/105
f 108/108/108 107/107/107 105/105/105
f 111/111/111 110/110/110 109/109/109
f 112/112/112 111/111/111 109/109/109
f 115/115/115 114/114/114 113/113/113
f 114/114/114 116/116/116 113/113/113
f 117/117/117 116/116/116 114/114/114
f 118/118/118 117/117/117 114/114/114
f 119/119/119 117/117/117 118/118/118
f 120/120/120 119/119/119 118/118/118
f 121/121/121 119/119/119 120/120/120
f 122/122/122 121/121/121 120/120/120
f 123/123/123 121/121/121 122/122/122
f 124/124/124 123/123/123 122/122/122
f 125/125/125 123/123/123 124/124/124
f 126/126/126 125/125/125 124/124/124
f 129/129/129 128/128/128 127/127/127
f 130/130/130 129/129/129 127/127/127
f 133/133/133 132/132/132 131/131/131
f 131/131/131 134/134/134 133/133/133
f 134/134/134 135/135/135 133/133/133
f 134/134/134 136/136/136 135/135/135
f 134/134/134 137/137/137 136/136/136
f 140/140/140 139/139/139 138/138/138
f 141/141/141 140/140/140 138/138/138
f 140/140/140 141/141/141 142/142/142
f 143/143/143 140/140/140 142/142/142
f 143/143/143 142/142/142 144/144/144
f 145/145/145 143/143/143 144/144/144
f 145/145/145 144/144/144 146/146/146
f 147/147/147 145/145/145 146/146/146
f 150/150/150 149/149/149 148/148/148
f 148/148/148 151/151/151 150/150/150
f 148/148/148 152/152/152 151/151/151
f 152/152/152 153/153/153 151/151/151
f 153/153/153 154/154/154 151/151/151
f 157/157/157 156/156/156 155/155/155
f 155/155/155 158/158/158 157/157/157
f 155/155/155 159/159/159 158/158/158
f 159/159/159 160/160/160 158/158/158
f 163/163/163 162/162/162 161/161/161
f 164/164/164 163/163/163 161/161/161
f 165/165/165 163/163/163 164/164/164
f 166/166/166 165/165/165 164/164/164
f 167/167/167 165/165/165 166/166/166
f 168/168/168 167/167/167 166/166/166
f 169/169/169 167/167/167 168/168/168
f 170/170/170 169/169/169 168/168/168
f 169/169/169 170/170/170 171/171/171
f 170/170/170 172/172/172 171/171/171
f 175/175/175 174/174/174 173/173/173
f 174/174/174 176/176/176 173/173/173
f 173/173/173 176/176/176 177/177/177
f 176/176/176 178/178/178 177/177/177
f 177/177/177 178/178/178 179/179/179
f 178/178/178 180/180/180 179/179/179
f 179/179/179 180/180/180 181/181/181
f 180/180/180 182/182/182 181/181/181
f 181/181/181 182/182/182 183/183/183
f 182/182/182 184/184/184 183/183/183
f 187/187/187 186/186/186 185/185/185
f 188/188/188 187/187/187 185/185/185
f 191/191/191 190/190/190 189/189/189
f 192/192/192 191/191/191 189/189/189
f 195/195/195 194/194/194 193/193/193
f 196/196/196 195/195/195 193/193/193
f 199/199/199 198/198/198 197/197/197
f 200/200/200 199/199/199 197/197/197
f 203/203/203 202/202/202 201/201/201
f 204/204/204 203/203/203 201/201/201
f 207/207/207 206/206/206 205/205/205
f 208/208/208 207/207/207 205/205/205
f 211/211/211 210/210/210 209/209/209
f 212/212/212 211/211/211 209/209/209
f 215/215/215 214/214/214 213/213/213
f 216/216/216 215/215/215 213/213/213
f 219/219/219 218/218/218 217/217/217
f 220/220/220 219/219/219 217/217/217
f 223/223/223 222/222/222 221/221/221
f 224/224/224 223/223/223 221/221/221
