g Hotel_STR_House_01_Window
v -0.5300598 17.753761 2.2822952
v -0.5300598 17.93001 3.3195062
v -0.5300598 17.93001 2.5736039
v -0.5300598 17.2744 1.9214423
v -0.5300598 17.93001 3.3195062
v -0.5300598 17.074402 1.9214423
v -0.5300598 16.821802 1.7595985
v -0.5300598 16.621801 1.7595985
v -0.5300598 14.530009 3.3195062
v -0.5300598 16.478811 1.4958692
v -0.5300598 16.610325 1.1451908
v -0.5300598 14.530009 1.1451908
v -0.5300598 16.610325 1.3451908
v -5.1300597 0.53000975 3.1490848
v -5.0090446 0.53000975 2.6896267
v -5.1300597 0.53000975 2.507777
v -4.9738007 0.53000975 2.7832103
v -4.864902 0.53000975 2.9509633
v -4.91699 0.53000975 3.036327
v -4.820365 0.53000975 3.0620897
v -4.7577515 0.53000975 3.0990846
v -4.7577515 0.53000975 3.1490848
v -4.869305 0.53000975 1.195709
v -5.1300597 0.53000975 1.8436089
v -5.03602 0.53000975 1.6670966
v -5.0684757 0.53000975 0.52464193
v -5.1086297 0.53000975 0.32871413
v -5.1300597 0.53000975 0.049084928
v -5.0772185 0.53000975 0.13119613
v -5.0090446 0.53000975 0.049084928
v -5.1300597 0.5500097 3.1490848
v -4.7577515 0.5500097 3.0990846
v -4.7577515 0.5500097 3.1490848
v -4.820365 0.5500097 3.0620897
v -4.91699 0.5500097 3.036327
v -4.864902 0.5500097 2.9509633
v -4.9738007 0.5500097 2.7832103
v -5.0090446 0.5500097 2.6896267
v -5.1300597 0.5500097 2.507777
v -5.0090446 0.53000975 2.6896267
v -5.1300597 0.5500097 2.507777
v -5.1300597 0.53000975 2.507777
v -5.0090446 0.5500097 2.6896267
v -4.9738007 0.53000975 2.7832103
v -5.0090446 0.5500097 2.6896267
v -5.0090446 0.53000975 2.6896267
v -4.9738007 0.5500097 2.7832103
v -4.864902 0.53000975 2.9509633
v -4.9738007 0.5500097 2.7832103
v -4.9738007 0.53000975 2.7832103
v -4.864902 0.5500097 2.9509633
v -4.91699 0.53000975 3.036327
v -4.864902 0.5500097 2.9509633
v -4.864902 0.53000975 2.9509633
v -4.91699 0.5500097 3.036327
v -4.91699 0.53000975 3.036327
v -4.820365 0.5500097 3.0620897
v -4.91699 0.5500097 3.036327
v -4.820365 0.53000975 3.0620897
v -4.820365 0.53000975 3.0620897
v -4.7577515 0.5500097 3.0990846
v -4.820365 0.5500097 3.0620897
v -4.7577515 0.53000975 3.0990846
v -5.1300597 0.5500097 1.8436089
v -4.869305 0.5500097 1.195709
v -5.03602 0.5500097 1.6670966
v -5.0684757 0.5500097 0.52464193
v -5.1086297 0.5500097 0.32871413
v -5.1300597 0.5500097 0.049084928
v -5.0772185 0.5500097 0.13119613
v -5.0090446 0.5500097 0.049084928
v -5.1300597 0.53000975 0.049084928
v -5.0090446 0.5500097 0.049084928
v -5.1300597 0.5500097 0.049084928
v -5.0090446 0.53000975 0.049084928
v -5.0772185 0.53000975 0.13119613
v -5.0090446 0.5500097 0.049084928
v -5.0090446 0.53000975 0.049084928
v -5.0772185 0.5500097 0.13119613
v -5.1086297 0.53000975 0.32871413
v -5.0772185 0.5500097 0.13119613
v -5.0772185 0.53000975 0.13119613
v -5.1086297 0.5500097 0.32871413
v -5.0684757 0.53000975 0.52464193
v -5.1086297 0.5500097 0.32871413
v -5.1086297 0.53000975 0.32871413
v -5.0684757 0.5500097 0.52464193
v -4.869305 0.53000975 1.195709
v -5.0684757 0.5500097 0.52464193
v -5.0684757 0.53000975 0.52464193
v -4.869305 0.5500097 1.195709
v -5.03602 0.53000975 1.6670966
v -4.869305 0.5500097 1.195709
v -4.869305 0.53000975 1.195709
v -5.03602 0.5500097 1.6670966
v -5.1300597 0.53000975 1.8436089
v -5.03602 0.5500097 1.6670966
v -5.03602 0.53000975 1.6670966
v -5.1300597 0.5500097 1.8436089
v -1.7300597 0.53000975 0.515024
v -1.8615001 0.5500097 1.0109951
v -1.8615001 0.53000975 1.0109951
v -1.7300597 0.5500097 0.515024
v -2.0156102 0.53000975 1.6045349
v -1.9486572 0.5500097 1.7735354
v -1.9486572 0.53000975 1.7735354
v -2.0156102 0.5500097 1.6045349
v -1.959762 0.53000975 1.236145
v -2.0156102 0.5500097 1.6045349
v -2.0156102 0.53000975 1.6045349
v -1.959762 0.5500097 1.236145
v -1.8615001 0.53000975 1.0109951
v -1.959762 0.5500097 1.236145
v -1.959762 0.53000975 1.236145
v -1.8615001 0.5500097 1.0109951
v -1.9486572 0.53000975 1.7735354
v -1.959762 0.53000975 1.236145
v -2.0156102 0.53000975 1.6045349
v -1.8156238 0.53000975 2.1153755
v -1.9335058 0.53000975 1.8395067
v -1.7300597 0.53000975 2.395471
v -1.8615001 0.53000975 1.0109951
v -1.7300597 0.53000975 0.515024
v -1.9486572 0.5500097 1.7735354
v -1.8156238 0.5500097 2.1153755
v -1.9335058 0.5500097 1.8395067
v -1.959762 0.5500097 1.236145
v -2.0156102 0.5500097 1.6045349
v -1.7300597 0.5500097 2.395471
v -1.8615001 0.5500097 1.0109951
v -1.7300597 0.5500097 0.515024
v -1.9486572 0.53000975 1.7735354
v -1.9335058 0.5500097 1.8395067
v -1.9335058 0.53000975 1.8395067
v -1.9486572 0.5500097 1.7735354
v -1.9335058 0.53000975 1.8395067
v -1.8156238 0.5500097 2.1153755
v -1.8156238 0.53000975 2.1153755
v -1.9335058 0.5500097 1.8395067
v -1.8156238 0.53000975 2.1153755
v -1.7300597 0.5500097 2.395471
v -1.7300597 0.53000975 2.395471
v -1.8156238 0.5500097 2.1153755
v -4.7577515 0.53000975 3.1490848
v -4.7577515 0.5500097 3.0990846
v -4.7577515 0.53000975 3.0990846
v -4.7577515 0.5500097 3.1490848
v -11.33006 0.53000975 3.3195062
v -9.489151 0.53000975 1.1451908
v -11.33006 0.53000975 1.1451908
v -9.391817 0.53000975 1.8351278
v -8.848523 0.53000975 2.9050953
v -8.760059 0.53000975 3.2951906
v -8.760059 0.53000975 3.3195062
v -11.33006 0.5500097 3.3195062
v -8.760059 0.5500097 3.2951906
v -8.760059 0.5500097 3.3195062
v -8.848523 0.5500097 2.9050953
v -9.391817 0.5500097 1.8351278
v -9.489151 0.5500097 1.1451908
v -11.33006 0.5500097 1.1451908
v -9.391817 0.5500097 1.8351278
v -9.489151 0.53000975 1.1451908
v -9.391817 0.53000975 1.8351278
v -9.489151 0.5500097 1.1451908
v -8.848523 0.5500097 2.9050953
v -9.391817 0.53000975 1.8351278
v -8.848523 0.53000975 2.9050953
v -9.391817 0.5500097 1.8351278
v -8.760059 0.53000975 3.2951906
v -8.848523 0.5500097 2.9050953
v -8.848523 0.53000975 2.9050953
v -8.760059 0.5500097 3.2951906
v -8.760059 0.53000975 3.3195062
v -8.760059 0.5500097 3.2951906
v -8.760059 0.53000975 3.2951906
v -8.760059 0.5500097 3.3195062
v -0.5500598 16.478811 1.4958692
v -0.5500598 16.610325 1.1451908
v -0.5500598 16.610325 1.3451908
v -0.5500598 14.530009 1.1451908
v -0.5500598 16.621801 1.7595985
v -0.5500598 17.93001 3.3195062
v -0.5500598 14.530009 3.3195062
v -0.5500598 16.821802 1.7595985
v -0.5500598 17.074402 1.9214423
v -0.5500598 17.2744 1.9214423
v -0.5500598 17.93001 3.3195062
v -0.5500598 17.753761 2.2822952
v -0.5500598 17.93001 2.5736039
v -0.5300598 16.610325 1.1451908
v -0.5500598 16.610325 1.3451908
v -0.5500598 16.610325 1.1451908
v -0.5300598 16.610325 1.3451908
v -0.5300598 16.610325 1.3451908
v -0.5500598 16.478811 1.4958692
v -0.5500598 16.610325 1.3451908
v -0.5300598 16.478811 1.4958692
v -0.5300598 16.478811 1.4958692
v -0.5500598 16.621801 1.7595985
v -0.5500598 16.478811 1.4958692
v -0.5300598 16.621801 1.7595985
v -0.5500598 16.621801 1.7595985
v -0.5300598 16.821802 1.7595985
v -0.5500598 16.821802 1.7595985
v -0.5300598 16.621801 1.7595985
v -0.5500598 16.821802 1.7595985
v -0.5300598 17.074402 1.9214423
v -0.5500598 17.074402 1.9214423
v -0.5300598 16.821802 1.7595985
v -0.5500598 17.074402 1.9214423
v -0.5300598 17.2744 1.9214423
v -0.5500598 17.2744 1.9214423
v -0.5300598 17.074402 1.9214423
v -0.5500598 17.2744 1.9214423
v -0.5300598 17.753761 2.2822952
v -0.5500598 17.753761 2.2822952
v -0.5300598 17.2744 1.9214423
v -0.5300598 17.753761 2.2822952
v -0.5500598 17.93001 2.5736039
v -0.5500598 17.753761 2.2822952
v -0.5300598 17.93001 2.5736039
v -0.5300598 19.73001 3.3195026
v -0.5300598 23.130009 1.1451908
v -0.5300598 19.73001 1.1451908
v -0.5300598 23.130009 3.3195026
v -0.5500598 19.73001 1.1451908
v -0.5500598 23.130009 3.3195062
v -0.5500598 19.73001 3.3195062
v -0.5500598 23.130009 1.1451908
vt 0.94970703 0.52734375
vt 1 1
vt 1 0.6567383
vt 0.8129883 0.36669922
vt 1 1
vt 0.7558594 0.36669922
vt 0.68359375 0.29467773
vt 0.62646484 0.29467773
vt 0.027664185 1
vt 0.5854492 0.17736816
vt 0.6230469 0.021362305
vt 0.02835083 0.021362305
vt 0.6230469 0.11035156
vt 0.004108429 2
vt 0.079711914 1.7216797
vt 0.004108429 1.6113281
vt 0.101745605 1.7783203
vt 0.1697998 1.8798828
vt 0.1373291 1.9316406
vt 0.19763184 1.9472656
vt 0.2368164 1.9697266
vt 0.2368164 2
vt 0.16296387 0.63916016
vt 0 1
vt 0.058776855 0.90185547
vt 0.038482666 0.26489258
vt 0.013397217 0.15588379
vt 0 0
vt 0.03302002 0.04574585
vt 0.07562256 0
vt 0 1.9375
vt -0.23266602 1.90625
vt -0.23266602 1.9375
vt -0.19360352 1.8828125
vt -0.13317871 1.8671875
vt -0.16577148 1.8134766
vt -0.09765625 1.7089844
vt -0.07562256 1.6503906
vt 0 1.5371094
vt 0 1.4160156
vt 0.012496948 1.2792969
vt 0 1.2792969
vt 0.012496948 1.4160156
vt 0 1.6337891
vt 0.012496948 1.5712891
vt 0 1.5712891
vt 0.012496948 1.6337891
vt 0 1.6113281
vt 0.012496948 1.4863281
vt 0 1.4863281
vt 0.012496948 1.6113281
vt 0 1.5244141
vt 0.012496948 1.4619141
vt 0 1.4619141
vt 0.012496948 1.5244141
vt 0 0.6098633
vt 0.012496948 0.6723633
vt 0.012496948 0.6098633
vt 0 0.6723633
vt 0 1.125
vt 0.012496948 1.1699219
vt 0.012496948 1.125
vt 0 1.1699219
vt 0 1.1210938
vt -0.16296387 0.7167969
vt -0.058776855 1.0117188
vt -0.038482666 0.29711914
vt -0.013397217 0.17480469
vt 0 0
vt -0.03302002 0.051330566
vt -0.07562256 0
vt 0 0
vt -0.07562256 0.012496948
vt 0 0.012496948
vt -0.07562256 0
vt 0 0.01838684
vt 0.012496948 -0.048309326
vt 0 -0.048309326
vt 0.012496948 0.01838684
vt 0 0.17053223
vt 0.012496948 0.04550171
vt 0 0.04550171
vt 0.012496948 0.17053223
vt 0 0.29882812
vt 0.012496948 0.1739502
vt 0 0.1739502
vt 0.012496948 0.29882812
vt 0 0.73339844
vt 0.012496948 0.29589844
vt 0 0.29589844
vt 0.012496948 0.73339844
vt 0 0.93359375
vt 0.012496948 0.62109375
vt 0 0.62109375
vt 0.012496948 0.93359375
vt 0 0.9897461
vt 0.012496948 0.8647461
vt 0 0.8647461
vt 0.012496948 0.9897461
vt 0 -0.26293945
vt -0.012496948 0.057800293
vt 0 0.057800293
vt -0.012496948 -0.26293945
vt 0 1.6210938
vt -0.012496948 1.734375
vt 0 1.734375
vt -0.012496948 1.6210938
vt -0 0.43652344
vt -0.012496948 0.6694336
vt -0 0.6694336
vt -0.012496948 0.43652344
vt -0 -0.26611328
vt -0.012496948 -0.11260986
vt -0 -0.11260986
vt -0.012496948 -0.26611328
vt 2.859375 0.671875
vt 2.8515625 0.3852539
vt 2.8183594 0.58154297
vt 2.9433594 0.8540039
vt 2.8691406 0.70703125
vt 2.9960938 1.0039062
vt 2.9140625 0.26513672
vt 2.9960938 0.0007648468
vt -2.8691406 0.6694336
vt -2.953125 0.83935547
vt -2.8789062 0.70214844
vt -2.8632812 0.40283203
vt -2.828125 0.5859375
vt -3.0058594 0.9785156
vt -2.9238281 0.29101562
vt -3.0058594 0.04473877
vt -0 1.4951172
vt -0.012496948 1.5380859
vt -0 1.5380859
vt -0.012496948 1.4951172
vt 0 1.8144531
vt -0.012496948 2.0019531
vt 0 2.0019531
vt -0.012496948 1.8144531
vt -0 1.8398438
vt -0.012496948 2.0234375
vt -0 2.0234375
vt -0.012496948 1.8398438
vt 0 1.9375
vt 0.012496948 1.90625
vt 0 1.90625
vt 0.012496948 1.9375
vt 0 1
vt 0.7182617 -0
vt 0 0
vt 0.75634766 0.3137207
vt 0.96875 0.7998047
vt 1.0029297 0.9770508
vt 1.0029297 1
vt 0.0018253326 1
vt -1 0.9770508
vt -1 1
vt -0.9658203 0.7988281
vt -0.7548828 0.3088379
vt -0.71777344 -0.006778717
vt -0.00013029575 -0.006778717
vt 0.012496948 0.5961914
vt 0 0.1607666
vt -0 0.5961914
vt 0.012496948 0.1607666
vt 0.012496948 1.6826172
vt -0 0.93310547
vt -0 1.6826172
vt 0.012496948 0.93310547
vt -0 1.6660156
vt 0.012496948 1.4160156
vt -0 1.4160156
vt 0.012496948 1.6660156
vt 0 1.375
vt 0.012496948 1.34375
vt 0 1.34375
vt 0.012496948 1.375
vt -1.5732422 0.1619873
vt -1.6123047 0.003768921
vt -1.6123047 0.09411621
vt -1 0
vt -1.6152344 0.28125
vt -2 1
vt -0.99902344 0.99365234
vt -1.6748047 0.28173828
vt -1.7490234 0.3552246
vt -1.8076172 0.3557129
vt -2 1
vt -1.9482422 0.51953125
vt -2 0.6513672
vt 0 0
vt 0.012496948 0.125
vt 0.012496948 0
vt 0 0.125
vt 0 -0.7607422
vt 0.012496948 -0.6357422
vt 0.012496948 -0.7607422
vt 0 -0.6357422
vt 0 0.7734375
vt 0.012496948 0.9609375
vt 0.012496948 0.7734375
vt 0 0.9609375
vt 0.012496948 1.3076172
vt 0 1.4326172
vt 0.012496948 1.4326172
vt 0 1.3076172
vt 0.012496948 1.4130859
vt 0 1.6005859
vt 0.012496948 1.6005859
vt 0 1.4130859
vt 0.012496948 1.5898438
vt 0 1.7148438
vt 0.012496948 1.7148438
vt 0 1.5898438
vt 0.012496948 1.6621094
vt 0 2.0371094
vt 0.012496948 2.0371094
vt 0 1.6621094
vt 0 1.6513672
vt 0.012496948 1.8642578
vt 0.012496948 1.6513672
vt 0 1.8642578
vt 0.06060791 0.92578125
vt 0.9926758 0.019760132
vt 0.06060791 0.019760132
vt 0.9926758 0.92578125
vt -1 -0
vt -2 1
vt -1.0048828 0.99121094
vt -1.9951172 0.008872986
vn 1 0 0
vn 1 0 0
vn 1 0 0
vn 1 0 0
vn 1 0 0
vn 1 0 0
vn 1 0 0
vn 1 0 0
vn 1 0 0
vn 1 0 0
vn 1 0 0
vn 1 0 0
vn 1 0 0
vn -0 -1 0
vn -0 -1 0
vn -0 -1 0
vn -0 -1 0
vn -0 -1 0
vn -0 -1 0
vn -0 -1 0
vn -0 -1 0
vn -0 -1 0
vn -0 -1 0
vn -0 -1 0
vn -0 -1 0
vn -0 -1 0
vn -0 -1 0
vn -0 -1 0
vn -0 -1 0
vn -0 -1 0
vn -0 1 0
vn -0 1 0
vn -0 1 0
vn -0 1 0
vn -0 1 0
vn -0 1 0
vn -0 1 0
vn -0 1 0
vn -0 1 0
vn 0.890625 0 -0.45458984
vn 0.8310547 0 -0.55615234
vn 0.8310547 0 -0.55615234
vn 0.890625 0 -0.45458984
vn 0.89208984 0 -0.45214844
vn 0.890625 0 -0.45458984
vn 0.890625 0 -0.45458984
vn 0.89208984 0 -0.45214844
vn 0.8417969 0 -0.54003906
vn 0.89208984 0 -0.45214844
vn 0.89208984 0 -0.45214844
vn 0.8417969 0 -0.54003906
vn 0.8535156 0 0.5209961
vn 0.8535156 0 0.5209961
vn 0.8535156 0 0.5209961
vn 0.8535156 0 0.5209961
vn 0.25610352 0 -0.9667969
vn 0.38500977 0 -0.92285156
vn 0.25610352 0 -0.9667969
vn 0.38500977 0 -0.92285156
vn 0.38500977 0 -0.92285156
vn 0.51171875 0 -0.8588867
vn 0.38500977 0 -0.92285156
vn 0.51171875 0 -0.8588867
vn -0 1 0
vn -0 1 0
vn -0 1 0
vn -0 1 0
vn -0 1 0
vn -0 1 0
vn -0 1 0
vn -0 1 0
vn -0 0 -1
vn -0 0 -1
vn -0 0 -1
vn -0 0 -1
vn 0.76904297 0 0.63916016
vn 0.76904297 0 0.63916016
vn 0.76904297 0 0.63916016
vn 0.76904297 0 0.63916016
vn 0.98779297 0 0.15637207
vn 0.98779297 0 0.15637207
vn 0.98779297 0 0.15637207
vn 0.98779297 0 0.15637207
vn 0.97021484 0 -0.24291992
vn 0.98046875 0 -0.19763184
vn 0.98046875 0 -0.19763184
vn 0.97021484 0 -0.24291992
vn 0.9584961 0 -0.28466797
vn 0.97021484 0 -0.24291992
vn 0.97021484 0 -0.24291992
vn 0.9584961 0 -0.28466797
vn 0.91552734 0 0.40283203
vn 0.94140625 0 0.33691406
vn 0.94140625 0 0.33691406
vn 0.91552734 0 0.40283203
vn 0.88378906 0 0.46777344
vn 0.91552734 0 0.40283203
vn 0.91552734 0 0.40283203
vn 0.88378906 0 0.46777344
vn -0.9658203 0 -0.25830078
vn -0.9428711 0 -0.33374023
vn -0.9428711 0 -0.33374023
vn -0.9658203 0 -0.25830078
vn -0.9291992 0 0.36987305
vn -0.95410156 0 0.29956055
vn -0.95410156 0 0.29956055
vn -0.9291992 0 0.36987305
vn -0.9614258 0 -0.2746582
vn -0.98876953 0 -0.14953613
vn -0.98876953 0 -0.14953613
vn -0.9614258 0 -0.2746582
vn -0.9428711 0 -0.33374023
vn -0.9614258 0 -0.2746582
vn -0.9614258 0 -0.2746582
vn -0.9428711 0 -0.33374023
vn -0 -1 0
vn -0 -1 0
vn -0 -1 0
vn -0 -1 0
vn -0 -1 0
vn -0 -1 0
vn -0 -1 0
vn -0 -1 0
vn -0 1 0
vn -0 1 0
vn -0 1 0
vn -0 1 0
vn -0 1 0
vn -0 1 0
vn -0 1 0
vn -0 1 0
vn -0.95410156 0 0.29956055
vn -0.9511719 0 0.30786133
vn -0.9511719 0 0.30786133
vn -0.95410156 0 0.29956055
vn -0.9511719 0 0.30786133
vn -0.9394531 0 0.34301758
vn -0.9394531 0 0.34301758
vn -0.9511719 0 0.30786133
vn -0.9394531 0 0.34301758
vn -0.9555664 0 0.29418945
vn -0.9555664 0 0.29418945
vn -0.9394531 0 0.34301758
vn 1 0 0
vn 1 0 0
vn 1 0 0
vn 1 0 0
vn -0 -1 0
vn -0 -1 0
vn -0 -1 0
vn -0 -1 0
vn -0 -1 0
vn -0 -1 0
vn -0 -1 0
vn -0 1 0
vn -0 1 0
vn -0 1 0
vn -0 1 0
vn -0 1 0
vn -0 1 0
vn -0 1 0
vn 0.9902344 0 -0.13964844
vn 0.9902344 0 -0.13964844
vn 0.9902344 0 -0.13964844
vn 0.9902344 0 -0.13964844
vn 0.89160156 0 -0.45263672
vn 0.89160156 0 -0.45263672
vn 0.89160156 0 -0.45263672
vn 0.89160156 0 -0.45263672
vn 0.97509766 0 -0.2211914
vn 0.97509766 0 -0.2211914
vn 0.97509766 0 -0.2211914
vn 0.97509766 0 -0.2211914
vn 1 0 0
vn 1 0 0
vn 1 0 0
vn 1 0 0
vn -1 0 0
vn -1 0 0
vn -1 0 0
vn -1 0 0
vn -1 0 0
vn -1 0 0
vn -1 0 0
vn -1 0 0
vn -1 0 0
vn -1 0 0
vn -1 0 0
vn -1 0 0
vn -1 0 0
vn -0 1 0
vn -0 1 0
vn -0 1 0
vn -0 1 0
vn -0 0.75341797 0.65771484
vn -0 0.75341797 0.65771484
vn -0 0.75341797 0.65771484
vn -0 0.75341797 0.65771484
vn -0 0.87890625 -0.4765625
vn -0 0.87890625 -0.4765625
vn -0 0.87890625 -0.4765625
vn -0 0.87890625 -0.4765625
vn -0 0 -1
vn -0 0 -1
vn -0 0 -1
vn -0 0 -1
vn -0 0.5395508 -0.8417969
vn -0 0.5395508 -0.8417969
vn -0 0.5395508 -0.8417969
vn -0 0.5395508 -0.8417969
vn -0 0 -1
vn -0 0 -1
vn -0 0 -1
vn -0 0 -1
vn -0 0.6015625 -0.7988281
vn -0 0.6015625 -0.7988281
vn -0 0.6015625 -0.7988281
vn -0 0.6015625 -0.7988281
vn -0 0.85546875 -0.5175781
vn -0 0.85546875 -0.5175781
vn -0 0.85546875 -0.5175781
vn -0 0.85546875 -0.5175781
vn 1 0 0
vn 1 0 0
vn 1 0 0
vn 1 0 0
vn -1 0 0
vn -1 0 0
vn -1 0 0
vn -1 0 0
g Hotel_STR_House_01_Window_0
f 3/3/3 2/2/2 1/1/1
f 5/5/5 4/4/4 1/1/1
f 6/6/6 4/4/4 5/5/5
f 7/7/7 6/6/6 5/5/5
f 8/8/8 7/7/7 5/5/5
f 9/9/9 8/8/8 5/5/5
f 10/10/10 8/8/8 9/9/9
f 11/11/11 10/10/10 9/9/9
f 12/12/12 11/11/11 9/9/9
f 13/13/13 10/10/10 11/11/11
f 16/16/16 15/15/15 14/14/14
f 15/15/15 17/17/17 14/14/14
f 17/17/17 18/18/18 14/14/14
f 18/18/18 19/19/19 14/14/14
f 19/19/19 20/20/20 14/14/14
f 20/20/20 21/21/21 14/14/14
f 21/21/21 22/22/22 14/14/14
f 25/25/25 24/24/24 23/23/23
f 24/24/24 26/26/26 23/23/23
f 27/27/27 26/26/26 24/24/24
f 28/28/28 27/27/27 24/24/24
f 29/29/29 27/27/27 28/28/28
f 30/30/30 29/29/29 28/28/28
f 33/33/33 32/32/32 31/31/31
f 32/32/32 34/34/34 31/31/31
f 34/34/34 35/35/35 31/31/31
f 35/35/35 36/36/36 31/31/31
f 36/36/36 37/37/37 31/31/31
f 37/37/37 38/38/38 31/31/31
f 38/38/38 39/39/39 31/31/31
f 42/42/42 41/41/41 40/40/40
f 43/43/43 40/40/40 41/41/41
f 46/46/46 45/45/45 44/44/44
f 47/47/47 44/44/44 45/45/45
f 50/50/50 49/49/49 48/48/48
f 51/51/51 48/48/48 49/49/49
f 54/54/54 53/53/53 52/52/52
f 55/55/55 52/52/52 53/53/53
f 58/58/58 57/57/57 56/56/56
f 59/59/59 56/56/56 57/57/57
f 62/62/62 61/61/61 60/60/60
f 63/63/63 60/60/60 61/61/61
f 66/66/66 65/65/65 64/64/64
f 65/65/65 67/67/67 64/64/64
f 67/67/67 68/68/68 64/64/64
f 68/68/68 69/69/69 64/64/64
f 70/70/70 69/69/69 68/68/68
f 71/71/71 69/69/69 70/70/70
f 74/74/74 73/73/73 72/72/72
f 75/75/75 72/72/72 73/73/73
f 78/78/78 77/77/77 76/76/76
f 79/79/79 76/76/76 77/77/77
f 82/82/82 81/81/81 80/80/80
f 83/83/83 80/80/80 81/81/81
f 86/86/86 85/85/85 84/84/84
f 87/87/87 84/84/84 85/85/85
f 90/90/90 89/89/89 88/88/88
f 91/91/91 88/88/88 89/89/89
f 94/94/94 93/93/93 92/92/92
f 95/95/95 92/92/92 93/93/93
f 98/98/98 97/97/97 96/96/96
f 99/99/99 96/96/96 97/97/97
f 102/102/102 101/101/101 100/100/100
f 103/103/103 100/100/100 101/101/101
f 106/106/106 105/105/105 104/104/104
f 107/107/107 104/104/104 105/105/105
f 110/110/110 109/109/109 108/108/108
f 111/111/111 108/108/108 109/109/109
f 114/114/114 113/113/113 112/112/112
f 115/115/115 112/112/112 113/113/113
f 118/118/118 117/117/117 116/116/116
f 117/117/117 119/119/119 116/116/116
f 119/119/119 120/120/120 116/116/116
f 121/121/121 119/119/119 117/117/117
f 122/122/122 121/121/121 117/117/117
f 123/123/123 121/121/121 122/122/122
f 126/126/126 125/125/125 124/124/124
f 125/125/125 127/127/127 124/124/124
f 127/127/127 128/128/128 124/124/124
f 129/129/129 127/127/127 125/125/125
f 130/130/130 127/127/127 129/129/129
f 131/131/131 130/130/130 129/129/129
f 134/134/134 133/133/133 132/132/132
f 135/135/135 132/132/132 133/133/133
f 138/138/138 137/137/137 136/136/136
f 139/139/139 136/136/136 137/137/137
f 142/142/142 141/141/141 140/140/140
f 143/143/143 140/140/140 141/141/141
f 146/146/146 145/145/145 144/144/144
f 147/147/147 144/144/144 145/145/145
f 150/150/150 149/149/149 148/148/148
f 149/149/149 151/151/151 148/148/148
f 151/151/151 152/152/152 148/148/148
f 152/152/152 153/153/153 148/148/148
f 153/153/153 154/154/154 148/148/148
f 157/157/157 156/156/156 155/155/155
f 156/156/156 158/158/158 155/155/155
f 158/158/158 159/159/159 155/155/155
f 159/159/159 160/160/160 155/155/155
f 160/160/160 161/161/161 155/155/155
f 164/164/164 163/163/163 162/162/162
f 165/165/165 162/162/162 163/163/163
f 168/168/168 167/167/167 166/166/166
f 169/169/169 166/166/166 167/167/167
f 172/172/172 171/171/171 170/170/170
f 173/173/173 170/170/170 171/171/171
f 176/176/176 175/175/175 174/174/174
f 177/177/177 174/174/174 175/175/175
f 180/180/180 179/179/179 178/178/178
f 179/179/179 181/181/181 178/178/178
f 181/181/181 182/182/182 178/178/178
f 183/183/183 182/182/182 181/181/181
f 184/184/184 183/183/183 181/181/181
f 185/185/185 182/182/182 183/183/183
f 186/186/186 185/185/185 183/183/183
f 187/187/187 186/186/186 183/183/183
f 189/189/189 187/187/187 188/188/188
f 190/190/190 189/189/189 188/188/188
f 193/193/193 192/192/192 191/191/191
f 194/194/194 191/191/191 192/192/192
f 197/197/197 196/196/196 195/195/195
f 198/198/198 195/195/195 196/196/196
f 201/201/201 200/200/200 199/199/199
f 202/202/202 199/199/199 200/200/200
f 205/205/205 204/204/204 203/203/203
f 206/206/206 203/203/203 204/204/204
f 209/209/209 208/208/208 207/207/207
f 210/210/210 207/207/207 208/208/208
f 213/213/213 212/212/212 211/211/211
f 214/214/214 211/211/211 212/212/212
f 217/217/217 216/216/216 215/215/215
f 218/218/218 215/215/215 216/216/216
f 221/221/221 220/220/220 219/219/219
f 222/222/222 219/219/219 220/220/220
f 225/225/225 224/224/224 223/223/223
f 226/226/226 223/223/223 224/224/224
f 229/229/229 228/228/228 227/227/227
f 230/230/230 227/227/227 228/228/228
