g Hotel_OBJ_Level_Set_04_mesh
v -77.86851 -0.033000503 -1.3144169
v -79.12149 -0.033000503 -1.3144169
v -77.86851 -0.033000454 -1.6819834
v -79.12149 -0.033000454 -1.6819834
v -79.12149 -0.063000455 -1.6819834
v -79.12149 -0.033000454 -1.6819834
v -79.12149 -0.0630005 -1.3144169
v -79.12149 -0.033000503 -1.3144169
v -77.86851 -0.063000455 -1.6819834
v -77.86851 -0.033000454 -1.6819834
v -79.12149 -0.063000455 -1.6819834
v -79.12149 -0.033000454 -1.6819834
v -77.86851 -0.0630005 -1.3144169
v -77.86851 -0.033000503 -1.3144169
v -77.86851 -0.063000455 -1.6819834
v -77.86851 -0.033000454 -1.6819834
v -79.12149 -0.0630005 -1.3144169
v -79.12149 -0.033000503 -1.3144169
v -77.86851 -0.0630005 -1.3144169
v -77.86851 -0.033000503 -1.3144169
v -80.42011 -0.032000516 -1.6819832
v -79.11989 -0.032000516 -1.6819832
v -80.42011 -0.032000467 -1.3144168
v -79.11989 -0.032000467 -1.3144168
v -79.11989 -0.062000472 -1.3144168
v -79.11989 -0.032000467 -1.3144168
v -79.11989 -0.062000517 -1.6819832
v -79.11989 -0.032000516 -1.6819832
v -80.42011 -0.062000472 -1.3144168
v -80.42011 -0.032000467 -1.3144168
v -79.11989 -0.062000472 -1.3144168
v -79.11989 -0.032000467 -1.3144168
v -80.42011 -0.062000517 -1.6819832
v -80.42011 -0.032000516 -1.6819832
v -80.42011 -0.062000472 -1.3144168
v -80.42011 -0.032000467 -1.3144168
v -79.11989 -0.062000517 -1.6819832
v -79.11989 -0.032000516 -1.6819832
v -80.42011 -0.062000517 -1.6819832
v -80.42011 -0.032000516 -1.6819832
v -81.682495 -0.012000477 -1.7481259
v -80.43766 -0.012000477 -1.6054505
v -81.72435 -0.012000432 -1.3829501
v -80.479515 -0.012000432 -1.2402747
v -80.479515 -0.042000435 -1.2402747
v -80.479515 -0.012000432 -1.2402747
v -80.43766 -0.04200048 -1.6054505
v -80.43766 -0.012000477 -1.6054505
v -81.72435 -0.042000435 -1.3829501
v -81.72435 -0.012000432 -1.3829501
v -80.479515 -0.042000435 -1.2402747
v -80.479515 -0.012000432 -1.2402747
v -81.682495 -0.04200048 -1.7481259
v -81.682495 -0.012000477 -1.7481259
v -81.72435 -0.042000435 -1.3829501
v -81.72435 -0.012000432 -1.3829501
v -80.43766 -0.04200048 -1.6054505
v -80.43766 -0.012000477 -1.6054505
v -81.682495 -0.04200048 -1.7481259
v -81.682495 -0.012000477 -1.7481259
v -77.864845 -0.00510048 16.282784
v -79.149155 -0.00510048 16.282784
v -77.864845 -0.0051004346 15.915217
v -79.149155 -0.0051004346 15.915217
v -79.149155 -0.035100438 15.915217
v -79.149155 -0.0051004346 15.915217
v -79.149155 -0.035100482 16.282784
v -79.149155 -0.00510048 16.282784
v -77.864845 -0.035100438 15.915217
v -77.864845 -0.0051004346 15.915217
v -79.149155 -0.035100438 15.915217
v -79.149155 -0.0051004346 15.915217
v -77.864845 -0.035100482 16.282784
v -77.864845 -0.00510048 16.282784
v -77.864845 -0.035100438 15.915217
v -77.864845 -0.0051004346 15.915217
v -79.149155 -0.035100482 16.282784
v -79.149155 -0.00510048 16.282784
v -77.864845 -0.035100482 16.282784
v -77.864845 -0.00510048 16.282784
v -80.45084 -0.0051004724 16.282784
v -81.73515 -0.0051004724 16.282784
v -80.45084 -0.005100427 15.915217
v -81.73515 -0.005100427 15.915217
v -81.73515 -0.03510043 15.915217
v -81.73515 -0.005100427 15.915217
v -81.73515 -0.035100475 16.282784
v -81.73515 -0.0051004724 16.282784
v -80.45084 -0.03510043 15.915217
v -80.45084 -0.005100427 15.915217
v -81.73515 -0.03510043 15.915217
v -81.73515 -0.005100427 15.915217
v -80.45084 -0.035100475 16.282784
v -80.45084 -0.0051004724 16.282784
v -80.45084 -0.03510043 15.915217
v -80.45084 -0.005100427 15.915217
v -81.73515 -0.035100475 16.282784
v -81.73515 -0.0051004724 16.282784
v -80.45084 -0.035100475 16.282784
v -80.45084 -0.0051004724 16.282784
v -79.15182 -0.0051004724 16.282784
v -80.45218 -0.0051004724 16.282784
v -79.15182 -0.005100427 15.915217
v -80.45218 -0.005100427 15.915217
v -80.45218 -0.03510043 15.915217
v -80.45218 -0.005100427 15.915217
v -80.45218 -0.035100475 16.282784
v -80.45218 -0.0051004724 16.282784
v -79.15182 -0.03510043 15.915217
v -79.15182 -0.005100427 15.915217
v -80.45218 -0.03510043 15.915217
v -80.45218 -0.005100427 15.915217
v -79.15182 -0.035100475 16.282784
v -79.15182 -0.0051004724 16.282784
v -79.15182 -0.03510043 15.915217
v -79.15182 -0.005100427 15.915217
v -80.45218 -0.035100475 16.282784
v -80.45218 -0.0051004724 16.282784
v -79.15182 -0.035100475 16.282784
v -79.15182 -0.0051004724 16.282784
v -72.88779 -0.005700479 7.0517883
v -72.88779 -0.005700479 5.4762206
v -72.52022 -0.0057004336 7.0517883
v -72.52022 -0.0057004336 5.4762206
v -72.52022 -0.035700437 5.4762206
v -72.52022 -0.0057004336 5.4762206
v -72.88779 -0.03570048 5.4762206
v -72.88779 -0.005700479 5.4762206
v -72.52022 -0.035700437 7.0517883
v -72.52022 -0.0057004336 7.0517883
v -72.52022 -0.035700437 5.4762206
v -72.52022 -0.0057004336 5.4762206
v -72.88779 -0.03570048 7.0517883
v -72.88779 -0.005700479 7.0517883
v -72.52022 -0.035700437 7.0517883
v -72.52022 -0.0057004336 7.0517883
v -72.88779 -0.03570048 5.4762206
v -72.88779 -0.005700479 5.4762206
v -72.88779 -0.03570048 7.0517883
v -72.88779 -0.005700479 7.0517883
v -72.52022 -0.0037005043 6.9962115
v -72.52022 -0.0037005043 8.571779
v -72.88779 -0.0037004594 6.9962115
v -72.88779 -0.0037004594 8.571779
v -72.88779 -0.033700462 8.571779
v -72.88779 -0.0037004594 8.571779
v -72.52022 -0.033700507 8.571779
v -72.52022 -0.0037005043 8.571779
v -72.88779 -0.033700462 6.9962115
v -72.88779 -0.0037004594 6.9962115
v -72.88779 -0.033700462 8.571779
v -72.88779 -0.0037004594 8.571779
v -72.52022 -0.033700507 6.9962115
v -72.52022 -0.0037005043 6.9962115
v -72.88779 -0.033700462 6.9962115
v -72.88779 -0.0037004594 6.9962115
v -72.52022 -0.033700507 8.571779
v -72.52022 -0.0037005043 8.571779
v -72.52022 -0.033700507 6.9962115
v -72.52022 -0.0037005043 6.9962115
v -72.88779 -0.005700479 10.145788
v -72.88779 -0.005700479 8.57022
v -72.52022 -0.0057004336 10.145788
v -72.52022 -0.0057004336 8.57022
v -72.52022 -0.035700437 8.57022
v -72.52022 -0.0057004336 8.57022
v -72.88779 -0.03570048 8.57022
v -72.88779 -0.005700479 8.57022
v -72.52022 -0.035700437 10.145788
v -72.52022 -0.0057004336 10.145788
v -72.52022 -0.035700437 8.57022
v -72.52022 -0.0057004336 8.57022
v -72.88779 -0.03570048 10.145788
v -72.88779 -0.005700479 10.145788
v -72.52022 -0.035700437 10.145788
v -72.52022 -0.0057004336 10.145788
v -72.88779 -0.03570048 8.57022
v -72.88779 -0.005700479 8.57022
v -72.88779 -0.03570048 10.145788
v -72.88779 -0.005700479 10.145788
v -87.085785 -0.0059004785 7.0437884
v -87.085785 -0.0059004785 5.4682207
v -86.718216 -0.0059004333 7.0437884
v -86.718216 -0.0059004333 5.4682207
v -86.718216 -0.035900436 5.4682207
v -86.718216 -0.0059004333 5.4682207
v -87.085785 -0.03590048 5.4682207
v -87.085785 -0.0059004785 5.4682207
v -86.718216 -0.035900436 7.0437884
v -86.718216 -0.0059004333 7.0437884
v -86.718216 -0.035900436 5.4682207
v -86.718216 -0.0059004333 5.4682207
v -87.085785 -0.03590048 7.0437884
v -87.085785 -0.0059004785 7.0437884
v -86.718216 -0.035900436 7.0437884
v -86.718216 -0.0059004333 7.0437884
v -87.085785 -0.03590048 5.4682207
v -87.085785 -0.0059004785 5.4682207
v -87.085785 -0.03590048 7.0437884
v -87.085785 -0.0059004785 7.0437884
v -86.718216 -0.003900504 6.9962115
v -86.718216 -0.003900504 8.571779
v -87.085785 -0.003900459 6.9962115
v -87.085785 -0.003900459 8.571779
v -87.085785 -0.033900462 8.571779
v -87.085785 -0.003900459 8.571779
v -86.718216 -0.033900507 8.571779
v -86.718216 -0.003900504 8.571779
v -87.085785 -0.033900462 6.9962115
v -87.085785 -0.003900459 6.9962115
v -87.085785 -0.033900462 8.571779
v -87.085785 -0.003900459 8.571779
v -86.718216 -0.033900507 6.9962115
v -86.718216 -0.003900504 6.9962115
v -87.085785 -0.033900462 6.9962115
v -87.085785 -0.003900459 6.9962115
v -86.718216 -0.033900507 8.571779
v -86.718216 -0.003900504 8.571779
v -86.718216 -0.033900507 6.9962115
v -86.718216 -0.003900504 6.9962115
v -87.085785 -0.0059004785 10.145788
v -87.085785 -0.0059004785 8.57022
v -86.718216 -0.0059004333 10.145788
v -86.718216 -0.0059004333 8.57022
v -86.718216 -0.035900436 8.57022
v -86.718216 -0.0059004333 8.57022
v -87.085785 -0.03590048 8.57022
v -87.085785 -0.0059004785 8.57022
v -86.718216 -0.035900436 10.145788
v -86.718216 -0.0059004333 10.145788
v -86.718216 -0.035900436 8.57022
v -86.718216 -0.0059004333 8.57022
v -87.085785 -0.03590048 10.145788
v -87.085785 -0.0059004785 10.145788
v -86.718216 -0.035900436 10.145788
v -86.718216 -0.0059004333 10.145788
v -87.085785 -0.03590048 8.57022
v -87.085785 -0.0059004785 8.57022
v -87.085785 -0.03590048 10.145788
v -87.085785 -0.0059004785 10.145788
vt 0.21323955 1.0008926
vt 0.21323955 0.8753092
vt 0.2498121 1.0008926
vt 0.2498121 0.8753092
vt 0.2531915 0.92913836
vt 0.25237218 0.92913836
vt 0.2531915 0.9187645
vt 0.25237218 0.9187645
vt 0.2531915 0.96536994
vt 0.25237218 0.96536994
vt 0.2531915 0.92913836
vt 0.25237218 0.92913836
vt 0.2531915 0.8825328
vt 0.25237218 0.8825328
vt 0.2531915 0.87215877
vt 0.25237218 0.87215877
vt 0.2531915 0.9187645
vt 0.25237218 0.9187645
vt 0.2531915 0.8825328
vt 0.25237218 0.8825328
vt 0.21323955 1.0008926
vt 0.21323955 0.8753092
vt 0.2498121 1.0008926
vt 0.2498121 0.8753092
vt 0.2531915 0.92913836
vt 0.25237218 0.92913836
vt 0.2531915 0.9187645
vt 0.25237218 0.9187645
vt 0.2531915 0.96536994
vt 0.25237218 0.96536994
vt 0.2531915 0.92913836
vt 0.25237218 0.92913836
vt 0.2531915 0.8825328
vt 0.25237218 0.8825328
vt 0.2531915 0.87215877
vt 0.25237218 0.87215877
vt 0.2531915 0.9187645
vt 0.25237218 0.9187645
vt 0.2531915 0.8825328
vt 0.25237218 0.8825328
vt 0.21323955 1.0008926
vt 0.21323955 0.8753092
vt 0.2498121 1.0008926
vt 0.2498121 0.8753092
vt 0.2531915 0.92913836
vt 0.25237218 0.92913836
vt 0.2531915 0.9187645
vt 0.25237218 0.9187645
vt 0.2531915 0.96536994
vt 0.25237218 0.96536994
vt 0.2531915 0.92913836
vt 0.25237218 0.92913836
vt 0.2531915 0.8825328
vt 0.25237218 0.8825328
vt 0.2531915 0.87215877
vt 0.25237218 0.87215877
vt 0.2531915 0.9187645
vt 0.25237218 0.9187645
vt 0.2531915 0.8825328
vt 0.25237218 0.8825328
vt 0.21323955 1.0008926
vt 0.21323955 0.8753092
vt 0.2498121 1.0008926
vt 0.2498121 0.8753092
vt 0.2531915 0.92913836
vt 0.25237218 0.92913836
vt 0.2531915 0.9187645
vt 0.25237218 0.9187645
vt 0.2531915 0.96536994
vt 0.25237218 0.96536994
vt 0.2531915 0.92913836
vt 0.25237218 0.92913836
vt 0.2531915 0.8825328
vt 0.25237218 0.8825328
vt 0.2531915 0.87215877
vt 0.25237218 0.87215877
vt 0.2531915 0.9187645
vt 0.25237218 0.9187645
vt 0.2531915 0.8825328
vt 0.25237218 0.8825328
vt 0.21323955 1.0008926
vt 0.21323955 0.8753092
vt 0.2498121 1.0008926
vt 0.2498121 0.8753092
vt 0.2531915 0.92913836
vt 0.25237218 0.92913836
vt 0.2531915 0.9187645
vt 0.25237218 0.9187645
vt 0.2531915 0.96536994
vt 0.25237218 0.96536994
vt 0.2531915 0.92913836
vt 0.25237218 0.92913836
vt 0.2531915 0.8825328
vt 0.25237218 0.8825328
vt 0.2531915 0.87215877
vt 0.25237218 0.87215877
vt 0.2531915 0.9187645
vt 0.25237218 0.9187645
vt 0.2531915 0.8825328
vt 0.25237218 0.8825328
vt 0.21323955 1.0008926
vt 0.21323955 0.8753092
vt 0.2498121 1.0008926
vt 0.2498121 0.8753092
vt 0.2531915 0.92913836
vt 0.25237218 0.92913836
vt 0.2531915 0.9187645
vt 0.25237218 0.9187645
vt 0.2531915 0.96536994
vt 0.25237218 0.96536994
vt 0.2531915 0.92913836
vt 0.25237218 0.92913836
vt 0.2531915 0.8825328
vt 0.25237218 0.8825328
vt 0.2531915 0.87215877
vt 0.25237218 0.87215877
vt 0.2531915 0.9187645
vt 0.25237218 0.9187645
vt 0.2531915 0.8825328
vt 0.25237218 0.8825328
vt 0.21323955 1.0008926
vt 0.21323955 0.8753092
vt 0.2498121 1.0008926
vt 0.2498121 0.8753092
vt 0.2531915 0.92913836
vt 0.25237218 0.92913836
vt 0.2531915 0.9187645
vt 0.25237218 0.9187645
vt 0.2531915 0.96536994
vt 0.25237218 0.96536994
vt 0.2531915 0.92913836
vt 0.25237218 0.92913836
vt 0.2531915 0.8825328
vt 0.25237218 0.8825328
vt 0.2531915 0.87215877
vt 0.25237218 0.87215877
vt 0.2531915 0.9187645
vt 0.25237218 0.9187645
vt 0.2531915 0.8825328
vt 0.25237218 0.8825328
vt 0.21323955 1.0008926
vt 0.21323955 0.8753092
vt 0.2498121 1.0008926
vt 0.2498121 0.8753092
vt 0.2531915 0.92913836
vt 0.25237218 0.92913836
vt 0.2531915 0.9187645
vt 0.25237218 0.9187645
vt 0.2531915 0.96536994
vt 0.25237218 0.96536994
vt 0.2531915 0.92913836
vt 0.25237218 0.92913836
vt 0.2531915 0.8825328
vt 0.25237218 0.8825328
vt 0.2531915 0.87215877
vt 0.25237218 0.87215877
vt 0.2531915 0.9187645
vt 0.25237218 0.9187645
vt 0.2531915 0.8825328
vt 0.25237218 0.8825328
vt 0.21323955 1.0008926
vt 0.21323955 0.8753092
vt 0.2498121 1.0008926
vt 0.2498121 0.8753092
vt 0.2531915 0.92913836
vt 0.25237218 0.92913836
vt 0.2531915 0.9187645
vt 0.25237218 0.9187645
vt 0.2531915 0.96536994
vt 0.25237218 0.96536994
vt 0.2531915 0.92913836
vt 0.25237218 0.92913836
vt 0.2531915 0.8825328
vt 0.25237218 0.8825328
vt 0.2531915 0.87215877
vt 0.25237218 0.87215877
vt 0.2531915 0.9187645
vt 0.25237218 0.9187645
vt 0.2531915 0.8825328
vt 0.25237218 0.8825328
vt 0.21323955 1.0008926
vt 0.21323955 0.8753092
vt 0.2498121 1.0008926
vt 0.2498121 0.8753092
vt 0.2531915 0.92913836
vt 0.25237218 0.92913836
vt 0.2531915 0.9187645
vt 0.25237218 0.9187645
vt 0.2531915 0.96536994
vt 0.25237218 0.96536994
vt 0.2531915 0.92913836
vt 0.25237218 0.92913836
vt 0.2531915 0.8825328
vt 0.25237218 0.8825328
vt 0.2531915 0.87215877
vt 0.25237218 0.87215877
vt 0.2531915 0.9187645
vt 0.25237218 0.9187645
vt 0.2531915 0.8825328
vt 0.25237218 0.8825328
vt 0.21323955 1.0008926
vt 0.21323955 0.8753092
vt 0.2498121 1.0008926
vt 0.2498121 0.8753092
vt 0.2531915 0.92913836
vt 0.25237218 0.92913836
vt 0.2531915 0.9187645
vt 0.25237218 0.9187645
vt 0.2531915 0.96536994
vt 0.25237218 0.96536994
vt 0.2531915 0.92913836
vt 0.25237218 0.92913836
vt 0.2531915 0.8825328
vt 0.25237218 0.8825328
vt 0.2531915 0.87215877
vt 0.25237218 0.87215877
vt 0.2531915 0.9187645
vt 0.25237218 0.9187645
vt 0.2531915 0.8825328
vt 0.25237218 0.8825328
vt 0.21323955 1.0008926
vt 0.21323955 0.8753092
vt 0.2498121 1.0008926
vt 0.2498121 0.8753092
vt 0.2531915 0.92913836
vt 0.25237218 0.92913836
vt 0.2531915 0.9187645
vt 0.25237218 0.9187645
vt 0.2531915 0.96536994
vt 0.25237218 0.96536994
vt 0.2531915 0.92913836
vt 0.25237218 0.92913836
vt 0.2531915 0.8825328
vt 0.25237218 0.8825328
vt 0.2531915 0.87215877
vt 0.25237218 0.87215877
vt 0.2531915 0.9187645
vt 0.25237218 0.9187645
vt 0.2531915 0.8825328
vt 0.25237218 0.8825328
vn -0 1 1.224757E-07
vn -0 1 1.224757E-07
vn -0 1 1.224757E-07
vn -0 1 1.224757E-07
vn -1 0 0
vn -1 0 0
vn -1 0 0
vn -1 0 0
vn -0 1.16029966E-07 -1
vn -0 1.16029966E-07 -1
vn -0 1.16029966E-07 -1
vn -0 1.16029966E-07 -1
vn 1 0 0
vn 1 0 0
vn 1 0 0
vn 1 0 0
vn -0 -1.16029966E-07 1
vn -0 -1.16029966E-07 1
vn -0 -1.16029966E-07 1
vn -0 -1.16029966E-07 1
vn -0 1 -1.224757E-07
vn -0 1 -1.224757E-07
vn -0 1 -1.224757E-07
vn -0 1 -1.224757E-07
vn 1 0 0
vn 1 0 0
vn 1 0 0
vn 1 0 0
vn -0 1.16029966E-07 1
vn -0 1.16029966E-07 1
vn -0 1.16029966E-07 1
vn -0 1.16029966E-07 1
vn -1 0 0
vn -1 0 0
vn -1 0 0
vn -1 0 0
vn -0 -1.16029966E-07 -1
vn -0 -1.16029966E-07 -1
vn -0 -1.16029966E-07 -1
vn -0 -1.16029966E-07 -1
vn 1.3946148E-08 1 -1.2167908E-07
vn 1.3946148E-08 1 -1.2167908E-07
vn 1.3946148E-08 1 -1.2167908E-07
vn 1.3946148E-08 1 -1.2167908E-07
vn 0.99349576 0 0.113868706
vn 0.99349576 0 0.113868706
vn 0.99349576 0 0.113868706
vn 0.99349576 0 0.113868706
vn -0.11386871 1.1602998E-07 0.9934958
vn -0.11386871 1.1602998E-07 0.9934958
vn -0.11386871 1.1602998E-07 0.9934958
vn -0.11386871 1.1602998E-07 0.9934958
vn -0.99349576 0 -0.113868706
vn -0.99349576 0 -0.113868706
vn -0.99349576 0 -0.113868706
vn -0.99349576 0 -0.113868706
vn 0.11386871 -1.1602998E-07 -0.9934958
vn 0.11386871 -1.1602998E-07 -0.9934958
vn 0.11386871 -1.1602998E-07 -0.9934958
vn 0.11386871 -1.1602998E-07 -0.9934958
vn -0 1 1.224757E-07
vn -0 1 1.224757E-07
vn -0 1 1.224757E-07
vn -0 1 1.224757E-07
vn -1 0 0
vn -1 0 0
vn -1 0 0
vn -1 0 0
vn -0 1.16029966E-07 -1
vn -0 1.16029966E-07 -1
vn -0 1.16029966E-07 -1
vn -0 1.16029966E-07 -1
vn 1 0 0
vn 1 0 0
vn 1 0 0
vn 1 0 0
vn -0 -1.16029966E-07 1
vn -0 -1.16029966E-07 1
vn -0 -1.16029966E-07 1
vn -0 -1.16029966E-07 1
vn -0 1 1.224757E-07
vn -0 1 1.224757E-07
vn -0 1 1.224757E-07
vn -0 1 1.224757E-07
vn -1 0 0
vn -1 0 0
vn -1 0 0
vn -1 0 0
vn -0 1.16029966E-07 -1
vn -0 1.16029966E-07 -1
vn -0 1.16029966E-07 -1
vn -0 1.16029966E-07 -1
vn 1 0 0
vn 1 0 0
vn 1 0 0
vn 1 0 0
vn -0 -1.16029966E-07 1
vn -0 -1.16029966E-07 1
vn -0 -1.16029966E-07 1
vn -0 -1.16029966E-07 1
vn -0 1 1.224757E-07
vn -0 1 1.224757E-07
vn -0 1 1.224757E-07
vn -0 1 1.224757E-07
vn -1 0 0
vn -1 0 0
vn -1 0 0
vn -1 0 0
vn -0 1.16029966E-07 -1
vn -0 1.16029966E-07 -1
vn -0 1.16029966E-07 -1
vn -0 1.16029966E-07 -1
vn 1 0 0
vn 1 0 0
vn 1 0 0
vn 1 0 0
vn -0 -1.16029966E-07 1
vn -0 -1.16029966E-07 1
vn -0 -1.16029966E-07 1
vn -0 -1.16029966E-07 1
vn -1.2247568E-07 1 -1.4600237E-14
vn -1.2247568E-07 1 -1.4600237E-14
vn -1.2247568E-07 1 -1.4600237E-14
vn -1.2247568E-07 1 -1.4600237E-14
vn 1.19209275E-07 0 -1
vn 1.19209275E-07 0 -1
vn 1.19209275E-07 0 -1
vn 1.19209275E-07 0 -1
vn 1 1.1602998E-07 1.19209275E-07
vn 1 1.1602998E-07 1.19209275E-07
vn 1 1.1602998E-07 1.19209275E-07
vn 1 1.1602998E-07 1.19209275E-07
vn -1.19209275E-07 0 1
vn -1.19209275E-07 0 1
vn -1.19209275E-07 0 1
vn -1.19209275E-07 0 1
vn -1 -1.1602998E-07 -1.19209275E-07
vn -1 -1.1602998E-07 -1.19209275E-07
vn -1 -1.1602998E-07 -1.19209275E-07
vn -1 -1.1602998E-07 -1.19209275E-07
vn 1.2247568E-07 1 -1.4600237E-14
vn 1.2247568E-07 1 -1.4600237E-14
vn 1.2247568E-07 1 -1.4600237E-14
vn 1.2247568E-07 1 -1.4600237E-14
vn 1.19209275E-07 0 1
vn 1.19209275E-07 0 1
vn 1.19209275E-07 0 1
vn 1.19209275E-07 0 1
vn -1 1.1602998E-07 1.19209275E-07
vn -1 1.1602998E-07 1.19209275E-07
vn -1 1.1602998E-07 1.19209275E-07
vn -1 1.1602998E-07 1.19209275E-07
vn -1.19209275E-07 0 -1
vn -1.19209275E-07 0 -1
vn -1.19209275E-07 0 -1
vn -1.19209275E-07 0 -1
vn 1 -1.1602998E-07 -1.19209275E-07
vn 1 -1.1602998E-07 -1.19209275E-07
vn 1 -1.1602998E-07 -1.19209275E-07
vn 1 -1.1602998E-07 -1.19209275E-07
vn -1.2247568E-07 1 -1.4600237E-14
vn -1.2247568E-07 1 -1.4600237E-14
vn -1.2247568E-07 1 -1.4600237E-14
vn -1.2247568E-07 1 -1.4600237E-14
vn 1.19209275E-07 0 -1
vn 1.19209275E-07 0 -1
vn 1.19209275E-07 0 -1
vn 1.19209275E-07 0 -1
vn 1 1.1602998E-07 1.19209275E-07
vn 1 1.1602998E-07 1.19209275E-07
vn 1 1.1602998E-07 1.19209275E-07
vn 1 1.1602998E-07 1.19209275E-07
vn -1.19209275E-07 0 1
vn -1.19209275E-07 0 1
vn -1.19209275E-07 0 1
vn -1.19209275E-07 0 1
vn -1 -1.1602998E-07 -1.19209275E-07
vn -1 -1.1602998E-07 -1.19209275E-07
vn -1 -1.1602998E-07 -1.19209275E-07
vn -1 -1.1602998E-07 -1.19209275E-07
vn -1.2247568E-07 1 -1.4600237E-14
vn -1.2247568E-07 1 -1.4600237E-14
vn -1.2247568E-07 1 -1.4600237E-14
vn -1.2247568E-07 1 -1.4600237E-14
vn 1.19209275E-07 0 -1
vn 1.19209275E-07 0 -1
vn 1.19209275E-07 0 -1
vn 1.19209275E-07 0 -1
vn 1 1.1602998E-07 1.19209275E-07
vn 1 1.1602998E-07 1.19209275E-07
vn 1 1.1602998E-07 1.19209275E-07
vn 1 1.1602998E-07 1.19209275E-07
vn -1.19209275E-07 0 1
vn -1.19209275E-07 0 1
vn -1.19209275E-07 0 1
vn -1.19209275E-07 0 1
vn -1 -1.1602998E-07 -1.19209275E-07
vn -1 -1.1602998E-07 -1.19209275E-07
vn -1 -1.1602998E-07 -1.19209275E-07
vn -1 -1.1602998E-07 -1.19209275E-07
vn 1.2247568E-07 1 -1.4600237E-14
vn 1.2247568E-07 1 -1.4600237E-14
vn 1.2247568E-07 1 -1.4600237E-14
vn 1.2247568E-07 1 -1.4600237E-14
vn 1.19209275E-07 0 1
vn 1.19209275E-07 0 1
vn 1.19209275E-07 0 1
vn 1.19209275E-07 0 1
vn -1 1.1602998E-07 1.19209275E-07
vn -1 1.1602998E-07 1.19209275E-07
vn -1 1.1602998E-07 1.19209275E-07
vn -1 1.1602998E-07 1.19209275E-07
vn -1.19209275E-07 0 -1
vn -1.19209275E-07 0 -1
vn -1.19209275E-07 0 -1
vn -1.19209275E-07 0 -1
vn 1 -1.1602998E-07 -1.19209275E-07
vn 1 -1.1602998E-07 -1.19209275E-07
vn 1 -1.1602998E-07 -1.19209275E-07
vn 1 -1.1602998E-07 -1.19209275E-07
vn -1.2247568E-07 1 -1.4600237E-14
vn -1.2247568E-07 1 -1.4600237E-14
vn -1.2247568E-07 1 -1.4600237E-14
vn -1.2247568E-07 1 -1.4600237E-14
vn 1.19209275E-07 0 -1
vn 1.19209275E-07 0 -1
vn 1.19209275E-07 0 -1
vn 1.19209275E-07 0 -1
vn 1 1.1602998E-07 1.19209275E-07
vn 1 1.1602998E-07 1.19209275E-07
vn 1 1.1602998E-07 1.19209275E-07
vn 1 1.1602998E-07 1.19209275E-07
vn -1.19209275E-07 0 1
vn -1.19209275E-07 0 1
vn -1.19209275E-07 0 1
vn -1.19209275E-07 0 1
vn -1 -1.1602998E-07 -1.19209275E-07
vn -1 -1.1602998E-07 -1.19209275E-07
vn -1 -1.1602998E-07 -1.19209275E-07
vn -1 -1.1602998E-07 -1.19209275E-07
g Hotel_OBJ_Level_Set_04_mesh_0
f 3/3/3 2/2/2 1/1/1
f 4/4/4 2/2/2 3/3/3
f 7/7/7 6/6/6 5/5/5
f 8/8/8 6/6/6 7/7/7
f 11/11/11 10/10/10 9/9/9
f 12/12/12 10/10/10 11/11/11
f 15/15/15 14/14/14 13/13/13
f 16/16/16 14/14/14 15/15/15
f 19/19/19 18/18/18 17/17/17
f 20/20/20 18/18/18 19/19/19
f 23/23/23 22/22/22 21/21/21
f 24/24/24 22/22/22 23/23/23
f 27/27/27 26/26/26 25/25/25
f 28/28/28 26/26/26 27/27/27
f 31/31/31 30/30/30 29/29/29
f 32/32/32 30/30/30 31/31/31
f 35/35/35 34/34/34 33/33/33
f 36/36/36 34/34/34 35/35/35
f 39/39/39 38/38/38 37/37/37
f 40/40/40 38/38/38 39/39/39
f 43/43/43 42/42/42 41/41/41
f 44/44/44 42/42/42 43/43/43
f 47/47/47 46/46/46 45/45/45
f 48/48/48 46/46/46 47/47/47
f 51/51/51 50/50/50 49/49/49
f 52/52/52 50/50/50 51/51/51
f 55/55/55 54/54/54 53/53/53
f 56/56/56 54/54/54 55/55/55
f 59/59/59 58/58/58 57/57/57
f 60/60/60 58/58/58 59/59/59
f 63/63/63 62/62/62 61/61/61
f 64/64/64 62/62/62 63/63/63
f 67/67/67 66/66/66 65/65/65
f 68/68/68 66/66/66 67/67/67
f 71/71/71 70/70/70 69/69/69
f 72/72/72 70/70/70 71/71/71
f 75/75/75 74/74/74 73/73/73
f 76/76/76 74/74/74 75/75/75
f 79/79/79 78/78/78 77/77/77
f 80/80/80 78/78/78 79/79/79
f 83/83/83 82/82/82 81/81/81
f 84/84/84 82/82/82 83/83/83
f 87/87/87 86/86/86 85/85/85
f 88/88/88 86/86/86 87/87/87
f 91/91/91 90/90/90 89/89/89
f 92/92/92 90/90/90 91/91/91
f 95/95/95 94/94/94 93/93/93
f 96/96/96 94/94/94 95/95/95
f 99/99/99 98/98/98 97/97/97
f 100/100/100 98/98/98 99/99/99
f 103/103/103 102/102/102 101/101/101
f 104/104/104 102/102/102 103/103/103
f 107/107/107 106/106/106 105/105/105
f 108/108/108 106/106/106 107/107/107
f 111/111/111 110/110/110 109/109/109
f 112/112/112 110/110/110 111/111/111
f 115/115/115 114/114/114 113/113/113
f 116/116/116 114/114/114 115/115/115
f 119/119/119 118/118/118 117/117/117
f 120/120/120 118/118/118 119/119/119
f 123/123/123 122/122/122 121/121/121
f 124/124/124 122/122/122 123/123/123
f 127/127/127 126/126/126 125/125/125
f 128/128/128 126/126/126 127/127/127
f 131/131/131 130/130/130 129/129/129
f 132/132/132 130/130/130 131/131/131
f 135/135/135 134/134/134 133/133/133
f 136/136/136 134/134/134 135/135/135
f 139/139/139 138/138/138 137/137/137
f 140/140/140 138/138/138 139/139/139
f 143/143/143 142/142/142 141/141/141
f 144/144/144 142/142/142 143/143/143
f 147/147/147 146/146/146 145/145/145
f 148/148/148 146/146/146 147/147/147
f 151/151/151 150/150/150 149/149/149
f 152/152/152 150/150/150 151/151/151
f 155/155/155 154/154/154 153/153/153
f 156/156/156 154/154/154 155/155/155
f 159/159/159 158/158/158 157/157/157
f 160/160/160 158/158/158 159/159/159
f 163/163/163 162/162/162 161/161/161
f 164/164/164 162/162/162 163/163/163
f 167/167/167 166/166/166 165/165/165
f 168/168/168 166/166/166 167/167/167
f 171/171/171 170/170/170 169/169/169
f 172/172/172 170/170/170 171/171/171
f 175/175/175 174/174/174 173/173/173
f 176/176/176 174/174/174 175/175/175
f 179/179/179 178/178/178 177/177/177
f 180/180/180 178/178/178 179/179/179
f 183/183/183 182/182/182 181/181/181
f 184/184/184 182/182/182 183/183/183
f 187/187/187 186/186/186 185/185/185
f 188/188/188 186/186/186 187/187/187
f 191/191/191 190/190/190 189/189/189
f 192/192/192 190/190/190 191/191/191
f 195/195/195 194/194/194 193/193/193
f 196/196/196 194/194/194 195/195/195
f 199/199/199 198/198/198 197/197/197
f 200/200/200 198/198/198 199/199/199
f 203/203/203 202/202/202 201/201/201
f 204/204/204 202/202/202 203/203/203
f 207/207/207 206/206/206 205/205/205
f 208/208/208 206/206/206 207/207/207
f 211/211/211 210/210/210 209/209/209
f 212/212/212 210/210/210 211/211/211
f 215/215/215 214/214/214 213/213/213
f 216/216/216 214/214/214 215/215/215
f 219/219/219 218/218/218 217/217/217
f 220/220/220 218/218/218 219/219/219
f 223/223/223 222/222/222 221/221/221
f 224/224/224 222/222/222 223/223/223
f 227/227/227 226/226/226 225/225/225
f 228/228/228 226/226/226 227/227/227
f 231/231/231 230/230/230 229/229/229
f 232/232/232 230/230/230 231/231/231
f 235/235/235 234/234/234 233/233/233
f 236/236/236 234/234/234 235/235/235
f 239/239/239 238/238/238 237/237/237
f 240/240/240 238/238/238 239/239/239
