g Hotel_STR_Fountain_01_Water_03
v 2.8911133 0.9593539 17.926483
v 2.9999151 0.13291992 17.926483
v 2.8911133 -0.6935144 17.926483
v 2.572122 1.7294683 17.926483
v 2.572122 -1.4636285 17.926483
v 2.064679 2.39078 17.926483
v 2.064679 -2.1249404 17.926483
v 1.4033673 2.8982232 17.926483
v 1.4033673 -2.632383 17.926483
v 0.63325286 3.2172143 17.926483
v 0.63325286 -2.9513748 17.926483
v -0.19318114 3.3260162 17.926483
v -0.19318114 -3.0601768 17.926483
v -1.0196154 3.2172143 17.926483
v -1.0196154 -2.9513748 17.926483
v -1.7897296 2.8982232 17.926483
v -1.7897296 -2.632383 17.926483
v -2.4510415 2.39078 17.926483
v -2.4510415 -2.1249404 17.926483
v -2.9584842 1.7294683 17.926483
v -2.9584842 -1.4636285 17.926483
v -3.2774758 0.9593539 17.926483
v -3.2774758 -0.6935144 17.926483
v -3.386278 0.13291992 17.926483
vt 0.69873047 0.5
vt 0.69970703 0.49072266
vt 0.69873047 0.48168945
vt 0.6948242 0.5083008
vt 0.6948242 0.47314453
vt 0.6894531 0.515625
vt 0.6894531 0.4658203
vt 0.6821289 0.5214844
vt 0.6821289 0.46020508
vt 0.6738281 0.52490234
vt 0.6738281 0.4567871
vt 0.6645508 0.5258789
vt 0.6645508 0.4555664
vt 0.65527344 0.52490234
vt 0.65527344 0.4567871
vt 0.64697266 0.5214844
vt 0.64697266 0.46020508
vt 0.63964844 0.515625
vt 0.63964844 0.4658203
vt 0.63378906 0.5083008
vt 0.63378906 0.47314453
vt 0.6303711 0.5
vt 0.6303711 0.48168945
vt 0.62939453 0.49072266
vn -0 0 1
vn -0 0 1
vn -0 0 1
vn -0 0 1
vn -0 0 1
vn -0 0 1
vn -0 0 1
vn -0 0 1
vn -0 0 1
vn -0 0 1
vn -0 0 1
vn -0 0 1
vn -0 0 1
vn -0 0 1
vn -0 0 1
vn -0 0 1
vn -0 0 1
vn -0 0 1
vn -0 0 1
vn -0 0 1
vn -0 0 1
vn -0 0 1
vn -0 0 1
vn -0 0 1
g Hotel_STR_Fountain_01_Water_03_0
f 3/3/3 2/2/2 1/1/1
f 1/1/1 4/4/4 3/3/3
f 4/4/4 5/5/5 3/3/3
f 4/4/4 6/6/6 5/5/5
f 6/6/6 7/7/7 5/5/5
f 6/6/6 8/8/8 7/7/7
f 8/8/8 9/9/9 7/7/7
f 8/8/8 10/10/10 9/9/9
f 10/10/10 11/11/11 9/9/9
f 10/10/10 12/12/12 11/11/11
f 12/12/12 13/13/13 11/11/11
f 12/12/12 14/14/14 13/13/13
f 14/14/14 15/15/15 13/13/13
f 14/14/14 16/16/16 15/15/15
f 16/16/16 17/17/17 15/15/15
f 16/16/16 18/18/18 17/17/17
f 18/18/18 19/19/19 17/17/17
f 18/18/18 20/20/20 19/19/19
f 20/20/20 21/21/21 19/19/19
f 20/20/20 22/22/22 21/21/21
f 22/22/22 23/23/23 21/21/21
f 22/22/22 24/24/24 23/23/23
