g Hotel_STR_Base_RegionBorder_03
v 61.94033 15.449629 0.20999938
v 61.74033 15.449629 0.20999938
v 61.74033 19.04474 0.20999938
v 61.94033 19.04474 0.20999938
v 61.94033 15.449629 0.20999938
v 61.94033 15.449629 0.19999939
v 61.74033 15.449629 0.19999939
v 61.74033 15.449629 0.20999938
v 61.74033 19.04474 0.19999939
v 61.94033 19.04474 0.19999939
v 61.94033 19.04474 0.20999938
v 61.74033 19.04474 0.20999938
vt -43.28125 -51
vt -43.28125 -51.0625
vt -44.1875 -51.0625
vt -44.1875 -51
vt -43.28125 -51
vt -43.28125 -51
vt -43.28125 -51.0625
vt -43.28125 -51.0625
vt -44.1875 -51.0625
vt -44.1875 -51
vt -44.1875 -51
vt -44.1875 -51.0625
vn -0 0 1
vn -0 0 1
vn -0 0 1
vn -0 0 1
vn -0 -1 0
vn -0 -1 0
vn -0 -1 0
vn -0 -1 0
vn -0 1 0
vn -0 1 0
vn -0 1 0
vn -0 1 0
g Hotel_STR_Base_RegionBorder_03_0
f 3/3/3 2/2/2 1/1/1
f 4/4/4 3/3/3 1/1/1
f 7/7/7 6/6/6 5/5/5
f 8/8/8 7/7/7 5/5/5
f 11/11/11 10/10/10 9/9/9
f 12/12/12 11/11/11 9/9/9
