g Archery_OBJ_WindVane_02
v -0.0071335123 -0.026007637 -0.023036575
v -0.01948924 0.020104552 -0.023036575
v -0.026622823 -0.0065183383 -0.023036575
v 0.026622947 0.007748828 -0.023036575
v 0.019489368 -0.018874057 -0.023036575
v 0.0071336436 0.027238132 -0.023036575
v 0.0071336436 0.027238132 -0.023036575
v 0.026622947 0.007748828 0.01967598
v 0.0071336436 0.027238132 0.01967598
v 0.026622947 0.007748828 -0.023036575
v -0.01948924 0.020104552 -0.023036575
v 0.0071336436 0.027238132 0.01967598
v -0.01948924 0.020104552 0.01967598
v 0.0071336436 0.027238132 -0.023036575
v -0.026622823 -0.0065183383 -0.023036575
v -0.01948924 0.020104552 0.01967598
v -0.026622823 -0.0065183383 0.01967598
v -0.01948924 0.020104552 -0.023036575
v -0.0071335123 -0.026007637 -0.023036575
v -0.026622823 -0.0065183383 0.01967598
v -0.0071335123 -0.026007637 0.01967598
v -0.026622823 -0.0065183383 -0.023036575
v 0.019489368 -0.018874057 -0.023036575
v -0.0071335123 -0.026007637 0.01967598
v 0.019489368 -0.018874057 0.01967598
v -0.0071335123 -0.026007637 -0.023036575
v 0.026622947 0.007748828 -0.023036575
v 0.019489368 -0.018874057 0.01967598
v 0.026622947 0.007748828 0.01967598
v 0.019489368 -0.018874057 -0.023036575
v 0.016809346 0.005119281 0.045686875
v -0.012305184 0.012920492 0.045686875
v 0.004504095 0.017424528 0.045686875
v -0.004503966 -0.016194036 0.045686875
v 0.012305309 -0.011690004 0.045686875
v -0.016809216 -0.003888789 0.045686875
v 0.008249004 0.031400725 0.029417342
v 0.030785538 0.0088641895 0.020168152
v 0.030785538 0.0088641895 0.029417342
v 0.008249004 0.031400725 0.020168152
v -0.022536468 0.023151774 0.029417342
v 0.008249004 0.031400725 0.020168152
v 0.008249004 0.031400725 0.029417342
v -0.022536468 0.023151774 0.020168152
v -0.030785538 -0.0076341927 0.029417342
v -0.022536468 0.023151774 0.020168152
v -0.022536468 0.023151774 0.029417342
v -0.030785281 -0.007633209 0.020168152
v -0.0082485145 -0.030170588 0.029417342
v -0.030785281 -0.007633209 0.020168152
v -0.030785538 -0.0076341927 0.029417342
v -0.0082485145 -0.030170588 0.020168152
v 0.022536594 -0.021921288 0.029417342
v -0.0082485145 -0.030170588 0.020168152
v -0.0082485145 -0.030170588 0.029417342
v 0.022536594 -0.021921288 0.020168152
v 0.030785538 0.0088641895 0.029417342
v 0.022536594 -0.021921288 0.020168152
v 0.022536594 -0.021921288 0.029417342
v 0.030785538 0.0088641895 0.020168152
v 0.026622947 0.007748828 0.029909514
v 0.022536594 -0.021921288 0.029417342
v 0.019489368 -0.018874057 0.029909514
v 0.030785538 0.0088641895 0.029417342
v 0.0071336436 0.027238132 0.029909514
v 0.008249004 0.031400725 0.029417342
v -0.01948924 0.020104552 0.029909514
v -0.022536468 0.023151774 0.029417342
v -0.026622823 -0.0065183383 0.029909514
v -0.030785538 -0.0076341927 0.029417342
v -0.0071335123 -0.026007637 0.029909514
v -0.0082485145 -0.030170588 0.029417342
v 0.019489368 -0.018874057 0.029909514
v 0.022536594 -0.021921288 0.029417342
v -0.0071335123 -0.026007637 0.01967598
v 0.022536594 -0.021921288 0.020168152
v 0.019489368 -0.018874057 0.01967598
v -0.0082485145 -0.030170588 0.020168152
v -0.026622823 -0.0065183383 0.01967598
v -0.030785281 -0.007633209 0.020168152
v -0.01948924 0.020104552 0.01967598
v -0.022536468 0.023151774 0.020168152
v 0.0071336436 0.027238132 0.01967598
v 0.008249004 0.031400725 0.020168152
v 0.026622947 0.007748828 0.01967598
v 0.030785538 0.0088641895 0.020168152
v 0.019489368 -0.018874057 0.01967598
v 0.022536594 -0.021921288 0.020168152
v 0.026622947 0.007748828 0.029909514
v 0.004504095 0.017424528 0.045686875
v 0.0071336436 0.027238132 0.029909514
v 0.016809346 0.005119281 0.045686875
v 0.0071336436 0.027238132 0.029909514
v -0.012305184 0.012920492 0.045686875
v -0.01948924 0.020104552 0.029909514
v 0.004504095 0.017424528 0.045686875
v -0.01948924 0.020104552 0.029909514
v -0.016809216 -0.003888789 0.045686875
v -0.026622823 -0.0065183383 0.029909514
v -0.012305184 0.012920492 0.045686875
v -0.026622823 -0.0065183383 0.029909514
v -0.004503966 -0.016194036 0.045686875
v -0.0071335123 -0.026007637 0.029909514
v -0.016809216 -0.003888789 0.045686875
v -0.0071335123 -0.026007637 0.029909514
v 0.012305309 -0.011690004 0.045686875
v 0.019489368 -0.018874057 0.029909514
v -0.004503966 -0.016194036 0.045686875
v 0.019489368 -0.018874057 0.029909514
v 0.016809346 0.005119281 0.045686875
v 0.026622947 0.007748828 0.029909514
v 0.012305309 -0.011690004 0.045686875
v -0.0048825 -0.4214547 -0.0053744507
v 0.005545747 0.4230049 -0.0053744507
v -0.004882519 0.42300487 -0.0053744507
v 0.005545766 -0.4214547 -0.0053744507
v -0.0048825 -0.4214547 0.005374603
v 0.005545747 0.4230049 0.005374603
v 0.005545766 -0.4214547 0.005374603
v -0.004882519 0.42300487 0.005374603
v -0.0048825 -0.4214547 -0.0053744507
v 0.005545766 -0.4214547 0.005374603
v 0.005545766 -0.4214547 -0.0053744507
v -0.0048825 -0.4214547 0.005374603
v 0.005545766 -0.4214547 -0.0053744507
v 0.005545747 0.4230049 0.005374603
v 0.005545747 0.4230049 -0.0053744507
v 0.005545766 -0.4214547 0.005374603
v -0.004882519 0.42300487 -0.0053744507
v -0.0048825 -0.4214547 0.005374603
v -0.0048825 -0.4214547 -0.0053744507
v -0.004882519 0.42300487 0.005374603
v -0.0023488067 -0.37219867 0.056236226
v -0.0023488067 -0.21437825 0.00215271
v -0.002348802 -0.2578125 0.056236226
v -0.0023488067 -0.37219867 0.00215271
v 0.0033988832 -0.3721987 0.056236226
v 0.0033988548 -0.21437824 0.00215271
v 0.0033988832 -0.3721987 0.00215271
v 0.0033988643 -0.2578125 0.056236226
v -0.0023488067 -0.37219867 0.056236226
v 0.0033988832 -0.3721987 0.00215271
v -0.0023488067 -0.37219867 0.00215271
v 0.0033988832 -0.3721987 0.056236226
v -0.0023488067 -0.21437825 0.00215271
v 0.0033988643 -0.2578125 0.056236226
v -0.002348802 -0.2578125 0.056236226
v 0.0033988548 -0.21437824 0.00215271
v -0.002348802 -0.2578125 0.056236226
v 0.0033988832 -0.3721987 0.056236226
v -0.0023488067 -0.37219867 0.056236226
v 0.0033988643 -0.2578125 0.056236226
v -0.0023488067 -0.37219867 -0.057215095
v -0.0023488067 -0.21437825 -0.0031315754
v -0.0023488067 -0.37219867 -0.0031315754
v -0.002348802 -0.2578125 -0.057215095
v 0.0033988832 -0.3721987 -0.057215095
v 0.0033988548 -0.21437824 -0.0031315754
v 0.0033988643 -0.2578125 -0.057215095
v 0.0033988832 -0.3721987 -0.0031315754
v -0.0023488067 -0.37219867 -0.057215095
v 0.0033988832 -0.3721987 -0.0031315754
v 0.0033988832 -0.3721987 -0.057215095
v -0.0023488067 -0.37219867 -0.0031315754
v -0.0023488067 -0.21437825 -0.0031315754
v 0.0033988643 -0.2578125 -0.057215095
v 0.0033988548 -0.21437824 -0.0031315754
v -0.002348802 -0.2578125 -0.057215095
v -0.002348802 -0.2578125 -0.057215095
v 0.0033988832 -0.3721987 -0.057215095
v 0.0033988643 -0.2578125 -0.057215095
v -0.0023488067 -0.37219867 -0.057215095
v 0.008883131 0.34726143 0
v 0.008883139 0.33757237 -0.06433338
v 0.008883139 0.33485207 -0.062655754
v 0.008883131 0.37932086 -0.03185768
v 0.008883131 0.33485207 0.06265572
v 0.008883131 0.3793209 0.031857606
v 0.008883131 0.33757237 0.06433334
v 0.00888314 0.4837219 0.0018729782
v 0.00888314 0.4837219 -0.0018730544
v 0.008883131 0.37932086 -0.03185768
v -0.011279537 0.48372188 -0.0018730926
v -0.011279537 0.3793209 -0.03185768
v 0.00888314 0.4837219 -0.0018730544
v -0.011279547 0.33485207 -0.062655754
v 0.008883131 0.34726143 0
v 0.008883139 0.33485207 -0.062655754
v -0.011279547 0.34726143 0
v 0.008883131 0.33485207 0.06265572
v -0.011279542 0.3348521 0.06265572
v -0.011279542 0.3375724 0.06433334
v 0.008883131 0.3793209 0.031857606
v 0.008883131 0.33757237 0.06433334
v -0.011279537 0.3793209 0.031857606
v 0.00888314 0.4837219 0.0018729782
v -0.011279537 0.48372188 0.00187294
v -0.011279537 0.3793209 -0.03185768
v -0.011279547 0.33485207 -0.062655754
v -0.011279546 0.33757237 -0.06433338
v -0.011279547 0.34726143 0
v -0.011279542 0.3375724 0.06433334
v -0.011279542 0.3348521 0.06265572
v -0.011279537 0.3793209 0.031857606
v -0.011279537 0.48372188 -0.0018730926
v -0.011279537 0.48372188 0.00187294
v 0.008883139 0.33757237 -0.06433338
v -0.011279537 0.3793209 -0.03185768
v -0.011279546 0.33757237 -0.06433338
v 0.008883131 0.37932086 -0.03185768
v -0.011279537 0.48372188 -0.0018730926
v 0.00888314 0.4837219 0.0018729782
v -0.011279537 0.48372188 0.00187294
v 0.00888314 0.4837219 -0.0018730544
v 0.008883139 0.33757237 -0.06433338
v -0.011279547 0.33485207 -0.062655754
v 0.008883139 0.33485207 -0.062655754
v -0.011279546 0.33757237 -0.06433338
v 0.008883131 0.33485207 0.06265572
v -0.011279542 0.3375724 0.06433334
v 0.008883131 0.33757237 0.06433334
v -0.011279542 0.3348521 0.06265572
vt 0.69921875 0.41918945
vt 0.703125 0.4345703
vt 0.7050781 0.4255371
vt 0.6894531 0.4309082
vt 0.69140625 0.421875
vt 0.6953125 0.43725586
vt 0.7055664 0.5683594
vt 0.6904297 0.5571289
vt 0.6904297 0.5683594
vt 0.7055664 0.5571289
vt 0.7055664 0.5800781
vt 0.6904297 0.5683594
vt 0.6904297 0.5800781
vt 0.7055664 0.5683594
vt 0.7055664 0.5913086
vt 0.6904297 0.5800781
vt 0.6904297 0.5913086
vt 0.7055664 0.5800781
vt 0.7055664 0.60302734
vt 0.6904297 0.5913086
vt 0.6904297 0.60302734
vt 0.7055664 0.5913086
vt 0.7055664 0.6142578
vt 0.6904297 0.60302734
vt 0.6904297 0.6142578
vt 0.7055664 0.60302734
vt 0.7055664 0.5571289
vt 0.6904297 0.54589844
vt 0.6904297 0.5571289
vt 0.7055664 0.54589844
vt 0.6899414 0.57421875
vt 0.69873047 0.56347656
vt 0.69140625 0.56591797
vt 0.7026367 0.578125
vt 0.6953125 0.5805664
vt 0.70410156 0.56933594
vt 0.69628906 0.4802246
vt 0.7026367 0.46044922
vt 0.69628906 0.46044922
vt 0.7026367 0.4802246
vt 0.69628906 0.5
vt 0.7026367 0.4802246
vt 0.69628906 0.4802246
vt 0.7026367 0.5
vt 0.69628906 0.5209961
vt 0.7026367 0.5
vt 0.69628906 0.5
vt 0.7026367 0.5209961
vt 0.69628906 0.54541016
vt 0.7026367 0.5209961
vt 0.69628906 0.5209961
vt 0.7026367 0.54541016
vt 0.69628906 0.57177734
vt 0.7026367 0.54541016
vt 0.69628906 0.54541016
vt 0.7026367 0.57177734
vt 0.69628906 0.46044922
vt 0.7026367 0.43847656
vt 0.69628906 0.43847656
vt 0.7026367 0.46044922
vt 0.6904297 0.46044922
vt 0.69628906 0.43847656
vt 0.6904297 0.43847656
vt 0.69628906 0.46044922
vt 0.6904297 0.4802246
vt 0.69628906 0.4802246
vt 0.6904297 0.5
vt 0.69628906 0.5
vt 0.6904297 0.5209961
vt 0.69628906 0.5209961
vt 0.6904297 0.54541016
vt 0.69628906 0.54541016
vt 0.6904297 0.57177734
vt 0.69628906 0.57177734
vt 0.7055664 0.54541016
vt 0.7026367 0.57177734
vt 0.7055664 0.57177734
vt 0.7026367 0.54541016
vt 0.7055664 0.5209961
vt 0.7026367 0.5209961
vt 0.7055664 0.5
vt 0.7026367 0.5
vt 0.7055664 0.4802246
vt 0.7026367 0.4802246
vt 0.7055664 0.46044922
vt 0.7026367 0.46044922
vt 0.7055664 0.43847656
vt 0.7026367 0.43847656
vt 0.7050781 0.40942383
vt 0.6894531 0.43139648
vt 0.7050781 0.43139648
vt 0.6894531 0.40942383
vt 0.7050781 0.43139648
vt 0.6894531 0.453125
vt 0.7050781 0.453125
vt 0.6894531 0.43139648
vt 0.7050781 0.453125
vt 0.6894531 0.47509766
vt 0.7050781 0.47509766
vt 0.6894531 0.453125
vt 0.7050781 0.47509766
vt 0.6894531 0.4970703
vt 0.7050781 0.4970703
vt 0.6894531 0.47509766
vt 0.7050781 0.4970703
vt 0.6894531 0.51708984
vt 0.7050781 0.51708984
vt 0.6894531 0.4970703
vt 0.7050781 0.38256836
vt 0.6894531 0.40942383
vt 0.7050781 0.40942383
vt 0.6894531 0.38256836
vt 0.7260742 0.34936523
vt 0.72021484 0.68896484
vt 0.7260742 0.68896484
vt 0.72021484 0.34936523
vt 0.72021484 0.34985352
vt 0.7260742 0.6899414
vt 0.7260742 0.34985352
vt 0.72021484 0.6899414
vt 0.7192383 0.44873047
vt 0.7260742 0.4555664
vt 0.7260742 0.44873047
vt 0.7192383 0.4555664
vt 0.7260742 0.34985352
vt 0.72021484 0.6899414
vt 0.7260742 0.6899414
vt 0.72021484 0.34985352
vt 0.72021484 0.6899414
vt 0.7260742 0.35009766
vt 0.72021484 0.35009766
vt 0.7260742 0.6899414
vt 0.72802734 0.42114258
vt 0.7182617 0.39208984
vt 0.72802734 0.39990234
vt 0.7182617 0.42114258
vt 0.72802734 0.42114258
vt 0.7182617 0.39208984
vt 0.7182617 0.42114258
vt 0.72802734 0.39990234
vt 0.6948242 0.44677734
vt 0.69970703 0.40478516
vt 0.6953125 0.40478516
vt 0.69970703 0.44677734
vt 0.6948242 0.58935547
vt 0.69970703 0.53564453
vt 0.6948242 0.53564453
vt 0.69970703 0.58935547
vt 0.6948242 0.53564453
vt 0.69970703 0.44677734
vt 0.6948242 0.44677734
vt 0.69970703 0.53564453
vt 0.72802734 0.42114258
vt 0.7182617 0.39208984
vt 0.7182617 0.42114258
vt 0.72802734 0.39990234
vt 0.72802734 0.42114258
vt 0.7182617 0.39208984
vt 0.72802734 0.39990234
vt 0.7182617 0.42114258
vt 0.6948242 0.44677734
vt 0.69970703 0.40478516
vt 0.69970703 0.44677734
vt 0.6953125 0.40478516
vt 0.6948242 0.58935547
vt 0.69970703 0.53564453
vt 0.69970703 0.58935547
vt 0.6948242 0.53564453
vt 0.6948242 0.53564453
vt 0.69970703 0.44677734
vt 0.69970703 0.53564453
vt 0.6948242 0.44677734
vt 0.72314453 0.42773438
vt 0.7163086 0.42822266
vt 0.7163086 0.42871094
vt 0.72021484 0.42407227
vt 0.7294922 0.42944336
vt 0.7265625 0.42456055
vt 0.72998047 0.42919922
vt 0.7241211 0.41333008
vt 0.7236328 0.41308594
vt 0.7260742 0.54345703
vt 0.7192383 0.50634766
vt 0.7192383 0.54345703
vt 0.7260742 0.50634766
vt 0.7192383 0.37939453
vt 0.7260742 0.4013672
vt 0.7260742 0.37939453
vt 0.7192383 0.4013672
vt 0.7260742 0.4128418
vt 0.7192383 0.4128418
vt 0.7192383 0.42236328
vt 0.7260742 0.44995117
vt 0.7260742 0.42236328
vt 0.7192383 0.44995117
vt 0.7260742 0.46923828
vt 0.7192383 0.46923828
vt 0.72021484 0.41967773
vt 0.71728516 0.41455078
vt 0.71728516 0.41503906
vt 0.7241211 0.4165039
vt 0.73095703 0.41577148
vt 0.73046875 0.41552734
vt 0.7270508 0.41992188
vt 0.72265625 0.4309082
vt 0.72314453 0.4309082
vt 0.7260742 0.36791992
vt 0.7192383 0.3557129
vt 0.7192383 0.36791992
vt 0.7260742 0.3557129
vt 0.7192383 0.50634766
vt 0.7260742 0.46923828
vt 0.7192383 0.46923828
vt 0.7260742 0.50634766
vt 0.7260742 0.36791992
vt 0.7192383 0.37939453
vt 0.7260742 0.37939453
vt 0.7192383 0.36791992
vt 0.7260742 0.4128418
vt 0.7192383 0.42236328
vt 0.7260742 0.42236328
vt 0.7192383 0.4128418
vn -0 0 -1
vn -0 0 -1
vn -0 0 -1
vn -0 0 -1
vn -0 0 -1
vn -0 0 -1
vn 0.70703125 0.70703125 0
vn 0.70703125 0.70703125 0
vn 0.70703125 0.70703125 0
vn 0.70703125 0.70703125 0
vn -0.25878906 0.9658203 0
vn -0.25878906 0.9658203 0
vn -0.25878906 0.9658203 0
vn -0.25878906 0.9658203 0
vn -0.9658203 0.25878906 0
vn -0.9658203 0.25878906 0
vn -0.9658203 0.25878906 0
vn -0.9658203 0.25878906 0
vn -0.70703125 -0.70703125 0
vn -0.70703125 -0.70703125 0
vn -0.70703125 -0.70703125 0
vn -0.70703125 -0.70703125 0
vn 0.25878906 -0.9658203 0
vn 0.25878906 -0.9658203 0
vn 0.25878906 -0.9658203 0
vn 0.25878906 -0.9658203 0
vn 0.9658203 -0.25878906 0
vn 0.9658203 -0.25878906 0
vn 0.9658203 -0.25878906 0
vn 0.9658203 -0.25878906 0
vn -0 0 1
vn -0 0 1
vn -0 0 1
vn -0 0 1
vn -0 0 1
vn -0 0 1
vn 0.70703125 0.70703125 0
vn 0.70703125 0.70703125 0
vn 0.70703125 0.70703125 0
vn 0.70703125 0.70703125 0
vn -0.25878906 0.9658203 0
vn -0.25878906 0.9658203 0
vn -0.25878906 0.9658203 0
vn -0.25878906 0.9658203 0
vn -0.9658203 0.25878906 5.364418E-07
vn -0.9658203 0.25878906 1.1920929E-07
vn -0.9658203 0.25878906 0
vn -0.9658203 0.25878906 6.556511E-07
vn -0.70703125 -0.70703125 -1.7046928E-05
vn -0.70703125 -0.70703125 -7.7843666E-05
vn -0.70703125 -0.70703125 -9.4890594E-05
vn -0.70703125 -0.70703125 0
vn 0.25878906 -0.9658203 0
vn 0.25878906 -0.9658203 0
vn 0.25878906 -0.9658203 0
vn 0.25878906 -0.9658203 0
vn 0.9658203 -0.25878906 0
vn 0.9658203 -0.25878906 0
vn 0.9658203 -0.25878906 0
vn 0.9658203 -0.25878906 0
vn 0.10961914 0.029373169 0.99365234
vn 0.08026123 -0.08026123 0.99365234
vn 0.08026123 -0.08026123 0.99365234
vn 0.10961914 0.029373169 0.99365234
vn 0.029373169 0.10961914 0.99365234
vn 0.029373169 0.10961914 0.99365234
vn -0.08026123 0.08026123 0.99365234
vn -0.08026123 0.08026123 0.99365234
vn -0.10961914 -0.02935791 0.99365234
vn -0.10961914 -0.029373169 0.99365234
vn -0.029373169 -0.10961914 0.99365234
vn -0.02935791 -0.10961914 0.99365234
vn 0.08026123 -0.08026123 0.99365234
vn 0.08026123 -0.08026123 0.99365234
vn -0.029373169 -0.10961914 -0.99365234
vn 0.08026123 -0.08026123 -0.99365234
vn 0.08026123 -0.08026123 -0.99365234
vn -0.02935791 -0.10961914 -0.99365234
vn -0.10961914 -0.029373169 -0.99365234
vn -0.10961914 -0.029373169 -0.99365234
vn -0.08026123 0.08026123 -0.99365234
vn -0.08026123 0.08026123 -0.99365234
vn 0.029373169 0.10961914 -0.99365234
vn 0.029373169 0.10961914 -0.99365234
vn 0.10961914 0.029373169 -0.99365234
vn 0.10961914 0.029373169 -0.99365234
vn 0.08026123 -0.08026123 -0.99365234
vn 0.08026123 -0.08026123 -0.99365234
vn 0.6176758 0.6176758 0.48706055
vn 0.6176758 0.6176758 0.48706055
vn 0.6176758 0.6176758 0.48706055
vn 0.6176758 0.6176758 0.48706055
vn -0.22607422 0.84375 0.48706055
vn -0.22607422 0.84375 0.48706055
vn -0.22607422 0.84375 0.48706055
vn -0.22607422 0.84375 0.48706055
vn -0.84375 0.22607422 0.48706055
vn -0.84375 0.22607422 0.48706055
vn -0.84375 0.22607422 0.48706055
vn -0.84375 0.22607422 0.48706055
vn -0.6176758 -0.6176758 0.48706055
vn -0.6176758 -0.6176758 0.48706055
vn -0.6176758 -0.6176758 0.48706055
vn -0.6176758 -0.6176758 0.48706055
vn 0.22607422 -0.84375 0.48706055
vn 0.22607422 -0.84375 0.48706055
vn 0.22607422 -0.84375 0.48706055
vn 0.22607422 -0.84375 0.48706055
vn 0.84375 -0.22607422 0.48706055
vn 0.84375 -0.22607422 0.48706055
vn 0.84375 -0.22607422 0.48706055
vn 0.84375 -0.22607422 0.48706055
vn -0 0 -1
vn -0 0 -1
vn -0 0 -1
vn -0 0 -1
vn -0 0 1
vn -0 0 1
vn -0 0 1
vn -0 0 1
vn -0 -1 0
vn -0 -1 0
vn -0 -1 0
vn -0 -1 0
vn 1 0 0
vn 1 0 0
vn 1 0 0
vn 1 0 0
vn -1 0 0
vn -1 0 0
vn -1 0 0
vn -1 0 0
vn -1 0 0
vn -1 0 0
vn -1 0 1.1920929E-07
vn -1 0 0
vn 1 1.7881393E-07 0
vn 1 1.7881393E-07 0
vn 1 1.7881393E-07 0
vn 1 1.7881393E-07 0
vn -6.6161156E-06 -1 0
vn -6.6161156E-06 -1 0
vn -6.6161156E-06 -1 0
vn -6.6161156E-06 -1 0
vn -2.5629997E-06 0.77978516 0.62597656
vn -2.5629997E-06 0.77978516 0.62597656
vn -2.5629997E-06 0.77978516 0.62597656
vn -2.5629997E-06 0.77978516 0.62597656
vn -0 0 1
vn -0 0 1
vn -0 0 1
vn -0 0 1
vn -1 0 0
vn -1 0 0
vn -1 0 0
vn -1 0 -1.1920929E-07
vn 1 1.7881393E-07 0
vn 1 1.7881393E-07 0
vn 1 1.7881393E-07 0
vn 1 1.7881393E-07 0
vn -6.6161156E-06 -1 0
vn -6.6161156E-06 -1 0
vn -6.6161156E-06 -1 0
vn -6.6161156E-06 -1 0
vn -2.5629997E-06 0.77978516 -0.62597656
vn -2.5629997E-06 0.77978516 -0.62597656
vn -2.5629997E-06 0.77978516 -0.62597656
vn -2.5629997E-06 0.77978516 -0.62597656
vn -0 0 -1
vn -0 0 -1
vn -0 0 -1
vn -0 0 -1
vn 1 0 0
vn 1 0 1.1920929E-07
vn 1 0 1.1920929E-07
vn 1 0 0
vn 1 0 0
vn 1 0 0
vn 1 0 0
vn 1 0 0
vn 1 0 0
vn 8.940697E-07 0.453125 -0.89160156
vn 1.1920929E-06 0.27612305 -0.9609375
vn 7.1525574E-07 0.453125 -0.89160156
vn 1.3113022E-06 0.27612305 -0.9609375
vn -0 -0.98095703 0.19433594
vn -0 -1 0
vn -0 -0.98095703 0.19433594
vn -1.7881393E-07 -1 0
vn -1.4901161E-06 -0.98095703 -0.19433594
vn -1.847744E-06 -0.98095703 -0.19433594
vn 8.940697E-07 0.61376953 0.7895508
vn 1.1920929E-07 0.453125 0.89160156
vn 1.1324883E-06 0.61376953 0.7895508
vn -1.1920929E-07 0.453125 0.89160156
vn -2.0861626E-06 0.27612305 0.9609375
vn -2.3245811E-06 0.27612305 0.9609375
vn -1 1.7881393E-07 0
vn -1 2.9802322E-07 -1.1920929E-07
vn -1 3.5762787E-07 -1.7881393E-07
vn -1 3.5762787E-07 0
vn -1 0 0
vn -1 0 0
vn -1 0 0
vn -1 0 0
vn -1 0 0
vn 2.9802322E-07 0.61376953 -0.7895508
vn 7.1525574E-07 0.453125 -0.89160156
vn -0 0.61376953 -0.7895508
vn 8.940697E-07 0.453125 -0.89160156
vn -1.9073486E-06 1 0
vn -1.9073486E-06 1 0
vn -1.9073486E-06 1 0
vn -1.9073486E-06 1 0
vn -0 -0.52490234 -0.8510742
vn -0 -0.52490234 -0.8510742
vn -0 -0.52490234 -0.8510742
vn -0 -0.52490234 -0.8510742
vn -1.013279E-06 -0.52490234 0.8510742
vn -1.013279E-06 -0.52490234 0.8510742
vn -1.013279E-06 -0.52490234 0.8510742
vn -1.013279E-06 -0.52490234 0.8510742
g Archery_OBJ_WindVane_02_0
f 3/3/3 2/2/2 1/1/1
f 2/2/2 4/4/4 1/1/1
f 1/1/1 4/4/4 5/5/5
f 6/6/6 4/4/4 2/2/2
f 9/9/9 8/8/8 7/7/7
f 10/10/10 7/7/7 8/8/8
f 13/13/13 12/12/12 11/11/11
f 14/14/14 11/11/11 12/12/12
f 17/17/17 16/16/16 15/15/15
f 18/18/18 15/15/15 16/16/16
f 21/21/21 20/20/20 19/19/19
f 22/22/22 19/19/19 20/20/20
f 25/25/25 24/24/24 23/23/23
f 26/26/26 23/23/23 24/24/24
f 29/29/29 28/28/28 27/27/27
f 30/30/30 27/27/27 28/28/28
f 33/33/33 32/32/32 31/31/31
f 32/32/32 34/34/34 31/31/31
f 31/31/31 34/34/34 35/35/35
f 36/36/36 34/34/34 32/32/32
f 39/39/39 38/38/38 37/37/37
f 40/40/40 37/37/37 38/38/38
f 43/43/43 42/42/42 41/41/41
f 44/44/44 41/41/41 42/42/42
f 47/47/47 46/46/46 45/45/45
f 48/48/48 45/45/45 46/46/46
f 51/51/51 50/50/50 49/49/49
f 52/52/52 49/49/49 50/50/50
f 55/55/55 54/54/54 53/53/53
f 56/56/56 53/53/53 54/54/54
f 59/59/59 58/58/58 57/57/57
f 60/60/60 57/57/57 58/58/58
f 63/63/63 62/62/62 61/61/61
f 64/64/64 61/61/61 62/62/62
f 61/61/61 64/64/64 65/65/65
f 66/66/66 65/65/65 64/64/64
f 65/65/65 66/66/66 67/67/67
f 68/68/68 67/67/67 66/66/66
f 67/67/67 68/68/68 69/69/69
f 70/70/70 69/69/69 68/68/68
f 69/69/69 70/70/70 71/71/71
f 72/72/72 71/71/71 70/70/70
f 71/71/71 72/72/72 73/73/73
f 74/74/74 73/73/73 72/72/72
f 77/77/77 76/76/76 75/75/75
f 78/78/78 75/75/75 76/76/76
f 75/75/75 78/78/78 79/79/79
f 80/80/80 79/79/79 78/78/78
f 79/79/79 80/80/80 81/81/81
f 82/82/82 81/81/81 80/80/80
f 81/81/81 82/82/82 83/83/83
f 84/84/84 83/83/83 82/82/82
f 83/83/83 84/84/84 85/85/85
f 86/86/86 85/85/85 84/84/84
f 85/85/85 86/86/86 87/87/87
f 88/88/88 87/87/87 86/86/86
f 91/91/91 90/90/90 89/89/89
f 92/92/92 89/89/89 90/90/90
f 95/95/95 94/94/94 93/93/93
f 96/96/96 93/93/93 94/94/94
f 99/99/99 98/98/98 97/97/97
f 100/100/100 97/97/97 98/98/98
f 103/103/103 102/102/102 101/101/101
f 104/104/104 101/101/101 102/102/102
f 107/107/107 106/106/106 105/105/105
f 108/108/108 105/105/105 106/106/106
f 111/111/111 110/110/110 109/109/109
f 112/112/112 109/109/109 110/110/110
f 115/115/115 114/114/114 113/113/113
f 116/116/116 113/113/113 114/114/114
f 119/119/119 118/118/118 117/117/117
f 120/120/120 117/117/117 118/118/118
f 123/123/123 122/122/122 121/121/121
f 124/124/124 121/121/121 122/122/122
f 127/127/127 126/126/126 125/125/125
f 128/128/128 125/125/125 126/126/126
f 131/131/131 130/130/130 129/129/129
f 132/132/132 129/129/129 130/130/130
f 135/135/135 134/134/134 133/133/133
f 136/136/136 133/133/133 134/134/134
f 139/139/139 138/138/138 137/137/137
f 140/140/140 137/137/137 138/138/138
f 143/143/143 142/142/142 141/141/141
f 144/144/144 141/141/141 142/142/142
f 147/147/147 146/146/146 145/145/145
f 148/148/148 145/145/145 146/146/146
f 151/151/151 150/150/150 149/149/149
f 152/152/152 149/149/149 150/150/150
f 155/155/155 154/154/154 153/153/153
f 156/156/156 153/153/153 154/154/154
f 159/159/159 158/158/158 157/157/157
f 160/160/160 157/157/157 158/158/158
f 163/163/163 162/162/162 161/161/161
f 164/164/164 161/161/161 162/162/162
f 167/167/167 166/166/166 165/165/165
f 168/168/168 165/165/165 166/166/166
f 171/171/171 170/170/170 169/169/169
f 172/172/172 169/169/169 170/170/170
f 175/175/175 174/174/174 173/173/173
f 174/174/174 176/176/176 173/173/173
f 173/173/173 176/176/176 177/177/177
f 176/176/176 178/178/178 177/177/177
f 177/177/177 178/178/178 179/179/179
f 178/178/178 176/176/176 180/180/180
f 181/181/181 180/180/180 176/176/176
f 184/184/184 183/183/183 182/182/182
f 185/185/185 182/182/182 183/183/183
f 188/188/188 187/187/187 186/186/186
f 189/189/189 186/186/186 187/187/187
f 187/187/187 190/190/190 189/189/189
f 191/191/191 189/189/189 190/190/190
f 194/194/194 193/193/193 192/192/192
f 195/195/195 192/192/192 193/193/193
f 193/193/193 196/196/196 195/195/195
f 197/197/197 195/195/195 196/196/196
f 200/200/200 199/199/199 198/198/198
f 199/199/199 201/201/201 198/198/198
f 198/198/198 201/201/201 202/202/202
f 202/202/202 201/201/201 203/203/203
f 204/204/204 198/198/198 202/202/202
f 198/198/198 204/204/204 205/205/205
f 206/206/206 205/205/205 204/204/204
f 209/209/209 208/208/208 207/207/207
f 210/210/210 207/207/207 208/208/208
f 213/213/213 212/212/212 211/211/211
f 214/214/214 211/211/211 212/212/212
f 217/217/217 216/216/216 215/215/215
f 218/218/218 215/215/215 216/216/216
f 221/221/221 220/220/220 219/219/219
f 222/222/222 219/219/219 220/220/220
