g Archery_OBJ_SPillar_01
v 0.027371082 0 0.053622287
v 0.007765535 0.013450306 0.068719946
v 0.013685539 0.023704054 0.053622287
v 0.007765535 0.013450306 0.068719946
v 0.027371082 0 0.053622287
v 0.015531072 2.0372368E-10 0.068719946
v 0.013685539 0.023704054 0.053622287
v -0.007765536 0.013450304 0.068719946
v -0.013685542 0.023704052 0.053622287
v -0.007765536 0.013450304 0.068719946
v 0.013685539 0.023704054 0.053622287
v 0.007765535 0.013450306 0.068719946
v -0.013685542 0.023704052 0.053622287
v -0.015531072 -1.3742376E-09 0.068719946
v -0.027371082 -2.3928561E-09 0.053622287
v -0.015531072 -1.3742376E-09 0.068719946
v -0.013685542 0.023704052 0.053622287
v -0.007765536 0.013450304 0.068719946
v -0.027371082 -2.3928561E-09 0.053622287
v -0.007765534 -0.013450306 0.068719946
v -0.013685538 -0.023704054 0.053622287
v -0.007765534 -0.013450306 0.068719946
v -0.027371082 -2.3928561E-09 0.053622287
v -0.015531072 -1.3742376E-09 0.068719946
v -0.013685538 -0.023704054 0.053622287
v 0.007765534 -0.013450306 0.068719946
v 0.013685538 -0.023704054 0.053622287
v 0.007765534 -0.013450306 0.068719946
v -0.013685538 -0.023704054 0.053622287
v -0.007765534 -0.013450306 0.068719946
v 0.013685538 -0.023704054 0.053622287
v 0.015531072 2.0372368E-10 0.068719946
v 0.027371082 0 0.053622287
v 0.015531072 2.0372368E-10 0.068719946
v 0.013685538 -0.023704054 0.053622287
v 0.007765534 -0.013450306 0.068719946
v -0.013685538 -0.023704054 0
v -0.013685542 0.023704052 0
v -0.027371082 -2.3928561E-09 0
v 0.027371082 0 0
v 0.013685538 -0.023704054 0
v 0.013685539 0.023704054 0
v 0.027371082 0 0
v 0.013685539 0.023704054 0.053622287
v 0.013685539 0.023704054 0
v 0.027371082 0 0.053622287
v 0.013685538 -0.023704054 0
v 0.013685538 -0.023704054 0.053622287
v -0.013685538 -0.023704054 0
v -0.013685538 -0.023704054 0.053622287
v -0.027371082 -2.3928561E-09 0
v -0.027371082 -2.3928561E-09 0.053622287
v -0.013685542 0.023704052 0
v -0.013685542 0.023704052 0.053622287
v 0.013685539 0.023704054 0
v 0.013685539 0.023704054 0.053622287
v 0.007765535 0.013450306 0.068719946
v 0.015531072 1.5906794E-10 0.5877733
v 0.007765535 0.013450306 0.5877733
v 0.015531072 2.0372368E-10 0.068719946
v -0.007765536 0.013450304 0.068719946
v 0.007765535 0.013450306 0.5877733
v -0.007765536 0.013450304 0.5877733
v 0.007765535 0.013450306 0.068719946
v -0.015531072 -1.3742376E-09 0.068719946
v -0.007765536 0.013450304 0.5877733
v -0.015531072 -1.4316114E-09 0.5877733
v -0.007765536 0.013450304 0.068719946
v -0.007765534 -0.013450306 0.068719946
v -0.015531072 -1.4316114E-09 0.5877733
v -0.007765534 -0.013450306 0.5877733
v -0.015531072 -1.3742376E-09 0.068719946
v 0.007765534 -0.013450306 0.068719946
v -0.007765534 -0.013450306 0.5877733
v 0.007765534 -0.013450306 0.5877733
v -0.007765534 -0.013450306 0.068719946
v 0.015531072 2.0372368E-10 0.068719946
v 0.007765534 -0.013450306 0.5877733
v 0.015531072 1.5906794E-10 0.5877733
v 0.007765534 -0.013450306 0.068719946
v -0.007765536 0.013450304 0.5877733
v -0.007765534 -0.013450306 0.5877733
v -0.015531072 -1.4316114E-09 0.5877733
v 0.015531072 1.5906794E-10 0.5877733
v 0.007765535 0.013450306 0.5877733
v 0.007765534 -0.013450306 0.5877733
vt 0.7260742 0.5366211
vt 0.72021484 0.5415039
vt 0.7260742 0.5415039
vt 0.72021484 0.5415039
vt 0.7260742 0.5366211
vt 0.72021484 0.5366211
vt 0.7260742 0.51708984
vt 0.72021484 0.5209961
vt 0.7260742 0.5209961
vt 0.72021484 0.5209961
vt 0.7260742 0.51708984
vt 0.72021484 0.51708984
vt 0.7260742 0.5209961
vt 0.72021484 0.52490234
vt 0.7260742 0.52490234
vt 0.72021484 0.52490234
vt 0.7260742 0.5209961
vt 0.72021484 0.5209961
vt 0.7260742 0.52490234
vt 0.72021484 0.5288086
vt 0.7260742 0.5288086
vt 0.72021484 0.5288086
vt 0.7260742 0.52490234
vt 0.72021484 0.52490234
vt 0.7260742 0.5288086
vt 0.72021484 0.53271484
vt 0.7260742 0.53271484
vt 0.72021484 0.53271484
vt 0.7260742 0.5288086
vt 0.72021484 0.5288086
vt 0.7260742 0.53271484
vt 0.72021484 0.5366211
vt 0.7260742 0.5366211
vt 0.72021484 0.5366211
vt 0.7260742 0.53271484
vt 0.72021484 0.53271484
vt 0.7192383 0.47680664
vt 0.72265625 0.4724121
vt 0.71972656 0.4736328
vt 0.72509766 0.47753906
vt 0.72216797 0.47875977
vt 0.72509766 0.47436523
vt 0.7265625 0.5385742
vt 0.71972656 0.54248047
vt 0.7265625 0.54248047
vt 0.71972656 0.5385742
vt 0.7265625 0.5361328
vt 0.71972656 0.5361328
vt 0.7265625 0.5332031
vt 0.71972656 0.5332031
vt 0.7265625 0.5307617
vt 0.71972656 0.5307617
vt 0.7265625 0.52783203
vt 0.71972656 0.52783203
vt 0.7265625 0.5253906
vt 0.71972656 0.5253906
vt 0.7260742 0.44213867
vt 0.72021484 0.64941406
vt 0.7260742 0.64941406
vt 0.72021484 0.44213867
vt 0.7260742 0.44213867
vt 0.72021484 0.64941406
vt 0.7260742 0.64941406
vt 0.72021484 0.44213867
vt 0.7260742 0.44213867
vt 0.72021484 0.64941406
vt 0.7260742 0.64941406
vt 0.72021484 0.44213867
vt 0.7260742 0.44213867
vt 0.72021484 0.64941406
vt 0.7260742 0.64941406
vt 0.72021484 0.44213867
vt 0.7260742 0.44213867
vt 0.72021484 0.64941406
vt 0.7260742 0.64941406
vt 0.72021484 0.44213867
vt 0.7260742 0.44213867
vt 0.72021484 0.64941406
vt 0.7260742 0.64941406
vt 0.72021484 0.44213867
vt 0.7192383 0.4658203
vt 0.72265625 0.4609375
vt 0.71972656 0.4621582
vt 0.72509766 0.46655273
vt 0.72216797 0.46801758
vt 0.72558594 0.46289062
vn 0.7163086 0.41357422 0.5620117
vn 0.7163086 0.41357422 0.5620117
vn 0.7163086 0.41357422 0.5620117
vn 0.7163086 0.41357422 0.5620117
vn 0.7163086 0.41357422 0.5620117
vn 0.7163086 0.41357422 0.5620117
vn -0 0.82714844 0.5620117
vn -0 0.82714844 0.5620117
vn -0 0.82714844 0.5620117
vn -1.1920929E-07 0.82714844 0.5620117
vn -1.1920929E-07 0.82714844 0.5620117
vn -1.1920929E-07 0.82714844 0.5620117
vn -0.7163086 0.41357422 0.5620117
vn -0.7163086 0.41357422 0.5620117
vn -0.7163086 0.41357422 0.5620117
vn -0.7163086 0.41357422 0.5620117
vn -0.7163086 0.41357422 0.5620117
vn -0.7163086 0.41357422 0.5620117
vn -0.7163086 -0.41357422 0.5620117
vn -0.7163086 -0.41357422 0.5620117
vn -0.7163086 -0.41357422 0.5620117
vn -0.7163086 -0.41357422 0.5620117
vn -0.7163086 -0.41357422 0.5620117
vn -0.7163086 -0.41357422 0.5620117
vn -0 -0.82714844 0.5620117
vn -0 -0.82714844 0.5620117
vn -0 -0.82714844 0.5620117
vn -0 -0.82714844 0.5620117
vn -0 -0.82714844 0.5620117
vn -0 -0.82714844 0.5620117
vn 0.7163086 -0.41357422 0.5620117
vn 0.7163086 -0.41357422 0.5620117
vn 0.7163086 -0.41357422 0.5620117
vn 0.7163086 -0.41357422 0.5620117
vn 0.7163086 -0.41357422 0.5620117
vn 0.7163086 -0.41357422 0.5620117
vn -0 0 -1
vn -0 0 -1
vn -0 0 -1
vn -0 0 -1
vn -0 0 -1
vn -0 0 -1
vn 1 0 0
vn 0.5 0.86621094 0
vn 0.5 0.86621094 0
vn 1 0 0
vn 0.5 -0.86621094 0
vn 0.5 -0.86621094 0
vn -0.5 -0.86621094 0
vn -0.5 -0.86621094 0
vn -1 0 0
vn -1 -1.1920929E-07 0
vn -0.5 0.86621094 0
vn -0.5 0.86621094 0
vn 0.5 0.86621094 0
vn 0.5 0.86621094 0
vn 0.86621094 0.5 0
vn 0.86621094 0.5 0
vn 0.86621094 0.5 0
vn 0.86621094 0.5 0
vn -1.7881393E-07 1 0
vn -1.7881393E-07 1 0
vn -1.7881393E-07 1 0
vn -1.7881393E-07 1 0
vn -0.86621094 0.5 0
vn -0.86621094 0.5 0
vn -0.86621094 0.5 0
vn -0.86621094 0.5 0
vn -0.86621094 -0.5 0
vn -0.86621094 -0.5 0
vn -0.86621094 -0.5 0
vn -0.86621094 -0.5 0
vn -0 -1 0
vn -0 -1 0
vn -0 -1 0
vn -0 -1 0
vn 0.86621094 -0.5 0
vn 0.86621094 -0.5 0
vn 0.86621094 -0.5 0
vn 0.86621094 -0.5 0
vn -0 0 1
vn -0 0 1
vn -0 0 1
vn -0 0 1
vn -0 0 1
vn -0 0 1
g Archery_OBJ_SPillar_01_0
f 3/3/3 2/2/2 1/1/1
f 6/6/6 5/5/5 4/4/4
f 9/9/9 8/8/8 7/7/7
f 12/12/12 11/11/11 10/10/10
f 15/15/15 14/14/14 13/13/13
f 18/18/18 17/17/17 16/16/16
f 21/21/21 20/20/20 19/19/19
f 24/24/24 23/23/23 22/22/22
f 27/27/27 26/26/26 25/25/25
f 30/30/30 29/29/29 28/28/28
f 33/33/33 32/32/32 31/31/31
f 36/36/36 35/35/35 34/34/34
f 39/39/39 38/38/38 37/37/37
f 38/38/38 40/40/40 37/37/37
f 37/37/37 40/40/40 41/41/41
f 42/42/42 40/40/40 38/38/38
f 45/45/45 44/44/44 43/43/43
f 46/46/46 43/43/43 44/44/44
f 43/43/43 46/46/46 47/47/47
f 48/48/48 47/47/47 46/46/46
f 47/47/47 48/48/48 49/49/49
f 50/50/50 49/49/49 48/48/48
f 49/49/49 50/50/50 51/51/51
f 52/52/52 51/51/51 50/50/50
f 51/51/51 52/52/52 53/53/53
f 54/54/54 53/53/53 52/52/52
f 53/53/53 54/54/54 55/55/55
f 56/56/56 55/55/55 54/54/54
f 59/59/59 58/58/58 57/57/57
f 60/60/60 57/57/57 58/58/58
f 63/63/63 62/62/62 61/61/61
f 64/64/64 61/61/61 62/62/62
f 67/67/67 66/66/66 65/65/65
f 68/68/68 65/65/65 66/66/66
f 71/71/71 70/70/70 69/69/69
f 72/72/72 69/69/69 70/70/70
f 75/75/75 74/74/74 73/73/73
f 76/76/76 73/73/73 74/74/74
f 79/79/79 78/78/78 77/77/77
f 80/80/80 77/77/77 78/78/78
f 83/83/83 82/82/82 81/81/81
f 82/82/82 84/84/84 81/81/81
f 81/81/81 84/84/84 85/85/85
f 86/86/86 84/84/84 82/82/82
