g Archery_STR_House_01_Roof_FadeCol
v 8 0.40000036 1.5999998
v 2.4000008 0.40000036 1.6999998
v 8 0.40000036 1.6999998
v 2.4000008 0.40000036 1.5999998
v 8.000004 9.8 1.5999998
v 8 0.40000036 1.6999998
v 8.000004 9.8 1.6999998
v 8 0.40000036 1.5999998
v 10.800003 9.8 1.5999998
v 8.000004 9.8 1.6999998
v 10.800003 9.8 1.6999998
v 8.000004 9.8 1.5999998
v 10.800003 16.2 1.5999998
v 10.800003 9.8 1.6999998
v 10.800003 16.2 1.6999998
v 10.800003 9.8 1.5999998
v 2.4000008 16.2 1.5999998
v 10.800003 16.2 1.6999998
v 2.4000008 16.2 1.6999998
v 10.800003 16.2 1.5999998
v 2.4000008 0.40000036 1.5999998
v 2.4000008 16.2 1.6999998
v 2.4000008 0.40000036 1.6999998
v 2.4000008 16.2 1.5999998
v 2.4000008 0.40000036 1.5999998
v 10.800003 16.2 1.5999998
v 2.4000008 16.2 1.5999998
v 8.000004 9.8 1.5999998
v 8 0.40000036 1.5999998
v 10.800003 9.8 1.5999998
v 10.800003 9.8 1.6999998
v 2.4000008 16.2 1.6999998
v 10.800003 16.2 1.6999998
v 8.000004 9.8 1.6999998
v 2.4000008 0.40000036 1.6999998
v 8 0.40000036 1.6999998
vt 0 1.1920929E-07
vt 0 1.1920929E-07
vt 0 1.1920929E-07
vt 0 1.1920929E-07
vt 0 1.1920929E-07
vt 0 1.1920929E-07
vt 0 1.1920929E-07
vt 0 1.1920929E-07
vt 0 1.1920929E-07
vt 0 1.1920929E-07
vt 0 1.1920929E-07
vt 0 1.1920929E-07
vt 0 1.1920929E-07
vt 0 1.1920929E-07
vt 0 1.1920929E-07
vt 0 1.1920929E-07
vt 0 1.1920929E-07
vt 0 1.1920929E-07
vt 0 1.1920929E-07
vt 0 1.1920929E-07
vt 0 1.1920929E-07
vt 0 1.1920929E-07
vt 0 1.1920929E-07
vt 0 1.1920929E-07
vt 0 1.1920929E-07
vt 0 1.1920929E-07
vt 0 1.1920929E-07
vt 0 1.1920929E-07
vt 0 1.1920929E-07
vt 0 1.1920929E-07
vt 0 1.1920929E-07
vt 0 1.1920929E-07
vt 0 1.1920929E-07
vt 0 1.1920929E-07
vt 0 1.1920929E-07
vt 0 1.1920929E-07
vn -0 -1 0
vn -0 -1 0
vn -0 -1 0
vn -0 -1 0
vn 1 -4.172325E-07 0
vn 1 -4.172325E-07 0
vn 1 -4.172325E-07 0
vn 1 -4.172325E-07 0
vn -0 -1 0
vn -0 -1 0
vn -0 -1 0
vn -0 -1 0
vn 1 0 0
vn 1 0 0
vn 1 0 0
vn 1 0 0
vn -0 1 0
vn -0 1 0
vn -0 1 0
vn -0 1 0
vn -1 0 0
vn -1 0 0
vn -1 0 0
vn -1 0 0
vn -0 0 -1
vn -0 0 -1
vn -0 0 -1
vn -0 0 -1
vn -0 0 -1
vn -0 0 -1
vn -0 0 1
vn -0 0 1
vn -0 0 1
vn -0 0 1
vn -0 0 1
vn -0 0 1
g Archery_STR_House_01_Roof_FadeCol_0
f 3/3/3 2/2/2 1/1/1
f 4/4/4 1/1/1 2/2/2
f 7/7/7 6/6/6 5/5/5
f 8/8/8 5/5/5 6/6/6
f 11/11/11 10/10/10 9/9/9
f 12/12/12 9/9/9 10/10/10
f 15/15/15 14/14/14 13/13/13
f 16/16/16 13/13/13 14/14/14
f 19/19/19 18/18/18 17/17/17
f 20/20/20 17/17/17 18/18/18
f 23/23/23 22/22/22 21/21/21
f 24/24/24 21/21/21 22/22/22
f 27/27/27 26/26/26 25/25/25
f 26/26/26 28/28/28 25/25/25
f 28/28/28 29/29/29 25/25/25
f 30/30/30 28/28/28 26/26/26
g Archery_STR_House_01_Roof_FadeCol_1
f 33/33/33 32/32/32 31/31/31
f 32/32/32 34/34/34 31/31/31
f 35/35/35 34/34/34 32/32/32
f 36/36/36 34/34/34 35/35/35
