g Archery_STR_RegionBorder_02
v 0.19999999 0 0.009999999
v -0 0 0.009999999
v -0 6.2 0.009999999
v 0.19999999 6.2 0.009999999
v 0.19999999 0 0.009999999
v 0.19999999 0 0
v -0 0 1.3716316E-14
v -0 0 0.009999999
vt -5.7109375 53
vt -5.7109375 52.9375
vt -7.2617188 52.9375
vt -7.2617188 53
vt -5.7109375 53
vt -5.7109375 53
vt -5.7109375 52.9375
vt -5.7109375 52.9375
vn -0 0 1
vn -0 0 1
vn -0 0 1
vn -0 0 1
vn -0 -1 0
vn -0 -1 0
vn -0 -1 0
vn -0 -1 0
g Archery_STR_RegionBorder_02_0
f 3/3/3 2/2/2 1/1/1
f 4/4/4 3/3/3 1/1/1
f 7/7/7 6/6/6 5/5/5
f 8/8/8 7/7/7 5/5/5
