g Archery_STR_RegionBorder_04
v 1.3860698E-13 0 0.009999999
v -0 2.8 0.009999999
v 0.19999999 2.8 0.009999999
v 0.19999999 0 0.009999999
v 0.19999999 0 0.009999999
v 0.19999999 0 0
v 1.3860698E-13 0 8.448529E-12
v 1.3860698E-13 0 0.009999999
vt -19.328125 57.9375
vt -20.03125 57.9375
vt -20.03125 58
vt -19.328125 58
vt -19.328125 58
vt -19.328125 58
vt -19.328125 57.9375
vt -19.328125 57.9375
vn -0 0 1
vn -0 0 1
vn -0 0 1
vn -0 0 1
vn -0 -1 0
vn -0 -1 0
vn -0 -1 0
vn -0 -1 0
g Archery_STR_RegionBorder_04_0
f 3/3/3 2/2/2 1/1/1
f 4/4/4 3/3/3 1/1/1
f 7/7/7 6/6/6 5/5/5
f 8/8/8 7/7/7 5/5/5
