g Bg_Archery_STR_Base_Wall_05
v 3.5500097 -1.0999902 0.46550596
v 3.5500047 -1.0999877 0.26550385
v 3.5500047 -1.0999877 -0.33449584
v 3.85 1.0999902 0.2655072
v 3.85 0.9478223 0.36865386
v 3.85 1.0999902 0.33223754
v 3.8500097 -1.0999902 0.46550596
v 3.85 0.8749511 0.46550718
v 3.8500097 -1.0999902 0.26550567
v 3.85 1.0999902 0.2655072
v 3.85 0.8749511 0.46550718
v 3.85 0.9478223 0.36865386
v -1.3835596 1.0999902 0.2655072
v -1.3950049 0.79999024 -0.3344928
v -1.3835596 1.0999902 -0.33612487
v -1.3835596 1.0999902 0.2655072
v -1.3890673 1.0999902 0.36722624
v -1.3930517 0.89864254 0.3771829
v -2.1953466 0.79999024 0.33833283
v -2.4656591 0.79999024 0.46550688
v -2.1944482 0.9264551 0.46550718
v -1.3930517 0.89864254 0.3771829
v -1.208374 0.79999024 0.46550718
v -1.3151611 0.79999024 0.41776305
v -1.3930517 0.89864254 0.3771829
v -1.1329443 1.0999902 0.43115324
v -1.208374 0.79999024 0.46550718
v -1.3930517 0.89864254 0.3771829
v -1.3890673 1.0999902 0.36722624
v -1.1329443 1.0999902 0.43115324
v -1.208374 0.79999024 0.46550718
v -1.1329443 1.0999902 0.43115324
v -1.106333 1.0999902 0.46550718
v -1.3930517 0.89864254 0.3771829
v -1.3151611 0.79999024 0.41776305
v -1.3950049 0.79999024 0.2491037
v 1.9017675 0.79999024 -0.3344928
v -1.208374 0.79999024 0.46550718
v 1.9017675 0.79999024 0.46550718
v -1.3950049 0.79999024 0.2491037
v -1.3950049 0.79999024 -0.3344928
v -1.3151611 0.79999024 0.41776305
v 3.5500097 -1.0999902 0.46550596
v 3.55 0.79999024 -0.3344928
v 3.55 0.79999024 0.46550718
v 3.5500047 -1.0999877 -0.33449584
v -1.1329443 1.0999902 0.43115324
v 1.9017675 1.0999902 0.46550718
v -1.106333 1.0999902 0.46550718
v -1.3835596 1.0999902 0.2655072
v -1.3890673 1.0999902 0.36722624
v 1.9017675 1.0999902 0.2655072
v -1.106333 1.0999902 0.46550718
v 1.9017675 0.79999024 0.46550718
v -1.208374 0.79999024 0.46550718
v 1.9017675 1.0999902 0.46550718
v 3.55 0.79999024 0.46550718
v 3.8500097 -1.0999902 0.46550596
v 3.5500097 -1.0999902 0.46550596
v 3.85 0.8749511 0.46550718
v 3.7298045 0.9797949 0.46550718
v 3.85 0.9478223 0.36865386
v 3.85 0.8749511 0.46550718
v 3.7298045 0.9797949 0.46550718
v 3.85 1.0999902 0.33223754
v 3.6504588 1.0999902 0.46550718
v -3.85 0.7999878 0.26550522
v -2.1953466 0.79999024 -0.3344928
v -3.850005 0.7999884 -0.33449334
v -2.1953466 0.79999024 0.33833283
v -2.4656591 0.79999024 0.46550688
v -3.850005 0.79999024 0.46550718
v -2.193208 1.0999902 0.46550718
v -3.850005 1.0999902 0.2655072
v -2.18895 1.0999902 0.2655072
v -3.850005 1.0999902 0.46550718
v -3.850005 1.0999902 0.46550718
v -2.4656591 0.79999024 0.46550688
v -3.850005 0.79999024 0.46550718
v -2.1944482 0.9264551 0.46550718
v -2.193208 1.0999902 0.46550718
v -2.18895 1.0999902 -0.33612487
v -1.3835596 1.0999902 0.2655072
v -1.3835596 1.0999902 -0.33612487
v -2.18895 1.0999902 0.2655072
v -2.193208 1.0999902 0.46550718
v -1.3950049 0.79999024 -0.3344928
v -2.18895 1.0999902 -0.33612487
v -1.3835596 1.0999902 -0.33612487
v -2.1953466 0.79999024 -0.3344928
v -2.193208 1.0999902 0.46550718
v -2.1953466 0.79999024 0.33833283
v -2.1944482 0.9264551 0.46550718
v -2.18895 1.0999902 -0.33612487
v -2.1953466 0.79999024 -0.3344928
v -1.3835596 1.0999902 0.2655072
v -1.3950049 0.79999024 0.2491037
v -1.3950049 0.79999024 -0.3344928
v -1.3930517 0.89864254 0.3771829
v 3.55 0.79999024 -0.3344928
v 1.9017675 0.79999024 0.46550718
v 3.55 0.79999024 0.46550718
v 1.9017675 0.79999024 -0.3344928
v 3.6504588 1.0999902 0.46550718
v 3.85 1.0999902 0.2655072
v 3.85 1.0999902 0.33223754
v 1.9017675 1.0999902 0.2655072
v 1.9017675 1.0999902 0.46550718
v 3.55 0.79999024 0.46550718
v 3.6504588 1.0999902 0.46550718
v 3.7298045 0.9797949 0.46550718
v 1.9017675 1.0999902 0.46550718
v 1.9017675 0.79999024 0.46550718
v -1.4145995 1.0842773 0.35035247
v -1.4024316 0.78452146 -0.49999022
v -1.4024316 0.78452146 0.2817865
v -1.4145995 1.0842773 -0.49998733
v -1.5198241 0.77975583 0.49999022
v -1.4145995 1.0842773 0.35035247
v -1.4024316 0.78452146 0.2817865
v -1.4783691 1.0816895 0.49999022
v -1.4783691 1.0816895 0.49999022
v -1.4145995 1.0842773 -0.49998733
v -1.4145995 1.0842773 0.35035247
v -2.1938965 1.0526465 -0.49998733
v -2.1138475 1.0558984 0.49999022
v -2.1938965 1.0526465 0.41660246
v -2.1817381 0.75290036 -0.49999022
v -1.4024316 0.78452146 0.2817865
v -1.4024316 0.78452146 -0.49999022
v -2.0280664 0.75913084 0.49999022
v -2.1817381 0.75290036 0.30568022
v -1.5198241 0.77975583 0.49999022
v -2.0280664 0.75913084 0.49999022
v -1.4783691 1.0816895 0.49999022
v -1.5198241 0.77975583 0.49999022
v -2.1138475 1.0558984 0.49999022
v -2.1304004 0.94791013 0.49999022
v -2.1867774 0.8770703 0.3842395
v -2.1938965 1.0526465 -0.49998733
v -2.1938965 1.0526465 0.41660246
v -2.1817381 0.75290036 -0.49999022
v -2.1817381 0.75290036 0.30568022
v -2.1138475 1.0558984 0.49999022
v -2.1867774 0.8770703 0.3842395
v -2.1938965 1.0526465 0.41660246
v -2.1304004 0.94791013 0.49999022
v -2.0280664 0.75913084 0.49999022
v -2.1817381 0.75290036 0.30568022
v 1.0128906 -1.0999854 -0.33449766
v 3.5500047 -1.0999877 0.26550385
v 1.0128906 -1.0999854 0.26550284
v 3.5500047 -1.0999877 -0.33449584
v -1.5371338 -1.0999854 -0.33449766
v 1.0128906 -1.0999854 0.26550284
v -1.5371338 -1.0999854 0.26550272
v 1.0128906 -1.0999854 -0.33449766
v -3.85 -1.0999854 -0.33449766
v -1.5371338 -1.0999854 0.26550272
v -3.85 -1.0999854 0.26550263
v -1.5371338 -1.0999854 -0.33449766
v -3.85 -1.0999854 -0.33449766
v -3.85 0.7999878 0.26550522
v -3.850005 0.7999884 -0.33449334
v -3.85 -1.0999854 0.26550263
vt 0.82958984 0.23779297
vt 0.82958984 0.20898438
vt 0.82958984 0.12194824
vt 0.5131836 0.24023438
vt 0.53515625 0.2529297
vt 0.5131836 0.24841309
vt 0.82958984 0.26489258
vt 0.54541016 0.26489258
vt 0.82958984 0.24023438
vt 0.5131836 0.24023438
vt 0.54541016 0.26489258
vt 0.53515625 0.2529297
vt 0.47705078 0.3947754
vt 0.49853516 0.35180664
vt 0.47705078 0.35180664
vt 0.47705078 0.3947754
vt 0.47705078 0.40185547
vt 0.49145508 0.4025879
vt 0.4650879 0.33276367
vt 0.47558594 0.35131836
vt 0.47753906 0.33007812
vt 0.49145508 0.4025879
vt 0.49780273 0.41748047
vt 0.49829102 0.4091797
vt 0.49145508 0.4025879
vt 0.47583008 0.4206543
vt 0.49780273 0.41748047
vt 0.49145508 0.4025879
vt 0.47705078 0.40185547
vt 0.47583008 0.4206543
vt 0.49780273 0.41748047
vt 0.47583008 0.4206543
vt 0.47607422 0.42382812
vt 0.49145508 0.4025879
vt 0.49829102 0.4091797
vt 0.49804688 0.3947754
vt 0.9995117 0.12194824
vt 0.54833984 0.23779297
vt 0.99658203 0.23779297
vt 0.5234375 0.20483398
vt 0.53027344 0.12194824
vt 0.53271484 0.22998047
vt 0.82958984 0.23779297
vt 0.55615234 0.12194824
vt 0.55615234 0.23779297
vt 0.82958984 0.12194824
vt 0.5595703 0.2607422
vt 0.99609375 0.26489258
vt 0.56347656 0.26489258
vt 0.5234375 0.24023438
vt 0.5229492 0.25268555
vt 0.99609375 0.24023438
vt 0.56347656 0.26489258
vt 0.99658203 0.23779297
vt 0.54833984 0.23779297
vt 0.99609375 0.26489258
vt 0.55615234 0.23779297
vt 0.82958984 0.26489258
vt 0.82958984 0.23779297
vt 0.54541016 0.26489258
vt 0.53027344 0.2541504
vt 0.4267578 0.41601562
vt 0.42407227 0.42407227
vt 0.43530273 0.4230957
vt 0.43432617 0.40771484
vt 0.4453125 0.4206543
vt 0.56347656 0.2088623
vt 0.8017578 0.12194824
vt 0.56347656 0.12194824
vt 0.8017578 0.21948242
vt 0.7626953 0.23779297
vt 0.56347656 0.23779297
vt 0.8017578 0.26489258
vt 0.56347656 0.24023438
vt 0.8022461 0.24023438
vt 0.56347656 0.26489258
vt 0.56347656 0.26489258
vt 0.7626953 0.23779297
vt 0.56347656 0.23779297
vt 0.8017578 0.24926758
vt 0.8017578 0.26489258
vt 0.41967773 0.35180664
vt 0.47705078 0.3947754
vt 0.47705078 0.35180664
vt 0.41967773 0.3947754
vt 0.41967773 0.40893555
vt 0.47631836 0.33032227
vt 0.41967773 0.35180664
vt 0.47705078 0.35180664
vt 0.41918945 0.33032227
vt 0.41967773 0.40893555
vt 0.39819336 0.39990234
vt 0.40722656 0.40893555
vt 0.41967773 0.35180664
vt 0.39819336 0.35180664
vt 0.47705078 0.3947754
vt 0.49804688 0.3947754
vt 0.49853516 0.35180664
vt 0.49145508 0.4025879
vt 0.79296875 0.12194824
vt 0.5566406 0.23779297
vt 0.79296875 0.23779297
vt 0.5566406 0.12194824
vt 0.8066406 0.26489258
vt 0.8354492 0.24023438
vt 0.8354492 0.24853516
vt 0.5566406 0.24023438
vt 0.5566406 0.26489258
vt 0.79296875 0.23779297
vt 0.8066406 0.26489258
vt 0.8183594 0.2541504
vt 0.5566406 0.26489258
vt 0.5566406 0.23779297
vt 0.48510742 0.41137695
vt 0.4321289 0.24353027
vt 0.42700195 0.3959961
vt 0.49072266 0.2454834
vt 0.42407227 0.44433594
vt 0.48510742 0.41137695
vt 0.42700195 0.3959961
vt 0.48339844 0.44311523
vt 0.8432617 0.23779297
vt 0.85009766 0.12573242
vt 0.85058594 0.22106934
vt 0.7626953 0.12585449
vt 0.77197266 0.23791504
vt 0.7631836 0.22851562
vt 0.7631836 0.12585449
vt 0.85058594 0.2133789
vt 0.85058594 0.12573242
vt 0.78027344 0.23791504
vt 0.7631836 0.21606445
vt 0.83740234 0.23791504
vt 0.78027344 0.23791504
vt 0.8432617 0.26538086
vt 0.83740234 0.23791504
vt 0.77197266 0.26513672
vt 0.76953125 0.2553711
vt 0.46362305 0.41552734
vt 0.4345703 0.24230957
vt 0.42944336 0.42114258
vt 0.49316406 0.24401855
vt 0.4885254 0.4013672
vt 0.42993164 0.44360352
vt 0.46362305 0.41552734
vt 0.42944336 0.42114258
vt 0.45092773 0.44091797
vt 0.49194336 0.44970703
vt 0.4885254 0.4013672
vt 0.99560547 0.12109375
vt 0.50390625 0.23742676
vt 0.99560547 0.23742676
vt 0.50390625 0.12109375
vt 0.9975586 0.12109375
vt 0.50341797 0.23742676
vt 0.9975586 0.23742676
vt 0.50341797 0.12109375
vt 0.95214844 0.12109375
vt 0.50341797 0.23742676
vt 0.95214844 0.23742676
vt 0.50341797 0.12109375
vt 0.50390625 0.12109375
vt 0.8720703 0.23742676
vt 0.8720703 0.12109375
vt 0.50390625 0.23742676
vn 0.44726562 0.89453125 0
vn 0.44726562 0.89453125 0
vn 0.44726562 0.89453125 0
vn 1 0 0
vn 1 0 0
vn 1 0 0
vn 1 4.9471855E-06 5.543232E-06
vn 1 4.9471855E-06 5.543232E-06
vn 1 4.4107437E-06 0
vn -1 0 0
vn -1 0 0
vn -1 0 0
vn -0.9995117 0.038116455 0
vn -0.9995117 0.038116455 0
vn -0.9995117 0.038116455 0
vn -0.99853516 0.017089844 -0.05404663
vn -0.99853516 0.017089844 -0.05404663
vn -0.99853516 0.017089844 -0.05404663
vn 0.31445312 -0.6743164 0.66845703
vn 0.31445312 -0.6743164 0.66845703
vn 0.31445312 -0.6743164 0.66845703
vn -0.4074707 0.05319214 0.9116211
vn -0.4074707 0.05319214 0.9116211
vn -0.4074707 0.05319214 0.9116211
vn -0.3388672 0.19067383 0.9213867
vn -0.3388672 0.19067383 0.9213867
vn -0.3388672 0.19067383 0.9213867
vn -0.24182129 0.052703857 0.96875
vn -0.24182129 0.052703857 0.96875
vn -0.24182129 0.052703857 0.96875
vn -0.7636719 0.25976562 0.5913086
vn -0.7636719 0.25976562 0.5913086
vn -0.7636719 0.25976562 0.5913086
vn -0.79589844 -0.4736328 0.37695312
vn -0.79589844 -0.4736328 0.37695312
vn -0.79589844 -0.4736328 0.37695312
vn -0 -1 0
vn -0 -1 0
vn -0 -1 0
vn -0 -1 0
vn -0 -1 0
vn -0 -1 0
vn -1 -5.1259995E-06 0
vn -1 -5.1259995E-06 0
vn -1 -5.1259995E-06 0
vn -1 -2.5629997E-06 6.0796738E-06
vn -0 1 0
vn -0 1 0
vn -0 1 0
vn -0 1 0
vn -0 1 0
vn -0 1 0
vn -0 0 1
vn -0 0 1
vn -0 0 1
vn -0 0 1
vn -0 -6.556511E-07 1
vn -0 -6.556511E-07 1
vn -0 -6.556511E-07 1
vn 1.7881393E-07 -5.9604645E-07 1
vn -0 0 1
vn 0.63671875 0.40307617 0.65722656
vn 0.57177734 0.6557617 0.49316406
vn 0.58251953 0.39038086 0.7128906
vn 0.59472656 0.25195312 0.7636719
vn 0.5214844 0.34423828 0.7807617
vn 1.4901161E-06 -1 0
vn 1.4901161E-06 -1 0
vn 1.1324883E-06 -1 -1.013279E-06
vn 1.4901161E-06 -1 0
vn -0 -1 1.2218952E-05
vn -0 -1 1.2218952E-05
vn -0 1 0
vn -0 1 0
vn -0 1 0
vn -0 1 0
vn 2.3841858E-07 0 1
vn 2.3841858E-07 0 1
vn 2.3841858E-07 0 1
vn -1.7881393E-07 -1.9669533E-06 1
vn -0 0 1
vn -0 -1 0
vn -0 -1 0
vn -0 -1 0
vn -0 -1 0
vn -0 -1 0
vn -0 0.0054397583 1
vn -0 0.0054397583 1
vn -0 0.0054397583 1
vn -0 0.0054397583 1
vn 1 -0.007144928 4.2378902E-05
vn 1 -0.007144928 4.2378902E-05
vn 1 -0.007144928 4.2378902E-05
vn 1 -0.009376526 0.0053100586
vn 1 -0.021316528 0
vn -0.9995117 0.038116455 0
vn -0.9995117 0.038116455 0
vn -0.9995117 0.038116455 0
vn -0.99902344 0.038909912 -0.01474762
vn -0 -1 0
vn -0 -1 0
vn -0 -1 0
vn -0 -1 0
vn -0 1 0
vn -0 1 0
vn -0 1 0
vn -0 1 0
vn -0 1 0
vn -0 0 1
vn -0 0 1
vn -0 0 1
vn -0 0 1
vn -0 0 1
vn 0.99902344 0.04055786 0
vn 0.99902344 0.04055786 0
vn 0.99902344 0.04055786 0
vn 0.99902344 0.04055786 0
vn 0.8911133 -0.0892334 0.44506836
vn 0.89990234 -0.103027344 0.42333984
vn 0.87890625 -0.072143555 0.47143555
vn 0.9135742 -0.12536621 0.38720703
vn -0.04055786 0.99902344 0
vn -0.04055786 0.99902344 0
vn -0.04055786 0.99902344 0
vn -0.04055786 0.99902344 -4.7683716E-07
vn -0.04058838 0.99902344 0
vn -0.04058838 0.99902344 0
vn 0.040527344 -0.99902344 0
vn 0.040527344 -0.99902344 0
vn 0.040527344 -0.99902344 0
vn 0.04055786 -0.99902344 -7.8082085E-06
vn 0.040496826 -0.99902344 0
vn 0.04055786 -0.99902344 -7.8082085E-06
vn -0 0 1
vn -0 0 1
vn -0 0 1
vn -0 0 1
vn -0 0 1
vn -0.99902344 -0.040527344 -3.5762787E-07
vn -0.99902344 -0.040527344 -2.503395E-06
vn -0.99902344 -0.040527344 0
vn -0.99902344 -0.040527344 -2.6226044E-06
vn -0.99902344 -0.04055786 0
vn -0.81591797 -0.040252686 0.57666016
vn -0.7558594 -0.296875 0.5839844
vn -0.70947266 -0.15539551 0.6870117
vn -0.88134766 -0.064086914 0.46850586
vn -0.7138672 -0.390625 0.5810547
vn -0.71435547 -0.39453125 0.5776367
vn 9.536743E-07 1 0
vn 9.536743E-07 1 0
vn 9.536743E-07 1 0
vn 9.536743E-07 1 0
vn -0 1 0
vn -0 1 0
vn -0 1 0
vn -0 1 0
vn -0 1 0
vn -0 1 0
vn -0 1 0
vn -0 1 0
vn 1 2.5629997E-06 -8.165836E-06
vn 1 2.5629997E-06 -8.165836E-06
vn 1 2.5629997E-06 -8.165836E-06
vn 1 0 0
g Bg_Archery_STR_Base_Wall_05_0
f 3/3/3 2/2/2 1/1/1
f 6/6/6 5/5/5 4/4/4
f 8/8/8 7/7/7 4/4/4
f 7/7/7 9/9/9 4/4/4
f 12/12/12 11/11/11 10/10/10
f 15/15/15 14/14/14 13/13/13
f 18/18/18 17/17/17 16/16/16
f 21/21/21 20/20/20 19/19/19
f 24/24/24 23/23/23 22/22/22
f 27/27/27 26/26/26 25/25/25
f 30/30/30 29/29/29 28/28/28
f 33/33/33 32/32/32 31/31/31
f 36/36/36 35/35/35 34/34/34
f 39/39/39 38/38/38 37/37/37
f 38/38/38 40/40/40 37/37/37
f 37/37/37 40/40/40 41/41/41
f 42/42/42 40/40/40 38/38/38
f 45/45/45 44/44/44 43/43/43
f 44/44/44 46/46/46 43/43/43
f 49/49/49 48/48/48 47/47/47
f 48/48/48 50/50/50 47/47/47
f 50/50/50 51/51/51 47/47/47
f 52/52/52 50/50/50 48/48/48
f 55/55/55 54/54/54 53/53/53
f 56/56/56 53/53/53 54/54/54
f 59/59/59 58/58/58 57/57/57
f 58/58/58 60/60/60 57/57/57
f 60/60/60 61/61/61 57/57/57
f 64/64/64 63/63/63 62/62/62
f 62/62/62 65/65/65 64/64/64
f 66/66/66 64/64/64 65/65/65
f 69/69/69 68/68/68 67/67/67
f 70/70/70 67/67/67 68/68/68
f 70/70/70 71/71/71 67/67/67
f 72/72/72 67/67/67 71/71/71
f 75/75/75 74/74/74 73/73/73
f 76/76/76 73/73/73 74/74/74
f 79/79/79 78/78/78 77/77/77
f 78/78/78 80/80/80 77/77/77
f 80/80/80 81/81/81 77/77/77
f 84/84/84 83/83/83 82/82/82
f 85/85/85 82/82/82 83/83/83
f 85/85/85 86/86/86 82/82/82
f 89/89/89 88/88/88 87/87/87
f 90/90/90 87/87/87 88/88/88
f 93/93/93 92/92/92 91/91/91
f 91/91/91 92/92/92 94/94/94
f 92/92/92 95/95/95 94/94/94
f 98/98/98 97/97/97 96/96/96
f 97/97/97 99/99/99 96/96/96
f 102/102/102 101/101/101 100/100/100
f 103/103/103 100/100/100 101/101/101
f 106/106/106 105/105/105 104/104/104
f 105/105/105 107/107/107 104/104/104
f 104/104/104 107/107/107 108/108/108
f 111/111/111 110/110/110 109/109/109
f 110/110/110 112/112/112 109/109/109
f 109/109/109 112/112/112 113/113/113
f 116/116/116 115/115/115 114/114/114
f 117/117/117 114/114/114 115/115/115
f 120/120/120 119/119/119 118/118/118
f 121/121/121 118/118/118 119/119/119
f 124/124/124 123/123/123 122/122/122
f 123/123/123 125/125/125 122/122/122
f 125/125/125 126/126/126 122/122/122
f 127/127/127 126/126/126 125/125/125
f 130/130/130 129/129/129 128/128/128
f 129/129/129 131/131/131 128/128/128
f 131/131/131 132/132/132 128/128/128
f 133/133/133 131/131/131 129/129/129
f 136/136/136 135/135/135 134/134/134
f 135/135/135 137/137/137 134/134/134
f 137/137/137 138/138/138 134/134/134
f 141/141/141 140/140/140 139/139/139
f 140/140/140 142/142/142 139/139/139
f 142/142/142 143/143/143 139/139/139
f 146/146/146 145/145/145 144/144/144
f 147/147/147 144/144/144 145/145/145
f 147/147/147 145/145/145 148/148/148
f 149/149/149 148/148/148 145/145/145
f 152/152/152 151/151/151 150/150/150
f 153/153/153 150/150/150 151/151/151
f 156/156/156 155/155/155 154/154/154
f 157/157/157 154/154/154 155/155/155
f 160/160/160 159/159/159 158/158/158
f 161/161/161 158/158/158 159/159/159
f 164/164/164 163/163/163 162/162/162
f 165/165/165 162/162/162 163/163/163
