g Bg_Archery_STR_RetainingWall_01
v -0.00013244628 -11.046743 -4.5776366E-07
v -0.00013305664 -15.799993 -4.5776366E-07
v -0.00010681152 -15.799993 0.29999983
v -0.00010620117 -11.046736 0.29999983
v -0.00010620117 -11.046736 0.29999983
v -0.00010681152 -15.799993 0.29999983
v -0.020106811 -15.799993 0.3000016
v -0.0201062 -11.046736 0.3000016
v -0.00013031006 -0.00012695312 -1.0681152E-06
v -0.00013122558 -5.536992 -4.5776366E-07
v -0.00010498046 -5.5369744 0.29999992
v -0.0001171875 -0.000100097655 0.2999993
v -0.0001171875 -0.000100097655 0.2999993
v -0.00010498046 -5.5369744 0.29999992
v -0.02010498 -5.5369744 0.30000162
v -0.02012329 -0.020144042 0.30000106
v -0.00013122558 -5.536992 -4.5776366E-07
v -0.00013244628 -11.046743 -4.5776366E-07
v -0.00010620117 -11.046736 0.29999983
v -0.00010498046 -5.5369744 0.29999992
v -0.00010498046 -5.5369744 0.29999992
v -0.00010620117 -11.046736 0.29999983
v -0.0201062 -11.046736 0.3000016
v -0.02010498 -5.5369744 0.30000162
v -0.020079345 -0.020056153 1.3000009
v -0.02012329 -0.020144042 0.30000106
v -0.02010498 -7.079185 0.30000162
v -0.02001709 -7.0791364 1.3000015
v -0.02001831 -14.156413 1.3000016
v -0.02001709 -7.0791364 1.3000015
v -0.02010498 -7.079185 0.30000162
v -0.020106506 -14.156422 0.3000016
v -0.02001892 -15.799993 1.3000016
v -0.02001831 -14.156413 1.3000016
v -0.020106506 -14.156422 0.3000016
v -0.020106811 -15.799993 0.3000016
v -1.2207031E-06 -15.799993 1.4999986
v -0.29999998 -15.799993 1.4999996
v -0.29999787 -13.658884 1.4999996
v -6.1035155E-07 -13.658884 1.4999986
v -9.7656244E-05 -2.9296874E-05 1.4999977
v -7.324218E-05 -1.22070305E-05 1.2999992
v -1.6174316E-05 -3.4138525 1.2999998
v 1.2207031E-06 -3.4138525 1.4999986
v -0.29999998 -15.799993 1.4999996
v -0.30001768 -15.799993 1.3
v -0.30001557 -13.658884 1.3
v -0.29999787 -13.658884 1.4999996
v -1.6174316E-05 -3.4138525 1.2999998
v -0.020079345 -0.020056153 1.3000009
v -0.020016175 -3.4138525 1.3000015
v -7.324218E-05 -1.22070305E-05 1.2999992
v -3.4138513 -1.4648437E-05 1.2999986
v -3.4138513 -0.020014647 1.3000003
v 1.2207031E-06 -3.4138525 1.4999986
v -0.2999875 -3.4138536 1.4999996
v -0.29998168 -0.29998168 1.499999
v -9.7656244E-05 -2.9296874E-05 1.4999977
v 6.1035155E-07 -6.828786 1.4999986
v 1.2207031E-06 -3.4138525 1.4999986
v -1.6174316E-05 -3.4138525 1.2999998
v -1.6784668E-05 -6.828786 1.2999998
v -0.29998168 -0.29998168 1.499999
v -0.2999875 -3.4138536 1.4999996
v -0.30000487 -3.4138525 1.3
v -0.2999991 -0.29999876 1.2999994
v -1.6784668E-05 -6.828786 1.2999998
v -1.6174316E-05 -3.4138525 1.2999998
v -0.020016175 -3.4138525 1.3000015
v -0.02001709 -6.828786 1.3000016
v 1.2207031E-06 -3.4138525 1.4999986
v 6.1035155E-07 -6.828786 1.4999986
v -0.29999083 -6.828787 1.4999996
v -0.2999875 -3.4138536 1.4999996
v -0.2999875 -3.4138536 1.4999996
v -0.29999083 -6.828787 1.4999996
v -0.30000824 -6.828786 1.3
v -0.30000487 -3.4138525 1.3
v -0 -10.243582 1.4999986
v 6.1035155E-07 -6.828786 1.4999986
v -1.6784668E-05 -6.828786 1.2999998
v -1.7700195E-05 -10.243582 1.2999998
v -1.7700195E-05 -10.243582 1.2999998
v -1.6784668E-05 -6.828786 1.2999998
v -0.02001709 -6.828786 1.3000016
v -0.0200177 -10.243582 1.3000016
v 6.1035155E-07 -6.828786 1.4999986
v -0 -10.243582 1.4999986
v -0.2999945 -10.243583 1.4999996
v -0.29999083 -6.828787 1.4999996
v -0.29999083 -6.828787 1.4999996
v -0.2999945 -10.243583 1.4999996
v -0.3000119 -10.243582 1.3
v -0.30000824 -6.828786 1.3
v -6.1035155E-07 -13.658884 1.4999986
v -0 -10.243582 1.4999986
v -1.7700195E-05 -10.243582 1.2999998
v -1.8310546E-05 -13.658884 1.3
v -1.8310546E-05 -13.658884 1.3
v -1.7700195E-05 -10.243582 1.2999998
v -0.0200177 -10.243582 1.3000016
v -0.02001831 -13.658884 1.3000016
v -1.8920899E-05 -15.799993 1.3
v -0.02001892 -15.799993 1.3000016
v -0 -10.243582 1.4999986
v -6.1035155E-07 -13.658884 1.4999986
v -0.29999787 -13.658884 1.4999996
v -0.2999945 -10.243583 1.4999996
v -0.2999945 -10.243583 1.4999996
v -0.29999787 -13.658884 1.4999996
v -0.30001557 -13.658884 1.3
v -0.3000119 -10.243582 1.3
v -1.2207031E-06 -15.799993 1.4999986
v -6.1035155E-07 -13.658884 1.4999986
v -1.8310546E-05 -13.658884 1.3
v -1.8920899E-05 -15.799993 1.3
v -0.30001768 -15.799993 1.3
v -0.30010557 -15.799993 0.29999992
v -0.30010194 -12.334189 0.29999992
v -0.30001402 -12.334169 1.3
v -0.2999991 -0.29999876 1.2999994
v -0.30000794 -6.3150415 1.3
v -0.30009583 -6.315095 0.29999992
v -0.30008698 -0.30008668 0.29999936
v -0.30000794 -6.3150415 1.3
v -0.30001402 -12.334169 1.3
v -0.30010194 -12.334189 0.29999992
v -0.30009583 -6.315095 0.29999992
v -5.536974 -0.00010375976 0.2999987
v -5.5369906 -0.00012939452 -1.6784668E-06
v -0.00013031006 -0.00012695312 -1.0681152E-06
v -0.0001171875 -0.000100097655 0.2999993
v -5.536974 -0.02010376 0.3000004
v -5.536974 -0.00010375976 0.2999987
v -0.0001171875 -0.000100097655 0.2999993
v -0.02012329 -0.020144042 0.30000106
v -7.079139 -0.00010498046 0.2999986
v -7.079139 -0.00013183593 -1.6784668E-06
v -5.5369906 -0.00012939452 -1.6784668E-06
v -5.536974 -0.00010375976 0.2999987
v -7.079139 -0.02010498 0.30000037
v -7.079139 -0.00010498046 0.2999986
v -5.536974 -0.00010375976 0.2999987
v -5.536974 -0.02010376 0.3000004
v -3.4138513 2.4414062E-06 1.4999974
v -9.7656244E-05 -2.9296874E-05 1.4999977
v -0.29998168 -0.29998168 1.499999
v -3.4138525 -0.29998535 1.4999985
v -3.4138513 -1.4648437E-05 1.2999986
v -3.4138513 2.4414062E-06 1.4999974
v -6.8287854 2.4414062E-06 1.4999974
v -6.8287854 -1.4648437E-05 1.2999986
v -3.4138513 -0.30000243 1.2999988
v -3.4138525 -0.29998535 1.4999985
v -0.29998168 -0.29998168 1.499999
v -0.2999991 -0.29999876 1.2999994
v -3.4138513 -0.020014647 1.3000003
v -3.4138513 -1.4648437E-05 1.2999986
v -6.8287854 -1.4648437E-05 1.2999986
v -6.8287854 -0.02001587 1.3000004
v -6.8287854 -0.299989 1.4999985
v -6.8287854 2.4414062E-06 1.4999974
v -3.4138513 2.4414062E-06 1.4999974
v -3.4138525 -0.29998535 1.4999985
v -6.8287854 -0.3000073 1.2999988
v -6.8287854 -0.299989 1.4999985
v -3.4138525 -0.29998535 1.4999985
v -3.4138513 -0.30000243 1.2999988
v -6.8287854 -1.4648437E-05 1.2999986
v -6.8287854 2.4414062E-06 1.4999974
v -7.079139 1.2207031E-06 1.4999974
v -7.079139 -1.586914E-05 1.2999986
v -6.8287854 -0.02001587 1.3000004
v -6.8287854 -1.4648437E-05 1.2999986
v -7.079139 -1.586914E-05 1.2999986
v -7.079139 -0.02001587 1.3000004
v -7.079139 -0.29999268 1.4999985
v -7.079139 1.2207031E-06 1.4999974
v -6.8287854 2.4414062E-06 1.4999974
v -6.8287854 -0.299989 1.4999985
v -7.079139 -0.30000976 1.2999988
v -7.079139 -0.29999268 1.4999985
v -6.8287854 -0.299989 1.4999985
v -6.8287854 -0.3000073 1.2999988
v -6.315094 -0.30009398 0.2999987
v -6.31504 -0.3000061 1.2999988
v -0.2999991 -0.29999876 1.2999994
v -0.30008698 -0.30008668 0.29999936
v -7.079139 -0.3001001 0.2999987
v -7.079139 -0.3000122 1.2999988
v -6.31504 -0.3000061 1.2999988
v -6.315094 -0.30009398 0.2999987
v -0.02012329 -0.020144042 0.30000106
v -0.020079345 -0.020056153 1.3000009
v -7.079139 -0.02001587 1.3000003
v -7.079139 -0.02010376 0.3000004
v -7.324218E-05 -1.22070305E-05 1.2999992
v -9.7656244E-05 -2.9296874E-05 1.4999977
v -3.4138513 2.4414062E-06 1.4999974
v -3.4138513 -1.4648437E-05 1.2999986
vt 0.39135742 0.28295898
vt 0.05596924 0.28295898
vt 0.05596924 0.31884766
vt 0.39135742 0.31884766
vt 0.39135742 0.31884766
vt 0.05596924 0.31884766
vt 0.05596924 0.31762695
vt 0.39135742 0.31762695
vt 0.3935547 0.28295898
vt 0.0028915405 0.28295898
vt 0.0028915405 0.31884766
vt 0.3935547 0.31884766
vt 0.3935547 0.31884766
vt 0.0028915405 0.31884766
vt 0.0028915405 0.31762695
vt 0.3935547 0.31762695
vt 0.39135742 0.28295898
vt 0.0026550293 0.28295898
vt 0.0026550293 0.31884766
vt 0.39135742 0.31884766
vt 0.39135742 0.31884766
vt 0.0026550293 0.31884766
vt 0.0026550293 0.31762695
vt 0.39135742 0.31762695
vt 0.5019531 0.6635742
vt 0.5019531 0.58251953
vt 0.002243042 0.58251953
vt 0.002243042 0.6635742
vt 0.0023269653 0.6635742
vt 0.50146484 0.6635742
vt 0.50146484 0.58251953
vt 0.0023269653 0.58251953
vt 0.3857422 0.6635742
vt 0.50146484 0.6635742
vt 0.50146484 0.58251953
vt 0.3857422 0.58251953
vt 0.6875 0.23779297
vt 0.6875 0.1940918
vt 1 0.1940918
vt 0.9995117 0.23779297
vt 1 0.23852539
vt 1 0.20935059
vt 0.5024414 0.20935059
vt 0.5024414 0.23852539
vt 0.6875 0.23852539
vt 0.6875 0.26586914
vt 1 0.26586914
vt 1 0.23852539
vt 0.26098633 0.6635742
vt 0.5019531 0.6635742
vt 0.26098633 0.6635742
vt 0.5019531 0.6635742
vt 0.26098633 0.6635742
vt 0.26098633 0.6635742
vt 0.5024414 0.23779297
vt 0.5024414 0.1940918
vt 0.9560547 0.1940918
vt 1 0.23779297
vt 0.5019531 0.23852539
vt 1 0.23852539
vt 1 0.20935059
vt 0.5019531 0.20935059
vt 0.9560547 0.23852539
vt 0.5024414 0.23852539
vt 0.5024414 0.26586914
vt 0.9560547 0.26586914
vt 0.5175781 0.6635742
vt 0.7583008 0.6635742
vt 0.7583008 0.6635742
vt 0.5175781 0.6635742
vt 1 0.23779297
vt 0.5019531 0.23779297
vt 0.5019531 0.1940918
vt 1 0.1940918
vt 1 0.23852539
vt 0.5019531 0.23852539
vt 0.5019531 0.26586914
vt 1 0.26586914
vt 0.5019531 0.23852539
vt 0.9995117 0.23852539
vt 0.9995117 0.20935059
vt 0.5019531 0.20935059
vt 0.77441406 0.6635742
vt 1.015625 0.6635742
vt 1.015625 0.6635742
vt 0.77441406 0.6635742
vt 0.9995117 0.23779297
vt 0.5019531 0.23779297
vt 0.5019531 0.1940918
vt 0.9995117 0.1940918
vt 0.9995117 0.23852539
vt 0.5019531 0.23852539
vt 0.5019531 0.26586914
vt 0.9995117 0.26586914
vt 0.5019531 0.23852539
vt 1 0.23852539
vt 1 0.20935059
vt 0.5019531 0.20935059
vt 1.03125 0.6635742
vt 1.2724609 0.6635742
vt 1.2724609 0.6635742
vt 1.03125 0.6635742
vt 0.8798828 0.6635742
vt 0.8798828 0.6635742
vt 1 0.23779297
vt 0.5019531 0.23779297
vt 0.5019531 0.1940918
vt 1 0.1940918
vt 1 0.23852539
vt 0.5019531 0.23852539
vt 0.5019531 0.26586914
vt 1 0.26586914
vt 0.6875 0.23852539
vt 0.9995117 0.23852539
vt 0.9995117 0.20935059
vt 0.6875 0.20935059
vt 0.21411133 0.6230469
vt 0.21411133 0.54052734
vt 0.5019531 0.54052734
vt 0.5019531 0.6230469
vt 0.50146484 0.6230469
vt 0.0023479462 0.6230469
vt 0.0023479462 0.54052734
vt 0.50146484 0.54052734
vt 0.5019531 0.6230469
vt 0.0023002625 0.6230469
vt 0.0023002625 0.54052734
vt 0.5019531 0.54052734
vt 0.0028915405 0.31884766
vt 0.0028915405 0.28295898
vt 0.3935547 0.28295898
vt 0.3935547 0.31884766
vt 0.0028915405 0.31762695
vt 0.0028915405 0.31884766
vt 0.3935547 0.31884766
vt 0.3935547 0.31762695
vt 0.2824707 0.31884766
vt 0.2824707 0.28295898
vt 0.39135742 0.28295898
vt 0.39135742 0.31884766
vt 0.2824707 0.31762695
vt 0.2824707 0.31884766
vt 0.39135742 0.31884766
vt 0.39135742 0.31762695
vt 0.5024414 0.23779297
vt 1 0.23779297
vt 0.9560547 0.1940918
vt 0.5024414 0.1940918
vt 1 0.20935059
vt 1 0.23852539
vt 0.5019531 0.23852539
vt 0.5019531 0.20935059
vt 0.5024414 0.26586914
vt 0.5024414 0.23852539
vt 0.9560547 0.23852539
vt 0.9560547 0.26586914
vt 0.7583008 0.6635742
vt 0.7583008 0.6635742
vt 0.5175781 0.6635742
vt 0.5175781 0.6635742
vt 0.5019531 0.1940918
vt 0.5019531 0.23779297
vt 1 0.23779297
vt 1 0.1940918
vt 0.5019531 0.26586914
vt 0.5019531 0.23852539
vt 1 0.23852539
vt 1 0.26586914
vt 0.9995117 0.20935059
vt 0.9995117 0.23852539
vt 0.9633789 0.23852539
vt 0.9633789 0.20935059
vt 1.015625 0.6635742
vt 1.015625 0.6635742
vt 0.77441406 0.6635742
vt 0.77441406 0.6635742
vt 0.9633789 0.1940918
vt 0.9633789 0.23791504
vt 0.9995117 0.23779297
vt 0.9995117 0.1940918
vt 0.9633789 0.26586914
vt 0.9633789 0.23852539
vt 0.9995117 0.23852539
vt 0.9995117 0.26586914
vt 0.0023479462 0.54052734
vt 0.0023479462 0.6230469
vt 0.50146484 0.6230469
vt 0.50146484 0.54052734
vt 0.43847656 0.54052734
vt 0.43847656 0.6230469
vt 0.5019531 0.6230469
vt 0.5019531 0.54052734
vt 0.5019531 0.58251953
vt 0.5019531 0.6635742
vt 0.002243042 0.6635742
vt 0.002243042 0.58251953
vt 1 0.20935059
vt 1 0.23852539
vt 0.5024414 0.23852539
vt 0.5024414 0.20935059
vn 1 -1.7881393E-07 -8.749962E-05
vn 1 -1.1920929E-07 -8.749962E-05
vn 1 -1.1920929E-07 -8.749962E-05
vn 1 -1.7881393E-07 -8.749962E-05
vn 8.72612E-05 0 1
vn 8.773804E-05 0 1
vn 8.773804E-05 0 1
vn 8.72612E-05 0 1
vn 1 1.013279E-06 -6.5624714E-05
vn 1 4.172325E-07 -7.6532364E-05
vn 1 4.172325E-07 -7.6532364E-05
vn 1 1.013279E-06 -6.5624714E-05
vn 4.3272972E-05 4.3451786E-05 1
vn 8.672476E-05 0 1
vn 8.672476E-05 0 1
vn 4.3332577E-05 4.339218E-05 1
vn 1 4.172325E-07 -7.6532364E-05
vn 1 -1.7881393E-07 -8.749962E-05
vn 1 -1.7881393E-07 -8.749962E-05
vn 1 4.172325E-07 -7.6532364E-05
vn 8.672476E-05 0 1
vn 8.72612E-05 0 1
vn 8.72612E-05 0 1
vn 8.672476E-05 0 1
vn 1 5.722046E-06 -6.592274E-05
vn 1 5.722046E-06 -6.592274E-05
vn 1 2.7418137E-06 -7.70092E-05
vn 1 2.7418137E-06 -7.70092E-05
vn 1 -2.3841858E-07 -8.803606E-05
vn 1 2.7418137E-06 -7.70092E-05
vn 1 2.7418137E-06 -7.70092E-05
vn 1 -2.3841858E-07 -8.803606E-05
vn 1 -2.9802322E-07 -8.803606E-05
vn 1 -2.3841858E-07 -8.803606E-05
vn 1 -2.3841858E-07 -8.803606E-05
vn 1 -2.9802322E-07 -8.803606E-05
vn 3.5762787E-06 0 1
vn 3.5762787E-06 0 1
vn 3.5762787E-06 0 1
vn 3.5762787E-06 0 1
vn 1 2.2828579E-05 1.7523766E-05
vn 1 2.2828579E-05 1.7523766E-05
vn 1 1.13248825E-05 -3.4689903E-05
vn 1 1.13248825E-05 -3.4689903E-05
vn -1 1.013279E-06 8.85129E-05
vn -1 1.013279E-06 8.85129E-05
vn -1 1.013279E-06 8.8095665E-05
vn -1 1.013279E-06 8.8095665E-05
vn -8.7201595E-05 0 -1
vn -4.2796135E-05 -4.2021275E-05 -1
vn -8.7201595E-05 0 -1
vn -4.273653E-05 -4.208088E-05 -1
vn -0 -8.583069E-05 -1
vn -0 -8.583069E-05 -1
vn 3.7550926E-06 1.1920929E-07 1
vn 3.7550926E-06 1.1920929E-07 1
vn 1.9073486E-06 2.2053719E-06 1
vn 1.9073486E-06 2.2053719E-06 1
vn 1 -1.7881393E-07 -8.738041E-05
vn 1 1.13248825E-05 -3.4689903E-05
vn 1 1.13248825E-05 -3.4689903E-05
vn 1 -1.7881393E-07 -8.738041E-05
vn -1 1.847744E-06 8.696318E-05
vn -1 1.4305115E-06 8.696318E-05
vn -1 1.4305115E-06 8.696318E-05
vn -1 1.847744E-06 8.696318E-05
vn -8.916855E-05 0 -1
vn -8.7201595E-05 0 -1
vn -8.7201595E-05 0 -1
vn -8.916855E-05 0 -1
vn 3.7550926E-06 1.1920929E-07 1
vn 3.5762787E-06 0 1
vn 3.5762787E-06 0 1
vn 3.7550926E-06 1.1920929E-07 1
vn -1 1.4305115E-06 8.696318E-05
vn -1 1.013279E-06 8.696318E-05
vn -1 1.013279E-06 8.696318E-05
vn -1 1.4305115E-06 8.696318E-05
vn 1 -1.7881393E-07 -8.8095665E-05
vn 1 -1.7881393E-07 -8.738041E-05
vn 1 -1.7881393E-07 -8.738041E-05
vn 1 -1.7881393E-07 -8.8095665E-05
vn -8.916855E-05 0 -1
vn -8.916855E-05 0 -1
vn -8.916855E-05 0 -1
vn -8.916855E-05 0 -1
vn 3.5762787E-06 0 1
vn 3.5762787E-06 0 1
vn 3.5762787E-06 0 1
vn 3.5762787E-06 0 1
vn -1 1.013279E-06 8.696318E-05
vn -1 1.0728836E-06 8.738041E-05
vn -1 1.0728836E-06 8.738041E-05
vn -1 1.013279E-06 8.696318E-05
vn 1 -2.3841858E-07 -8.85129E-05
vn 1 -1.7881393E-07 -8.8095665E-05
vn 1 -1.7881393E-07 -8.8095665E-05
vn 1 -2.3841858E-07 -8.85129E-05
vn -8.8214874E-05 0 -1
vn -8.916855E-05 0 -1
vn -8.916855E-05 0 -1
vn -8.8214874E-05 0 -1
vn -8.773804E-05 0 -1
vn -8.773804E-05 0 -1
vn 3.5762787E-06 0 1
vn 3.5762787E-06 0 1
vn 3.5762787E-06 0 1
vn 3.5762787E-06 0 1
vn -1 1.0728836E-06 8.738041E-05
vn -1 1.013279E-06 8.8095665E-05
vn -1 1.013279E-06 8.8095665E-05
vn -1 1.0728836E-06 8.738041E-05
vn 1 -2.9802322E-07 -8.85129E-05
vn 1 -2.3841858E-07 -8.85129E-05
vn 1 -2.3841858E-07 -8.85129E-05
vn 1 -2.9802322E-07 -8.85129E-05
vn -1 1.0728836E-06 8.791685E-05
vn -1 1.0728836E-06 8.791685E-05
vn -1 1.013279E-06 8.791685E-05
vn -1 1.013279E-06 8.791685E-05
vn -1 1.4901161E-06 8.791685E-05
vn -1 1.2516975E-06 8.791685E-05
vn -1 1.2516975E-06 8.791685E-05
vn -1 1.4901161E-06 8.791685E-05
vn -1 1.2516975E-06 8.791685E-05
vn -1 1.013279E-06 8.791685E-05
vn -1 1.013279E-06 8.791685E-05
vn -1 1.2516975E-06 8.791685E-05
vn -8.940697E-07 1 -8.749962E-05
vn -8.940697E-07 1 -8.749962E-05
vn -5.364418E-07 1 -8.749962E-05
vn -5.364418E-07 1 -8.749962E-05
vn -0 8.678436E-05 1
vn -0 8.678436E-05 1
vn 4.3272972E-05 4.3451786E-05 1
vn 4.3332577E-05 4.339218E-05 1
vn -1.1920929E-06 1 -8.749962E-05
vn -1.1920929E-06 1 -8.749962E-05
vn -8.940697E-07 1 -8.749962E-05
vn -8.940697E-07 1 -8.749962E-05
vn -0 8.678436E-05 1
vn -0 8.678436E-05 1
vn -0 8.678436E-05 1
vn -0 8.678436E-05 1
vn -0 3.874302E-06 1
vn 1.9073486E-06 2.2053719E-06 1
vn 1.9073486E-06 2.2053719E-06 1
vn -0 3.874302E-06 1
vn 2.1457672E-06 1 -4.273653E-05
vn 2.1457672E-06 1 -4.273653E-05
vn -2.4437904E-06 1 -8.547306E-05
vn -2.4437904E-06 1 -8.547306E-05
vn 1.1920929E-06 -1 8.696318E-05
vn 1.1920929E-06 -1 8.696318E-05
vn 1.1920929E-06 -1 8.547306E-05
vn 1.1920929E-06 -1 8.547306E-05
vn -0 -8.583069E-05 -1
vn -0 -8.583069E-05 -1
vn -0 -8.9645386E-05 -1
vn -0 -8.9645386E-05 -1
vn -0 3.5762787E-06 1
vn -0 3.5762787E-06 1
vn -0 3.874302E-06 1
vn -0 3.874302E-06 1
vn 6.735325E-06 -1 8.85129E-05
vn 6.735325E-06 -1 8.85129E-05
vn 1.1920929E-06 -1 8.696318E-05
vn 1.1920929E-06 -1 8.696318E-05
vn -2.4437904E-06 1 -8.547306E-05
vn -2.4437904E-06 1 -8.547306E-05
vn -4.887581E-06 1 -8.547306E-05
vn -4.887581E-06 1 -8.547306E-05
vn -0 -8.9645386E-05 -1
vn -0 -8.9645386E-05 -1
vn -0 -9.1552734E-05 -1
vn -0 -9.1552734E-05 -1
vn -0 3.5762787E-06 1
vn -0 3.5762787E-06 1
vn -0 3.5762787E-06 1
vn -0 3.5762787E-06 1
vn 1.2218952E-05 -1 8.85129E-05
vn 1.2218952E-05 -1 8.85129E-05
vn 6.735325E-06 -1 8.85129E-05
vn 6.735325E-06 -1 8.85129E-05
vn 4.5895576E-06 -1 8.791685E-05
vn 4.5895576E-06 -1 8.791685E-05
vn 1.1920929E-06 -1 8.791685E-05
vn 1.1920929E-06 -1 8.791685E-05
vn 7.987022E-06 -1 8.791685E-05
vn 7.987022E-06 -1 8.791685E-05
vn 4.5895576E-06 -1 8.791685E-05
vn 4.5895576E-06 -1 8.791685E-05
vn 5.722046E-06 1 -8.791685E-05
vn 5.722046E-06 1 -8.791685E-05
vn 5.722046E-06 1 -8.791685E-05
vn 5.722046E-06 1 -8.791685E-05
vn 4.2915344E-06 1 0
vn 4.2915344E-06 1 0
vn 2.1457672E-06 1 -4.273653E-05
vn 2.1457672E-06 1 -4.273653E-05
g Bg_Archery_STR_RetainingWall_01_0
f 3/3/3 2/2/2 1/1/1
f 4/4/4 3/3/3 1/1/1
f 7/7/7 6/6/6 5/5/5
f 8/8/8 7/7/7 5/5/5
f 11/11/11 10/10/10 9/9/9
f 12/12/12 11/11/11 9/9/9
f 15/15/15 14/14/14 13/13/13
f 16/16/16 15/15/15 13/13/13
f 19/19/19 18/18/18 17/17/17
f 20/20/20 19/19/19 17/17/17
f 23/23/23 22/22/22 21/21/21
f 24/24/24 23/23/23 21/21/21
f 27/27/27 26/26/26 25/25/25
f 28/28/28 27/27/27 25/25/25
f 31/31/31 30/30/30 29/29/29
f 32/32/32 31/31/31 29/29/29
f 35/35/35 34/34/34 33/33/33
f 36/36/36 35/35/35 33/33/33
f 39/39/39 38/38/38 37/37/37
f 40/40/40 39/39/39 37/37/37
f 43/43/43 42/42/42 41/41/41
f 44/44/44 43/43/43 41/41/41
f 47/47/47 46/46/46 45/45/45
f 48/48/48 47/47/47 45/45/45
f 51/51/51 50/50/50 49/49/49
f 50/50/50 52/52/52 49/49/49
f 53/53/53 52/52/52 50/50/50
f 54/54/54 53/53/53 50/50/50
f 57/57/57 56/56/56 55/55/55
f 58/58/58 57/57/57 55/55/55
f 61/61/61 60/60/60 59/59/59
f 62/62/62 61/61/61 59/59/59
f 65/65/65 64/64/64 63/63/63
f 66/66/66 65/65/65 63/63/63
f 69/69/69 68/68/68 67/67/67
f 70/70/70 69/69/69 67/67/67
f 73/73/73 72/72/72 71/71/71
f 74/74/74 73/73/73 71/71/71
f 77/77/77 76/76/76 75/75/75
f 78/78/78 77/77/77 75/75/75
f 81/81/81 80/80/80 79/79/79
f 82/82/82 81/81/81 79/79/79
f 85/85/85 84/84/84 83/83/83
f 86/86/86 85/85/85 83/83/83
f 89/89/89 88/88/88 87/87/87
f 90/90/90 89/89/89 87/87/87
f 93/93/93 92/92/92 91/91/91
f 94/94/94 93/93/93 91/91/91
f 97/97/97 96/96/96 95/95/95
f 98/98/98 97/97/97 95/95/95
f 101/101/101 100/100/100 99/99/99
f 102/102/102 101/101/101 99/99/99
f 102/102/102 99/99/99 103/103/103
f 104/104/104 102/102/102 103/103/103
f 107/107/107 106/106/106 105/105/105
f 108/108/108 107/107/107 105/105/105
f 111/111/111 110/110/110 109/109/109
f 112/112/112 111/111/111 109/109/109
f 115/115/115 114/114/114 113/113/113
f 116/116/116 115/115/115 113/113/113
f 119/119/119 118/118/118 117/117/117
f 120/120/120 119/119/119 117/117/117
f 123/123/123 122/122/122 121/121/121
f 124/124/124 123/123/123 121/121/121
f 127/127/127 126/126/126 125/125/125
f 128/128/128 127/127/127 125/125/125
f 131/131/131 130/130/130 129/129/129
f 132/132/132 131/131/131 129/129/129
f 135/135/135 134/134/134 133/133/133
f 136/136/136 135/135/135 133/133/133
f 139/139/139 138/138/138 137/137/137
f 140/140/140 139/139/139 137/137/137
f 143/143/143 142/142/142 141/141/141
f 144/144/144 143/143/143 141/141/141
f 147/147/147 146/146/146 145/145/145
f 148/148/148 147/147/147 145/145/145
f 151/151/151 150/150/150 149/149/149
f 152/152/152 151/151/151 149/149/149
f 155/155/155 154/154/154 153/153/153
f 156/156/156 155/155/155 153/153/153
f 159/159/159 158/158/158 157/157/157
f 160/160/160 159/159/159 157/157/157
f 163/163/163 162/162/162 161/161/161
f 164/164/164 163/163/163 161/161/161
f 167/167/167 166/166/166 165/165/165
f 168/168/168 167/167/167 165/165/165
f 171/171/171 170/170/170 169/169/169
f 172/172/172 171/171/171 169/169/169
f 175/175/175 174/174/174 173/173/173
f 176/176/176 175/175/175 173/173/173
f 179/179/179 178/178/178 177/177/177
f 180/180/180 179/179/179 177/177/177
f 183/183/183 182/182/182 181/181/181
f 184/184/184 183/183/183 181/181/181
f 187/187/187 186/186/186 185/185/185
f 188/188/188 187/187/187 185/185/185
f 191/191/191 190/190/190 189/189/189
f 192/192/192 191/191/191 189/189/189
f 195/195/195 194/194/194 193/193/193
f 196/196/196 195/195/195 193/193/193
f 199/199/199 198/198/198 197/197/197
f 200/200/200 199/199/199 197/197/197
