g Woodland_GrassPatch_1_LOD2
v -0.13038649 -0.001950276 0.2756934
v 0.24746245 -0.0019502304 0.10468827
v 0.265793 0.43178603 0.14519101
v -0.11205595 0.43178603 0.31619608
v 0.19874951 -0.0017989962 0.095683895
v 0.16397104 0.4299755 0.018838115
v -0.13400277 0.4299755 0.15369369
v -0.099224225 -0.0017990213 0.23053947
v 0.066595115 -0.0017325269 0.13593042
v 0.10571493 0.28147468 0.09262897
v 0.26288268 0.28147468 0.23461916
v 0.22376294 -0.0017325332 0.2779207
v 0.08464112 -0.0018564155 0.2812126
v 0.12755321 0.28035733 0.31998068
v 0.24602358 0.28035736 0.20987444
v 0.20311151 -0.0018564299 0.1711063
v 0.20976804 -0.0018564303 0.18203217
v 0.16685592 0.2803573 0.14326398
v 0.048385523 0.28035727 0.2533702
v 0.09129764 -0.0018564352 0.29213852
v 0.044902895 -0.0021630228 0.29895958
v 0.073309764 0.23770383 0.25992987
v -0.07769354 0.23770377 0.1713969
v -0.10610039 -0.002163076 0.21042663
v -0.20464893 0.2377038 0.05762387
v -0.2330558 -0.0021630328 0.09665356
v 0.044902913 -0.0021630228 0.29895964
v -0.23305576 -0.0021630519 0.09665363
v -0.26146266 0.23770377 0.13568328
v 0.016495934 0.2377038 0.33798927
v -0.068620354 -0.0020672805 0.013133029
v -0.048381157 0.22557063 0.05946396
v -0.3450811 0.22557063 0.18907495
v -0.36532038 -0.0020673051 0.14274406
v -0.36507007 -0.0020672863 0.14949605
v -0.38572234 0.22557062 0.10334771
v -0.090191804 0.22557062 -0.028908033
v -0.069539525 -0.0020672232 0.01724029
v -0.2393267 -0.0021888942 0.040953998
v -0.2465467 0.4416278 -0.057767484
v 0.38565847 0.4416278 -0.10400442
v 0.39287856 -0.002188892 -0.0052829455
v 0.3968104 -0.0021888916 -0.017913427
v 0.4049118 0.44162786 0.08073953
v -0.22685504 0.44162783 0.13262106
v -0.23495658 -0.0021888176 0.033968125
v -0.3724787 0.41043362 0.05309753
v -0.1454256 0.41043356 -0.3317999
v -0.11789745 -0.0022904829 -0.31617612
v -0.34495056 -0.0022904999 0.06872131
v -0.034166623 0.4104334 -0.25480852
v -0.27210033 0.41043344 0.123459384
v -0.2991719 -0.0022905585 0.10705736
v -0.061238173 -0.002290542 -0.27121067
v -0.22661567 -0.0021459504 -0.17124785
v -0.26776877 0.21947454 -0.15413097
v -0.19127345 0.21947458 -0.011760892
v -0.15012035 -0.0021459376 -0.028877705
v -0.14586729 0.2194746 0.13894981
v -0.104714185 -0.002145925 0.121833
v -0.10471422 -0.0021459442 0.12183296
v -0.06356115 0.2194746 0.10471607
v -0.14005642 0.21947454 -0.037654016
v -0.18120952 -0.002145957 -0.020537108
v -0.18546256 0.21947454 -0.18836465
v -0.22661567 -0.0021459504 -0.17124785
v -0.008113785 -0.0019471055 0.17634779
v -0.074916415 -0.0019471314 -0.10081673
v -0.045206297 0.29681617 -0.10797751
v 0.021596298 0.2968162 0.16918695
v -0.08727074 -0.0018431824 -0.06908352
v -0.14363964 0.29557163 -0.05549744
v -0.09095871 0.29557166 0.16307601
v -0.03458986 -0.0018431538 0.14948997
v -0.13163461 -0.0016159875 -0.3086857
v -0.07056272 0.43942413 -0.3762857
v 0.17479974 0.4394242 -0.15461773
v 0.11372793 -0.0016159591 -0.08701757
v -0.10346214 -0.0018093454 -0.08187845
v -0.036469918 0.4376799 -0.021355666
v 0.14848009 0.4376799 -0.19324802
v 0.081487924 -0.0018093953 -0.25377086
v 0.09187974 -0.001809396 -0.23671393
v 0.024887523 0.43767974 -0.29723695
v -0.16006252 0.43767977 -0.12534463
v -0.093070336 -0.0018093461 -0.06482151
v 0.102104835 0.22383891 -0.14839384
v -0.09856695 0.2238389 -0.2866958
v -0.08901024 -0.0021313345 -0.30107164
v 0.11166158 -0.0021312833 -0.16276966
v -0.052409668 0.22383882 -0.3442661
v 0.14423771 0.22383884 -0.20029943
v 0.1342751 -0.0021313012 -0.18620184
v -0.06237236 -0.0021313522 -0.33016852
v 0.26723465 -0.0023203776 0.2699249
v 0.13243769 -0.002320429 -0.30097046
v 0.052275114 0.40558794 -0.28204283
v 0.18707204 0.40558806 0.28885242
v 0.13243774 -0.0023204482 -0.30097046
v 0.26723456 -0.0023203967 0.26992482
v 0.34739715 0.405588 0.25099725
v 0.21260029 0.4055879 -0.31989804
v 0.05398551 -0.0019471287 -0.16383527
v -0.008574715 -0.0019471028 0.11431743
v -0.03839077 0.2968162 0.10761138
v 0.024169406 0.2968162 -0.17054135
v 0.016531467 -0.0018431704 0.09131077
v 0.073101275 0.29557166 0.10403405
v 0.122436576 0.29557166 -0.11531878
v 0.06586676 -0.0018431797 -0.12804203
vt 0.3702597 0.6616437
vt 0.23168512 0.6616128
vt 0.22655024 0.81777936
vt 0.37517998 0.8177802
vt 0.15489203 0.50076056
vt 0.1531509 0.66093284
vt 0.26696223 0.66093284
vt 0.26511165 0.5007107
vt 0.38509047 0.66118056
vt 0.38508826 0.8250409
vt 0.50015074 0.8250409
vt 0.50014853 0.66118056
vt 0.39918646 0.8308442
vt 0.40193477 0.9893326
vt 0.48979613 0.9893343
vt 0.48706675 0.8308442
vt 0.48156708 0.83174676
vt 0.48970544 0.97450465
vt 0.38896248 0.97501653
vt 0.40132153 0.8316857
vt 0.17501509 0.83281726
vt 0.17219077 0.9794951
vt 0.27845585 0.9795018
vt 0.2784306 0.83281726
vt 0.3820341 0.9794957
vt 0.37913367 0.8328174
vt 0.3791337 0.8328174
vt 0.17501512 0.83281726
vt 0.17219077 0.9794951
vt 0.3820341 0.9794957
vt 0.008164056 0.66547006
vt 0.0025744296 0.82412165
vt 0.23448926 0.82412225
vt 0.22874193 0.66546994
vt 0.008164071 0.66547006
vt 0.0025744296 0.82412165
vt 0.23448926 0.82412225
vt 0.22874193 0.66547006
vt 0.008164076 0.6661305
vt 0.0025744296 0.82412165
vt 0.23448926 0.82412225
vt 0.22874193 0.6661305
vt 0.008164081 0.6661305
vt 0.0025744296 0.82412165
vt 0.23448926 0.82412225
vt 0.22874194 0.6661305
vt 0.0016843223 0.983116
vt 0.18139711 0.983116
vt 0.17737749 0.8364509
vt 0.0062191775 0.83645004
vt 0.0016843223 0.983116
vt 0.18139711 0.983116
vt 0.1773775 0.8364509
vt 0.0062191747 0.83645004
vt 0.17501508 0.83271915
vt 0.17219077 0.9794951
vt 0.27845585 0.9795018
vt 0.27843007 0.83271915
vt 0.3820341 0.9794957
vt 0.37913367 0.83271915
vt 0.1750151 0.83271915
vt 0.17219077 0.9794951
vt 0.27845585 0.9795018
vt 0.27843007 0.83271915
vt 0.3820341 0.9794957
vt 0.37913367 0.83271915
vt 0.37025586 0.6613348
vt 0.23169632 0.66130406
vt 0.22655024 0.81777936
vt 0.37517998 0.8177802
vt 0.15489432 0.50043195
vt 0.1531509 0.66093284
vt 0.26696223 0.66093284
vt 0.26511145 0.50038195
vt 0.38508967 0.66157585
vt 0.38508826 0.8250409
vt 0.50015074 0.8250409
vt 0.50014937 0.66157585
vt 0.39919022 0.83123547
vt 0.40193477 0.9893326
vt 0.48979613 0.9893343
vt 0.48706365 0.83123535
vt 0.48157075 0.83214706
vt 0.48970544 0.97450465
vt 0.38896248 0.97501653
vt 0.4013167 0.8320758
vt 0.0016843223 0.983116
vt 0.18139711 0.983116
vt 0.17737575 0.83589107
vt 0.0062191775 0.8358895
vt 0.0016843223 0.983116
vt 0.18139711 0.983116
vt 0.17737573 0.83589107
vt 0.0062191524 0.8358895
vt 0.37913367 0.8333072
vt 0.1750151 0.8333072
vt 0.17219077 0.9794951
vt 0.3820341 0.9794957
vt 0.37913367 0.8333072
vt 0.1750151 0.8333072
vt 0.17219077 0.9794951
vt 0.3820341 0.9794957
vt 0.37025583 0.6613348
vt 0.23169632 0.66130406
vt 0.22655024 0.81777936
vt 0.37517998 0.8177802
vt 0.15489432 0.50043195
vt 0.1531509 0.66093284
vt 0.26696223 0.66093284
vt 0.26511142 0.50038195
vn -0.40982604 0.101996034 -0.9064433
vn -0.40988895 0.10153346 -0.90646684
vn -0.40989152 0.10147151 -0.9064725
vn -0.4098561 0.10146275 -0.90648955
vn -0.4047224 -0.1916656 -0.89412755
vn -0.40474033 -0.19149825 -0.89415526
vn -0.4046563 -0.19150361 -0.89419216
vn -0.40464506 -0.19164284 -0.89416736
vn -0.65646863 0.20166254 0.72689825
vn -0.6567024 0.20160745 0.72670233
vn -0.65650296 0.20160477 0.72688335
vn -0.6565008 0.20162047 0.72688097
vn 0.666878 -0.19974214 0.71789753
vn 0.6669231 -0.19973356 0.717858
vn 0.6668318 -0.19970618 0.7179504
vn 0.6670247 -0.19973962 0.71776193
vn -0.6670247 -0.19973962 -0.71776193
vn -0.66702896 -0.19970813 -0.71776664
vn -0.6670036 -0.19989125 -0.71773934
vn -0.6670247 -0.19973962 -0.71776193
vn 0.49615717 -0.19637966 -0.8457323
vn 0.4961494 -0.19645703 -0.8457189
vn 0.5779875 -0.19684285 -0.79194915
vn 0.5774562 -0.19690461 -0.79232126
vn 0.6544314 -0.1962722 -0.7302032
vn 0.6540237 -0.19649827 -0.7305076
vn -0.5773413 -0.19734798 0.7922946
vn -0.5769922 -0.19742462 0.79252976
vn -0.57776344 -0.19742 0.7919689
vn -0.5767366 -0.19723687 0.7927625
vn -0.39052835 0.21684845 -0.89468664
vn -0.39048663 0.21686812 -0.8947002
vn -0.39098102 0.21685143 -0.89448833
vn -0.39099035 0.21674635 -0.8945097
vn 0.39862883 0.21688709 0.89109766
vn 0.39940816 0.21687062 0.8907527
vn 0.39863956 0.21686755 0.89109766
vn 0.39901695 0.2163572 0.8910528
vn 0.07114308 0.21778034 0.9734014
vn 0.071143225 0.21819797 0.9733079
vn 0.07018778 0.21819241 0.9733785
vn 0.07209793 0.21827415 0.97322065
vn -0.07972685 0.21774532 -0.9727438
vn -0.0797248 0.21743129 -0.9728143
vn -0.0797248 0.21743129 -0.9728143
vn -0.07972779 0.21780005 -0.97273153
vn 0.85870695 0.07667707 0.50669813
vn 0.8588235 0.07591599 0.5066153
vn 0.85868454 0.07638451 0.50678027
vn 0.8587259 0.07639116 0.50670934
vn -0.8442053 0.075911485 -0.5306175
vn -0.8441493 0.07667149 -0.5305972
vn -0.8441703 0.07634856 -0.53061044
vn -0.84415346 0.076399036 -0.5306298
vn -0.86357594 -0.19593701 0.46459165
vn -0.86379486 -0.19606559 0.46412998
vn -0.9054782 -0.19742362 0.37567714
vn -0.9056764 -0.1974447 0.37518767
vn -0.9387976 -0.19645703 0.28295535
vn -0.93882513 -0.1960381 0.2831544
vn 0.8637797 -0.19603017 -0.46417314
vn 0.8636939 -0.19645663 -0.4641526
vn 0.9056674 -0.1974025 -0.37523165
vn 0.9057709 -0.1967844 -0.37530652
vn 0.93887764 -0.19590153 -0.28307486
vn 0.9392672 -0.19595538 -0.28174204
vn -0.9671407 0.10155457 0.2330784
vn -0.9670515 0.10154016 0.23345417
vn -0.9669961 0.10204505 0.23346382
vn -0.9669977 0.102042705 0.23345846
vn -0.95423293 -0.19112553 0.23002295
vn -0.9542003 -0.19129781 0.2300151
vn -0.95415694 -0.19149894 0.23002762
vn -0.9541917 -0.19121476 0.2301199
vn -0.6562672 0.20217015 0.7269392
vn -0.6567613 0.20293131 0.72628057
vn -0.6567176 0.20218432 0.7265284
vn -0.65638304 0.20209193 0.7268563
vn 0.6668971 -0.20063001 0.71763206
vn 0.66671455 -0.20103477 0.7176885
vn 0.66698194 -0.2014106 0.71733457
vn 0.667501 -0.20088689 0.7169985
vn -0.66698277 -0.20072395 -0.7175262
vn -0.6670837 -0.20027532 -0.7175578
vn -0.66719544 -0.20027305 -0.71745443
vn -0.6669911 -0.20066388 -0.7175352
vn 0.56610364 0.075912826 -0.82083124
vn 0.5659698 0.07647983 -0.8208708
vn 0.56569016 0.076401725 -0.8210709
vn 0.56556135 0.07638923 -0.82116073
vn -0.5884573 0.07591767 0.8049562
vn -0.5893514 0.075909995 0.8043026
vn -0.5893301 0.07638255 0.8042734
vn -0.58954346 0.07641827 0.8041136
vn -0.9539322 -0.19793712 0.22546448
vn -0.9541067 -0.19777688 0.22486594
vn -0.9539846 -0.19835937 0.22487086
vn -0.9538271 -0.19911927 0.22486743
vn 0.9538653 -0.19784276 -0.22583014
vn 0.95401174 -0.1978008 -0.22524747
vn 0.953928 -0.19757484 -0.22579983
vn 0.95422196 -0.19721477 -0.22487062
vn 0.97060657 0.10154294 0.21820171
vn 0.970609 0.10152023 0.2182009
vn 0.9705502 0.10147052 0.21848585
vn 0.970426 0.1020422 0.21877083
vn 0.95761895 -0.19119062 0.21543476
vn 0.9576336 -0.19111665 0.21543539
vn 0.957623 -0.19169627 0.21496688
vn 0.9577146 -0.19125088 0.2149553
g Woodland_GrassPatch_1_LOD2_0
f 3/3/3 2/2/2 1/1/1
f 4/4/4 3/3/3 1/1/1
f 7/7/7 6/6/6 5/5/5
f 8/8/8 7/7/7 5/5/5
f 11/11/11 10/10/10 9/9/9
f 12/12/12 11/11/11 9/9/9
f 15/15/15 14/14/14 13/13/13
f 16/16/16 15/15/15 13/13/13
f 19/19/19 18/18/18 17/17/17
f 20/20/20 19/19/19 17/17/17
f 23/23/23 22/22/22 21/21/21
f 24/24/24 23/23/23 21/21/21
f 25/25/25 23/23/23 24/24/24
f 26/26/26 25/25/25 24/24/24
f 29/29/29 28/28/28 27/27/27
f 30/30/30 29/29/29 27/27/27
f 33/33/33 32/32/32 31/31/31
f 34/34/34 33/33/33 31/31/31
f 37/37/37 36/36/36 35/35/35
f 38/38/38 37/37/37 35/35/35
f 41/41/41 40/40/40 39/39/39
f 42/42/42 41/41/41 39/39/39
f 45/45/45 44/44/44 43/43/43
f 46/46/46 45/45/45 43/43/43
f 49/49/49 48/48/48 47/47/47
f 50/50/50 49/49/49 47/47/47
f 53/53/53 52/52/52 51/51/51
f 54/54/54 53/53/53 51/51/51
f 57/57/57 56/56/56 55/55/55
f 58/58/58 57/57/57 55/55/55
f 59/59/59 57/57/57 58/58/58
f 60/60/60 59/59/59 58/58/58
f 63/63/63 62/62/62 61/61/61
f 64/64/64 63/63/63 61/61/61
f 65/65/65 63/63/63 64/64/64
f 66/66/66 65/65/65 64/64/64
f 69/69/69 68/68/68 67/67/67
f 70/70/70 69/69/69 67/67/67
f 73/73/73 72/72/72 71/71/71
f 74/74/74 73/73/73 71/71/71
f 77/77/77 76/76/76 75/75/75
f 78/78/78 77/77/77 75/75/75
f 81/81/81 80/80/80 79/79/79
f 82/82/82 81/81/81 79/79/79
f 85/85/85 84/84/84 83/83/83
f 86/86/86 85/85/85 83/83/83
f 89/89/89 88/88/88 87/87/87
f 90/90/90 89/89/89 87/87/87
f 93/93/93 92/92/92 91/91/91
f 94/94/94 93/93/93 91/91/91
f 97/97/97 96/96/96 95/95/95
f 98/98/98 97/97/97 95/95/95
f 101/101/101 100/100/100 99/99/99
f 102/102/102 101/101/101 99/99/99
f 105/105/105 104/104/104 103/103/103
f 106/106/106 105/105/105 103/103/103
f 109/109/109 108/108/108 107/107/107
f 110/110/110 109/109/109 107/107/107
