g Bg_Harbor_STR_Base_Wall_01
v 1.7245203 -1.0711662 0.49407527
v 1.7493144 -1.0557662 0.55001265
v 1.7245203 -1.0711662 0.55001277
v 1.7493144 -1.0557662 0.55001265
v 1.7245203 -1.0711662 0.49407527
v 1.7493144 -1.0557662 0.49407515
v 1.2916145 -1.0168447 0.49407485
v 1.3973504 -1.2299931 0.5500136
v 1.2916145 -1.0168447 0.55001235
v 1.3973504 -1.2299931 0.5500136
v 1.2916145 -1.0168447 0.49407485
v 1.3973504 -1.2299931 0.4940761
v 1.2078445 -0.95981306 0.4940745
v 1.2916145 -1.0168447 0.55001235
v 1.2078445 -0.95981306 0.550012
v 1.2916145 -1.0168447 0.55001235
v 1.2078445 -0.95981306 0.4940745
v 1.2916145 -1.0168447 0.49407485
v 1.7494888 -0.92999285 0.4940769
v 1.7642334 -0.9299927 0.5500119
v 1.749485 -0.9299927 0.5500119
v -3.9000218 -0.93000484 -0.5499887
v 1.7642322 -0.93 -0.5499881
v 1.1955574 -0.92999405 0.49408358
v -3.9000194 -0.9300024 0.5500113
v 1.1955526 -0.9299936 0.5500118
v 4.200002 -0.2300003 -0.5499951
v 4.2000194 -0.03000061 0.54999053
v 4.2000012 -0.2300003 0.55000454
v 4.2000194 1.0702581 -0.55000883
v 4.2000194 -0.03000061 0.44999054
v 4.2000194 1.0700641 0.44970855
v 4.200002 -0.2300003 -0.5499951
v 4.2000194 -0.03000061 0.44999054
v 4.2000194 -0.03000061 0.54999053
v -3.9000194 -1.23 0.5500119
v 1.2916145 -1.0168447 0.55001235
v 1.3973504 -1.2299931 0.5500136
v -3.9000194 -0.9300024 0.5500113
v 1.2078445 -0.95981306 0.550012
v 1.1955526 -0.9299936 0.5500118
v 4.4999824 -1.229978 0.55001676
v 1.7642334 -0.9299927 0.5500119
v 4.1999874 -0.92999023 0.55001676
v 1.7642345 -1.2299926 0.5500137
v 4.2000012 -0.2300003 0.55000454
v 4.19999 -0.9299927 -0.5499838
v 4.200002 -0.2300003 -0.5499951
v 4.1999874 -0.92999023 0.55001676
v 4.1999874 -0.92999023 0.55001676
v 4.4999967 -0.2300003 0.55000454
v 4.4999824 -1.229978 0.55001676
v 4.2000012 -0.2300003 0.55000454
v 4.2000194 -0.03000061 0.54999053
v 4.5000196 -0.03000061 0.54999053
v 4.499984 -1.229978 1.6784668E-05
v 4.4999967 -0.2300003 0.55000454
v 4.499972 -0.22999756 1.9226074E-05
v 4.4999824 -1.229978 0.55001676
v 4.5000196 -0.03000061 0.54999053
v 4.5000196 -0.2300006 0.44999054
v 4.5000196 -0.03000061 0.44999054
v 1.7642334 -1.2299926 1.373291E-05
v 4.4999824 -1.229978 0.55001676
v 4.499984 -1.229978 1.6784668E-05
v 1.7642345 -1.2299926 0.5500137
v 1.7642334 -0.9299927 0.5500119
v 1.7493144 -1.0557662 0.55001265
v 1.749485 -0.9299927 0.5500119
v 1.7642345 -1.2299926 0.5500137
v 1.7245203 -1.0711662 0.55001277
v 1.6982031 -1.2299927 0.5500137
v 1.6982201 -1.2299927 0.49404806
v 1.6982031 -1.2299927 0.5500137
v 1.7642345 -1.2299926 0.5500137
v 1.7642334 -1.2299926 1.373291E-05
v 1.39738 -1.2299931 0.49404868
v -3.9000194 -1.23 1.1901855E-05
v -3.9000194 -1.23 0.5500119
v 1.3973504 -1.2299931 0.5500136
v 1.7494888 -0.92999285 0.4940769
v 1.2078445 -0.95981306 0.4940745
v 1.1955526 -0.9299936 0.4940743
v 1.2916145 -1.0168447 0.49407485
v 1.7245203 -1.0711662 0.49407527
v 1.7493144 -1.0557662 0.49407515
v 1.3973504 -1.2299931 0.4940761
v 1.6982031 -1.2299927 0.49407622
v 1.7493144 -1.0557662 0.49407515
v 1.749485 -0.9299927 0.5500119
v 1.7493144 -1.0557662 0.55001265
v 1.7494888 -0.92999285 0.4940769
v 1.6982031 -1.2299927 0.49407622
v 1.7245203 -1.0711662 0.55001277
v 1.6982031 -1.2299927 0.5500137
v 1.7245203 -1.0711662 0.49407527
v 1.1955526 -0.9299936 0.4940743
v 1.2078445 -0.95981306 0.550012
v 1.1955526 -0.9299936 0.5500118
v 1.2078445 -0.95981306 0.4940745
v 1.7494888 -0.92999285 0.4940769
v 1.7642322 -0.93 -0.5499881
v 4.19999 -0.9299927 -0.5499838
v 4.1999874 -0.92999023 0.55001676
v 1.7642334 -0.9299927 0.5500119
v -4.5 -0.22999023 0.54998654
v -4.4999804 1.2299987 0.44999054
v -4.4999804 1.2299987 0.54999053
v -4.5 -0.22999023 0.44998658
v -4.1999803 1.0699993 0.44999054
v -4.1999803 1.0702581 -0.55000883
v -4.2 -0.22999023 -0.5500125
v -4.2 -0.22999023 0.54998654
v -4.1999803 1.2299987 0.54999053
v -4.1999803 1.2299987 0.44999054
v 4.2000194 -0.03000061 0.44999054
v 4.5000196 -0.03000061 0.54999053
v 4.2000194 -0.03000061 0.54999053
v 4.5000196 -0.03000061 0.44999054
v -4.2000194 -0.92998046 0.5499826
v -3.9000194 -0.92998046 -0.55001676
v -3.9000194 -0.92998046 0.5499826
v -4.2000194 -0.92998046 -0.55001676
v -4.2000194 -0.92998046 -0.55001676
v -4.2 -0.22999023 0.54998654
v -4.2 -0.22999023 -0.5500125
v -4.2000194 -0.92998046 0.5499826
v -3.9000194 -1.2299805 0.5499826
v -4.2000194 -0.92998046 0.5499826
v -3.9000194 -0.92998046 0.5499826
v -4.5000196 -1.2299805 0.5499826
v -4.2000194 -0.92998046 0.5499826
v -4.5 -0.22999023 0.54998654
v -4.2 -0.22999023 0.54998654
v -4.5000196 -1.2299805 0.5499826
v -3.9000194 -1.2299805 0.5499826
v -4.5000196 -1.2299805 0.44998258
v -4.5000196 -1.2299805 0.5499826
v -3.9000194 -1.2299805 0.44998258
v -4.5 -0.22999023 0.54998654
v -4.5000196 -0.92998046 0.44998258
v -4.5 -0.22999023 0.44998658
v -4.5000196 -0.92998046 0.4699826
v -4.5000196 -1.1251465 0.4699826
v -4.5000196 -1.2299805 0.5499826
v -4.5000196 -1.2299805 0.44998258
v -4.5000196 -1.1251465 0.44998258
v -4.4999804 1.2299987 0.54999053
v -4.2 -0.22999023 0.54998654
v -4.5 -0.22999023 0.54998654
v -4.1999803 1.2299987 0.54999053
vt 0.44970703 0.32983398
vt 0.45385742 0.31860352
vt 0.4489746 0.31958008
vt 0.45385742 0.31860352
vt 0.44970703 0.32983398
vt 0.45385742 0.32763672
vt 0.44799805 0.40649414
vt 0.4074707 0.39086914
vt 0.4411621 0.41308594
vt 0.4074707 0.39086914
vt 0.44799805 0.40649414
vt 0.41333008 0.38256836
vt 0.4572754 0.42211914
vt 0.4411621 0.41308594
vt 0.44970703 0.42749023
vt 0.4411621 0.41308594
vt 0.4572754 0.42211914
vt 0.44799805 0.40649414
vt 0.50683594 0.23217773
vt 0.5058594 0.2376709
vt 0.50683594 0.2376709
vt 0.99609375 0.13134766
vt 0.5058594 0.13134766
vt 0.5551758 0.23217773
vt 0.99609375 0.2376709
vt 0.5551758 0.2376709
vt 0.6533203 0.12017822
vt 0.6298828 0.2376709
vt 0.6533203 0.2376709
vt 0.50341797 0.12017822
vt 0.6298828 0.22607422
vt 0.50341797 0.22595215
vt 0.6533203 0.12017822
vt 0.6298828 0.22607422
vt 0.6298828 0.2376709
vt 0.99609375 0.23754883
vt 0.546875 0.25708008
vt 0.53759766 0.23754883
vt 0.99609375 0.26489258
vt 0.55371094 0.26220703
vt 0.5551758 0.26489258
vt 0.6875 0.23754883
vt 0.93603516 0.26489258
vt 0.71484375 0.26489258
vt 0.93603516 0.23754883
vt 0.5966797 0.23754883
vt 0.66015625 0.13134766
vt 0.5966797 0.13134766
vt 0.66015625 0.23754883
vt 0.66015625 0.26489258
vt 0.5966797 0.2376709
vt 0.6875 0.23754883
vt 0.5966797 0.26489258
vt 0.5732422 0.26489258
vt 0.5732422 0.2376709
vt 0.6875 0.18762207
vt 0.5966797 0.2376709
vt 0.5966797 0.18762207
vt 0.6875 0.23754883
vt 0.5732422 0.2376709
vt 0.5966797 0.22399902
vt 0.5732422 0.22399902
vt 0.93603516 0.18762207
vt 0.6875 0.23754883
vt 0.6875 0.18762207
vt 0.93603516 0.23754883
vt 0.5058594 0.26489258
vt 0.50683594 0.25341797
vt 0.50683594 0.26489258
vt 0.5058594 0.23754883
vt 0.50927734 0.25195312
vt 0.51123047 0.23754883
vt 0.51123047 0.23254395
vt 0.51123047 0.23754883
vt 0.5058594 0.23754883
vt 0.5058594 0.18762207
vt 0.53759766 0.23254395
vt 0.99609375 0.18762207
vt 0.99609375 0.23754883
vt 0.53759766 0.23754883
vt 0.4753418 0.32958984
vt 0.4572754 0.42211914
vt 0.4609375 0.4255371
vt 0.44799805 0.40649414
vt 0.44970703 0.32983398
vt 0.45385742 0.32763672
vt 0.41333008 0.38256836
vt 0.42163086 0.3305664
vt 0.45385742 0.32763672
vt 0.47607422 0.31982422
vt 0.45385742 0.31860352
vt 0.4753418 0.32958984
vt 0.42163086 0.3305664
vt 0.4489746 0.31958008
vt 0.42114258 0.32104492
vt 0.44970703 0.32983398
vt 0.4609375 0.4255371
vt 0.44970703 0.42749023
vt 0.45336914 0.4321289
vt 0.4572754 0.42211914
vt 0.9375 0.23217773
vt 0.93603516 0.13134766
vt 0.71484375 0.13134766
vt 0.71484375 0.2376709
vt 0.93603516 0.2376709
vt 0.50341797 0.2376709
vt 0.6713867 0.22595215
vt 0.6713867 0.2376709
vt 0.50341797 0.22607422
vt 0.6533203 0.22607422
vt 0.6533203 0.12017822
vt 0.50341797 0.12017822
vt 0.50341797 0.2376709
vt 0.6713867 0.2376709
vt 0.6713867 0.22607422
vt 0.61865234 0.2376709
vt 0.6298828 0.26464844
vt 0.6298828 0.2376709
vt 0.61865234 0.26464844
vt 0.5332031 0.23754883
vt 0.5053711 0.13134766
vt 0.5053711 0.23754883
vt 0.5332031 0.13134766
vt 0.5332031 0.13134766
vt 0.5966797 0.23754883
vt 0.5966797 0.13134766
vt 0.5332031 0.23754883
vt 0.5053711 0.23754883
vt 0.5332031 0.21044922
vt 0.5053711 0.21044922
vt 0.5600586 0.23754883
vt 0.5332031 0.23754883
vt 0.5966797 0.26464844
vt 0.5966797 0.23754883
vt 0.50634766 0.26464844
vt 0.5053711 0.23754883
vt 0.5600586 0.24658203
vt 0.5600586 0.23754883
vt 0.5053711 0.24658203
vt 0.5966797 0.26464844
vt 0.5332031 0.27368164
vt 0.5966797 0.27368164
vt 0.5332031 0.27197266
vt 0.515625 0.27197266
vt 0.50634766 0.26464844
vt 0.50634766 0.27368164
vt 0.515625 0.27368164
vt 0.6713867 0.26464844
vt 0.50341797 0.2376709
vt 0.50341797 0.26464844
vt 0.6713867 0.2376709
vn -0.52783203 0.8496094 0
vn -0.52783203 0.8496094 0
vn -0.52783203 0.8496094 0
vn -0.52783203 0.8496094 0
vn -0.52783203 0.8496094 0
vn -0.52783203 0.8496094 0
vn 0.8959961 0.44433594 0
vn 0.8959961 0.44433594 0
vn 0.8959961 0.44433594 0
vn 0.8959961 0.44433594 0
vn 0.8959961 0.44433594 0
vn 0.8959961 0.44433594 0
vn 0.5629883 0.82666016 0
vn 0.5629883 0.82666016 0
vn 0.5629883 0.82666016 0
vn 0.5629883 0.82666016 0
vn 0.5629883 0.82666016 0
vn 0.5629883 0.82666016 0
vn -1.4305115E-06 1 -5.185604E-06
vn -5.9604645E-07 1 -3.9339066E-06
vn -0 1 -4.1127205E-06
vn -1.6093254E-06 1 -2.7418137E-06
vn -1.9669533E-06 1 -6.7949295E-06
vn -1.9073486E-06 1 -2.5629997E-06
vn -1.66893E-06 1 -2.2649765E-06
vn -1.7285347E-06 1 -6.7949295E-06
vn -1 9.1552734E-05 -1.1324883E-06
vn -1 9.1552734E-05 -1.1324883E-06
vn -1 9.1552734E-05 -1.1324883E-06
vn -1 0 0
vn -1 0 0
vn -1 0 0
vn -1 8.547306E-05 0
vn -1 8.547306E-05 0
vn -1 8.547306E-05 0
vn -1.7881393E-07 2.1457672E-06 1
vn -2.9802322E-07 5.6624413E-06 1
vn -2.9802322E-07 5.722046E-06 1
vn -1.7881393E-07 2.0861626E-06 1
vn -1.1920929E-07 6.020069E-06 1
vn -1.1920929E-07 6.377697E-06 1
vn 5.185604E-06 5.6624413E-06 1
vn -5.9604645E-07 5.7816505E-06 1
vn 4.053116E-06 5.543232E-06 1
vn -5.364418E-07 6.0796738E-06 1
vn -1 1.9013882E-05 -1.847744E-06
vn -1 1.847744E-05 -1.4901161E-06
vn -1 1.7881393E-05 -1.1324883E-06
vn -1 1.9609928E-05 -2.2053719E-06
vn 4.053116E-06 5.543232E-06 1
vn 3.1590462E-06 1.6093254E-05 1
vn 5.185604E-06 5.6624413E-06 1
vn -0 1.7464161E-05 1
vn -0 7.021427E-05 1
vn -0 7.021427E-05 1
vn 1 -5.9604645E-06 -1.3053417E-05
vn 1 3.516674E-06 -3.0219555E-05
vn 1 1.1920929E-05 -4.5478344E-05
vn 1 -1.4364719E-05 2.2053719E-06
vn 1 0 0
vn 1 0 0
vn 1 0 0
vn 3.33786E-06 -1 0
vn 5.364418E-06 -1 0
vn 5.364418E-06 -1 0
vn 3.2782555E-06 -1 0
vn -5.9604645E-07 5.7816505E-06 1
vn -0 6.1392784E-06 1
vn -0 6.0796738E-06 1
vn -5.364418E-07 6.0796738E-06 1
vn 6.556511E-07 6.1392784E-06 1
vn -0 6.020069E-06 1
vn 1.1920929E-06 -1 0
vn 1.1324883E-06 -1 0
vn 3.2782555E-06 -1 0
vn 3.33786E-06 -1 0
vn 1.3113022E-06 -1 0
vn 1.3113022E-06 -1 0
vn 1.3113022E-06 -1 0
vn 1.3113022E-06 -1 0
vn -8.940697E-07 -1.0073185E-05 1
vn -4.5895576E-06 3.2186508E-06 1
vn -4.708767E-06 4.4703484E-06 1
vn -3.0994415E-06 2.9802322E-07 1
vn 1.7285347E-06 -5.185604E-06 1
vn 1.3291836E-05 -1.3947487E-05 1
vn -2.9802322E-07 5.841255E-06 1
vn -3.5762787E-07 6.0796738E-06 1
vn -1 0.0013561249 0
vn -1 0.0013561249 0
vn -1 0.0013561249 0
vn -1 0.0013866425 -6.818771E-05
vn -0.9863281 0.16345215 0
vn -0.9863281 0.16345215 0
vn -0.9863281 0.16345215 0
vn -0.9863281 0.16345215 0
vn 0.9243164 0.38110352 0
vn 0.9243164 0.38110352 0
vn 0.9243164 0.38110352 0
vn 0.9243164 0.38110352 0
vn -1.4305115E-06 1 -5.185604E-06
vn -1.9669533E-06 1 -6.7949295E-06
vn -1.5497208E-06 1 -3.3974648E-06
vn -1.013279E-06 1 -2.2649765E-06
vn -5.9604645E-07 1 -3.9339066E-06
vn -1 1.335144E-05 0
vn -1 1.335144E-05 0
vn -1 1.335144E-05 0
vn -1 1.335144E-05 0
vn 1 -1.50203705E-05 0
vn 1 -1.50203705E-05 0
vn 1 -1.50203705E-05 0
vn 1 -1.335144E-05 2.1398067E-05
vn 1 0 0
vn 1 0 0
vn -0 1 0
vn -0 1 0
vn -0 1 0
vn -0 1 0
vn -0 1 0
vn -0 1 0
vn -0 1 0
vn -0 1 0
vn 1 -2.7894974E-05 0
vn 1 -2.7894974E-05 0
vn 1 -2.7894974E-05 0
vn 1 -2.7894974E-05 0
vn -0 0 1
vn 1.66893E-06 -2.1457672E-06 1
vn -0 0 1
vn 1.9669533E-06 -1.9669533E-06 1
vn 1.66893E-06 -2.1457672E-06 1
vn 1.013279E-06 -5.2452087E-06 1
vn -0 -5.6624413E-06 1
vn 1.9669533E-06 -1.9669533E-06 1
vn -0 -1 0
vn -0 -1 0
vn -0 -1 0
vn -0 -1 0
vn -1 2.7000904E-05 5.3048134E-06
vn -1 2.7894974E-05 0
vn -1 2.7894974E-05 0
vn -1 9.953976E-06 0.00015687943
vn -1 9.953976E-06 1.7642975E-05
vn -1 8.106232E-06 1.0609627E-05
vn -1 0 0
vn -1 0 0
vn -0 -2.7418137E-06 1
vn -0 -2.7418137E-06 1
vn -0 -2.7418137E-06 1
vn -0 -2.7418137E-06 1
g Bg_Harbor_STR_Base_Wall_01_0
f 3/3/3 2/2/2 1/1/1
f 6/6/6 5/5/5 4/4/4
f 9/9/9 8/8/8 7/7/7
f 12/12/12 11/11/11 10/10/10
f 15/15/15 14/14/14 13/13/13
f 18/18/18 17/17/17 16/16/16
f 21/21/21 20/20/20 19/19/19
f 23/23/23 22/22/22 19/19/19
f 24/24/24 19/19/19 22/22/22
f 22/22/22 25/25/25 24/24/24
f 26/26/26 24/24/24 25/25/25
f 29/29/29 28/28/28 27/27/27
f 31/31/31 30/30/30 27/27/27
f 32/32/32 30/30/30 31/31/31
f 35/35/35 34/34/34 33/33/33
f 38/38/38 37/37/37 36/36/36
f 37/37/37 39/39/39 36/36/36
f 40/40/40 39/39/39 37/37/37
f 41/41/41 39/39/39 40/40/40
f 44/44/44 43/43/43 42/42/42
f 45/45/45 42/42/42 43/43/43
f 48/48/48 47/47/47 46/46/46
f 49/49/49 46/46/46 47/47/47
f 52/52/52 51/51/51 50/50/50
f 53/53/53 50/50/50 51/51/51
f 53/53/53 51/51/51 54/54/54
f 55/55/55 54/54/54 51/51/51
f 58/58/58 57/57/57 56/56/56
f 59/59/59 56/56/56 57/57/57
f 57/57/57 61/61/61 60/60/60
f 62/62/62 60/60/60 61/61/61
f 65/65/65 64/64/64 63/63/63
f 66/66/66 63/63/63 64/64/64
f 69/69/69 68/68/68 67/67/67
f 70/70/70 67/67/67 68/68/68
f 71/71/71 70/70/70 68/68/68
f 72/72/72 70/70/70 71/71/71
f 75/75/75 74/74/74 73/73/73
f 76/76/76 75/75/75 73/73/73
f 77/77/77 76/76/76 73/73/73
f 78/78/78 76/76/76 77/77/77
f 78/78/78 77/77/77 79/79/79
f 80/80/80 79/79/79 77/77/77
f 83/83/83 82/82/82 81/81/81
f 82/82/82 84/84/84 81/81/81
f 84/84/84 85/85/85 81/81/81
f 81/81/81 85/85/85 86/86/86
f 84/84/84 87/87/87 85/85/85
f 88/88/88 85/85/85 87/87/87
f 91/91/91 90/90/90 89/89/89
f 92/92/92 89/89/89 90/90/90
f 95/95/95 94/94/94 93/93/93
f 96/96/96 93/93/93 94/94/94
f 99/99/99 98/98/98 97/97/97
f 100/100/100 97/97/97 98/98/98
f 103/103/103 102/102/102 101/101/101
f 104/104/104 103/103/103 101/101/101
f 105/105/105 104/104/104 101/101/101
f 108/108/108 107/107/107 106/106/106
f 109/109/109 106/106/106 107/107/107
f 112/112/112 111/111/111 110/110/110
f 113/113/113 112/112/112 110/110/110
f 113/113/113 110/110/110 114/114/114
f 115/115/115 114/114/114 110/110/110
f 118/118/118 117/117/117 116/116/116
f 119/119/119 116/116/116 117/117/117
f 122/122/122 121/121/121 120/120/120
f 123/123/123 120/120/120 121/121/121
f 126/126/126 125/125/125 124/124/124
f 127/127/127 124/124/124 125/125/125
f 130/130/130 129/129/129 128/128/128
f 131/131/131 128/128/128 129/129/129
f 134/134/134 133/133/133 132/132/132
f 135/135/135 132/132/132 133/133/133
f 138/138/138 137/137/137 136/136/136
f 139/139/139 136/136/136 137/137/137
f 142/142/142 141/141/141 140/140/140
f 141/141/141 143/143/143 140/140/140
f 143/143/143 144/144/144 140/140/140
f 144/144/144 145/145/145 140/140/140
f 146/146/146 145/145/145 144/144/144
f 147/147/147 146/146/146 144/144/144
f 150/150/150 149/149/149 148/148/148
f 151/151/151 148/148/148 149/149/149
