g Harbor_Buoy_02
v -0.1746491 0.3025013 0.35000005
v 6.198883E-08 0.34929836 -0.3499999
v 6.198883E-08 0.34929836 0.35000005
v -0.1746491 0.30250126 -0.3499999
v -0.3025012 0.17464918 0.35000005
v -0.3025012 0.17464918 -0.3499999
v -0.34929827 0 -0.3499999
v -0.34929833 0 0.35000005
v -0.30250108 -0.17464939 -0.3499999
v -0.30250108 -0.17464939 0.35000005
v -0.17464896 -0.30250135 0.35000005
v -0.17464896 -0.30250135 -0.3499999
v 6.198883E-08 -0.34929836 -0.3499999
v 6.198883E-08 -0.34929836 0.35000005
v -0.17464896 -0.30250135 -0.3499999
v 6.198883E-08 -0.34929836 -0.3499999
v 6.198883E-08 -0.25982714 -0.44297048
v -0.1299134 -0.225017 -0.44297048
v -0.30250108 -0.17464939 -0.3499999
v -0.22501677 -0.12991373 -0.44297048
v -0.34929827 0 -0.3499999
v -0.2598271 7.650803E-09 -0.44297048
v -0.3025012 0.17464918 -0.3499999
v -0.22501688 0.12991357 -0.44297048
v -0.1746491 0.30250126 -0.3499999
v -0.1299135 0.2250169 -0.44297048
v 6.198883E-08 0.34929836 -0.3499999
v 6.198883E-08 0.25982714 -0.44297048
v -0.17464896 -0.30250135 0.35000005
v 6.198883E-08 -0.25982714 0.4429699
v 6.198883E-08 -0.34929836 0.35000005
v -0.12991348 -0.225017 0.4429699
v -0.30250108 -0.17464939 0.35000005
v -0.22501686 -0.12991373 0.4429699
v -0.34929833 0 0.35000005
v -0.25982717 7.989462E-09 0.4429699
v -0.3025012 0.17464918 0.35000005
v -0.22501695 0.12991357 0.4429699
v -0.1746491 0.3025013 0.35000005
v -0.12991357 0.2250169 0.4429699
v 6.198883E-08 0.34929836 0.35000005
v 6.198883E-08 0.25982714 0.4429699
v -0.2598271 7.650803E-09 -0.44297048
v -0.16225661 0.0936789 -0.44296873
v -0.22501688 0.12991357 -0.44297048
v -0.1873578 2.286175E-08 -0.44296873
v -0.22501677 -0.12991373 -0.44297048
v -0.16225654 -0.09367903 -0.44296873
v -0.2598271 7.650803E-09 -0.44297048
v -0.1299134 -0.225017 -0.44297048
v -0.16225654 -0.09367903 -0.44296873
v -0.09367878 -0.16225669 -0.44296873
v -0.22501688 0.12991357 -0.44297048
v -0.16225661 0.0936789 -0.44296873
v -0.093678854 0.16225661 -0.44296873
v -0.1299135 0.2250169 -0.44297048
v -0.1299135 0.2250169 -0.44297048
v -0.093678854 0.16225661 -0.44296873
v 6.198883E-08 0.18735783 -0.44296873
v 6.198883E-08 0.25982714 -0.44297048
v 6.198883E-08 -0.25982714 -0.44297048
v 6.198883E-08 -0.18735783 -0.44296873
v -0.09367878 -0.16225669 -0.44296873
v -0.1299134 -0.225017 -0.44297048
v -0.093678914 0.16225661 0.44297072
v 6.198883E-08 0.18735783 0.44297072
v 6.198883E-08 0.18735783 -0.44296873
v -0.093678854 0.16225661 -0.44296873
v -0.16225667 0.0936789 0.44297072
v -0.16225661 0.0936789 -0.44296873
v -0.18735787 2.286175E-08 0.4429708
v -0.1873578 2.286175E-08 -0.44296873
v -0.1622566 -0.09367903 0.44297072
v -0.16225654 -0.09367903 -0.44296873
v -0.09367883 -0.16225669 0.44297072
v -0.09367878 -0.16225669 -0.44296873
v 6.198883E-08 -0.18735783 0.44297072
v 6.198883E-08 -0.18735783 -0.44296873
v -0.25982717 7.989462E-09 0.4429699
v -0.22501695 0.12991357 0.4429699
v -0.16225667 0.0936789 0.44297072
v -0.18735787 2.286175E-08 0.4429708
v -0.22501686 -0.12991373 0.4429699
v -0.25982717 7.989462E-09 0.4429699
v -0.1622566 -0.09367903 0.44297072
v -0.12991348 -0.225017 0.4429699
v -0.1622566 -0.09367903 0.44297072
v -0.09367883 -0.16225669 0.44297072
v -0.22501695 0.12991357 0.4429699
v -0.093678914 0.16225661 0.44297072
v -0.16225667 0.0936789 0.44297072
v -0.12991357 0.2250169 0.4429699
v 6.198883E-08 0.25982714 0.4429699
v 6.198883E-08 0.18735783 0.44297072
v -0.093678914 0.16225661 0.44297072
v 6.198883E-08 -0.25982714 0.4429699
v -0.12991348 -0.225017 0.4429699
v -0.09367883 -0.16225669 0.44297072
v 6.198883E-08 -0.18735783 0.44297072
v 6.198883E-08 0.34929836 -0.3499999
v 0.17464921 0.3025013 0.35000005
v 6.198883E-08 0.34929836 0.35000005
v 0.17464921 0.30250126 -0.3499999
v 0.30250132 0.17464918 0.35000005
v 0.30250132 0.17464918 -0.3499999
v 0.34929842 0 -0.3499999
v 0.34929848 0 0.35000005
v 0.3025012 -0.17464939 -0.3499999
v 0.3025012 -0.17464939 0.35000005
v 0.17464906 -0.30250135 0.35000005
v 0.17464906 -0.30250135 -0.3499999
v 6.198883E-08 -0.34929836 -0.3499999
v 6.198883E-08 -0.34929836 0.35000005
v 0.17464906 -0.30250135 -0.3499999
v 6.198883E-08 -0.25982714 -0.44297048
v 6.198883E-08 -0.34929836 -0.3499999
v 0.12991352 -0.225017 -0.44297048
v 0.3025012 -0.17464939 -0.3499999
v 0.22501689 -0.12991373 -0.44297048
v 0.34929842 0 -0.3499999
v 0.2598272 7.650803E-09 -0.44297048
v 0.30250132 0.17464918 -0.3499999
v 0.225017 0.12991357 -0.44297048
v 0.17464921 0.30250126 -0.3499999
v 0.12991361 0.2250169 -0.44297048
v 6.198883E-08 0.34929836 -0.3499999
v 6.198883E-08 0.25982714 -0.44297048
v 0.17464906 -0.30250135 0.35000005
v 6.198883E-08 -0.34929836 0.35000005
v 6.198883E-08 -0.25982714 0.4429699
v 0.1299136 -0.225017 0.4429699
v 0.3025012 -0.17464939 0.35000005
v 0.22501697 -0.12991373 0.4429699
v 0.34929848 0 0.35000005
v 0.2598273 7.989462E-09 0.4429699
v 0.30250132 0.17464918 0.35000005
v 0.22501707 0.12991357 0.4429699
v 0.17464921 0.3025013 0.35000005
v 0.12991369 0.2250169 0.4429699
v 6.198883E-08 0.34929836 0.35000005
v 6.198883E-08 0.25982714 0.4429699
v 0.2598272 7.650803E-09 -0.44297048
v 0.225017 0.12991357 -0.44297048
v 0.16225673 0.0936789 -0.44296873
v 0.18735792 2.286175E-08 -0.44296873
v 0.22501689 -0.12991373 -0.44297048
v 0.2598272 7.650803E-09 -0.44297048
v 0.16225666 -0.09367903 -0.44296873
v 0.12991352 -0.225017 -0.44297048
v 0.16225666 -0.09367903 -0.44296873
v 0.09367889 -0.16225669 -0.44296873
v 0.225017 0.12991357 -0.44297048
v 0.12991361 0.2250169 -0.44297048
v 0.093678966 0.16225661 -0.44296873
v 0.16225673 0.0936789 -0.44296873
v 0.12991361 0.2250169 -0.44297048
v 6.198883E-08 0.25982714 -0.44297048
v 6.198883E-08 0.18735783 -0.44296873
v 0.093678966 0.16225661 -0.44296873
v 6.198883E-08 -0.25982714 -0.44297048
v 0.12991352 -0.225017 -0.44297048
v 0.09367889 -0.16225669 -0.44296873
v 6.198883E-08 -0.18735783 -0.44296873
v 0.09367905 0.16225661 0.44297072
v 6.198883E-08 0.18735783 -0.44296873
v 6.198883E-08 0.18735783 0.44297072
v 0.093678966 0.16225661 -0.44296873
v 0.16225679 0.0936789 0.44297072
v 0.16225673 0.0936789 -0.44296873
v 0.18735799 2.286175E-08 0.4429708
v 0.18735792 2.286175E-08 -0.44296873
v 0.16225672 -0.09367903 0.44297072
v 0.16225666 -0.09367903 -0.44296873
v 0.093678966 -0.16225669 0.44297072
v 0.09367889 -0.16225669 -0.44296873
v 6.198883E-08 -0.18735783 0.44297072
v 6.198883E-08 -0.18735783 -0.44296873
v 0.2598273 7.989462E-09 0.4429699
v 0.16225679 0.0936789 0.44297072
v 0.22501707 0.12991357 0.4429699
v 0.18735799 2.286175E-08 0.4429708
v 0.22501697 -0.12991373 0.4429699
v 0.16225672 -0.09367903 0.44297072
v 0.2598273 7.989462E-09 0.4429699
v 0.1299136 -0.225017 0.4429699
v 0.16225672 -0.09367903 0.44297072
v 0.093678966 -0.16225669 0.44297072
v 0.22501707 0.12991357 0.4429699
v 0.16225679 0.0936789 0.44297072
v 0.09367905 0.16225661 0.44297072
v 0.12991369 0.2250169 0.4429699
v 0.12991369 0.2250169 0.4429699
v 0.09367905 0.16225661 0.44297072
v 6.198883E-08 0.18735783 0.44297072
v 6.198883E-08 0.25982714 0.4429699
v 6.198883E-08 -0.25982714 0.4429699
v 6.198883E-08 -0.18735783 0.44297072
v 0.093678966 -0.16225669 0.44297072
v 0.1299136 -0.225017 0.4429699
vt 0.2631836 0.97558594
vt 0.35058594 0.9970703
vt 0.2631836 0.9970703
vt 0.35058594 0.97558594
vt 0.2631836 0.9550781
vt 0.35058594 0.9550781
vt 0.35058594 0.9350586
vt 0.2631836 0.9350586
vt 0.35058594 0.9160156
vt 0.2631836 0.9160156
vt 0.2631836 0.89697266
vt 0.35058594 0.89697266
vt 0.35058594 0.8774414
vt 0.2631836 0.8774414
vt 0.35058594 0.89697266
vt 0.35058594 0.8774414
vt 0.36889648 0.8774414
vt 0.36889648 0.89697266
vt 0.35058594 0.9160156
vt 0.36889648 0.9160156
vt 0.35058594 0.9350586
vt 0.36889648 0.9350586
vt 0.35058594 0.9550781
vt 0.36889648 0.9550781
vt 0.35058594 0.97558594
vt 0.36889648 0.97558594
vt 0.35058594 0.9970703
vt 0.36889648 0.9970703
vt 0.2631836 0.89697266
vt 0.24511719 0.8774414
vt 0.2631836 0.8774414
vt 0.24511719 0.89697266
vt 0.2631836 0.9160156
vt 0.24511719 0.9160156
vt 0.2631836 0.9350586
vt 0.24511719 0.9350586
vt 0.2631836 0.9550781
vt 0.24511719 0.9550781
vt 0.2631836 0.97558594
vt 0.24511719 0.97558594
vt 0.2631836 0.9970703
vt 0.24511719 0.9970703
vt 0.36938477 0.93847656
vt 0.3798828 0.9584961
vt 0.36938477 0.9584961
vt 0.3798828 0.93847656
vt 0.36938477 0.91845703
vt 0.3798828 0.91845703
vt 0.36938477 0.93847656
vt 0.36938477 0.8979492
vt 0.3798828 0.91845703
vt 0.3798828 0.8979492
vt 0.36938477 0.9584961
vt 0.3798828 0.9584961
vt 0.3798828 0.97802734
vt 0.36938477 0.97802734
vt 0.36938477 0.97802734
vt 0.3798828 0.97802734
vt 0.3798828 0.9970703
vt 0.36938477 0.9970703
vt 0.36938477 0.8774414
vt 0.3798828 0.8774414
vt 0.3798828 0.8979492
vt 0.36938477 0.8979492
vt 0.35058594 0.9428711
vt 0.35058594 0.9550781
vt 0.2836914 0.9550781
vt 0.2836914 0.9428711
vt 0.35058594 0.9301758
vt 0.2836914 0.9301758
vt 0.35058594 0.91748047
vt 0.2836914 0.91748047
vt 0.35058594 0.90478516
vt 0.2836914 0.90478516
vt 0.35058594 0.89160156
vt 0.2836914 0.89160156
vt 0.35058594 0.87841797
vt 0.2836914 0.87841797
vt 0.36938477 0.93847656
vt 0.36938477 0.9584961
vt 0.3798828 0.9584961
vt 0.3798828 0.93847656
vt 0.36938477 0.91845703
vt 0.36938477 0.93847656
vt 0.3798828 0.91845703
vt 0.36938477 0.8979492
vt 0.3798828 0.91845703
vt 0.3798828 0.8979492
vt 0.36938477 0.9584961
vt 0.3798828 0.97802734
vt 0.3798828 0.9584961
vt 0.36938477 0.97802734
vt 0.36938477 0.9970703
vt 0.3798828 0.9970703
vt 0.3798828 0.97802734
vt 0.36938477 0.8774414
vt 0.36938477 0.8979492
vt 0.3798828 0.8979492
vt 0.3798828 0.8774414
vt 0.35058594 0.9970703
vt 0.2631836 0.97558594
vt 0.2631836 0.9970703
vt 0.35058594 0.97558594
vt 0.2631836 0.9550781
vt 0.35058594 0.9550781
vt 0.35058594 0.9350586
vt 0.2631836 0.9350586
vt 0.35058594 0.9160156
vt 0.2631836 0.9160156
vt 0.2631836 0.89697266
vt 0.35058594 0.89697266
vt 0.35058594 0.8774414
vt 0.2631836 0.8774414
vt 0.35058594 0.89697266
vt 0.36889648 0.8774414
vt 0.35058594 0.8774414
vt 0.36889648 0.89697266
vt 0.35058594 0.9160156
vt 0.36889648 0.9160156
vt 0.35058594 0.9350586
vt 0.36889648 0.9350586
vt 0.35058594 0.9550781
vt 0.36889648 0.9550781
vt 0.35058594 0.97558594
vt 0.36889648 0.97558594
vt 0.35058594 0.9970703
vt 0.36889648 0.9970703
vt 0.2631836 0.89697266
vt 0.2631836 0.8774414
vt 0.24511719 0.8774414
vt 0.24511719 0.89697266
vt 0.2631836 0.9160156
vt 0.24511719 0.9160156
vt 0.2631836 0.9350586
vt 0.24511719 0.9350586
vt 0.2631836 0.9550781
vt 0.24511719 0.9550781
vt 0.2631836 0.97558594
vt 0.24511719 0.97558594
vt 0.2631836 0.9970703
vt 0.24511719 0.9970703
vt 0.36938477 0.93847656
vt 0.36938477 0.9584961
vt 0.3798828 0.9584961
vt 0.3798828 0.93847656
vt 0.36938477 0.91845703
vt 0.36938477 0.93847656
vt 0.3798828 0.91845703
vt 0.36938477 0.8979492
vt 0.3798828 0.91845703
vt 0.3798828 0.8979492
vt 0.36938477 0.9584961
vt 0.36938477 0.97802734
vt 0.3798828 0.97802734
vt 0.3798828 0.9584961
vt 0.36938477 0.97802734
vt 0.36938477 0.9970703
vt 0.3798828 0.9970703
vt 0.3798828 0.97802734
vt 0.36938477 0.8774414
vt 0.36938477 0.8979492
vt 0.3798828 0.8979492
vt 0.3798828 0.8774414
vt 0.35058594 0.9428711
vt 0.2836914 0.9550781
vt 0.35058594 0.9550781
vt 0.2836914 0.9428711
vt 0.35058594 0.9301758
vt 0.2836914 0.9301758
vt 0.35058594 0.91748047
vt 0.2836914 0.91748047
vt 0.35058594 0.90478516
vt 0.2836914 0.90478516
vt 0.35058594 0.89160156
vt 0.2836914 0.89160156
vt 0.35058594 0.87841797
vt 0.2836914 0.87841797
vt 0.36938477 0.93847656
vt 0.3798828 0.9584961
vt 0.36938477 0.9584961
vt 0.3798828 0.93847656
vt 0.36938477 0.91845703
vt 0.3798828 0.91845703
vt 0.36938477 0.93847656
vt 0.36938477 0.8979492
vt 0.3798828 0.91845703
vt 0.3798828 0.8979492
vt 0.36938477 0.9584961
vt 0.3798828 0.9584961
vt 0.3798828 0.97802734
vt 0.36938477 0.97802734
vt 0.36938477 0.97802734
vt 0.3798828 0.97802734
vt 0.3798828 0.9970703
vt 0.36938477 0.9970703
vt 0.36938477 0.8774414
vt 0.3798828 0.8774414
vt 0.3798828 0.8979492
vt 0.36938477 0.8979492
vn -0.5 0.86621094 0
vn -0 1 0
vn -0 1 0
vn -0.5 0.86621094 0
vn -0.86621094 0.5 0
vn -0.86621094 0.5 0
vn -1 -1.7881393E-07 0
vn -1 -1.7881393E-07 0
vn -0.86621094 -0.5 0
vn -0.86621094 -0.5 0
vn -0.5 -0.86621094 0
vn -0.5 -0.86621094 0
vn -0 -1 0
vn -0 -1 0
vn -0.36035156 -0.62402344 -0.6933594
vn -0 -0.7207031 -0.6933594
vn -0 -0.7207031 -0.6933594
vn -0.36035156 -0.62402344 -0.6933594
vn -0.62402344 -0.36035156 -0.6933594
vn -0.62402344 -0.36035156 -0.6933594
vn -0.7207031 -1.1920929E-07 -0.6933594
vn -0.7207031 -1.1920929E-07 -0.6933594
vn -0.62402344 0.36035156 -0.6933594
vn -0.62402344 0.36035156 -0.6933594
vn -0.36035156 0.62402344 -0.6933594
vn -0.36035156 0.62402344 -0.6933594
vn -0 0.7207031 -0.6933594
vn -0 0.7207031 -0.6933594
vn -0.36035156 -0.62402344 0.6933594
vn -0 -0.7207031 0.6933594
vn -0 -0.7207031 0.6933594
vn -0.36035156 -0.62402344 0.6933594
vn -0.62402344 -0.36035156 0.6933594
vn -0.62402344 -0.36035156 0.6933594
vn -0.7207031 -1.1920929E-07 0.6933594
vn -0.7207031 -1.1920929E-07 0.6933594
vn -0.62402344 0.36035156 0.6933594
vn -0.62402344 0.36035156 0.6933594
vn -0.36035156 0.62402344 0.6933594
vn -0.36035156 0.62402344 0.6933594
vn -0 0.7207031 0.6933594
vn -0 0.7207031 0.6933594
vn 2.4199486E-05 -6.4969063E-06 -1
vn 2.4199486E-05 -6.4969063E-06 -1
vn 2.4199486E-05 -6.4969063E-06 -1
vn 2.4199486E-05 -6.4969063E-06 -1
vn 1.770258E-05 1.770258E-05 -1
vn 2.4199486E-05 6.4969063E-06 -1
vn 2.4199486E-05 6.4969063E-06 -1
vn 1.770258E-05 1.770258E-05 -1
vn 1.770258E-05 1.770258E-05 -1
vn 1.770258E-05 1.770258E-05 -1
vn 1.770258E-05 -1.770258E-05 -1
vn 1.770258E-05 -1.770258E-05 -1
vn 1.770258E-05 -1.770258E-05 -1
vn 1.770258E-05 -1.770258E-05 -1
vn 6.4969063E-06 -2.4199486E-05 -1
vn 6.4969063E-06 -2.4199486E-05 -1
vn 6.4969063E-06 -2.4199486E-05 -1
vn 6.4969063E-06 -2.4199486E-05 -1
vn 6.4969063E-06 2.4199486E-05 -1
vn 6.4969063E-06 2.4199486E-05 -1
vn 6.4969063E-06 2.4199486E-05 -1
vn 6.4969063E-06 2.4199486E-05 -1
vn 0.5 -0.86621094 0
vn -0 -1 0
vn -0 -1 0
vn 0.5 -0.86621094 0
vn 0.86621094 -0.5 0
vn 0.86621094 -0.5 0
vn 1 1.1920929E-07 0
vn 1 1.1920929E-07 0
vn 0.86621094 0.5 0
vn 0.86621094 0.5 0
vn 0.5 0.86621094 0
vn 0.5 0.86621094 0
vn -0 1 0
vn -0 1 0
vn -1.2040138E-05 3.5762787E-06 1
vn -1.2040138E-05 3.5762787E-06 1
vn -1.2040138E-05 3.5762787E-06 1
vn -1.2040138E-05 3.5762787E-06 1
vn -8.46386E-06 -8.46386E-06 1
vn -1.2040138E-05 -3.5762787E-06 1
vn -1.2040138E-05 -3.5762787E-06 1
vn -8.46386E-06 -8.46386E-06 1
vn -8.46386E-06 -8.46386E-06 1
vn -8.46386E-06 -8.46386E-06 1
vn -8.46386E-06 8.46386E-06 1
vn -8.46386E-06 8.46386E-06 1
vn -8.46386E-06 8.46386E-06 1
vn -8.46386E-06 8.46386E-06 1
vn -3.0994415E-06 1.1563301E-05 1
vn -3.0994415E-06 1.1563301E-05 1
vn -3.0994415E-06 1.1563301E-05 1
vn -3.0994415E-06 -1.1563301E-05 1
vn -3.0994415E-06 -1.1563301E-05 1
vn -3.0994415E-06 -1.1563301E-05 1
vn -3.0994415E-06 -1.1563301E-05 1
vn -0 1 0
vn 0.5 0.86621094 0
vn -0 1 0
vn 0.5 0.86621094 0
vn 0.86621094 0.5 0
vn 0.86621094 0.5 0
vn 1 -1.7881393E-07 0
vn 1 -1.7881393E-07 0
vn 0.86621094 -0.5 0
vn 0.86621094 -0.5 0
vn 0.5 -0.86621094 0
vn 0.5 -0.86621094 0
vn -0 -1 0
vn -0 -1 0
vn 0.36035156 -0.62402344 -0.6933594
vn -0 -0.7207031 -0.6933594
vn -0 -0.7207031 -0.6933594
vn 0.36035156 -0.62402344 -0.6933594
vn 0.62402344 -0.36035156 -0.6933594
vn 0.62402344 -0.36035156 -0.6933594
vn 0.7207031 -1.1920929E-07 -0.6933594
vn 0.7207031 -1.7881393E-07 -0.6933594
vn 0.62402344 0.36035156 -0.6933594
vn 0.62402344 0.36035156 -0.6933594
vn 0.36035156 0.62402344 -0.6933594
vn 0.36035156 0.62402344 -0.6933594
vn -0 0.7207031 -0.6933594
vn -0 0.7207031 -0.6933594
vn 0.36035156 -0.62402344 0.6933594
vn -0 -0.7207031 0.6933594
vn -0 -0.7207031 0.6933594
vn 0.36035156 -0.62402344 0.6933594
vn 0.62402344 -0.36035156 0.6933594
vn 0.62402344 -0.36035156 0.6933594
vn 0.7207031 -1.1920929E-07 0.6933594
vn 0.7207031 -1.1920929E-07 0.6933594
vn 0.62402344 0.36035156 0.6933594
vn 0.62402344 0.36035156 0.6933594
vn 0.36035156 0.62402344 0.6933594
vn 0.36035156 0.62402344 0.6933594
vn -0 0.7207031 0.6933594
vn -0 0.7207031 0.6933594
vn -2.4199486E-05 -6.4969063E-06 -1
vn -2.4199486E-05 -6.4969063E-06 -1
vn -2.4199486E-05 -6.4969063E-06 -1
vn -2.4199486E-05 -6.4969063E-06 -1
vn -1.770258E-05 1.770258E-05 -1
vn -2.4199486E-05 6.4969063E-06 -1
vn -2.4199486E-05 6.4969063E-06 -1
vn -1.770258E-05 1.770258E-05 -1
vn -1.770258E-05 1.770258E-05 -1
vn -1.770258E-05 1.770258E-05 -1
vn -1.770258E-05 -1.770258E-05 -1
vn -1.770258E-05 -1.770258E-05 -1
vn -1.770258E-05 -1.770258E-05 -1
vn -1.770258E-05 -1.770258E-05 -1
vn -6.4969063E-06 -2.4199486E-05 -1
vn -6.4969063E-06 -2.4199486E-05 -1
vn -6.4969063E-06 -2.4199486E-05 -1
vn -6.4969063E-06 -2.4199486E-05 -1
vn -6.4969063E-06 2.4199486E-05 -1
vn -6.4969063E-06 2.4199486E-05 -1
vn -6.4969063E-06 2.4199486E-05 -1
vn -6.4969063E-06 2.4199486E-05 -1
vn -0.5 -0.86621094 0
vn -0 -1 0
vn -0 -1 0
vn -0.5 -0.86621094 0
vn -0.86621094 -0.5 0
vn -0.86621094 -0.5 0
vn -1 1.1920929E-07 0
vn -1 1.1920929E-07 0
vn -0.86621094 0.5 0
vn -0.86621094 0.5 0
vn -0.5 0.86621094 0
vn -0.5 0.86621094 0
vn -0 1 0
vn -0 1 0
vn 1.2040138E-05 3.5762787E-06 1
vn 1.2040138E-05 3.5762787E-06 1
vn 1.2040138E-05 3.5762787E-06 1
vn 1.2040138E-05 3.5762787E-06 1
vn 8.46386E-06 -8.46386E-06 1
vn 1.2040138E-05 -3.5762787E-06 1
vn 1.2040138E-05 -3.5762787E-06 1
vn 8.46386E-06 -8.46386E-06 1
vn 8.46386E-06 -8.46386E-06 1
vn 8.46386E-06 -8.46386E-06 1
vn 8.46386E-06 8.46386E-06 1
vn 8.46386E-06 8.46386E-06 1
vn 8.46386E-06 8.46386E-06 1
vn 8.46386E-06 8.46386E-06 1
vn 3.0994415E-06 1.1563301E-05 1
vn 3.0994415E-06 1.1563301E-05 1
vn 3.0994415E-06 1.1563301E-05 1
vn 3.0994415E-06 1.1563301E-05 1
vn 3.0994415E-06 -1.1563301E-05 1
vn 3.0994415E-06 -1.1563301E-05 1
vn 3.0994415E-06 -1.1563301E-05 1
vn 3.0994415E-06 -1.1563301E-05 1
g Harbor_Buoy_02_0
f 3/3/3 2/2/2 1/1/1
f 2/2/2 4/4/4 1/1/1
f 1/1/1 4/4/4 5/5/5
f 4/4/4 6/6/6 5/5/5
f 5/5/5 6/6/6 7/7/7
f 8/8/8 5/5/5 7/7/7
f 7/7/7 9/9/9 8/8/8
f 9/9/9 10/10/10 8/8/8
f 10/10/10 9/9/9 11/11/11
f 9/9/9 12/12/12 11/11/11
f 11/11/11 12/12/12 13/13/13
f 14/14/14 11/11/11 13/13/13
f 17/17/17 16/16/16 15/15/15
f 18/18/18 17/17/17 15/15/15
f 18/18/18 15/15/15 19/19/19
f 20/20/20 18/18/18 19/19/19
f 20/20/20 19/19/19 21/21/21
f 22/22/22 20/20/20 21/21/21
f 22/22/22 21/21/21 23/23/23
f 24/24/24 22/22/22 23/23/23
f 24/24/24 23/23/23 25/25/25
f 26/26/26 24/24/24 25/25/25
f 26/26/26 25/25/25 27/27/27
f 28/28/28 26/26/26 27/27/27
f 31/31/31 30/30/30 29/29/29
f 30/30/30 32/32/32 29/29/29
f 29/29/29 32/32/32 33/33/33
f 32/32/32 34/34/34 33/33/33
f 33/33/33 34/34/34 35/35/35
f 34/34/34 36/36/36 35/35/35
f 35/35/35 36/36/36 37/37/37
f 36/36/36 38/38/38 37/37/37
f 37/37/37 38/38/38 39/39/39
f 38/38/38 40/40/40 39/39/39
f 39/39/39 40/40/40 41/41/41
f 40/40/40 42/42/42 41/41/41
f 45/45/45 44/44/44 43/43/43
f 44/44/44 46/46/46 43/43/43
f 46/46/46 48/48/48 47/47/47
f 49/49/49 46/46/46 47/47/47
f 47/47/47 51/51/51 50/50/50
f 51/51/51 52/52/52 50/50/50
f 55/55/55 54/54/54 53/53/53
f 56/56/56 55/55/55 53/53/53
f 59/59/59 58/58/58 57/57/57
f 60/60/60 59/59/59 57/57/57
f 63/63/63 62/62/62 61/61/61
f 64/64/64 63/63/63 61/61/61
f 67/67/67 66/66/66 65/65/65
f 68/68/68 67/67/67 65/65/65
f 68/68/68 65/65/65 69/69/69
f 70/70/70 68/68/68 69/69/69
f 70/70/70 69/69/69 71/71/71
f 72/72/72 70/70/70 71/71/71
f 72/72/72 71/71/71 73/73/73
f 74/74/74 72/72/72 73/73/73
f 74/74/74 73/73/73 75/75/75
f 76/76/76 74/74/74 75/75/75
f 76/76/76 75/75/75 77/77/77
f 78/78/78 76/76/76 77/77/77
f 81/81/81 80/80/80 79/79/79
f 82/82/82 81/81/81 79/79/79
f 82/82/82 84/84/84 83/83/83
f 85/85/85 82/82/82 83/83/83
f 87/87/87 83/83/83 86/86/86
f 88/88/88 87/87/87 86/86/86
f 91/91/91 90/90/90 89/89/89
f 90/90/90 92/92/92 89/89/89
f 94/94/94 93/93/93 92/92/92
f 95/95/95 94/94/94 92/92/92
f 98/98/98 97/97/97 96/96/96
f 99/99/99 98/98/98 96/96/96
f 102/102/102 101/101/101 100/100/100
f 101/101/101 103/103/103 100/100/100
f 101/101/101 104/104/104 103/103/103
f 104/104/104 105/105/105 103/103/103
f 105/105/105 104/104/104 106/106/106
f 104/104/104 107/107/107 106/106/106
f 106/106/106 107/107/107 108/108/108
f 107/107/107 109/109/109 108/108/108
f 108/108/108 109/109/109 110/110/110
f 111/111/111 108/108/108 110/110/110
f 111/111/111 110/110/110 112/112/112
f 110/110/110 113/113/113 112/112/112
f 116/116/116 115/115/115 114/114/114
f 115/115/115 117/117/117 114/114/114
f 114/114/114 117/117/117 118/118/118
f 117/117/117 119/119/119 118/118/118
f 118/118/118 119/119/119 120/120/120
f 119/119/119 121/121/121 120/120/120
f 120/120/120 121/121/121 122/122/122
f 121/121/121 123/123/123 122/122/122
f 122/122/122 123/123/123 124/124/124
f 123/123/123 125/125/125 124/124/124
f 124/124/124 125/125/125 126/126/126
f 125/125/125 127/127/127 126/126/126
f 130/130/130 129/129/129 128/128/128
f 131/131/131 130/130/130 128/128/128
f 131/131/131 128/128/128 132/132/132
f 133/133/133 131/131/131 132/132/132
f 133/133/133 132/132/132 134/134/134
f 135/135/135 133/133/133 134/134/134
f 135/135/135 134/134/134 136/136/136
f 137/137/137 135/135/135 136/136/136
f 137/137/137 136/136/136 138/138/138
f 139/139/139 137/137/137 138/138/138
f 139/139/139 138/138/138 140/140/140
f 141/141/141 139/139/139 140/140/140
f 144/144/144 143/143/143 142/142/142
f 145/145/145 144/144/144 142/142/142
f 145/145/145 147/147/147 146/146/146
f 148/148/148 145/145/145 146/146/146
f 150/150/150 146/146/146 149/149/149
f 151/151/151 150/150/150 149/149/149
f 154/154/154 153/153/153 152/152/152
f 155/155/155 154/154/154 152/152/152
f 158/158/158 157/157/157 156/156/156
f 159/159/159 158/158/158 156/156/156
f 162/162/162 161/161/161 160/160/160
f 163/163/163 162/162/162 160/160/160
f 166/166/166 165/165/165 164/164/164
f 165/165/165 167/167/167 164/164/164
f 164/164/164 167/167/167 168/168/168
f 167/167/167 169/169/169 168/168/168
f 168/168/168 169/169/169 170/170/170
f 169/169/169 171/171/171 170/170/170
f 170/170/170 171/171/171 172/172/172
f 171/171/171 173/173/173 172/172/172
f 172/172/172 173/173/173 174/174/174
f 173/173/173 175/175/175 174/174/174
f 174/174/174 175/175/175 176/176/176
f 175/175/175 177/177/177 176/176/176
f 180/180/180 179/179/179 178/178/178
f 179/179/179 181/181/181 178/178/178
f 181/181/181 183/183/183 182/182/182
f 184/184/184 181/181/181 182/182/182
f 182/182/182 186/186/186 185/185/185
f 186/186/186 187/187/187 185/185/185
f 190/190/190 189/189/189 188/188/188
f 191/191/191 190/190/190 188/188/188
f 194/194/194 193/193/193 192/192/192
f 195/195/195 194/194/194 192/192/192
f 198/198/198 197/197/197 196/196/196
f 199/199/199 198/198/198 196/196/196
