g Harbor_OBJ_House_01_NightLightRing
v -0.03710233 0.064263135 0
v -0.03710234 -0.06426313 0
v -0.07420467 6.4871784E-09 0
v 0.07420467 0 0
v 0.03710233 0.064263135 0
v 0.037102334 -0.064263135 0
v -0.03710233 0.064263135 0
v 0.03710233 0.064263135 -3.2371254
v 0.03710233 0.064263135 0
v -0.03710233 0.064263135 -3.2371254
v -0.07420467 6.4871784E-09 0
v -0.07420467 6.4871784E-09 -3.2371254
v -0.03710234 -0.06426313 0
v -0.03710234 -0.06426313 -3.2371254
v 0.037102334 -0.064263135 0
v 0.037102334 -0.064263135 -3.2371254
v 0.07420467 0 0
v 0.07420467 0 -3.2371254
v 0.03710233 0.064263135 0
v 0.03710233 0.064263135 -3.2371254
v 0.07420467 0 -3.2371254
v -0.03710234 -0.06426313 -3.2371254
v 0.037102334 -0.064263135 -3.2371254
v -0.03710233 0.064263135 -3.2371254
v 0.03710233 0.064263135 -3.2371254
v -0.07420467 6.4871784E-09 -3.2371254
vt 0.08331299 0
vt 0.41674805 0
vt 0.25 0
vt 0.75 0
vt -0.08331299 0
vt 0.5834961 0
vt 0.08331299 0
vt -0.08331299 1
vt -0.08331299 0
vt 0.08331299 1
vt 0.25 0
vt 0.25 1
vt 0.41674805 0
vt 0.41674805 1
vt 0.5834961 0
vt 0.5834961 1
vt 0.75 0
vt 0.75 1
vt 0.9165039 0
vt 0.9165039 1
vt 0.75 1
vt 0.41674805 1
vt 0.5834961 1
vt 0.08331299 1
vt 0.9165039 1
vt 0.25 1
vn -0 0 1
vn -0 0 1
vn -0 0 1
vn -0 0 1
vn -0 0 1
vn -0 0 1
vn -0.5 0.86621094 0
vn 0.5 0.86621094 0
vn 0.5 0.86621094 0
vn -0.5 0.86621094 0
vn -1 4.7683716E-07 0
vn -1 -2.3841858E-07 0
vn -0.5 -0.86621094 0
vn -0.5 -0.86621094 0
vn 0.5 -0.86621094 0
vn 0.5 -0.86621094 0
vn 1 -3.5762787E-07 0
vn 1 4.172325E-07 0
vn 0.5 0.86621094 0
vn 0.5 0.86621094 0
vn -0 0 -1
vn -0 0 -1
vn -0 0 -1
vn -0 0 -1
vn -0 0 -1
vn -0 0 -1
g Harbor_OBJ_House_01_NightLightRing_0
f 3/3/3 2/2/2 1/1/1
f 2/2/2 4/4/4 1/1/1
f 1/1/1 4/4/4 5/5/5
f 6/6/6 4/4/4 2/2/2
f 9/9/9 8/8/8 7/7/7
f 10/10/10 7/7/7 8/8/8
f 7/7/7 10/10/10 11/11/11
f 12/12/12 11/11/11 10/10/10
f 11/11/11 12/12/12 13/13/13
f 14/14/14 13/13/13 12/12/12
f 13/13/13 14/14/14 15/15/15
f 16/16/16 15/15/15 14/14/14
f 15/15/15 16/16/16 17/17/17
f 18/18/18 17/17/17 16/16/16
f 17/17/17 18/18/18 19/19/19
f 20/20/20 19/19/19 18/18/18
f 23/23/23 22/22/22 21/21/21
f 22/22/22 24/24/24 21/21/21
f 21/21/21 24/24/24 25/25/25
f 26/26/26 24/24/24 22/22/22
