g Harbor_Buoy_01
v -0.17464916 0.3025013 0.35
v -5.1271144E-08 0.34929836 -0.35
v -5.1271144E-08 0.34929836 0.35
v -0.17464916 0.30250126 -0.35
v -0.30250126 0.17464918 0.35
v -0.30250126 0.17464918 -0.35
v -0.34929836 0 -0.35
v -0.3492984 0 0.35
v -0.30250114 -0.17464939 -0.35
v -0.30250114 -0.17464939 0.35
v -0.174649 -0.30250135 0.35
v -0.174649 -0.30250135 -0.35
v -5.1271144E-08 -0.34929836 -0.35
v -5.1271144E-08 -0.34929836 0.35
v -0.174649 -0.30250135 -0.35
v -5.1271144E-08 -0.34929836 -0.35
v -5.1271144E-08 -0.25982714 -0.44297057
v -0.12991346 -0.225017 -0.44297057
v -0.30250114 -0.17464939 -0.35
v -0.22501683 -0.12991373 -0.44297057
v -0.34929836 0 -0.35
v -0.25982714 7.650803E-09 -0.44297057
v -0.30250126 0.17464918 -0.35
v -0.22501694 0.12991357 -0.44297057
v -0.17464916 0.30250126 -0.35
v -0.12991357 0.2250169 -0.44297057
v -5.1271144E-08 0.34929836 -0.35
v -5.1271144E-08 0.25982714 -0.44297057
v -0.174649 -0.30250135 0.35
v -5.1271144E-08 -0.25982714 0.4429698
v -5.1271144E-08 -0.34929836 0.35
v -0.12991355 -0.225017 0.4429698
v -0.30250114 -0.17464939 0.35
v -0.2250169 -0.12991373 0.4429698
v -0.3492984 0 0.35
v -0.25982723 7.989462E-09 0.4429698
v -0.30250126 0.17464918 0.35
v -0.22501701 0.12991357 0.4429698
v -0.17464916 0.3025013 0.35
v -0.12991364 0.2250169 0.4429698
v -5.1271144E-08 0.34929836 0.35
v -5.1271144E-08 0.25982714 0.4429698
v -0.25982714 7.650803E-09 -0.44297057
v -0.16225667 0.0936789 -0.44296882
v -0.22501694 0.12991357 -0.44297057
v -0.18735786 2.286175E-08 -0.44296882
v -0.22501683 -0.12991373 -0.44297057
v -0.1622566 -0.09367903 -0.44296882
v -0.25982714 7.650803E-09 -0.44297057
v -0.22501694 0.12991357 -0.44297057
v -0.16225667 0.0936789 -0.44296882
v -0.09367892 0.16225661 -0.44296882
v -0.12991357 0.2250169 -0.44297057
v -0.12991357 0.2250169 -0.44297057
v -0.09367892 0.16225661 -0.44296882
v -5.1271144E-08 0.18735783 -0.44296882
v -5.1271144E-08 0.25982714 -0.44297057
v -5.1271144E-08 -0.25982714 -0.44297057
v -5.1271144E-08 -0.18735783 -0.44296882
v -0.09367885 -0.16225669 -0.44296882
v -0.12991346 -0.225017 -0.44297057
v -0.09367885 -0.16225669 -0.44296882
v -0.1622566 -0.09367903 -0.44296882
v -0.22501683 -0.12991373 -0.44297057
v -0.09367899 0.16225661 0.44297063
v -5.1271144E-08 0.18735783 0.44297063
v -5.1271144E-08 0.18735783 -0.44296882
v -0.09367892 0.16225661 -0.44296882
v -0.16225673 0.0936789 0.44297063
v -0.16225667 0.0936789 -0.44296882
v -0.18735793 2.286175E-08 0.44297072
v -0.18735786 2.286175E-08 -0.44296882
v -0.16225666 -0.09367903 0.44297063
v -0.1622566 -0.09367903 -0.44296882
v -0.093678914 -0.16225669 0.44297063
v -0.09367885 -0.16225669 -0.44296882
v -5.1271144E-08 -0.18735783 0.44297063
v -5.1271144E-08 -0.18735783 -0.44296882
v -0.25982723 7.989462E-09 0.4429698
v -0.22501701 0.12991357 0.4429698
v -0.16225673 0.0936789 0.44297063
v -0.18735793 2.286175E-08 0.44297072
v -0.2250169 -0.12991373 0.4429698
v -0.25982723 7.989462E-09 0.4429698
v -0.16225666 -0.09367903 0.44297063
v -0.12991355 -0.225017 0.4429698
v -0.16225666 -0.09367903 0.44297063
v -0.093678914 -0.16225669 0.44297063
v -0.22501701 0.12991357 0.4429698
v -0.12991364 0.2250169 0.4429698
v -0.09367899 0.16225661 0.44297063
v -0.16225673 0.0936789 0.44297063
v -0.12991364 0.2250169 0.4429698
v -5.1271144E-08 0.25982714 0.4429698
v -5.1271144E-08 0.18735783 0.44297063
v -0.09367899 0.16225661 0.44297063
v -5.1271144E-08 -0.25982714 0.4429698
v -0.12991355 -0.225017 0.4429698
v -0.093678914 -0.16225669 0.44297063
v -5.1271144E-08 -0.18735783 0.44297063
v -5.1271144E-08 0.34929836 -0.35
v 0.17464907 0.3025013 0.35
v -5.1271144E-08 0.34929836 0.35
v 0.17464907 0.3025013 -0.35
v 0.30250117 0.1746492 0.35
v 0.30250117 0.1746492 -0.35
v 0.34929827 0 -0.35
v 0.34929833 0 0.35
v 0.30250105 -0.17464939 -0.35
v 0.30250105 -0.17464939 0.35
v 0.17464893 -0.30250135 0.35
v 0.17464893 -0.30250135 -0.35
v -5.1271144E-08 -0.34929836 -0.35
v -5.1271144E-08 -0.34929836 0.35
v 0.17464893 -0.30250135 -0.35
v -5.1271144E-08 -0.25982714 -0.44297057
v -5.1271144E-08 -0.34929836 -0.35
v 0.12991336 -0.225017 -0.44297057
v 0.30250105 -0.17464939 -0.35
v 0.22501676 -0.12991373 -0.44297057
v 0.34929827 0 -0.35
v 0.25982708 0 -0.44297057
v 0.30250117 0.1746492 -0.35
v 0.22501686 0.12991355 -0.44297057
v 0.17464907 0.3025013 -0.35
v 0.12991345 0.22501694 -0.44297057
v -5.1271144E-08 0.34929836 -0.35
v -5.1271144E-08 0.25982714 -0.44297057
v 0.17464893 -0.30250135 0.35
v -5.1271144E-08 -0.34929836 0.35
v -5.1271144E-08 -0.25982714 0.4429698
v 0.12991343 -0.225017 0.4429698
v 0.30250105 -0.17464939 0.35
v 0.22501683 -0.12991373 0.4429698
v 0.34929833 0 0.35
v 0.25982714 0 0.4429698
v 0.30250117 0.1746492 0.35
v 0.22501694 0.12991355 0.4429698
v 0.17464907 0.3025013 0.35
v 0.12991352 0.22501694 0.4429698
v -5.1271144E-08 0.34929836 0.35
v -5.1271144E-08 0.25982714 0.4429698
v 0.25982708 0 -0.44297057
v 0.22501686 0.12991355 -0.44297057
v 0.1622566 0.09367889 -0.44296882
v 0.18735778 1.9073486E-08 -0.44296882
v 0.22501676 -0.12991373 -0.44297057
v 0.25982708 0 -0.44297057
v 0.16225652 -0.09367905 -0.44296882
v 0.12991336 -0.225017 -0.44297057
v 0.16225652 -0.09367905 -0.44296882
v 0.09367873 -0.16225669 -0.44296882
v 0.22501686 0.12991355 -0.44297057
v 0.12991345 0.22501694 -0.44297057
v 0.09367881 0.16225661 -0.44296882
v 0.1622566 0.09367889 -0.44296882
v 0.12991345 0.22501694 -0.44297057
v -5.1271144E-08 0.25982714 -0.44297057
v -5.1271144E-08 0.18735783 -0.44296882
v 0.09367881 0.16225661 -0.44296882
v -5.1271144E-08 -0.25982714 -0.44297057
v 0.12991336 -0.225017 -0.44297057
v 0.09367873 -0.16225669 -0.44296882
v -5.1271144E-08 -0.18735783 -0.44296882
v 0.09367887 0.16225661 0.44297063
v -5.1271144E-08 0.18735783 -0.44296882
v -5.1271144E-08 0.18735783 0.44297063
v 0.09367881 0.16225661 -0.44296882
v 0.16225666 0.09367889 0.44297063
v 0.1622566 0.09367889 -0.44296882
v 0.18735786 1.9073486E-08 0.44297072
v 0.18735778 1.9073486E-08 -0.44296882
v 0.16225658 -0.09367905 0.44297063
v 0.16225652 -0.09367905 -0.44296882
v 0.093678795 -0.16225669 0.44297063
v 0.09367873 -0.16225669 -0.44296882
v -5.1271144E-08 -0.18735783 0.44297063
v -5.1271144E-08 -0.18735783 -0.44296882
v 0.25982714 0 0.4429698
v 0.18735786 1.9073486E-08 0.44297072
v 0.16225666 0.09367889 0.44297063
v 0.22501694 0.12991355 0.4429698
v 0.22501694 0.12991355 0.4429698
v 0.09367887 0.16225661 0.44297063
v 0.12991352 0.22501694 0.4429698
v 0.12991352 0.22501694 0.4429698
v 0.09367887 0.16225661 0.44297063
v -5.1271144E-08 0.18735783 0.44297063
v -5.1271144E-08 0.25982714 0.4429698
v -5.1271144E-08 -0.25982714 0.4429698
v -5.1271144E-08 -0.18735783 0.44297063
v 0.093678795 -0.16225669 0.44297063
v 0.12991343 -0.225017 0.4429698
v 0.12991343 -0.225017 0.4429698
v 0.093678795 -0.16225669 0.44297063
v 0.16225658 -0.09367905 0.44297063
v 0.22501683 -0.12991373 0.4429698
v 0.16225658 -0.09367905 0.44297063
v 0.18735786 1.9073486E-08 0.44297072
v 0.25982714 0 0.4429698
vt 0.2631836 0.97558594
vt 0.35058594 0.9970703
vt 0.2631836 0.9970703
vt 0.35058594 0.97558594
vt 0.2631836 0.9550781
vt 0.35058594 0.9550781
vt 0.35058594 0.9350586
vt 0.2631836 0.9350586
vt 0.35058594 0.9160156
vt 0.2631836 0.9160156
vt 0.2631836 0.89697266
vt 0.35058594 0.89697266
vt 0.35058594 0.8774414
vt 0.2631836 0.8774414
vt 0.35058594 0.89697266
vt 0.35058594 0.8774414
vt 0.36889648 0.8774414
vt 0.36889648 0.89697266
vt 0.35058594 0.9160156
vt 0.36889648 0.9160156
vt 0.35058594 0.9350586
vt 0.36889648 0.9350586
vt 0.35058594 0.9550781
vt 0.36889648 0.9550781
vt 0.35058594 0.97558594
vt 0.36889648 0.97558594
vt 0.35058594 0.9970703
vt 0.36889648 0.9970703
vt 0.2631836 0.89697266
vt 0.24511719 0.8774414
vt 0.2631836 0.8774414
vt 0.24511719 0.89697266
vt 0.2631836 0.9160156
vt 0.24511719 0.9160156
vt 0.2631836 0.9350586
vt 0.24511719 0.9350586
vt 0.2631836 0.9550781
vt 0.24511719 0.9550781
vt 0.2631836 0.97558594
vt 0.24511719 0.97558594
vt 0.2631836 0.9970703
vt 0.24511719 0.9970703
vt 0.36938477 0.93847656
vt 0.3798828 0.9584961
vt 0.36938477 0.9584961
vt 0.3798828 0.93847656
vt 0.36938477 0.91845703
vt 0.3798828 0.91845703
vt 0.36938477 0.93847656
vt 0.36938477 0.9584961
vt 0.3798828 0.9584961
vt 0.3798828 0.97802734
vt 0.36938477 0.97802734
vt 0.36938477 0.97802734
vt 0.3798828 0.97802734
vt 0.3798828 0.9970703
vt 0.36938477 0.9970703
vt 0.36938477 0.8774414
vt 0.3798828 0.8774414
vt 0.3798828 0.8979492
vt 0.36938477 0.8979492
vt 0.3798828 0.8979492
vt 0.3798828 0.91845703
vt 0.36938477 0.91845703
vt 0.35058594 0.9428711
vt 0.35058594 0.9550781
vt 0.2836914 0.9550781
vt 0.2836914 0.9428711
vt 0.35058594 0.9301758
vt 0.2836914 0.9301758
vt 0.35058594 0.91748047
vt 0.2836914 0.91748047
vt 0.35058594 0.90478516
vt 0.2836914 0.90478516
vt 0.35058594 0.89160156
vt 0.2836914 0.89160156
vt 0.35058594 0.87841797
vt 0.2836914 0.87841797
vt 0.36938477 0.93847656
vt 0.36938477 0.9584961
vt 0.3798828 0.9584961
vt 0.3798828 0.93847656
vt 0.36938477 0.91845703
vt 0.36938477 0.93847656
vt 0.3798828 0.91845703
vt 0.36938477 0.8979492
vt 0.3798828 0.91845703
vt 0.3798828 0.8979492
vt 0.36938477 0.9584961
vt 0.36938477 0.97802734
vt 0.3798828 0.97802734
vt 0.3798828 0.9584961
vt 0.36938477 0.97802734
vt 0.36938477 0.9970703
vt 0.3798828 0.9970703
vt 0.3798828 0.97802734
vt 0.36938477 0.8774414
vt 0.36938477 0.8979492
vt 0.3798828 0.8979492
vt 0.3798828 0.8774414
vt 0.35058594 0.9970703
vt 0.2631836 0.97558594
vt 0.2631836 0.9970703
vt 0.35058594 0.97558594
vt 0.2631836 0.9550781
vt 0.35058594 0.9550781
vt 0.35058594 0.9350586
vt 0.2631836 0.9350586
vt 0.35058594 0.9160156
vt 0.2631836 0.9160156
vt 0.2631836 0.89697266
vt 0.35058594 0.89697266
vt 0.35058594 0.8774414
vt 0.2631836 0.8774414
vt 0.35058594 0.89697266
vt 0.36889648 0.8774414
vt 0.35058594 0.8774414
vt 0.36889648 0.89697266
vt 0.35058594 0.9160156
vt 0.36889648 0.9160156
vt 0.35058594 0.9350586
vt 0.36889648 0.9350586
vt 0.35058594 0.9550781
vt 0.36889648 0.9550781
vt 0.35058594 0.97558594
vt 0.36889648 0.97558594
vt 0.35058594 0.9970703
vt 0.36889648 0.9970703
vt 0.2631836 0.89697266
vt 0.2631836 0.8774414
vt 0.24511719 0.8774414
vt 0.24511719 0.89697266
vt 0.2631836 0.9160156
vt 0.24511719 0.9160156
vt 0.2631836 0.9350586
vt 0.24511719 0.9350586
vt 0.2631836 0.9550781
vt 0.24511719 0.9550781
vt 0.2631836 0.97558594
vt 0.24511719 0.97558594
vt 0.2631836 0.9970703
vt 0.24511719 0.9970703
vt 0.36938477 0.93847656
vt 0.36938477 0.9584961
vt 0.3798828 0.9584961
vt 0.3798828 0.93847656
vt 0.36938477 0.91845703
vt 0.36938477 0.93847656
vt 0.3798828 0.91845703
vt 0.36938477 0.8979492
vt 0.3798828 0.91845703
vt 0.3798828 0.8979492
vt 0.36938477 0.9584961
vt 0.36938477 0.97802734
vt 0.3798828 0.97802734
vt 0.3798828 0.9584961
vt 0.36938477 0.97802734
vt 0.36938477 0.9970703
vt 0.3798828 0.9970703
vt 0.3798828 0.97802734
vt 0.36938477 0.8774414
vt 0.36938477 0.8979492
vt 0.3798828 0.8979492
vt 0.3798828 0.8774414
vt 0.35058594 0.9428711
vt 0.2836914 0.9550781
vt 0.35058594 0.9550781
vt 0.2836914 0.9428711
vt 0.35058594 0.9301758
vt 0.2836914 0.9301758
vt 0.35058594 0.91748047
vt 0.2836914 0.91748047
vt 0.35058594 0.90478516
vt 0.2836914 0.90478516
vt 0.35058594 0.89160156
vt 0.2836914 0.89160156
vt 0.35058594 0.87841797
vt 0.2836914 0.87841797
vt 0.36938477 0.93847656
vt 0.3798828 0.93847656
vt 0.3798828 0.9584961
vt 0.36938477 0.9584961
vt 0.36938477 0.9584961
vt 0.3798828 0.97802734
vt 0.36938477 0.97802734
vt 0.36938477 0.97802734
vt 0.3798828 0.97802734
vt 0.3798828 0.9970703
vt 0.36938477 0.9970703
vt 0.36938477 0.8774414
vt 0.3798828 0.8774414
vt 0.3798828 0.8979492
vt 0.36938477 0.8979492
vt 0.36938477 0.8979492
vt 0.3798828 0.8979492
vt 0.3798828 0.91845703
vt 0.36938477 0.91845703
vt 0.3798828 0.91845703
vt 0.3798828 0.93847656
vt 0.36938477 0.93847656
vn -0.5 0.86621094 0
vn -0 1 0
vn -0 1 0
vn -0.5 0.86621094 0
vn -0.86621094 0.5 0
vn -0.86621094 0.5 0
vn -1 -1.7881393E-07 0
vn -1 -1.7881393E-07 0
vn -0.86621094 -0.5 0
vn -0.86621094 -0.5 0
vn -0.5 -0.86621094 0
vn -0.5 -0.86621094 0
vn -0 -1 0
vn -0 -1 0
vn -0.36035156 -0.62402344 -0.6933594
vn -0 -0.7207031 -0.6933594
vn -0 -0.7207031 -0.6933594
vn -0.36035156 -0.62402344 -0.6933594
vn -0.62402344 -0.36035156 -0.6933594
vn -0.62402344 -0.36035156 -0.6933594
vn -0.7207031 -1.1920929E-07 -0.6933594
vn -0.7207031 -1.1920929E-07 -0.6933594
vn -0.62402344 0.36035156 -0.6933594
vn -0.62402344 0.36035156 -0.6933594
vn -0.36035156 0.62402344 -0.6933594
vn -0.36035156 0.62402344 -0.6933594
vn -0 0.7207031 -0.6933594
vn -0 0.7207031 -0.6933594
vn -0.36035156 -0.62402344 0.6933594
vn -0 -0.7207031 0.6933594
vn -0 -0.7207031 0.6933594
vn -0.36035156 -0.62402344 0.6933594
vn -0.62402344 -0.36035156 0.6933594
vn -0.62402344 -0.36035156 0.6933594
vn -0.7207031 -1.1920929E-07 0.6933594
vn -0.7207031 -1.1920929E-07 0.6933594
vn -0.62402344 0.36035156 0.6933594
vn -0.62402344 0.36035156 0.6933594
vn -0.36035156 0.62402344 0.6933594
vn -0.36035156 0.62402344 0.6933594
vn -0 0.7207031 0.6933594
vn -0 0.7207031 0.6933594
vn 2.4199486E-05 -6.4969063E-06 -1
vn 2.4199486E-05 -6.4969063E-06 -1
vn 2.4199486E-05 -6.4969063E-06 -1
vn 2.4199486E-05 -6.4969063E-06 -1
vn 2.4199486E-05 6.4969063E-06 -1
vn 2.4199486E-05 6.4969063E-06 -1
vn 2.4199486E-05 6.4969063E-06 -1
vn 1.770258E-05 -1.770258E-05 -1
vn 1.770258E-05 -1.770258E-05 -1
vn 1.770258E-05 -1.770258E-05 -1
vn 1.770258E-05 -1.770258E-05 -1
vn 6.4969063E-06 -2.4199486E-05 -1
vn 6.4969063E-06 -2.4199486E-05 -1
vn 6.4969063E-06 -2.4199486E-05 -1
vn 6.4969063E-06 -2.4199486E-05 -1
vn 6.4969063E-06 2.4199486E-05 -1
vn 6.4969063E-06 2.4199486E-05 -1
vn 6.4969063E-06 2.4199486E-05 -1
vn 6.4969063E-06 2.4199486E-05 -1
vn 1.770258E-05 1.770258E-05 -1
vn 1.770258E-05 1.770258E-05 -1
vn 1.770258E-05 1.770258E-05 -1
vn 0.5 -0.86621094 0
vn -0 -1 0
vn -0 -1 0
vn 0.5 -0.86621094 0
vn 0.86621094 -0.5 0
vn 0.86621094 -0.5 0
vn 1 1.1920929E-07 0
vn 1 1.1920929E-07 0
vn 0.86621094 0.5 0
vn 0.86621094 0.5 0
vn 0.5 0.86621094 0
vn 0.5 0.86621094 0
vn -0 1 0
vn -0 1 0
vn -1.2040138E-05 3.5762787E-06 1
vn -1.2040138E-05 3.5762787E-06 1
vn -1.2040138E-05 3.5762787E-06 1
vn -1.2040138E-05 3.5762787E-06 1
vn -8.46386E-06 -8.46386E-06 1
vn -1.2040138E-05 -3.5762787E-06 1
vn -1.2040138E-05 -3.5762787E-06 1
vn -8.46386E-06 -8.46386E-06 1
vn -8.46386E-06 -8.46386E-06 1
vn -8.46386E-06 -8.46386E-06 1
vn -8.46386E-06 8.46386E-06 1
vn -8.46386E-06 8.46386E-06 1
vn -8.46386E-06 8.46386E-06 1
vn -8.46386E-06 8.46386E-06 1
vn -3.0994415E-06 1.1563301E-05 1
vn -3.0994415E-06 1.1563301E-05 1
vn -3.0994415E-06 1.1563301E-05 1
vn -3.0994415E-06 1.1563301E-05 1
vn -3.0994415E-06 -1.1563301E-05 1
vn -3.0994415E-06 -1.1563301E-05 1
vn -3.0994415E-06 -1.1563301E-05 1
vn -3.0994415E-06 -1.1563301E-05 1
vn -0 1 0
vn 0.5 0.86621094 0
vn -0 1 0
vn 0.5 0.86621094 0
vn 0.86621094 0.5 0
vn 0.86621094 0.5 0
vn 1 -1.7881393E-07 0
vn 1 -1.7881393E-07 0
vn 0.86621094 -0.5 0
vn 0.86621094 -0.5 0
vn 0.5 -0.86621094 0
vn 0.5 -0.86621094 0
vn -0 -1 0
vn -0 -1 0
vn 0.36035156 -0.62402344 -0.6933594
vn -0 -0.7207031 -0.6933594
vn -0 -0.7207031 -0.6933594
vn 0.36035156 -0.62402344 -0.6933594
vn 0.62402344 -0.36035156 -0.6933594
vn 0.62402344 -0.36035156 -0.6933594
vn 0.7207031 -1.1920929E-07 -0.6933594
vn 0.7207031 -1.1920929E-07 -0.6933594
vn 0.62402344 0.36035156 -0.6933594
vn 0.62402344 0.36035156 -0.6933594
vn 0.36035156 0.62402344 -0.6933594
vn 0.36035156 0.62402344 -0.6933594
vn -0 0.7207031 -0.6933594
vn -0 0.7207031 -0.6933594
vn 0.36035156 -0.62402344 0.6933594
vn -0 -0.7207031 0.6933594
vn -0 -0.7207031 0.6933594
vn 0.36035156 -0.62402344 0.6933594
vn 0.62402344 -0.36035156 0.6933594
vn 0.62402344 -0.36035156 0.6933594
vn 0.7207031 -1.1920929E-07 0.6933594
vn 0.7207031 -1.1920929E-07 0.6933594
vn 0.62402344 0.36035156 0.6933594
vn 0.62402344 0.36035156 0.6933594
vn 0.36035156 0.62402344 0.6933594
vn 0.36035156 0.62402344 0.6933594
vn -0 0.7207031 0.6933594
vn -0 0.7207031 0.6933594
vn -2.4199486E-05 -6.4969063E-06 -1
vn -2.4199486E-05 -6.4969063E-06 -1
vn -2.4199486E-05 -6.4969063E-06 -1
vn -2.4199486E-05 -6.4969063E-06 -1
vn -1.770258E-05 1.770258E-05 -1
vn -2.4199486E-05 6.4969063E-06 -1
vn -2.4199486E-05 6.4969063E-06 -1
vn -1.770258E-05 1.770258E-05 -1
vn -1.770258E-05 1.770258E-05 -1
vn -1.770258E-05 1.770258E-05 -1
vn -1.770258E-05 -1.770258E-05 -1
vn -1.770258E-05 -1.770258E-05 -1
vn -1.770258E-05 -1.770258E-05 -1
vn -1.770258E-05 -1.770258E-05 -1
vn -6.4969063E-06 -2.4199486E-05 -1
vn -6.4969063E-06 -2.4199486E-05 -1
vn -6.4969063E-06 -2.4199486E-05 -1
vn -6.4969063E-06 -2.4199486E-05 -1
vn -6.4969063E-06 2.4199486E-05 -1
vn -6.4969063E-06 2.4199486E-05 -1
vn -6.4969063E-06 2.4199486E-05 -1
vn -6.4969063E-06 2.4199486E-05 -1
vn -0.5 -0.86621094 0
vn -0 -1 0
vn -0 -1 0
vn -0.5 -0.86621094 0
vn -0.86621094 -0.5 0
vn -0.86621094 -0.5 0
vn -1 1.1920929E-07 0
vn -1 1.1920929E-07 0
vn -0.86621094 0.5 0
vn -0.86621094 0.5 0
vn -0.5 0.86621094 0
vn -0.5 0.86621094 0
vn -0 1 0
vn -0 1 0
vn 1.2040138E-05 3.5762787E-06 1
vn 1.2040138E-05 3.5762787E-06 1
vn 1.2040138E-05 3.5762787E-06 1
vn 1.2040138E-05 3.5762787E-06 1
vn 8.46386E-06 8.46386E-06 1
vn 8.46386E-06 8.46386E-06 1
vn 8.46386E-06 8.46386E-06 1
vn 3.0994415E-06 1.1563301E-05 1
vn 3.0994415E-06 1.1563301E-05 1
vn 3.0994415E-06 1.1563301E-05 1
vn 3.0994415E-06 1.1563301E-05 1
vn 3.0994415E-06 -1.1563301E-05 1
vn 3.0994415E-06 -1.1563301E-05 1
vn 3.0994415E-06 -1.1563301E-05 1
vn 3.0994415E-06 -1.1563301E-05 1
vn 8.46386E-06 -8.46386E-06 1
vn 8.46386E-06 -8.46386E-06 1
vn 8.46386E-06 -8.46386E-06 1
vn 8.46386E-06 -8.46386E-06 1
vn 1.2040138E-05 -3.5762787E-06 1
vn 1.2040138E-05 -3.5762787E-06 1
vn 1.2040138E-05 -3.5762787E-06 1
g Harbor_Buoy_01_0
f 3/3/3 2/2/2 1/1/1
f 2/2/2 4/4/4 1/1/1
f 1/1/1 4/4/4 5/5/5
f 4/4/4 6/6/6 5/5/5
f 5/5/5 6/6/6 7/7/7
f 8/8/8 5/5/5 7/7/7
f 7/7/7 9/9/9 8/8/8
f 9/9/9 10/10/10 8/8/8
f 10/10/10 9/9/9 11/11/11
f 9/9/9 12/12/12 11/11/11
f 11/11/11 12/12/12 13/13/13
f 14/14/14 11/11/11 13/13/13
f 17/17/17 16/16/16 15/15/15
f 18/18/18 17/17/17 15/15/15
f 18/18/18 15/15/15 19/19/19
f 20/20/20 18/18/18 19/19/19
f 20/20/20 19/19/19 21/21/21
f 22/22/22 20/20/20 21/21/21
f 22/22/22 21/21/21 23/23/23
f 24/24/24 22/22/22 23/23/23
f 24/24/24 23/23/23 25/25/25
f 26/26/26 24/24/24 25/25/25
f 26/26/26 25/25/25 27/27/27
f 28/28/28 26/26/26 27/27/27
f 31/31/31 30/30/30 29/29/29
f 30/30/30 32/32/32 29/29/29
f 29/29/29 32/32/32 33/33/33
f 32/32/32 34/34/34 33/33/33
f 33/33/33 34/34/34 35/35/35
f 34/34/34 36/36/36 35/35/35
f 35/35/35 36/36/36 37/37/37
f 36/36/36 38/38/38 37/37/37
f 37/37/37 38/38/38 39/39/39
f 38/38/38 40/40/40 39/39/39
f 39/39/39 40/40/40 41/41/41
f 40/40/40 42/42/42 41/41/41
f 45/45/45 44/44/44 43/43/43
f 44/44/44 46/46/46 43/43/43
f 46/46/46 48/48/48 47/47/47
f 49/49/49 46/46/46 47/47/47
f 52/52/52 51/51/51 50/50/50
f 53/53/53 52/52/52 50/50/50
f 56/56/56 55/55/55 54/54/54
f 57/57/57 56/56/56 54/54/54
f 60/60/60 59/59/59 58/58/58
f 61/61/61 60/60/60 58/58/58
f 63/63/63 62/62/62 61/61/61
f 64/64/64 63/63/63 61/61/61
f 67/67/67 66/66/66 65/65/65
f 68/68/68 67/67/67 65/65/65
f 68/68/68 65/65/65 69/69/69
f 70/70/70 68/68/68 69/69/69
f 70/70/70 69/69/69 71/71/71
f 72/72/72 70/70/70 71/71/71
f 72/72/72 71/71/71 73/73/73
f 74/74/74 72/72/72 73/73/73
f 74/74/74 73/73/73 75/75/75
f 76/76/76 74/74/74 75/75/75
f 76/76/76 75/75/75 77/77/77
f 78/78/78 76/76/76 77/77/77
f 81/81/81 80/80/80 79/79/79
f 82/82/82 81/81/81 79/79/79
f 82/82/82 84/84/84 83/83/83
f 85/85/85 82/82/82 83/83/83
f 87/87/87 83/83/83 86/86/86
f 88/88/88 87/87/87 86/86/86
f 91/91/91 90/90/90 89/89/89
f 92/92/92 91/91/91 89/89/89
f 95/95/95 94/94/94 93/93/93
f 96/96/96 95/95/95 93/93/93
f 99/99/99 98/98/98 97/97/97
f 100/100/100 99/99/99 97/97/97
f 103/103/103 102/102/102 101/101/101
f 102/102/102 104/104/104 101/101/101
f 102/102/102 105/105/105 104/104/104
f 105/105/105 106/106/106 104/104/104
f 106/106/106 105/105/105 107/107/107
f 105/105/105 108/108/108 107/107/107
f 107/107/107 108/108/108 109/109/109
f 108/108/108 110/110/110 109/109/109
f 109/109/109 110/110/110 111/111/111
f 112/112/112 109/109/109 111/111/111
f 112/112/112 111/111/111 113/113/113
f 111/111/111 114/114/114 113/113/113
f 117/117/117 116/116/116 115/115/115
f 116/116/116 118/118/118 115/115/115
f 115/115/115 118/118/118 119/119/119
f 118/118/118 120/120/120 119/119/119
f 119/119/119 120/120/120 121/121/121
f 120/120/120 122/122/122 121/121/121
f 121/121/121 122/122/122 123/123/123
f 122/122/122 124/124/124 123/123/123
f 123/123/123 124/124/124 125/125/125
f 124/124/124 126/126/126 125/125/125
f 125/125/125 126/126/126 127/127/127
f 126/126/126 128/128/128 127/127/127
f 131/131/131 130/130/130 129/129/129
f 132/132/132 131/131/131 129/129/129
f 132/132/132 129/129/129 133/133/133
f 134/134/134 132/132/132 133/133/133
f 134/134/134 133/133/133 135/135/135
f 136/136/136 134/134/134 135/135/135
f 136/136/136 135/135/135 137/137/137
f 138/138/138 136/136/136 137/137/137
f 138/138/138 137/137/137 139/139/139
f 140/140/140 138/138/138 139/139/139
f 140/140/140 139/139/139 141/141/141
f 142/142/142 140/140/140 141/141/141
f 145/145/145 144/144/144 143/143/143
f 146/146/146 145/145/145 143/143/143
f 146/146/146 148/148/148 147/147/147
f 149/149/149 146/146/146 147/147/147
f 151/151/151 147/147/147 150/150/150
f 152/152/152 151/151/151 150/150/150
f 155/155/155 154/154/154 153/153/153
f 156/156/156 155/155/155 153/153/153
f 159/159/159 158/158/158 157/157/157
f 160/160/160 159/159/159 157/157/157
f 163/163/163 162/162/162 161/161/161
f 164/164/164 163/163/163 161/161/161
f 167/167/167 166/166/166 165/165/165
f 166/166/166 168/168/168 165/165/165
f 165/165/165 168/168/168 169/169/169
f 168/168/168 170/170/170 169/169/169
f 169/169/169 170/170/170 171/171/171
f 170/170/170 172/172/172 171/171/171
f 171/171/171 172/172/172 173/173/173
f 172/172/172 174/174/174 173/173/173
f 173/173/173 174/174/174 175/175/175
f 174/174/174 176/176/176 175/175/175
f 175/175/175 176/176/176 177/177/177
f 176/176/176 178/178/178 177/177/177
f 181/181/181 180/180/180 179/179/179
f 182/182/182 181/181/181 179/179/179
f 184/184/184 181/181/181 183/183/183
f 185/185/185 184/184/184 183/183/183
f 188/188/188 187/187/187 186/186/186
f 189/189/189 188/188/188 186/186/186
f 192/192/192 191/191/191 190/190/190
f 193/193/193 192/192/192 190/190/190
f 196/196/196 195/195/195 194/194/194
f 197/197/197 196/196/196 194/194/194
f 199/199/199 198/198/198 197/197/197
f 200/200/200 199/199/199 197/197/197
