g Harbor_STR_RegionBorder_02
v -16.25 23.1 2.71
v -16.25 22.9 2.71
v -16.25 22.9 2.7
v -16.25 23.1 2.7
v -11.25 22.9 2.71
v -16.25 22.9 2.71
v -16.25 23.1 2.71
v -11.25 23.1 2.71
v -11.25 23.1 2.7
v -11.25 22.9 2.7
v -11.25 22.9 2.71
v -11.25 23.1 2.71
vt -36.53125 -17
vt -36.53125 -17.046875
vt -36.53125 -17.046875
vt -36.53125 -17
vt -35.28125 -17.046875
vt -36.53125 -17.046875
vt -36.53125 -17
vt -35.28125 -17
vt -35.25 -17
vt -35.25 -17.046875
vt -35.28125 -17.046875
vt -35.28125 -17
vn -1 0 0
vn -1 0 0
vn -1 0 0
vn -1 0 0
vn -0 0 1
vn -0 0 1
vn -0 0 1
vn -0 0 1
vn 1 0 0
vn 1 0 0
vn 1 0 0
vn 1 0 0
g Harbor_STR_RegionBorder_02_0
f 3/3/3 2/2/2 1/1/1
f 4/4/4 3/3/3 1/1/1
f 7/7/7 6/6/6 5/5/5
f 8/8/8 7/7/7 5/5/5
f 11/11/11 10/10/10 9/9/9
f 12/12/12 11/11/11 9/9/9
