g Harbor_STR_Lighthouse_01_Window
v -0.002886408 0.6475542 8.581324
v 0.1655213 0.625383 8.581324
v 0.16552131 0.62538326 9.524343
v -0.0028864082 0.6475542 9.524343
v -0.17129783 0.62538326 9.524343
v -0.17129783 0.625383 8.581324
v -0.32822883 0.56037945 8.581324
v -0.32822895 0.56037945 9.524343
v -0.46298948 0.4569741 8.581324
v -0.46298954 0.45697412 9.524343
v -0.56639504 0.3222136 9.524343
v -0.56639504 0.3222136 8.581324
v -0.63139844 0.16528146 9.524343
v -0.63139844 0.16528124 8.581324
v -0.65357023 -0.0031289682 8.581324
v -0.65357023 -0.0031289682 9.524343
v -0.631399 -0.17153543 9.524343
v -0.631399 -0.17153543 8.581324
v -0.5663952 -0.3284686 9.524343
v -0.56639516 -0.32846877 8.581324
v -0.46298975 -0.46322936 8.581324
v -0.4629898 -0.46322936 9.524343
v -0.32822913 -0.56663513 9.524343
v -0.3282291 -0.56663525 8.581324
v -0.17129679 -0.63163894 8.581324
v -0.17129682 -0.6316387 9.524343
v -0.002887911 -0.6538102 8.581324
v -0.0028879114 -0.65381 9.524343
v 0.16552104 -0.6316387 9.524343
v 0.16552103 -0.63163877 8.581324
v 0.32245326 -0.5666355 8.581324
v 0.3224533 -0.56663555 9.524343
v 0.45721483 -0.46322927 8.581324
v 0.45721483 -0.46322927 9.524343
v 0.5606204 -0.3284682 9.524343
v 0.56062037 -0.32846823 8.581324
v 0.6256231 -0.17153734 9.524343
v 0.625623 -0.17153732 8.581324
v 0.6477946 -0.0031277714 8.581324
v 0.6477946 -0.0031277714 9.524343
v 0.62562346 0.1652813 9.524343
v 0.6256234 0.1652811 8.581324
v 0.56062037 0.32221237 8.581324
v 0.56062037 0.32221264 9.524343
v 0.45721343 0.45697483 8.581324
v 0.45721346 0.45697507 9.524343
v 0.3224535 0.5603799 9.524343
v 0.32245344 0.56037974 8.581324
v 0.1655213 0.625383 8.581324
v 0.16552131 0.62538326 9.524343
vt 0.22045898 0.05999756
vt 0.22045898 0.020004272
vt 0.020004272 0.020004272
vt 0.020004272 0.05999756
vt 0.020004272 0.099975586
vt 0.22045898 0.099975586
vt 0.22045898 0.14001465
vt 0.020004272 0.14001465
vt 0.22045898 0.18005371
vt 0.020004272 0.18005371
vt 0.020004272 0.2199707
vt 0.22045898 0.2199707
vt 0.020004272 0.26000977
vt 0.22045898 0.26000977
vt 0.22045898 0.30004883
vt 0.020004272 0.30004883
vt 0.020004272 0.3400879
vt 0.22045898 0.3400879
vt 0.020004272 0.38012695
vt 0.22045898 0.38012695
vt 0.22045898 0.41992188
vt 0.020004272 0.41992188
vt 0.020004272 0.45996094
vt 0.22045898 0.45996094
vt 0.22045898 0.5
vt 0.020004272 0.5
vt 0.22045898 0.54003906
vt 0.020004272 0.54003906
vt 0.020004272 0.5800781
vt 0.22045898 0.5800781
vt 0.22045898 0.6201172
vt 0.020004272 0.6201172
vt 0.22045898 0.66015625
vt 0.020004272 0.66015625
vt 0.020004272 0.7001953
vt 0.22045898 0.7001953
vt 0.020004272 0.7402344
vt 0.22045898 0.7402344
vt 0.22045898 0.77978516
vt 0.020019531 0.77978516
vt 0.020019531 0.8198242
vt 0.22045898 0.8198242
vt 0.22045898 0.8598633
vt 0.020019531 0.8598633
vt 0.22045898 0.89990234
vt 0.020019531 0.89990234
vt 0.020019531 0.9399414
vt 0.22045898 0.9399414
vt 0.22045898 0.97998047
vt 0.020019531 0.97998047
vn 1.4305115E-06 1 -1.1920929E-07
vn 0.25878906 0.9658203 -1.7881393E-07
vn 0.25878906 0.9658203 -1.7881393E-07
vn 1.4305115E-06 1 -1.1920929E-07
vn -0.25878906 0.9658203 -1.7881393E-07
vn -0.25878906 0.9658203 -1.7881393E-07
vn -0.5 0.86621094 -1.1920929E-07
vn -0.5 0.86621094 -1.1920929E-07
vn -0.70703125 0.70703125 0
vn -0.70703125 0.70703125 0
vn -0.86621094 0.5 0
vn -0.86621094 0.5 0
vn -0.9658203 0.25878906 0
vn -0.9658203 0.25878906 0
vn -1 0 0
vn -1 0 0
vn -0.9658203 -0.25878906 0
vn -0.9658203 -0.25878906 0
vn -0.86621094 -0.5 0
vn -0.86621094 -0.5 0
vn -0.70703125 -0.70703125 0
vn -0.70703125 -0.70703125 0
vn -0.5 -0.86621094 0
vn -0.5 -0.86621094 0
vn -0.25878906 -0.9658203 1.7881393E-07
vn -0.25878906 -0.9658203 1.7881393E-07
vn 2.3841858E-07 -1 1.7881393E-07
vn 2.3841858E-07 -1 1.7881393E-07
vn 0.25878906 -0.9658203 0
vn 0.25878906 -0.9658203 0
vn 0.5 -0.86621094 0
vn 0.5 -0.86621094 0
vn 0.70703125 -0.70703125 0
vn 0.70703125 -0.70703125 0
vn 0.86621094 -0.5 0
vn 0.86621094 -0.5 0
vn 0.9658203 -0.25878906 0
vn 0.9658203 -0.25878906 0
vn 1 -9.536743E-07 0
vn 1 -9.536743E-07 0
vn 0.9658203 0.25878906 0
vn 0.9658203 0.25878906 0
vn 0.86621094 0.5 -1.7881393E-07
vn 0.86621094 0.5 -1.7881393E-07
vn 0.70703125 0.70703125 -1.7881393E-07
vn 0.70703125 0.70703125 -1.7881393E-07
vn 0.5 0.86621094 -2.3841858E-07
vn 0.5 0.86621094 -2.3841858E-07
vn 0.25878906 0.9658203 -1.7881393E-07
vn 0.25878906 0.9658203 -1.7881393E-07
g Harbor_STR_Lighthouse_01_Window_0
f 3/3/3 2/2/2 1/1/1
f 4/4/4 3/3/3 1/1/1
f 4/4/4 1/1/1 5/5/5
f 1/1/1 6/6/6 5/5/5
f 5/5/5 6/6/6 7/7/7
f 8/8/8 5/5/5 7/7/7
f 8/8/8 7/7/7 9/9/9
f 10/10/10 8/8/8 9/9/9
f 11/11/11 10/10/10 9/9/9
f 12/12/12 11/11/11 9/9/9
f 11/11/11 12/12/12 13/13/13
f 12/12/12 14/14/14 13/13/13
f 14/14/14 15/15/15 13/13/13
f 15/15/15 16/16/16 13/13/13
f 16/16/16 15/15/15 17/17/17
f 15/15/15 18/18/18 17/17/17
f 17/17/17 18/18/18 19/19/19
f 18/18/18 20/20/20 19/19/19
f 19/19/19 20/20/20 21/21/21
f 22/22/22 19/19/19 21/21/21
f 23/23/23 22/22/22 21/21/21
f 24/24/24 23/23/23 21/21/21
f 24/24/24 25/25/25 23/23/23
f 25/25/25 26/26/26 23/23/23
f 26/26/26 25/25/25 27/27/27
f 28/28/28 26/26/26 27/27/27
f 29/29/29 28/28/28 27/27/27
f 30/30/30 29/29/29 27/27/27
f 29/29/29 30/30/30 31/31/31
f 32/32/32 29/29/29 31/31/31
f 32/32/32 31/31/31 33/33/33
f 34/34/34 32/32/32 33/33/33
f 34/34/34 33/33/33 35/35/35
f 33/33/33 36/36/36 35/35/35
f 37/37/37 35/35/35 36/36/36
f 38/38/38 37/37/37 36/36/36
f 37/37/37 38/38/38 39/39/39
f 40/40/40 37/37/37 39/39/39
f 41/41/41 40/40/40 39/39/39
f 42/42/42 41/41/41 39/39/39
f 42/42/42 43/43/43 41/41/41
f 43/43/43 44/44/44 41/41/41
f 44/44/44 43/43/43 45/45/45
f 46/46/46 44/44/44 45/45/45
f 47/47/47 46/46/46 45/45/45
f 48/48/48 47/47/47 45/45/45
f 47/47/47 48/48/48 49/49/49
f 50/50/50 47/47/47 49/49/49
