g Harbor_STR_House_03_Out_Wall
v 5.841146 1.087901 -0.53162044
v 5.841146 -0.91209716 -0.53162044
v 5.841146 -0.91209716 1.161553
v 5.841146 1.0879004 1.1615533
v 5.841146 1.087901 -0.53162044
v 5.841146 1.0879004 1.1615533
v 3.201149 1.0879004 1.1615533
v 3.201149 1.087901 -0.53162044
v 3.201149 1.087901 -0.53162044
v 3.201149 1.0879004 1.1615533
v 0.5611496 1.0879004 1.1615533
v 0.5611496 1.087901 -0.53162044
v 0.5611496 1.087901 -0.53162044
v 0.5611496 1.0879004 1.1615533
v -2.0788503 1.0879004 1.1615533
v -2.0788503 1.087901 -0.53162044
v -2.0788503 1.087901 -0.53162044
v -2.0788503 1.0879004 1.1615533
v -4.718848 1.0879004 1.1615533
v -4.718848 1.087901 -0.53162044
v -4.718848 1.087901 -0.53162044
v -4.718848 1.0879004 1.1615533
v -7.3588476 1.087901 1.1615533
v -7.358846 1.0879004 -0.53162044
v 5.841146 1.0879004 1.1615533
v 5.841146 -0.91209716 1.161553
v 5.841146 -0.91209716 2.1692274
v 5.841146 1.0878961 1.7843841
v 5.841146 1.0879004 1.1615533
v 5.841146 1.0878961 1.7843841
v 3.201149 1.0879004 1.7843841
v 3.201149 1.0879004 1.1615533
v 3.201149 1.0879004 1.1615533
v 3.201149 1.0879004 1.7843841
v 0.5611496 1.0879004 1.7843841
v 0.5611496 1.0879004 1.1615533
v 0.5611496 1.0879004 1.1615533
v 0.5611496 1.0879004 1.7843841
v -2.0788503 1.0879004 1.7843841
v -2.0788503 1.0879004 1.1615533
v -2.0788503 1.0879004 1.1615533
v -2.0788503 1.0879004 1.7843841
v -4.718848 1.0879004 1.7843841
v -4.718848 1.0879004 1.1615533
v -4.718848 1.0879004 1.1615533
v -4.718848 1.0879004 1.7843841
v -7.3588476 1.0878991 1.7843841
v -7.3588476 1.087901 1.1615533
v -7.358846 -0.91209775 -0.53162044
v -7.358846 1.0879004 -0.53162044
v -7.3588476 1.087901 1.1615533
v -7.3588476 -0.91209716 1.161553
v -7.3588476 -0.91209716 1.161553
v -7.3588476 1.087901 1.1615533
v -7.3588476 1.0878991 1.7843841
v -7.3588476 -0.91209716 2.1692274
vt 0.72314453 0.49389648
vt 0.9345703 0.49389648
vt 0.9345703 0.6376953
vt 0.72314453 0.6376953
vt 0.72314453 0.49389648
vt 0.72314453 0.6376953
vt 0.9873047 0.6376953
vt 0.9873047 0.49389648
vt 0.72314453 0.49389648
vt 0.72314453 0.6376953
vt 0.9873047 0.6376953
vt 0.9873047 0.49389648
vt 0.72314453 0.49389648
vt 0.72314453 0.6376953
vt 0.9873047 0.6376953
vt 0.9873047 0.49389648
vt 0.72314453 0.49389648
vt 0.72314453 0.6376953
vt 0.9873047 0.6376953
vt 0.9873047 0.49389648
vt 0.72314453 0.49389648
vt 0.72314453 0.6376953
vt 0.9873047 0.6376953
vt 0.9873047 0.49389648
vt 0.72314453 0.5371094
vt 0.9345703 0.5371094
vt 0.9345703 0.6230469
vt 0.72314453 0.59033203
vt 0.72314453 0.5371094
vt 0.72314453 0.59033203
vt 0.9873047 0.59033203
vt 0.9873047 0.5371094
vt 0.72314453 0.5371094
vt 0.72314453 0.59033203
vt 0.9873047 0.59033203
vt 0.9873047 0.5371094
vt 0.72314453 0.5371094
vt 0.72314453 0.59033203
vt 0.9873047 0.59033203
vt 0.9873047 0.5371094
vt 0.72314453 0.5371094
vt 0.72314453 0.59033203
vt 0.9873047 0.59033203
vt 0.9873047 0.5371094
vt 0.72314453 0.5371094
vt 0.72314453 0.59033203
vt 0.9873047 0.59033203
vt 0.9873047 0.5371094
vt 0.72314453 0.49389648
vt 0.9345703 0.49389648
vt 0.9345703 0.6376953
vt 0.72314453 0.6376953
vt 0.72314453 0.5371094
vt 0.9345703 0.5371094
vt 0.9345703 0.59033203
vt 0.72314453 0.6230469
vn 1 0 0
vn 1 0 0
vn 1 0 0
vn 1 0 0
vn -0 1 3.5762787E-07
vn 4.172325E-07 1 1.9073486E-06
vn 1.7881393E-07 1 1.013279E-06
vn -0 1 3.5762787E-07
vn -0 1 3.5762787E-07
vn 1.7881393E-07 1 1.013279E-06
vn -0 1 1.7881393E-07
vn -0 1 3.5762787E-07
vn -0 1 3.5762787E-07
vn -0 1 1.7881393E-07
vn -0 1 1.7881393E-07
vn -0 1 3.5762787E-07
vn -0 1 3.5762787E-07
vn -0 1 1.7881393E-07
vn -0 1 4.7683716E-07
vn -0 1 1.7881393E-07
vn -0 1 1.7881393E-07
vn -0 1 4.7683716E-07
vn -0 1 7.1525574E-07
vn -0 1 0
vn 1 0 0
vn 1 0 0
vn 1 0 0
vn 1 0 0
vn 4.172325E-07 1 1.9073486E-06
vn 8.34465E-07 1 3.4570694E-06
vn 4.172325E-07 1 1.7285347E-06
vn 1.7881393E-07 1 1.013279E-06
vn 1.7881393E-07 1 1.013279E-06
vn 4.172325E-07 1 1.7285347E-06
vn -0 1 0
vn -0 1 1.7881393E-07
vn -0 1 1.7881393E-07
vn -0 1 0
vn -0 1 0
vn -0 1 1.7881393E-07
vn -0 1 1.7881393E-07
vn -0 1 0
vn -0 1 7.1525574E-07
vn -0 1 4.7683716E-07
vn -0 1 4.7683716E-07
vn -0 1 7.1525574E-07
vn -1.1920929E-07 1 1.4901161E-06
vn -0 1 7.1525574E-07
vn -1 0 -3.5762787E-07
vn -1 0 -3.5762787E-07
vn -1 0 -1.7881393E-07
vn -1 0 -1.7881393E-07
vn -1 0 -1.7881393E-07
vn -1 0 -1.7881393E-07
vn -1 0 0
vn -1 0 0
g Harbor_STR_House_03_Out_Wall_0
f 3/3/3 2/2/2 1/1/1
f 4/4/4 3/3/3 1/1/1
f 7/7/7 6/6/6 5/5/5
f 8/8/8 7/7/7 5/5/5
f 11/11/11 10/10/10 9/9/9
f 12/12/12 11/11/11 9/9/9
f 15/15/15 14/14/14 13/13/13
f 16/16/16 15/15/15 13/13/13
f 19/19/19 18/18/18 17/17/17
f 20/20/20 19/19/19 17/17/17
f 23/23/23 22/22/22 21/21/21
f 24/24/24 23/23/23 21/21/21
f 27/27/27 26/26/26 25/25/25
f 28/28/28 27/27/27 25/25/25
f 31/31/31 30/30/30 29/29/29
f 32/32/32 31/31/31 29/29/29
f 35/35/35 34/34/34 33/33/33
f 36/36/36 35/35/35 33/33/33
f 39/39/39 38/38/38 37/37/37
f 40/40/40 39/39/39 37/37/37
f 43/43/43 42/42/42 41/41/41
f 44/44/44 43/43/43 41/41/41
f 47/47/47 46/46/46 45/45/45
f 48/48/48 47/47/47 45/45/45
f 51/51/51 50/50/50 49/49/49
f 52/52/52 51/51/51 49/49/49
f 55/55/55 54/54/54 53/53/53
f 56/56/56 55/55/55 53/53/53
