g Harbor_ConcreateWall_Dust
v 0.6871289 3.1407862 -4.1000004
v 0.6871289 -1.6114355 -4.1000004
v 0.6871289 -1.6114355 1.0999993
v 0.6871289 3.1407862 1.0999993
v 0.6871289 -1.6114355 1.0999993
v -0.3128711 -1.6114794 4.1000004
v -0.3128711 3.1407862 4.1000004
v 0.6871289 3.1407862 1.0999993
v 0.6871289 -1.6114843 -4.1000004
v -1.1628516 -1.6114843 -4.1000004
v -1.1628516 -1.6114843 1.0999993
v 0.6871289 -1.6114843 1.0999993
v -0.31086913 -1.6114843 4.1000004
v -1.1629003 -1.6114843 4.1000004
v 0.6871289 7.8930516 -4.1000004
v 0.6871289 3.14083 -4.1000004
v 0.6871289 3.14083 1.0999993
v 0.6871289 7.8930516 1.0999993
v 0.6871289 3.14083 1.0999993
v -0.3128711 3.1407862 4.1000004
v -0.3128711 7.8930516 4.1000004
v 0.6871289 7.8930516 1.0999993
v 0.6871289 7.8931003 1.0999993
v -0.3128711 7.8930516 4.1000004
v -0.3128711 12.645317 4.1000004
v 0.6871289 12.645317 1.0999993
v 0.6871289 12.645361 1.0999993
v -0.3128711 12.645317 4.1000004
v -0.3128711 17.397583 4.1000004
v 0.6871289 17.397583 1.0999993
v 0.6871289 22.149893 1.0999993
v -0.3128711 22.149849 4.1000004
v -0.3128711 26.902113 4.1000004
v 0.6871289 26.902113 1.0999993
v 0.6871289 26.902163 1.0999993
v -0.3128711 26.902113 4.1000004
v -0.3128711 31.654375 4.1000004
v 0.6871289 31.654375 1.0999993
v 0.6871289 31.654423 1.0999993
v -0.3128711 31.654375 4.1000004
v -0.3128711 36.40664 4.1000004
v 0.6871289 36.40664 1.0999993
v 0.6871289 36.40669 1.0999993
v -0.3128711 36.40664 4.1000004
v -0.3128711 41.158905 4.1000004
v 0.6871289 41.158905 1.0999993
v 0.6871289 41.158955 1.0999993
v -0.3128711 41.158905 4.1000004
v -0.3128711 45.91117 4.1000004
v 0.6871289 45.91117 1.0999993
v 0.6871289 45.91122 1.0999993
v -0.3128711 45.91117 4.1000004
v -0.3128711 50.663437 4.1000004
v 0.6871289 50.663437 1.0999993
v 0.6871289 50.663486 1.0999993
v -0.3128711 50.663437 4.1000004
v -0.3128711 52.988544 4.1000004
v 0.6871289 52.988544 1.0999993
v 0.6871289 22.149849 1.0999993
v 0.6871289 20.38853 1.0999993
v -0.3128711 20.388506 4.1000004
v -0.3128711 22.149849 4.1000004
vt 0.20751953 0.1697998
vt 0.041778564 0.1697998
vt 0.041778564 0.4206543
vt 0.20751953 0.4206543
vt 0.041778564 0.4206543
vt 0.041778564 0.5361328
vt 0.20751953 0.5361328
vt 0.20751953 0.4206543
vt 0.2076416 0.1697998
vt 0.1430664 0.1697998
vt 0.14294434 0.42041016
vt 0.2076416 0.4206543
vt 0.17260742 0.5361328
vt 0.14294434 0.5361328
vt 0.20751953 0.1697998
vt 0.041778564 0.1697998
vt 0.041778564 0.4206543
vt 0.20751953 0.4206543
vt 0.041778564 0.4206543
vt 0.041778564 0.5361328
vt 0.20751953 0.5361328
vt 0.20751953 0.4206543
vt 0.041778564 0.4206543
vt 0.041778564 0.5361328
vt 0.20751953 0.5361328
vt 0.20751953 0.4206543
vt 0.041778564 0.4206543
vt 0.041778564 0.5361328
vt 0.20751953 0.5361328
vt 0.20751953 0.4206543
vt 0.041778564 0.4206543
vt 0.041778564 0.5361328
vt 0.20751953 0.5361328
vt 0.20751953 0.4206543
vt 0.041778564 0.4206543
vt 0.041778564 0.5361328
vt 0.20751953 0.5361328
vt 0.20751953 0.4206543
vt 0.041778564 0.4206543
vt 0.041778564 0.5361328
vt 0.20751953 0.5361328
vt 0.20751953 0.4206543
vt 0.041778564 0.4206543
vt 0.041778564 0.5361328
vt 0.20751953 0.5361328
vt 0.20751953 0.4206543
vt 0.041778564 0.4206543
vt 0.041778564 0.5361328
vt 0.20751953 0.5361328
vt 0.20751953 0.4206543
vt 0.041778564 0.4206543
vt 0.041778564 0.5361328
vt 0.20751953 0.5361328
vt 0.20751953 0.4206543
vt 0.041778564 0.4206543
vt 0.041778564 0.5361328
vt 0.12286377 0.5361328
vt 0.12286377 0.4206543
vt 0.20751953 0.4206543
vt 0.14611816 0.4206543
vt 0.14611816 0.5361328
vt 0.20751953 0.5361328
vn 1 0 0
vn 1 0 0
vn 1 0 0
vn 1 0 0
vn 0.94873047 0 0.3161621
vn 0.94873047 0 0.3161621
vn 0.94873047 0 0.3161621
vn 0.94873047 0 0.3161621
vn -0 -1 0
vn -0 -1 0
vn -0 -1 0
vn -0 -1 0
vn -0 -1 0
vn -0 -1 0
vn 1 0 0
vn 1 0 0
vn 1 0 0
vn 1 0 0
vn 0.94873047 0 0.3161621
vn 0.94873047 0 0.3161621
vn 0.94873047 0 0.3161621
vn 0.94873047 0 0.3161621
vn 0.94873047 0 0.3161621
vn 0.94873047 0 0.3161621
vn 0.94873047 0 0.3161621
vn 0.94873047 0 0.3161621
vn 0.94873047 0 0.3161621
vn 0.94873047 0 0.3161621
vn 0.94873047 0 0.3161621
vn 0.94873047 0 0.3161621
vn 0.94873047 0 0.3161621
vn 0.94873047 0 0.3161621
vn 0.94873047 0 0.3161621
vn 0.94873047 0 0.3161621
vn 0.94873047 0 0.3161621
vn 0.94873047 0 0.3161621
vn 0.94873047 0 0.3161621
vn 0.94873047 0 0.3161621
vn 0.94873047 0 0.3161621
vn 0.94873047 0 0.3161621
vn 0.94873047 0 0.3161621
vn 0.94873047 0 0.3161621
vn 0.94873047 0 0.3161621
vn 0.94873047 0 0.3161621
vn 0.94873047 0 0.3161621
vn 0.94873047 0 0.3161621
vn 0.94873047 0 0.3161621
vn 0.94873047 0 0.3161621
vn 0.94873047 0 0.3161621
vn 0.94873047 0 0.3161621
vn 0.94873047 0 0.3161621
vn 0.94873047 0 0.3161621
vn 0.94873047 0 0.3161621
vn 0.94873047 0 0.3161621
vn 0.94873047 0 0.3161621
vn 0.94873047 0 0.3161621
vn 0.94873047 0 0.3161621
vn 0.94873047 0 0.3161621
vn 0.94873047 0 0.3161621
vn 0.94873047 0 0.3161621
vn 0.94873047 0 0.3161621
vn 0.94873047 0 0.3161621
g Harbor_ConcreateWall_Dust_0
f 3/3/3 2/2/2 1/1/1
f 4/4/4 3/3/3 1/1/1
f 7/7/7 6/6/6 5/5/5
f 8/8/8 7/7/7 5/5/5
f 11/11/11 10/10/10 9/9/9
f 12/12/12 11/11/11 9/9/9
f 12/12/12 13/13/13 11/11/11
f 13/13/13 14/14/14 11/11/11
f 17/17/17 16/16/16 15/15/15
f 18/18/18 17/17/17 15/15/15
f 21/21/21 20/20/20 19/19/19
f 22/22/22 21/21/21 19/19/19
f 25/25/25 24/24/24 23/23/23
f 26/26/26 25/25/25 23/23/23
f 29/29/29 28/28/28 27/27/27
f 30/30/30 29/29/29 27/27/27
f 33/33/33 32/32/32 31/31/31
f 34/34/34 33/33/33 31/31/31
f 37/37/37 36/36/36 35/35/35
f 38/38/38 37/37/37 35/35/35
f 41/41/41 40/40/40 39/39/39
f 42/42/42 41/41/41 39/39/39
f 45/45/45 44/44/44 43/43/43
f 46/46/46 45/45/45 43/43/43
f 49/49/49 48/48/48 47/47/47
f 50/50/50 49/49/49 47/47/47
f 53/53/53 52/52/52 51/51/51
f 54/54/54 53/53/53 51/51/51
f 57/57/57 56/56/56 55/55/55
f 58/58/58 57/57/57 55/55/55
f 61/61/61 60/60/60 59/59/59
f 62/62/62 61/61/61 59/59/59
