g Bg_Laboratory_STR_Base_RegionBorder_01
v 4 0 0.009999999
v -0 2.3101163E-13 0.009999999
v -0 0.19999999 0.009999999
v 4 0.19999999 0.009999999
v 4 0.19999999 1.0395524E-13
v 4 0 0
v 4 0 0.009999999
v 4 0.19999999 0.009999999
vt -143 -14
vt -142 -14
vt -142 -14.046875
vt -143 -14.046875
vt -143 -14.046875
vt -143 -14
vt -143 -14
vt -143 -14.046875
vn -0 0 1
vn -0 0 1
vn -0 0 1
vn -0 0 1
vn 1 0 0
vn 1 0 0
vn 1 0 0
vn 1 0 0
g Bg_Laboratory_STR_Base_RegionBorder_01_0
f 3/3/3 2/2/2 1/1/1
f 4/4/4 3/3/3 1/1/1
f 7/7/7 6/6/6 5/5/5
f 8/8/8 7/7/7 5/5/5
