g Bg_Laboratory_STR_Base_RegionBorder_02
v 0.19999512 -0.0037304687 0.01000061
v -4.8828124E-06 -0.0037304687 0.01000061
v -4.8828124E-06 3.9962695 0.01000061
v 0.19999512 3.9962695 0.01000061
v -4.8828124E-06 3.9962695 6.1035155E-07
v 0.19999512 3.9962695 6.1035155E-07
v 0.19999512 3.9962695 0.01000061
v -4.8828124E-06 3.9962695 0.01000061
vt -142.625 -15
vt -142.625 -15.046875
vt -143.625 -15.046875
vt -143.625 -15
vt -143.625 -15.046875
vt -143.625 -15
vt -143.625 -15
vt -143.625 -15.046875
vn -0 0 1
vn -0 0 1
vn -0 0 1
vn -0 0 1
vn -0 1 0
vn -0 1 0
vn -0 1 0
vn -0 1 0
g Bg_Laboratory_STR_Base_RegionBorder_02_0
f 3/3/3 2/2/2 1/1/1
f 4/4/4 3/3/3 1/1/1
f 7/7/7 6/6/6 5/5/5
f 8/8/8 7/7/7 5/5/5
