g Laboratory_OBJ_GasTank_01
v -0.02849655 -0.013287887 1.5431
v -0.083120875 0.030253982 1.4773495
v -0.02954605 0.010754318 1.5430998
v -0.080167845 -0.03738266 1.4773496
v -0.099688105 0.03628395 1.378835
v -0.030253448 -0.08312065 1.4773495
v -0.010753936 -0.029545974 1.5430998
v 0.013288422 -0.028496321 1.5431
v -0.096146695 -0.04483368 1.3788351
v -0.10191986 0.03709564 -0.009172556
v -0.09829925 -0.045837782 -0.009172524
v -0.037095793 -0.101920165 -0.00917251
v -0.036283415 -0.099687956 1.3788351
v 0.03738327 -0.08016777 1.4773496
v 0.04483429 -0.096146464 1.3788351
v 0.04583786 -0.09829941 -0.009172522
v 0.10192001 -0.037096024 -0.009172552
v 0.08312134 -0.030253218 1.4773495
v 0.029546509 -0.010753632 1.5430998
v 0.028496856 0.013288574 1.5431
v 0.09968887 -0.03628334 1.378835
v 0.0801683 0.037383344 1.4773496
v 0.09614716 0.044834364 1.3788351
v 0.09829941 0.045837477 -0.009172584
v 0.037095793 0.10191986 -0.009172598
v 0.030253753 0.08312141 1.4773496
v 0.010754089 0.029546661 1.5430998
v -0.013288116 0.028497009 1.5431
v 0.03628372 0.099688716 1.3788351
v -0.03738281 0.080168456 1.4773496
v -0.04483383 0.09614716 1.3788351
v -0.045837708 0.0982991 -0.009172586
v -0.10191986 0.03709564 -0.009172556
v -0.099688105 0.03628395 1.378835
v -0.083120875 0.030253982 1.4773495
v -0.02954605 0.010754318 1.5430998
v -0.045837708 0.0982991 -0.009172586
v 0.09829941 0.045837477 -0.009172584
v 0.037095793 0.10191986 -0.009172598
v -0.09829925 -0.045837782 -0.009172524
v -0.10191986 0.03709564 -0.009172556
v 0.04583786 -0.09829941 -0.009172522
v 0.10192001 -0.037096024 -0.009172552
v -0.037095793 -0.101920165 -0.00917251
v 0.013288422 -0.028496321 1.5431
v 0.028496856 0.013288574 1.5431
v 0.029546509 -0.010753632 1.5430998
v -0.02849655 -0.013287887 1.5431
v -0.010753936 -0.029545974 1.5430998
v -0.013288116 0.028497009 1.5431
v 0.010754089 0.029546661 1.5430998
v -0.02954605 0.010754318 1.5430998
v -0.012377166 0.026543425 1.5411448
v -0.027520293 0.010017166 1.5808369
v -0.027520293 0.010017166 1.5411447
v -0.012376862 0.026543273 1.5808368
v 0.010016784 0.02752098 1.5411447
v 0.010016784 0.02752098 1.5808369
v 0.026542969 0.012377701 1.5411448
v 0.026542969 0.012377701 1.5808368
v 0.027520752 -0.010016021 1.5411447
v 0.027520752 -0.010016021 1.5808369
v 0.012377319 -0.026542205 1.5411448
v 0.012377319 -0.026542129 1.5808368
v -0.0100164795 -0.027519835 1.5411447
v -0.0100164795 -0.027519912 1.5808367
v -0.02654251 -0.012376633 1.5808368
v -0.026542816 -0.01237648 1.5411448
v -0.027520293 0.010017166 1.5808369
v -0.027520293 0.010017166 1.5411447
v 0.012377319 -0.026542129 1.5808368
v 0.026542969 0.012377701 1.5808368
v 0.027520752 -0.010016021 1.5808369
v -0.02654251 -0.012376633 1.5808368
v -0.0100164795 -0.027519912 1.5808367
v -0.012376862 0.026543273 1.5808368
v 0.010016784 0.02752098 1.5808369
v -0.027520293 0.010017166 1.5808369
v 0.0075541683 -0.01619957 1.576676
v 0.012731933 -0.004633331 1.632792
v 0.016796874 -0.006112976 1.5766762
v 0.0057261656 -0.0122789 1.632792
v -0.0061134337 -0.016796265 1.576676
v -0.004633789 -0.01273117 1.632792
v -0.012279052 -0.005725479 1.632792
v -0.016200256 -0.0075536347 1.576676
v -0.0127316285 0.0046343994 1.632792
v -0.016796874 0.006114044 1.5766761
v 0.012279358 0.0057264706 1.632792
v 0.016796874 -0.006112976 1.5766762
v 0.012731933 -0.004633331 1.632792
v 0.016200256 0.007554779 1.5766762
v 0.004634094 0.012732086 1.632792
v 0.0061135865 0.016797332 1.5766762
v -0.0057258606 0.012279815 1.632792
v -0.0075541683 0.016200637 1.5766762
v -0.0127316285 0.0046343994 1.632792
v -0.016796874 0.006114044 1.5766761
v 0.027531432 0.023102112 1.6285142
v 0.0062408447 -0.035393294 1.6285142
v 0.03377228 -0.012291565 1.6285142
v -0.03377243 0.01229248 1.6285142
v -0.0062414547 0.035394058 1.6285142
v -0.02753128 -0.023101272 1.6285142
v 0.0062408447 -0.035393294 1.6285142
v 0.03377228 -0.012291565 1.6502888
v 0.03377228 -0.012291565 1.6285142
v 0.0062408447 -0.035393294 1.6502888
v -0.02753128 -0.023101272 1.6285142
v -0.02753128 -0.023101272 1.6502888
v -0.03377243 0.01229248 1.6285142
v -0.03377243 0.01229248 1.6502888
v -0.0062414547 0.035394058 1.6285142
v -0.0062414547 0.035394058 1.6502888
v 0.027531432 0.023102112 1.6285142
v 0.027531432 0.023102112 1.6502888
v 0.03377228 -0.012291565 1.6285142
v 0.03377228 -0.012291565 1.6502888
v -0.03377243 0.01229248 1.6502888
v 0.0062408447 -0.035393294 1.6502888
v -0.02753128 -0.023101272 1.6502888
v 0.027531432 0.023102112 1.6502888
v -0.0062414547 0.035394058 1.6502888
v 0.03377228 -0.012291565 1.6502888
vt 0.28173828 0.9926758
vt 0.26757812 0.9663086
vt 0.26757812 0.9926758
vt 0.28173828 0.9663086
vt 0.26757812 0.93652344
vt 0.30004883 0.9663086
vt 0.30004883 0.9926758
vt 0.31884766 0.9926758
vt 0.28173828 0.93652344
vt 0.26757812 0.5473633
vt 0.28173828 0.5473633
vt 0.30004883 0.5473633
vt 0.30004883 0.93652344
vt 0.31884766 0.9663086
vt 0.31884766 0.93652344
vt 0.31884766 0.5473633
vt 0.33813477 0.5473633
vt 0.33813477 0.9663086
vt 0.33813477 0.9926758
vt 0.3569336 0.9926758
vt 0.33813477 0.93652344
vt 0.3569336 0.9663086
vt 0.3569336 0.93652344
vt 0.3569336 0.5473633
vt 0.37451172 0.5473633
vt 0.37451172 0.9663086
vt 0.37451172 0.9926758
vt 0.390625 0.9926758
vt 0.37451172 0.93652344
vt 0.390625 0.9663086
vt 0.390625 0.93652344
vt 0.390625 0.5473633
vt 0.41381836 0.5473633
vt 0.41381836 0.93652344
vt 0.41381836 0.9663086
vt 0.41381836 0.9926758
vt 0.23034668 0.53466797
vt 0.25561523 0.57470703
vt 0.2512207 0.5493164
vt 0.19042969 0.5600586
vt 0.2052002 0.5390625
vt 0.21582031 0.60009766
vt 0.2409668 0.5957031
vt 0.19482422 0.58496094
vt 0.20605469 0.6176758
vt 0.23242188 0.61621094
vt 0.21887207 0.6113281
vt 0.20788574 0.64404297
vt 0.20153809 0.63134766
vt 0.23413086 0.64208984
vt 0.23864746 0.62890625
vt 0.22131348 0.6484375
vt 0.20825195 0.41235352
vt 0.18334961 0.42626953
vt 0.20825195 0.42626953
vt 0.18334961 0.41235352
vt 0.20825195 0.39819336
vt 0.18334961 0.39819336
vt 0.20825195 0.3840332
vt 0.18334961 0.3840332
vt 0.20825195 0.36987305
vt 0.18334961 0.36987305
vt 0.20825195 0.35595703
vt 0.18334961 0.35595703
vt 0.20825195 0.34179688
vt 0.18334961 0.34179688
vt 0.18334961 0.32763672
vt 0.20825195 0.32763672
vt 0.18334961 0.31347656
vt 0.20825195 0.31347656
vt 0.2475586 0.40112305
vt 0.2467041 0.4255371
vt 0.25219727 0.41357422
vt 0.22290039 0.40039062
vt 0.23535156 0.3955078
vt 0.22216797 0.4248047
vt 0.23425293 0.43041992
vt 0.21740723 0.41235352
vt 0.24328613 0.3466797
vt 0.25195312 0.38989258
vt 0.25195312 0.3466797
vt 0.24328613 0.38989258
vt 0.23474121 0.3466797
vt 0.23474121 0.38989258
vt 0.22607422 0.38989258
vt 0.22607422 0.3466797
vt 0.2166748 0.38989258
vt 0.2166748 0.3466797
vt 0.24328613 0.38989258
vt 0.25195312 0.3466797
vt 0.25195312 0.38989258
vt 0.24328613 0.3466797
vt 0.23474121 0.38989258
vt 0.23474121 0.3466797
vt 0.22607422 0.38989258
vt 0.22607422 0.3466797
vt 0.2166748 0.38989258
vt 0.2166748 0.3466797
vt 0.24194336 0.46777344
vt 0.20227051 0.5
vt 0.23132324 0.49536133
vt 0.19433594 0.4494629
vt 0.22351074 0.44482422
vt 0.18371582 0.47705078
vt 0.22583008 0.5283203
vt 0.19641113 0.5107422
vt 0.19641113 0.5283203
vt 0.22583008 0.5107422
vt 0.2553711 0.5283203
vt 0.2553711 0.5107422
vt 0.2849121 0.5283203
vt 0.2849121 0.5107422
vt 0.31445312 0.5283203
vt 0.31445312 0.5107422
vt 0.34375 0.5283203
vt 0.34375 0.5107422
vt 0.37329102 0.5283203
vt 0.37329102 0.5107422
vt 0.19433594 0.4494629
vt 0.24194336 0.46777344
vt 0.22351074 0.44482422
vt 0.20227051 0.5
vt 0.18371582 0.47705078
vt 0.23132324 0.49536133
vn -0.6845703 -0.31933594 0.65527344
vn -0.85791016 0.31225586 0.40771484
vn -0.70996094 0.25830078 0.65527344
vn -0.8276367 -0.38598633 0.40771484
vn -0.93603516 0.3408203 0.08746338
vn -0.31225586 -0.85791016 0.40771484
vn -0.25830078 -0.70996094 0.65527344
vn 0.31933594 -0.6845703 0.65527344
vn -0.90283203 -0.42089844 0.08746338
vn -0.9394531 0.34204102 0.0017108917
vn -0.90625 -0.42260742 0.0017108917
vn -0.34204102 -0.9394531 0.0017118454
vn -0.3408203 -0.93603516 0.08746338
vn 0.38598633 -0.8276367 0.40771484
vn 0.42089844 -0.90283203 0.08746338
vn 0.42260742 -0.90625 0.0017108917
vn 0.9394531 -0.34204102 0.0017108917
vn 0.85791016 -0.31225586 0.40771484
vn 0.70996094 -0.25830078 0.65527344
vn 0.6845703 0.31933594 0.65527344
vn 0.93603516 -0.3408203 0.08746338
vn 0.8276367 0.38598633 0.40771484
vn 0.90283203 0.42089844 0.08746338
vn 0.90625 0.42260742 0.0017108917
vn 0.34204102 0.9394531 0.0017108917
vn 0.31225586 0.85791016 0.40771484
vn 0.25830078 0.70996094 0.65527344
vn -0.31933594 0.6845703 0.65527344
vn 0.3408203 0.93603516 0.08746338
vn -0.38598633 0.8276367 0.40771484
vn -0.42089844 0.90283203 0.08746338
vn -0.42260742 0.90625 0.0017108917
vn -0.9394531 0.34204102 0.0017108917
vn -0.93603516 0.3408203 0.08746338
vn -0.85791016 0.31225586 0.40771484
vn -0.70996094 0.25830078 0.65527344
vn -1.1920929E-07 -3.5762787E-07 -1
vn -1.1920929E-07 -3.5762787E-07 -1
vn -1.1920929E-07 -4.172325E-07 -1
vn -1.1920929E-07 -3.5762787E-07 -1
vn -1.1920929E-07 -3.5762787E-07 -1
vn -1.1920929E-07 -3.5762787E-07 -1
vn -1.1920929E-07 -3.5762787E-07 -1
vn -1.1920929E-07 -4.172325E-07 -1
vn 1.5556812E-05 -5.6624413E-06 1
vn 1.5556812E-05 -5.6624413E-06 1
vn 1.5556812E-05 -5.6624413E-06 1
vn -1.5556812E-05 5.6624413E-06 1
vn -5.6624413E-06 -1.5556812E-05 1
vn 5.6624413E-06 1.5556812E-05 1
vn 5.6624413E-06 1.5556812E-05 1
vn -1.5556812E-05 5.6624413E-06 1
vn -0.42260742 0.90625 3.695488E-06
vn -0.9394531 0.34204102 5.722046E-06
vn -0.9394531 0.34204102 0
vn -0.42260742 0.90625 5.185604E-06
vn 0.34204102 0.9394531 1.5497208E-06
vn 0.34204102 0.9394531 0
vn 0.90625 0.42260742 0
vn 0.90625 0.42260742 0
vn 0.9394531 -0.34204102 0
vn 0.9394531 -0.34204102 4.7683716E-07
vn 0.42260742 -0.90625 1.2516975E-06
vn 0.42260742 -0.90625 3.5762787E-07
vn -0.34204102 -0.9394531 9.536743E-07
vn -0.34204102 -0.9394531 -1.7881393E-06
vn -0.90625 -0.42260742 3.993511E-06
vn -0.90625 -0.42260742 2.6226044E-06
vn -0.9394531 0.34204102 5.722046E-06
vn -0.9394531 0.34204102 0
vn -1.66893E-05 6.0796738E-06 1
vn -1.66893E-05 6.0796738E-06 1
vn -1.66893E-05 6.0796738E-06 1
vn 1.66893E-05 -6.0796738E-06 1
vn -6.0796738E-06 -1.66893E-05 1
vn -6.0796738E-06 -1.66893E-05 1
vn -6.0796738E-06 -1.66893E-05 1
vn 1.66893E-05 -6.0796738E-06 1
vn 0.42138672 -0.9038086 0.07684326
vn 0.9370117 -0.34106445 0.07684326
vn 0.9370117 -0.34106445 0.07684326
vn 0.42138672 -0.9038086 0.07684326
vn -0.34106445 -0.9370117 0.07684326
vn -0.34106445 -0.9370117 0.07684326
vn -0.9038086 -0.42138672 0.07684326
vn -0.9038086 -0.42138672 0.07684326
vn -0.9370117 0.34106445 0.07684326
vn -0.9370117 0.34106445 0.07684326
vn 0.9038086 0.42138672 0.07684326
vn 0.9370117 -0.34106445 0.07684326
vn 0.9370117 -0.34106445 0.07684326
vn 0.9038086 0.42138672 0.07684326
vn 0.34106445 0.9370117 0.07684326
vn 0.34106445 0.9370117 0.07684326
vn -0.42138672 0.9038086 0.07684326
vn -0.42138672 0.9038086 0.07684326
vn -0.9370117 0.34106445 0.07684326
vn -0.9370117 0.34106445 0.07684326
vn -0 0 -1
vn -0 0 -1
vn -0 0 -1
vn -0 0 -1
vn -0 0 -1
vn -0 0 -1
vn 0.17370605 -0.9848633 0
vn 0.9394531 -0.34204102 0
vn 0.9394531 -0.34204102 0
vn 0.17370605 -0.9848633 0
vn -0.7661133 -0.6425781 0
vn -0.7661133 -0.6425781 0
vn -0.9394531 0.34204102 0
vn -0.9394531 0.34204102 0
vn -0.17370605 0.9848633 0
vn -0.17370605 0.9848633 0
vn 0.7661133 0.6425781 0
vn 0.7661133 0.6425781 0
vn 0.9394531 -0.34204102 0
vn 0.9394531 -0.34204102 0
vn -0 0 1
vn -0 0 1
vn -0 0 1
vn -0 0 1
vn -0 0 1
vn -0 0 1
g Laboratory_OBJ_GasTank_01_0
f 3/3/3 2/2/2 1/1/1
f 4/4/4 1/1/1 2/2/2
f 2/2/2 5/5/5 4/4/4
f 4/4/4 6/6/6 1/1/1
f 7/7/7 1/1/1 6/6/6
f 7/7/7 6/6/6 8/8/8
f 9/9/9 4/4/4 5/5/5
f 5/5/5 10/10/10 9/9/9
f 11/11/11 9/9/9 10/10/10
f 11/11/11 12/12/12 9/9/9
f 9/9/9 13/13/13 4/4/4
f 6/6/6 4/4/4 13/13/13
f 13/13/13 9/9/9 12/12/12
f 14/14/14 8/8/8 6/6/6
f 6/6/6 13/13/13 14/14/14
f 13/13/13 12/12/12 15/15/15
f 15/15/15 14/14/14 13/13/13
f 16/16/16 15/15/15 12/12/12
f 16/16/16 17/17/17 15/15/15
f 14/14/14 18/18/18 8/8/8
f 19/19/19 8/8/8 18/18/18
f 19/19/19 18/18/18 20/20/20
f 15/15/15 21/21/21 14/14/14
f 21/21/21 15/15/15 17/17/17
f 18/18/18 14/14/14 21/21/21
f 22/22/22 20/20/20 18/18/18
f 18/18/18 21/21/21 22/22/22
f 21/21/21 17/17/17 23/23/23
f 23/23/23 22/22/22 21/21/21
f 24/24/24 23/23/23 17/17/17
f 24/24/24 25/25/25 23/23/23
f 22/22/22 26/26/26 20/20/20
f 27/27/27 20/20/20 26/26/26
f 27/27/27 26/26/26 28/28/28
f 23/23/23 29/29/29 22/22/22
f 29/29/29 23/23/23 25/25/25
f 26/26/26 22/22/22 29/29/29
f 30/30/30 28/28/28 26/26/26
f 26/26/26 29/29/29 30/30/30
f 29/29/29 25/25/25 31/31/31
f 31/31/31 30/30/30 29/29/29
f 32/32/32 31/31/31 25/25/25
f 32/32/32 33/33/33 31/31/31
f 34/34/34 31/31/31 33/33/33
f 31/31/31 34/34/34 30/30/30
f 35/35/35 30/30/30 34/34/34
f 30/30/30 35/35/35 28/28/28
f 36/36/36 28/28/28 35/35/35
f 39/39/39 38/38/38 37/37/37
f 38/38/38 40/40/40 37/37/37
f 37/37/37 40/40/40 41/41/41
f 42/42/42 40/40/40 38/38/38
f 43/43/43 42/42/42 38/38/38
f 44/44/44 40/40/40 42/42/42
f 47/47/47 46/46/46 45/45/45
f 46/46/46 48/48/48 45/45/45
f 45/45/45 48/48/48 49/49/49
f 50/50/50 48/48/48 46/46/46
f 51/51/51 50/50/50 46/46/46
f 52/52/52 48/48/48 50/50/50
f 55/55/55 54/54/54 53/53/53
f 56/56/56 53/53/53 54/54/54
f 53/53/53 56/56/56 57/57/57
f 58/58/58 57/57/57 56/56/56
f 57/57/57 58/58/58 59/59/59
f 60/60/60 59/59/59 58/58/58
f 59/59/59 60/60/60 61/61/61
f 62/62/62 61/61/61 60/60/60
f 61/61/61 62/62/62 63/63/63
f 64/64/64 63/63/63 62/62/62
f 63/63/63 64/64/64 65/65/65
f 66/66/66 65/65/65 64/64/64
f 66/66/66 67/67/67 65/65/65
f 68/68/68 65/65/65 67/67/67
f 67/67/67 69/69/69 68/68/68
f 70/70/70 68/68/68 69/69/69
f 73/73/73 72/72/72 71/71/71
f 72/72/72 74/74/74 71/71/71
f 71/71/71 74/74/74 75/75/75
f 76/76/76 74/74/74 72/72/72
f 77/77/77 76/76/76 72/72/72
f 78/78/78 74/74/74 76/76/76
f 81/81/81 80/80/80 79/79/79
f 82/82/82 79/79/79 80/80/80
f 79/79/79 82/82/82 83/83/83
f 84/84/84 83/83/83 82/82/82
f 84/84/84 85/85/85 83/83/83
f 86/86/86 83/83/83 85/85/85
f 85/85/85 87/87/87 86/86/86
f 88/88/88 86/86/86 87/87/87
f 91/91/91 90/90/90 89/89/89
f 92/92/92 89/89/89 90/90/90
f 89/89/89 92/92/92 93/93/93
f 94/94/94 93/93/93 92/92/92
f 93/93/93 94/94/94 95/95/95
f 96/96/96 95/95/95 94/94/94
f 95/95/95 96/96/96 97/97/97
f 98/98/98 97/97/97 96/96/96
f 101/101/101 100/100/100 99/99/99
f 100/100/100 102/102/102 99/99/99
f 99/99/99 102/102/102 103/103/103
f 104/104/104 102/102/102 100/100/100
f 107/107/107 106/106/106 105/105/105
f 108/108/108 105/105/105 106/106/106
f 105/105/105 108/108/108 109/109/109
f 110/110/110 109/109/109 108/108/108
f 109/109/109 110/110/110 111/111/111
f 112/112/112 111/111/111 110/110/110
f 111/111/111 112/112/112 113/113/113
f 114/114/114 113/113/113 112/112/112
f 113/113/113 114/114/114 115/115/115
f 116/116/116 115/115/115 114/114/114
f 115/115/115 116/116/116 117/117/117
f 118/118/118 117/117/117 116/116/116
f 121/121/121 120/120/120 119/119/119
f 120/120/120 122/122/122 119/119/119
f 119/119/119 122/122/122 123/123/123
f 124/124/124 122/122/122 120/120/120
