g Laboratory_OBJ_PaperSet_01
v -0.18462537 -0.025850467 0.069977626
v -0.18462537 -0.31194875 0.069977626
v 0.21182203 -0.31194875 0.069977626
v 0.21182203 -0.025850467 0.069977626
v -0.18462537 -0.025850467 0.2645789
v 0.21182203 -0.025850467 0.2645789
v 0.21182203 -0.31194875 0.2645789
v -0.18462537 -0.31194875 0.2645789
v -0.18462537 -0.025850467 0.069977626
v -0.18462537 -0.025850467 0.2645789
v -0.18462537 -0.31194875 0.2645789
v -0.18462537 -0.31194875 0.069977626
v -0.18462537 -0.31194875 0.069977626
v -0.18462537 -0.31194875 0.2645789
v 0.21182203 -0.31194875 0.2645789
v 0.21182203 -0.31194875 0.069977626
v 0.21182203 -0.31194875 0.069977626
v 0.21182203 -0.31194875 0.2645789
v 0.21182203 -0.025850467 0.2645789
v 0.21182203 -0.025850467 0.069977626
v 0.21182203 -0.025850467 0.069977626
v 0.21182203 -0.025850467 0.2645789
v -0.18462537 -0.025850467 0.2645789
v -0.18462537 -0.025850467 0.069977626
v -0.13673285 -0.296847 0.21508056
v -0.16117384 -0.017485285 0.21508056
v 0.22656073 0.016437082 0.21508056
v 0.25100172 -0.26292464 0.21508056
v -0.21270208 -0.31977913 0.19494629
v -0.18548144 -0.040674534 0.19494629
v 0.2018962 -0.078454874 0.19494629
v 0.17467557 -0.3575595 0.19494629
v -0.17686675 -0.35206503 0.13064942
v -0.22497624 -0.08081709 0.13064942
v 0.15149687 -0.014044533 0.13064942
v 0.19960637 -0.28529242 0.13064942
v 0.22656073 0.016437082 0.21384643
v -0.16117384 -0.017485285 0.21384643
v -0.13673285 -0.296847 0.21384643
v 0.25100172 -0.26292464 0.21384643
v 0.15149689 -0.014044533 0.12878174
v -0.22497621 -0.08081715 0.12878174
v -0.17686675 -0.352065 0.12878174
v 0.19960637 -0.2852924 0.12878174
v 0.2018962 -0.078454874 0.19354492
v -0.18548144 -0.040674534 0.19354492
v -0.21270207 -0.31977913 0.19354492
v 0.1746756 -0.3575595 0.19354492
v -0.16633286 -0.007529988 0.06720581
v -0.14797036 -0.0024828291 0.06720581
v -0.13520764 -0.048916053 0.06720581
v -0.15357013 -0.05396321 0.06720581
v -0.21037038 -0.11682733 0.26674315
v -0.21037038 -0.097783856 0.26674315
v -0.16221508 -0.097783856 0.26674315
v -0.16221508 -0.11682733 0.26674315
v -0.068475485 -0.0046780226 0.25012207
v -0.051700015 0.0014171719 0.25012207
v -0.036287025 -0.04100296 0.25012207
v -0.05306248 -0.04709818 0.25012207
v 0.13094687 -0.027141724 0.2168866
v 0.1114689 -0.02321663 0.2168866
v 0.12139444 0.026037596 0.2168866
v 0.1408725 0.022112465 0.2168866
v -0.22169894 -0.27624258 0.23337829
v -0.2243069 -0.25460732 0.23337829
v -0.16959743 -0.24801269 0.23337829
v -0.16698952 -0.26964805 0.23337829
v -0.16959743 -0.24801269 0.23312408
v -0.2243069 -0.25460732 0.23312408
v -0.22169894 -0.27624258 0.23312408
v -0.16698952 -0.26964805 0.23312408
v -0.13520764 -0.048916034 0.06709736
v -0.14797036 -0.002482841 0.06709736
v -0.16633283 -0.0075299763 0.06709736
v -0.15357012 -0.053963203 0.06709736
v -0.16221508 -0.097783856 0.2664395
v -0.21037038 -0.097783856 0.2664395
v -0.21037038 -0.11682733 0.2664395
v -0.16221508 -0.11682733 0.2664395
v -0.036287025 -0.04100296 0.24968871
v -0.051700015 0.0014171719 0.24968871
v -0.068475485 -0.0046780226 0.24968871
v -0.05306248 -0.04709818 0.24968871
v 0.12139444 0.026037596 0.21629508
v 0.1114689 -0.02321663 0.21629508
v 0.13094687 -0.027141724 0.21629508
v 0.1408725 0.022112465 0.21629508
v -0.13387512 -0.027900733 0.097897545
v -0.17797014 -0.31058052 0.097897545
v 0.21374021 -0.37168315 0.097897545
v 0.25783524 -0.089003354 0.097897545
v -0.13387512 -0.027900733 0.0989913
v 0.25783524 -0.089003354 0.0989913
v 0.21374021 -0.37168315 0.0989913
v -0.17797014 -0.31058052 0.0989913
v -0.2152541 -0.012691936 0.15179892
v -0.17630243 -0.2961262 0.15179892
v 0.21645343 -0.24215074 0.15179892
v 0.17750177 0.04128353 0.15179892
v -0.2152541 -0.012691936 0.15289266
v 0.17750178 0.04128354 0.15289266
v 0.21645348 -0.24215074 0.15289266
v -0.1763024 -0.29612622 0.15289266
vt 0.22912598 0.06439209
vt 0.22912598 0.15942383
vt 0.36083984 0.15942383
vt 0.36083984 0.06439209
vt 0.22912598 0.25756836
vt 0.36083984 0.25756836
vt 0.36083984 0.16259766
vt 0.22912598 0.16259766
vt 0.36621094 0.24707031
vt 0.42236328 0.24707031
vt 0.42236328 0.16455078
vt 0.36621094 0.16455078
vt 0.41723633 0.05682373
vt 0.36791992 0.05682373
vt 0.36791992 0.15710449
vt 0.41723633 0.15710449
vt 0.36621094 0.25976562
vt 0.42236328 0.25976562
vt 0.42236328 0.1772461
vt 0.36621094 0.1772461
vt 0.41723633 0.05682373
vt 0.36791992 0.05682373
vt 0.36791992 0.15710449
vt 0.41723633 0.15710449
vt 0.22924805 0.16345215
vt 0.22924805 0.25732422
vt 0.359375 0.25732422
vt 0.359375 0.16345215
vt 0.22973633 0.064941406
vt 0.22973633 0.15881348
vt 0.36010742 0.15881348
vt 0.36010742 0.064941406
vt 0.22924805 0.16345215
vt 0.22924805 0.25732422
vt 0.359375 0.25732422
vt 0.359375 0.16345215
vt 0.359375 0.25732422
vt 0.22924805 0.25732422
vt 0.22924805 0.16345215
vt 0.359375 0.16345215
vt 0.359375 0.25732422
vt 0.22924805 0.25732422
vt 0.22924805 0.16345215
vt 0.359375 0.16345215
vt 0.36010742 0.15881348
vt 0.22973633 0.15881348
vt 0.22973633 0.064941406
vt 0.36010742 0.064941406
vt 0.21362305 0.2619629
vt 0.19909668 0.2619629
vt 0.19909668 0.29882812
vt 0.21362305 0.29882812
vt 0.23364258 0.2619629
vt 0.21899414 0.2619629
vt 0.21899414 0.29882812
vt 0.23364258 0.29882812
vt 0.21362305 0.2619629
vt 0.19909668 0.2619629
vt 0.19909668 0.29882812
vt 0.21362305 0.29882812
vt 0.19372559 0.2619629
vt 0.17907715 0.2619629
vt 0.17907715 0.29882812
vt 0.19372559 0.29882812
vt 0.19372559 0.2619629
vt 0.17907715 0.2619629
vt 0.17907715 0.29882812
vt 0.19372559 0.29882812
vt 0.17907715 0.29882812
vt 0.17907715 0.2619629
vt 0.19372559 0.2619629
vt 0.19372559 0.29882812
vt 0.19909668 0.29882812
vt 0.19909668 0.2619629
vt 0.21362305 0.2619629
vt 0.21362305 0.29882812
vt 0.21899414 0.29882812
vt 0.21899414 0.2619629
vt 0.23364258 0.2619629
vt 0.23364258 0.29882812
vt 0.19909668 0.29882812
vt 0.19909668 0.2619629
vt 0.21362305 0.2619629
vt 0.21362305 0.29882812
vt 0.17907715 0.29882812
vt 0.17907715 0.2619629
vt 0.19372559 0.2619629
vt 0.19372559 0.29882812
vt 0.22912598 0.06439209
vt 0.22912598 0.15942383
vt 0.36083984 0.15942383
vt 0.36083984 0.06439209
vt 0.22912598 0.06439209
vt 0.36083984 0.06439209
vt 0.36083984 0.15942383
vt 0.22912598 0.15942383
vt 0.22912598 0.06439209
vt 0.22912598 0.15942383
vt 0.36083984 0.15942383
vt 0.36083984 0.06439209
vt 0.22912598 0.06439209
vt 0.36083984 0.06439209
vt 0.36083984 0.15942383
vt 0.22912598 0.15942383
vn -0 0 -1
vn -0 0 -1
vn -0 0 -1
vn -0 0 -1
vn -0 0 1
vn -0 0 1
vn -0 0 1
vn -0 0 1
vn -1 0 0
vn -1 0 0
vn -1 0 0
vn -1 0 0
vn -0 -1 0
vn -0 -1 0
vn -0 -1 0
vn -0 -1 0
vn 1 0 0
vn 1 0 0
vn 1 0 0
vn 1 0 0
vn -0 1 0
vn -0 1 0
vn -0 1 0
vn -0 1 0
vn -0 0 1
vn -0 0 1
vn -0 0 1
vn -0 0 1
vn -0 0 1
vn -0 0 1
vn -0 0 1
vn -0 0 1
vn -0 0 1
vn -0 0 1
vn -0 0 1
vn -0 0 1
vn -0 0 -1
vn -0 0 -1
vn -0 0 -1
vn -0 0 -1
vn -0 0 -1
vn -0 0 -1
vn -0 0 -1
vn -0 0 -1
vn -0 0 -1
vn -0 0 -1
vn -0 0 -1
vn -0 0 -1
vn -0 0 1
vn -0 0 1
vn -0 0 1
vn -0 0 1
vn -0 0 1
vn -0 0 1
vn -0 0 1
vn -0 0 1
vn -0 0 1
vn -0 0 1
vn -0 0 1
vn -0 0 1
vn -0 0 1
vn -0 0 1
vn -0 0 1
vn -0 0 1
vn -0 0 1
vn -0 0 1
vn -0 0 1
vn -0 0 1
vn -0 0 -1
vn -0 0 -1
vn -0 0 -1
vn -0 0 -1
vn -0 0 -1
vn -0 0 -1
vn -0 0 -1
vn -0 0 -1
vn -0 0 -1
vn -0 0 -1
vn -0 0 -1
vn -0 0 -1
vn -0 0 -1
vn -0 0 -1
vn -0 0 -1
vn -0 0 -1
vn -0 0 -1
vn -0 0 -1
vn -0 0 -1
vn -0 0 -1
vn -0 0 -1
vn -0 0 -1
vn -0 0 -1
vn -0 0 -1
vn -0 0 1
vn -0 0 1
vn -0 0 1
vn -0 0 1
vn -0 0 -1
vn -0 0 -1
vn -0 0 -1
vn -0 0 -1
vn -0 0 1
vn -0 0 1
vn -0 0 1
vn -0 0 1
g Laboratory_OBJ_PaperSet_01_0
f 3/3/3 2/2/2 1/1/1
f 4/4/4 3/3/3 1/1/1
f 7/7/7 6/6/6 5/5/5
f 8/8/8 7/7/7 5/5/5
f 11/11/11 10/10/10 9/9/9
f 12/12/12 11/11/11 9/9/9
f 15/15/15 14/14/14 13/13/13
f 16/16/16 15/15/15 13/13/13
f 19/19/19 18/18/18 17/17/17
f 20/20/20 19/19/19 17/17/17
f 23/23/23 22/22/22 21/21/21
f 24/24/24 23/23/23 21/21/21
f 27/27/27 26/26/26 25/25/25
f 28/28/28 27/27/27 25/25/25
f 31/31/31 30/30/30 29/29/29
f 32/32/32 31/31/31 29/29/29
f 35/35/35 34/34/34 33/33/33
f 36/36/36 35/35/35 33/33/33
f 39/39/39 38/38/38 37/37/37
f 40/40/40 39/39/39 37/37/37
f 43/43/43 42/42/42 41/41/41
f 44/44/44 43/43/43 41/41/41
f 47/47/47 46/46/46 45/45/45
f 48/48/48 47/47/47 45/45/45
f 51/51/51 50/50/50 49/49/49
f 52/52/52 51/51/51 49/49/49
f 55/55/55 54/54/54 53/53/53
f 56/56/56 55/55/55 53/53/53
f 59/59/59 58/58/58 57/57/57
f 60/60/60 59/59/59 57/57/57
f 63/63/63 62/62/62 61/61/61
f 64/64/64 63/63/63 61/61/61
f 67/67/67 66/66/66 65/65/65
f 68/68/68 67/67/67 65/65/65
f 71/71/71 70/70/70 69/69/69
f 72/72/72 71/71/71 69/69/69
f 75/75/75 74/74/74 73/73/73
f 76/76/76 75/75/75 73/73/73
f 79/79/79 78/78/78 77/77/77
f 80/80/80 79/79/79 77/77/77
f 83/83/83 82/82/82 81/81/81
f 84/84/84 83/83/83 81/81/81
f 87/87/87 86/86/86 85/85/85
f 88/88/88 87/87/87 85/85/85
f 91/91/91 90/90/90 89/89/89
f 92/92/92 91/91/91 89/89/89
f 95/95/95 94/94/94 93/93/93
f 96/96/96 95/95/95 93/93/93
f 99/99/99 98/98/98 97/97/97
f 100/100/100 99/99/99 97/97/97
f 103/103/103 102/102/102 101/101/101
f 104/104/104 103/103/103 101/101/101
