g Laboratory
v 0.35408613 0.30400002 0.00989202
v 0.35899997 0.31055814 0.00989202
v 0.35899997 0.30400002 0.00989202
v 0.34999996 0.30059487 0.00989202
v 0.31500003 0.31724262 0.00989202
v 0.36205226 0.313 0.00989202
v 0.31275734 0.315 0.00989202
v 0.34999996 0.28710976 0.00989202
v 0.35199997 0.35449997 0.00989202
v 0.31499997 0.5188594 0.00989202
v 0.35431528 0.35276347 0.009892021
v 0.37199995 0.34834233 0.00989202
v 0.37199995 0.313 0.00989202
v 0.35199997 0.49230143 0.00989202
v 0.31499997 0.56024265 0.00989202
v 0.35199997 0.5876985 0.00989202
v 0.37201148 0.5043014 0.00989202
v 0.31265277 0.52150005 0.00989202
v 0.37201148 0.5192788 0.00989202
v 0.31275734 0.55799997 0.00989202
v 0.28839445 0.55799997 0.00989202
v 0.28825906 0.52150005 0.00989202
v 0.28625903 0.525 0.00989202
v 0.28639442 0.555 0.00989202
v 0.275 0.525 0.00989202
v 0.275 0.555 0.00989202
v 0.37201148 0.55920833 0.009892021
v 0.37201148 0.57569855 0.009892021
v 0.37323287 0.5584003 0.01004635
v 0.37323287 0.520508 0.01004635
v 0.37794426 0.520508 0.01004635
v 0.3779443 0.5584003 0.010046348
v 0.34652767 0.59699994 0.00989202
v 0.35199997 0.59699994 0.00989202
v 0.33999994 0.60597557 0.00989202
v 0.33999994 0.62583095 0.009892021
v 0.33699995 0.63083094 0.00989202
v 0.31499997 0.7627574 0.00989202
v 0.33699995 0.6339139 0.00989202
v 0.34028557 0.63785666 0.00989202
v 0.35199997 0.71364486 0.00989202
v 0.35199997 0.63668495 0.00989202
v 0.35651374 0.732438 0.009892021
v 0.35649103 0.7496049 0.009892021
v 0.36409393 0.75600004 0.00989202
v 0.31275734 0.765 0.00989202
v 0.37199995 0.756 0.00989202
v 0.36524263 0.79300004 0.00989202
v 0.37199995 0.79300004 0.00989202
v 0.29979485 0.8044241 0.00989202
v 0.34586975 0.8019488 0.009892021
v 0.36299998 0.7952426 0.00989202
v 0.36299998 0.8008066 0.00989202
v 0.33899996 0.8057652 0.00989202
v 0.3017202 0.8062687 0.00989202
v 0.3017202 0.82199985 0.009892021
v 0.33046725 0.82199997 0.00989202
v 0.33899996 0.81102926 0.00989202
v 0.2651441 0.80183333 0.009892021
v 0.27591082 0.8044241 0.00989202
v 0.17099205 0.79096824 0.00989202
v 0.17999999 0.7949533 0.009892021
v 0.17999999 0.80183333 0.00989202
v 0.1669839 0.78435653 0.00989202
v 0.111242644 0.765 0.00989202
v 0.16268985 0.78338385 0.00989202
v 0.13832001 0.78492254 0.00989202
v 0.137 0.7862425 0.00989202
v 0.04230935 0.8020132 0.00989202
v 0.06975736 0.765 0.00989202
v 0.072 0.7627574 0.00989202
v 0.109 0.7627574 0.00989202
v 0.072 0.7396286 0.00989202
v 0.109 0.7396286 0.00989202
v 0.105 0.7366287 0.00989202
v 0.074999996 0.7366287 0.00989202
v 0.105 0.72499996 0.009892021
v 0.074999996 0.72499996 0.00989202
v -0.083747745 0.8029904 0.00989202
v -0.13275732 0.765 0.00989202
v 0.06966599 0.8220001 0.009892021
v 0.054301422 0.82199997 0.009892021
v 0.109242626 0.82199997 0.00989202
v 0.070706196 0.8231979 0.010046351
v 0.1305303 0.7957966 0.009892021
v 0.137 0.7904051 0.009892021
v 0.12799999 0.80254394 0.00989202
v 0.108 0.8231979 0.01004635
v 0.07070618 0.82794607 0.010046351
v 0.108 0.8279461 0.010046351
v 0.12574096 0.82199997 0.009892021
v 0.12799999 0.80700004 0.00989202
v 0.13158272 0.8117769 0.00989202
v 0.2970562 0.2761794 0.00989202
v 0.30449998 0.27400002 0.00989202
v 0.2981459 0.27400002 0.009892021
v 0.3162426 0.276 0.00989202
v 0.3086754 0.26843277 0.00989202
v 0.26914817 0.27897024 0.00989202
v 0.31872946 0.276 0.00989202
v 0.35551807 0.28067192 0.00989202
v 0.32826608 0.2742661 0.009892021
v 0.35810238 0.27550343 0.00989202
v 0.3318916 0.26919037 0.00989202
v 0.35560188 0.258 0.00989202
v 0.3306482 0.258 0.00989202
v 0.110242635 0.315 0.00989202
v 0.26429707 0.278 0.00989202
v 0.13769858 0.27800003 0.00989202
v 0.042301435 0.27800003 0.009892021
v 0.054301426 0.258 0.00989202
v 0.070199996 0.258 0.00989202
v 0.10969858 0.258 0.00989202
v 0.12569857 0.258 0.00989202
v 0.108 0.25520954 0.01004635
v 0.071666665 0.25520954 0.01004635
v 0.07166666 0.25197947 0.010046351
v 0.108 0.25197947 0.010046351
v 0.0686387 0.315 0.00989202
v 0.0705 0.31718493 0.009892021
v 0.108 0.31718493 0.00989202
v 0.0705 0.33934718 0.00989202
v 0.074999996 0.3431736 0.009892021
v 0.105 0.3431736 0.00989202
v 0.108 0.33899996 0.009892021
v 0.074999996 0.355 0.00989202
v 0.105 0.355 0.00989202
v -0.036335967 0.289 0.009892021
v -0.08 0.315 0.00989202
v -0.052757353 0.289 0.00989202
v -0.03529964 0.28784868 0.00989202
v -0.03529964 0.278 0.00989202
v -0.08 0.30631968 0.00989202
v -0.08416693 0.30249998 0.009892021
v -0.11839443 0.30249998 0.00989202
v -0.19199997 0.28412756 0.00989202
v -0.16729616 0.28305352 0.00989202
v -0.08375734 0.27800003 0.009892021
v -0.05400001 0.28775734 0.00989202
v -0.05400001 0.278 0.00989202
v -0.16599998 0.28175735 0.00989202
v -0.08499998 0.27675736 0.00989202
v -0.16599998 0.258 0.009892021
v -0.084999986 0.25800002 0.01004635
v -0.1499027 0.32500002 0.00989202
v -0.15167421 0.32649603 0.009892021
v -0.19199997 0.36599997 0.00989202
v -0.15388477 0.35465026 0.00989202
v -0.17324263 0.36599997 0.00989202
v -0.17199996 0.3672426 0.00989202
v -0.13945615 0.318 0.00989202
v -0.14445613 0.325 0.00989202
v -0.13339444 0.315 0.009892021
v -0.13539444 0.318 0.00989202
v -0.12199999 0.30790833 0.009892021
v -0.12199999 0.315 0.00989202
v -0.14382061 0.37517187 0.009892021
v -0.14319886 0.37144148 0.00989202
v -0.14134005 0.37827253 0.009892021
v -0.17199996 0.49230143 0.009892021
v -0.15085495 0.3570741 0.00989202
v -0.14075732 0.36899996 0.00989202
v -0.13499999 0.35820663 0.00989202
v -0.13499999 0.36899996 0.00989202
v -0.13499999 0.3795406 0.00989202
v -0.13499999 0.5197573 0.00989202
v -0.17199996 0.5876985 0.009892021
v -0.19199997 0.57569855 0.00989202
v -0.19199997 0.5601276 0.00989202
v -0.19199997 0.5206528 0.00989202
v -0.19199997 0.5043014 0.00989202
v -0.19325075 0.52166665 0.01004635
v -0.19325075 0.55857295 0.01004635
v -0.19781749 0.52166665 0.01004635
v -0.19781749 0.5585729 0.01004635
v -0.13499999 0.56024265 0.00989202
v -0.13275732 0.55799997 0.00989202
v -0.13275735 0.522 0.00989202
v -0.10839443 0.522 0.00989202
v -0.10639444 0.525 0.00989202
v -0.10639444 0.555 0.00989202
v -0.10839443 0.55799997 0.009892021
v -0.095 0.555 0.009892021
v -0.095 0.525 0.00989202
v -0.14321601 0.58845866 0.00989202
v -0.14075732 0.58599997 0.00989202
v -0.13499999 0.58599997 0.00989202
v -0.15391313 0.6031558 0.00989202
v -0.15255848 0.60180116 0.00989202
v -0.14542578 0.60061234 0.00989202
v -0.15207162 0.62985814 0.00989202
v -0.17199996 0.715 0.00989202
v -0.1495581 0.63299996 0.00989202
v -0.16624263 0.715 0.00989202
v -0.14045613 0.64 0.00989202
v -0.14545612 0.63299996 0.009892021
v -0.13499999 0.64 0.00989202
v -0.16509575 0.7161468 0.00989202
v -0.13499999 0.76275724 0.00989202
v -0.16685255 0.7392752 0.00989202
v -0.16792133 0.74 0.00989202
v -0.19199997 0.768 0.00989202
v -0.19199997 0.74 0.00989202
v -0.17544946 0.78504425 0.00989202
v -0.18621944 0.776 0.00989202
v -0.19199997 0.776 0.00989202
v -0.18316516 0.7824346 0.00989202
v -0.1324279 0.79999995 0.00989202
v -0.08565008 0.8048927 0.00989202
v -0.12818277 0.80522484 0.00989202
v -0.107567556 0.806823 0.00989202
v -0.14288476 0.79999995 0.00989202
v -0.17434968 0.789107 0.00989202
v -0.17860386 0.79336125 0.00989202
v -0.15527472 0.80095303 0.00989202
v -0.1633855 0.80442905 0.00989202
vn -0 0 1
vn -0 0 1
vn -0 0 1
vn -0 0 1
vn -0 0 1
vn -0 0 1
vn -0 0 1
vn -0 0 1
vn -0 0 1
vn -0 0 1
vn -1.7881393E-07 0 1
vn -0 0 1
vn -0 0 1
vn -0 0 1
vn -0 0 1
vn -0 0 1
vn -0 0 1
vn -0 0 1
vn -0.025115967 0 0.9995117
vn -0 0 1
vn -0 0 1
vn -0 0 1
vn -1.7881393E-07 0 1
vn -0 0 1
vn -0 0 1
vn -0 0 1
vn -0.030075073 0 0.9995117
vn -0 0 1
vn -0.0725708 0 0.9975586
vn -0.07531738 0 0.9970703
vn -0 0 1
vn 2.3841858E-07 0 1
vn -0 0 1
vn -0 0 1
vn -0 0 1
vn -1.1920929E-07 0 1
vn -0 0 1
vn -0 0 1
vn -0 0 1
vn -0 0 1
vn -0 0 1
vn -0 0 1
vn -0 0 1
vn -0 0 1
vn -0 0 1
vn -0 0 1
vn -0 0 1
vn -0 0 1
vn -0 0 1
vn -0 0 1
vn -0 0 1
vn -0 0 1
vn -0 0 1
vn -0 0 1
vn -0 0 1
vn -0 0 1
vn -0 0 1
vn -0 0 1
vn -0 0 1
vn -0 2.3841858E-07 1
vn -0 0 1
vn -0 0 1
vn -0 0 1
vn -0 0 1
vn -0 0 1
vn -0 0 1
vn -0 0 1
vn -0 0 1
vn -0 0 1
vn -0 0 1
vn -0 0 1
vn -0 0 1
vn -0 0 1
vn -0 0 1
vn -0 0 1
vn -0 1.1920929E-07 1
vn -0 0 1
vn -0 0 1
vn -0 0 1
vn -0 0 1
vn -1.1920929E-07 -0.027496338 0.9995117
vn -0 0 1
vn -0 -0.025222778 0.9995117
vn -2.3841858E-07 -0.075805664 0.9970703
vn -5.364418E-07 -4.172325E-07 1
vn -1.1920929E-07 -1.1920929E-07 1
vn 1.1920929E-07 1.1920929E-07 1
vn -0 -0.07702637 0.9970703
vn -0 0 1
vn -0 -2.3841858E-07 1
vn -0 0 1
vn 2.3841858E-07 0 1
vn -0 0 1
vn -0 0 1
vn -0 0 1
vn -0 2.9802322E-07 1
vn -0 0 1
vn -0 0 1
vn -0 0 1
vn -0 0 1
vn -0 0 1
vn -0 1.1920929E-07 1
vn -0 0 1
vn -0 0 1
vn -0 0 1
vn -0 0 1
vn -0 0 1
vn -0 0 1
vn -0 0 1
vn -0 0 1
vn -0 0 1
vn -0 0.014205933 1
vn -0 0.013587952 1
vn -0 0 1
vn -0 0.031707764 0.9995117
vn -0 0.031311035 0.9995117
vn -0 3.5762787E-07 1
vn -0 3.5762787E-07 1
vn -0 0 1
vn -0 -2.9802322E-07 1
vn -0 0 1
vn -0 0 1
vn -0 0 1
vn -0 0 1
vn -2.3841858E-07 0 1
vn -0 0 1
vn -0 0 1
vn -0 0 1
vn -0 0 1
vn -0 0 1
vn -0 -3.5762787E-07 1
vn -0 0 1
vn -0 0 1
vn -0 0 1
vn -0 0 1
vn -0 0 1
vn -0 0 1
vn -0 0 1
vn -0 0 1
vn -0 0 1
vn -0 0 1
vn -0.0006518364 0.0028133392 1
vn -0.00027608871 0.0011920929 1
vn -0.0019054413 0.008224487 1
vn -0 0 1
vn -0 0 1
vn -0 0 1
vn -0 0 1
vn -0 0 1
vn -0 0 1
vn -0 0 1
vn -0 0 1
vn -1.7881393E-07 -2.3841858E-07 1
vn -0 1.7881393E-07 1
vn -0 -1.1920929E-07 1
vn -0 0 1
vn -0 0 1
vn 1.1920929E-07 0 1
vn -0 0 1
vn -0 0 1
vn -0 0 1
vn -0 0 1
vn -0 0 1
vn -0 0 1
vn -0 0 1
vn -0 0 1
vn -0 0 1
vn -0 0 1
vn 0.021850586 0 1
vn 0.027145386 0 0.9995117
vn -0 0 1
vn 0.07220459 0 0.9975586
vn 0.07489014 0 0.9970703
vn -0 0 1
vn -0 0 1
vn -0 0 1
vn -0 0 1
vn -0 0 1
vn -0 0 1
vn -0 0 1
vn -0 0 1
vn -0 -2.3841858E-07 1
vn -0 0 1
vn -0 0 1
vn -0 0 1
vn -0 0 1
vn -0 0 1
vn -0 0 1
vn -0 0 1
vn -0 0 1
vn -0 0 1
vn -0 0 1
vn -0 0 1
vn -0 0 1
vn -0 0 1
vn -1.1920929E-07 1.7881393E-07 1
vn -0 0 1
vn -0 0 1
vn -0 0 1
vn -0 0 1
vn -0 0 1
vn -0 0 1
vn -0 0 1
vn -0 0 1
vn -0 0 1
vn -0 0 1
vn -0 0 1
vn -0 0 1
vn -0 0 1
vn -0 0 1
vn -0 0 1
vn -0 0 1
vn -0 0 1
vn -0 0 1
vn -0 1.7881393E-07 1
vn -0 0 1
g Laboratory_0
f 3/3/3 2/2/2 1/1/1
f 1/1/1 2/2/2 4/4/4
f 2/2/2 5/5/5 4/4/4
f 6/6/6 5/5/5 2/2/2
f 5/5/5 7/7/7 4/4/4
f 4/4/4 7/7/7 8/8/8
f 9/9/9 5/5/5 6/6/6
f 10/10/10 5/5/5 9/9/9
f 11/11/11 9/9/9 6/6/6
f 12/12/12 11/11/11 6/6/6
f 13/13/13 12/12/12 6/6/6
f 14/14/14 10/10/10 9/9/9
f 10/10/10 14/14/14 15/15/15
f 16/16/16 15/15/15 14/14/14
f 17/17/17 16/16/16 14/14/14
f 10/10/10 15/15/15 18/18/18
f 19/19/19 16/16/16 17/17/17
f 20/20/20 18/18/18 15/15/15
f 20/20/20 21/21/21 18/18/18
f 22/22/22 18/18/18 21/21/21
f 22/22/22 21/21/21 23/23/23
f 24/24/24 23/23/23 21/21/21
f 23/23/23 24/24/24 25/25/25
f 26/26/26 25/25/25 24/24/24
f 27/27/27 16/16/16 19/19/19
f 28/28/28 16/16/16 27/27/27
f 27/27/27 19/19/19 29/29/29
f 30/30/30 29/29/29 19/19/19
f 30/30/30 31/31/31 29/29/29
f 32/32/32 29/29/29 31/31/31
f 34/34/34 33/33/33 16/16/16
f 33/33/33 35/35/35 16/16/16
f 16/16/16 35/35/35 15/15/15
f 35/35/35 36/36/36 15/15/15
f 36/36/36 37/37/37 15/15/15
f 15/15/15 37/37/37 38/38/38
f 37/37/37 39/39/39 38/38/38
f 39/39/39 40/40/40 38/38/38
f 40/40/40 41/41/41 38/38/38
f 42/42/42 41/41/41 40/40/40
f 41/41/41 43/43/43 38/38/38
f 43/43/43 44/44/44 38/38/38
f 44/44/44 45/45/45 38/38/38
f 38/38/38 45/45/45 46/46/46
f 45/45/45 47/47/47 46/46/46
f 47/47/47 48/48/48 46/46/46
f 49/49/49 48/48/48 47/47/47
f 46/46/46 48/48/48 50/50/50
f 50/50/50 48/48/48 51/51/51
f 51/51/51 48/48/48 52/52/52
f 53/53/53 51/51/51 52/52/52
f 54/54/54 50/50/50 51/51/51
f 55/55/55 50/50/50 54/54/54
f 56/56/56 55/55/55 54/54/54
f 57/57/57 56/56/56 54/54/54
f 58/58/58 57/57/57 54/54/54
f 59/59/59 46/46/46 50/50/50
f 60/60/60 59/59/59 50/50/50
f 61/61/61 46/46/46 59/59/59
f 62/62/62 61/61/61 59/59/59
f 63/63/63 62/62/62 59/59/59
f 64/64/64 46/46/46 61/61/61
f 65/65/65 46/46/46 64/64/64
f 66/66/66 65/65/65 64/64/64
f 67/67/67 65/65/65 66/66/66
f 68/68/68 65/65/65 67/67/67
f 69/69/69 65/65/65 68/68/68
f 70/70/70 65/65/65 69/69/69
f 70/70/70 71/71/71 65/65/65
f 72/72/72 65/65/65 71/71/71
f 71/71/71 73/73/73 72/72/72
f 74/74/74 72/72/72 73/73/73
f 74/74/74 73/73/73 75/75/75
f 76/76/76 75/75/75 73/73/73
f 75/75/75 76/76/76 77/77/77
f 78/78/78 77/77/77 76/76/76
f 69/69/69 79/79/79 70/70/70
f 70/70/70 79/79/79 80/80/80
f 81/81/81 69/69/69 68/68/68
f 82/82/82 69/69/69 81/81/81
f 83/83/83 81/81/81 68/68/68
f 81/81/81 83/83/83 84/84/84
f 85/85/85 83/83/83 68/68/68
f 86/86/86 85/85/85 68/68/68
f 87/87/87 83/83/83 85/85/85
f 88/88/88 84/84/84 83/83/83
f 84/84/84 88/88/88 89/89/89
f 90/90/90 89/89/89 88/88/88
f 91/91/91 83/83/83 87/87/87
f 92/92/92 91/91/91 87/87/87
f 93/93/93 91/91/91 92/92/92
f 96/96/96 95/95/95 94/94/94
f 95/95/95 97/97/97 94/94/94
f 98/98/98 97/97/97 95/95/95
f 94/94/94 97/97/97 99/99/99
f 99/99/99 97/97/97 8/8/8
f 97/97/97 100/100/100 8/8/8
f 7/7/7 99/99/99 8/8/8
f 8/8/8 100/100/100 101/101/101
f 100/100/100 102/102/102 101/101/101
f 101/101/101 102/102/102 103/103/103
f 102/102/102 104/104/104 103/103/103
f 104/104/104 105/105/105 103/103/103
f 106/106/106 105/105/105 104/104/104
f 107/107/107 99/99/99 7/7/7
f 108/108/108 99/99/99 107/107/107
f 109/109/109 108/108/108 107/107/107
f 109/109/109 107/107/107 110/110/110
f 110/110/110 111/111/111 109/109/109
f 111/111/111 112/112/112 109/109/109
f 109/109/109 112/112/112 113/113/113
f 114/114/114 109/109/109 113/113/113
f 113/113/113 112/112/112 115/115/115
f 116/116/116 115/115/115 112/112/112
f 116/116/116 117/117/117 115/115/115
f 118/118/118 115/115/115 117/117/117
f 119/119/119 110/110/110 107/107/107
f 119/119/119 107/107/107 120/120/120
f 121/121/121 120/120/120 107/107/107
f 122/122/122 120/120/120 121/121/121
f 123/123/123 122/122/122 121/121/121
f 124/124/124 123/123/123 121/121/121
f 125/125/125 124/124/124 121/121/121
f 123/123/123 124/124/124 126/126/126
f 127/127/127 126/126/126 124/124/124
f 119/119/119 128/128/128 110/110/110
f 129/129/129 128/128/128 119/119/119
f 130/130/130 128/128/128 129/129/129
f 110/110/110 128/128/128 131/131/131
f 132/132/132 110/110/110 131/131/131
f 133/133/133 130/130/130 129/129/129
f 134/134/134 130/130/130 133/133/133
f 135/135/135 130/130/130 134/134/134
f 136/136/136 130/130/130 135/135/135
f 137/137/137 130/130/130 136/136/136
f 138/138/138 130/130/130 137/137/137
f 139/139/139 130/130/130 138/138/138
f 140/140/140 139/139/139 138/138/138
f 141/141/141 138/138/138 137/137/137
f 142/142/142 138/138/138 141/141/141
f 143/143/143 142/142/142 141/141/141
f 144/144/144 142/142/142 143/143/143
f 145/145/145 136/136/136 135/135/135
f 146/146/146 136/136/136 145/145/145
f 147/147/147 136/136/136 146/146/146
f 148/148/148 147/147/147 146/146/146
f 149/149/149 147/147/147 148/148/148
f 150/150/150 149/149/149 148/148/148
f 151/151/151 145/145/145 135/135/135
f 152/152/152 145/145/145 151/151/151
f 153/153/153 151/151/151 135/135/135
f 154/154/154 151/151/151 153/153/153
f 155/155/155 153/153/153 135/135/135
f 156/156/156 153/153/153 155/155/155
f 157/157/157 150/150/150 148/148/148
f 158/158/158 157/157/157 148/148/148
f 159/159/159 150/150/150 157/157/157
f 160/160/160 150/150/150 159/159/159
f 161/161/161 158/158/158 148/148/148
f 162/162/162 158/158/158 161/161/161
f 163/163/163 162/162/162 161/161/161
f 164/164/164 162/162/162 163/163/163
f 165/165/165 160/160/160 159/159/159
f 166/166/166 160/160/160 165/165/165
f 160/160/160 166/166/166 167/167/167
f 167/167/167 168/168/168 160/160/160
f 168/168/168 169/169/169 160/160/160
f 169/169/169 170/170/170 160/160/160
f 160/160/160 170/170/170 171/171/171
f 170/170/170 169/169/169 172/172/172
f 173/173/173 172/172/172 169/169/169
f 172/172/172 173/173/173 174/174/174
f 175/175/175 174/174/174 173/173/173
f 176/176/176 167/167/167 166/166/166
f 176/176/176 166/166/166 177/177/177
f 178/178/178 177/177/177 166/166/166
f 178/178/178 179/179/179 177/177/177
f 179/179/179 180/180/180 177/177/177
f 180/180/180 181/181/181 177/177/177
f 181/181/181 182/182/182 177/177/177
f 181/181/181 180/180/180 183/183/183
f 184/184/184 183/183/183 180/180/180
f 176/176/176 185/185/185 167/167/167
f 186/186/186 185/185/185 176/176/176
f 187/187/187 186/186/186 176/176/176
f 185/185/185 188/188/188 167/167/167
f 189/189/189 188/188/188 185/185/185
f 190/190/190 189/189/189 185/185/185
f 188/188/188 191/191/191 167/167/167
f 167/167/167 191/191/191 192/192/192
f 191/191/191 193/193/193 192/192/192
f 192/192/192 193/193/193 194/194/194
f 193/193/193 195/195/195 194/194/194
f 196/196/196 195/195/195 193/193/193
f 195/195/195 197/197/197 194/194/194
f 194/194/194 197/197/197 198/198/198
f 197/197/197 199/199/199 198/198/198
f 198/198/198 199/199/199 200/200/200
f 200/200/200 199/199/199 201/201/201
f 201/201/201 199/199/199 202/202/202
f 203/203/203 201/201/201 202/202/202
f 199/199/199 80/80/80 202/202/202
f 202/202/202 80/80/80 204/204/204
f 205/205/205 202/202/202 204/204/204
f 206/206/206 202/202/202 205/205/205
f 207/207/207 205/205/205 204/204/204
f 204/204/204 80/80/80 208/208/208
f 80/80/80 79/79/79 208/208/208
f 208/208/208 79/79/79 209/209/209
f 210/210/210 208/208/208 209/209/209
f 211/211/211 210/210/210 209/209/209
f 212/212/212 204/204/204 208/208/208
f 213/213/213 204/204/204 212/212/212
f 214/214/214 213/213/213 212/212/212
f 215/215/215 214/214/214 212/212/212
f 216/216/216 214/214/214 215/215/215
