g Laboratory_OBJ_Etc_01
v -0.20900467 0.2692102 0.020464938
v -0.21966246 0.27969116 0.0087716635
v -0.21770912 0.2692102 0.0053883838
v -0.21966246 0.27969116 0.0087716635
v -0.20900467 0.2692102 0.020464938
v -0.21291134 0.27969116 0.020464938
v -0.21770912 0.2692102 0.0053883838
v -0.23316468 0.27969116 0.008771666
v -0.23511802 0.2692102 0.005388385
v -0.23316468 0.27969116 0.008771666
v -0.21770912 0.2692102 0.0053883838
v -0.21966246 0.27969116 0.0087716635
v -0.1783638 -0.1951998 -0.040506795
v 0.23955458 -0.1951998 0.039525032
v 0.23955458 -0.1951998 -0.040506802
v -0.1783638 -0.1951998 0.039525032
v 0.23955475 0.19555068 -0.04050676
v -0.1783638 0.19555068 0.039525032
v -0.1783638 0.19555068 -0.040506758
v 0.23955475 0.19555068 0.039525032
v -0.2371392 0.05293579 0.03904227
v -0.2371392 0.05293579 0.0018876159
v -0.24786481 0.05293579 0.020464944
v -0.20496233 0.05293579 0.020464942
v -0.21568793 0.05293579 0.03904227
v -0.21568793 0.05293579 0.0018876123
v -0.20496233 0.05293579 0.020464942
v -0.21770912 0.2692102 0.0053883838
v -0.21568793 0.05293579 0.0018876123
v -0.20900467 0.2692102 0.020464938
v -0.21568793 0.05293579 0.03904227
v -0.21770912 0.2692102 0.03554149
v -0.2371392 0.05293579 0.03904227
v -0.23511802 0.2692102 0.03554149
v -0.24786481 0.05293579 0.020464944
v -0.24382247 0.2692102 0.02046494
v -0.2371392 0.05293579 0.0018876159
v -0.23511802 0.2692102 0.005388385
v -0.21568793 0.05293579 0.0018876123
v -0.21770912 0.2692102 0.0053883838
v -0.21962892 0.35857055 0.020464933
v -0.2298059 0.35857055 0.014589252
v -0.22302124 0.35857055 0.014589252
v -0.2298059 0.35857055 0.026340615
v -0.22302124 0.35857055 0.026340615
v -0.23319821 0.35857055 0.020464934
v -0.23511802 0.2692102 0.005388385
v -0.2399158 0.27969116 0.02046494
v -0.24382247 0.2692102 0.02046494
v -0.23316468 0.27969116 0.008771666
v -0.24382247 0.2692102 0.02046494
v -0.23316468 0.27969116 0.03215821
v -0.23511802 0.2692102 0.03554149
v -0.2399158 0.27969116 0.02046494
v -0.23511802 0.2692102 0.03554149
v -0.21966246 0.27969116 0.03215821
v -0.21770912 0.2692102 0.03554149
v -0.23316468 0.27969116 0.03215821
v -0.21770912 0.2692102 0.03554149
v -0.21291134 0.27969116 0.020464938
v -0.20900467 0.2692102 0.020464938
v -0.21966246 0.27969116 0.03215821
v -0.21291134 0.27969116 0.020464938
v -0.22302124 0.35857055 0.014589252
v -0.21966246 0.27969116 0.0087716635
v -0.21962892 0.35857055 0.020464933
v -0.21966246 0.27969116 0.0087716635
v -0.2298059 0.35857055 0.014589252
v -0.23316468 0.27969116 0.008771666
v -0.22302124 0.35857055 0.014589252
v -0.23316468 0.27969116 0.008771666
v -0.23319821 0.35857055 0.020464934
v -0.2399158 0.27969116 0.02046494
v -0.2298059 0.35857055 0.014589252
v -0.2399158 0.27969116 0.02046494
v -0.2298059 0.35857055 0.026340615
v -0.23316468 0.27969116 0.03215821
v -0.23319821 0.35857055 0.020464934
v -0.23316468 0.27969116 0.03215821
v -0.22302124 0.35857055 0.026340615
v -0.21966246 0.27969116 0.03215821
v -0.2298059 0.35857055 0.026340615
v -0.21966246 0.27969116 0.03215821
v -0.21962892 0.35857055 0.020464933
v -0.21291134 0.27969116 0.020464938
v -0.22302124 0.35857055 0.026340615
v -0.17439331 0.10960952 0.018143773
v -0.22185728 0.09429718 0.0053959605
v -0.17439331 0.09429718 0.00046255827
v -0.22185728 0.10533714 0.018143771
v -0.17439331 0.09429718 0.03582499
v -0.22185728 0.09429718 0.030891584
v -0.17439331 0.078984834 0.018143775
v -0.22185728 0.08325721 0.018143773
v -0.17439331 0.09429718 0.00046255827
v -0.22185728 0.09429718 0.0053959605
v 0.2803763 -0.106337205 -0.045652155
v 0.2270018 -0.10633712 0.04467041
v 0.2803763 -0.106337205 0.04467041
v 0.22895248 -0.09171551 -0.04565216
v 0.28037643 0.106688 0.04467041
v 0.22700195 0.10668816 -0.045652144
v 0.28037643 0.106688 -0.045652144
v 0.22700195 0.10668816 0.04467041
v 0.28779846 0.03567955 -0.04565215
v 0.28037643 0.106688 0.04467041
v 0.28037643 0.106688 -0.045652144
v 0.28779846 0.03567955 0.04467041
v 0.28779846 -0.03532875 -0.04565215
v 0.28779846 -0.03532875 0.04467041
v 0.2803763 -0.106337205 -0.045652155
v 0.2803763 -0.106337205 0.04467041
v 0.22895248 -0.09171551 -0.04565216
v 0.23558937 -0.035328675 0.044670418
v 0.2270018 -0.10633712 0.04467041
v 0.23558937 -0.035328675 -0.045652166
v 0.23558937 0.03567978 0.044670418
v 0.23558937 0.03567978 -0.045652155
v 0.22700195 0.10668816 0.04467041
v 0.22700195 0.10668816 -0.045652144
v 0.28037643 0.106688 0.04467041
v 0.23558937 0.03567978 0.044670418
v 0.22700195 0.10668816 0.04467041
v 0.28779846 0.03567955 0.04467041
v 0.23558937 -0.035328675 0.044670418
v 0.28779846 -0.03532875 0.04467041
v 0.2270018 -0.10633712 0.04467041
v 0.2803763 -0.106337205 0.04467041
v -0.1783638 -0.14825031 0.039525032
v 0.23955458 -0.1951998 0.039525032
v -0.1783638 -0.1951998 0.039525032
v 0.26512408 -0.14825031 0.039525032
v -0.1783638 -0.101300806 0.039525032
v 0.27642965 -0.101300806 0.039525032
v 0.27642968 0.10165161 0.039525032
v -0.1783638 0.10165161 0.039525032
v 0.26512417 0.14860114 0.039525032
v -0.1783638 0.14860114 0.039525032
v 0.23955475 0.19555068 0.039525032
v -0.1783638 0.19555068 0.039525032
v 0.23955458 -0.1951998 0.039525032
v 0.26512408 -0.14825031 -0.04050679
v 0.23955458 -0.1951998 -0.040506802
v 0.26512408 -0.14825031 0.039525032
v 0.27838033 -0.08770412 -0.04050678
v 0.27642965 -0.101300806 0.039525032
v 0.2740671 0.10165161 -0.040506773
v 0.27642968 0.10165161 0.039525032
v 0.26512417 0.14860114 -0.040506773
v 0.26512417 0.14860114 0.039525032
v 0.23955475 0.19555068 -0.04050676
v 0.23955475 0.19555068 0.039525032
v -0.1783638 0.19555068 0.039525032
v -0.1783638 0.14860114 -0.04050676
v -0.1783638 0.19555068 -0.040506758
v -0.1783638 0.14860114 0.039525032
v -0.1783638 0.10165161 -0.040506773
v -0.1783638 0.10165161 0.039525032
v -0.1783638 -0.101300806 -0.04050678
v -0.1783638 -0.101300806 0.039525032
v -0.1783638 -0.14825031 -0.04050679
v -0.1783638 -0.14825031 0.039525032
v -0.1783638 -0.1951998 -0.040506795
v -0.1783638 -0.1951998 0.039525032
v 0.26830474 0.13994376 0.011103415
v 0.2730661 0.11909767 -0.011103415
v 0.2730661 0.11909767 0.011103415
v 0.26830474 0.13994376 -0.011103415
v 0.24939239 0.18234847 0.011103415
v 0.25893646 0.16321373 -0.011103415
v 0.25893646 0.16321373 0.011103415
v 0.24939239 0.18234847 -0.011103415
v 0.28973693 0.03567955 -0.014064705
v 0.28426558 0.077957205 0.01308296
v 0.28426558 0.077957205 -0.014064705
v 0.28973693 0.03567955 0.01308296
v 0.28973693 -0.03532875 -0.014064705
v 0.28973693 -0.03532875 0.01308296
v 0.28426543 -0.09171556 -0.014064708
v 0.28426543 -0.09171556 0.01308296
v 0.26830503 -0.13759094 0.011103415
v 0.2730664 -0.11674484 -0.011103415
v 0.26830503 -0.13759094 -0.011103415
v 0.2730664 -0.11674484 0.011103415
v 0.24939269 -0.17999564 0.011103415
v 0.25893676 -0.16086082 -0.011103415
v 0.24939269 -0.17999564 -0.011103415
v 0.25893676 -0.16086082 0.011103415
vt 0.5722656 0.7207031
vt 0.5673828 0.71484375
vt 0.5649414 0.71972656
vt 0.5673828 0.71484375
vt 0.5722656 0.7207031
vt 0.5732422 0.7163086
vt 0.6064453 0.71972656
vt 0.59814453 0.7163086
vt 0.5991211 0.7207031
vt 0.59814453 0.7163086
vt 0.6064453 0.71972656
vt 0.6040039 0.71484375
vt 0.5371094 0.89746094
vt 0.52246094 0.9819336
vt 0.5371094 0.9819336
vt 0.52246094 0.89746094
vt 0.52246094 0.9819336
vt 0.5371094 0.89746094
vt 0.52246094 0.89746094
vt 0.5371094 0.9819336
vt 0.8300781 0.5644531
vt 0.8300781 0.62939453
vt 0.8491211 0.5966797
vt 0.7739258 0.5966797
vt 0.79248047 0.5644531
vt 0.79248047 0.62939453
vt 0.56689453 0.8129883
vt 0.5649414 0.71972656
vt 0.5576172 0.8125
vt 0.5722656 0.7207031
vt 0.5761719 0.81396484
vt 0.5786133 0.7211914
vt 0.5854492 0.81396484
vt 0.5854492 0.7216797
vt 0.59472656 0.81396484
vt 0.59228516 0.7216797
vt 0.6040039 0.81347656
vt 0.5991211 0.7207031
vt 0.61279297 0.8125
vt 0.6064453 0.71972656
vt 0.8022461 0.5957031
vt 0.8198242 0.5854492
vt 0.80810547 0.5854492
vt 0.8198242 0.60595703
vt 0.80810547 0.60595703
vt 0.8256836 0.5957031
vt 0.5991211 0.7207031
vt 0.5917969 0.7167969
vt 0.59228516 0.7216797
vt 0.59814453 0.7163086
vt 0.59228516 0.7216797
vt 0.5854492 0.71728516
vt 0.5854492 0.7216797
vt 0.5917969 0.7167969
vt 0.5854492 0.7216797
vt 0.57910156 0.7167969
vt 0.5786133 0.7211914
vt 0.5854492 0.71728516
vt 0.5786133 0.7211914
vt 0.5732422 0.7163086
vt 0.5722656 0.7207031
vt 0.57910156 0.7167969
vt 0.5732422 0.7163086
vt 0.57666016 0.6821289
vt 0.5673828 0.71484375
vt 0.57958984 0.68310547
vt 0.6040039 0.71484375
vt 0.5917969 0.68310547
vt 0.59814453 0.7163086
vt 0.59472656 0.6821289
vt 0.59814453 0.7163086
vt 0.5888672 0.68310547
vt 0.5917969 0.7167969
vt 0.5917969 0.68310547
vt 0.5917969 0.7167969
vt 0.5859375 0.68310547
vt 0.5854492 0.71728516
vt 0.5888672 0.68310547
vt 0.5854492 0.71728516
vt 0.58251953 0.68310547
vt 0.57910156 0.7167969
vt 0.5859375 0.68310547
vt 0.57910156 0.7167969
vt 0.57958984 0.68310547
vt 0.5732422 0.7163086
vt 0.58251953 0.68310547
vt 0.79248047 0.85253906
vt 0.7832031 0.80810547
vt 0.77197266 0.8491211
vt 0.79785156 0.8105469
vt 0.81347656 0.8540039
vt 0.8125 0.81152344
vt 0.8339844 0.8520508
vt 0.8276367 0.8100586
vt 0.8544922 0.84765625
vt 0.84228516 0.8071289
vt 0.86035156 0.35668945
vt 0.8881836 0.31201172
vt 0.86035156 0.31201172
vt 0.8881836 0.35668945
vt 0.86035156 0.35668945
vt 0.8881836 0.31201172
vt 0.86035156 0.31201172
vt 0.8881836 0.35668945
vt 0.83691406 0.3112793
vt 0.8588867 0.33935547
vt 0.8588867 0.3112793
vt 0.83691406 0.33935547
vt 0.8149414 0.3112793
vt 0.8149414 0.33935547
vt 0.79296875 0.3112793
vt 0.79296875 0.33935547
vt 0.85839844 0.30810547
vt 0.8208008 0.35546875
vt 0.85839844 0.35546875
vt 0.8208008 0.30810547
vt 0.7832031 0.35546875
vt 0.7832031 0.30810547
vt 0.74609375 0.35546875
vt 0.74609375 0.30810547
vt 0.8588867 0.33935547
vt 0.83691406 0.3540039
vt 0.8588867 0.35668945
vt 0.83691406 0.33935547
vt 0.8149414 0.3540039
vt 0.8149414 0.33935547
vt 0.79296875 0.35668945
vt 0.79296875 0.33935547
vt 0.45166016 0.98339844
vt 0.44311523 0.8852539
vt 0.44262695 0.98339844
vt 0.45214844 0.88183594
vt 0.46044922 0.9838867
vt 0.4609375 0.87841797
vt 0.49926758 0.87890625
vt 0.4987793 0.9838867
vt 0.5083008 0.8823242
vt 0.5078125 0.9838867
vt 0.51708984 0.8857422
vt 0.51660156 0.9838867
vt 0.5517578 0.62597656
vt 0.5629883 0.6118164
vt 0.5517578 0.6118164
vt 0.5629883 0.62597656
vt 0.57421875 0.6118164
vt 0.57421875 0.62597656
vt 0.5966797 0.6118164
vt 0.5966797 0.62597656
vt 0.60791016 0.6118164
vt 0.60791016 0.62597656
vt 0.6191406 0.6118164
vt 0.6191406 0.62597656
vt 0.24243164 0.5209961
vt 0.25512695 0.53125
vt 0.25512695 0.5209961
vt 0.24243164 0.53125
vt 0.25512695 0.5410156
vt 0.24243164 0.5410156
vt 0.25512695 0.56103516
vt 0.24243164 0.56103516
vt 0.25512695 0.57128906
vt 0.24243164 0.57128906
vt 0.25512695 0.5810547
vt 0.24243164 0.5810547
vt 0.1697998 0.46435547
vt 0.18701172 0.4465332
vt 0.18701172 0.46435547
vt 0.1697998 0.4465332
vt 0.34570312 0.4638672
vt 0.36279297 0.44604492
vt 0.36279297 0.4638672
vt 0.34570312 0.44604492
vt 0.1784668 0.45239258
vt 0.19909668 0.46020508
vt 0.19909668 0.45239258
vt 0.1784668 0.46020508
vt 0.15795898 0.45239258
vt 0.15795898 0.46020508
vt 0.13745117 0.45239258
vt 0.13745117 0.46020508
vt 0.1697998 0.46435547
vt 0.18701172 0.4465332
vt 0.1697998 0.4465332
vt 0.18701172 0.46435547
vt 0.1697998 0.46435547
vt 0.18701172 0.4465332
vt 0.1697998 0.4465332
vt 0.18701172 0.46435547
vn 0.82421875 0.3071289 -0.47583008
vn 0.82421875 0.3071289 -0.47583008
vn 0.82421875 0.3071289 -0.47583008
vn 0.82421875 0.3071289 -0.47583008
vn 0.82421875 0.3071289 -0.47583008
vn 0.82421875 0.3071289 -0.47583008
vn -0 0.3071289 -0.95166016
vn -0 0.3071289 -0.95166016
vn -0 0.3071289 -0.95166016
vn -1.7881393E-07 0.3071289 -0.95166016
vn -1.7881393E-07 0.3071289 -0.95166016
vn -1.7881393E-07 0.3071289 -0.95166016
vn -0 -1 0
vn -0 -1 0
vn -0 -1 0
vn -0 -1 0
vn -0 1 0
vn -0 1 0
vn -0 1 0
vn -0 1 0
vn -0 -1 0
vn -0 -1 0
vn -0 -1 0
vn -0 -1 0
vn -0 -1 0
vn -0 -1 0
vn 1 0.018692017 1.1920929E-07
vn 0.5 0.018692017 -0.86572266
vn 0.5 0.018692017 -0.86572266
vn 1 0.018692017 -1.7881393E-07
vn 0.5 0.018692017 0.86572266
vn 0.5 0.018692017 0.86572266
vn -0.5 0.018692017 0.86572266
vn -0.5 0.018692017 0.86572266
vn -1 0.018692017 0
vn -1 0.018692017 1.7881393E-07
vn -0.5 0.018692017 -0.86572266
vn -0.5 0.018692017 -0.86572266
vn 0.5 0.018692017 -0.86572266
vn 0.5 0.018692017 -0.86572266
vn -0 1 0
vn -0 1 0
vn -0 1 0
vn -0 1 0
vn -0 1 0
vn -0 1 0
vn -0.82421875 0.3071289 -0.47583008
vn -0.82421875 0.3071289 -0.47583008
vn -0.82421875 0.3071289 -0.47583008
vn -0.82421875 0.3071289 -0.47583008
vn -0.82421875 0.3071289 0.47583008
vn -0.82421875 0.3071289 0.47583008
vn -0.82421875 0.3071289 0.47583008
vn -0.82421875 0.3071289 0.47583008
vn -0 0.3071289 0.95166016
vn -0 0.3071289 0.95166016
vn -0 0.3071289 0.95166016
vn -0 0.3071289 0.95166016
vn 0.82421875 0.3071289 0.47583008
vn 0.82421875 0.3071289 0.47583008
vn 0.82421875 0.3071289 0.47583008
vn 0.82421875 0.3071289 0.47583008
vn 0.86376953 0.07354736 -0.49853516
vn 0.86376953 0.07354736 -0.49853516
vn 0.86376953 0.07354736 -0.49853516
vn 0.86376953 0.07354736 -0.49853516
vn -1.7881393E-07 0.07354736 -0.9970703
vn -1.7881393E-07 0.07354736 -0.9970703
vn -1.7881393E-07 0.07354736 -0.9970703
vn -0 0.07354736 -0.9970703
vn -0.86376953 0.07354736 -0.49853516
vn -0.86376953 0.07354736 -0.49853516
vn -0.86376953 0.07354736 -0.49853516
vn -0.86376953 0.07354736 -0.49853516
vn -0.86376953 0.07354736 0.49853516
vn -0.86376953 0.07354736 0.49853516
vn -0.86376953 0.07354736 0.49853516
vn -0.86376953 0.07354736 0.49853516
vn -0 0.07354736 0.9970703
vn -0 0.07354736 0.9970703
vn -0 0.07354736 0.9970703
vn -0 0.07354736 0.9970703
vn 0.86376953 0.07354736 0.49853516
vn 0.86376953 0.07354736 0.49853516
vn 0.86376953 0.07354736 0.49853516
vn 0.86376953 0.07354736 0.49853516
vn -0.089660645 0.99609375 -2.3841858E-07
vn -0.103393555 3.5762787E-07 -0.9946289
vn -0.103393555 2.3841858E-07 -0.9946289
vn -0.089660645 0.99609375 -5.364418E-07
vn -0.103393555 -2.9802322E-07 0.9946289
vn -0.103393555 -3.5762787E-07 0.9946289
vn -0.089660645 -0.99609375 2.3841858E-07
vn -0.089660645 -0.99609375 4.7683716E-07
vn -0.103393555 2.3841858E-07 -0.9946289
vn -0.103393555 3.5762787E-07 -0.9946289
vn -0.18164062 -0.97753906 -0.107299805
vn -0.09289551 -0.9941406 -0.054901123
vn -1.4305115E-06 -1 0
vn -0.27001953 -0.94970703 -0.1595459
vn 2.861023E-06 1 0
vn 2.861023E-06 1 0
vn 2.861023E-06 1 0
vn 2.861023E-06 1 0
vn 0.99853516 0.05206299 0
vn 0.9946289 0.10394287 0
vn 0.9946289 0.10394287 0
vn 0.99853516 0.05206299 0
vn 0.99853516 -0.05206299 0
vn 0.99853516 -0.05206299 0
vn 0.9946289 -0.10394287 0
vn 0.9946289 -0.10394287 0
vn -0.99316406 0.1182251 -0.0008363724
vn -0.9980469 0.059570312 -0.0006451607
vn -0.9926758 0.12005615 -0.0020046234
vn -0.9980469 0.058563232 0
vn -0.9980469 -0.060150146 0
vn -0.9980469 -0.060150146 0
vn -0.9926758 -0.12005615 0
vn -0.9926758 -0.12005615 0
vn -0 0 1
vn 1.1920929E-07 0 1
vn -0 1.1920929E-07 1
vn 1.7881393E-07 0 1
vn 1.7881393E-07 0 1
vn 1.1920929E-07 0 1
vn -0 0 1
vn -0 0 1
vn -0 0 1
vn -0 0 1
vn -0 0 1
vn -0 0 1
vn -0 0 1
vn -0 0 1
vn -0 0 1
vn -0 0 1
vn -0 0 1
vn -0 0 1
vn -0 0 1
vn -0 0 1
vn 0.87841797 -0.47827148 0
vn 0.9370117 -0.34960938 0
vn 0.87841797 -0.47827148 0
vn 0.9345703 -0.3552246 -0.004711151
vn 0.99609375 -0.08666992 0.013221741
vn 0.9921875 -0.123168945 -0.003227234
vn 0.9951172 0.09680176 -0.022445679
vn 0.99365234 0.109436035 -0.019866943
vn 0.93847656 0.34448242 -0.009590149
vn 0.93310547 0.359375 0
vn 0.87841797 0.47827148 0
vn 0.87841797 0.47827148 0
vn -1 0 0
vn -1 0 0
vn -1 0 0
vn -1 0 0
vn -1 0 0
vn -1 0 0
vn -1 0 0
vn -1 0 0
vn -1 0 0
vn -1 0 0
vn -1 0 0
vn -1 0 0
vn 0.97509766 0.22265625 0
vn 0.97509766 0.22265625 0
vn 0.97509766 0.22265625 0
vn 0.97509766 0.22265625 0
vn 0.89501953 0.44628906 0
vn 0.89501953 0.44628906 0
vn 0.89501953 0.44628906 0
vn 0.89501953 0.44628906 0
vn 0.9980469 0.064331055 0
vn 0.9916992 0.1282959 0
vn 0.9916992 0.1282959 0
vn 0.9980469 0.064331055 0
vn 0.99902344 -0.048339844 0
vn 0.99902344 -0.048339844 0
vn 0.9951172 -0.09655762 0
vn 0.9951172 -0.09655762 0
vn 0.97509766 -0.22265625 0
vn 0.97509766 -0.22265625 0
vn 0.97509766 -0.22265625 0
vn 0.97509766 -0.22265625 0
vn 0.89501953 -0.44628906 0
vn 0.89501953 -0.44628906 0
vn 0.89501953 -0.44628906 0
vn 0.89501953 -0.44628906 0
g Laboratory_OBJ_Etc_01_0
f 3/3/3 2/2/2 1/1/1
f 6/6/6 5/5/5 4/4/4
f 9/9/9 8/8/8 7/7/7
f 12/12/12 11/11/11 10/10/10
f 15/15/15 14/14/14 13/13/13
f 16/16/16 13/13/13 14/14/14
f 19/19/19 18/18/18 17/17/17
f 20/20/20 17/17/17 18/18/18
f 23/23/23 22/22/22 21/21/21
f 22/22/22 24/24/24 21/21/21
f 21/21/21 24/24/24 25/25/25
f 26/26/26 24/24/24 22/22/22
f 29/29/29 28/28/28 27/27/27
f 30/30/30 27/27/27 28/28/28
f 27/27/27 30/30/30 31/31/31
f 32/32/32 31/31/31 30/30/30
f 31/31/31 32/32/32 33/33/33
f 34/34/34 33/33/33 32/32/32
f 33/33/33 34/34/34 35/35/35
f 36/36/36 35/35/35 34/34/34
f 35/35/35 36/36/36 37/37/37
f 38/38/38 37/37/37 36/36/36
f 37/37/37 38/38/38 39/39/39
f 40/40/40 39/39/39 38/38/38
f 43/43/43 42/42/42 41/41/41
f 42/42/42 44/44/44 41/41/41
f 41/41/41 44/44/44 45/45/45
f 46/46/46 44/44/44 42/42/42
f 49/49/49 48/48/48 47/47/47
f 50/50/50 47/47/47 48/48/48
f 53/53/53 52/52/52 51/51/51
f 54/54/54 51/51/51 52/52/52
f 57/57/57 56/56/56 55/55/55
f 58/58/58 55/55/55 56/56/56
f 61/61/61 60/60/60 59/59/59
f 62/62/62 59/59/59 60/60/60
f 65/65/65 64/64/64 63/63/63
f 66/66/66 63/63/63 64/64/64
f 69/69/69 68/68/68 67/67/67
f 70/70/70 67/67/67 68/68/68
f 73/73/73 72/72/72 71/71/71
f 74/74/74 71/71/71 72/72/72
f 77/77/77 76/76/76 75/75/75
f 78/78/78 75/75/75 76/76/76
f 81/81/81 80/80/80 79/79/79
f 82/82/82 79/79/79 80/80/80
f 85/85/85 84/84/84 83/83/83
f 86/86/86 83/83/83 84/84/84
f 89/89/89 88/88/88 87/87/87
f 90/90/90 87/87/87 88/88/88
f 87/87/87 90/90/90 91/91/91
f 92/92/92 91/91/91 90/90/90
f 91/91/91 92/92/92 93/93/93
f 94/94/94 93/93/93 92/92/92
f 93/93/93 94/94/94 95/95/95
f 96/96/96 95/95/95 94/94/94
f 99/99/99 98/98/98 97/97/97
f 100/100/100 97/97/97 98/98/98
f 103/103/103 102/102/102 101/101/101
f 104/104/104 101/101/101 102/102/102
f 107/107/107 106/106/106 105/105/105
f 108/108/108 105/105/105 106/106/106
f 105/105/105 108/108/108 109/109/109
f 110/110/110 109/109/109 108/108/108
f 109/109/109 110/110/110 111/111/111
f 112/112/112 111/111/111 110/110/110
f 115/115/115 114/114/114 113/113/113
f 116/116/116 113/113/113 114/114/114
f 114/114/114 117/117/117 116/116/116
f 118/118/118 116/116/116 117/117/117
f 117/117/117 119/119/119 118/118/118
f 120/120/120 118/118/118 119/119/119
f 123/123/123 122/122/122 121/121/121
f 124/124/124 121/121/121 122/122/122
f 122/122/122 125/125/125 124/124/124
f 126/126/126 124/124/124 125/125/125
f 125/125/125 127/127/127 126/126/126
f 128/128/128 126/126/126 127/127/127
f 131/131/131 130/130/130 129/129/129
f 132/132/132 129/129/129 130/130/130
f 129/129/129 132/132/132 133/133/133
f 134/134/134 133/133/133 132/132/132
f 134/134/134 135/135/135 133/133/133
f 136/136/136 133/133/133 135/135/135
f 135/135/135 137/137/137 136/136/136
f 138/138/138 136/136/136 137/137/137
f 137/137/137 139/139/139 138/138/138
f 140/140/140 138/138/138 139/139/139
f 143/143/143 142/142/142 141/141/141
f 144/144/144 141/141/141 142/142/142
f 142/142/142 145/145/145 144/144/144
f 146/146/146 144/144/144 145/145/145
f 145/145/145 147/147/147 146/146/146
f 148/148/148 146/146/146 147/147/147
f 147/147/147 149/149/149 148/148/148
f 150/150/150 148/148/148 149/149/149
f 149/149/149 151/151/151 150/150/150
f 152/152/152 150/150/150 151/151/151
f 155/155/155 154/154/154 153/153/153
f 156/156/156 153/153/153 154/154/154
f 154/154/154 157/157/157 156/156/156
f 158/158/158 156/156/156 157/157/157
f 157/157/157 159/159/159 158/158/158
f 160/160/160 158/158/158 159/159/159
f 159/159/159 161/161/161 160/160/160
f 162/162/162 160/160/160 161/161/161
f 161/161/161 163/163/163 162/162/162
f 164/164/164 162/162/162 163/163/163
f 167/167/167 166/166/166 165/165/165
f 168/168/168 165/165/165 166/166/166
f 171/171/171 170/170/170 169/169/169
f 172/172/172 169/169/169 170/170/170
f 175/175/175 174/174/174 173/173/173
f 176/176/176 173/173/173 174/174/174
f 173/173/173 176/176/176 177/177/177
f 178/178/178 177/177/177 176/176/176
f 177/177/177 178/178/178 179/179/179
f 180/180/180 179/179/179 178/178/178
f 183/183/183 182/182/182 181/181/181
f 184/184/184 181/181/181 182/182/182
f 187/187/187 186/186/186 185/185/185
f 188/188/188 185/185/185 186/186/186
