g Laboratory_STR_OutDoor_ON_Signal
v 1.9834789 0.07245064 0.03163696
v 1.9740063 0.068091735 -0.019065551
v 1.976416 0.07275009 0.006507416
v 1.9947168 0.067213744 0.054610517
v 1.976416 0.058793027 -0.043339234
v 2.0093603 0.057396468 0.073862456
v 1.9970825 0.05073669 0.004538345
v 1.9954028 0.047487944 -0.013296508
v 2.0020092 0.050527878 0.022064056
v 2.0098462 0.046875685 0.038086012
v 1.9834789 0.04548767 -0.064659424
v 1.9970825 0.041002885 -0.03022522
v 2.0020092 0.031723555 -0.045094147
v 1.9947168 0.029082412 -0.08157318
v 2.0098462 0.020282364 -0.05689003
v 2.026416 0.043667603 0.08808075
v 2.0200586 0.040028915 0.051512524
v 2.031953 0.030454254 0.061428603
v 2.0447168 0.026962966 0.096296534
v 2.0447168 0.018804245 0.06715836
v 2.0093603 0.01069519 -0.09292785
v 2.0200586 0.0074588773 -0.06480888
v 2.031953 -0.0058728787 -0.068311155
v 2.026416 -0.008420868 -0.0979496
v 2.0447168 -0.018804397 -0.06715805
v 2.0630176 0.008420639 0.0979499
v 2.0574803 0.00587265 0.068311386
v 2.069375 -0.0074591064 0.06480919
v 2.0800707 -0.010695419 0.09292808
v 2.0795875 -0.020282516 0.056890335
v 2.0447168 -0.026963118 -0.09629631
v 2.0574803 -0.030454483 -0.061428223
v 2.069375 -0.040029068 -0.051512223
v 2.0947168 -0.029082565 0.08157349
v 2.0874243 -0.031723786 0.045094527
v 2.092351 -0.041003037 0.030225525
v 2.0630176 -0.04366783 -0.08808052
v 2.0795875 -0.04687584 -0.038085707
v 2.0874243 -0.050528105 -0.022063674
v 2.1059546 -0.0454879 0.064659804
v 2.0800707 -0.05739662 -0.073862076
v 2.0940306 -0.04748817 0.013296814
v 2.092351 -0.050736845 -0.0045381165
v 2.1130176 -0.058793258 0.04333954
v 2.0947168 -0.067213975 -0.054610137
v 2.1154273 -0.068091884 0.019065857
v 2.1059546 -0.07245087 -0.031636655
v 2.1130176 -0.07275024 -0.0065071103
v -2.1154249 -0.068091884 0.019065857
v -2.105952 -0.07245087 -0.031636655
v -2.1130152 -0.07275024 -0.0065071103
v -2.0947144 -0.067213975 -0.054610137
v -2.1130152 -0.058793258 0.04333954
v -2.0800695 -0.05739662 -0.073862076
v -2.105952 -0.0454879 0.064659804
v -2.0923486 -0.050736845 -0.0045381165
v -2.0940282 -0.04748817 0.013296814
v -2.087422 -0.050528105 -0.022063674
v -2.0923486 -0.041003037 0.030225525
v -2.063015 -0.04366783 -0.08808052
v -2.0795848 -0.04687584 -0.038085707
v -2.0693712 -0.040029068 -0.051512223
v -2.0947144 -0.029082565 0.08157349
v -2.087422 -0.031723786 0.045094527
v -2.0795848 -0.020282516 0.056890335
v -2.0800695 -0.010695419 0.09292808
v -2.0693712 -0.0074591064 0.06480919
v -2.0447142 -0.026963118 -0.09629631
v -2.057478 -0.030454483 -0.061428223
v -2.0447142 -0.018804397 -0.06715805
v -2.0264122 -0.008420868 -0.0979496
v -2.0319507 -0.0058728787 -0.068311155
v -2.063015 0.008420639 0.0979499
v -2.057478 0.00587265 0.068311386
v -2.0447142 0.018804245 0.06715836
v -2.0447142 0.026962966 0.096296534
v -2.0319507 0.030454254 0.061428603
v -2.0093591 0.01069519 -0.09292785
v -2.020056 0.0074588773 -0.06480888
v -2.0098436 0.020282364 -0.05689003
v -1.9947143 0.029082412 -0.08157318
v -2.0020068 0.031723555 -0.045094147
v -2.0264122 0.043667603 0.08808075
v -2.020056 0.040028915 0.051512524
v -2.0098436 0.046875685 0.038086012
v -1.9834777 0.04548767 -0.064659424
v -1.9970801 0.041002885 -0.03022522
v -1.9953991 0.047487944 -0.013296508
v -2.0093591 0.057396468 0.073862456
v -1.9764123 0.058793027 -0.043339234
v -2.0020068 0.050527878 0.022064056
v -1.9970801 0.05073669 0.004538345
v -1.9947143 0.067213744 0.054610517
v -1.9740039 0.068091735 -0.019065551
v -1.9834777 0.07245064 0.03163696
v -1.9764123 0.07275009 0.006507416
v 1.2597116 1.0152307 2.4085965
v 1.2769967 1.0661377 2.3761203
v 1.2597116 1.0752307 2.4085965
v 1.2769967 1.0061377 2.3761203
v 1.2307687 1.0814086 2.4306588
v 1.2004293 1.0232581 2.4372652
v 1.2307687 1.0214087 2.4306588
v 1.2004293 1.083258 2.4372652
v 1.2597116 1.0752307 2.4085965
v 1.2307687 1.0214087 2.4306588
v 1.2597116 1.0152307 2.4085965
v 1.2307687 1.0814086 2.4306588
v 1.2769967 1.0061377 2.3761203
v 1.6744186 0.66871583 0.95675564
v 1.2769967 1.0661377 2.3761203
v 1.6744186 0.60871583 0.95675564
v 1.6744186 0.60871583 0.95675564
v 1.6744186 0.07588135 -1.1605117
v 1.6744186 0.66871583 0.95675564
v 1.6744186 0.015881347 -1.1605117
v -1.2695352 1.0661377 2.3761203
v -1.2522501 1.0152307 2.4085965
v -1.2522501 1.0752307 2.4085965
v -1.2695352 1.0061377 2.3761203
v -1.1929691 1.083258 2.4372652
v -1.2233083 1.0214087 2.4306588
v -1.1929691 1.0232581 2.4372652
v -1.2233083 1.0814086 2.4306588
v -1.2233083 1.0814086 2.4306588
v -1.2522501 1.0152307 2.4085965
v -1.2233083 1.0214087 2.4306588
v -1.2522501 1.0752307 2.4085965
v -1.666957 0.66871583 0.95675564
v -1.2695352 1.0061377 2.3761203
v -1.2695352 1.0661377 2.3761203
v -1.666957 0.60871583 0.95675564
v 1.2004293 1.083258 2.4372652
v -1.1929691 1.0232581 2.4372652
v 1.2004293 1.0232581 2.4372652
v -1.1929691 1.083258 2.4372652
v -1.666957 0.07588135 -1.1605117
v -1.666957 0.60871583 0.95675564
v -1.666957 0.66871583 0.95675564
v -1.666957 0.015881347 -1.1605117
vt 0 0
vt 0 0
vt 0 0
vt 0 0
vt 0 0
vt 0 0
vt 0 0
vt 0 0
vt 0 0
vt 0 0
vt 0 0
vt 0 0
vt 0 0
vt 0 0
vt 0 0
vt 0 0
vt 0 0
vt 0 0
vt 0 0
vt 0 0
vt 0 0
vt 0 0
vt 0 0
vt 0 0
vt 0 0
vt 0 0
vt 0 0
vt 0 0
vt 0 0
vt 0 0
vt 0 0
vt 0 0
vt 0 0
vt 0 0
vt 0 0
vt 0 0
vt 0 0
vt 0 0
vt 0 0
vt 0 0
vt 0 0
vt 0 0
vt 0 0
vt 0 0
vt 0 0
vt 0 0
vt 0 0
vt 0 0
vt 0 0
vt 0 0
vt 0 0
vt 0 0
vt 0 0
vt 0 0
vt 0 0
vt 0 0
vt 0 0
vt 0 0
vt 0 0
vt 0 0
vt 0 0
vt 0 0
vt 0 0
vt 0 0
vt 0 0
vt 0 0
vt 0 0
vt 0 0
vt 0 0
vt 0 0
vt 0 0
vt 0 0
vt 0 0
vt 0 0
vt 0 0
vt 0 0
vt 0 0
vt 0 0
vt 0 0
vt 0 0
vt 0 0
vt 0 0
vt 0 0
vt 0 0
vt 0 0
vt 0 0
vt 0 0
vt 0 0
vt 0 0
vt 0 0
vt 0 0
vt 0 0
vt 0 0
vt 0 0
vt 0 0
vt 0 0
vt 0 0
vt 0 0
vt 0 0
vt 0 0
vt 0 0
vt 0 0
vt 0 0
vt 0 0
vt 0 0
vt 0 0
vt 0 0
vt 0 0
vt 0 0
vt 0 0
vt 0 0
vt 0 0
vt 0 0
vt 0 0
vt 0 0
vt 0 0
vt 0 0
vt 0 0
vt 0 0
vt 0 0
vt 0 0
vt 0 0
vt 0 0
vt 0 0
vt 0 0
vt 0 0
vt 0 0
vt 0 0
vt 0 0
vt 0 0
vt 0 0
vt 0 0
vt 0 0
vt 0 0
vt 0 0
vt 0 0
vt 0 0
vt 0 0
vt 0 0
vt 0 0
vn -0.70751953 -0.6801758 0.19067383
vn -0.70751953 -0.6801758 0.19067383
vn -0.70751953 -0.6801758 0.19067383
vn -0.70751953 -0.6801758 0.19067383
vn -0.70751953 -0.6801758 0.19067383
vn -0.70751953 -0.6801758 0.19067383
vn -0.70751953 -0.6801758 0.19067383
vn -0.70751953 -0.6801758 0.19067383
vn -0.70751953 -0.6801758 0.19067383
vn -0.70751953 -0.6801758 0.19067383
vn -0.70751953 -0.6801758 0.19067383
vn -0.70751953 -0.6801758 0.19067383
vn -0.70751953 -0.6801758 0.19067383
vn -0.70751953 -0.6801758 0.19067383
vn -0.70751953 -0.6801758 0.19067383
vn -0.70751953 -0.6801758 0.19067383
vn -0.70751953 -0.6801758 0.19067383
vn -0.70751953 -0.6801758 0.19067383
vn -0.70751953 -0.6801758 0.19067383
vn -0.70751953 -0.6801758 0.19067383
vn -0.70751953 -0.6801758 0.19067383
vn -0.70751953 -0.6801758 0.19067383
vn -0.70751953 -0.6801758 0.19067383
vn -0.70751953 -0.6801758 0.19067383
vn -0.70751953 -0.6801758 0.19067383
vn -0.70751953 -0.6801758 0.19067383
vn -0.70751953 -0.6801758 0.19067383
vn -0.70751953 -0.6801758 0.19067383
vn -0.70751953 -0.6801758 0.19067383
vn -0.70751953 -0.6801758 0.19067383
vn -0.70751953 -0.6801758 0.19067383
vn -0.70751953 -0.6801758 0.19067383
vn -0.70751953 -0.6801758 0.19067383
vn -0.70751953 -0.6801758 0.19067383
vn -0.70751953 -0.6801758 0.19067383
vn -0.70751953 -0.6801758 0.19067383
vn -0.70751953 -0.6801758 0.19067383
vn -0.70751953 -0.6801758 0.19067383
vn -0.70751953 -0.6801758 0.19067383
vn -0.70751953 -0.6801758 0.19067383
vn -0.70751953 -0.6801758 0.19067383
vn -0.70751953 -0.6801758 0.19067383
vn -0.70751953 -0.6801758 0.19067383
vn -0.70751953 -0.6801758 0.19067383
vn -0.70751953 -0.6801758 0.19067383
vn -0.70751953 -0.6801758 0.19067383
vn -0.70751953 -0.6801758 0.19067383
vn -0.70751953 -0.6801758 0.19067383
vn 0.70751953 -0.6801758 0.19067383
vn 0.70751953 -0.6801758 0.19067383
vn 0.70751953 -0.6801758 0.19067383
vn 0.70751953 -0.6801758 0.19067383
vn 0.70751953 -0.6801758 0.19067383
vn 0.70751953 -0.6801758 0.19067383
vn 0.70751953 -0.6801758 0.19067383
vn 0.70751953 -0.6801758 0.19067383
vn 0.70751953 -0.6801758 0.19067383
vn 0.70751953 -0.6801758 0.19067383
vn 0.70751953 -0.6801758 0.19067383
vn 0.70751953 -0.6801758 0.19067383
vn 0.70751953 -0.6801758 0.19067383
vn 0.70751953 -0.6801758 0.19067383
vn 0.70751953 -0.6801758 0.19067383
vn 0.70751953 -0.6801758 0.19067383
vn 0.70751953 -0.6801758 0.19067383
vn 0.70751953 -0.6801758 0.19067383
vn 0.70751953 -0.6801758 0.19067383
vn 0.70751953 -0.6801758 0.19067383
vn 0.70751953 -0.6801758 0.19067383
vn 0.70751953 -0.6801758 0.19067383
vn 0.70751953 -0.6801758 0.19067383
vn 0.70751953 -0.6801758 0.19067383
vn 0.70751953 -0.6801758 0.19067383
vn 0.70751953 -0.6801758 0.19067383
vn 0.70751953 -0.6801758 0.19067383
vn 0.70751953 -0.6801758 0.19067383
vn 0.70751953 -0.6801758 0.19067383
vn 0.70751953 -0.6801758 0.19067383
vn 0.70751953 -0.6801758 0.19067383
vn 0.70751953 -0.6801758 0.19067383
vn 0.70751953 -0.6801758 0.19067383
vn 0.70751953 -0.6801758 0.19067383
vn 0.70751953 -0.6801758 0.19067383
vn 0.70751953 -0.6801758 0.19067383
vn 0.70751953 -0.6801758 0.19067383
vn 0.70751953 -0.6801758 0.19067383
vn 0.70751953 -0.6801758 0.19067383
vn 0.70751953 -0.6801758 0.19067383
vn 0.70751953 -0.6801758 0.19067383
vn 0.70751953 -0.6801758 0.19067383
vn 0.70751953 -0.6801758 0.19067383
vn 0.70751953 -0.6801758 0.19067383
vn 0.70751953 -0.6801758 0.19067383
vn 0.70751953 -0.6801758 0.19067383
vn 0.70751953 -0.6801758 0.19067383
vn 0.70751953 -0.6801758 0.19067383
vn -0.8828125 0 -0.46972656
vn -0.8828125 0 -0.46972656
vn -0.8828125 0 -0.46972656
vn -0.8828125 0 -0.46972656
vn -0.21276855 0 -0.9770508
vn -0.21276855 0 -0.9770508
vn -0.21276855 0 -0.9770508
vn -0.21276855 0 -0.9770508
vn -0.6064453 0 -0.79541016
vn -0.6064453 0 -0.79541016
vn -0.6064453 0 -0.79541016
vn -0.6064453 0 -0.79541016
vn -0.9628906 0 -0.26953125
vn -0.9628906 0 -0.26953125
vn -0.9628906 0 -0.26953125
vn -0.9628906 0 -0.26953125
vn -1 0 0
vn -1 0 0
vn -1 0 0
vn -1 0 0
vn 0.8828125 0 -0.46972656
vn 0.8828125 0 -0.46972656
vn 0.8828125 0 -0.46972656
vn 0.8828125 0 -0.46972656
vn 0.21276855 0 -0.9770508
vn 0.21276855 0 -0.9770508
vn 0.21276855 0 -0.9770508
vn 0.21276855 0 -0.9770508
vn 0.6064453 0 -0.79541016
vn 0.6064453 0 -0.79541016
vn 0.6064453 0 -0.79541016
vn 0.6064453 0 -0.79541016
vn 0.9628906 0 -0.26953125
vn 0.9628906 0 -0.26953125
vn 0.9628906 0 -0.26953125
vn 0.9628906 0 -0.26953125
vn -0 0 -1
vn -0 0 -1
vn -0 0 -1
vn -0 0 -1
vn 1 0 0
vn 1 0 0
vn 1 0 0
vn 1 0 0
g Laboratory_STR_OutDoor_ON_Signal_0
f 3/3/3 2/2/2 1/1/1
f 2/2/2 4/4/4 1/1/1
f 5/5/5 4/4/4 2/2/2
f 6/6/6 4/4/4 5/5/5
f 7/7/7 6/6/6 5/5/5
f 8/8/8 7/7/7 5/5/5
f 9/9/9 6/6/6 7/7/7
f 10/10/10 6/6/6 9/9/9
f 11/11/11 8/8/8 5/5/5
f 12/12/12 8/8/8 11/11/11
f 13/13/13 12/12/12 11/11/11
f 14/14/14 13/13/13 11/11/11
f 15/15/15 13/13/13 14/14/14
f 16/16/16 6/6/6 10/10/10
f 17/17/17 16/16/16 10/10/10
f 18/18/18 16/16/16 17/17/17
f 19/19/19 16/16/16 18/18/18
f 20/20/20 19/19/19 18/18/18
f 21/21/21 15/15/15 14/14/14
f 22/22/22 15/15/15 21/21/21
f 23/23/23 22/22/22 21/21/21
f 24/24/24 23/23/23 21/21/21
f 25/25/25 23/23/23 24/24/24
f 26/26/26 19/19/19 20/20/20
f 27/27/27 26/26/26 20/20/20
f 28/28/28 26/26/26 27/27/27
f 29/29/29 26/26/26 28/28/28
f 30/30/30 29/29/29 28/28/28
f 31/31/31 25/25/25 24/24/24
f 32/32/32 25/25/25 31/31/31
f 33/33/33 32/32/32 31/31/31
f 34/34/34 29/29/29 30/30/30
f 35/35/35 34/34/34 30/30/30
f 36/36/36 34/34/34 35/35/35
f 37/37/37 33/33/33 31/31/31
f 38/38/38 33/33/33 37/37/37
f 39/39/39 38/38/38 37/37/37
f 40/40/40 34/34/34 36/36/36
f 37/37/37 41/41/41 39/39/39
f 42/42/42 40/40/40 36/36/36
f 43/43/43 40/40/40 42/42/42
f 39/39/39 41/41/41 43/43/43
f 41/41/41 40/40/40 43/43/43
f 44/44/44 40/40/40 41/41/41
f 45/45/45 44/44/44 41/41/41
f 46/46/46 44/44/44 45/45/45
f 47/47/47 46/46/46 45/45/45
f 48/48/48 46/46/46 47/47/47
f 51/51/51 50/50/50 49/49/49
f 50/50/50 52/52/52 49/49/49
f 49/49/49 52/52/52 53/53/53
f 52/52/52 54/54/54 53/53/53
f 53/53/53 54/54/54 55/55/55
f 55/55/55 54/54/54 56/56/56
f 56/56/56 57/57/57 55/55/55
f 56/56/56 54/54/54 58/58/58
f 57/57/57 59/59/59 55/55/55
f 54/54/54 60/60/60 58/58/58
f 58/58/58 60/60/60 61/61/61
f 61/61/61 60/60/60 62/62/62
f 55/55/55 59/59/59 63/63/63
f 59/59/59 64/64/64 63/63/63
f 64/64/64 65/65/65 63/63/63
f 63/63/63 65/65/65 66/66/66
f 65/65/65 67/67/67 66/66/66
f 60/60/60 68/68/68 62/62/62
f 62/62/62 68/68/68 69/69/69
f 69/69/69 68/68/68 70/70/70
f 68/68/68 71/71/71 70/70/70
f 70/70/70 71/71/71 72/72/72
f 66/66/66 67/67/67 73/73/73
f 67/67/67 74/74/74 73/73/73
f 74/74/74 75/75/75 73/73/73
f 73/73/73 75/75/75 76/76/76
f 75/75/75 77/77/77 76/76/76
f 71/71/71 78/78/78 72/72/72
f 72/72/72 78/78/78 79/79/79
f 79/79/79 78/78/78 80/80/80
f 78/78/78 81/81/81 80/80/80
f 80/80/80 81/81/81 82/82/82
f 76/76/76 77/77/77 83/83/83
f 77/77/77 84/84/84 83/83/83
f 84/84/84 85/85/85 83/83/83
f 81/81/81 86/86/86 82/82/82
f 82/82/82 86/86/86 87/87/87
f 87/87/87 86/86/86 88/88/88
f 83/83/83 85/85/85 89/89/89
f 86/86/86 90/90/90 88/88/88
f 85/85/85 91/91/91 89/89/89
f 91/91/91 92/92/92 89/89/89
f 88/88/88 90/90/90 92/92/92
f 92/92/92 90/90/90 89/89/89
f 90/90/90 93/93/93 89/89/89
f 94/94/94 93/93/93 90/90/90
f 95/95/95 93/93/93 94/94/94
f 96/96/96 95/95/95 94/94/94
f 99/99/99 98/98/98 97/97/97
f 100/100/100 97/97/97 98/98/98
f 103/103/103 102/102/102 101/101/101
f 104/104/104 101/101/101 102/102/102
f 107/107/107 106/106/106 105/105/105
f 108/108/108 105/105/105 106/106/106
f 111/111/111 110/110/110 109/109/109
f 112/112/112 109/109/109 110/110/110
f 115/115/115 114/114/114 113/113/113
f 116/116/116 113/113/113 114/114/114
f 119/119/119 118/118/118 117/117/117
f 120/120/120 117/117/117 118/118/118
f 123/123/123 122/122/122 121/121/121
f 124/124/124 121/121/121 122/122/122
f 127/127/127 126/126/126 125/125/125
f 128/128/128 125/125/125 126/126/126
f 131/131/131 130/130/130 129/129/129
f 132/132/132 129/129/129 130/130/130
f 135/135/135 134/134/134 133/133/133
f 136/136/136 133/133/133 134/134/134
f 139/139/139 138/138/138 137/137/137
f 140/140/140 137/137/137 138/138/138
