g Laboratory_OBJ_CartonBox_01
v -0.2673551 0.29915246 0.44357482
v -0.26732776 -0.2991525 0.44349334
v -0.26732582 -0.2988603 -0.4434921
v -0.2673551 0.2991525 -0.44357544
v -0.2673551 0.2991525 -0.44357544
v 0.2673547 0.29904675 -0.44357544
v 0.2673547 0.29904675 0.44357482
v -0.2673551 0.29915246 0.44357482
v -0.2673551 0.2991525 -0.44357544
v -0.26732582 -0.2988603 -0.4434921
v 0.26581803 -0.2989166 -0.43811554
v 0.2673547 0.29904675 -0.44357544
v -0.26732776 -0.2991525 0.44349334
v 0.2660297 -0.2990465 0.4431775
v 0.26581803 -0.2989166 -0.43811554
v -0.26732582 -0.2988603 -0.4434921
v 0.2673547 0.29904675 0.44357482
v 0.2673547 0.29904675 -0.44357544
v 0.26581803 -0.2989166 -0.43811554
v 0.2660297 -0.2990465 0.4431775
v -0.2673551 0.29915246 0.44357482
v 0.2673547 0.29904675 0.44357482
v 0.2660297 -0.2990465 0.4431775
v -0.26732776 -0.2991525 0.44349334
vt 0.25146484 0.99560547
vt 0.25146484 0.8300781
vt 0.006252289 0.8300781
vt 0.006252289 0.99560547
vt 0.0074882507 0.67089844
vt 0.0074882507 0.81884766
vt 0.2529297 0.81884766
vt 0.2529297 0.67089844
vt 0.008346558 0.6640625
vt 0.1739502 0.6640625
vt 0.1739502 0.51660156
vt 0.008346558 0.51660156
vt 0.01008606 0.50878906
vt 0.15722656 0.50878906
vt 0.15722656 0.26489258
vt 0.01008606 0.26489258
vt 0.006252289 0.99560547
vt 0.25146484 0.99560547
vt 0.25146484 0.8300781
vt 0.006252289 0.8300781
vt 0.008346558 0.51660156
vt 0.008346558 0.6640625
vt 0.1739502 0.6640625
vt 0.1739502 0.51660156
vn -1 -4.7326088E-05 -1.1324883E-06
vn -1 -4.7326088E-05 -1.1324883E-06
vn -1 -4.7326088E-05 -1.1324883E-06
vn -1 -4.7326088E-05 -1.1324883E-06
vn 0.00019776821 1 0
vn 0.00019776821 1 0
vn 0.00019776821 1 0
vn 0.00019776821 1 0
vn 0.0050354004 -0.0046424866 -1
vn 0.0050354004 -0.0046424866 -1
vn 0.0050354004 -0.0046424866 -1
vn 0.0050354004 -0.0046424866 -1
vn 4.774332E-05 -1 -0.000238657
vn 4.774332E-05 -1 -0.000238657
vn 4.774332E-05 -1 -0.000238657
vn 4.774332E-05 -1 -0.000238657
vn 1 -0.0023937225 -0.00011986494
vn 1 -0.0023937225 -0.00011986494
vn 1 -0.0023937225 -0.00011986494
vn 1 -0.0023937225 -0.00011986494
vn 0.00029563904 -0.0004005432 1
vn 0.00029563904 -0.0004005432 1
vn 0.00029563904 -0.0004005432 1
vn 0.00029563904 -0.0004005432 1
g Laboratory_OBJ_CartonBox_01_0
f 3/3/3 2/2/2 1/1/1
f 4/4/4 3/3/3 1/1/1
f 7/7/7 6/6/6 5/5/5
f 8/8/8 7/7/7 5/5/5
f 11/11/11 10/10/10 9/9/9
f 12/12/12 11/11/11 9/9/9
f 15/15/15 14/14/14 13/13/13
f 16/16/16 15/15/15 13/13/13
f 19/19/19 18/18/18 17/17/17
f 20/20/20 19/19/19 17/17/17
f 23/23/23 22/22/22 21/21/21
f 24/24/24 23/23/23 21/21/21
