g Laboratory_STR_OutDoor_L
v -0.27999848 0.04 1.4077272E-13
v -1.9376428 0.02 1.5087949E-13
v -0.29999846 0.02 1.523233E-13
v 1.5258788E-06 0.28 0
v -1.9376428 0.28 0
v -0.23999847 0.04 1.4077272E-13
v -0.21999846 0.02 1.523233E-13
v -0.04999832 0.02 1.523233E-13
v -0.009998474 0.06 1.2922214E-13
v 1.5258788E-06 0.06 1.2922214E-13
v 1.5258788E-06 0.28 0
v -1.9376428 0.28 3.8074071
v -1.9376428 0.28 0
v 1.5258788E-06 0.28 3.8074071
v -1.9376428 0.04 2.7074072
v -1.9376428 0.02 3.8074071
v -1.9376428 0.02 2.7074072
v -1.9376428 0.28 3.8074071
v -1.9376428 0.28 0
v -1.9376428 0.04 2.6674073
v -1.9376428 0.04 1.1074072
v -1.9376428 0.02 2.6674073
v -1.9376428 0.02 1.1074072
v -1.9376428 0.04 1.0674073
v -1.9376428 0.02 1.0674073
v -1.9376428 0.02 1.5087949E-13
v -0.29999846 0.02 1.0674073
v -0.27999848 0.04 1.4077272E-13
v -0.29999846 0.02 1.523233E-13
v -0.27999848 0.04 1.0674073
v -0.009998474 0.06 3.8074071
v 1.5258788E-06 0.28 3.8074071
v 1.5258788E-06 0.06 3.8074071
v -0.04999832 0.02 3.8074071
v -0.21999846 0.02 3.8074071
v -0.23999847 0.04 3.8074071
v -0.27999848 0.04 3.8074071
v -1.9376428 0.28 3.8074071
v -0.29999846 0.02 3.8074071
v -1.9376428 0.02 3.8074071
v -0.23999847 0.04 1.4077272E-13
v -0.21999846 0.02 3.8074071
v -0.21999846 0.02 1.523233E-13
v -0.23999847 0.04 3.8074071
v -1.9376428 0.02 2.7074072
v -0.29999846 0.02 3.8074071
v -0.29999846 0.02 2.7074072
v -1.9376428 0.02 3.8074071
v -0.04999832 0.02 1.523233E-13
v -0.009998474 0.06 3.8074071
v -0.009998474 0.06 1.2922214E-13
v -0.04999832 0.02 3.8074071
v -1.9376428 0.02 1.1074072
v -0.29999846 0.02 2.6674073
v -0.29999846 0.02 1.1074072
v -1.9376428 0.02 2.6674073
v -0.21999846 0.02 1.523233E-13
v -0.04999832 0.02 3.8074071
v -0.04999832 0.02 1.523233E-13
v -0.21999846 0.02 3.8074071
v -0.29999846 0.02 2.6674073
v -0.27999848 0.04 1.1074072
v -0.29999846 0.02 1.1074072
v -0.27999848 0.04 2.6674073
v 1.5258788E-06 0.06 3.8074071
v 1.5258788E-06 0.28 0
v 1.5258788E-06 0.06 1.2922214E-13
v 1.5258788E-06 0.28 3.8074071
v -1.9376428 0.02 1.1074072
v -0.27999848 0.04 1.1074072
v -1.9376428 0.04 1.1074072
v -0.29999846 0.02 1.1074072
v -1.9376428 0.02 1.0674073
v -0.29999846 0.02 1.523233E-13
v -1.9376428 0.02 1.5087949E-13
v -0.29999846 0.02 1.0674073
v -1.9376428 0.04 2.6674073
v -0.29999846 0.02 2.6674073
v -1.9376428 0.02 2.6674073
v -0.27999848 0.04 2.6674073
v -0.29999846 0.02 3.8074071
v -0.27999848 0.04 2.7074072
v -0.29999846 0.02 2.7074072
v -0.27999848 0.04 3.8074071
v -1.9376428 0.04 1.0674073
v -0.29999846 0.02 1.0674073
v -1.9376428 0.02 1.0674073
v -0.27999848 0.04 1.0674073
v -1.9376428 0.02 2.7074072
v -0.27999848 0.04 2.7074072
v -1.9376428 0.04 2.7074072
v -0.29999846 0.02 2.7074072
v -0.27999848 0.04 1.1074072
v -1.9376428 0.04 1.0674073
v -1.9376428 0.04 1.1074072
v -0.27999848 0.04 1.0674073
v -0.23999847 0.04 3.8074071
v -0.27999848 0.04 1.4077272E-13
v -0.23999847 0.04 3.8074071
v -0.23999847 0.04 1.4077272E-13
v -0.27999848 0.04 1.0674073
v -0.23999847 0.04 3.8074071
v -0.27999848 0.04 2.7074072
v -0.27999848 0.04 3.8074071
v -0.27999848 0.04 2.6674073
v -0.27999848 0.04 1.1074072
v -1.9376428 0.04 2.6674073
v -1.9376428 0.04 2.7074072
v -0.009998474 0.06 1.2922214E-13
v 1.5258788E-06 0.06 3.8074071
v 1.5258788E-06 0.06 1.2922214E-13
v -0.009998474 0.06 3.8074071
vt -3.4101562 0.4399414
vt -3.1347656 0.43676758
vt -3.40625 0.43676758
vt -3.4570312 0.47998047
vt -3.1347656 0.47998047
vt -3.4160156 0.4399414
vt -3.4199219 0.43676758
vt -3.4492188 0.43676758
vt -3.4550781 0.44335938
vt -3.4570312 0.44335938
vt 0.010353088 0.20776367
vt -0.3125 0.84228516
vt -0.3125 0.20776367
vt 0.010353088 0.84228516
vt 0.3798828 0.6591797
vt 0.37670898 0.84228516
vt 0.37670898 0.6591797
vt 0.41992188 0.84228516
vt 0.41992188 0.20776367
vt 0.3798828 0.65234375
vt 0.3798828 0.39233398
vt 0.37670898 0.65234375
vt 0.37670898 0.39233398
vt 0.3798828 0.3857422
vt 0.37670898 0.3857422
vt 0.37670898 0.20776367
vt 0.25048828 0.5522461
vt 0.24572754 0.37426758
vt 0.25048828 0.37426758
vt 0.24572754 0.5522461
vt 3.4550781 0.44335938
vt 3.4570312 0.47998047
vt 3.4570312 0.44335938
vt 3.4492188 0.43676758
vt 3.4199219 0.43676758
vt 3.4160156 0.4399414
vt 3.4101562 0.4399414
vt 3.1347656 0.47998047
vt 3.40625 0.43676758
vt 3.1347656 0.43676758
vt 0.09509277 0.20776367
vt 0.09033203 0.84228516
vt 0.09033203 0.20776367
vt 0.09509277 0.84228516
vt 0.37670898 0.6591797
vt 0.10369873 0.84228516
vt 0.10369873 0.6591797
vt 0.37670898 0.84228516
vt 0.06036377 0.20776367
vt 0.050933838 0.84228516
vt 0.050933838 0.20776367
vt 0.06036377 0.84228516
vt 0.37670898 0.39233398
vt 0.10369873 0.65234375
vt 0.10369873 0.39233398
vt 0.37670898 0.65234375
vt 0.09033203 0.20776367
vt 0.06201172 0.84228516
vt 0.06201172 0.20776367
vt 0.09033203 0.84228516
vt 0.25048828 0.81884766
vt 0.24572754 0.55908203
vt 0.25048828 0.55908203
vt 0.24572754 0.81884766
vt 0.047027588 0.84228516
vt 0.010353088 0.20776367
vt 0.047027588 0.20776367
vt 0.010353088 0.84228516
vt -7.2695312 -0.08886719
vt -6.9960938 -0.08557129
vt -7.2695312 -0.08557129
vt -6.9960938 -0.08886719
vt 0.5234375 0.5522461
vt 0.25048828 0.37426758
vt 0.5234375 0.37426758
vt 0.25048828 0.5522461
vt 0.37670898 -0.35229492
vt 0.10369873 -0.35546875
vt 0.37670898 -0.35546875
vt 0.1003418 -0.35229492
vt 0.10369873 0.84228516
vt 0.09899902 0.6591797
vt 0.10369873 0.6591797
vt 0.09899902 0.84228516
vt 0.37670898 -0.08557129
vt 0.10369873 -0.08886719
vt 0.37670898 -0.08886719
vt 0.1003418 -0.08557129
vt -7.2695312 -0.35546875
vt -6.9960938 -0.35229492
vt -7.2695312 -0.35229492
vt -6.9960938 -0.35546875
vt 0.02722168 0.51464844
vt 0.3034668 0.5083008
vt 0.3034668 0.51464844
vt 0.02722168 0.5083008
vt 0.020553589 0.96484375
vt 0.02722168 0.33032227
vt 0.020553589 0.96484375
vt 0.020553589 0.33032227
vt 0.02722168 0.5083008
vt 0.020553589 0.96484375
vt 0.02722168 0.7817383
vt 0.02722168 0.96484375
vt 0.02722168 0.77490234
vt 0.02722168 0.51464844
vt 0.3034668 0.77490234
vt 0.3034668 0.7817383
vt 6.28125 1.8789062
vt 6.2851562 3.0332031
vt 6.2851562 1.8789062
vt 6.28125 3.0332031
vn -0 0 -1
vn -0 0 -1
vn -0 0 -1
vn -0 0 -1
vn -0 0 -1
vn -0 0 -1
vn -0 0 -1
vn -0 0 -1
vn -0 0 -1
vn -0 0 -1
vn -0 1 0
vn -0 1 0
vn -0 1 0
vn -0 1 0
vn -1 0 0
vn -1 0 0
vn -1 0 0
vn -1 0 0
vn -1 0 0
vn -1 0 0
vn -1 0 0
vn -1 0 0
vn -1 0 0
vn -1 0 0
vn -1 0 0
vn -1 0 0
vn 0.70703125 -0.70703125 0
vn 0.70703125 -0.70703125 0
vn 0.70703125 -0.70703125 0
vn 0.70703125 -0.70703125 0
vn -0 0 1
vn -0 0 1
vn -0 0 1
vn -0 0 1
vn -0 0 1
vn -0 0 1
vn -0 0 1
vn -0 0 1
vn -0 0 1
vn -0 0 1
vn -0.70703125 -0.70703125 0
vn -0.70703125 -0.70703125 0
vn -0.70703125 -0.70703125 0
vn -0.70703125 -0.70703125 0
vn -0 -1 0
vn -0 -1 0
vn -0 -1 0
vn -0 -1 0
vn 0.70703125 -0.70703125 0
vn 0.70703125 -0.70703125 0
vn 0.70703125 -0.70703125 0
vn 0.70703125 -0.70703125 0
vn -0 -1 0
vn -0 -1 0
vn -0 -1 0
vn -0 -1 0
vn -0 -1 0
vn -0 -1 0
vn -0 -1 0
vn -0 -1 0
vn 0.70703125 -0.70703125 0
vn 0.70703125 -0.70703125 0
vn 0.70703125 -0.70703125 0
vn 0.70703125 -0.70703125 0
vn 1 0 0
vn 1 0 0
vn 1 0 0
vn 1 0 0
vn -0 0 -1
vn -0 0 -1
vn -0 0 -1
vn -0 0 -1
vn -0 -1 0
vn -0 -1 0
vn -0 -1 0
vn -0 -1 0
vn -0 0 1
vn -0 0 1
vn -0 0 1
vn -0 0 1
vn 0.70703125 -0.70703125 0
vn 0.70703125 -0.70703125 0
vn 0.70703125 -0.70703125 0
vn 0.70703125 -0.70703125 0
vn -0 0 1
vn -0 0 1
vn -0 0 1
vn -0 0 1
vn -0 0 -1
vn -0 0 -1
vn -0 0 -1
vn -0 0 -1
vn -0 -1 0
vn -0 -1 0
vn -0 -1 0
vn -0 -1 0
vn -0 -1 0
vn -0 -1 0
vn -0 -1 0
vn -0 -1 0
vn -0 -1 0
vn -0 -1 0
vn -0 -1 0
vn -0 -1 0
vn -0 -1 0
vn -0 -1 0
vn -0 -1 0
vn -0 -1 0
vn -0 -1 0
vn -0 -1 0
vn -0 -1 0
vn -0 -1 0
g Laboratory_STR_OutDoor_L_0
f 3/3/3 2/2/2 1/1/1
f 2/2/2 4/4/4 1/1/1
f 5/5/5 4/4/4 2/2/2
f 4/4/4 6/6/6 1/1/1
f 7/7/7 6/6/6 4/4/4
f 8/8/8 7/7/7 4/4/4
f 9/9/9 8/8/8 4/4/4
f 10/10/10 9/9/9 4/4/4
f 13/13/13 12/12/12 11/11/11
f 14/14/14 11/11/11 12/12/12
f 17/17/17 16/16/16 15/15/15
f 16/16/16 18/18/18 15/15/15
f 18/18/18 19/19/19 15/15/15
f 19/19/19 20/20/20 15/15/15
f 21/21/21 20/20/20 19/19/19
f 22/22/22 20/20/20 21/21/21
f 23/23/23 22/22/22 21/21/21
f 24/24/24 21/21/21 19/19/19
f 25/25/25 24/24/24 19/19/19
f 26/26/26 25/25/25 19/19/19
f 29/29/29 28/28/28 27/27/27
f 30/30/30 27/27/27 28/28/28
f 33/33/33 32/32/32 31/31/31
f 32/32/32 34/34/34 31/31/31
f 35/35/35 34/34/34 32/32/32
f 36/36/36 35/35/35 32/32/32
f 37/37/37 36/36/36 32/32/32
f 38/38/38 37/37/37 32/32/32
f 39/39/39 37/37/37 38/38/38
f 40/40/40 39/39/39 38/38/38
f 43/43/43 42/42/42 41/41/41
f 44/44/44 41/41/41 42/42/42
f 47/47/47 46/46/46 45/45/45
f 48/48/48 45/45/45 46/46/46
f 51/51/51 50/50/50 49/49/49
f 52/52/52 49/49/49 50/50/50
f 55/55/55 54/54/54 53/53/53
f 56/56/56 53/53/53 54/54/54
f 59/59/59 58/58/58 57/57/57
f 60/60/60 57/57/57 58/58/58
f 63/63/63 62/62/62 61/61/61
f 64/64/64 61/61/61 62/62/62
f 67/67/67 66/66/66 65/65/65
f 68/68/68 65/65/65 66/66/66
f 71/71/71 70/70/70 69/69/69
f 72/72/72 69/69/69 70/70/70
f 75/75/75 74/74/74 73/73/73
f 76/76/76 73/73/73 74/74/74
f 79/79/79 78/78/78 77/77/77
f 80/80/80 77/77/77 78/78/78
f 83/83/83 82/82/82 81/81/81
f 84/84/84 81/81/81 82/82/82
f 87/87/87 86/86/86 85/85/85
f 88/88/88 85/85/85 86/86/86
f 91/91/91 90/90/90 89/89/89
f 92/92/92 89/89/89 90/90/90
g Laboratory_STR_OutDoor_L_1
f 95/95/95 94/94/94 93/93/93
f 94/94/94 96/96/96 93/93/93
f 96/96/96 97/97/97 93/93/93
f 100/100/100 99/99/99 98/98/98
f 98/98/98 99/99/99 101/101/101
f 104/104/104 103/103/103 102/102/102
f 103/103/103 105/105/105 102/102/102
f 102/102/102 105/105/105 106/106/106
f 107/107/107 105/105/105 103/103/103
f 108/108/108 107/107/107 103/103/103
g Laboratory_STR_OutDoor_L_2
f 111/111/111 110/110/110 109/109/109
f 112/112/112 109/109/109 110/110/110
