g Laboratory_OBJ_PaperSet_02
v -0.20707977 0.14711815 -0.067016564
v -0.20707977 -0.13898015 -0.067016564
v 0.18936764 -0.13898015 -0.067016564
v 0.18936764 0.14711815 -0.067016564
v -0.20707977 0.14711815 0.062031955
v 0.18936764 0.14711815 0.062031955
v 0.18936764 -0.13898015 0.062031955
v -0.20707977 -0.13898015 0.062031955
v -0.20707977 0.14711815 -0.067016564
v -0.20707977 0.14711815 0.062031955
v -0.20707977 -0.13898015 0.062031955
v -0.20707977 -0.13898015 -0.067016564
v -0.20707977 -0.13898015 -0.067016564
v -0.20707977 -0.13898015 0.062031955
v 0.18936764 -0.13898015 0.062031955
v 0.18936764 -0.13898015 -0.067016564
v 0.18936764 -0.13898015 -0.067016564
v 0.18936764 -0.13898015 0.062031955
v 0.18936764 0.14711815 0.062031955
v 0.18936764 0.14711815 -0.067016564
v 0.18936764 0.14711815 -0.067016564
v 0.18936764 0.14711815 0.062031955
v -0.20707977 0.14711815 0.062031955
v -0.20707977 0.14711815 -0.067016564
v -0.22153942 0.0863195 0.06561771
v -0.14682563 -0.18985082 0.06561771
v 0.2358646 -0.086319655 0.06561771
v 0.16115081 0.18985069 0.06561771
v -0.22153942 0.0863195 0.06671146
v 0.16115081 0.18985069 0.06671146
v 0.23586464 -0.086319655 0.06671146
v -0.14682561 -0.18985082 0.06671146
v -0.17509429 -0.12527548 0.0069853016
v -0.18384662 0.15501675 0.0069853016
v 0.2051794 0.1671643 0.0069853016
v 0.21393177 -0.11312792 0.0069853016
v 0.2051794 0.1671643 0.005751171
v -0.18384662 0.15501675 0.005751171
v -0.17509429 -0.12527548 0.005751171
v 0.21393177 -0.11312792 0.005751171
v -0.20410122 -0.16594963 0.07067183
v -0.22625305 -0.08097854 0.07067183
v -0.138072 -0.05798988 0.07067183
v -0.11592017 -0.14296097 0.07067183
v -0.138072 -0.05798988 0.07002729
v -0.22625305 -0.08097854 0.07002729
v -0.20410122 -0.16594963 0.07002729
v -0.11592017 -0.14296097 0.07002729
v -0.051310048 0.08336719 -0.07067183
v -0.14203571 0.091924585 -0.07067183
v -0.15028162 0.004501514 -0.07067183
v -0.059555966 -0.0040559005 -0.07067183
v -0.0095820045 0.068669125 -0.067310005
v -0.09776305 0.045680463 -0.067310005
v -0.07561122 -0.03929062 -0.067310005
v 0.012569819 -0.016301956 -0.067310005
v 0.23563708 -0.0382547 -0.069294564
v 0.14451085 -0.0376371 -0.069294564
v 0.14391574 -0.12544617 -0.069294564
v 0.23504196 -0.12606376 -0.069294564
v 0.14391574 -0.12544617 -0.06780897
v 0.14451085 -0.0376371 -0.06780897
v 0.23563708 -0.0382547 -0.06780897
v 0.23504196 -0.12606376 -0.06780897
v -0.17041492 0.17040344 -0.06736345
v -0.15167436 0.17378636 -0.06736345
v -0.14311987 0.12639694 -0.06736345
v -0.16186047 0.12301406 -0.06736345
v -0.14311987 0.12639694 -0.067667104
v -0.15167436 0.17378636 -0.067667104
v -0.17041492 0.17040344 -0.067667104
v -0.16186047 0.12301406 -0.067667104
v 0.17036384 0.08263008 -0.03913806
v 0.16775589 0.10426536 -0.03913806
v 0.22246535 0.11085998 -0.03913806
v 0.22507328 0.08922462 -0.03913806
v 0.22246535 0.11085998 -0.03939227
v 0.16775589 0.10426536 -0.03939227
v 0.17036384 0.08263008 -0.03939227
v 0.22507328 0.08922462 -0.03939227
v -0.21157905 -0.17251295 -0.006344776
v -0.23586464 0.10189579 -0.006344776
v 0.14499547 0.13560249 -0.006344776
v 0.16928108 -0.13880624 -0.006344776
v 0.14499547 0.13560246 -0.008212452
v -0.2358646 0.10189575 -0.008212452
v -0.21157905 -0.17251295 -0.008212452
v 0.16928108 -0.13880621 -0.008212452
vt 0.22912598 0.06439209
vt 0.22912598 0.15942383
vt 0.36083984 0.15942383
vt 0.36083984 0.06439209
vt 0.22912598 0.25756836
vt 0.36083984 0.25756836
vt 0.36083984 0.16259766
vt 0.22912598 0.16259766
vt 0.36621094 0.24707031
vt 0.42236328 0.24707031
vt 0.42236328 0.16455078
vt 0.36621094 0.16455078
vt 0.41723633 0.05682373
vt 0.36791992 0.05682373
vt 0.36791992 0.15710449
vt 0.41723633 0.15710449
vt 0.36621094 0.25976562
vt 0.42236328 0.25976562
vt 0.42236328 0.1772461
vt 0.36621094 0.1772461
vt 0.41723633 0.05682373
vt 0.36791992 0.05682373
vt 0.36791992 0.15710449
vt 0.41723633 0.15710449
vt 0.22912598 0.06439209
vt 0.22912598 0.15942383
vt 0.36083984 0.15942383
vt 0.36083984 0.06439209
vt 0.22912598 0.06439209
vt 0.36083984 0.06439209
vt 0.36083984 0.15942383
vt 0.22912598 0.15942383
vt 0.22924805 0.16345215
vt 0.22924805 0.25732422
vt 0.359375 0.25732422
vt 0.359375 0.16345215
vt 0.359375 0.25732422
vt 0.22924805 0.25732422
vt 0.22924805 0.16345215
vt 0.359375 0.16345215
vt 0.2524414 0.21264648
vt 0.2524414 0.24023438
vt 0.27978516 0.24023438
vt 0.27978516 0.21264648
vt 0.27978516 0.24023438
vt 0.2524414 0.24023438
vt 0.2524414 0.21264648
vt 0.27978516 0.21264648
vt 0.27978516 0.24023438
vt 0.2524414 0.24023438
vt 0.2524414 0.21264648
vt 0.27978516 0.21264648
vt 0.35083008 0.2055664
vt 0.32055664 0.19750977
vt 0.32885742 0.16674805
vt 0.35888672 0.17480469
vt 0.35083008 0.2055664
vt 0.32055664 0.19750977
vt 0.32885742 0.16674805
vt 0.35888672 0.17480469
vt 0.32885742 0.16674805
vt 0.32055664 0.19750977
vt 0.35083008 0.2055664
vt 0.35888672 0.17480469
vt 0.23364258 0.2619629
vt 0.21899414 0.2619629
vt 0.21899414 0.29882812
vt 0.23364258 0.29882812
vt 0.21899414 0.29882812
vt 0.21899414 0.2619629
vt 0.23364258 0.2619629
vt 0.23364258 0.29882812
vt 0.19372559 0.2619629
vt 0.17907715 0.2619629
vt 0.17907715 0.29882812
vt 0.19372559 0.29882812
vt 0.17907715 0.29882812
vt 0.17907715 0.2619629
vt 0.19372559 0.2619629
vt 0.19372559 0.29882812
vt 0.22924805 0.16345215
vt 0.22924805 0.25732422
vt 0.359375 0.25732422
vt 0.359375 0.16345215
vt 0.359375 0.25732422
vt 0.22924805 0.25732422
vt 0.22924805 0.16345215
vt 0.359375 0.16345215
vn -0 0 -1
vn -0 0 -1
vn -0 0 -1
vn -0 0 -1
vn -0 0 1
vn -0 0 1
vn -0 0 1
vn -0 0 1
vn -1 0 0
vn -1 0 0
vn -1 0 0
vn -1 0 0
vn -0 -1 0
vn -0 -1 0
vn -0 -1 0
vn -0 -1 0
vn 1 0 0
vn 1 0 0
vn 1 0 0
vn 1 0 0
vn -0 1 0
vn -0 1 0
vn -0 1 0
vn -0 1 0
vn -0 0 -1
vn -0 0 -1
vn -0 0 -1
vn -0 0 -1
vn -0 0 1
vn -0 0 1
vn -0 0 1
vn -0 0 1
vn -0 0 1
vn -0 0 1
vn -0 0 1
vn -0 0 1
vn -0 0 -1
vn -0 0 -1
vn -0 0 -1
vn -0 0 -1
vn -0 0 1
vn -0 0 1
vn -0 0 1
vn -0 0 1
vn -0 0 -1
vn -0 0 -1
vn -0 0 -1
vn -0 0 -1
vn -0 0 -1
vn -0 0 -1
vn -0 0 -1
vn -0 0 -1
vn -0 0 -1
vn -0 0 -1
vn -0 0 -1
vn -0 0 -1
vn -0 0 -1
vn -0 0 -1
vn -0 0 -1
vn -0 0 -1
vn -0 0 1
vn -0 0 1
vn -0 0 1
vn -0 0 1
vn -0 0 1
vn -0 0 1
vn -0 0 1
vn -0 0 1
vn -0 0 -1
vn -0 0 -1
vn -0 0 -1
vn -0 0 -1
vn -0 0 1
vn -0 0 1
vn -0 0 1
vn -0 0 1
vn -0 0 -1
vn -0 0 -1
vn -0 0 -1
vn -0 0 -1
vn -0 0 1
vn -0 0 1
vn -0 0 1
vn -0 0 1
vn -0 0 -1
vn -0 0 -1
vn -0 0 -1
vn -0 0 -1
g Laboratory_OBJ_PaperSet_02_0
f 3/3/3 2/2/2 1/1/1
f 4/4/4 3/3/3 1/1/1
f 7/7/7 6/6/6 5/5/5
f 8/8/8 7/7/7 5/5/5
f 11/11/11 10/10/10 9/9/9
f 12/12/12 11/11/11 9/9/9
f 15/15/15 14/14/14 13/13/13
f 16/16/16 15/15/15 13/13/13
f 19/19/19 18/18/18 17/17/17
f 20/20/20 19/19/19 17/17/17
f 23/23/23 22/22/22 21/21/21
f 24/24/24 23/23/23 21/21/21
f 27/27/27 26/26/26 25/25/25
f 28/28/28 27/27/27 25/25/25
f 31/31/31 30/30/30 29/29/29
f 32/32/32 31/31/31 29/29/29
f 35/35/35 34/34/34 33/33/33
f 36/36/36 35/35/35 33/33/33
f 39/39/39 38/38/38 37/37/37
f 40/40/40 39/39/39 37/37/37
f 43/43/43 42/42/42 41/41/41
f 44/44/44 43/43/43 41/41/41
f 47/47/47 46/46/46 45/45/45
f 48/48/48 47/47/47 45/45/45
f 51/51/51 50/50/50 49/49/49
f 52/52/52 51/51/51 49/49/49
f 55/55/55 54/54/54 53/53/53
f 56/56/56 55/55/55 53/53/53
f 59/59/59 58/58/58 57/57/57
f 60/60/60 59/59/59 57/57/57
f 63/63/63 62/62/62 61/61/61
f 64/64/64 63/63/63 61/61/61
f 67/67/67 66/66/66 65/65/65
f 68/68/68 67/67/67 65/65/65
f 71/71/71 70/70/70 69/69/69
f 72/72/72 71/71/71 69/69/69
f 75/75/75 74/74/74 73/73/73
f 76/76/76 75/75/75 73/73/73
f 79/79/79 78/78/78 77/77/77
f 80/80/80 79/79/79 77/77/77
f 83/83/83 82/82/82 81/81/81
f 84/84/84 83/83/83 81/81/81
f 87/87/87 86/86/86 85/85/85
f 88/88/88 87/87/87 85/85/85
