g Bg_Forest_STR_Base_RegionBorder_04
v 9.19 0.19999999 0.19999999
v 9.19 5.428774E-13 3.6138885E-12
v 9.19 0.19999999 0
v 9.19 5.428774E-13 0.19999999
v 11.9 0 0.19999999
v 9.19 0.19999999 0.19999999
v 11.9 0.19999999 0.19999999
v 9.19 5.428774E-13 0.19999999
v 9.19 5.428774E-13 3.6138885E-12
v 3.21 0.19999999 8.3741716E-14
v 9.19 0.19999999 0
v 3.21 5.428774E-13 3.6976303E-12
v 3.21 0.19999999 8.3741716E-14
v 3.21 5.428774E-13 0.19999999
v 3.21 0.19999999 0.19999999
v 3.21 5.428774E-13 3.6976303E-12
v 3.21 5.428774E-13 0.19999999
v 1.9751496E-12 0.19999999 0.19999999
v 3.21 0.19999999 0.19999999
v 1.9751496E-12 5.659785E-13 0.19999999
v 1.9751496E-12 5.659785E-13 0.19999999
v -0 0.19999999 0.19
v 1.9751496E-12 0.19999999 0.19999999
v -0 5.544279E-13 0.19
vt -23.65625 29.953125
vt -23.609375 30
vt -23.609375 29.953125
vt -23.65625 30
vt -24.328125 30
vt -23.65625 29.953125
vt -24.328125 29.953125
vt -23.65625 30
vt -23.609375 30
vt -22.109375 29.953125
vt -23.609375 29.953125
vt -22.109375 30
vt -22.109375 29.953125
vt -22.0625 30
vt -22.0625 29.953125
vt -22.109375 30
vt -22.0625 30
vt -21.265625 29.953125
vt -22.0625 29.953125
vt -21.265625 30
vt -21.265625 30
vt -21.25 29.953125
vt -21.265625 29.953125
vt -21.25 30
vn -1 0 0
vn -1 0 0
vn -1 0 0
vn -1 0 0
vn -0 0 1
vn -0 0 1
vn -0 0 1
vn -0 0 1
vn -0 0 1
vn -0 0 1
vn -0 0 1
vn -0 0 1
vn 1 0 0
vn 1 0 0
vn 1 0 0
vn 1 0 0
vn -0 0 1
vn -0 0 1
vn -0 0 1
vn -0 0 1
vn -1 0 0
vn -1 0 0
vn -1 0 0
vn -1 0 0
g Bg_Forest_STR_Base_RegionBorder_04_0
f 3/3/3 2/2/2 1/1/1
f 4/4/4 1/1/1 2/2/2
f 7/7/7 6/6/6 5/5/5
f 8/8/8 5/5/5 6/6/6
f 11/11/11 10/10/10 9/9/9
f 12/12/12 9/9/9 10/10/10
f 15/15/15 14/14/14 13/13/13
f 16/16/16 13/13/13 14/14/14
f 19/19/19 18/18/18 17/17/17
f 20/20/20 17/17/17 18/18/18
f 23/23/23 22/22/22 21/21/21
f 24/24/24 21/21/21 22/22/22
