g Bg_Forest_STR_Base_RegionBorder_05
v 4.9999995 0 0.009999999
v 5.544279E-13 0.19999999 0.009999999
v 4.9999995 0.19999999 0.009999999
v -0 5.775291E-14 0.009999999
v 5.544279E-13 0.19999999 0.009999999
v -0 5.775291E-14 0
v 5.544279E-13 0.19999999 1.5448904E-13
v -0 5.775291E-14 0.009999999
vt -29.640625 30
vt -28.390625 29.953125
vt -29.640625 29.953125
vt -28.390625 30
vt -28.390625 29.953125
vt -28.375 30
vt -28.375 29.953125
vt -28.390625 30
vn -0 0 1
vn -0 0 1
vn -0 0 1
vn -0 0 1
vn -1 0 0
vn -1 0 0
vn -1 0 0
vn -1 0 0
g Bg_Forest_STR_Base_RegionBorder_05_0
f 3/3/3 2/2/2 1/1/1
f 4/4/4 1/1/1 2/2/2
f 7/7/7 6/6/6 5/5/5
f 8/8/8 5/5/5 6/6/6
