g Bg_Forest_STR_Base_RegionBorder_03
v -0 3.01 0.19999999
v 0.19999999 3.01 4.6924243E-13
v 0.19999999 3.01 0.19999999
v 5.313268E-13 3.01 0
v 0.19999999 0 0.19999999
v -0 3.01 0.19999999
v 0.19999999 3.01 0.19999999
v -0 0 0.19999999
v 0.19999999 8.99 7.2985243E-13
v -0 8.99 0.19999999
v 0.19999999 8.99 0.19999999
v 5.313268E-13 8.99 1.3499743E-13
v 0.19999999 8.99 0.19999999
v 1.15505826E-14 12 0.19999999
v 0.19999999 12 0.19999999
v -0 8.99 0.19999999
v 0.19999999 3.01 4.6924243E-13
v 5.313268E-13 8.99 1.3499743E-13
v 0.19999999 8.99 7.2985243E-13
v 5.313268E-13 3.01 0
v 1.15505826E-14 12 0.19999999
v 0.19999999 12 0.19
v 0.19999999 12 0.19999999
v 1.15505826E-14 12 0.19
vt -29 14
vt -28.953125 13.953125
vt -29 13.953125
vt -28.953125 14
vt -29.75 13.953125
vt -29 14
vt -29 13.953125
vt -29.75 14
vt -26.296875 13.953125
vt -26.25 14
vt -26.25 13.953125
vt -26.296875 14
vt -26.25 13.953125
vt -25.5 14
vt -25.5 13.953125
vt -26.25 14
vt -29 13.953125
vt -27.5 14
vt -27.5 13.953125
vt -29 14
vt -25.5 14
vt -25.5 13.953125
vt -25.5 13.953125
vt -25.5 14
vn -0 1 0
vn -0 1 0
vn -0 1 0
vn -0 1 0
vn -0 0 1
vn -0 0 1
vn -0 0 1
vn -0 0 1
vn -0 -1 0
vn -0 -1 0
vn -0 -1 0
vn -0 -1 0
vn -0 0 1
vn -0 0 1
vn -0 0 1
vn -0 0 1
vn -0 0 1
vn -0 0 1
vn -0 0 1
vn -0 0 1
vn -0 1 0
vn -0 1 0
vn -0 1 0
vn -0 1 0
g Bg_Forest_STR_Base_RegionBorder_03_0
f 3/3/3 2/2/2 1/1/1
f 4/4/4 1/1/1 2/2/2
f 7/7/7 6/6/6 5/5/5
f 8/8/8 5/5/5 6/6/6
f 11/11/11 10/10/10 9/9/9
f 12/12/12 9/9/9 10/10/10
f 15/15/15 14/14/14 13/13/13
f 16/16/16 13/13/13 14/14/14
f 19/19/19 18/18/18 17/17/17
f 20/20/20 17/17/17 18/18/18
f 23/23/23 22/22/22 21/21/21
f 24/24/24 21/21/21 22/22/22
