g Bg_Forest_Water_SidePlan
v 28.794218 -0.8891998 -4.5776366E-07
v 30.242188 0 -4.5776366E-07
v 30.242188 -0.8891998 -4.5776366E-07
v 28.794218 0 -4.5776366E-07
v 30.242188 0.8891998 -4.5776366E-07
v 27.346254 -0.8891998 -4.5776366E-07
v 28.794218 0.8891998 -4.5776366E-07
v 27.346254 0 -4.5776366E-07
v 25.89829 -0.8891998 -4.5776366E-07
v 27.346254 0.8891998 -4.5776366E-07
v 25.89829 0 -4.5776366E-07
v 24.450321 -0.8891998 -4.5776366E-07
v 25.89829 0.8891998 -4.5776366E-07
v 24.450321 0 -4.5776366E-07
v 23.002354 -0.8891998 -4.5776366E-07
v 24.450321 0.8891998 -4.5776366E-07
v 23.002354 0 -4.5776366E-07
v 21.55439 -0.8891998 -4.5776366E-07
v 23.002354 0.8891998 -4.5776366E-07
v 21.55439 0 -4.5776366E-07
v 20.106426 -0.8891998 -4.5776366E-07
v 21.55439 0.8891998 -4.5776366E-07
v 20.106426 0 -4.5776366E-07
v 18.658457 -0.8891998 -4.5776366E-07
v 20.106426 0.8891998 -4.5776366E-07
v 18.658457 0 -4.5776366E-07
v 17.210487 -0.8891998 -4.5776366E-07
v 18.658457 0.8891998 -4.5776366E-07
v 17.210487 0 -4.5776366E-07
v 15.762524 -0.8891998 -4.5776366E-07
v 17.210487 0.8891998 -4.5776366E-07
v 15.762524 0 -4.5776366E-07
v 14.31456 -0.8891998 -4.5776366E-07
v 15.762524 0.8891998 -4.5776366E-07
v 14.31456 0 -4.5776366E-07
v 12.866591 -0.8891998 -4.5776366E-07
v 14.31456 0.8891998 -4.5776366E-07
v 12.866591 0 -4.5776366E-07
v 11.418623 -0.8891998 -4.5776366E-07
v 12.866591 0.8891998 -4.5776366E-07
v 11.418623 0 -4.5776366E-07
v 9.970659 -0.8891998 -4.5776366E-07
v 11.418623 0.8891998 -4.5776366E-07
v 9.970659 0 -4.5776366E-07
v 8.522696 -0.8891998 -4.5776366E-07
v 9.970659 0.8891998 -4.5776366E-07
v 8.522696 0 -4.5776366E-07
v 7.0747266 -0.8891998 -4.5776366E-07
v 8.522696 0.8891998 -4.5776366E-07
v 7.0747266 0 -4.5776366E-07
v 5.6267576 -0.8891998 -4.5776366E-07
v 7.0747266 0.8891998 -4.5776366E-07
v 5.6267576 0 -4.5776366E-07
v 4.178794 -0.8891998 -4.5776366E-07
v 5.6267576 0.8891998 -4.5776366E-07
v 4.178794 0 -4.5776366E-07
v 2.73083 -0.8891998 -4.5776366E-07
v 4.178794 0.8891998 -4.5776366E-07
v 2.73083 0 -4.5776366E-07
v 1.2828614 -0.8891998 -4.5776366E-07
v 2.73083 0.8891998 -4.5776366E-07
v 1.2828614 0 -4.5776366E-07
v -0.16510741 -0.8891998 -4.5776366E-07
v 1.2828614 0.8891998 -4.5776366E-07
v -0.16510741 0 -4.5776366E-07
v -1.6130761 -0.8891998 -4.5776366E-07
v -0.16510741 0.8891998 -4.5776366E-07
v -1.6130761 0 -4.5776366E-07
v -3.0610352 -0.8891998 -4.5776366E-07
v -1.6130761 0.8891998 -4.5776366E-07
v -3.0610352 0 -4.5776366E-07
v -4.5090036 -0.8891998 -4.5776366E-07
v -3.0610352 0.8891998 -4.5776366E-07
v -4.5090036 0 -4.5776366E-07
v -5.9569726 -0.8891998 -4.5776366E-07
v -4.5090036 0.8891998 -4.5776366E-07
v -5.9569726 0 -4.5776366E-07
v -7.4049315 -0.8891998 -4.5776366E-07
v -5.9569726 0.8891998 -4.5776366E-07
v -7.4049315 0 -4.5776366E-07
v -8.8529005 -0.8891998 -4.5776366E-07
v -7.4049315 0.8891998 -4.5776366E-07
v -8.8529005 0 -4.5776366E-07
v -10.300869 -0.8891998 -4.5776366E-07
v -8.8529005 0.8891998 -4.5776366E-07
v -10.300869 0 -4.5776366E-07
v -10.300869 0.8891998 -4.5776366E-07
v -16.87367 -0.8891998 -4.5776366E-07
v -15.658359 0 -4.5776366E-07
v -15.658359 -0.8891998 -4.5776366E-07
v -16.87367 0 -4.5776366E-07
v -15.658359 0.8891998 -4.5776366E-07
v -18.088993 -0.8891998 -4.5776366E-07
v -16.87367 0.8891998 -4.5776366E-07
v -18.088993 0 -4.5776366E-07
v -19.304316 -0.8891998 -4.5776366E-07
v -18.088993 0.8891998 -4.5776366E-07
v -19.304316 0 -4.5776366E-07
v -20.519638 -0.8891998 -4.5776366E-07
v -19.304316 0.8891998 -4.5776366E-07
v -20.519638 0 -4.5776366E-07
v -21.734951 -0.8891998 -4.5776366E-07
v -20.519638 0.8891998 -4.5776366E-07
v -21.734951 0 -4.5776366E-07
v -22.950274 -0.8891998 -4.5776366E-07
v -21.734951 0.8891998 -4.5776366E-07
v -22.950274 0 -4.5776366E-07
v -24.165596 -0.8891998 -4.5776366E-07
v -22.950274 0.8891998 -4.5776366E-07
v -24.165596 0 -4.5776366E-07
v -25.380907 -0.8891998 -4.5776366E-07
v -24.165596 0.8891998 -4.5776366E-07
v -25.380907 0 -4.5776366E-07
v -26.59623 -0.8891998 -4.5776366E-07
v -25.380907 0.8891998 -4.5776366E-07
v -26.59623 0 -4.5776366E-07
v -27.811552 -0.8891998 -4.5776366E-07
v -26.59623 0.8891998 -4.5776366E-07
v -27.811552 0 -4.5776366E-07
v -29.026875 -0.8891998 -4.5776366E-07
v -27.811552 0.8891998 -4.5776366E-07
v -29.026875 0 -4.5776366E-07
v -30.242188 -0.8891998 -4.5776366E-07
v -29.026875 0.8891998 -4.5776366E-07
v -30.242188 0 -4.5776366E-07
v -30.242188 0.8891998 -4.5776366E-07
vt 0.5419922 0.2644043
vt 0.6225586 0.31420898
vt 0.6225586 0.2644043
vt 0.5419922 0.31420898
vt 0.6225586 0.36401367
vt 0.46166992 0.2644043
vt 0.5419922 0.36401367
vt 0.46166992 0.31420898
vt 0.38110352 0.2644043
vt 0.46166992 0.36401367
vt 0.38110352 0.31420898
vt 0.30078125 0.2644043
vt 0.38110352 0.36401367
vt 0.30078125 0.31420898
vt 0.22033691 0.2644043
vt 0.30078125 0.36401367
vt 0.22033691 0.31420898
vt 0.13989258 0.2644043
vt 0.22033691 0.36401367
vt 0.13989258 0.31420898
vt 0.059417725 0.2644043
vt 0.13989258 0.36401367
vt 0.059417725 0.31420898
vt -0.02104187 0.2644043
vt 0.059417725 0.36401367
vt -0.02104187 0.31420898
vt -0.101501465 0.2644043
vt -0.02104187 0.36401367
vt -0.101501465 0.31420898
vt -0.18188477 0.2644043
vt -0.101501465 0.36401367
vt -0.18188477 0.31420898
vt -0.26245117 0.2644043
vt -0.18188477 0.36401367
vt -0.26245117 0.31420898
vt -0.34277344 0.2644043
vt -0.26245117 0.36401367
vt -0.34277344 0.31420898
vt -0.42333984 0.2644043
vt -0.34277344 0.36401367
vt -0.42333984 0.31420898
vt -0.50390625 0.2644043
vt -0.42333984 0.36401367
vt -0.50390625 0.31420898
vt -0.5839844 0.2644043
vt -0.50390625 0.36401367
vt -0.5839844 0.31420898
vt -0.6645508 0.2644043
vt -0.5839844 0.36401367
vt -0.6645508 0.31420898
vt -0.7451172 0.2644043
vt -0.6645508 0.36401367
vt -0.7451172 0.31420898
vt -0.8256836 0.2644043
vt -0.7451172 0.36401367
vt -0.8256836 0.31420898
vt -0.9057617 0.2644043
vt -0.8256836 0.36401367
vt -0.9057617 0.31420898
vt -0.9863281 0.2644043
vt -0.9057617 0.36401367
vt -0.9863281 0.31420898
vt -1.0664062 0.2644043
vt -0.9863281 0.36401367
vt -1.0664062 0.31420898
vt -1.1474609 0.2644043
vt -1.0664062 0.36401367
vt -1.1474609 0.31420898
vt -1.2275391 0.2644043
vt -1.1474609 0.36401367
vt -1.2275391 0.31420898
vt -1.3085938 0.2644043
vt -1.2275391 0.36401367
vt -1.3085938 0.31420898
vt -1.3886719 0.2644043
vt -1.3085938 0.36401367
vt -1.3886719 0.31420898
vt -1.46875 0.2644043
vt -1.3886719 0.36401367
vt -1.46875 0.31420898
vt -1.5498047 0.2644043
vt -1.46875 0.36401367
vt -1.5498047 0.31420898
vt -1.6298828 0.2644043
vt -1.5498047 0.36401367
vt -1.6298828 0.31420898
vt -1.6298828 0.36401367
vt -1.9951172 0.2644043
vt -1.9277344 0.31420898
vt -1.9277344 0.2644043
vt -1.9951172 0.31420898
vt -1.9277344 0.36401367
vt -2.0625 0.2644043
vt -1.9951172 0.36401367
vt -2.0625 0.31420898
vt -2.1308594 0.2644043
vt -2.0625 0.36401367
vt -2.1308594 0.31420898
vt -2.1972656 0.2644043
vt -2.1308594 0.36401367
vt -2.1972656 0.31420898
vt -2.265625 0.2644043
vt -2.1972656 0.36401367
vt -2.265625 0.31420898
vt -2.3320312 0.2644043
vt -2.265625 0.36401367
vt -2.3320312 0.31420898
vt -2.4003906 0.2644043
vt -2.3320312 0.36401367
vt -2.4003906 0.31420898
vt -2.4667969 0.2644043
vt -2.4003906 0.36401367
vt -2.4667969 0.31420898
vt -2.5351562 0.2644043
vt -2.4667969 0.36401367
vt -2.5351562 0.31420898
vt -2.6035156 0.2644043
vt -2.5351562 0.36401367
vt -2.6035156 0.31420898
vt -2.6699219 0.2644043
vt -2.6035156 0.36401367
vt -2.6699219 0.31420898
vt -2.7382812 0.2644043
vt -2.6699219 0.36401367
vt -2.7382812 0.31420898
vt -2.7382812 0.36401367
vn -0 0 1
vn -0 0 1
vn -0 0 1
vn -0 0 1
vn -0 0 1
vn -0 0 1
vn -0 0 1
vn -0 0 1
vn -0 0 1
vn -0 0 1
vn -0 0 1
vn -0 0 1
vn -0 0 1
vn -0 0 1
vn -0 0 1
vn -0 0 1
vn -0 0 1
vn -0 0 1
vn -0 0 1
vn -0 0 1
vn -0 0 1
vn -0 0 1
vn -0 0 1
vn -0 0 1
vn -0 0 1
vn -0 0 1
vn -0 0 1
vn -0 0 1
vn -0 0 1
vn -0 0 1
vn -0 0 1
vn -0 0 1
vn -0 0 1
vn -0 0 1
vn -0 0 1
vn -0 0 1
vn -0 0 1
vn -0 0 1
vn -0 0 1
vn -0 0 1
vn -0 0 1
vn -0 0 1
vn -0 0 1
vn -0 0 1
vn -0 0 1
vn -0 0 1
vn -0 0 1
vn -0 0 1
vn -0 0 1
vn -0 0 1
vn -0 0 1
vn -0 0 1
vn -0 0 1
vn -0 0 1
vn -0 0 1
vn -0 0 1
vn -0 0 1
vn -0 0 1
vn -0 0 1
vn -0 0 1
vn -0 0 1
vn -0 0 1
vn -0 0 1
vn -0 0 1
vn -0 0 1
vn -0 0 1
vn -0 0 1
vn -0 0 1
vn -0 0 1
vn -0 0 1
vn -0 0 1
vn -0 0 1
vn -0 0 1
vn -0 0 1
vn -0 0 1
vn -0 0 1
vn -0 0 1
vn -0 0 1
vn -0 0 1
vn -0 0 1
vn -0 0 1
vn -0 0 1
vn -0 0 1
vn -0 0 1
vn -0 0 1
vn -0 0 1
vn -0 0 1
vn -0 0 1
vn -0 0 1
vn -0 0 1
vn -0 0 1
vn -0 0 1
vn -0 0 1
vn -0 0 1
vn -0 0 1
vn -0 0 1
vn -0 0 1
vn -0 0 1
vn -0 0 1
vn -0 0 1
vn -0 0 1
vn -0 0 1
vn -0 0 1
vn -0 0 1
vn -0 0 1
vn -0 0 1
vn -0 0 1
vn -0 0 1
vn -0 0 1
vn -0 0 1
vn -0 0 1
vn -0 0 1
vn -0 0 1
vn -0 0 1
vn -0 0 1
vn -0 0 1
vn -0 0 1
vn -0 0 1
vn -0 0 1
vn -0 0 1
vn -0 0 1
vn -0 0 1
vn -0 0 1
vn -0 0 1
vn -0 0 1
vn -0 0 1
g Bg_Forest_Water_SidePlan_0
f 3/3/3 2/2/2 1/1/1
f 2/2/2 4/4/4 1/1/1
f 2/2/2 5/5/5 4/4/4
f 1/1/1 4/4/4 6/6/6
f 5/5/5 7/7/7 4/4/4
f 4/4/4 8/8/8 6/6/6
f 4/4/4 7/7/7 8/8/8
f 6/6/6 8/8/8 9/9/9
f 7/7/7 10/10/10 8/8/8
f 8/8/8 11/11/11 9/9/9
f 8/8/8 10/10/10 11/11/11
f 9/9/9 11/11/11 12/12/12
f 10/10/10 13/13/13 11/11/11
f 11/11/11 14/14/14 12/12/12
f 11/11/11 13/13/13 14/14/14
f 12/12/12 14/14/14 15/15/15
f 13/13/13 16/16/16 14/14/14
f 14/14/14 17/17/17 15/15/15
f 14/14/14 16/16/16 17/17/17
f 15/15/15 17/17/17 18/18/18
f 16/16/16 19/19/19 17/17/17
f 17/17/17 20/20/20 18/18/18
f 17/17/17 19/19/19 20/20/20
f 18/18/18 20/20/20 21/21/21
f 19/19/19 22/22/22 20/20/20
f 20/20/20 23/23/23 21/21/21
f 20/20/20 22/22/22 23/23/23
f 21/21/21 23/23/23 24/24/24
f 22/22/22 25/25/25 23/23/23
f 23/23/23 26/26/26 24/24/24
f 23/23/23 25/25/25 26/26/26
f 24/24/24 26/26/26 27/27/27
f 25/25/25 28/28/28 26/26/26
f 26/26/26 29/29/29 27/27/27
f 26/26/26 28/28/28 29/29/29
f 27/27/27 29/29/29 30/30/30
f 28/28/28 31/31/31 29/29/29
f 29/29/29 32/32/32 30/30/30
f 29/29/29 31/31/31 32/32/32
f 30/30/30 32/32/32 33/33/33
f 31/31/31 34/34/34 32/32/32
f 32/32/32 35/35/35 33/33/33
f 32/32/32 34/34/34 35/35/35
f 33/33/33 35/35/35 36/36/36
f 34/34/34 37/37/37 35/35/35
f 35/35/35 38/38/38 36/36/36
f 35/35/35 37/37/37 38/38/38
f 36/36/36 38/38/38 39/39/39
f 37/37/37 40/40/40 38/38/38
f 38/38/38 41/41/41 39/39/39
f 38/38/38 40/40/40 41/41/41
f 39/39/39 41/41/41 42/42/42
f 40/40/40 43/43/43 41/41/41
f 41/41/41 44/44/44 42/42/42
f 41/41/41 43/43/43 44/44/44
f 42/42/42 44/44/44 45/45/45
f 43/43/43 46/46/46 44/44/44
f 44/44/44 47/47/47 45/45/45
f 44/44/44 46/46/46 47/47/47
f 45/45/45 47/47/47 48/48/48
f 46/46/46 49/49/49 47/47/47
f 47/47/47 50/50/50 48/48/48
f 47/47/47 49/49/49 50/50/50
f 48/48/48 50/50/50 51/51/51
f 49/49/49 52/52/52 50/50/50
f 50/50/50 53/53/53 51/51/51
f 50/50/50 52/52/52 53/53/53
f 51/51/51 53/53/53 54/54/54
f 52/52/52 55/55/55 53/53/53
f 53/53/53 56/56/56 54/54/54
f 53/53/53 55/55/55 56/56/56
f 54/54/54 56/56/56 57/57/57
f 55/55/55 58/58/58 56/56/56
f 56/56/56 59/59/59 57/57/57
f 56/56/56 58/58/58 59/59/59
f 57/57/57 59/59/59 60/60/60
f 58/58/58 61/61/61 59/59/59
f 59/59/59 62/62/62 60/60/60
f 59/59/59 61/61/61 62/62/62
f 60/60/60 62/62/62 63/63/63
f 61/61/61 64/64/64 62/62/62
f 62/62/62 65/65/65 63/63/63
f 62/62/62 64/64/64 65/65/65
f 63/63/63 65/65/65 66/66/66
f 64/64/64 67/67/67 65/65/65
f 65/65/65 68/68/68 66/66/66
f 65/65/65 67/67/67 68/68/68
f 66/66/66 68/68/68 69/69/69
f 67/67/67 70/70/70 68/68/68
f 68/68/68 71/71/71 69/69/69
f 68/68/68 70/70/70 71/71/71
f 69/69/69 71/71/71 72/72/72
f 70/70/70 73/73/73 71/71/71
f 71/71/71 74/74/74 72/72/72
f 71/71/71 73/73/73 74/74/74
f 72/72/72 74/74/74 75/75/75
f 73/73/73 76/76/76 74/74/74
f 74/74/74 77/77/77 75/75/75
f 74/74/74 76/76/76 77/77/77
f 75/75/75 77/77/77 78/78/78
f 76/76/76 79/79/79 77/77/77
f 77/77/77 80/80/80 78/78/78
f 77/77/77 79/79/79 80/80/80
f 78/78/78 80/80/80 81/81/81
f 79/79/79 82/82/82 80/80/80
f 80/80/80 83/83/83 81/81/81
f 80/80/80 82/82/82 83/83/83
f 81/81/81 83/83/83 84/84/84
f 82/82/82 85/85/85 83/83/83
f 83/83/83 86/86/86 84/84/84
f 83/83/83 85/85/85 86/86/86
f 85/85/85 87/87/87 86/86/86
f 90/90/90 89/89/89 88/88/88
f 89/89/89 91/91/91 88/88/88
f 89/89/89 92/92/92 91/91/91
f 88/88/88 91/91/91 93/93/93
f 92/92/92 94/94/94 91/91/91
f 91/91/91 95/95/95 93/93/93
f 91/91/91 94/94/94 95/95/95
f 93/93/93 95/95/95 96/96/96
f 94/94/94 97/97/97 95/95/95
f 95/95/95 98/98/98 96/96/96
f 95/95/95 97/97/97 98/98/98
f 96/96/96 98/98/98 99/99/99
f 97/97/97 100/100/100 98/98/98
f 98/98/98 101/101/101 99/99/99
f 98/98/98 100/100/100 101/101/101
f 99/99/99 101/101/101 102/102/102
f 100/100/100 103/103/103 101/101/101
f 101/101/101 104/104/104 102/102/102
f 101/101/101 103/103/103 104/104/104
f 102/102/102 104/104/104 105/105/105
f 103/103/103 106/106/106 104/104/104
f 104/104/104 107/107/107 105/105/105
f 104/104/104 106/106/106 107/107/107
f 105/105/105 107/107/107 108/108/108
f 106/106/106 109/109/109 107/107/107
f 107/107/107 110/110/110 108/108/108
f 107/107/107 109/109/109 110/110/110
f 108/108/108 110/110/110 111/111/111
f 109/109/109 112/112/112 110/110/110
f 110/110/110 113/113/113 111/111/111
f 110/110/110 112/112/112 113/113/113
f 111/111/111 113/113/113 114/114/114
f 112/112/112 115/115/115 113/113/113
f 113/113/113 116/116/116 114/114/114
f 113/113/113 115/115/115 116/116/116
f 114/114/114 116/116/116 117/117/117
f 115/115/115 118/118/118 116/116/116
f 116/116/116 119/119/119 117/117/117
f 116/116/116 118/118/118 119/119/119
f 117/117/117 119/119/119 120/120/120
f 118/118/118 121/121/121 119/119/119
f 119/119/119 122/122/122 120/120/120
f 119/119/119 121/121/121 122/122/122
f 120/120/120 122/122/122 123/123/123
f 121/121/121 124/124/124 122/122/122
f 122/122/122 125/125/125 123/123/123
f 122/122/122 124/124/124 125/125/125
f 124/124/124 126/126/126 125/125/125
