g Bg_Forest_STR_Base_RegionBorder_02
v 0.19999999 0 0.009999999
v 9.240466E-14 4.9999995 0.009999999
v 0.19999999 4.9999995 0.009999999
v -0 0 0.009999999
v 9.240466E-14 4.9999995 5.515403E-13
v 0.19999999 4.9999995 0.009999999
v 9.240466E-14 4.9999995 0.009999999
v 0.19999999 4.9999995 0
vt -17.953125 13.953125
vt -16.703125 14
vt -16.703125 13.953125
vt -17.953125 14
vt -16.703125 14
vt -16.703125 13.953125
vt -16.703125 14
vt -16.703125 13.953125
vn -0 0 1
vn -0 0 1
vn -0 0 1
vn -0 0 1
vn -0 1 0
vn -0 1 0
vn -0 1 0
vn -0 1 0
g Bg_Forest_STR_Base_RegionBorder_02_0
f 3/3/3 2/2/2 1/1/1
f 4/4/4 1/1/1 2/2/2
f 7/7/7 6/6/6 5/5/5
f 8/8/8 5/5/5 6/6/6
