g Bg_Forest_STR_Base_RegionBorder_08
v -0 0.19999999 0.009999999
v -0 0 0
v -0 0.19999999 5.414335E-16
v -0 0 0.009999999
v 4 0 0.009999999
v -0 0.19999999 0.009999999
v 4 0.19999999 0.009999999
v -0 0 0.009999999
vt -144 -14
vt -144 -14.046875
vt -144 -14
vt -144 -14.046875
vt -143 -14.046875
vt -144 -14
vt -143 -14
vt -144 -14.046875
vn -1 0 0
vn -1 0 0
vn -1 0 0
vn -1 0 0
vn -0 0 1
vn -0 0 1
vn -0 0 1
vn -0 0 1
g Bg_Forest_STR_Base_RegionBorder_08_0
f 3/3/3 2/2/2 1/1/1
f 4/4/4 1/1/1 2/2/2
g Bg_Forest_STR_Base_RegionBorder_08_1
f 7/7/7 6/6/6 5/5/5
f 8/8/8 5/5/5 6/6/6
