g Bg_Forest_OBJ_Root_04
v 1.2447317 -0.099385224 -0.0103446385
v 1.245713 -0.11339752 -0.04926111
v 1.238393 -0.12427215 -0.02322153
v 1.252021 -0.08852554 -0.03637537
v 1.0376346 -0.07743789 -0.048011262
v 1.0375919 -0.09968094 -0.0046006204
v 1.2447317 -0.099385224 -0.0103446385
v 0.810961 -0.0734787 0.028045254
v 0.8012956 -0.04025177 -0.022384739
v 0.6308444 -0.047642667 0.061684933
v 0.52867913 0.06270645 0.03733526
v 0.61771476 -0.084730834 0.11513647
v 1.0201375 -0.116591185 -0.070775084
v 0.5941027 0.0030397032 0.13595083
v 0.5957188 -0.056065217 0.1641358
v 0.53782314 -0.072135314 0.15383717
v 0.48811096 -0.032412108 0.111850485
v 1.0200028 -0.1388475 -0.02735483
v 1.238393 -0.12427215 -0.02322153
v 0.7990533 -0.0931491 -0.07039789
v 0.35643768 0.07628418 0.034039516
v 0.3507019 -0.02365982 0.08866308
v 1.0375919 -0.09968094 -0.0046006204
v 1.2447317 -0.099385224 -0.0103446385
v 0.810961 -0.0734787 0.028045254
v 0.77430344 -0.12781158 -0.0020005226
v 0.52759343 -0.08018066 0.04033163
v 0.6308444 -0.047642667 0.061684933
v 0.61771476 -0.084730834 0.11513647
v 0.5219461 -0.014973907 -0.04743479
v 0.16332823 0.06454666 0.055336818
v 0.16708097 -0.037548523 0.12293097
v -0.050803643 0.06645203 0.06423086
v -0.045198172 -0.036916655 0.120605215
v -0.26339263 0.01025238 0.13352911
v -0.27572864 0.09852447 0.048161373
v -0.31052563 -0.030686645 -0.03327036
v 0.35029677 -0.03398422 -0.035300996
v -0.0721928 -0.07090454 -0.030568331
v -0.29131576 -0.08623917 0.10244375
v 0.16865659 -0.062081754 -0.041723423
v 0.35091034 -0.095881194 0.07565298
v 0.17918104 -0.124213256 0.075511225
v -0.050394706 -0.13243453 0.044088345
v -0.045198172 -0.036916655 0.120605215
v -0.26339263 0.01025238 0.13352911
v 0.16708097 -0.037548523 0.12293097
v 0.3507019 -0.02365982 0.08866308
v 0.48811096 -0.032412108 0.111850485
v 0.5684845 -0.10046722 0.1102918
v 0.53782314 -0.072135314 0.15383717
v 0.5957188 -0.056065217 0.1641358
v -0.27572864 0.09852447 0.048161373
v -0.26339263 0.01025238 0.13352911
v -0.6146778 0.06089584 0.09982519
v -0.6116563 0.120449826 0.017691555
v -0.31052563 -0.030686645 -0.03327036
v -0.91721463 0.038258363 0.073667504
v -0.60666215 0.038841248 -0.018683871
v -0.29131576 -0.08623917 0.10244375
v -0.90836716 0.060585782 0.015301113
v -1.1443217 0.07258377 0.037012994
v -0.61327374 0.008227539 0.065567225
v -0.26339263 0.01025238 0.13352911
v -0.6146778 0.06089584 0.09982519
v -0.91721463 0.038258363 0.073667504
v -0.9077395 -0.019665373 0.049626675
v -1.1443217 0.07258377 0.037012994
v -1.1395646 0.03843414 0.02128622
v -0.8989934 0.0026914978 -0.008798618
v -1.1489924 0.051696166 -0.012328587
v -1.1537129 0.085820004 0.0034004783
v -1.1489924 0.051696166 -0.012328587
v -1.1395646 0.03843414 0.02128622
vt 3.2207031 -2.9667969
vt 3.234375 -2.9492188
vt 3.2363281 -2.9628906
vt 3.21875 -2.9511719
vt 3.1933594 -2.7441406
vt 3.1699219 -2.7519531
vt 3.2050781 -2.9570312
vt 3.1269531 -2.5273438
vt 3.1660156 -2.5175781
vt 3.1113281 -2.4003906
vt 3.1464844 -2.3320312
vt 3.109375 -2.3730469
vt 3.2167969 -2.7382812
vt 3.1269531 -2.3398438
vt 3.1054688 -2.3457031
vt 3.1054688 -2.3066406
vt 3.1054688 -2.2675781
vt 3.2421875 -2.7402344
vt 3.25 -2.9511719
vt 3.203125 -2.515625
vt 3.15625 -2.1796875
vt 3.1054688 -2.1855469
vt 3.2675781 -2.7441406
vt 3.2636719 -2.9511719
vt 3.2753906 -2.515625
vt 3.2382812 -2.5136719
vt 3.2539062 -2.3320312
vt 3.2929688 -2.4003906
vt 3.2949219 -2.375
vt 3.1933594 -2.3261719
vt 3.1582031 -2.0332031
vt 3.0957031 -2.0488281
vt 3.1523438 -1.8925781
vt 3.09375 -1.921875
vt 3.078125 -1.7880859
vt 3.1503906 -1.7783203
vt 3.2167969 -1.7695312
vt 3.2050781 -2.1523438
vt 3.2265625 -1.8867188
vt 3.2929688 -1.7763672
vt 3.2246094 -2.0136719
vt 3.2695312 -2.1523438
vt 3.2832031 -2.0214844
vt 3.2910156 -1.8857422
vt 3.359375 -1.9121094
vt 3.3652344 -1.8037109
vt 3.3320312 -2.0527344
vt 3.3144531 -2.1953125
vt 3.3066406 -2.2753906
vt 3.2773438 -2.3398438
vt 3.3027344 -2.3125
vt 3.2988281 -2.3496094
vt 3.1503906 -1.7783203
vt 3.078125 -1.7880859
vt 3.0839844 -1.6679688
vt 3.1523438 -1.6464844
vt 3.2167969 -1.7695312
vt 3.109375 -1.4882812
vt 3.2128906 -1.6494141
vt 3.2929688 -1.7763672
vt 3.1621094 -1.4863281
vt 3.1503906 -1.3466797
vt 3.2929688 -1.6591797
vt 3.3652344 -1.8037109
vt 3.3378906 -1.6513672
vt 3.3066406 -1.4892578
vt 3.2753906 -1.4892578
vt 3.2597656 -1.3457031
vt 3.2402344 -1.3447266
vt 3.2128906 -1.4951172
vt 3.2050781 -1.3457031
vt 3.171875 -1.3457031
vt 3.171875 -1.3232422
vt 3.1503906 -1.3232422
vn 0.55859375 0.19177246 0.8071289
vn 0.6064453 -0.31982422 -0.72753906
vn 0.45336914 -0.84228516 0.29077148
vn 0.74658203 0.6401367 -0.18164062
vn 0.10614014 0.9477539 -0.30151367
vn 0.099609375 0.2541504 0.96191406
vn 0.55859375 0.19177246 0.8071289
vn 0.2055664 0.13757324 0.96875
vn 0.23718262 0.96435547 -0.11871338
vn 0.6801758 -0.0069465637 0.73291016
vn 0.1295166 0.99072266 0.03527832
vn 0.8208008 -0.5654297 0.0814209
vn 0.023376465 -0.2788086 -0.95996094
vn 0.40771484 0.6879883 0.60058594
vn 0.4086914 -0.10064697 0.90722656
vn -0.49853516 -0.36083984 0.78808594
vn -0.33496094 0.009124756 0.9423828
vn 0.01914978 -0.96777344 0.25146484
vn 0.45336914 -0.84228516 0.29077148
vn -0.07281494 -0.19177246 -0.9785156
vn -0.031402588 0.9995117 0.009925842
vn 0.06732178 0.07849121 0.9946289
vn 0.099609375 0.2541504 0.96191406
vn 0.55859375 0.19177246 0.8071289
vn 0.2055664 0.13757324 0.96875
vn -0.103027344 -0.9736328 0.20324707
vn -0.14294434 -0.98046875 -0.13671875
vn 0.6801758 -0.0069465637 0.73291016
vn 0.8208008 -0.5654297 0.0814209
vn -0.04421997 -0.02859497 -0.99853516
vn -0.011062622 0.9980469 0.05899048
vn 0.047698975 0.017028809 0.99853516
vn 0.084228516 0.99609375 0.028656006
vn 0.026031494 -0.02015686 0.9995117
vn 0.0023956299 0.14379883 0.9897461
vn 0.1307373 0.98583984 -0.10595703
vn -0.09112549 -0.3071289 -0.9472656
vn 0.008071899 -0.1862793 -0.9824219
vn -0.04763794 -0.27172852 -0.9614258
vn -0.19494629 -0.89697266 0.3972168
vn 0.025787354 -0.22094727 -0.97509766
vn 0.1282959 -0.94091797 0.3137207
vn 0.10308838 -0.9511719 0.2915039
vn -0.05230713 -0.9868164 0.15319824
vn 0.026031494 -0.02015686 0.9995117
vn 0.0023956299 0.14379883 0.9897461
vn 0.047698975 0.017028809 0.99853516
vn 0.06732178 0.07849121 0.9946289
vn -0.33496094 0.009124756 0.9423828
vn -0.03778076 -0.99658203 0.072143555
vn -0.49853516 -0.36083984 0.78808594
vn 0.4086914 -0.10064697 0.90722656
vn 0.1307373 0.98583984 -0.10595703
vn 0.0023956299 0.14379883 0.9897461
vn -0.1015625 0.2902832 0.95166016
vn -0.039978027 0.9667969 -0.25195312
vn -0.09112549 -0.3071289 -0.9472656
vn -0.11315918 0.27807617 0.95410156
vn -0.039520264 -0.29638672 -0.95410156
vn -0.19494629 -0.89697266 0.3972168
vn -0.019638062 0.9296875 -0.36791992
vn -0.55126953 0.33398438 0.76464844
vn -0.11456299 -0.9116211 0.39501953
vn 0.0023956299 0.14379883 0.9897461
vn -0.1015625 0.2902832 0.95166016
vn -0.11315918 0.27807617 0.95410156
vn -0.09667969 -0.9316406 0.34985352
vn -0.55126953 0.33398438 0.76464844
vn -0.5786133 -0.75390625 0.3112793
vn -0.022613525 -0.45507812 -0.8901367
vn -0.61376953 -0.28344727 -0.7368164
vn -0.66796875 0.69628906 -0.2626953
vn -0.61376953 -0.28344727 -0.7368164
vn -0.5786133 -0.75390625 0.3112793
g Bg_Forest_OBJ_Root_04_0
f 3/3/3 2/2/2 1/1/1
f 2/2/2 4/4/4 1/1/1
f 5/5/5 4/4/4 2/2/2
f 5/5/5 6/6/6 4/4/4
f 6/6/6 7/7/7 4/4/4
f 8/8/8 6/6/6 5/5/5
f 9/9/9 8/8/8 5/5/5
f 10/10/10 8/8/8 9/9/9
f 11/11/11 10/10/10 9/9/9
f 10/10/10 11/11/11 12/12/12
f 13/13/13 5/5/5 2/2/2
f 9/9/9 5/5/5 13/13/13
f 11/11/11 14/14/14 12/12/12
f 12/12/12 14/14/14 15/15/15
f 15/15/15 14/14/14 16/16/16
f 17/17/17 16/16/16 14/14/14
f 11/11/11 17/17/17 14/14/14
f 13/13/13 2/2/2 18/18/18
f 2/2/2 19/19/19 18/18/18
f 20/20/20 9/9/9 13/13/13
f 9/9/9 20/20/20 11/11/11
f 11/11/11 21/21/21 17/17/17
f 21/21/21 22/22/22 17/17/17
f 18/18/18 19/19/19 23/23/23
f 19/19/19 24/24/24 23/23/23
f 18/18/18 23/23/23 25/25/25
f 13/13/13 18/18/18 26/26/26
f 20/20/20 13/13/13 26/26/26
f 26/26/26 18/18/18 25/25/25
f 26/26/26 25/25/25 27/27/27
f 25/25/25 28/28/28 27/27/27
f 27/27/27 28/28/28 29/29/29
f 20/20/20 30/30/30 11/11/11
f 20/20/20 26/26/26 30/30/30
f 21/21/21 11/11/11 30/30/30
f 26/26/26 27/27/27 30/30/30
f 22/22/22 21/21/21 31/31/31
f 32/32/32 22/22/22 31/31/31
f 32/32/32 31/31/31 33/33/33
f 34/34/34 32/32/32 33/33/33
f 34/34/34 33/33/33 35/35/35
f 33/33/33 36/36/36 35/35/35
f 37/37/37 36/36/36 33/33/33
f 38/38/38 21/21/21 30/30/30
f 31/31/31 21/21/21 38/38/38
f 38/38/38 30/30/30 27/27/27
f 39/39/39 37/37/37 33/33/33
f 40/40/40 37/37/37 39/39/39
f 33/33/33 31/31/31 41/41/41
f 41/41/41 31/31/31 38/38/38
f 39/39/39 33/33/33 41/41/41
f 41/41/41 38/38/38 42/42/42
f 42/42/42 38/38/38 27/27/27
f 39/39/39 41/41/41 43/43/43
f 43/43/43 41/41/41 42/42/42
f 44/44/44 40/40/40 39/39/39
f 44/44/44 39/39/39 43/43/43
f 44/44/44 45/45/45 40/40/40
f 44/44/44 43/43/43 45/45/45
f 45/45/45 46/46/46 40/40/40
f 43/43/43 47/47/47 45/45/45
f 43/43/43 42/42/42 47/47/47
f 42/42/42 48/48/48 47/47/47
f 42/42/42 27/27/27 48/48/48
f 27/27/27 49/49/49 48/48/48
f 49/49/49 27/27/27 50/50/50
f 50/50/50 27/27/27 29/29/29
f 51/51/51 49/49/49 50/50/50
f 52/52/52 50/50/50 29/29/29
f 52/52/52 51/51/51 50/50/50
f 55/55/55 54/54/54 53/53/53
f 56/56/56 55/55/55 53/53/53
f 53/53/53 57/57/57 56/56/56
f 55/55/55 56/56/56 58/58/58
f 57/57/57 59/59/59 56/56/56
f 59/59/59 57/57/57 60/60/60
f 56/56/56 61/61/61 58/58/58
f 56/56/56 59/59/59 61/61/61
f 58/58/58 61/61/61 62/62/62
f 63/63/63 59/59/59 60/60/60
f 63/63/63 60/60/60 64/64/64
f 65/65/65 63/63/63 64/64/64
f 65/65/65 66/66/66 63/63/63
f 66/66/66 67/67/67 63/63/63
f 63/63/63 67/67/67 59/59/59
f 66/66/66 68/68/68 67/67/67
f 68/68/68 69/69/69 67/67/67
f 67/67/67 70/70/70 59/59/59
f 67/67/67 69/69/69 70/70/70
f 59/59/59 70/70/70 61/61/61
f 69/69/69 71/71/71 70/70/70
f 70/70/70 71/71/71 72/72/72
f 61/61/61 70/70/70 72/72/72
f 61/61/61 72/72/72 62/62/62
f 62/62/62 72/72/72 73/73/73
f 74/74/74 62/62/62 73/73/73
