g Bg_Forest_OBJ_Root_05
v 0.013559572 2.1497831 -0.00013583421
v 0.0031107354 2.1520889 0.010091207
v -0.0072993445 2.1516967 -0.00051365135
v 0.0031485774 2.14939 -0.010740704
v 0.0004710821 1.9996448 0.0031766891
v 0.019191088 2.000347 0.02211587
v 0.013559572 2.1497831 -0.00013583421
v 0.019991167 1.8455086 0.0036393343
v -0.018400988 2.0037687 0.021509804
v -0.0047115264 1.8445894 -0.021183042
v 0.00031872306 2.0044723 0.040448997
v 0.0031107354 2.1520889 0.010091207
v 0.019191088 2.000347 0.02211587
v 0.013559572 2.1497831 -0.00013583421
v 0.019991167 1.8455086 0.0036393343
v -0.005008013 1.8509241 0.027759213
v 0.013326663 1.6344479 -0.05357642
v 0.061219443 1.6484916 0.0003005314
v -0.029703358 1.8500055 0.002934997
v -0.039069664 1.6338613 -0.0073300814
v -0.059241254 1.318597 0.037895963
v 0.008858374 1.6479276 0.046545044
v 0.061219443 1.6484916 0.0003005314
v 0.021280834 1.3116899 -0.030480504
v 0.09628654 1.3264035 0.05245102
v 0.11222715 0.9693282 0.08915215
v 0.015834298 1.3333541 0.12082016
v 0.09628654 1.3264035 0.05245102
v 0.11222715 0.9693282 0.08915215
v 0.033615258 0.959692 -0.008316106
v 0.14437245 0.5889078 0.11178209
v 0.022718724 0.98438466 0.15301506
v 0.14437245 0.5889078 0.11178209
v 0.0046061175 0.5566614 -0.0073323725
v 0.08798027 0.2540477 0.10897703
v -0.056176852 0.97457725 0.07786126
v -0.02014375 0.61703527 0.22912578
v -0.022145538 0.24942425 0.25257874
v 0.08798027 0.2540477 0.10897703
v -0.008516478 0.07591551 0.28017983
v 0.06776459 0.08261841 0.08780211
v 0.04099652 -0.13818617 0.047589105
v -0.16116457 0.58375955 0.08118882
v -0.15971226 0.25355396 0.15294124
v -0.0410524 0.25451496 0.0014364242
v 0.06776459 0.08261841 0.08780211
v -0.03775345 0.06042667 -0.0137558915
v 0.04099652 -0.13818617 0.047589105
v -0.061411828 -0.13649763 0.23804198
v 0.015989384 -0.45737424 0.05910278
v -0.26933032 0.07338951 0.16402039
v -0.22263618 -0.13316144 0.15722108
v -0.090632915 -0.42895997 0.25201598
v -0.007240543 -0.73019207 0.030000677
v -0.10754688 -0.74158955 0.2370954
v -0.25103575 -0.3896344 0.16614565
v -0.2543883 -0.72401315 0.14602731
v -0.119949594 -0.13478231 -0.032884512
v -0.14427063 -0.41802427 -0.026691271
v 0.015989384 -0.45737424 0.05910278
v -0.044650394 -0.7372898 -0.036450204
v -0.007240543 -0.73019207 0.030000677
v -0.00922121 -1.1301868 0.057581004
v -0.16641681 -0.73437905 -0.05912834
v -0.10021677 -1.1321787 -0.044797737
v -0.035394028 -1.5449237 -0.006089727
v -0.17568676 -1.1561992 0.068871886
v -0.112580985 -1.5209717 -0.074466184
v -0.08493822 -1.1544278 0.15511498
v -0.10754688 -0.74158955 0.2370954
v -0.00922121 -1.1301868 0.057581004
v -0.035394028 -1.5449237 -0.006089727
v -0.1118889 -1.5432992 0.07683446
v -0.13591275 -1.7743092 -0.07904034
v -0.0846009 -1.7849313 -0.032794025
v -0.18899837 -1.5193199 0.00846533
v -0.18569988 -1.7777956 -0.025163386
v -0.14330499 -2.0317407 -0.008675401
v -0.13442771 -1.7884321 0.02108111
v -0.0846009 -1.7849313 -0.032794025
v -0.12013907 -2.0231142 -0.033497825
v -0.09471032 -2.0204122 -0.009379746
v -0.086183116 -2.162281 -0.039323006
v -0.117869325 -2.0290358 0.01544445
v -0.09471032 -2.0204122 -0.009379746
v -0.086183116 -2.162281 -0.039323006
v -0.10539601 -2.1642892 -0.05765617
v -0.08033071 -2.2817307 -0.054150846
v -0.0853226 -2.2888873 -0.06437792
v -0.10373586 -2.168825 -0.020383822
v -0.08033071 -2.2817307 -0.054150846
v -0.09372713 -2.2861178 -0.044908453
v -0.1229494 -2.1708317 -0.038716957
v -0.09508389 -2.2925289 -0.053773053
v -0.09508389 -2.2925289 -0.053773053
v -0.09372713 -2.2861178 -0.044908453
v -0.08033071 -2.2817307 -0.054150846
v -0.0853226 -2.2888873 -0.06437792
vt 7.7734375 -2.0605469
vt 7.7773438 -2.0585938
vt 7.78125 -2.0625
vt 7.7773438 -2.0644531
vt 7.7734375 -2.109375
vt 7.765625 -2.1074219
vt 7.7695312 -2.0644531
vt 7.7539062 -2.1503906
vt 7.78125 -2.1074219
vt 7.765625 -2.1542969
vt 7.7851562 -2.1074219
vt 7.7890625 -2.0625
vt 7.7929688 -2.109375
vt 7.7929688 -2.0664062
vt 7.8007812 -2.1523438
vt 7.7890625 -2.1523438
vt 7.7460938 -2.2421875
vt 7.71875 -2.2363281
vt 7.7773438 -2.1542969
vt 7.7734375 -2.2402344
vt 7.7695312 -2.359375
vt 7.8007812 -2.2421875
vt 7.828125 -2.2402344
vt 7.71875 -2.34375
vt 7.6679688 -2.3320312
vt 7.671875 -2.5742188
vt 7.8242188 -2.3515625
vt 7.8710938 -2.3398438
vt 7.8515625 -2.5820312
vt 7.7148438 -2.59375
vt 7.5820312 -2.8320312
vt 7.8085938 -2.5976562
vt 7.921875 -2.84375
vt 7.6757812 -2.8613281
vt 7.5820312 -2.9941406
vt 7.7617188 -2.6113281
vt 7.8320312 -2.8359375
vt 7.84375 -3
vt 7.9414062 -3.0019531
vt 7.8476562 -3.0839844
vt 7.953125 -3.0800781
vt 7.9648438 -3.1601562
vt 7.7539062 -2.8496094
vt 7.7617188 -3.0175781
vt 7.671875 -3.0214844
vt 7.5859375 -3.0761719
vt 7.671875 -3.1015625
vt 7.5859375 -3.15625
vt 7.8515625 -3.1660156
vt 7.96875 -3.3183594
vt 7.765625 -3.0996094
vt 7.7695312 -3.1835938
vt 7.859375 -3.3085938
vt 7.9609375 -3.4277344
vt 7.8632812 -3.4238281
vt 7.7734375 -3.3046875
vt 7.7734375 -3.4550781
vt 7.671875 -3.1796875
vt 7.6601562 -3.3203125
vt 7.5585938 -3.3164062
vt 7.6289062 -3.4238281
vt 7.578125 -3.4238281
vt 7.6484375 -3.640625
vt 7.6640625 -3.4492188
vt 7.6992188 -3.6582031
vt 7.6835938 -3.8222656
vt 7.7695312 -3.6855469
vt 7.71875 -3.8320312
vt 7.8320312 -3.6738281
vt 7.8632812 -3.4238281
vt 7.8984375 -3.6601562
vt 7.8476562 -3.8339844
vt 7.796875 -3.8378906
vt 7.7304688 -3.9570312
vt 7.703125 -3.9589844
vt 7.765625 -3.8417969
vt 7.7578125 -3.9707031
vt 7.7539062 -4.0664062
vt 7.78125 -3.9746094
vt 7.8085938 -3.9765625
vt 7.734375 -4.0664062
vt 7.7109375 -4.0585938
vt 7.7109375 -4.1132812
vt 7.7695312 -4.0742188
vt 7.7929688 -4.0742188
vt 7.7890625 -4.125
vt 7.7304688 -4.1171875
vt 7.7070312 -4.1601562
vt 7.7265625 -4.1640625
vt 7.7695312 -4.125
vt 7.7890625 -4.171875
vt 7.7695312 -4.171875
vt 7.7539062 -4.1171875
vt 7.75 -4.1640625
vt 0.036987305 0.040649414
vt 0.038238525 0.0154953
vt 0 0.020843506
vt 0.0046424866 0.051239014
vn 0.83447266 0.54589844 -0.074645996
vn 0.024795532 0.7006836 0.7133789
vn -0.76416016 0.6381836 -0.09301758
vn 0.030258179 0.4802246 -0.87646484
vn 0.019210815 0.041534424 -0.99902344
vn 0.9975586 0.013069153 0.06829834
vn 0.83447266 0.54589844 -0.074645996
vn 0.99316406 0.117248535 0.0023975372
vn -0.99658203 0.06738281 0.04626465
vn -0.00050735474 0.1517334 -0.98828125
vn -0.0040359497 0.064697266 0.9980469
vn 0.024795532 0.7006836 0.7133789
vn 0.9975586 0.013069153 0.06829834
vn 0.83447266 0.54589844 -0.074645996
vn 0.99316406 0.117248535 0.0023975372
vn -0.05319214 -0.0042419434 0.99853516
vn 0.05987549 0.035369873 -0.9975586
vn 0.9873047 0.1583252 0.0008444786
vn -0.99658203 0.06616211 -0.046936035
vn -0.99316406 0.049438477 -0.10510254
vn -0.99902344 0.018157959 -0.04537964
vn -0.051513672 0.16064453 0.98583984
vn 0.9873047 0.1583252 0.0008444786
vn 0.061950684 -0.07116699 -0.99560547
vn 0.9926758 0.08465576 0.08691406
vn 0.99365234 0.057495117 0.09637451
vn -0.068115234 0.16662598 0.9838867
vn 0.9926758 0.08465576 0.08691406
vn 0.99365234 0.057495117 0.09637451
vn 0.105041504 -0.008728027 -0.9946289
vn 0.99902344 -0.023330688 0.03894043
vn -0.049926758 0.1541748 0.9868164
vn 0.99902344 -0.023330688 0.03894043
vn 0.06329346 -0.037139893 -0.9970703
vn 0.99609375 -0.043548584 -0.07476807
vn -0.9921875 0.11126709 -0.053619385
vn -0.05859375 0.13085938 0.9897461
vn 0.1027832 0.05206299 0.99316406
vn 0.99609375 -0.043548584 -0.07476807
vn 0.3413086 -0.053588867 0.93847656
vn 0.9760742 -0.07495117 -0.20385742
vn 0.9375 -0.12841797 -0.32299805
vn -0.9868164 0.12426758 -0.10571289
vn -0.9716797 0.21130371 0.10784912
vn -0.078186035 -0.026794434 -0.99658203
vn 0.9760742 -0.07495117 -0.20385742
vn 0.0070114136 0.097595215 -0.9951172
vn 0.9375 -0.12841797 -0.32299805
vn 0.29125977 -0.10192871 0.9511719
vn 0.9760742 -0.02708435 -0.21679688
vn -0.98339844 0.13928223 0.11505127
vn -0.96728516 0.055145264 0.24682617
vn 0.26831055 -0.037200928 0.96240234
vn 0.99072266 0.0022125244 -0.13513184
vn 0.20788574 -0.13586426 0.96875
vn -0.94970703 0.0725708 0.30395508
vn -0.9609375 -0.088134766 0.2626953
vn -0.3071289 0.14782715 -0.9399414
vn -0.30029297 0.06732178 -0.95166016
vn 0.9760742 -0.02708435 -0.21679688
vn 0.58251953 0.03048706 -0.8125
vn 0.99072266 0.0022125244 -0.13513184
vn 0.9941406 -0.05883789 -0.09020996
vn -0.4013672 -0.007785797 -0.9160156
vn -0.13537598 -0.016174316 -0.99072266
vn 0.9892578 -0.13244629 -0.06530762
vn -0.9824219 -0.11010742 0.1496582
vn -0.038848877 0.066833496 -0.9970703
vn 0.1616211 -0.18432617 0.9692383
vn 0.20788574 -0.13586426 0.96875
vn 0.9941406 -0.05883789 -0.09020996
vn 0.9892578 -0.13244629 -0.06530762
vn 0.05026245 -0.20605469 0.9770508
vn -0.075927734 -0.07208252 -0.9946289
vn 0.9873047 -0.124572754 -0.1003418
vn -0.99853516 -0.0059776306 0.05496216
vn -0.99609375 -0.08911133 -0.0107421875
vn -0.98291016 -0.15759277 0.09265137
vn 0.00051784515 -0.12536621 0.9921875
vn 0.9873047 -0.124572754 -0.1003418
vn -0.049987793 -0.02029419 -0.99853516
vn 0.9995117 0.00818634 0.025512695
vn 0.9980469 0.061523438 -0.022567749
vn 0.041290283 -0.13134766 0.9902344
vn 0.9995117 0.00818634 0.025512695
vn 0.9980469 0.061523438 -0.022567749
vn -0.03262329 0.10406494 -0.9941406
vn 0.9946289 0.0619812 -0.08099365
vn -0.23022461 0.005657196 -0.97314453
vn 0.018966675 -0.22814941 0.9736328
vn 0.9946289 0.0619812 -0.08099365
vn -0.2685547 -0.23156738 0.9350586
vn -0.984375 -0.17321777 -0.027328491
vn -0.9458008 -0.16992188 -0.27685547
vn 0.5595703 -0.7519531 0.34838867
vn 0.5595703 -0.7519531 0.34838867
vn 0.5595703 -0.7519531 0.34838867
vn 0.5595703 -0.7519531 0.34838867
g Bg_Forest_OBJ_Root_05_0
f 3/3/3 2/2/2 1/1/1
f 4/4/4 3/3/3 1/1/1
f 3/3/3 4/4/4 5/5/5
f 5/5/5 4/4/4 6/6/6
f 4/4/4 7/7/7 6/6/6
f 6/6/6 8/8/8 5/5/5
f 9/9/9 3/3/3 5/5/5
f 8/8/8 10/10/10 5/5/5
f 5/5/5 10/10/10 9/9/9
f 9/9/9 11/11/11 3/3/3
f 11/11/11 12/12/12 3/3/3
f 11/11/11 13/13/13 12/12/12
f 13/13/13 14/14/14 12/12/12
f 15/15/15 13/13/13 11/11/11
f 16/16/16 11/11/11 9/9/9
f 16/16/16 15/15/15 11/11/11
f 17/17/17 10/10/10 8/8/8
f 18/18/18 17/17/17 8/8/8
f 10/10/10 19/19/19 9/9/9
f 19/19/19 16/16/16 9/9/9
f 20/20/20 19/19/19 10/10/10
f 16/16/16 19/19/19 20/20/20
f 17/17/17 20/20/20 10/10/10
f 21/21/21 20/20/20 17/17/17
f 15/15/15 16/16/16 22/22/22
f 22/22/22 16/16/16 20/20/20
f 22/22/22 20/20/20 21/21/21
f 23/23/23 15/15/15 22/22/22
f 24/24/24 17/17/17 18/18/18
f 24/24/24 21/21/21 17/17/17
f 25/25/25 24/24/24 18/18/18
f 24/24/24 25/25/25 26/26/26
f 23/23/23 22/22/22 27/27/27
f 27/27/27 22/22/22 21/21/21
f 28/28/28 23/23/23 27/27/27
f 29/29/29 28/28/28 27/27/27
f 30/30/30 24/24/24 26/26/26
f 21/21/21 24/24/24 30/30/30
f 30/30/30 26/26/26 31/31/31
f 32/32/32 29/29/29 27/27/27
f 32/32/32 27/27/27 21/21/21
f 33/33/33 29/29/29 32/32/32
f 34/34/34 30/30/30 31/31/31
f 34/34/34 31/31/31 35/35/35
f 36/36/36 21/21/21 30/30/30
f 36/36/36 32/32/32 21/21/21
f 36/36/36 30/30/30 34/34/34
f 37/37/37 33/33/33 32/32/32
f 37/37/37 32/32/32 36/36/36
f 33/33/33 37/37/37 38/38/38
f 39/39/39 33/33/33 38/38/38
f 39/39/39 38/38/38 40/40/40
f 41/41/41 39/39/39 40/40/40
f 42/42/42 41/41/41 40/40/40
f 43/43/43 37/37/37 36/36/36
f 37/37/37 43/43/43 38/38/38
f 43/43/43 36/36/36 34/34/34
f 43/43/43 44/44/44 38/38/38
f 43/43/43 34/34/34 44/44/44
f 40/40/40 38/38/38 44/44/44
f 45/45/45 34/34/34 35/35/35
f 34/34/34 45/45/45 44/44/44
f 45/45/45 35/35/35 46/46/46
f 47/47/47 45/45/45 46/46/46
f 47/47/47 44/44/44 45/45/45
f 46/46/46 48/48/48 47/47/47
f 49/49/49 42/42/42 40/40/40
f 50/50/50 42/42/42 49/49/49
f 51/51/51 40/40/40 44/44/44
f 51/51/51 44/44/44 47/47/47
f 52/52/52 40/40/40 51/51/51
f 49/49/49 40/40/40 52/52/52
f 52/52/52 51/51/51 47/47/47
f 53/53/53 50/50/50 49/49/49
f 53/53/53 49/49/49 52/52/52
f 50/50/50 53/53/53 54/54/54
f 53/53/53 55/55/55 54/54/54
f 53/53/53 56/56/56 55/55/55
f 56/56/56 53/53/53 52/52/52
f 56/56/56 57/57/57 55/55/55
f 58/58/58 52/52/52 47/47/47
f 48/48/48 58/58/58 47/47/47
f 56/56/56 52/52/52 58/58/58
f 59/59/59 58/58/58 48/48/48
f 59/59/59 56/56/56 58/58/58
f 56/56/56 59/59/59 57/57/57
f 60/60/60 59/59/59 48/48/48
f 59/59/59 60/60/60 61/61/61
f 60/60/60 62/62/62 61/61/61
f 61/61/61 62/62/62 63/63/63
f 59/59/59 61/61/61 64/64/64
f 61/61/61 63/63/63 64/64/64
f 59/59/59 64/64/64 57/57/57
f 63/63/63 65/65/65 64/64/64
f 64/64/64 65/65/65 57/57/57
f 63/63/63 66/66/66 65/65/65
f 65/65/65 67/67/67 57/57/57
f 66/66/66 68/68/68 65/65/65
f 65/65/65 68/68/68 67/67/67
f 57/57/57 67/67/67 69/69/69
f 70/70/70 57/57/57 69/69/69
f 70/70/70 69/69/69 71/71/71
f 54/54/54 70/70/70 71/71/71
f 71/71/71 69/69/69 72/72/72
f 69/69/69 67/67/67 73/73/73
f 69/69/69 73/73/73 72/72/72
f 68/68/68 66/66/66 74/74/74
f 66/66/66 75/75/75 74/74/74
f 68/68/68 76/76/76 67/67/67
f 67/67/67 76/76/76 73/73/73
f 76/76/76 68/68/68 77/77/77
f 76/76/76 77/77/77 73/73/73
f 68/68/68 74/74/74 77/77/77
f 77/77/77 74/74/74 78/78/78
f 73/73/73 79/79/79 72/72/72
f 77/77/77 79/79/79 73/73/73
f 77/77/77 78/78/78 79/79/79
f 79/79/79 80/80/80 72/72/72
f 74/74/74 75/75/75 81/81/81
f 74/74/74 81/81/81 78/78/78
f 75/75/75 82/82/82 81/81/81
f 81/81/81 82/82/82 83/83/83
f 79/79/79 84/84/84 80/80/80
f 78/78/78 84/84/84 79/79/79
f 84/84/84 85/85/85 80/80/80
f 85/85/85 84/84/84 86/86/86
f 87/87/87 81/81/81 83/83/83
f 78/78/78 81/81/81 87/87/87
f 83/83/83 88/88/88 87/87/87
f 88/88/88 89/89/89 87/87/87
f 84/84/84 90/90/90 86/86/86
f 84/84/84 78/78/78 90/90/90
f 86/86/86 90/90/90 91/91/91
f 90/90/90 92/92/92 91/91/91
f 93/93/93 78/78/78 87/87/87
f 87/87/87 89/89/89 93/93/93
f 78/78/78 93/93/93 90/90/90
f 90/90/90 93/93/93 92/92/92
f 89/89/89 94/94/94 93/93/93
f 93/93/93 94/94/94 92/92/92
f 97/97/97 96/96/96 95/95/95
f 98/98/98 97/97/97 95/95/95
