g Forest_OBJ_Level_Set_01_mesh
v -42.081028 -0.0070004785 -53.39846
v -42.081028 -0.0070004785 -52.07953
v -42.52297 -0.0070004333 -52.07953
v -42.52297 -0.0070004333 -53.39846
v -42.52297 -0.0070004333 -53.39846
v -42.52297 -0.037000436 -53.39846
v -42.081028 -0.03700048 -53.39846
v -42.081028 -0.0070004785 -53.39846
v -42.52297 -0.0070004333 -52.07953
v -42.52297 -0.037000436 -52.07953
v -42.52297 -0.037000436 -53.39846
v -42.52297 -0.0070004333 -53.39846
v -42.081028 -0.0070004785 -52.07953
v -42.081028 -0.03700048 -52.07953
v -42.52297 -0.037000436 -52.07953
v -42.52297 -0.0070004333 -52.07953
v -42.081028 -0.0070004785 -53.39846
v -42.081028 -0.03700048 -53.39846
v -42.081028 -0.03700048 -52.07953
v -42.081028 -0.0070004785 -52.07953
v -42.081028 -0.013000479 -54.70946
v -42.081028 -0.013000479 -53.39053
v -42.52297 -0.013000434 -53.39053
v -42.52297 -0.013000434 -54.70946
v -42.52297 -0.013000434 -54.70946
v -42.52297 -0.043000437 -54.70946
v -42.081028 -0.043000482 -54.70946
v -42.081028 -0.013000479 -54.70946
v -42.52297 -0.013000434 -53.39053
v -42.52297 -0.043000437 -53.39053
v -42.52297 -0.043000437 -54.70946
v -42.52297 -0.013000434 -54.70946
v -42.081028 -0.013000479 -53.39053
v -42.081028 -0.043000482 -53.39053
v -42.52297 -0.043000437 -53.39053
v -42.52297 -0.013000434 -53.39053
v -42.081028 -0.013000479 -54.70946
v -42.081028 -0.043000482 -54.70946
v -42.081028 -0.043000482 -53.39053
v -42.081028 -0.013000479 -53.39053
v -42.081028 -0.0070004785 -55.96546
v -42.081028 -0.0070004785 -54.64653
v -42.52297 -0.0070004333 -54.64653
v -42.52297 -0.0070004333 -55.96546
v -42.52297 -0.0070004333 -55.96546
v -42.52297 -0.037000436 -55.96546
v -42.081028 -0.03700048 -55.96546
v -42.081028 -0.0070004785 -55.96546
v -42.52297 -0.0070004333 -54.64653
v -42.52297 -0.037000436 -54.64653
v -42.52297 -0.037000436 -55.96546
v -42.52297 -0.0070004333 -55.96546
v -42.081028 -0.0070004785 -54.64653
v -42.081028 -0.03700048 -54.64653
v -42.52297 -0.037000436 -54.64653
v -42.52297 -0.0070004333 -54.64653
v -42.081028 -0.0070004785 -55.96546
v -42.081028 -0.03700048 -55.96546
v -42.081028 -0.03700048 -54.64653
v -42.081028 -0.0070004785 -54.64653
vt 0.21323955 0.8753092
vt 0.21323955 1.0008926
vt 0.2498121 1.0008926
vt 0.2498121 0.8753092
vt 0.25237218 0.92913836
vt 0.2531915 0.92913836
vt 0.2531915 0.9187645
vt 0.25237218 0.9187645
vt 0.25237218 0.96536994
vt 0.2531915 0.96536994
vt 0.2531915 0.92913836
vt 0.25237218 0.92913836
vt 0.25237218 0.8825328
vt 0.2531915 0.8825328
vt 0.2531915 0.87215877
vt 0.25237218 0.87215877
vt 0.25237218 0.9187645
vt 0.2531915 0.9187645
vt 0.2531915 0.8825328
vt 0.25237218 0.8825328
vt 0.21323955 0.8753092
vt 0.21323955 1.0008926
vt 0.2498121 1.0008926
vt 0.2498121 0.8753092
vt 0.25237218 0.92913836
vt 0.2531915 0.92913836
vt 0.2531915 0.9187645
vt 0.25237218 0.9187645
vt 0.25237218 0.96536994
vt 0.2531915 0.96536994
vt 0.2531915 0.92913836
vt 0.25237218 0.92913836
vt 0.25237218 0.8825328
vt 0.2531915 0.8825328
vt 0.2531915 0.87215877
vt 0.25237218 0.87215877
vt 0.25237218 0.9187645
vt 0.2531915 0.9187645
vt 0.2531915 0.8825328
vt 0.25237218 0.8825328
vt 0.21323955 0.8753092
vt 0.21323955 1.0008926
vt 0.2498121 1.0008926
vt 0.2498121 0.8753092
vt 0.25237218 0.92913836
vt 0.2531915 0.92913836
vt 0.2531915 0.9187645
vt 0.25237218 0.9187645
vt 0.25237218 0.96536994
vt 0.2531915 0.96536994
vt 0.2531915 0.92913836
vt 0.25237218 0.92913836
vt 0.25237218 0.8825328
vt 0.2531915 0.8825328
vt 0.2531915 0.87215877
vt 0.25237218 0.87215877
vt 0.25237218 0.9187645
vt 0.2531915 0.9187645
vt 0.2531915 0.8825328
vt 0.25237218 0.8825328
vn 1.0186463E-07 1 1.2143208E-14
vn 1.0186463E-07 1 1.2143208E-14
vn 1.0186463E-07 1 1.2143208E-14
vn 1.0186463E-07 1 1.2143208E-14
vn 1.19209275E-07 0 -1
vn 1.19209275E-07 0 -1
vn 1.19209275E-07 0 -1
vn 1.19209275E-07 0 -1
vn -1 1.3950722E-07 -1.19209275E-07
vn -1 1.3950722E-07 -1.19209275E-07
vn -1 1.3950722E-07 -1.19209275E-07
vn -1 1.3950722E-07 -1.19209275E-07
vn -1.19209275E-07 0 1
vn -1.19209275E-07 0 1
vn -1.19209275E-07 0 1
vn -1.19209275E-07 0 1
vn 1 -1.3950722E-07 1.19209275E-07
vn 1 -1.3950722E-07 1.19209275E-07
vn 1 -1.3950722E-07 1.19209275E-07
vn 1 -1.3950722E-07 1.19209275E-07
vn 1.0186463E-07 1 1.2143208E-14
vn 1.0186463E-07 1 1.2143208E-14
vn 1.0186463E-07 1 1.2143208E-14
vn 1.0186463E-07 1 1.2143208E-14
vn 1.19209275E-07 0 -1
vn 1.19209275E-07 0 -1
vn 1.19209275E-07 0 -1
vn 1.19209275E-07 0 -1
vn -1 1.3950722E-07 -1.19209275E-07
vn -1 1.3950722E-07 -1.19209275E-07
vn -1 1.3950722E-07 -1.19209275E-07
vn -1 1.3950722E-07 -1.19209275E-07
vn -1.19209275E-07 0 1
vn -1.19209275E-07 0 1
vn -1.19209275E-07 0 1
vn -1.19209275E-07 0 1
vn 1 -1.3950722E-07 1.19209275E-07
vn 1 -1.3950722E-07 1.19209275E-07
vn 1 -1.3950722E-07 1.19209275E-07
vn 1 -1.3950722E-07 1.19209275E-07
vn 1.0186463E-07 1 1.2143208E-14
vn 1.0186463E-07 1 1.2143208E-14
vn 1.0186463E-07 1 1.2143208E-14
vn 1.0186463E-07 1 1.2143208E-14
vn 1.19209275E-07 0 -1
vn 1.19209275E-07 0 -1
vn 1.19209275E-07 0 -1
vn 1.19209275E-07 0 -1
vn -1 1.3950722E-07 -1.19209275E-07
vn -1 1.3950722E-07 -1.19209275E-07
vn -1 1.3950722E-07 -1.19209275E-07
vn -1 1.3950722E-07 -1.19209275E-07
vn -1.19209275E-07 0 1
vn -1.19209275E-07 0 1
vn -1.19209275E-07 0 1
vn -1.19209275E-07 0 1
vn 1 -1.3950722E-07 1.19209275E-07
vn 1 -1.3950722E-07 1.19209275E-07
vn 1 -1.3950722E-07 1.19209275E-07
vn 1 -1.3950722E-07 1.19209275E-07
g Forest_OBJ_Level_Set_01_mesh_0
f 3/3/3 2/2/2 1/1/1
f 4/4/4 3/3/3 1/1/1
f 7/7/7 6/6/6 5/5/5
f 8/8/8 7/7/7 5/5/5
f 11/11/11 10/10/10 9/9/9
f 12/12/12 11/11/11 9/9/9
f 15/15/15 14/14/14 13/13/13
f 16/16/16 15/15/15 13/13/13
f 19/19/19 18/18/18 17/17/17
f 20/20/20 19/19/19 17/17/17
f 23/23/23 22/22/22 21/21/21
f 24/24/24 23/23/23 21/21/21
f 27/27/27 26/26/26 25/25/25
f 28/28/28 27/27/27 25/25/25
f 31/31/31 30/30/30 29/29/29
f 32/32/32 31/31/31 29/29/29
f 35/35/35 34/34/34 33/33/33
f 36/36/36 35/35/35 33/33/33
f 39/39/39 38/38/38 37/37/37
f 40/40/40 39/39/39 37/37/37
f 43/43/43 42/42/42 41/41/41
f 44/44/44 43/43/43 41/41/41
f 47/47/47 46/46/46 45/45/45
f 48/48/48 47/47/47 45/45/45
f 51/51/51 50/50/50 49/49/49
f 52/52/52 51/51/51 49/49/49
f 55/55/55 54/54/54 53/53/53
f 56/56/56 55/55/55 53/53/53
f 59/59/59 58/58/58 57/57/57
f 60/60/60 59/59/59 57/57/57
