g Bg_Hospital_STR_Base_Wall_03
v 0.35132203 2.4999976 0.32681152
v 0.29935303 2.4308906 0.39999998
v 0.22707458 2.4999976 0.39999998
v 0.3703314 2.3999975 0.39999998
v 0.29935303 2.4308906 0.39999998
v 0.35132203 2.4999976 0.32681152
v 0.35132203 2.4999976 0.32681152
v 0.41972166 2.4273891 0.3174756
v 0.3703314 2.3999975 0.39999998
v 0.3703314 2.2999976 0.39999998
v 0.44082642 2.456781 0.28221342
v 0.44082642 2.2999976 0.28221342
v 0.3703314 2.3999975 0.39999998
v 0.41972166 2.4273891 0.3174756
v 0.3703314 2.2999976 0.39999998
v 0.41972166 2.4273891 0.3174756
v 0.44082642 2.456781 0.28221342
v 0.44082642 2.2999976 0.28221342
v 0.41419432 2.4999976 0.18582489
v 0.41419432 2.2999976 0.18582489
v 0.41419432 2.4999976 0.18582489
v 0.44082642 2.2999976 0.28221342
v 0.44082642 2.456781 0.28221342
v 0.44082642 2.456781 0.28221342
v 0.40404478 2.4999976 0.24183929
v 0.41419432 2.4999976 0.18582489
v 0.44082642 2.456781 0.28221342
v 0.41972166 2.4273891 0.3174756
v 0.35132203 2.4999976 0.32681152
v 0.35132203 2.4999976 0.32681152
v 0.40404478 2.4999976 0.24183929
v 0.44082642 2.456781 0.28221342
v 0.44082642 2.2999976 0.28221342
v 0.099999994 2.2999976 0.39999998
v 0.3703314 2.2999976 0.39999998
v 0.41419432 2.2999976 0.18582489
v 0.4562036 2.2999976 0.0950769
v 0.7294287 2.2999976 -0.19999969
v 0.099999994 2.2999976 -0.19999969
v 0.4562036 2.2999976 0.0950769
v 0.4562036 2.2999976 0.0950769
v 0.5974609 2.2999976 0.020499878
v 0.44082642 2.2999976 0.28221342
v 0.41419432 2.2999976 0.18582489
v 0.099999994 2.2999976 0.39999998
v 0.7294287 2.4999976 -0.19999969
v 2.1720715 2.4999995 -0.39999878
v 2.172069 2.5 -0.19999878
v 0.72943115 2.4999971 -0.39999968
v 0.5974609 2.2999976 0.020499878
v 0.7294287 2.4999976 -0.19999969
v 0.7294287 2.2999976 -0.19999969
v 0.5974609 2.4999976 0.020499878
v 0.41419432 2.2999976 0.18582489
v 0.4562036 2.4999976 0.0950769
v 0.4562036 2.2999976 0.0950769
v 0.41419432 2.4999976 0.18582489
v 0.5974609 2.4999976 0.020499878
v 0.4562036 2.2999976 0.0950769
v 0.4562036 2.4999976 0.0950769
v 0.5974609 2.2999976 0.020499878
v -0.099999994 1.4999975 0.3000003
v -0.099999994 2.2999976 0.39999998
v -0.0999707 1.4999951 0.39999023
v -0.099999994 2.2999976 0.3000003
v 0.29935303 2.4308906 0.39999998
v -2.84083 2.4999988 0.4000003
v 0.22707458 2.4999976 0.39999998
v 0.3703314 2.3999975 0.39999998
v -0.099999994 2.2999976 0.39999998
v -2.84083 2.2999988 0.39999998
v 0.099999994 2.2999976 0.39999998
v 0.3703314 2.2999976 0.39999998
v 0.099999994 2.2999976 0.39999998
v -0.0999707 1.4999951 0.39999023
v -0.099999994 2.2999976 0.39999998
v 0.1000293 1.4999951 0.39999023
v -0.099999994 2.2999976 0.39999998
v -2.84083 2.2999988 0.3000003
v -2.84083 2.2999988 0.39999998
v -0.099999994 2.2999976 0.3000003
v 0.1000293 1.4999951 0.39999023
v 0.099999994 2.2999976 -0.19999969
v 0.1000293 1.4999951 -0.20000991
v 0.099999994 2.2999976 0.39999998
v 0.7294287 2.4999976 -0.19999969
v 2.172069 2.3 -0.19999878
v 0.7294287 2.2999976 -0.19999969
v 2.172069 2.5 -0.19999878
v -2.84083 2.4999988 0.4000003
v 0.35132203 2.4999976 0.32681152
v 0.22707458 2.4999976 0.39999998
v 0.41419432 2.4999976 0.18582489
v 0.40404478 2.4999976 0.24183929
v 0.4562036 2.4999976 0.0950769
v 0.7294287 2.4999976 -0.19999969
v 0.5974609 2.4999976 0.020499878
v 0.72943115 2.4999971 -0.39999968
v -2.84083 2.499998 -0.39999998
v -2.84083 2.4999988 0.4000003
v -5.5684667 2.499997 -0.40000182
v -2.84083 2.499998 -0.39999998
v -5.5684667 2.4999976 0.39999846
v -5.5684667 2.4999976 0.39999846
v -2.84083 2.2999988 0.39999998
v -5.5684667 2.2999976 0.39999816
v -2.84083 2.4999988 0.4000003
v -5.5684667 2.2999976 0.39999816
v -2.84083 2.2999988 0.3000003
v -5.5684667 2.2999976 0.29999846
v -2.84083 2.2999988 0.39999998
v -6.5000024 2.4999902 0.40000182
v -5.5684667 2.2999976 0.39999816
v -6.5000024 2.2999902 0.40000153
v -5.5684667 2.4999976 0.39999846
v -6.5000024 2.2999902 0.40000153
v -5.5684667 2.2999976 0.29999846
v -6.5000024 2.2999902 0.30000183
v -5.5684667 2.2999976 0.39999816
v -5.5684667 2.4999976 0.39999846
v -6.5000024 2.4999895 -0.39999816
v -5.5684667 2.499997 -0.40000182
v -6.5000024 2.4999902 0.40000182
v 2.172069 2.5 -0.19999878
v 4.7841234 2.5000033 -0.39999968
v 4.784121 2.5000036 -0.19999969
v 2.1720715 2.4999995 -0.39999878
v 2.172069 2.5 -0.19999878
v 4.784121 2.3000035 -0.19999969
v 2.172069 2.3 -0.19999878
v 4.784121 2.5000036 -0.19999969
v 4.7841234 2.5000033 -0.39999968
v 6.499996 2.499995 -0.19999878
v 4.784121 2.5000036 -0.19999969
v 6.4999986 2.4999948 -0.39999878
v 4.784121 2.5000036 -0.19999969
v 6.499996 2.2999952 -0.19999878
v 4.784121 2.3000035 -0.19999969
v 6.499996 2.499995 -0.19999878
v -0.0999707 1.4999951 0.39999023
v -0.0999414 -2.5000024 -0.20002013
v -0.0999414 1.4999926 -0.20002013
v -0.0999414 -2.5000024 0.39998046
v -0.0999414 -2.5000024 0.39998046
v 0.1000293 1.4999951 0.39999023
v 0.10005859 -2.5000024 0.39998046
v -0.0999707 1.4999951 0.39999023
v 0.10005859 -2.5000024 -0.20002013
v 0.1000293 1.4999951 0.39999023
v 0.1000293 1.4999951 -0.20000991
v 0.10005859 -2.5000024 0.39998046
vt 0.4741211 0.44580078
vt 0.46972656 0.4555664
vt 0.47851562 0.4584961
vt 0.46362305 0.45166016
vt 0.46972656 0.4555664
vt 0.4741211 0.44580078
vt 0.4741211 0.44580078
vt 0.46533203 0.44262695
vt 0.46362305 0.45166016
vt 0.4543457 0.45239258
vt 0.4675293 0.4387207
vt 0.453125 0.43945312
vt 0.46362305 0.45166016
vt 0.46533203 0.44262695
vt 0.4543457 0.45239258
vt 0.46533203 0.44262695
vt 0.4675293 0.4387207
vt 0.453125 0.43945312
vt 0.47192383 0.43017578
vt 0.45336914 0.42993164
vt 0.47192383 0.43017578
vt 0.453125 0.43945312
vt 0.4675293 0.4387207
vt 0.4675293 0.4387207
vt 0.4729004 0.43603516
vt 0.47192383 0.43017578
vt 0.4675293 0.4387207
vt 0.46533203 0.44262695
vt 0.4741211 0.44580078
vt 0.4741211 0.44580078
vt 0.4729004 0.43603516
vt 0.4675293 0.4387207
vt 0.72802734 0.18945312
vt 0.7475586 0.12780762
vt 0.7475586 0.1776123
vt 0.71191406 0.18493652
vt 0.6972656 0.19189453
vt 0.6479492 0.23730469
vt 0.6479492 0.12780762
vt 0.6972656 0.19189453
vt 0.6972656 0.19189453
vt 0.6845703 0.21533203
vt 0.72802734 0.18945312
vt 0.71191406 0.18493652
vt 0.7475586 0.12780762
vt 0.5078125 0.15527344
vt 0.70654297 0.12780762
vt 0.70654297 0.15527344
vt 0.5078125 0.12780762
vt 0.45361328 0.40600586
vt 0.4724121 0.38232422
vt 0.45385742 0.38232422
vt 0.47216797 0.40600586
vt 0.45336914 0.42993164
vt 0.47192383 0.42089844
vt 0.45361328 0.4206543
vt 0.47192383 0.43017578
vt 0.47216797 0.40600586
vt 0.45361328 0.4206543
vt 0.47192383 0.42089844
vt 0.45361328 0.40600586
vt 0.5078125 0.24047852
vt 0.6479492 0.265625
vt 0.5078125 0.265625
vt 0.6479492 0.24047852
vt 0.56689453 0.24743652
vt 0.9995117 0.23803711
vt 0.57714844 0.23791504
vt 0.5571289 0.25170898
vt 0.6220703 0.265625
vt 0.9995117 0.265625
vt 0.5942383 0.265625
vt 0.5571289 0.265625
vt 0.6479492 0.23730469
vt 0.5078125 0.265625
vt 0.6479492 0.265625
vt 0.5078125 0.23730469
vt 0.6220703 0.265625
vt 0.9995117 0.2421875
vt 0.9995117 0.265625
vt 0.6220703 0.2421875
vt 0.5078125 0.23730469
vt 0.6479492 0.12780762
vt 0.5078125 0.12780762
vt 0.6479492 0.23730469
vt 0.48779297 0.4584961
vt 0.46923828 0.32470703
vt 0.46923828 0.4584961
vt 0.48779297 0.32470703
vt 0.9995117 0.23803711
vt 0.5600586 0.2277832
vt 0.57714844 0.23791504
vt 0.55126953 0.20837402
vt 0.5527344 0.21606445
vt 0.54541016 0.19592285
vt 0.5078125 0.15527344
vt 0.5258789 0.18554688
vt 0.5078125 0.12780762
vt 0.9995117 0.12780762
vt 0.62402344 0.23791504
vt 0.9995117 0.12780762
vt 0.62402344 0.12780762
vt 0.9995117 0.23803711
vt 0.9995117 0.23803711
vt 0.62402344 0.265625
vt 0.9995117 0.265625
vt 0.62402344 0.23791504
vt 0.9995117 0.265625
vt 0.62353516 0.2421875
vt 0.9995117 0.2421875
vt 0.62402344 0.265625
vt 0.7519531 0.23791504
vt 0.62402344 0.265625
vt 0.7519531 0.265625
vt 0.62402344 0.23791504
vt 0.7519531 0.265625
vt 0.62353516 0.2421875
vt 0.7519531 0.2421875
vt 0.62402344 0.265625
vt 0.62402344 0.23791504
vt 0.7519531 0.12780762
vt 0.62402344 0.12780762
vt 0.7519531 0.23791504
vt 0.5078125 0.15527344
vt 0.8671875 0.12780762
vt 0.8671875 0.15551758
vt 0.5078125 0.12780762
vt 0.48779297 0.4584961
vt 0.46948242 0.21643066
vt 0.46923828 0.4584961
vt 0.48779297 0.21643066
vt 0.5078125 0.12780762
vt 0.7426758 0.15539551
vt 0.5078125 0.15527344
vt 0.7426758 0.12780762
vt 0.48779297 0.4584961
vt 0.46948242 0.3005371
vt 0.46923828 0.4584961
vt 0.48779297 0.3005371
vt 0.99560547 0.23791504
vt 0.50390625 0.15612793
vt 0.99560547 0.15612793
vt 0.50390625 0.23791504
vt 0.50390625 0.26513672
vt 0.99560547 0.23791504
vt 0.50390625 0.23791504
vt 0.99560547 0.26513672
vt 0.50390625 0.15612793
vt 0.99560547 0.23791504
vt 0.99560547 0.15612793
vt 0.50390625 0.23791504
vn 0.4482422 0.46875 0.76123047
vn 0.4482422 0.46875 0.76123047
vn 0.4482422 0.46875 0.76123047
vn 0.2619629 0.6020508 0.75439453
vn 0.2619629 0.6020508 0.75439453
vn 0.2619629 0.6020508 0.75439453
vn 0.6386719 0.52978516 0.55810547
vn 0.6386719 0.52978516 0.55810547
vn 0.6386719 0.52978516 0.55810547
vn 0.85791016 0 0.5136719
vn 0.85791016 0 0.5136719
vn 0.85791016 0 0.5136719
vn 0.85791016 0 0.5136719
vn 0.85791016 0 0.5136719
vn 0.85791016 2.0563602E-05 0.5136719
vn 0.85791016 2.0563602E-05 0.5136719
vn 0.85791016 2.0563602E-05 0.5136719
vn 0.9638672 0 -0.26635742
vn 0.9638672 0 -0.26635742
vn 0.9638672 0 -0.26635742
vn 0.9638672 0 -0.26635742
vn 0.9638672 0 -0.26635742
vn 0.9638672 0 -0.26635742
vn 0.69433594 0.7084961 0.12585449
vn 0.69433594 0.7084961 0.12585449
vn 0.69433594 0.7084961 0.12585449
vn 0.56152344 0.4387207 0.70166016
vn 0.56152344 0.4387207 0.70166016
vn 0.56152344 0.4387207 0.70166016
vn 0.5395508 0.77246094 0.33496094
vn 0.5395508 0.77246094 0.33496094
vn 0.5395508 0.77246094 0.33496094
vn -0 -1 0
vn -0 -1 0
vn -0 -1 0
vn -0 -1 0
vn -0 -1 0
vn -0 -1 0
vn -0 -1 0
vn -0 -1 0
vn -0 -1 0
vn -0 -1 0
vn -0 -1 0
vn -0 -1 0
vn -0 -1 0
vn -1.66893E-06 1 -1.5497208E-06
vn -1.66893E-06 1 -1.5497208E-06
vn -1.66893E-06 1 -1.5497208E-06
vn -1.66893E-06 1 -1.5497208E-06
vn 0.85791016 0 0.5136719
vn 0.85791016 0 0.5136719
vn 0.85791016 0 0.5136719
vn 0.85791016 0 0.5136719
vn 0.90771484 0 0.42016602
vn 0.90771484 0 0.42016602
vn 0.90771484 0 0.42016602
vn 0.90771484 0 0.42016602
vn 0.46679688 0 0.88427734
vn 0.46679688 0 0.88427734
vn 0.46679688 0 0.88427734
vn 0.46679688 0 0.88427734
vn -1 -3.6597252E-05 0.00029301643
vn -1 -3.6597252E-05 0.00029301643
vn -1 -3.6597252E-05 0.00029301643
vn -1 0 0
vn -0 1.1920929E-07 1
vn -0 1.1920929E-07 1
vn -0 1.1920929E-07 1
vn 1.1920929E-07 2.3841858E-07 1
vn -0 -1.5497208E-06 1
vn -0 -1.5497208E-06 1
vn -0 0 1
vn -0 0 1
vn -0 -1.2218952E-05 1
vn -0 -1.2218952E-05 1
vn -0 -1.2218952E-05 1
vn -0 -1.2218952E-05 1
vn -4.172325E-07 -1 0
vn -4.172325E-07 -1 0
vn -4.172325E-07 -1 0
vn -4.172325E-07 -1 0
vn 1 3.6597252E-05 0
vn 1 3.6597252E-05 0
vn 1 3.6597252E-05 0
vn 1 3.6597252E-05 0
vn -6.556511E-07 0 1
vn -6.556511E-07 0 1
vn -6.556511E-07 0 1
vn -6.556511E-07 0 1
vn 4.172325E-07 1 6.556511E-07
vn 4.172325E-07 1 6.556511E-07
vn 4.172325E-07 1 6.556511E-07
vn -0 1 0
vn -0 1 0
vn 3.5762787E-07 1 1.7881393E-07
vn -0 1 0
vn -0 1 0
vn -0 1 -1.5497208E-06
vn 2.3841858E-07 1 -7.748604E-07
vn -4.7683716E-07 1 -7.748604E-07
vn -4.7683716E-07 1 -7.748604E-07
vn -4.7683716E-07 1 -7.748604E-07
vn -4.7683716E-07 1 -7.748604E-07
vn -6.556511E-07 -1.5497208E-06 1
vn -6.556511E-07 -1.5497208E-06 1
vn -6.556511E-07 -1.5497208E-06 1
vn -6.556511E-07 -1.5497208E-06 1
vn 4.7683716E-07 -1 0
vn 4.7683716E-07 -1 0
vn 4.7683716E-07 -1 0
vn 4.7683716E-07 -1 0
vn 3.5762787E-06 -1.5497208E-06 1
vn 3.5762787E-06 -1.5497208E-06 1
vn 3.5762787E-06 -1.5497208E-06 1
vn 3.5762787E-06 -1.5497208E-06 1
vn 7.867813E-06 -1 0
vn 7.867813E-06 -1 0
vn 7.867813E-06 -1 0
vn 7.867813E-06 -1 0
vn -7.867813E-06 1 -7.748604E-07
vn -7.867813E-06 1 -7.748604E-07
vn -7.867813E-06 1 -7.748604E-07
vn -7.867813E-06 1 -7.748604E-07
vn -1.4305115E-06 1 -1.5497208E-06
vn -1.4305115E-06 1 -1.5497208E-06
vn -1.4305115E-06 1 -1.5497208E-06
vn -1.4305115E-06 1 -1.5497208E-06
vn 3.5762787E-07 0 1
vn 3.5762787E-07 0 1
vn 3.5762787E-07 0 1
vn 3.5762787E-07 0 1
vn 5.00679E-06 1 -1.5497208E-06
vn 5.00679E-06 1 -1.5497208E-06
vn 5.00679E-06 1 -1.5497208E-06
vn 5.00679E-06 1 -1.5497208E-06
vn -5.364418E-07 0 1
vn -5.364418E-07 0 1
vn -5.364418E-07 0 1
vn -5.364418E-07 0 1
vn -1 0 -4.8816204E-05
vn -1 0 -4.8816204E-05
vn -1 0 -4.8816204E-05
vn -1 -7.3313713E-06 0
vn -0 -2.4437904E-06 1
vn -0 -2.4437904E-06 1
vn -0 -2.4437904E-06 1
vn -0 -2.4437904E-06 1
vn 1 7.3313713E-06 0
vn 1 7.3313713E-06 0
vn 1 7.3313713E-06 0
vn 1 7.3313713E-06 0
g Bg_Hospital_STR_Base_Wall_03_0
f 3/3/3 2/2/2 1/1/1
f 6/6/6 5/5/5 4/4/4
f 9/9/9 8/8/8 7/7/7
f 12/12/12 11/11/11 10/10/10
f 14/14/14 13/13/13 10/10/10
f 17/17/17 16/16/16 15/15/15
f 20/20/20 19/19/19 18/18/18
f 23/23/23 22/22/22 21/21/21
f 26/26/26 25/25/25 24/24/24
f 29/29/29 28/28/28 27/27/27
f 32/32/32 31/31/31 30/30/30
f 35/35/35 34/34/34 33/33/33
f 37/37/37 36/36/36 34/34/34
f 39/39/39 38/38/38 34/34/34
f 38/38/38 40/40/40 34/34/34
f 42/42/42 41/41/41 38/38/38
f 45/45/45 44/44/44 43/43/43
f 48/48/48 47/47/47 46/46/46
f 49/49/49 46/46/46 47/47/47
f 52/52/52 51/51/51 50/50/50
f 53/53/53 50/50/50 51/51/51
f 56/56/56 55/55/55 54/54/54
f 57/57/57 54/54/54 55/55/55
f 60/60/60 59/59/59 58/58/58
f 61/61/61 58/58/58 59/59/59
f 64/64/64 63/63/63 62/62/62
f 65/65/65 62/62/62 63/63/63
f 68/68/68 67/67/67 66/66/66
f 66/66/66 67/67/67 69/69/69
f 67/67/67 70/70/70 69/69/69
f 71/71/71 70/70/70 67/67/67
f 70/70/70 72/72/72 69/69/69
f 69/69/69 72/72/72 73/73/73
f 76/76/76 75/75/75 74/74/74
f 77/77/77 74/74/74 75/75/75
f 80/80/80 79/79/79 78/78/78
f 81/81/81 78/78/78 79/79/79
f 84/84/84 83/83/83 82/82/82
f 85/85/85 82/82/82 83/83/83
f 88/88/88 87/87/87 86/86/86
f 89/89/89 86/86/86 87/87/87
f 92/92/92 91/91/91 90/90/90
f 91/91/91 93/93/93 90/90/90
f 94/94/94 93/93/93 91/91/91
f 93/93/93 95/95/95 90/90/90
f 95/95/95 96/96/96 90/90/90
f 97/97/97 96/96/96 95/95/95
f 96/96/96 98/98/98 90/90/90
f 98/98/98 99/99/99 90/90/90
f 102/102/102 101/101/101 100/100/100
f 103/103/103 100/100/100 101/101/101
f 106/106/106 105/105/105 104/104/104
f 107/107/107 104/104/104 105/105/105
f 110/110/110 109/109/109 108/108/108
f 111/111/111 108/108/108 109/109/109
f 114/114/114 113/113/113 112/112/112
f 115/115/115 112/112/112 113/113/113
f 118/118/118 117/117/117 116/116/116
f 119/119/119 116/116/116 117/117/117
f 122/122/122 121/121/121 120/120/120
f 123/123/123 120/120/120 121/121/121
f 126/126/126 125/125/125 124/124/124
f 127/127/127 124/124/124 125/125/125
f 130/130/130 129/129/129 128/128/128
f 131/131/131 128/128/128 129/129/129
f 134/134/134 133/133/133 132/132/132
f 135/135/135 132/132/132 133/133/133
f 138/138/138 137/137/137 136/136/136
f 139/139/139 136/136/136 137/137/137
f 142/142/142 141/141/141 140/140/140
f 143/143/143 140/140/140 141/141/141
f 146/146/146 145/145/145 144/144/144
f 147/147/147 144/144/144 145/145/145
f 150/150/150 149/149/149 148/148/148
f 151/151/151 148/148/148 149/149/149
