g Hospital_OBJ_SigenLight
v -0.35999832 -0.36289963 0.08999992
v 0.49630547 -0.36235517 -0.684
v -0.35999832 -0.36289963 -0.684
v 0.49630547 -0.36235517 0.08999992
v 0.5613175 -0.3437863 0.08999992
v 0.5613177 -0.3437863 -0.684
v 0.61555195 -0.31401274 0.08999992
v 0.61555195 -0.31401274 -0.684
v 0.64705044 -0.2870503 0.08999992
v 0.64705044 -0.2870503 -0.684
v 0.6740129 -0.25555176 -0.684
v 0.6740129 -0.25555176 0.08999992
v 0.7037864 -0.20131744 -0.684
v 0.7037864 -0.20131744 0.08999992
v 0.7223553 -0.13630462 -0.684
v 0.7223553 -0.13630462 0.08999992
v 0.72243565 0.47663268 -0.684
v 0.72243565 0.47663268 0.08999992
v 0.72243565 0.47663268 0.08999992
v 0.7226872 2.3969622 -0.684
v 0.72243565 0.47663268 -0.684
v 0.7226872 2.3969622 0.08999992
v 0.7226872 2.3969622 0.08999992
v 0.7228999 4.0199995 -0.684
v 0.7226872 2.3969622 -0.684
v 0.7228999 4.0199995 0.08999992
v 0.025629196 -0.4012715 -0.22257574
v 0.34658575 -0.4012715 -0.2507165
v 0.001457901 -0.4012715 -0.2507165
v 0.34658575 -0.4012715 -0.22257575
v 0.025629196 -0.4012715 -0.11202667
v 0.001457901 -0.4012715 -0.2507165
v 0.001457901 -0.4012715 -0.1704314
v 0.025629196 -0.4012715 -0.22257574
v -0.18011291 -0.4012715 -0.30159634
v 0.001457901 -0.4012715 -0.1704314
v -0.14138298 -0.4012715 -0.30159572
v 0.025629196 -0.4012715 -0.11202667
v 0.025719145 -0.4012715 -0.49436623
v -0.14138298 -0.4012715 -0.30159572
v 0.001625061 -0.4012715 -0.43597588
v -0.18011291 -0.4012715 -0.30159634
v 0.025719145 -0.4012715 -0.36778656
v 0.001625061 -0.4012715 -0.43597588
v 0.001625061 -0.4012715 -0.33964577
v 0.025719145 -0.4012715 -0.49436623
v 0.34664902 -0.4012715 -0.36778656
v 0.001625061 -0.4012715 -0.33964577
v 0.34664902 -0.4012715 -0.33964577
v 0.025719145 -0.4012715 -0.36778656
v 0.76993114 0.28968734 -0.17752117
v 0.76993114 0.02272293 -0.12798977
v 0.76993114 0.28968734 -0.12798977
v 0.76993114 0.08 -0.17752117
v 0.76993114 0.02272293 -0.47140592
v 0.76993114 0.08 -0.26895043
v 0.76993114 0.08 -0.31848183
v 0.7699311 0.2763385 -0.31848183
v 0.7699311 0.2763385 -0.26895043
v 0.76993114 0.08 -0.42187452
v 0.7699311 0.29803038 -0.47140592
v 0.7699311 0.29803038 -0.42187452
v 0.7699311 0.6533793 -0.47165588
v 0.7699311 0.7089877 -0.12798977
v 0.7699311 0.7089877 -0.47165588
v 0.7699311 0.6533793 -0.21484588
v 0.7699311 0.6367568 -0.12798977
v 0.7699311 0.53576547 -0.40318656
v 0.7699311 0.5578611 -0.47140592
v 0.7699311 0.50842285 -0.47140592
v 0.7699311 0.41364554 -0.21078345
v 0.7699311 0.43721512 -0.12798977
v 0.7699311 0.3580371 -0.12798977
v 0.7699311 0.3580371 -0.47140592
v 0.7699311 0.41364554 -0.47140592
v 0.7699311 1.0599 -0.2029321
v 0.7699311 0.7982685 -0.13032165
v 0.7699311 1.064217 -0.15358917
v 0.7699311 0.85101056 -0.18465662
v 0.7699311 0.7683378 -0.47243106
v 0.7699311 0.84304196 -0.27573797
v 0.7699311 0.83872503 -0.32508087
v 0.7699311 1.0343164 -0.34219292
v 0.7699311 1.0386333 -0.29285005
v 0.7699311 0.8297137 -0.42808014
v 0.7699311 1.0425975 -0.4964257
v 0.7699311 1.0469145 -0.44708273
v 0.7699311 1.1204385 -0.47140592
v 0.7699311 1.1777155 -0.32316318
v 0.7699311 1.1777155 -0.47140592
v 0.7699311 1.1777155 -0.27519223
v 0.7699311 1.1204385 -0.12798977
v 0.7699311 1.1777155 -0.17492042
v 0.7699311 1.2835852 -0.12798977
v 0.7699311 1.2851129 -0.17492042
v 0.7699311 1.3418156 -0.13375007
v 0.7699311 1.3292944 -0.1838832
v 0.7699311 1.3904405 -0.16064133
v 0.7699311 1.2739109 -0.27519223
v 0.7699311 1.3546636 -0.21443251
v 0.7699311 1.4133178 -0.21006061
v 0.7699311 1.4088033 -0.25847596
v 0.7699311 1.2272899 -0.32316318
v 0.7699311 1.3514125 -0.24452117
v 0.7699311 1.3892449 -0.28728423
v 0.7699311 1.3564799 -0.3081585
v 0.7699311 1.3302581 -0.26545143
v 0.7699311 1.324162 -0.31615153
v 0.7699311 1.3021082 -0.2736575
v 0.7699311 1.2575215 -0.3272428
v 0.7699311 1.2890658 -0.3476593
v 0.7699311 1.3352468 -0.32293212
v 0.7699311 1.3101559 -0.37341085
v 0.7699311 1.3621695 -0.34780636
v 0.7699311 1.3288797 -0.39980805
v 0.7699311 1.3814023 -0.37261212
v 0.7699311 1.3774499 -0.47140592
v 0.7699311 1.4484212 -0.47140592
v 0.7699311 1.8133776 -0.2913169
v 0.7699311 1.6526475 -0.34084827
v 0.7699311 1.6526475 -0.2913169
v 0.7699311 1.757213 -0.34084827
v 0.769931 1.8133776 -0.42277503
v 0.769931 1.757213 -0.3952929
v 0.769931 1.7754937 -0.44717002
v 0.7699311 1.7287614 -0.41128984
v 0.769931 1.7193042 -0.46879295
v 0.7699311 1.6728996 -0.42623505
v 0.7699311 1.6609598 -0.47715002
v 0.7699311 1.6094534 -0.41877422
v 0.7699311 1.5866174 -0.46368393
v 0.7699311 1.5581286 -0.38344622
v 0.7699311 1.524537 -0.42903313
v 0.7699311 1.48806 -0.3710163
v 0.7699311 1.53654 -0.33863434
v 0.7699311 1.5341727 -0.2816201
v 0.7699311 1.4740736 -0.30129242
v 0.7699311 1.4879695 -0.23054461
v 0.7699311 1.5503013 -0.22426502
v 0.7699311 1.5237559 -0.17006035
v 0.7699311 1.5750865 -0.19385105
v 0.7699311 1.5906727 -0.13075691
v 0.7699311 1.6159717 -0.17582302
v 0.7699311 1.6699119 -0.17131135
v 0.7699311 1.6761166 -0.12375042
v 0.7699311 1.7139888 -0.18348601
v 0.7699311 1.7433755 -0.14158241
v 0.7699311 1.7418902 -0.2086662
v 0.7699311 1.7880406 -0.18098228
v 0.7699311 1.7574912 -0.24319407
v 0.7699311 1.8096557 -0.22981128
v 0.769931 2.4935153 -0.14903732
v 0.769931 2.4605944 -0.40440696
v 0.769931 2.4386725 -0.15383545
v 0.769931 2.523446 -0.4911467
v 0.769931 2.46786 -0.4960099
v 0.769931 2.266039 -0.26118514
v 0.769931 2.258773 -0.16957459
v 0.769931 2.2331176 -0.51654714
v 0.769931 2.203187 -0.17443779
v 0.769931 2.2879605 -0.511749
v 0.769931 2.8354592 -0.24047153
v 0.769931 2.8686748 -0.18051986
v 0.769931 2.8916562 -0.22803552
v 0.769931 2.8090744 -0.1960984
v 0.769931 2.8154638 -0.13870303
v 0.769931 2.7585049 -0.17226164
v 0.769931 2.7206514 -0.12481521
v 0.769931 2.6916666 -0.18129127
v 0.769931 2.6371307 -0.15575443
v 0.769931 2.6472735 -0.22161049
v 0.769931 2.5843313 -0.22556797
v 0.769931 2.6304796 -0.28096566
v 0.769931 2.5730896 -0.32082534
v 0.769931 2.6371307 -0.3524681
v 0.769931 2.6019135 -0.4076807
v 0.769931 2.66958 -0.4014352
v 0.769931 2.6682506 -0.46303046
v 0.769931 2.723923 -0.42723456
v 0.769931 2.7695415 -0.47349387
v 0.769931 2.7884643 -0.41640595
v 0.769931 2.8402493 -0.4476221
v 0.769931 2.82474 -0.3836751
v 0.769931 2.8740294 -0.4112987
v 0.769931 2.84014 -0.3435698
v 0.769931 2.897627 -0.3570739
v 0.769931 3.050376 -0.32677233
v 0.769931 3.1076531 -0.4716928
v 0.769931 3.050376 -0.4716928
v 0.769931 3.1076531 -0.32681936
v 0.769931 3.0818036 -0.28105813
v 0.769931 2.9773548 -0.12796783
v 0.769931 2.908274 -0.12796779
v 0.769931 3.1875005 -0.12798977
v 0.769931 3.2549677 -0.12798977
v 0.769931 2.1481354 -0.1775211
v 0.7699311 1.8811711 -0.12798965
v 0.769931 2.1481354 -0.12798965
v 0.7699311 1.9384482 -0.1775211
v 0.769931 1.8811711 -0.47140586
v 0.769931 1.9384482 -0.2689503
v 0.769931 1.9384482 -0.31848174
v 0.769931 2.1347866 -0.31848177
v 0.769931 2.1347866 -0.26895034
v 0.769931 1.9384482 -0.42187446
v 0.769931 2.1564786 -0.47140586
v 0.769931 2.1564786 -0.42187446
v 0.76633406 3.6720195 -0.22257574
v 0.76633406 3.3510628 -0.2507165
v 0.76633406 3.3510628 -0.22257575
v 0.76633406 3.6961906 -0.2507165
v 0.76633406 3.6720195 -0.11202667
v 0.76633406 3.6961906 -0.2507165
v 0.76633406 3.6720195 -0.22257574
v 0.76633406 3.6961906 -0.1704314
v 0.76633406 3.8777614 -0.30159634
v 0.76633406 3.6961906 -0.1704314
v 0.76633406 3.6720195 -0.11202667
v 0.76633406 3.8390317 -0.30159572
v 0.76633406 3.6719296 -0.49436623
v 0.76633406 3.8390317 -0.30159572
v 0.76633406 3.8777614 -0.30159634
v 0.76633406 3.6960235 -0.43597588
v 0.76633406 3.6719296 -0.36778656
v 0.76633406 3.6960235 -0.43597588
v 0.76633406 3.6719296 -0.49436623
v 0.76633406 3.6960235 -0.33964577
v 0.76633406 3.3509996 -0.36778656
v 0.76633406 3.6960235 -0.33964577
v 0.76633406 3.6719296 -0.36778656
v 0.76633406 3.3509996 -0.33964577
vt 0.6274414 0.15356445
vt 0.8051758 0.0030155182
vt 0.6274414 0.0030155182
vt 0.8051758 0.15356445
vt 0.81933594 0.15356445
vt 0.81933594 0.0030155182
vt 0.83203125 0.15356445
vt 0.83203125 0.0030155182
vt 0.8408203 0.15356445
vt 0.8408203 0.0030155182
vt 0.8491211 0.0030155182
vt 0.8491211 0.15356445
vt 0.8618164 0.0030155182
vt 0.8618164 0.15356445
vt 0.87597656 0.0030155182
vt 0.87597656 0.15356445
vt 0.9970703 0.0030155182
vt 0.9970703 0.15356445
vt 0.6074219 0.15356445
vt 0.9970703 0.0030155182
vt 0.6074219 0.0030155182
vt 0.9970703 0.15356445
vt 0.6074219 0.15356445
vt 0.9355469 0.0030155182
vt 0.6074219 0.0030155182
vt 0.9355469 0.15356445
vt 0.74902344 0.86035156
vt 0.7504883 0.87353516
vt 0.7504883 0.859375
vt 0.74902344 0.87353516
vt 0.74902344 0.87353516
vt 0.7504883 0.87890625
vt 0.7504883 0.87597656
vt 0.74902344 0.8779297
vt 0.74902344 0.86621094
vt 0.7504883 0.875
vt 0.7504883 0.8671875
vt 0.74902344 0.8774414
vt 0.74902344 0.8676758
vt 0.7504883 0.8779297
vt 0.7504883 0.8701172
vt 0.74902344 0.87890625
vt 0.7504883 0.86328125
vt 0.74902344 0.86083984
vt 0.74902344 0.8647461
vt 0.7504883 0.85839844
vt 0.7504883 0.8671875
vt 0.74902344 0.85302734
vt 0.74902344 0.8671875
vt 0.7504883 0.8540039
vt 0.7504883 0.87646484
vt 0.75097656 0.87939453
vt 0.75097656 0.87646484
vt 0.7504883 0.87890625
vt 0.7470703 0.87939453
vt 0.7495117 0.87890625
vt 0.74902344 0.87890625
vt 0.74902344 0.87646484
vt 0.7495117 0.87646484
vt 0.7475586 0.87890625
vt 0.7470703 0.87646484
vt 0.7475586 0.87646484
vt 0.74658203 0.8720703
vt 0.75097656 0.87158203
vt 0.74658203 0.87158203
vt 0.75 0.8720703
vt 0.75097656 0.8725586
vt 0.7475586 0.87353516
vt 0.74658203 0.87353516
vt 0.74658203 0.87402344
vt 0.75 0.875
vt 0.75097656 0.875
vt 0.75097656 0.87597656
vt 0.74658203 0.87597656
vt 0.74658203 0.875
vt 0.77246094 0.78759766
vt 0.7729492 0.79003906
vt 0.7729492 0.78759766
vt 0.77246094 0.7895508
vt 0.76953125 0.79003906
vt 0.7714844 0.7895508
vt 0.7709961 0.7895508
vt 0.7709961 0.78808594
vt 0.7714844 0.78808594
vt 0.77001953 0.7895508
vt 0.76953125 0.78759766
vt 0.77001953 0.78759766
vt 0.7470703 0.87109375
vt 0.74853516 0.87060547
vt 0.7470703 0.87060547
vt 0.74902344 0.87060547
vt 0.75097656 0.87109375
vt 0.7504883 0.87060547
vt 0.75097656 0.8691406
vt 0.7504883 0.8691406
vt 0.75097656 0.86865234
vt 0.75 0.86865234
vt 0.7504883 0.86816406
vt 0.74902344 0.8696289
vt 0.75 0.86865234
vt 0.75 0.8676758
vt 0.7495117 0.8676758
vt 0.74853516 0.8701172
vt 0.7495117 0.86865234
vt 0.74902344 0.86816406
vt 0.74902344 0.86865234
vt 0.7495117 0.86865234
vt 0.74853516 0.86865234
vt 0.74902344 0.8691406
vt 0.74853516 0.8696289
vt 0.74853516 0.8691406
vt 0.74853516 0.86865234
vt 0.7480469 0.8691406
vt 0.74853516 0.86865234
vt 0.7480469 0.86865234
vt 0.7480469 0.86816406
vt 0.7470703 0.86816406
vt 0.7470703 0.8676758
vt 0.74902344 0.86328125
vt 0.74853516 0.8652344
vt 0.74902344 0.8652344
vt 0.74853516 0.86376953
vt 0.7470703 0.86328125
vt 0.7475586 0.86376953
vt 0.7470703 0.86376953
vt 0.7475586 0.8642578
vt 0.74658203 0.8642578
vt 0.7470703 0.8652344
vt 0.74658203 0.8652344
vt 0.7470703 0.86572266
vt 0.74658203 0.86621094
vt 0.7475586 0.8666992
vt 0.7470703 0.8671875
vt 0.7480469 0.8676758
vt 0.74853516 0.8666992
vt 0.74902344 0.8666992
vt 0.74902344 0.8676758
vt 0.75 0.8676758
vt 0.75 0.8666992
vt 0.7504883 0.8671875
vt 0.7504883 0.86621094
vt 0.75097656 0.86621094
vt 0.7504883 0.86572266
vt 0.7504883 0.8652344
vt 0.75146484 0.8647461
vt 0.7504883 0.8642578
vt 0.75097656 0.8642578
vt 0.75 0.8642578
vt 0.7504883 0.86328125
vt 0.7495117 0.86376953
vt 0.75 0.86328125
vt 0.76953125 0.77685547
vt 0.77197266 0.7763672
vt 0.76953125 0.7763672
vt 0.7729492 0.77685547
vt 0.7729492 0.7763672
vt 0.7705078 0.77490234
vt 0.76953125 0.77490234
vt 0.7729492 0.77441406
vt 0.76953125 0.77441406
vt 0.7729492 0.77490234
vt 0.75 0.85498047
vt 0.7504883 0.8544922
vt 0.75 0.8544922
vt 0.7504883 0.85546875
vt 0.75097656 0.85546875
vt 0.7504883 0.85595703
vt 0.75097656 0.8564453
vt 0.7504883 0.8569336
vt 0.75097656 0.8574219
vt 0.75 0.8574219
vt 0.75 0.85791016
vt 0.7495117 0.8574219
vt 0.74902344 0.85839844
vt 0.74853516 0.8574219
vt 0.7475586 0.85791016
vt 0.7480469 0.8569336
vt 0.7470703 0.8569336
vt 0.7475586 0.8564453
vt 0.7470703 0.85595703
vt 0.7475586 0.85546875
vt 0.7470703 0.85498047
vt 0.7480469 0.85498047
vt 0.7475586 0.8544922
vt 0.74853516 0.85498047
vt 0.74853516 0.8544922
vt 0.74853516 0.85302734
vt 0.7470703 0.8520508
vt 0.7470703 0.85302734
vt 0.74853516 0.8520508
vt 0.74902344 0.85253906
vt 0.75097656 0.8535156
vt 0.75097656 0.8544922
vt 0.75097656 0.8510742
vt 0.75097656 0.85058594
vt 0.7504883 0.87646484
vt 0.75097656 0.87939453
vt 0.75097656 0.87646484
vt 0.7504883 0.87890625
vt 0.7470703 0.87939453
vt 0.7495117 0.87890625
vt 0.74902344 0.87890625
vt 0.74902344 0.87646484
vt 0.7495117 0.87646484
vt 0.7475586 0.87890625
vt 0.7470703 0.87646484
vt 0.7475586 0.87646484
vt 0.74902344 0.86035156
vt 0.7504883 0.87353516
vt 0.74902344 0.87353516
vt 0.7504883 0.859375
vt 0.74902344 0.87353516
vt 0.7504883 0.87890625
vt 0.74902344 0.8779297
vt 0.7504883 0.87597656
vt 0.74902344 0.86621094
vt 0.7504883 0.875
vt 0.74902344 0.8774414
vt 0.7504883 0.8671875
vt 0.74902344 0.8676758
vt 0.7504883 0.8779297
vt 0.74902344 0.87890625
vt 0.7504883 0.8701172
vt 0.7504883 0.86328125
vt 0.74902344 0.86083984
vt 0.7504883 0.85839844
vt 0.74902344 0.8647461
vt 0.7504883 0.8671875
vt 0.74902344 0.85302734
vt 0.7504883 0.8540039
vt 0.74902344 0.8671875
vn 0.00063562393 -1 0
vn 0.13891602 -0.9902344 0
vn 0.00063562393 -1 0
vn 0.13891602 -0.9902344 0
vn 0.3803711 -0.9248047 0
vn 0.3803711 -0.9248047 0
vn 0.56884766 -0.8222656 0
vn 0.56884766 -0.8222656 0
vn 0.70703125 -0.70703125 0
vn 0.70703125 -0.70703125 0
vn 0.8222656 -0.56884766 0
vn 0.8222656 -0.56884766 0
vn 0.9248047 -0.3803711 0
vn 0.9248047 -0.3803711 0
vn 0.9902344 -0.13867188 0
vn 0.9902344 -0.13867188 0
vn 1 -0.00013101101 0
vn 1 -0.00013101101 0
vn 1 -0.00013101101 0
vn 1 -0.00013101101 0
vn 1 -0.00013101101 0
vn 1 -0.00013101101 0
vn 1 -0.00013101101 0
vn 1 -0.00013101101 0
vn 1 -0.00013101101 0
vn 1 -0.00013101101 0
vn -0 -1 0
vn -0 -1 0
vn -0 -1 0
vn -0 -1 0
vn -0 -1 0
vn -0 -1 0
vn -0 -1 0
vn -0 -1 0
vn -0 -1 0
vn -0 -1 0
vn -0 -1 0
vn -0 -1 0
vn -0 -1 0
vn -0 -1 0
vn -0 -1 0
vn -0 -1 0
vn -0 -1 0
vn -0 -1 0
vn -0 -1 0
vn -0 -1 0
vn -0 -1 0
vn -0 -1 0
vn -0 -1 0
vn -0 -1 0
vn 1 0 0
vn 1 0 0
vn 1 0 0
vn 1 0 0
vn 1 0 0
vn 1 0 0
vn 1 0 0
vn 1 0 0
vn 1 0 0
vn 1 0 0
vn 1 0 0
vn 1 0 0
vn 1 0 0
vn 1 0 0
vn 1 0 0
vn 1 0 0
vn 1 0 0
vn 1 0 0
vn 1 0 0
vn 1 0 0
vn 1 0 0
vn 1 0 0
vn 1 0 0
vn 1 0 0
vn 1 0 0
vn 1 0 0
vn 1 0 0
vn 1 0 0
vn 1 0 0
vn 1 0 0
vn 1 0 0
vn 1 0 0
vn 1 0 0
vn 1 0 0
vn 1 0 0
vn 1 0 0
vn 1 0 0
vn 1 0 0
vn 1 0 0
vn 1 0 0
vn 1 0 0
vn 1 0 0
vn 1 0 0
vn 1 0 0
vn 1 0 0
vn 1 0 0
vn 1 0 0
vn 1 0 0
vn 1 0 0
vn 1 0 0
vn 1 0 0
vn 1 0 0
vn 1 0 0
vn 1 0 0
vn 1 0 0
vn 1 0 0
vn 1 0 0
vn 1 0 0
vn 1 0 -1.1920929E-07
vn 1 0 0
vn 1 0 0
vn 1 0 0
vn 1 0 0
vn 1 0 0
vn 1 0 0
vn 1 0 0
vn 1 0 0
vn 1 0 0
vn 1 0 0
vn 1 0 0
vn 1 0 0
vn 1 0 0
vn 1 0 0
vn 1 0 0
vn 1 0 0
vn 1 0 0
vn 1 0 0
vn 1 0 0
vn 1 0 0
vn 1 0 0
vn 1 0 0
vn 1 0 0
vn 1 0 0
vn 1 0 0
vn 1 1.1920929E-07 0
vn 1 0 0
vn 1 0 0
vn 1 0 0
vn 1 0 0
vn 1 0 0
vn 1 0 0
vn 1 0 0
vn 1 0 0
vn 1 0 0
vn 1 0 0
vn 1 0 0
vn 1 0 0
vn 1 0 0
vn 1 0 0
vn 1 0 0
vn 1 0 0
vn 1 0 0
vn 1 0 0
vn 1 0 0
vn 1 0 0
vn 1 0 -1.1920929E-07
vn 1 0 0
vn 1 0 0
vn 1 0 0
vn 1 0 0
vn 1 0 0
vn 1 0 0
vn 1 0 0
vn 1 0 0
vn 1 0 0
vn 1 0 0
vn 1 0 0
vn 1 0 0
vn 1 0 0
vn 1 0 0
vn 1 0 0
vn 1 0 0
vn 1 0 0
vn 1 0 0
vn 1 0 0
vn 1 0 0
vn 1 0 0
vn 1 0 0
vn 1 0 0
vn 1 0 -1.1920929E-07
vn 1 0 0
vn 1 0 0
vn 1 0 0
vn 1 0 0
vn 1 0 0
vn 1 0 0
vn 1 0 0
vn 1 0 0
vn 1 0 0
vn 1 0 0
vn 1 0 0
vn 1 0 0
vn 1 0 0
vn 1 0 0
vn 1 0 0
vn 1 0 0
vn 1 0 0
vn 1 0 0
vn 1 0 0
vn 1 0 0
vn 1 1.7881393E-07 0
vn 1 0 0
vn 1 0 0
vn 1 0 0
vn 1 0 0
vn 1 0 0
vn 1 0 0
vn 1 0 0
vn 1 1.1920929E-07 0
vn 1 1.1920929E-07 0
vn 1 0 0
vn 1 1.7881393E-07 0
vn 1 0 0
vn 1 0 0
vn 1 1.7881393E-07 0
vn 1 9.536743E-07 0
vn 1 1.7881393E-07 0
vn 1 1.7881393E-07 0
vn 1 9.536743E-07 1.1920929E-07
vn 1 1.1920929E-07 -1.1920929E-07
vn 1 9.536743E-07 1.1920929E-07
vn 1 9.536743E-07 0
vn 1 0 0
vn 1 0 0
vn 1 0 0
vn 1 1.1920929E-07 -1.1920929E-07
vn 1 0 0
vn 1 1.1920929E-07 0
vn 1 0 0
vn 1 0 0
vn 1 1.1920929E-07 0
g Hospital_OBJ_SigenLight_0
f 3/3/3 2/2/2 1/1/1
f 4/4/4 1/1/1 2/2/2
f 4/4/4 2/2/2 5/5/5
f 6/6/6 5/5/5 2/2/2
f 5/5/5 6/6/6 7/7/7
f 8/8/8 7/7/7 6/6/6
f 7/7/7 8/8/8 9/9/9
f 10/10/10 9/9/9 8/8/8
f 10/10/10 11/11/11 9/9/9
f 12/12/12 9/9/9 11/11/11
f 11/11/11 13/13/13 12/12/12
f 14/14/14 12/12/12 13/13/13
f 13/13/13 15/15/15 14/14/14
f 16/16/16 14/14/14 15/15/15
f 15/15/15 17/17/17 16/16/16
f 18/18/18 16/16/16 17/17/17
f 21/21/21 20/20/20 19/19/19
f 22/22/22 19/19/19 20/20/20
f 25/25/25 24/24/24 23/23/23
f 26/26/26 23/23/23 24/24/24
f 29/29/29 28/28/28 27/27/27
f 30/30/30 27/27/27 28/28/28
f 33/33/33 32/32/32 31/31/31
f 34/34/34 31/31/31 32/32/32
f 37/37/37 36/36/36 35/35/35
f 38/38/38 35/35/35 36/36/36
f 41/41/41 40/40/40 39/39/39
f 42/42/42 39/39/39 40/40/40
f 45/45/45 44/44/44 43/43/43
f 46/46/46 43/43/43 44/44/44
f 49/49/49 48/48/48 47/47/47
f 50/50/50 47/47/47 48/48/48
f 53/53/53 52/52/52 51/51/51
f 52/52/52 54/54/54 51/51/51
f 55/55/55 54/54/54 52/52/52
f 56/56/56 54/54/54 55/55/55
f 57/57/57 56/56/56 55/55/55
f 58/58/58 56/56/56 57/57/57
f 59/59/59 56/56/56 58/58/58
f 60/60/60 57/57/57 55/55/55
f 61/61/61 60/60/60 55/55/55
f 62/62/62 60/60/60 61/61/61
f 65/65/65 64/64/64 63/63/63
f 64/64/64 66/66/66 63/63/63
f 67/67/67 66/66/66 64/64/64
f 68/68/68 66/66/66 67/67/67
f 69/69/69 66/66/66 68/68/68
f 70/70/70 69/69/69 68/68/68
f 71/71/71 70/70/70 68/68/68
f 72/72/72 71/71/71 68/68/68
f 73/73/73 71/71/71 72/72/72
f 74/74/74 71/71/71 73/73/73
f 75/75/75 71/71/71 74/74/74
f 78/78/78 77/77/77 76/76/76
f 77/77/77 79/79/79 76/76/76
f 80/80/80 79/79/79 77/77/77
f 81/81/81 79/79/79 80/80/80
f 82/82/82 81/81/81 80/80/80
f 83/83/83 81/81/81 82/82/82
f 84/84/84 81/81/81 83/83/83
f 85/85/85 82/82/82 80/80/80
f 86/86/86 85/85/85 80/80/80
f 87/87/87 85/85/85 86/86/86
f 90/90/90 89/89/89 88/88/88
f 89/89/89 91/91/91 88/88/88
f 91/91/91 92/92/92 88/88/88
f 93/93/93 92/92/92 91/91/91
f 94/94/94 92/92/92 93/93/93
f 95/95/95 94/94/94 93/93/93
f 96/96/96 94/94/94 95/95/95
f 97/97/97 96/96/96 95/95/95
f 98/98/98 96/96/96 97/97/97
f 99/99/99 91/91/91 89/89/89
f 100/100/100 98/98/98 97/97/97
f 101/101/101 98/98/98 100/100/100
f 102/102/102 101/101/101 100/100/100
f 103/103/103 99/99/99 89/89/89
f 104/104/104 102/102/102 100/100/100
f 105/105/105 102/102/102 104/104/104
f 106/106/106 105/105/105 104/104/104
f 107/107/107 106/106/106 104/104/104
f 108/108/108 106/106/106 107/107/107
f 109/109/109 108/108/108 107/107/107
f 99/99/99 108/108/108 109/109/109
f 110/110/110 99/99/99 103/103/103
f 110/110/110 108/108/108 99/99/99
f 111/111/111 108/108/108 110/110/110
f 112/112/112 108/108/108 111/111/111
f 113/113/113 112/112/112 111/111/111
f 114/114/114 112/112/112 113/113/113
f 115/115/115 114/114/114 113/113/113
f 116/116/116 114/114/114 115/115/115
f 117/117/117 116/116/116 115/115/115
f 118/118/118 116/116/116 117/117/117
f 121/121/121 120/120/120 119/119/119
f 120/120/120 122/122/122 119/119/119
f 122/122/122 123/123/123 119/119/119
f 124/124/124 123/123/123 122/122/122
f 125/125/125 123/123/123 124/124/124
f 126/126/126 125/125/125 124/124/124
f 127/127/127 125/125/125 126/126/126
f 128/128/128 127/127/127 126/126/126
f 129/129/129 127/127/127 128/128/128
f 130/130/130 129/129/129 128/128/128
f 131/131/131 129/129/129 130/130/130
f 132/132/132 131/131/131 130/130/130
f 133/133/133 131/131/131 132/132/132
f 134/134/134 133/133/133 132/132/132
f 135/135/135 134/134/134 132/132/132
f 136/136/136 134/134/134 135/135/135
f 137/137/137 134/134/134 136/136/136
f 138/138/138 137/137/137 136/136/136
f 139/139/139 138/138/138 136/136/136
f 140/140/140 138/138/138 139/139/139
f 141/141/141 140/140/140 139/139/139
f 142/142/142 140/140/140 141/141/141
f 143/143/143 142/142/142 141/141/141
f 144/144/144 142/142/142 143/143/143
f 145/145/145 142/142/142 144/144/144
f 146/146/146 145/145/145 144/144/144
f 147/147/147 145/145/145 146/146/146
f 148/148/148 147/147/147 146/146/146
f 149/149/149 147/147/147 148/148/148
f 150/150/150 149/149/149 148/148/148
f 151/151/151 149/149/149 150/150/150
f 154/154/154 153/153/153 152/152/152
f 153/153/153 155/155/155 152/152/152
f 156/156/156 155/155/155 153/153/153
f 157/157/157 156/156/156 153/153/153
f 158/158/158 157/157/157 153/153/153
f 159/159/159 157/157/157 158/158/158
f 160/160/160 159/159/159 158/158/158
f 161/161/161 157/157/157 159/159/159
f 164/164/164 163/163/163 162/162/162
f 163/163/163 165/165/165 162/162/162
f 166/166/166 165/165/165 163/163/163
f 167/167/167 165/165/165 166/166/166
f 168/168/168 167/167/167 166/166/166
f 169/169/169 167/167/167 168/168/168
f 170/170/170 169/169/169 168/168/168
f 171/171/171 169/169/169 170/170/170
f 172/172/172 171/171/171 170/170/170
f 173/173/173 171/171/171 172/172/172
f 174/174/174 173/173/173 172/172/172
f 175/175/175 173/173/173 174/174/174
f 176/176/176 175/175/175 174/174/174
f 177/177/177 175/175/175 176/176/176
f 178/178/178 177/177/177 176/176/176
f 179/179/179 177/177/177 178/178/178
f 180/180/180 179/179/179 178/178/178
f 181/181/181 179/179/179 180/180/180
f 182/182/182 181/181/181 180/180/180
f 183/183/183 181/181/181 182/182/182
f 184/184/184 183/183/183 182/182/182
f 185/185/185 183/183/183 184/184/184
f 186/186/186 185/185/185 184/184/184
f 189/189/189 188/188/188 187/187/187
f 188/188/188 190/190/190 187/187/187
f 190/190/190 191/191/191 187/187/187
f 191/191/191 192/192/192 187/187/187
f 192/192/192 193/193/193 187/187/187
f 194/194/194 191/191/191 190/190/190
f 195/195/195 194/194/194 190/190/190
f 198/198/198 197/197/197 196/196/196
f 197/197/197 199/199/199 196/196/196
f 200/200/200 199/199/199 197/197/197
f 201/201/201 199/199/199 200/200/200
f 202/202/202 201/201/201 200/200/200
f 203/203/203 201/201/201 202/202/202
f 204/204/204 201/201/201 203/203/203
f 205/205/205 202/202/202 200/200/200
f 206/206/206 205/205/205 200/200/200
f 207/207/207 205/205/205 206/206/206
f 210/210/210 209/209/209 208/208/208
f 211/211/211 208/208/208 209/209/209
f 214/214/214 213/213/213 212/212/212
f 215/215/215 212/212/212 213/213/213
f 218/218/218 217/217/217 216/216/216
f 219/219/219 216/216/216 217/217/217
f 222/222/222 221/221/221 220/220/220
f 223/223/223 220/220/220 221/221/221
f 226/226/226 225/225/225 224/224/224
f 227/227/227 224/224/224 225/225/225
f 230/230/230 229/229/229 228/228/228
f 231/231/231 228/228/228 229/229/229
