g Hospital_STR_House_03_Door
v -0 0 2.55
v -0 1.3 0
v -0 0 0
v -0 1.3 2.55
v -0.049999997 1.3 0
v 0.07 1.3 2.55
v 0.07 1.3 0
v -0.049999997 1.3 2.55
v -0.049999997 0 2.55
v 0.07 1.3 2.55
v -0.049999997 1.3 2.55
v 0.07 0 2.55
v 0.07 1.35 2.6
v 0.07 0 2.55
v 0.07 -0.049999997 2.6
v 0.07 1.3 2.55
v 0.07 0 0
v -0.049999997 0 2.55
v -0.049999997 0 0
v 0.07 0 2.55
v 0.07 1.3 2.55
v 0.07 1.35 0
v 0.07 1.3 0
v 0.07 1.35 2.6
v 0.07 -0.049999997 2.6
v 0.07 0 0
v 0.07 -0.049999997 0
v 0.07 0 2.55
vt 0.18432617 0.55615234
vt 0.2770996 0.36157227
vt 0.18432617 0.36157227
vt 0.2770996 0.55615234
vt 0.012382507 0.15966797
vt 0.24658203 0.14868164
vt 0.012382507 0.14868164
vt 0.24658203 0.15966797
vt 0.016967773 0.14135742
vt 0.13635254 0.15234375
vt 0.13635254 0.14135742
vt 0.016967773 0.15234375
vt 0.11456299 0.14807129
vt 0.23706055 0.15258789
vt 0.24157715 0.14807129
vt 0.11907959 0.15258789
vt 0.012382507 0.15234375
vt 0.24658203 0.14135742
vt 0.012382507 0.14135742
vt 0.24658203 0.15234375
vt 0.23986816 0.15307617
vt 0.00844574 0.1484375
vt 0.00844574 0.15307617
vt 0.24450684 0.1484375
vt 0.24450684 0.15246582
vt 0.00844574 0.14794922
vt 0.00844574 0.15246582
vt 0.23986816 0.14794922
vn 1 0 0
vn 1 0 0
vn 1 0 0
vn 1 0 0
vn -0 -1 0
vn -0 -1 0
vn -0 -1 0
vn -0 -1 0
vn -0 0 -1
vn -0 0 -1
vn -0 0 -1
vn -0 0 -1
vn 1 0 0
vn 1 0 0
vn 1 0 0
vn 1 0 0
vn -0 1 0
vn -0 1 0
vn -0 1 0
vn -0 1 0
vn 1 0 0
vn 1 0 0
vn 1 0 0
vn 1 0 0
vn 1 0 0
vn 1 0 0
vn 1 0 0
vn 1 0 0
g Hospital_STR_House_03_Door_0
f 3/3/3 2/2/2 1/1/1
f 4/4/4 1/1/1 2/2/2
f 7/7/7 6/6/6 5/5/5
f 8/8/8 5/5/5 6/6/6
f 11/11/11 10/10/10 9/9/9
f 12/12/12 9/9/9 10/10/10
f 15/15/15 14/14/14 13/13/13
f 16/16/16 13/13/13 14/14/14
f 19/19/19 18/18/18 17/17/17
f 20/20/20 17/17/17 18/18/18
f 23/23/23 22/22/22 21/21/21
f 24/24/24 21/21/21 22/22/22
f 27/27/27 26/26/26 25/25/25
f 28/28/28 25/25/25 26/26/26
