g Hospital_STR_House_02_sub
v -1.8310546E-06 0.30000466 0.7000006
v -3.3000026 3.0000067 0.7000006
v -1.8310546E-06 3.0000067 0.7000006
v -3.3000023 0.30000466 0.7000006
v -3.3000023 14.400004 0.7000006
v -1.2207031E-06 7.000005 0.7000005
v -3.3000026 7.000005 0.7000006
v -0.40000242 11.400004 0.7000006
v -0.40000242 14.400004 0.7000006
v -2.4414062E-06 11.400004 0.7000006
v -3.4999743 1.782503 0.7999854
v -3.5000145 0.10000427 9.155273E-07
v -3.4999743 1.782503 9.155273E-07
v -3.5000012 0.10000366 0.79999995
v -3.4999804 3.200011 0.7999936
v -3.4999743 1.782503 9.155273E-07
v -3.4999895 3.2000115 9.155273E-07
v -3.4999743 1.782503 0.7999854
v -3.5000012 0.10000366 0.79999995
v -2.2449312 0.100003965 9.155273E-07
v -3.5000145 0.10000427 9.155273E-07
v -2.2449243 0.100003965 0.79999447
v -3.3000658 0.3000055 0.8000018
v -2.2449243 0.100003965 0.79999447
v -3.5000012 0.10000366 0.79999995
v -2.2449203 0.3000055 0.7999955
v -3.30005 1.782503 0.7999837
v -3.5000012 0.10000366 0.79999995
v -3.4999743 1.782503 0.7999854
v -3.3000658 0.3000055 0.8000018
v -3.300047 3.000009 0.79999185
v -3.4999743 1.782503 0.7999854
v -3.4999804 3.200011 0.7999936
v -3.30005 1.782503 0.7999837
v -3.30005 1.782503 0.7999837
v -3.300084 0.3000061 9.155273E-07
v -3.3000658 0.3000055 0.8000018
v -3.3000476 1.782503 9.155273E-07
v -3.300047 3.000009 0.79999185
v -3.3000476 1.782503 9.155273E-07
v -3.30005 1.782503 0.7999837
v -3.3000524 3.0000093 9.155273E-07
v -3.3000658 0.3000055 0.8000018
v -2.2449293 0.3000058 9.155273E-07
v -2.2449203 0.3000055 0.7999955
v -3.300084 0.3000061 9.155273E-07
v -1.9213943 0.099005125 0.79998916
v -2.3628104 0.0990039 0.61032665
v -2.3628116 0.0990039 0.79998916
v -1.9213943 0.099005125 0.61032665
v -2.8279505 0.099005125 0.2931317
v -3.272771 0.0990039 0.09724609
v -3.272772 0.0990039 0.2931323
v -2.8279505 0.099005125 0.097245485
v -3.3192723 0.32513916 0.8009998
v -3.4950523 0.7717608 0.801001
v -3.3192723 0.7717621 0.801001
v -3.4950523 0.32513916 0.8009998
v -3.5010498 2.2309484 0.285959
v -3.5010533 2.6759264 0.09007332
v -3.5010533 2.6759276 0.28595954
v -3.5010498 2.2309484 0.09007278
v -3.383872 2.2341077 0.8009998
v -3.4999743 2.6806505 0.801001
v -3.383872 2.680652 0.801001
v -3.4999743 2.2341077 0.8009998
v -2.2449243 0.100003965 0.79999447
v -0.001038208 0.10000366 9.155273E-07
v -2.2449312 0.100003965 9.155273E-07
v 0.0020721436 0.10000427 0.79998904
v -2.2449203 0.3000055 0.7999955
v 0.0020721436 0.10000427 0.79998904
v -2.2449243 0.100003965 0.79999447
v -0.001038208 0.3000055 0.79998916
v -2.2449203 0.3000055 0.7999955
v -0.001038208 0.3000055 9.155273E-07
v -0.001038208 0.3000055 0.79998916
v -2.2449293 0.3000058 9.155273E-07
v -0.555238 0.09900574 0.2244628
v -1.0002159 0.09900574 0.02857727
v -1.0002171 0.09900574 0.22446342
v -0.555238 0.09900574 0.028576659
v -0.78414184 0.2771692 0.8009998
v -1.227953 0.16106689 0.801001
v -1.2279543 0.2771692 0.801001
v -0.78414184 0.16106689 0.8009998
v -2.2449234 3.000009 0.79999995
v -0.001038208 3.000009 9.155273E-07
v -2.2449262 3.0000093 9.155273E-07
v 0.0020721436 3.0000098 0.79998904
v -2.2449152 3.200011 0.7999955
v 0.0020721436 3.0000098 0.79998904
v -2.2449234 3.000009 0.79999995
v -0.001038208 3.200011 0.79998916
v -2.2449152 3.200011 0.7999955
v -0.001038208 3.200011 9.155273E-07
v -0.001038208 3.200011 0.79998916
v -2.2449243 3.2000115 9.155273E-07
v -3.300047 3.000009 0.79999185
v -2.2449262 3.0000093 9.155273E-07
v -3.3000524 3.0000093 9.155273E-07
v -2.2418053 3.0000098 0.79998904
v -3.4999804 3.200011 0.7999936
v -2.2418053 3.0000098 0.79998904
v -3.300047 3.000009 0.79999185
v -2.2449152 3.200011 0.7999955
v -3.4999804 3.200011 0.7999936
v -2.2449243 3.2000115 9.155273E-07
v -2.2449152 3.200011 0.7999955
v -3.4999895 3.2000115 9.155273E-07
v -0.33322144 3.180235 0.8009998
v -0.77703243 3.0641327 0.801001
v -0.7770337 3.180235 0.801001
v -0.33322144 3.0641327 0.8009998
v -2.1332157 3.070412 0.8009998
v -1.6866728 3.1865141 0.801001
v -1.6866716 3.070412 0.801001
v -2.1332157 3.1865141 0.8009998
v -3.4999743 8.482503 0.7999854
v -3.5000145 6.800004 9.155273E-07
v -3.4999743 8.482503 9.155273E-07
v -3.5000012 6.8000035 0.79999995
v -3.4999743 10.165003 0.7999854
v -3.4999743 8.482503 9.155273E-07
v -3.4999743 10.165003 9.155273E-07
v -3.4999743 8.482503 0.7999854
v -3.4999743 11.847504 0.7999854
v -3.4999743 10.165003 9.155273E-07
v -3.4999743 11.847504 9.155273E-07
v -3.4999743 10.165003 0.7999854
v -3.4999743 13.530004 0.7999854
v -3.4999743 11.847504 9.155273E-07
v -3.4999743 13.530004 9.155273E-07
v -3.4999743 11.847504 0.7999854
v -3.4999743 15.379395 0.7999854
v -3.4999743 13.530004 9.155273E-07
v -3.4999743 15.379395 9.155273E-07
v -3.4999743 13.530004 0.7999854
v -3.5000012 6.8000035 0.79999995
v -2.2449312 6.8000035 9.155273E-07
v -3.5000145 6.800004 9.155273E-07
v -2.2449243 6.8000035 0.79999447
v -3.3000658 7.0000052 0.8000018
v -2.2449243 6.8000035 0.79999447
v -3.5000012 6.8000035 0.79999995
v -2.2449203 7.0000052 0.7999955
v -3.30005 8.482503 0.7999837
v -3.5000012 6.8000035 0.79999995
v -3.4999743 8.482503 0.7999854
v -3.3000658 7.0000052 0.8000018
v -3.30005 10.165003 0.7999837
v -3.4999743 8.482503 0.7999854
v -3.4999743 10.165003 0.7999854
v -3.30005 8.482503 0.7999837
v -3.30005 11.847504 0.7999837
v -3.4999743 10.165003 0.7999854
v -3.4999743 11.847504 0.7999854
v -3.30005 10.165003 0.7999837
v -3.30005 13.530004 0.7999837
v -3.4999743 11.847504 0.7999854
v -3.4999743 13.530004 0.7999854
v -3.30005 11.847504 0.7999837
v -3.30005 15.379395 0.7999837
v -3.4999743 13.530004 0.7999854
v -3.4999743 15.379395 0.7999854
v -3.30005 13.530004 0.7999837
v -3.30005 8.482503 0.7999837
v -3.300084 7.0000057 9.155273E-07
v -3.3000658 7.0000052 0.8000018
v -3.3000476 8.482503 9.155273E-07
v -3.30005 10.165003 0.7999837
v -3.3000476 8.482503 9.155273E-07
v -3.30005 8.482503 0.7999837
v -3.3000476 10.165003 9.155273E-07
v -3.30005 11.847504 0.7999837
v -3.3000476 10.165003 9.155273E-07
v -3.30005 10.165003 0.7999837
v -3.3000476 11.847504 9.155273E-07
v -3.30005 13.530004 0.7999837
v -3.3000476 11.847504 9.155273E-07
v -3.30005 11.847504 0.7999837
v -3.3000476 13.530004 9.155273E-07
v -3.30005 15.379395 0.7999837
v -3.3000476 13.530004 9.155273E-07
v -3.30005 13.530004 0.7999837
v -3.3000476 15.379395 9.155273E-07
v -3.3000658 7.0000052 0.8000018
v -2.2449293 7.0000057 9.155273E-07
v -2.2449203 7.0000052 0.7999955
v -3.300084 7.0000057 9.155273E-07
v -0.5594867 6.799005 0.79998916
v -1.0009027 6.7990036 0.61032665
v -1.000904 6.7990036 0.79998916
v -0.5594867 6.799005 0.61032665
v -3.0516617 6.799005 0.79999936
v -3.4964821 6.7990036 0.60411376
v -3.4964833 6.7990036 0.79999995
v -3.0516617 6.799005 0.60411316
v -2.8279505 6.799005 0.2931317
v -3.272771 6.7990036 0.09724609
v -3.272772 6.7990036 0.2931323
v -2.8279505 6.799005 0.097245485
v -3.3192723 7.025139 0.8009998
v -3.4950523 7.4717607 0.801001
v -3.3192723 7.4717617 0.801001
v -3.4950523 7.025139 0.8009998
v -3.5010498 8.930948 0.285959
v -3.5010533 9.375926 0.09007332
v -3.5010533 9.375928 0.28595954
v -3.5010498 8.930948 0.09007278
v -3.5010533 10.613051 0.6135571
v -3.5010533 11.058029 0.41767156
v -3.5010533 11.058031 0.6135577
v -3.5010533 10.613051 0.41767097
v -3.3225057 13.757086 0.8009998
v -3.438608 14.240751 0.801001
v -3.3225057 14.240753 0.801001
v -3.438608 13.757086 0.8009998
v -3.383872 8.934108 0.8009998
v -3.4999743 9.3806505 0.801001
v -3.383872 9.380651 0.801001
v -3.4999743 8.934108 0.8009998
v -3.5010486 12.074883 0.7999893
v -3.5010498 12.5163 0.6103268
v -3.5010498 12.516301 0.7999893
v -3.5010486 12.074883 0.6103268
v -3.5010486 13.753521 0.28237984
v -3.5010498 14.198342 0.086494066
v -3.5010498 14.198343 0.28238022
v -3.5010486 13.753521 0.086493455
v -2.2449243 6.8000035 0.79999447
v -0.001038208 6.8000035 9.155273E-07
v -2.2449312 6.8000035 9.155273E-07
v 0.0020721436 6.800004 0.79998904
v -2.2449203 7.0000052 0.7999955
v 0.0020721436 6.800004 0.79998904
v -2.2449243 6.8000035 0.79999447
v -0.001038208 7.0000052 0.79998916
v -2.2449203 7.0000052 0.7999955
v -0.001038208 7.0000052 9.155273E-07
v -0.001038208 7.0000052 0.79998916
v -2.2449293 7.0000057 9.155273E-07
v -1.6869676 6.7990055 0.2244628
v -2.1319456 6.7990055 0.02857727
v -2.1319468 6.7990055 0.22446342
v -1.6869676 6.7990055 0.028576659
v -0.78414184 6.977169 0.8009998
v -1.227953 6.861067 0.801001
v -1.2279543 6.977169 0.801001
v -0.78414184 6.861067 0.8009998
vt 14.3828125 23.09375
vt 13.8359375 23.546875
vt 14.3828125 23.546875
vt 13.8359375 23.09375
vt 13.8359375 25.453125
vt 14.3828125 24.21875
vt 13.8359375 24.21875
vt 14.3203125 24.953125
vt 14.3203125 25.453125
vt 14.3828125 24.953125
vt 0.14416504 0.7446289
vt 0.2866211 0.6738281
vt 0.14416504 0.6738281
vt 0.2866211 0.7446289
vt 0.16662598 0.7446289
vt 0.2866211 0.6738281
vt 0.16662598 0.6738281
vt 0.2866211 0.7446289
vt 0.15307617 0.7446289
vt 0.25952148 0.6738281
vt 0.15307617 0.6738281
vt 0.25952148 0.7446289
vt 0.17004395 0.6826172
vt 0.25952148 0.66503906
vt 0.15307617 0.66503906
vt 0.25952148 0.6826172
vt 0.14416504 0.6826172
vt 0.2866211 0.66503906
vt 0.14416504 0.66503906
vt 0.2697754 0.6826172
vt 0.18359375 0.6826172
vt 0.2866211 0.66503906
vt 0.16662598 0.66503906
vt 0.2866211 0.6826172
vt 0.14416504 0.7446289
vt 0.2697754 0.6738281
vt 0.2697754 0.7446289
vt 0.14416504 0.6738281
vt 0.18359375 0.7446289
vt 0.2866211 0.6738281
vt 0.2866211 0.7446289
vt 0.18359375 0.6738281
vt 0.17004395 0.7446289
vt 0.25952148 0.6738281
vt 0.25952148 0.7446289
vt 0.17004395 0.6738281
vt 0.34326172 0.61279297
vt 0.28833008 0.5883789
vt 0.28833008 0.61279297
vt 0.34326172 0.5883789
vt 0.34326172 0.66308594
vt 0.28833008 0.6381836
vt 0.28833008 0.66308594
vt 0.34326172 0.6381836
vt 0.34326172 0.66308594
vt 0.28833008 0.6381836
vt 0.28833008 0.66308594
vt 0.34326172 0.6381836
vt 0.34326172 0.6879883
vt 0.28833008 0.6635742
vt 0.28833008 0.6879883
vt 0.34326172 0.6635742
vt 0.34326172 0.66308594
vt 0.28833008 0.64697266
vt 0.28833008 0.66308594
vt 0.34326172 0.64697266
vt 0.010322571 0.7446289
vt 0.20043945 0.6738281
vt 0.010322571 0.6738281
vt 0.20043945 0.7446289
vt 0.01033783 0.6826172
vt 0.20043945 0.6645508
vt 0.01033783 0.66503906
vt 0.20043945 0.6826172
vt 0.010322571 0.7446289
vt 0.20043945 0.6738281
vt 0.20043945 0.7446289
vt 0.010322571 0.6738281
vt 0.34326172 0.6386719
vt 0.28833008 0.6142578
vt 0.28833008 0.6386719
vt 0.34326172 0.6142578
vt 0.34326172 0.66308594
vt 0.28833008 0.64697266
vt 0.28833008 0.66308594
vt 0.34326172 0.64697266
vt 0.010322571 0.7446289
vt 0.20043945 0.6738281
vt 0.010322571 0.6738281
vt 0.20043945 0.7446289
vt 0.01033783 0.6826172
vt 0.20043945 0.6645508
vt 0.01033783 0.66503906
vt 0.20043945 0.6826172
vt 0.010322571 0.7446289
vt 0.20043945 0.6738281
vt 0.20043945 0.7446289
vt 0.010322571 0.6738281
vt 0.11090088 0.7446289
vt 0.20043945 0.6738281
vt 0.11102295 0.6738281
vt 0.20043945 0.7446289
vt 0.09411621 0.6826172
vt 0.20043945 0.6645508
vt 0.11090088 0.66503906
vt 0.20043945 0.6826172
vt 0.09411621 0.7446289
vt 0.20043945 0.6738281
vt 0.20043945 0.7446289
vt 0.09411621 0.6738281
vt 0.34326172 0.66308594
vt 0.28833008 0.64697266
vt 0.28833008 0.66308594
vt 0.34326172 0.64697266
vt 0.34326172 0.66308594
vt 0.28833008 0.64697266
vt 0.28833008 0.66308594
vt 0.34326172 0.64697266
vt 0.14416504 0.7446289
vt 0.2866211 0.6738281
vt 0.14416504 0.6738281
vt 0.2866211 0.7446289
vt 0.14416504 0.7446289
vt 0.2866211 0.6738281
vt 0.14416504 0.6738281
vt 0.2866211 0.7446289
vt 0.14416504 0.7446289
vt 0.2866211 0.6738281
vt 0.14416504 0.6738281
vt 0.2866211 0.7446289
vt 0.14416504 0.7446289
vt 0.2866211 0.6738281
vt 0.14416504 0.6738281
vt 0.2866211 0.7446289
vt 0.13000488 0.7446289
vt 0.2866211 0.6738281
vt 0.13000488 0.6738281
vt 0.2866211 0.7446289
vt 0.15307617 0.7446289
vt 0.25952148 0.6738281
vt 0.15307617 0.6738281
vt 0.25952148 0.7446289
vt 0.17004395 0.6826172
vt 0.25952148 0.66503906
vt 0.15307617 0.66503906
vt 0.25952148 0.6826172
vt 0.14416504 0.6826172
vt 0.2866211 0.66503906
vt 0.14416504 0.66503906
vt 0.2697754 0.6826172
vt 0.14416504 0.6826172
vt 0.2866211 0.66503906
vt 0.14416504 0.66503906
vt 0.2866211 0.6826172
vt 0.14416504 0.6826172
vt 0.2866211 0.66503906
vt 0.14416504 0.66503906
vt 0.2866211 0.6826172
vt 0.14416504 0.6826172
vt 0.2866211 0.66503906
vt 0.14416504 0.66503906
vt 0.2866211 0.6826172
vt 0.13000488 0.6826172
vt 0.2866211 0.66503906
vt 0.13000488 0.66503906
vt 0.2866211 0.6826172
vt 0.14416504 0.7446289
vt 0.2697754 0.6738281
vt 0.2697754 0.7446289
vt 0.14416504 0.6738281
vt 0.14416504 0.7446289
vt 0.2866211 0.6738281
vt 0.2866211 0.7446289
vt 0.14416504 0.6738281
vt 0.14416504 0.7446289
vt 0.2866211 0.6738281
vt 0.2866211 0.7446289
vt 0.14416504 0.6738281
vt 0.14416504 0.7446289
vt 0.2866211 0.6738281
vt 0.2866211 0.7446289
vt 0.14416504 0.6738281
vt 0.13000488 0.7446289
vt 0.2866211 0.6738281
vt 0.2866211 0.7446289
vt 0.13000488 0.6738281
vt 0.17004395 0.7446289
vt 0.25952148 0.6738281
vt 0.25952148 0.7446289
vt 0.17004395 0.6738281
vt 0.34326172 0.61279297
vt 0.28833008 0.5883789
vt 0.28833008 0.61279297
vt 0.34326172 0.5883789
vt 0.34326172 0.6879883
vt 0.28833008 0.6635742
vt 0.28833008 0.6879883
vt 0.34326172 0.6635742
vt 0.34326172 0.66308594
vt 0.28833008 0.6381836
vt 0.28833008 0.66308594
vt 0.34326172 0.6381836
vt 0.34326172 0.66308594
vt 0.28833008 0.6381836
vt 0.28833008 0.66308594
vt 0.34326172 0.6381836
vt 0.34326172 0.6879883
vt 0.28833008 0.6635742
vt 0.28833008 0.6879883
vt 0.34326172 0.6635742
vt 0.34326172 0.6386719
vt 0.28833008 0.6142578
vt 0.28833008 0.6386719
vt 0.34326172 0.6142578
vt 0.34326172 0.66308594
vt 0.28833008 0.64697266
vt 0.28833008 0.66308594
vt 0.34326172 0.64697266
vt 0.34326172 0.66308594
vt 0.28833008 0.64697266
vt 0.28833008 0.66308594
vt 0.34326172 0.64697266
vt 0.34326172 0.61279297
vt 0.28833008 0.5883789
vt 0.28833008 0.61279297
vt 0.34326172 0.5883789
vt 0.34326172 0.66308594
vt 0.28833008 0.6381836
vt 0.28833008 0.66308594
vt 0.34326172 0.6381836
vt 0.010322571 0.7446289
vt 0.20043945 0.6738281
vt 0.010322571 0.6738281
vt 0.20043945 0.7446289
vt 0.01033783 0.6826172
vt 0.20043945 0.6645508
vt 0.01033783 0.66503906
vt 0.20043945 0.6826172
vt 0.010322571 0.7446289
vt 0.20043945 0.6738281
vt 0.20043945 0.7446289
vt 0.010322571 0.6738281
vt 0.34326172 0.6386719
vt 0.28833008 0.6142578
vt 0.28833008 0.6386719
vt 0.34326172 0.6142578
vt 0.34326172 0.66308594
vt 0.28833008 0.64697266
vt 0.28833008 0.66308594
vt 0.34326172 0.64697266
vn -0 0 1
vn -0 0 1
vn -0 0 1
vn -0 0 1
vn -0 0 1
vn -0 0 1
vn -0 0 1
vn -0 0 1
vn -0 0 1
vn -0 0 1
vn -1 8.702278E-06 2.3841858E-06
vn -1 1.8239021E-05 1.2040138E-05
vn -1 8.761883E-06 1.847744E-06
vn -1 1.5974045E-05 1.680851E-05
vn -1 -8.6426735E-06 7.688999E-06
vn -1 8.761883E-06 1.847744E-06
vn -1 -1.0788441E-05 1.1444092E-05
vn -1 8.702278E-06 2.3841858E-06
vn -0 -1 -4.7683716E-07
vn -0 -1 -1.1920929E-07
vn -2.3841858E-07 -1 -7.748604E-07
vn -0 -1 0
vn -8.46386E-06 -2.9802322E-07 1
vn 4.1127205E-06 -5.4836273E-06 1
vn -6.2584877E-06 -8.940697E-07 1
vn 4.23193E-06 -4.827976E-06 1
vn 7.6293945E-06 1.1324883E-06 1
vn -6.2584877E-06 -8.940697E-07 1
vn 8.46386E-06 1.013279E-06 1
vn -8.46386E-06 -2.9802322E-07 1
vn 2.9802322E-06 -6.020069E-06 1
vn 8.46386E-06 1.013279E-06 1
vn 2.3841858E-06 -8.583069E-06 1
vn 7.6293945E-06 1.1324883E-06 1
vn 1 -1.1384487E-05 -1.013279E-06
vn 1 -1.513958E-05 -1.4722347E-05
vn 1 -1.0728836E-05 -2.2888184E-05
vn 1 -1.2397766E-05 1.1920929E-06
vn 1 1.6093254E-06 -3.2186508E-06
vn 1 -1.2397766E-05 1.1920929E-06
vn 1 -1.1384487E-05 -1.013279E-06
vn 1 3.993511E-06 -6.854534E-06
vn 1.7881393E-07 1 5.9604645E-07
vn 1.1920929E-07 1 4.7683716E-07
vn -0 1 3.5762787E-07
vn 2.9802322E-07 1 7.748604E-07
vn 2.7418137E-06 -1 0
vn 2.7418137E-06 -1 0
vn 2.7418137E-06 -1 0
vn 2.7418137E-06 -1 0
vn 2.7418137E-06 -1 0
vn 2.7418137E-06 -1 0
vn 2.7418137E-06 -1 0
vn 2.7418137E-06 -1 0
vn -0 -2.7418137E-06 1
vn -0 -2.7418137E-06 1
vn -0 -2.7418137E-06 1
vn -0 -2.7418137E-06 1
vn -1 -8.225441E-06 0
vn -1 -8.225441E-06 0
vn -1 -8.225441E-06 0
vn -1 -8.225441E-06 0
vn -0 -2.7418137E-06 1
vn -0 -2.7418137E-06 1
vn -0 -2.7418137E-06 1
vn -0 -2.7418137E-06 1
vn -0 -1 0
vn -0 -1 5.9604645E-07
vn -0 -1 -1.1920929E-07
vn 1.1920929E-07 -1 7.748604E-07
vn 4.23193E-06 -4.827976E-06 1
vn 2.8014183E-06 -5.9604645E-07 1
vn 4.1127205E-06 -5.4836273E-06 1
vn 2.8014183E-06 -3.5762787E-07 1
vn -0 1 3.5762787E-07
vn -0 1 0
vn -0 1 0
vn 1.1920929E-07 1 4.7683716E-07
vn -0 -1 0
vn -0 -1 0
vn -0 -1 0
vn -0 -1 0
vn 2.7418137E-06 0 1
vn 2.7418137E-06 0 1
vn 2.7418137E-06 0 1
vn 2.7418137E-06 0 1
vn -0 -1 -1.1920929E-07
vn 1.7881393E-07 -1 5.364418E-07
vn 1.1920929E-07 -1 -1.7881393E-07
vn 2.9802322E-07 -1 7.748604E-07
vn 1.6093254E-06 -5.543232E-06 1
vn 2.9206276E-06 9.536743E-07 1
vn 4.827976E-06 2.2530556E-05 1
vn 2.8014183E-06 -3.5762787E-07 1
vn 1.1920929E-07 1 6.556511E-07
vn -0 1 1.7881393E-07
vn -0 1 0
vn 1.1920929E-07 1 7.748604E-07
vn 2.3841858E-07 -1 0
vn 1.1920929E-07 -1 -1.7881393E-07
vn -0 -1 -3.5762787E-07
vn 5.9604645E-07 -1 3.5762787E-07
vn 2.3841858E-06 -8.583069E-06 1
vn -1.0728836E-06 -2.9444695E-05 1
vn 2.9802322E-06 -6.020069E-06 1
vn 1.6093254E-06 -5.543232E-06 1
vn -0 1 7.748604E-07
vn 1.1920929E-07 1 7.748604E-07
vn 1.1920929E-07 1 6.556511E-07
vn -0 1 7.748604E-07
vn 2.7418137E-06 0 1
vn 2.7418137E-06 0 1
vn 2.7418137E-06 0 1
vn 2.7418137E-06 0 1
vn -2.7418137E-06 0 1
vn -2.7418137E-06 0 1
vn -2.7418137E-06 0 1
vn -2.7418137E-06 0 1
vn -1 1.0848045E-05 2.3841858E-06
vn -1 1.8239021E-05 1.2040138E-05
vn -1 1.1980534E-05 0
vn -1 1.5974045E-05 1.680851E-05
vn -1 0 0
vn -1 1.1980534E-05 0
vn -1 0 0
vn -1 1.0848045E-05 2.3841858E-06
vn -1 0 0
vn -1 0 0
vn -1 0 0
vn -1 0 0
vn -1 0 0
vn -1 0 0
vn -1 0 0
vn -1 0 0
vn -1 0 0
vn -1 0 0
vn -1 0 0
vn -1 0 0
vn -2.9802322E-07 -1 -4.7683716E-07
vn -0 -1 -1.1920929E-07
vn -4.7683716E-07 -1 -7.748604E-07
vn -0 -1 0
vn -8.46386E-06 -2.9802322E-07 1
vn 4.1127205E-06 -5.4836273E-06 1
vn -6.2584877E-06 -8.940697E-07 1
vn 4.23193E-06 -4.827976E-06 1
vn 7.6293945E-06 4.4703484E-06 1
vn -6.2584877E-06 -8.940697E-07 1
vn 8.761883E-06 4.351139E-06 1
vn -8.46386E-06 -2.9802322E-07 1
vn 8.761883E-06 0 1
vn 8.761883E-06 4.351139E-06 1
vn 8.761883E-06 0 1
vn 7.6293945E-06 4.4703484E-06 1
vn 8.761883E-06 0 1
vn 8.761883E-06 0 1
vn 8.761883E-06 0 1
vn 8.761883E-06 0 1
vn 8.761883E-06 0 1
vn 8.761883E-06 0 1
vn 8.761883E-06 0 1
vn 8.761883E-06 0 1
vn 8.761883E-06 0 1
vn 8.761883E-06 0 1
vn 8.761883E-06 0 1
vn 8.761883E-06 0 1
vn 1 -1.013279E-05 -1.013279E-06
vn 1 -1.513958E-05 -1.4722347E-05
vn 1 -1.0728836E-05 -2.2888184E-05
vn 1 -1.23381615E-05 3.0398369E-06
vn 1 0 3.0398369E-06
vn 1 -1.23381615E-05 3.0398369E-06
vn 1 -1.013279E-05 -1.013279E-06
vn 1 0 3.0398369E-06
vn 1 0 3.0398369E-06
vn 1 0 3.0398369E-06
vn 1 0 3.0398369E-06
vn 1 0 3.0398369E-06
vn 1 0 3.0398369E-06
vn 1 0 3.0398369E-06
vn 1 0 3.0398369E-06
vn 1 0 3.0398369E-06
vn 1 0 3.0398369E-06
vn 1 0 3.0398369E-06
vn 1 0 3.0398369E-06
vn 1 0 3.0398369E-06
vn -0 1 7.748604E-07
vn 1.1920929E-07 1 7.748604E-07
vn 1.1920929E-07 1 6.556511E-07
vn -0 1 7.748604E-07
vn 2.7418137E-06 -1 0
vn 2.7418137E-06 -1 0
vn 2.7418137E-06 -1 0
vn 2.7418137E-06 -1 0
vn 2.7418137E-06 -1 0
vn 2.7418137E-06 -1 0
vn 2.7418137E-06 -1 0
vn 2.7418137E-06 -1 0
vn 2.7418137E-06 -1 0
vn 2.7418137E-06 -1 0
vn 2.7418137E-06 -1 0
vn 2.7418137E-06 -1 0
vn -0 -2.7418137E-06 1
vn -0 -2.7418137E-06 1
vn -0 -2.7418137E-06 1
vn -0 -2.7418137E-06 1
vn -1 -8.225441E-06 0
vn -1 -8.225441E-06 0
vn -1 -8.225441E-06 0
vn -1 -8.225441E-06 0
vn -1 0 0
vn -1 0 0
vn -1 0 0
vn -1 0 0
vn -0 -2.503395E-06 1
vn -0 -2.503395E-06 1
vn -0 -2.503395E-06 1
vn -0 -2.503395E-06 1
vn -0 -2.7418137E-06 1
vn -0 -2.7418137E-06 1
vn -0 -2.7418137E-06 1
vn -0 -2.7418137E-06 1
vn -1 -2.7418137E-06 0
vn -1 -2.7418137E-06 0
vn -1 -2.7418137E-06 0
vn -1 -2.7418137E-06 0
vn -1 -2.7418137E-06 0
vn -1 -2.7418137E-06 0
vn -1 -2.7418137E-06 0
vn -1 -2.7418137E-06 0
vn -0 -1 0
vn 2.3841858E-07 -1 5.9604645E-07
vn -0 -1 -1.1920929E-07
vn 2.9802322E-07 -1 7.748604E-07
vn 4.23193E-06 -4.827976E-06 1
vn 2.8014183E-06 -5.9604645E-07 1
vn 4.1127205E-06 -5.4836273E-06 1
vn 2.8014183E-06 -3.5762787E-07 1
vn 1.1920929E-07 1 6.556511E-07
vn -0 1 1.7881393E-07
vn -0 1 0
vn 1.1920929E-07 1 7.748604E-07
vn -0 -1 0
vn -0 -1 0
vn -0 -1 0
vn -0 -1 0
vn 2.7418137E-06 0 1
vn 2.7418137E-06 0 1
vn 2.7418137E-06 0 1
vn 2.7418137E-06 0 1
g Hospital_STR_House_02_sub_0
f 3/3/3 2/2/2 1/1/1
f 4/4/4 1/1/1 2/2/2
f 7/7/7 6/6/6 5/5/5
f 6/6/6 8/8/8 5/5/5
f 8/8/8 9/9/9 5/5/5
f 10/10/10 8/8/8 6/6/6
g Hospital_STR_House_02_sub_1
f 13/13/13 12/12/12 11/11/11
f 14/14/14 11/11/11 12/12/12
f 17/17/17 16/16/16 15/15/15
f 18/18/18 15/15/15 16/16/16
f 21/21/21 20/20/20 19/19/19
f 22/22/22 19/19/19 20/20/20
f 25/25/25 24/24/24 23/23/23
f 26/26/26 23/23/23 24/24/24
f 29/29/29 28/28/28 27/27/27
f 30/30/30 27/27/27 28/28/28
f 33/33/33 32/32/32 31/31/31
f 34/34/34 31/31/31 32/32/32
f 37/37/37 36/36/36 35/35/35
f 38/38/38 35/35/35 36/36/36
f 41/41/41 40/40/40 39/39/39
f 42/42/42 39/39/39 40/40/40
f 45/45/45 44/44/44 43/43/43
f 46/46/46 43/43/43 44/44/44
f 49/49/49 48/48/48 47/47/47
f 50/50/50 47/47/47 48/48/48
f 53/53/53 52/52/52 51/51/51
f 54/54/54 51/51/51 52/52/52
f 57/57/57 56/56/56 55/55/55
f 58/58/58 55/55/55 56/56/56
f 61/61/61 60/60/60 59/59/59
f 62/62/62 59/59/59 60/60/60
f 65/65/65 64/64/64 63/63/63
f 66/66/66 63/63/63 64/64/64
f 69/69/69 68/68/68 67/67/67
f 70/70/70 67/67/67 68/68/68
f 73/73/73 72/72/72 71/71/71
f 74/74/74 71/71/71 72/72/72
f 77/77/77 76/76/76 75/75/75
f 78/78/78 75/75/75 76/76/76
f 81/81/81 80/80/80 79/79/79
f 82/82/82 79/79/79 80/80/80
f 85/85/85 84/84/84 83/83/83
f 86/86/86 83/83/83 84/84/84
f 89/89/89 88/88/88 87/87/87
f 90/90/90 87/87/87 88/88/88
f 93/93/93 92/92/92 91/91/91
f 94/94/94 91/91/91 92/92/92
f 97/97/97 96/96/96 95/95/95
f 98/98/98 95/95/95 96/96/96
f 101/101/101 100/100/100 99/99/99
f 102/102/102 99/99/99 100/100/100
f 105/105/105 104/104/104 103/103/103
f 106/106/106 103/103/103 104/104/104
f 109/109/109 108/108/108 107/107/107
f 110/110/110 107/107/107 108/108/108
f 113/113/113 112/112/112 111/111/111
f 114/114/114 111/111/111 112/112/112
f 117/117/117 116/116/116 115/115/115
f 118/118/118 115/115/115 116/116/116
f 121/121/121 120/120/120 119/119/119
f 122/122/122 119/119/119 120/120/120
f 125/125/125 124/124/124 123/123/123
f 126/126/126 123/123/123 124/124/124
f 129/129/129 128/128/128 127/127/127
f 130/130/130 127/127/127 128/128/128
f 133/133/133 132/132/132 131/131/131
f 134/134/134 131/131/131 132/132/132
f 137/137/137 136/136/136 135/135/135
f 138/138/138 135/135/135 136/136/136
f 141/141/141 140/140/140 139/139/139
f 142/142/142 139/139/139 140/140/140
f 145/145/145 144/144/144 143/143/143
f 146/146/146 143/143/143 144/144/144
f 149/149/149 148/148/148 147/147/147
f 150/150/150 147/147/147 148/148/148
f 153/153/153 152/152/152 151/151/151
f 154/154/154 151/151/151 152/152/152
f 157/157/157 156/156/156 155/155/155
f 158/158/158 155/155/155 156/156/156
f 161/161/161 160/160/160 159/159/159
f 162/162/162 159/159/159 160/160/160
f 165/165/165 164/164/164 163/163/163
f 166/166/166 163/163/163 164/164/164
f 169/169/169 168/168/168 167/167/167
f 170/170/170 167/167/167 168/168/168
f 173/173/173 172/172/172 171/171/171
f 174/174/174 171/171/171 172/172/172
f 177/177/177 176/176/176 175/175/175
f 178/178/178 175/175/175 176/176/176
f 181/181/181 180/180/180 179/179/179
f 182/182/182 179/179/179 180/180/180
f 185/185/185 184/184/184 183/183/183
f 186/186/186 183/183/183 184/184/184
f 189/189/189 188/188/188 187/187/187
f 190/190/190 187/187/187 188/188/188
f 193/193/193 192/192/192 191/191/191
f 194/194/194 191/191/191 192/192/192
f 197/197/197 196/196/196 195/195/195
f 198/198/198 195/195/195 196/196/196
f 201/201/201 200/200/200 199/199/199
f 202/202/202 199/199/199 200/200/200
f 205/205/205 204/204/204 203/203/203
f 206/206/206 203/203/203 204/204/204
f 209/209/209 208/208/208 207/207/207
f 210/210/210 207/207/207 208/208/208
f 213/213/213 212/212/212 211/211/211
f 214/214/214 211/211/211 212/212/212
f 217/217/217 216/216/216 215/215/215
f 218/218/218 215/215/215 216/216/216
f 221/221/221 220/220/220 219/219/219
f 222/222/222 219/219/219 220/220/220
f 225/225/225 224/224/224 223/223/223
f 226/226/226 223/223/223 224/224/224
f 229/229/229 228/228/228 227/227/227
f 230/230/230 227/227/227 228/228/228
f 233/233/233 232/232/232 231/231/231
f 234/234/234 231/231/231 232/232/232
f 237/237/237 236/236/236 235/235/235
f 238/238/238 235/235/235 236/236/236
f 241/241/241 240/240/240 239/239/239
f 242/242/242 239/239/239 240/240/240
f 245/245/245 244/244/244 243/243/243
f 246/246/246 243/243/243 244/244/244
f 249/249/249 248/248/248 247/247/247
f 250/250/250 247/247/247 248/248/248
