g Bg_Temple_OBJ_Block_02
v 0.37471375 0.42069334 0.048959654
v -0.3698268 -0.40709412 0.061827086
v -0.4220166 0.3669757 0.054822844
v 0.4060138 -0.37370056 0.05337997
v 0.42345688 -0.30228272 0.052773893
v -0.28831297 -0.42051268 0.06109436
v 0.38314742 0.43056822 -0.06182701
v -0.432666 0.3762799 0.044213712
v -0.4335385 0.37550658 -0.055779494
v 0.3840184 0.43134275 0.0381662
v -0.4335385 0.37550658 -0.055779494
v -0.3792711 -0.41567382 0.051345978
v -0.3801431 -0.41644776 -0.048647232
v -0.432666 0.3762799 0.044213712
v -0.3801431 -0.41644776 -0.048647232
v -0.28879425 -0.43056762 0.050546568
v -0.28966615 -0.43134215 -0.049446564
v -0.3792711 -0.41567382 0.051345978
v -0.28966615 -0.43134215 -0.049446564
v 0.41399032 -0.38318482 0.042753905
v 0.41311842 -0.38395873 -0.057239227
v -0.28879425 -0.43056762 0.050546568
v 0.41311842 -0.38395873 -0.057239227
v 0.4335385 -0.30315307 0.042062834
v 0.43266678 -0.30392823 -0.0579303
v 0.41399032 -0.38318482 0.042753905
v 0.43266678 -0.30392823 -0.0579303
v 0.3840184 0.43134275 0.0381662
v 0.38314742 0.43056822 -0.06182701
v 0.4335385 -0.30315307 0.042062834
v 0.3840184 0.43134275 0.0381662
v -0.4220166 0.3669757 0.054822844
v -0.432666 0.3762799 0.044213712
v 0.37471375 0.42069334 0.048959654
v -0.432666 0.3762799 0.044213712
v -0.3698268 -0.40709412 0.061827086
v -0.3792711 -0.41567382 0.051345978
v -0.4220166 0.3669757 0.054822844
v -0.3792711 -0.41567382 0.051345978
v -0.28831297 -0.42051268 0.06109436
v -0.28879425 -0.43056762 0.050546568
v -0.3698268 -0.40709412 0.061827086
v -0.28879425 -0.43056762 0.050546568
v 0.4060138 -0.37370056 0.05337997
v 0.41399032 -0.38318482 0.042753905
v -0.28831297 -0.42051268 0.06109436
v 0.41399032 -0.38318482 0.042753905
v 0.42345688 -0.30228272 0.052773893
v 0.4335385 -0.30315307 0.042062834
v 0.4060138 -0.37370056 0.05337997
v 0.4335385 -0.30315307 0.042062834
v 0.37471375 0.42069334 0.048959654
v 0.3840184 0.43134275 0.0381662
v 0.42345688 -0.30228272 0.052773893
vt 0.22265625 0.78222656
vt 0.11193848 0.67529297
vt 0.11187744 0.78222656
vt 0.21923828 0.6723633
vt 0.22265625 0.68310547
vt 0.1239624 0.6723633
vt 0.64990234 0.87890625
vt 0.5683594 0.88964844
vt 0.5683594 0.87890625
vt 0.64990234 0.88964844
vt 0.55859375 0.87890625
vt 0.6503906 0.88964844
vt 0.6503906 0.87890625
vt 0.55859375 0.88964844
vt 0.6503906 0.87890625
vt 0.66064453 0.88964844
vt 0.66064453 0.87890625
vt 0.6503906 0.88964844
vt 0.66064453 0.87890625
vt 0.55908203 0.88964844
vt 0.55908203 0.87890625
vt 0.66064453 0.88964844
vt 0.55908203 0.87890625
vt 0.5678711 0.88964844
vt 0.5678711 0.87890625
vt 0.55908203 0.88964844
vt 0.5678711 0.87890625
vt 0.64990234 0.88964844
vt 0.64990234 0.87890625
vt 0.5678711 0.88964844
vt 0.22265625 0.78222656
vt 0.11187744 0.78222656
vt 0.11187744 0.78222656
vt 0.22265625 0.78222656
vt 0.11187744 0.78222656
vt 0.11193848 0.67529297
vt 0.11193848 0.67529297
vt 0.11187744 0.78222656
vt 0.11193848 0.67529297
vt 0.1239624 0.6723633
vt 0.1239624 0.6723633
vt 0.11193848 0.67529297
vt 0.1239624 0.6723633
vt 0.21923828 0.6723633
vt 0.21923828 0.6723633
vt 0.1239624 0.6723633
vt 0.21923828 0.6723633
vt 0.22265625 0.68310547
vt 0.22265625 0.68310547
vt 0.21923828 0.6723633
vt 0.22265625 0.68310547
vt 0.22265625 0.78222656
vt 0.22265625 0.78222656
vt 0.22265625 0.68310547
vn 0.008705139 0.007709503 1
vn 0.008880615 0.007904053 1
vn 0.006717682 0.009498596 1
vn 0.01058197 0.006023407 1
vn 0.010299683 0.005970001 1
vn 0.0104904175 0.009140015 1
vn -0.06732178 0.9975586 -0.007129669
vn -0.06732178 0.9975586 -0.007129669
vn -0.06732178 0.9975586 -0.007129669
vn -0.06732178 0.9975586 -0.0071411133
vn -0.9975586 -0.06719971 0.009223938
vn -0.9975586 -0.06719971 0.009223938
vn -0.9975586 -0.06719971 0.009223938
vn -0.9975586 -0.06719971 0.009223938
vn -0.16235352 -0.9868164 0.009056091
vn -0.16235352 -0.9868164 0.009056091
vn -0.16235352 -0.9868164 0.009056091
vn -0.16235352 -0.9868164 0.009056091
vn 0.06732178 -0.9975586 0.007133484
vn 0.06732178 -0.9975586 0.007133484
vn 0.06732178 -0.9975586 0.007133484
vn 0.06732178 -0.9975586 0.0071411133
vn 0.9711914 -0.23730469 -0.006629944
vn 0.9711914 -0.23730469 -0.006629944
vn 0.9711914 -0.23730469 -0.006629944
vn 0.9711914 -0.23730469 -0.0066337585
vn 0.9975586 0.06719971 -0.009208679
vn 0.9975586 0.06719971 -0.009208679
vn 0.9975586 0.06719971 -0.009208679
vn 0.9975586 0.06719971 -0.009216309
vn -0.044067383 0.7285156 0.68359375
vn -0.044067383 0.7285156 0.68359375
vn -0.044067383 0.7285156 0.68359375
vn -0.044189453 0.72998047 0.6821289
vn -0.7246094 -0.042663574 0.6879883
vn -0.7246094 -0.042663574 0.6879883
vn -0.7246094 -0.042663574 0.6879883
vn -0.7236328 -0.042541504 0.68896484
vn -0.11187744 -0.7167969 0.68847656
vn -0.11187744 -0.7167969 0.68847656
vn -0.11187744 -0.7167969 0.68847656
vn -0.11187744 -0.71728516 0.6879883
vn 0.056396484 -0.7236328 0.6879883
vn 0.056396484 -0.7236328 0.6879883
vn 0.056396484 -0.7236328 0.6879883
vn 0.05645752 -0.7241211 0.6875
vn 0.7109375 -0.16772461 0.68310547
vn 0.7109375 -0.16772461 0.68310547
vn 0.7109375 -0.16772461 0.68310547
vn 0.7104492 -0.16772461 0.68310547
vn 0.72998047 0.052825928 0.6816406
vn 0.72998047 0.052825928 0.6816406
vn 0.72998047 0.052825928 0.6816406
vn 0.7294922 0.052764893 0.6821289
g Bg_Temple_OBJ_Block_02_0
f 3/3/3 2/2/2 1/1/1
f 2/2/2 4/4/4 1/1/1
f 1/1/1 4/4/4 5/5/5
f 6/6/6 4/4/4 2/2/2
f 9/9/9 8/8/8 7/7/7
f 10/10/10 7/7/7 8/8/8
f 13/13/13 12/12/12 11/11/11
f 14/14/14 11/11/11 12/12/12
f 17/17/17 16/16/16 15/15/15
f 18/18/18 15/15/15 16/16/16
f 21/21/21 20/20/20 19/19/19
f 22/22/22 19/19/19 20/20/20
f 25/25/25 24/24/24 23/23/23
f 26/26/26 23/23/23 24/24/24
f 29/29/29 28/28/28 27/27/27
f 30/30/30 27/27/27 28/28/28
f 33/33/33 32/32/32 31/31/31
f 34/34/34 31/31/31 32/32/32
f 37/37/37 36/36/36 35/35/35
f 38/38/38 35/35/35 36/36/36
f 41/41/41 40/40/40 39/39/39
f 42/42/42 39/39/39 40/40/40
f 45/45/45 44/44/44 43/43/43
f 46/46/46 43/43/43 44/44/44
f 49/49/49 48/48/48 47/47/47
f 50/50/50 47/47/47 48/48/48
f 53/53/53 52/52/52 51/51/51
f 54/54/54 51/51/51 52/52/52
