g Bg_Temple_OBJ_WindeBell_01
v 0.028110975 0.008431962 -1.1426481
v 0.013854672 0.009701146 -1.1502529
v 0.017537976 0.023531774 -1.1426481
v 0.0009275615 -0.010602069 0.04659866
v -0.0096454425 0.0044977437 0.04659866
v 0.0087178815 0.0061043254 0.04659866
v 0.0825645 -0.11791377 -1.5662948
v -0.11791369 -0.08256409 -1.5662948
v -0.02499574 -0.14175934 -1.5662948
v 0.11791424 0.0825644 -1.5662948
v 0.14175972 -0.024995893 -1.5662948
v -0.08256396 0.11791407 -1.5662948
v -0.14175922 0.024996217 -1.5662948
v 0.0249963 0.14175968 -1.5662948
v 0.11791424 0.0825644 -1.5662948
v 0.02334691 0.13240612 -1.4609709
v 0.0249963 0.14175968 -1.5662948
v 0.11013399 0.07711664 -1.4609709
v 0.14175972 -0.024995893 -1.5662948
v 0.021799898 0.123633 -1.3550805
v 0.13240613 -0.02334671 -1.4609709
v 0.10283659 0.07200695 -1.3550805
v 0.014252655 0.08083081 -1.2486236
v 0.12363304 -0.02179983 -1.3550805
v 0.06723417 0.047077868 -1.2486236
v 1.0877847E-08 -1.5646219E-08 -1.1978432
v 0.08083084 -0.014252669 -1.2486236
v -0.08256396 0.11791407 -1.5662948
v -0.13240586 0.023346828 -1.4609709
v -0.14175922 0.024996217 -1.5662948
v -0.0771164 0.1101339 -1.4609709
v 0.0249963 0.14175968 -1.5662948
v -0.12363292 0.021799864 -1.3550805
v 0.02334691 0.13240612 -1.4609709
v -0.07200686 0.10283653 -1.3550805
v -0.08083082 0.014252669 -1.2486236
v 0.021799898 0.123633 -1.3550805
v -0.047077883 0.06723412 -1.2486236
v 1.0877847E-08 -1.5646219E-08 -1.1978432
v 0.014252655 0.08083081 -1.2486236
v -0.11791369 -0.08256409 -1.5662948
v -0.023346605 -0.13240594 -1.4609709
v -0.02499574 -0.14175934 -1.5662948
v -0.11013372 -0.077116475 -1.4609709
v -0.14175922 0.024996217 -1.5662948
v -0.021799764 -0.123632945 -1.3550805
v -0.13240586 0.023346828 -1.4609709
v -0.10283648 -0.072006896 -1.3550805
v -0.014252655 -0.08083083 -1.2486236
v -0.12363292 0.021799864 -1.3550805
v -0.06723415 -0.0470779 -1.2486236
v 1.0877847E-08 -1.5646219E-08 -1.1978432
v -0.08083082 0.014252669 -1.2486236
v 0.0825645 -0.11791377 -1.5662948
v 0.13240613 -0.02334671 -1.4609709
v 0.14175972 -0.024995893 -1.5662948
v 0.077116676 -0.11013377 -1.4609709
v -0.02499574 -0.14175934 -1.5662948
v 0.12363304 -0.02179983 -1.3550805
v -0.023346605 -0.13240594 -1.4609709
v 0.072006956 -0.102836505 -1.3550805
v 0.08083084 -0.014252669 -1.2486236
v -0.021799764 -0.123632945 -1.3550805
v 0.047077876 -0.06723418 -1.2486236
v 1.0877847E-08 -1.5646219E-08 -1.1978432
v -0.014252655 -0.08083083 -1.2486236
v -0.0096454425 0.0044977437 0.04659866
v 0.0087178815 0.0061043254 -1.1402113
v 0.0087178815 0.0061043254 0.04659866
v -0.0096454425 0.0044977437 -1.1324544
v -0.005522833 -0.0039092274 -1.1617739
v -0.030329203 -0.010106129 -1.1636758
v 0.0012513486 0.0008762037 -1.176742
v -0.0051148236 0.0076701175 -1.2010977
v 0.015273261 0.010652355 -1.1678127
v 0.025323238 0.02886213 -1.175801
v 0.013854672 0.009701146 -1.1502529
v 0.017537976 0.023531774 -1.1426481
v 0.0009275615 -0.010602069 0.04659866
v -0.0096454425 0.0044977437 -1.1324544
v -0.0096454425 0.0044977437 0.04659866
v 0.0009275615 -0.010602069 -1.1324544
v -0.030329203 -0.010106129 -1.1636758
v -0.019823818 -0.025109377 -1.1636758
v -0.0051148236 0.0076701175 -1.2010977
v 0.005458179 -0.007429696 -1.2010977
v 0.025323238 0.02886213 -1.175801
v 0.035828624 0.013858883 -1.175801
v 0.017537976 0.023531774 -1.1426481
v 0.028110975 0.008431962 -1.1426481
v 0.0087178815 0.0061043254 0.04659866
v 0.0009275615 -0.010602069 -1.1324544
v 0.0009275615 -0.010602069 0.04659866
v 0.0087178815 0.0061043254 -1.1402113
v -0.019823818 -0.025109377 -1.1636758
v -0.005522833 -0.0039092274 -1.1617739
v 0.0012513486 0.0008762037 -1.176742
v 0.005458179 -0.007429696 -1.2010977
v 0.035828624 0.013858883 -1.175801
v 0.015273261 0.010652355 -1.1678127
v 0.028110975 0.008431962 -1.1426481
v 0.013854672 0.009701146 -1.1502529
vt 0.41674805 0
vt -0.25 0
vt 0.08331299 0
vt 0.41674805 1
vt 0.33325195 1
vt 0.75 1
vt 0.45166016 0.5751953
vt 0.43652344 0.59033203
vt 0.44091797 0.57958984
vt 0.46679688 0.59033203
vt 0.46240234 0.57958984
vt 0.45166016 0.60546875
vt 0.44091797 0.6010742
vt 0.46240234 0.6010742
vt 0.45581055 0.53222656
vt 0.42919922 0.5576172
vt 0.4272461 0.5332031
vt 0.45581055 0.5566406
vt 0.48364258 0.5332031
vt 0.43188477 0.5859375
vt 0.48217773 0.5576172
vt 0.45581055 0.58496094
vt 0.44091797 0.61376953
vt 0.47998047 0.5859375
vt 0.45581055 0.61328125
vt 0.45581055 0.6376953
vt 0.47143555 0.61376953
vt 0.45507812 0.53222656
vt 0.48168945 0.5576172
vt 0.48364258 0.5332031
vt 0.45507812 0.5566406
vt 0.4272461 0.5332031
vt 0.47924805 0.5859375
vt 0.42871094 0.5576172
vt 0.45507812 0.58496094
vt 0.4699707 0.61376953
vt 0.4309082 0.5859375
vt 0.45507812 0.61328125
vt 0.45507812 0.6376953
vt 0.43945312 0.61376953
vt 0.45581055 0.53222656
vt 0.42919922 0.5576172
vt 0.4272461 0.5332031
vt 0.45581055 0.5566406
vt 0.48364258 0.5332031
vt 0.43188477 0.5859375
vt 0.48217773 0.5576172
vt 0.45581055 0.58496094
vt 0.44091797 0.61376953
vt 0.47998047 0.5859375
vt 0.45581055 0.61328125
vt 0.45581055 0.6376953
vt 0.47143555 0.61376953
vt 0.45507812 0.53222656
vt 0.48168945 0.5576172
vt 0.48364258 0.5332031
vt 0.45507812 0.5566406
vt 0.4272461 0.5332031
vt 0.47924805 0.5859375
vt 0.42871094 0.5576172
vt 0.45507812 0.58496094
vt 0.4699707 0.61376953
vt 0.4309082 0.5859375
vt 0.45507812 0.61328125
vt 0.45507812 0.6376953
vt 0.43945312 0.61376953
vt 0.44067383 0.5336914
vt 0.453125 0.5390625
vt 0.44067383 0.5390625
vt 0.453125 0.5336914
vt 0.45410156 0.5390625
vt 0.45410156 0.5336914
vt 0.45507812 0.5390625
vt 0.45507812 0.5336914
vt 0.4560547 0.5390625
vt 0.4560547 0.5336914
vt 0.45703125 0.5390625
vt 0.45703125 0.5336914
vt 0.44067383 0.5390625
vt 0.453125 0.5336914
vt 0.44067383 0.5336914
vt 0.453125 0.5390625
vt 0.45410156 0.5336914
vt 0.45410156 0.5390625
vt 0.45507812 0.5336914
vt 0.45507812 0.5390625
vt 0.4560547 0.5336914
vt 0.4560547 0.5390625
vt 0.45703125 0.5336914
vt 0.45703125 0.5390625
vt 0.44067383 0.5336914
vt 0.453125 0.5390625
vt 0.44067383 0.5390625
vt 0.453125 0.5336914
vt 0.45410156 0.5390625
vt 0.45410156 0.5336914
vt 0.45507812 0.5336914
vt 0.45507812 0.5390625
vt 0.4560547 0.5390625
vt 0.4560547 0.5336914
vt 0.45703125 0.5390625
vt 0.45703125 0.5336914
vn -0.46728516 -0.32714844 0.82128906
vn -0.46728516 -0.32714844 0.82128906
vn -0.46728516 -0.32714844 0.82128906
vn -0 0 1
vn -0 0 1
vn -0 0 1
vn -0 0 -1
vn -0 0 -1
vn -0 0 -1
vn -0 0 -1
vn -0 0 -1
vn -0 0 -1
vn -0 0 -1
vn -0 0 -1
vn 0.81591797 0.57128906 0.08984375
vn 0.17297363 0.98095703 0.08691406
vn 0.17297363 0.98095703 0.089782715
vn 0.81591797 0.57128906 0.08691406
vn 0.98095703 -0.17297363 0.08984375
vn 0.16918945 0.95947266 0.22558594
vn 0.98095703 -0.17297363 0.08691406
vn 0.79785156 0.55859375 0.22558594
vn 0.13745117 0.77978516 0.61083984
vn 0.95947266 -0.16918945 0.22558594
vn 0.6484375 0.45410156 0.61083984
vn -0 0 1
vn 0.77978516 -0.13745117 0.61083984
vn -0.57128906 0.81591797 0.089782715
vn -0.98095703 0.17297363 0.08691406
vn -0.98095703 0.17297363 0.089782715
vn -0.57128906 0.81591797 0.08691406
vn 0.17297363 0.98095703 0.089782715
vn -0.95947266 0.16918945 0.22558594
vn 0.17297363 0.98095703 0.08691406
vn -0.55859375 0.79785156 0.22558594
vn -0.77978516 0.13745117 0.61083984
vn 0.16918945 0.95947266 0.22558594
vn -0.45410156 0.6484375 0.61083984
vn -0 0 1
vn 0.13745117 0.77978516 0.61083984
vn -0.81591797 -0.57128906 0.089782715
vn -0.17297363 -0.98095703 0.08691406
vn -0.17297363 -0.98095703 0.089782715
vn -0.81591797 -0.57128906 0.08691406
vn -0.98095703 0.17297363 0.089782715
vn -0.16918945 -0.95947266 0.22558594
vn -0.98095703 0.17297363 0.08691406
vn -0.79785156 -0.55859375 0.22558594
vn -0.13745117 -0.77978516 0.61083984
vn -0.95947266 0.16918945 0.22558594
vn -0.6484375 -0.45410156 0.61083984
vn -0 0 1
vn -0.77978516 0.13745117 0.61083984
vn 0.57128906 -0.81591797 0.089782715
vn 0.98095703 -0.17297363 0.08691406
vn 0.98095703 -0.17297363 0.08984375
vn 0.57128906 -0.81591797 0.08691406
vn -0.17297363 -0.98095703 0.089782715
vn 0.95947266 -0.16918945 0.22558594
vn -0.17297363 -0.98095703 0.08691406
vn 0.55859375 -0.79785156 0.22558594
vn 0.77978516 -0.13745117 0.61083984
vn -0.16918945 -0.95947266 0.22558594
vn 0.45410156 -0.6484375 0.61083984
vn -0 0 1
vn -0.13745117 -0.77978516 0.61083984
vn -0.90625 0.42260742 0
vn 0.7675781 0.53759766 -0.34960938
vn 0.81933594 0.57373047 0
vn -0.8071289 0.5756836 0.13208008
vn 0.8046875 0.5605469 -0.19604492
vn -0.98876953 0.14953613 -0.004055023
vn 0.24450684 0.19030762 0.9506836
vn -0.4765625 0.4970703 -0.72509766
vn -0.7597656 -0.4794922 0.43896484
vn 0.13354492 0.96484375 -0.22607422
vn -0.83496094 -0.52685547 -0.15893555
vn 0.023010254 0.9863281 0.16394043
vn 0.0871582 -0.99609375 0
vn -0.8071289 0.5756836 0.13208008
vn -0.90625 0.42260742 0
vn 0.26489258 -0.9550781 0.13220215
vn -0.98876953 0.14953613 -0.004055023
vn -0.1965332 -0.98046875 -0.003929138
vn -0.4765625 0.4970703 -0.72509766
vn 0.29858398 -0.6171875 -0.72802734
vn 0.13354492 0.96484375 -0.22607422
vn 0.953125 -0.19360352 -0.23303223
vn 0.023010254 0.9863281 0.16394043
vn 0.92529297 -0.31152344 0.21643066
vn 0.81933594 0.57373047 0
vn 0.26489258 -0.9550781 0.13220215
vn 0.0871582 -0.99609375 0
vn 0.7675781 0.53759766 -0.34960938
vn -0.1965332 -0.98046875 -0.003929138
vn 0.8046875 0.5605469 -0.19604492
vn 0.24450684 0.19030762 0.9506836
vn 0.29858398 -0.6171875 -0.72802734
vn 0.953125 -0.19360352 -0.23303223
vn -0.7597656 -0.4794922 0.43896484
vn 0.92529297 -0.31152344 0.21643066
vn -0.83496094 -0.52685547 -0.15893555
g Bg_Temple_OBJ_WindeBell_01_0
f 3/3/3 2/2/2 1/1/1
f 6/6/6 5/5/5 4/4/4
f 9/9/9 8/8/8 7/7/7
f 8/8/8 10/10/10 7/7/7
f 7/7/7 10/10/10 11/11/11
f 12/12/12 10/10/10 8/8/8
f 13/13/13 12/12/12 8/8/8
f 14/14/14 10/10/10 12/12/12
f 17/17/17 16/16/16 15/15/15
f 18/18/18 15/15/15 16/16/16
f 15/15/15 18/18/18 19/19/19
f 16/16/16 20/20/20 18/18/18
f 21/21/21 19/19/19 18/18/18
f 22/22/22 18/18/18 20/20/20
f 18/18/18 22/22/22 21/21/21
f 20/20/20 23/23/23 22/22/22
f 24/24/24 21/21/21 22/22/22
f 25/25/25 22/22/22 23/23/23
f 22/22/22 25/25/25 24/24/24
f 23/23/23 26/26/26 25/25/25
f 27/27/27 24/24/24 25/25/25
f 25/25/25 26/26/26 27/27/27
f 30/30/30 29/29/29 28/28/28
f 31/31/31 28/28/28 29/29/29
f 28/28/28 31/31/31 32/32/32
f 29/29/29 33/33/33 31/31/31
f 34/34/34 32/32/32 31/31/31
f 35/35/35 31/31/31 33/33/33
f 31/31/31 35/35/35 34/34/34
f 33/33/33 36/36/36 35/35/35
f 37/37/37 34/34/34 35/35/35
f 38/38/38 35/35/35 36/36/36
f 35/35/35 38/38/38 37/37/37
f 36/36/36 39/39/39 38/38/38
f 40/40/40 37/37/37 38/38/38
f 38/38/38 39/39/39 40/40/40
f 43/43/43 42/42/42 41/41/41
f 44/44/44 41/41/41 42/42/42
f 41/41/41 44/44/44 45/45/45
f 42/42/42 46/46/46 44/44/44
f 47/47/47 45/45/45 44/44/44
f 48/48/48 44/44/44 46/46/46
f 44/44/44 48/48/48 47/47/47
f 46/46/46 49/49/49 48/48/48
f 50/50/50 47/47/47 48/48/48
f 51/51/51 48/48/48 49/49/49
f 48/48/48 51/51/51 50/50/50
f 49/49/49 52/52/52 51/51/51
f 53/53/53 50/50/50 51/51/51
f 51/51/51 52/52/52 53/53/53
f 56/56/56 55/55/55 54/54/54
f 57/57/57 54/54/54 55/55/55
f 54/54/54 57/57/57 58/58/58
f 55/55/55 59/59/59 57/57/57
f 60/60/60 58/58/58 57/57/57
f 61/61/61 57/57/57 59/59/59
f 57/57/57 61/61/61 60/60/60
f 59/59/59 62/62/62 61/61/61
f 63/63/63 60/60/60 61/61/61
f 64/64/64 61/61/61 62/62/62
f 61/61/61 64/64/64 63/63/63
f 62/62/62 65/65/65 64/64/64
f 66/66/66 63/63/63 64/64/64
f 64/64/64 65/65/65 66/66/66
f 69/69/69 68/68/68 67/67/67
f 70/70/70 67/67/67 68/68/68
f 68/68/68 71/71/71 70/70/70
f 72/72/72 70/70/70 71/71/71
f 71/71/71 73/73/73 72/72/72
f 74/74/74 72/72/72 73/73/73
f 73/73/73 75/75/75 74/74/74
f 76/76/76 74/74/74 75/75/75
f 75/75/75 77/77/77 76/76/76
f 78/78/78 76/76/76 77/77/77
f 81/81/81 80/80/80 79/79/79
f 82/82/82 79/79/79 80/80/80
f 80/80/80 83/83/83 82/82/82
f 84/84/84 82/82/82 83/83/83
f 83/83/83 85/85/85 84/84/84
f 86/86/86 84/84/84 85/85/85
f 85/85/85 87/87/87 86/86/86
f 88/88/88 86/86/86 87/87/87
f 87/87/87 89/89/89 88/88/88
f 90/90/90 88/88/88 89/89/89
f 93/93/93 92/92/92 91/91/91
f 94/94/94 91/91/91 92/92/92
f 92/92/92 95/95/95 94/94/94
f 96/96/96 94/94/94 95/95/95
f 96/96/96 95/95/95 97/97/97
f 98/98/98 97/97/97 95/95/95
f 98/98/98 99/99/99 97/97/97
f 100/100/100 97/97/97 99/99/99
f 99/99/99 101/101/101 100/100/100
f 102/102/102 100/100/100 101/101/101
