g Bg_Temple_STR_Base_Wall_01
v -13.719999 -13.975004 -1.1999999
v -1.4200011 -13.975006 -1.1999999
v -5.8399997 -13.975006 -1.1999999
v -1.4200011 -13.575007 0.19999999
v -13.831417 -13.895423 -0.9214569
v -14.28 -13.575007 0.19999999
v -1.4200011 -13.975006 -1.1999999
v -13.719999 -13.975004 -1.1999999
v -1.4200011 -13.575007 0.19999999
v -14.28 -13.175007 0.19999999
v -1.4200011 -13.175007 0.19999999
v -14.28 -13.575007 0.19999999
v -1.4200011 1.9749926 -1.1999999
v -1.4200011 -13.175007 0.19999999
v -1.4200011 1.9749926 0.19999999
v -1.4200011 -13.575007 0.19999999
v -1.4200011 -13.975006 -1.1999999
v 14.28 1.9749926 -1.1999999
v -1.4200011 1.9749926 0.19999999
v 14.28 1.9749926 0.19999999
v -1.4200011 1.9749926 -1.1999999
v 14.28 12.774995 -1.1999999
v 14.28 1.9749926 0.19999999
v 14.28 13.974995 1.1999993
v 14.28 1.9749926 -1.1999999
vt -4.0195312 2.4472656
vt 0.63964844 2.4472656
vt -1.0351562 2.4472656
vt 0.63964844 3
vt -4.0625 2.5566406
vt -4.234375 3
vt 0.63964844 2.4472656
vt -4.0195312 2.4472656
vt -5.1328125 -1.0009766
vt -1.1142578 -1.1259766
vt -5.1328125 -1.1259766
vt -1.1142578 -1.0009766
vt 3.9257812 -0
vt -0.8095703 0.4375
vt 3.9257812 0.4375
vt -0.9345703 0.4375
vt -1.0595703 -0
vt -0.25 0
vt -5.15625 0.4375
vt -0.25 0.4375
vt -5.15625 -0
vt 7.3007812 -0
vt 3.9257812 0.4375
vt 7.6757812 0.75
vt 3.9257812 -0
vn -0 0 1
vn -0 0 1
vn -0 0 1
vn -0 -0.9614258 0.2746582
vn -0 -0.9614258 0.2746582
vn -0 -0.9614258 0.2746582
vn -0 -0.9614258 0.2746582
vn -0 -0.9614258 0.2746582
vn -0 0 1
vn -0 0 1
vn -0 0 1
vn -0 0 1
vn 1 0 0
vn 1 0 0
vn 1 0 0
vn 1 0 0
vn 1 0 0
vn -0 -1 0
vn -0 -1 0
vn -0 -1 0
vn -0 -1 0
vn 1 0 0
vn 1 0 0
vn 1 0 0
vn 1 0 0
g Bg_Temple_STR_Base_Wall_01_0
f 3/3/3 2/2/2 1/1/1
f 6/6/6 5/5/5 4/4/4
f 4/4/4 5/5/5 7/7/7
f 7/7/7 5/5/5 8/8/8
f 11/11/11 10/10/10 9/9/9
f 12/12/12 9/9/9 10/10/10
f 15/15/15 14/14/14 13/13/13
f 14/14/14 16/16/16 13/13/13
f 16/16/16 17/17/17 13/13/13
f 20/20/20 19/19/19 18/18/18
f 21/21/21 18/18/18 19/19/19
f 24/24/24 23/23/23 22/22/22
f 25/25/25 22/22/22 23/23/23
