g Bg_Temple_OBJ_Block_01
v 0.37920654 0.34367126 0.06388931
v 0.37920898 -0.3887207 0.060440063
v -0.3791797 -0.38871947 0.05897476
v 0.3063684 0.38818482 0.062427673
v -0.38041747 0.38924438 0.04690872
v -0.38793457 -0.39926025 -0.05171463
v -0.38916138 -0.39871946 0.048276365
v 0.38920653 -0.39871946 0.04998703
v 0.39043334 -0.39926025 -0.050004043
v 0.39043334 -0.39926025 -0.050004043
v 0.38920653 -0.39871946 0.04998703
v 0.38920653 0.3492798 0.053351898
v 0.39043334 0.348739 -0.0466391
v 0.39043334 0.348739 -0.0466391
v 0.38920653 0.3492798 0.053351898
v 0.30918944 0.39817992 0.05177841
v 0.31041625 0.39763916 -0.048212662
v 0.31041625 0.39763916 -0.048212662
v 0.30918944 0.39817992 0.05177841
v -0.39043334 0.39926025 0.036101684
v -0.38920653 0.39871946 -0.063889384
v -0.38920653 0.39871946 -0.063889384
v -0.39043334 0.39926025 0.036101684
v -0.38916138 -0.39871946 0.048276365
v -0.38793457 -0.39926025 -0.05171463
v -0.38916138 -0.39871946 0.048276365
v -0.3791797 -0.38871947 0.05897476
v 0.37920898 -0.3887207 0.060440063
v 0.38920653 -0.39871946 0.04998703
v 0.38920653 -0.39871946 0.04998703
v 0.37920898 -0.3887207 0.060440063
v 0.37920654 0.34367126 0.06388931
v 0.38920653 0.3492798 0.053351898
v 0.38920653 0.3492798 0.053351898
v 0.37920654 0.34367126 0.06388931
v 0.3063684 0.38818482 0.062427673
v 0.30918944 0.39817992 0.05177841
v 0.30918944 0.39817992 0.05177841
v 0.3063684 0.38818482 0.062427673
v -0.38041747 0.38924438 0.04690872
v -0.39043334 0.39926025 0.036101684
v -0.39043334 0.39926025 0.036101684
v -0.38041747 0.38924438 0.04690872
v -0.3791797 -0.38871947 0.05897476
v -0.38916138 -0.39871946 0.048276365
vt 0.7758789 0.11407471
vt 0.7758789 0.009391785
vt 0.66552734 0.009391785
vt 0.76464844 0.120910645
vt 0.66552734 0.120910645
vt 0.65234375 0.828125
vt 0.65234375 0.83935547
vt 0.55859375 0.83935547
vt 0.55859375 0.828125
vt 0.55859375 0.828125
vt 0.55859375 0.83935547
vt 0.64208984 0.83935547
vt 0.64208984 0.828125
vt 0.64208984 0.828125
vt 0.64208984 0.83935547
vt 0.65234375 0.83935547
vt 0.65234375 0.828125
vt 0.65234375 0.828125
vt 0.65234375 0.83935547
vt 0.55859375 0.83935547
vt 0.55859375 0.828125
vt 0.55859375 0.828125
vt 0.55859375 0.83935547
vt 0.64208984 0.83935547
vt 0.64208984 0.828125
vt 0.66552734 0.009391785
vt 0.66552734 0.009391785
vt 0.7758789 0.009391785
vt 0.7758789 0.009391785
vt 0.7758789 0.009391785
vt 0.7758789 0.009391785
vt 0.7758789 0.11407471
vt 0.7758789 0.11407471
vt 0.7758789 0.11407471
vt 0.7758789 0.11407471
vt 0.76464844 0.120910645
vt 0.76464844 0.120910645
vt 0.76464844 0.120910645
vt 0.76464844 0.120910645
vt 0.66552734 0.120910645
vt 0.66552734 0.120910645
vt 0.66552734 0.120910645
vt 0.66552734 0.120910645
vt 0.66552734 0.009391785
vt 0.66552734 0.009391785
vn -0.012252808 0.0054397583 1
vn -0.012252808 0.0054397583 1
vn -0.012252808 0.0054397583 1
vn -0.012252808 0.0054397583 1
vn -0.012252808 0.0054397583 1
vn -1.1861324E-05 -1 0.0054092407
vn -1.1861324E-05 -1 0.0054092407
vn -1.1861324E-05 -1 0.0054092407
vn -1.1861324E-05 -1 0.0054092407
vn 1 -5.51939E-05 0.012268066
vn 1 -5.51939E-05 0.012268066
vn 1 -5.51939E-05 0.012268066
vn 1 -5.51939E-05 0.012268066
vn 0.5214844 0.8535156 0.0017824173
vn 0.5214844 0.8535156 0.0017824173
vn 0.5214844 0.8535156 0.0017824173
vn 0.5214844 0.8535156 0.0017824173
vn 0.0016651154 1 -0.0053863525
vn 0.0016651154 1 -0.0053863525
vn 0.0016651154 1 -0.0053863525
vn 0.0016651154 1 -0.0053863525
vn -1 -0.00178051 -0.012260437
vn -1 -0.00178051 -0.012260437
vn -1 -0.00178051 -0.012260437
vn -1 -0.00178051 -0.012260437
vn -0.001420021 -0.7265625 0.6870117
vn -0.001420021 -0.7265625 0.6870117
vn -0.001420021 -0.7265625 0.6870117
vn -0.001420021 -0.7265625 0.6870117
vn 0.7236328 -0.0031757355 0.6899414
vn 0.7236328 -0.0031757355 0.6899414
vn 0.7236328 -0.0031757355 0.6899414
vn 0.7236328 -0.0031757355 0.6899414
vn 0.3696289 0.6269531 0.6855469
vn 0.3696289 0.6269531 0.6855469
vn 0.3696289 0.6269531 0.6855469
vn 0.3696289 0.6269531 0.6855469
vn -0.014274597 0.7290039 0.6845703
vn -0.014274597 0.7290039 0.6845703
vn -0.014274597 0.7290039 0.6845703
vn -0.014274597 0.7290039 0.6845703
vn -0.7324219 0.009307861 0.68115234
vn -0.7324219 0.009307861 0.68115234
vn -0.7324219 0.009307861 0.68115234
vn -0.7324219 0.009307861 0.68115234
g Bg_Temple_OBJ_Block_01_0
f 3/3/3 2/2/2 1/1/1
f 1/1/1 4/4/4 3/3/3
f 4/4/4 5/5/5 3/3/3
f 8/8/8 7/7/7 6/6/6
f 9/9/9 8/8/8 6/6/6
f 12/12/12 11/11/11 10/10/10
f 13/13/13 12/12/12 10/10/10
f 16/16/16 15/15/15 14/14/14
f 17/17/17 16/16/16 14/14/14
f 20/20/20 19/19/19 18/18/18
f 21/21/21 20/20/20 18/18/18
f 24/24/24 23/23/23 22/22/22
f 25/25/25 24/24/24 22/22/22
f 28/28/28 27/27/27 26/26/26
f 29/29/29 28/28/28 26/26/26
f 32/32/32 31/31/31 30/30/30
f 33/33/33 32/32/32 30/30/30
f 36/36/36 35/35/35 34/34/34
f 37/37/37 36/36/36 34/34/34
f 40/40/40 39/39/39 38/38/38
f 41/41/41 40/40/40 38/38/38
f 44/44/44 43/43/43 42/42/42
f 45/45/45 44/44/44 42/42/42
