g Temple_OBJ_Giwa_02
v 0.098098144 0.17860222 0.018743662
v 0.14341247 0.13270542 0.026033157
v 0.14341247 -0.17860252 0.026033157
v 0.0031469725 -0.17860252 0.0034693396
v 0.0031469725 0.17860222 0.0034693396
v -0.0902362 -0.0737413 0.017845694
v -0.048012085 -0.17860252 0.011345317
v -0.14341858 -0.003189087 0.026033157
v -0.14341858 0.17860222 0.026033157
v 0.15018798 -0.18713447 -0.0034693258
v 0.14341247 0.13270542 0.026033157
v 0.15018798 0.1412381 -0.0034693258
v 0.14341247 -0.17860252 0.026033157
v 0.0031469725 0.17860222 0.0034693396
v 0.10482238 0.18713489 -0.010434326
v 0.098098144 0.17860222 0.018743662
v 0.0032226562 0.18713489 -0.02603314
v -0.14341858 0.17860222 0.026033157
v -0.15034546 0.18713489 -0.0034693258
v 0.0031469725 -0.17860252 0.0034693396
v -0.056002196 -0.18713447 -0.017331196
v -0.048012085 -0.17860252 0.011345317
v 0.0032226562 -0.18713447 -0.02603314
v 0.14341247 -0.17860252 0.026033157
v 0.15018798 -0.18713447 -0.0034693258
v 0.15018798 0.1412381 -0.0034693258
v 0.0032226562 -0.18713447 -0.02603314
v 0.15018798 -0.18713447 -0.0034693258
v 0.0032226562 0.18713489 -0.02603314
v 0.10482238 0.18713489 -0.010434326
v -0.087647095 -0.092471994 -0.012681639
v -0.056002196 -0.18713447 -0.017331196
v -0.15034546 0.18713489 -0.0034693258
v -0.15034546 0.0036724852 -0.0034693258
v -0.15034546 0.0036724852 -0.0034693258
v -0.14341858 0.17860222 0.026033157
v -0.14341858 -0.003189087 0.026033157
v -0.15034546 0.18713489 -0.0034693258
v -0.0902362 -0.0737413 0.017845694
v -0.15034546 0.0036724852 -0.0034693258
v -0.14341858 -0.003189087 0.026033157
v -0.087647095 -0.092471994 -0.012681639
v -0.048012085 -0.17860252 0.011345317
v -0.056002196 -0.18713447 -0.017331196
v 0.098098144 0.17860222 0.018743662
v 0.15018798 0.1412381 -0.0034693258
v 0.14341247 0.13270542 0.026033157
v 0.10482238 0.18713489 -0.010434326
vt 0.96777344 0.3852539
vt 0.9765625 0.37524414
vt 0.9765625 0.30810547
vt 0.94970703 0.30810547
vt 0.94970703 0.3852539
vt 0.9272461 0.3305664
vt 0.9375 0.30810547
vt 0.9145508 0.34594727
vt 0.9145508 0.3852539
vt 0.9765625 0.30810547
vt 0.97314453 0.37158203
vt 0.9765625 0.37573242
vt 0.97314453 0.3125
vt 0.9448242 0.3803711
vt 0.9667969 0.3852539
vt 0.9638672 0.3803711
vt 0.9448242 0.3852539
vt 0.91796875 0.3803711
vt 0.9145508 0.3852539
vt 0.9448242 0.3125
vt 0.93310547 0.30810547
vt 0.9355469 0.3125
vt 0.9448242 0.30810547
vt 0.97314453 0.3125
vt 0.9765625 0.30810547
vt 0.90771484 0.44067383
vt 0.890625 0.36645508
vt 0.90771484 0.36645508
vt 0.890625 0.45117188
vt 0.90234375 0.45117188
vt 0.8774414 0.38793945
vt 0.88183594 0.36645508
vt 0.86816406 0.45117188
vt 0.86816406 0.40966797
vt 0.9145508 0.3474121
vt 0.91796875 0.3803711
vt 0.91796875 0.34594727
vt 0.9145508 0.3852539
vt 0.89404297 0.4128418
vt 0.88720703 0.43579102
vt 0.89453125 0.43408203
vt 0.88671875 0.40820312
vt 0.8930664 0.3857422
vt 0.8857422 0.38427734
vt 0.88623047 0.43237305
vt 0.890625 0.41967773
vt 0.8852539 0.41992188
vt 0.89160156 0.4333496
vn -0.15881348 0 0.9873047
vn -0.15881348 0 0.9873047
vn -0.15881348 0 0.9873047
vn -0.0033740997 1.7881393E-07 1
vn -0.0033740997 0 1
vn 0.15209961 0 0.98828125
vn 0.15209961 5.364418E-07 0.98828125
vn 0.15209961 0 0.98828125
vn 0.15209961 0 0.98828125
vn 0.9746094 0 0.22387695
vn 0.9746094 0 0.22387695
vn 0.9746094 0 0.22387695
vn 0.9746094 0 0.22387695
vn -3.629923E-05 0.9609375 0.27734375
vn -0.043426514 0.9614258 0.27246094
vn -0.04360962 0.9614258 0.27124023
vn -0.00013613701 0.9609375 0.2770996
vn 0.039916992 0.96191406 0.27001953
vn 0.039520264 0.96240234 0.26904297
vn -0.0017290115 -0.9609375 0.27734375
vn 0.04171753 -0.9604492 0.27539062
vn 0.04220581 -0.9609375 0.27416992
vn -0.0016489029 -0.9609375 0.2770996
vn -0.04168701 -0.96191406 0.2697754
vn -0.041259766 -0.96240234 0.26879883
vn 0.1517334 2.9802322E-07 -0.98828125
vn 0.003227234 -1.1920929E-07 -1
vn 0.1517334 0 -0.98828125
vn 0.003227234 1.7881393E-07 -1
vn 0.1517334 1.5497208E-06 -0.98828125
vn -0.14538574 0 -0.9892578
vn -0.14538574 -4.7683716E-07 -0.9892578
vn -0.14538574 0 -0.9892578
vn -0.14538574 0 -0.9892578
vn -0.9736328 0 0.22851562
vn -0.9736328 0 0.22851562
vn -0.9736328 0 0.22851562
vn -0.9736328 0 0.22851562
vn -0.8388672 -0.5019531 0.21130371
vn -0.7988281 -0.59375 0.09649658
vn -0.7949219 -0.6044922 0.046051025
vn -0.8798828 -0.42651367 0.20947266
vn -0.8935547 -0.3251953 0.3088379
vn -0.88671875 -0.31323242 0.34033203
vn 0.63964844 0.6855469 0.34716797
vn 0.63964844 0.68603516 0.3461914
vn 0.63964844 0.68652344 0.34545898
vn 0.63964844 0.6850586 0.3479004
g Temple_OBJ_Giwa_02_0
f 3/3/3 2/2/2 1/1/1
f 4/4/4 3/3/3 1/1/1
f 5/5/5 4/4/4 1/1/1
f 4/4/4 5/5/5 6/6/6
f 7/7/7 4/4/4 6/6/6
f 5/5/5 8/8/8 6/6/6
f 9/9/9 8/8/8 5/5/5
f 12/12/12 11/11/11 10/10/10
f 13/13/13 10/10/10 11/11/11
f 16/16/16 15/15/15 14/14/14
f 17/17/17 14/14/14 15/15/15
f 14/14/14 17/17/17 18/18/18
f 19/19/19 18/18/18 17/17/17
f 22/22/22 21/21/21 20/20/20
f 23/23/23 20/20/20 21/21/21
f 20/20/20 23/23/23 24/24/24
f 25/25/25 24/24/24 23/23/23
f 28/28/28 27/27/27 26/26/26
f 27/27/27 29/29/29 26/26/26
f 29/29/29 30/30/30 26/26/26
f 31/31/31 29/29/29 27/27/27
f 32/32/32 31/31/31 27/27/27
f 33/33/33 29/29/29 31/31/31
f 34/34/34 33/33/33 31/31/31
f 37/37/37 36/36/36 35/35/35
f 38/38/38 35/35/35 36/36/36
f 41/41/41 40/40/40 39/39/39
f 42/42/42 39/39/39 40/40/40
f 39/39/39 42/42/42 43/43/43
f 44/44/44 43/43/43 42/42/42
f 47/47/47 46/46/46 45/45/45
f 48/48/48 45/45/45 46/46/46
