g Temple_OBJ_Handrail_01
v 0.11453911 0.114537925 2.4528503E-05
v 0.11453911 0.114537925 0.06416618
v -0.11453872 0.114537925 0.06416618
v -0.11453872 0.114537925 2.4528503E-05
v -0.11453872 0.114537925 2.4528503E-05
v -0.11453872 0.114537925 0.06416618
v -0.11453872 -0.1145396 0.06416618
v -0.11453872 -0.1145396 2.4528503E-05
v -0.11453872 -0.1145396 2.4528503E-05
v -0.11453872 -0.1145396 0.06416618
v 0.11453911 -0.1145396 0.06416618
v 0.11453911 -0.1145396 2.4528503E-05
v 0.11453911 -0.1145396 2.4528503E-05
v 0.11453911 -0.1145396 0.06416618
v 0.11453911 0.114537925 0.06416618
v 0.11453911 0.114537925 2.4528503E-05
v 0.078879125 0.078878276 0.8596064
v 0.078879125 -0.07887966 0.8596064
v -0.07887878 -0.07887966 0.8596064
v -0.07887878 0.078878276 0.8596064
v -0.09827404 0.0982735 0.8137398
v -0.09827404 0.0982735 0.067419395
v 0.09827438 0.0982735 0.067419395
v 0.09827438 0.0982735 0.8137398
v -0.09827404 -0.098274894 0.8137398
v -0.09827404 -0.098274894 0.067419395
v -0.09827404 0.0982735 0.067419395
v -0.09827404 0.0982735 0.8137398
v 0.09827438 -0.098274894 0.8137398
v 0.09827438 -0.098274894 0.067419395
v -0.09827404 -0.098274894 0.067419395
v -0.09827404 -0.098274894 0.8137398
v 0.09827438 -0.098274894 0.8137398
v 0.09827438 0.0982735 0.8137398
v 0.09827438 0.0982735 0.067419395
v 0.09827438 -0.098274894 0.067419395
v 0.09827438 0.0982735 0.8137398
v 0.078879125 0.078878276 0.8596064
v -0.07887878 0.078878276 0.8596064
v -0.09827404 0.0982735 0.8137398
v -0.09827404 0.0982735 0.8137398
v -0.07887878 0.078878276 0.8596064
v -0.07887878 -0.07887966 0.8596064
v -0.09827404 -0.098274894 0.8137398
v -0.09827404 -0.098274894 0.8137398
v -0.07887878 -0.07887966 0.8596064
v 0.078879125 -0.07887966 0.8596064
v 0.09827438 -0.098274894 0.8137398
v 0.09827438 -0.098274894 0.8137398
v 0.078879125 -0.07887966 0.8596064
v 0.078879125 0.078878276 0.8596064
v 0.09827438 0.0982735 0.8137398
v 0.09827438 0.0982735 0.067419395
v -0.09827404 0.0982735 0.067419395
v -0.11453872 0.114537925 0.06416618
v 0.11453911 0.114537925 0.06416618
v 0.09827438 -0.098274894 0.067419395
v 0.09827438 0.0982735 0.067419395
v 0.11453911 0.114537925 0.06416618
v 0.11453911 -0.1145396 0.06416618
v -0.09827404 -0.098274894 0.067419395
v 0.09827438 -0.098274894 0.067419395
v 0.11453911 -0.1145396 0.06416618
v -0.11453872 -0.1145396 0.06416618
v -0.09827404 0.0982735 0.067419395
v -0.09827404 -0.098274894 0.067419395
v -0.11453872 -0.1145396 0.06416618
v -0.11453872 0.114537925 0.06416618
vt 0.6230469 0.005821228
vt 0.6230469 0.032226562
vt 0.7001953 0.032226562
vt 0.7001953 0.005821228
vt 0.7001953 0.005821228
vt 0.7001953 0.032226562
vt 0.77490234 0.032226562
vt 0.77490234 0.005821228
vt 0.77490234 0.005821228
vt 0.77490234 0.032226562
vt 0.85058594 0.032226562
vt 0.85058594 0.005821228
vt 0.5473633 0.005821228
vt 0.5473633 0.032226562
vt 0.6230469 0.032226562
vt 0.6230469 0.005821228
vt 0.63623047 0.37841797
vt 0.63623047 0.4387207
vt 0.68896484 0.4387207
vt 0.68896484 0.37841797
vt 0.7001953 0.3540039
vt 0.7001953 0.04534912
vt 0.6230469 0.04534912
vt 0.6230469 0.3540039
vt 0.77490234 0.3540039
vt 0.77490234 0.04534912
vt 0.7001953 0.04534912
vt 0.7001953 0.3540039
vt 0.85058594 0.3540039
vt 0.85058594 0.04534912
vt 0.77490234 0.04534912
vt 0.77490234 0.3540039
vt 0.5473633 0.3540039
vt 0.6230469 0.3540039
vt 0.6230469 0.04534912
vt 0.5473633 0.04534912
vt 0.6230469 0.3540039
vt 0.63623047 0.37841797
vt 0.68896484 0.37841797
vt 0.7001953 0.3540039
vt 0.7001953 0.3540039
vt 0.7109375 0.37841797
vt 0.76416016 0.37841797
vt 0.77490234 0.3540039
vt 0.77490234 0.3540039
vt 0.78564453 0.37841797
vt 0.8383789 0.37841797
vt 0.85058594 0.3540039
vt 0.5473633 0.3540039
vt 0.55908203 0.37841797
vt 0.6123047 0.37841797
vt 0.6230469 0.3540039
vt 0.6230469 0.04534912
vt 0.7001953 0.04534912
vt 0.7001953 0.032226562
vt 0.6230469 0.032226562
vt 0.5473633 0.04534912
vt 0.6230469 0.04534912
vt 0.6230469 0.032226562
vt 0.5473633 0.032226562
vt 0.77490234 0.04534912
vt 0.85058594 0.04534912
vt 0.85058594 0.032226562
vt 0.77490234 0.032226562
vt 0.7001953 0.04534912
vt 0.77490234 0.04534912
vt 0.77490234 0.032226562
vt 0.7001953 0.032226562
vn -0 1 0
vn -0 1 0
vn -0 1 0
vn -0 1 0
vn -1 0 0
vn -1 0 0
vn -1 0 0
vn -1 0 0
vn -0 -1 0
vn -0 -1 0
vn -0 -1 0
vn -0 -1 0
vn 1 0 0
vn 1 0 0
vn 1 0 0
vn 1 0 0
vn -0 0 1
vn -0 0 1
vn -0 0 1
vn -0 0 1
vn -0 1 0
vn -0 1 0
vn -0 1 0
vn -0 1 0
vn -1 0 0
vn -1 0 0
vn -1 0 0
vn -1 0 0
vn -0 -1 0
vn -0 -1 0
vn -0 -1 0
vn -0 -1 0
vn 1 0 0
vn 1 0 0
vn 1 0 0
vn 1 0 0
vn -0 0.92089844 0.3894043
vn -0 0.92089844 0.3894043
vn -0 0.92089844 0.3894043
vn -0 0.92089844 0.3894043
vn -0.92089844 0 0.3894043
vn -0.92089844 0 0.3894043
vn -0.92089844 0 0.3894043
vn -0.92089844 0 0.3894043
vn -0 -0.92089844 0.3894043
vn -0 -0.92089844 0.3894043
vn -0 -0.92089844 0.3894043
vn -0 -0.92089844 0.3894043
vn 0.92089844 0 0.3894043
vn 0.92089844 0 0.3894043
vn 0.92089844 0 0.3894043
vn 0.92089844 0 0.3894043
vn -0 0.19616699 0.98046875
vn -0 0.19616699 0.98046875
vn -0 0.19616699 0.98046875
vn -0 0.19616699 0.98046875
vn 0.19616699 0 0.98046875
vn 0.19616699 0 0.98046875
vn 0.19616699 0 0.98046875
vn 0.19616699 0 0.98046875
vn -0 -0.19616699 0.98046875
vn -0 -0.19616699 0.98046875
vn -0 -0.19616699 0.98046875
vn -0 -0.19616699 0.98046875
vn -0.19616699 0 0.98046875
vn -0.19616699 0 0.98046875
vn -0.19616699 0 0.98046875
vn -0.19616699 0 0.98046875
g Temple_OBJ_Handrail_01_0
f 3/3/3 2/2/2 1/1/1
f 4/4/4 3/3/3 1/1/1
f 7/7/7 6/6/6 5/5/5
f 8/8/8 7/7/7 5/5/5
f 11/11/11 10/10/10 9/9/9
f 12/12/12 11/11/11 9/9/9
f 15/15/15 14/14/14 13/13/13
f 16/16/16 15/15/15 13/13/13
f 19/19/19 18/18/18 17/17/17
f 20/20/20 19/19/19 17/17/17
f 23/23/23 22/22/22 21/21/21
f 24/24/24 23/23/23 21/21/21
f 27/27/27 26/26/26 25/25/25
f 28/28/28 27/27/27 25/25/25
f 31/31/31 30/30/30 29/29/29
f 32/32/32 31/31/31 29/29/29
f 35/35/35 34/34/34 33/33/33
f 36/36/36 35/35/35 33/33/33
f 39/39/39 38/38/38 37/37/37
f 40/40/40 39/39/39 37/37/37
f 43/43/43 42/42/42 41/41/41
f 44/44/44 43/43/43 41/41/41
f 47/47/47 46/46/46 45/45/45
f 48/48/48 47/47/47 45/45/45
f 51/51/51 50/50/50 49/49/49
f 52/52/52 51/51/51 49/49/49
f 55/55/55 54/54/54 53/53/53
f 56/56/56 55/55/55 53/53/53
f 59/59/59 58/58/58 57/57/57
f 60/60/60 59/59/59 57/57/57
f 63/63/63 62/62/62 61/61/61
f 64/64/64 63/63/63 61/61/61
f 67/67/67 66/66/66 65/65/65
f 68/68/68 67/67/67 65/65/65
