g Temple_OBJ_Handrail_02
v 1.32108 0.04910894 0.29237875
v 1.3210803 -0.05887916 0.29237875
v 0.0005442047 -0.05887931 0.29237875
v 0.0005442047 0.049108792 0.29237875
v 1.3185384 0.04910894 0.1843984
v 1.32108 0.04910894 0.29237875
v 0.0005442047 0.049108792 0.29237875
v 0.0005447388 0.049108792 0.1843984
v 1.3210803 -0.05887916 0.29237875
v 1.3185384 -0.05887916 0.1843984
v 0.0005447388 -0.05887931 0.1843984
v 0.0005442047 -0.05887931 0.29237875
v 1.32108 0.04910894 0.5943189
v 1.3210803 -0.05887916 0.5943189
v 0.0005442047 -0.05887931 0.5943189
v 0.0005442047 0.049108792 0.5943189
v 1.3185384 0.04910894 0.48633856
v 1.32108 0.04910894 0.5943189
v 0.0005442047 0.049108792 0.5943189
v 0.0005447388 0.049108792 0.48633856
v 1.3210803 -0.05887916 0.5943189
v 1.3185384 -0.05887916 0.48633856
v 0.0005447388 -0.05887931 0.48633856
v 0.0005442047 -0.05887931 0.5943189
vt 0.9057617 0.55859375
vt 0.9511719 0.55859375
vt 0.9511719 0.005214691
vt 0.9057617 0.005214691
vt 0.8598633 0.55859375
vt 0.9057617 0.55859375
vt 0.9057617 0.005214691
vt 0.8598633 0.005214691
vt 0.9511719 0.55859375
vt 0.9970703 0.55859375
vt 0.9970703 0.005214691
vt 0.9511719 0.005214691
vt 0.9057617 0.55859375
vt 0.9511719 0.55859375
vt 0.9511719 0.005214691
vt 0.9057617 0.005214691
vt 0.8598633 0.55859375
vt 0.9057617 0.55859375
vt 0.9057617 0.005214691
vt 0.8598633 0.005214691
vt 0.9511719 0.55859375
vt 0.9970703 0.55859375
vt 0.9970703 0.005214691
vt 0.9511719 0.005214691
vn -0 0 1
vn -0 0 1
vn -0 0 1
vn -0 0 1
vn -1.1920929E-07 1 0
vn -1.1920929E-07 1 0
vn -1.1920929E-07 1 0
vn -1.1920929E-07 1 0
vn 1.1920929E-07 -1 0
vn 1.1920929E-07 -1 0
vn 1.1920929E-07 -1 0
vn 1.1920929E-07 -1 0
vn -0 0 1
vn -0 0 1
vn -0 0 1
vn -0 0 1
vn -1.1920929E-07 1 0
vn -1.1920929E-07 1 0
vn -1.1920929E-07 1 0
vn -1.1920929E-07 1 0
vn 1.1920929E-07 -1 0
vn 1.1920929E-07 -1 0
vn 1.1920929E-07 -1 0
vn 1.1920929E-07 -1 0
g Temple_OBJ_Handrail_02_0
f 3/3/3 2/2/2 1/1/1
f 4/4/4 3/3/3 1/1/1
f 7/7/7 6/6/6 5/5/5
f 8/8/8 7/7/7 5/5/5
f 11/11/11 10/10/10 9/9/9
f 12/12/12 11/11/11 9/9/9
f 15/15/15 14/14/14 13/13/13
f 16/16/16 15/15/15 13/13/13
f 19/19/19 18/18/18 17/17/17
f 20/20/20 19/19/19 17/17/17
f 23/23/23 22/22/22 21/21/21
f 24/24/24 23/23/23 21/21/21
