g Temple_OBJ_Giwa_01
v 0.0031518554 -0.18535751 0.0034693396
v 0.14341675 0.18535729 0.026033157
v 0.14341675 -0.18535744 0.026033157
v 0.0031518554 0.18535729 0.0034693396
v -0.14341308 -0.18535744 0.026033157
v -0.14341308 0.18535729 0.026033157
v -0.14341308 -0.18535744 0.026033157
v -0.15304565 -0.19767074 -0.0034693258
v -0.15304565 0.19767128 -0.0034693258
v -0.14341308 0.18535729 0.026033157
v 0.0031518554 -0.18535751 0.0034693396
v 0.003256836 -0.19767089 -0.02603314
v -0.15304565 -0.19767074 -0.0034693258
v -0.14341308 -0.18535744 0.026033157
v 0.14341675 -0.18535744 0.026033157
v 0.15283813 -0.19767074 -0.0034693258
v 0.003256836 -0.19767089 -0.02603314
v 0.0031518554 -0.18535751 0.0034693396
v 0.14341675 0.18535729 0.026033157
v 0.15283813 0.19767128 -0.0034693258
v 0.15283813 -0.19767074 -0.0034693258
v 0.14341675 -0.18535744 0.026033157
v 0.0031518554 0.18535729 0.0034693396
v 0.003256836 0.19767128 -0.02603314
v 0.15283813 0.19767128 -0.0034693258
v 0.14341675 0.18535729 0.026033157
v -0.14341308 0.18535729 0.026033157
v -0.15304565 0.19767128 -0.0034693258
v 0.003256836 0.19767128 -0.02603314
v 0.0031518554 0.18535729 0.0034693396
v 0.003256836 -0.19767089 -0.02603314
v 0.15283813 -0.19767074 -0.0034693258
v 0.15283813 0.19767128 -0.0034693258
v 0.003256836 0.19767128 -0.02603314
v -0.15304565 -0.19767074 -0.0034693258
v -0.15304565 0.19767128 -0.0034693258
vt 0.94970703 0.6933594
vt 0.9765625 0.7734375
vt 0.9765625 0.6933594
vt 0.94970703 0.7734375
vt 0.9145508 0.6933594
vt 0.9145508 0.7734375
vt 0.9189453 0.69921875
vt 0.9145508 0.6933594
vt 0.9145508 0.7734375
vt 0.9189453 0.7675781
vt 0.9448242 0.69921875
vt 0.9448242 0.6933594
vt 0.9145508 0.6933594
vt 0.9189453 0.69921875
vt 0.97216797 0.69921875
vt 0.9765625 0.6933594
vt 0.9448242 0.6933594
vt 0.9448242 0.69921875
vt 0.97216797 0.7675781
vt 0.9765625 0.7734375
vt 0.9765625 0.6933594
vt 0.97216797 0.69921875
vt 0.9448242 0.7675781
vt 0.9448242 0.7734375
vt 0.9765625 0.7734375
vt 0.97216797 0.7675781
vt 0.9189453 0.7675781
vt 0.9145508 0.7734375
vt 0.9448242 0.7734375
vt 0.9448242 0.7675781
vt 0.8901367 0.7260742
vt 0.9091797 0.7260742
vt 0.9091797 0.8120117
vt 0.8901367 0.8120117
vt 0.8701172 0.7260742
vt 0.8701172 0.8120117
vn -0.0033740997 0 1
vn -0.15881348 0 0.9873047
vn -0.15881348 0 0.9873047
vn -0.0033740997 0 1
vn 0.15209961 0 0.98828125
vn 0.15209961 0 0.98828125
vn -0.9506836 0 0.31030273
vn -0.9506836 0 0.31030273
vn -0.9506836 0 0.31030273
vn -0.9506836 0 0.31030273
vn 0.056152344 -0.9248047 0.37670898
vn 0.056152344 -0.9248047 0.37670898
vn 0.056152344 -0.9248047 0.37670898
vn 0.056152344 -0.9248047 0.37670898
vn -0.05859375 -0.9248047 0.37646484
vn -0.05859375 -0.9248047 0.37646484
vn -0.05859375 -0.9248047 0.37646484
vn -0.05859375 -0.9248047 0.37646484
vn 0.9526367 0 0.30419922
vn 0.9526367 0 0.30419922
vn 0.9526367 0 0.30419922
vn 0.9526367 0 0.30419922
vn -0.058624268 0.9248047 0.37646484
vn -0.058624268 0.9248047 0.37646484
vn -0.058624268 0.9248047 0.37646484
vn -0.058624268 0.9248047 0.37646484
vn 0.056152344 0.9248047 0.37695312
vn 0.056152344 0.9248047 0.37695312
vn 0.056152344 0.9248047 0.37695312
vn 0.056152344 0.9248047 0.37695312
vn 0.0031738281 0 -1
vn 0.14916992 0 -0.98876953
vn 0.14916992 0 -0.98876953
vn 0.0031738281 0 -1
vn -0.14282227 0 -0.9897461
vn -0.14282227 0 -0.9897461
g Temple_OBJ_Giwa_01_0
f 3/3/3 2/2/2 1/1/1
f 2/2/2 4/4/4 1/1/1
f 1/1/1 4/4/4 5/5/5
f 4/4/4 6/6/6 5/5/5
f 9/9/9 8/8/8 7/7/7
f 10/10/10 9/9/9 7/7/7
f 13/13/13 12/12/12 11/11/11
f 14/14/14 13/13/13 11/11/11
f 17/17/17 16/16/16 15/15/15
f 18/18/18 17/17/17 15/15/15
f 21/21/21 20/20/20 19/19/19
f 22/22/22 21/21/21 19/19/19
f 25/25/25 24/24/24 23/23/23
f 26/26/26 25/25/25 23/23/23
f 29/29/29 28/28/28 27/27/27
f 30/30/30 29/29/29 27/27/27
f 33/33/33 32/32/32 31/31/31
f 34/34/34 33/33/33 31/31/31
f 34/34/34 31/31/31 35/35/35
f 36/36/36 34/34/34 35/35/35
