g Temple_STR_House_04_Base
v 7 0 0.099999994
v -0 0 1.5645174E-13
v 5.7752913E-15 0 0.099999994
v 7 0 0
v 7 9.999999 0
v 7 0 0.099999994
v 7 9.999999 0.099999994
v 7 0 0
v 5.7752913E-15 9.999999 0.099999994
v -0 0 1.5645174E-13
v -0 9.999999 1.5645174E-13
v 5.7752913E-15 0 0.099999994
v -0 9.999999 1.5645174E-13
v 7 9.999999 0.099999994
v 5.7752913E-15 9.999999 0.099999994
v 7 9.999999 0
v 7 9.999999 0.099999994
v 5.7752913E-15 0 0.099999994
v 5.7752913E-15 9.999999 0.099999994
v 7 0 0.099999994
vt 1.3056641 -0.6508789
vt -0.30566406 -0.6738281
vt -0.30566406 -0.6508789
vt 1.3056641 -0.6738281
vt 1.328125 1.6503906
vt 1.3056641 -0.6508789
vt 1.3056641 1.6503906
vt 1.328125 -0.6508789
vt -0.30566406 1.6503906
vt -0.32861328 -0.6508789
vt -0.32861328 1.6503906
vt -0.30566406 -0.6508789
vt -0.30566406 1.6738281
vt 1.3056641 1.6503906
vt -0.30566406 1.6503906
vt 1.3056641 1.6738281
vt 1.3056641 1.6503906
vt -0.30566406 -0.6508789
vt -0.30566406 1.6503906
vt 1.3056641 -0.6508789
vn -0 -1 0
vn -0 -1 0
vn -0 -1 0
vn -0 -1 0
vn 1 0 0
vn 1 0 0
vn 1 0 0
vn 1 0 0
vn -1 0 0
vn -1 0 0
vn -1 0 0
vn -1 0 0
vn -0 1 0
vn -0 1 0
vn -0 1 0
vn -0 1 0
vn -0 0 1
vn -0 0 1
vn -0 0 1
vn -0 0 1
g Temple_STR_House_04_Base_0
f 3/3/3 2/2/2 1/1/1
f 4/4/4 1/1/1 2/2/2
f 7/7/7 6/6/6 5/5/5
f 8/8/8 5/5/5 6/6/6
f 11/11/11 10/10/10 9/9/9
f 12/12/12 9/9/9 10/10/10
f 15/15/15 14/14/14 13/13/13
f 16/16/16 13/13/13 14/14/14
f 19/19/19 18/18/18 17/17/17
f 20/20/20 17/17/17 18/18/18
