g Temple_OBJ_Giwa_03
v 0.11831726 0.22023048 -0.010108138
v 0.11831726 -0.22022949 -0.010108138
v 0.01609253 -0.22022949 0.08170454
v 0.01609253 0.22023048 0.08170458
v -0.10030273 -0.22022949 -0.010108138
v -0.10030273 0.22023048 -0.010108138
v 0.1299237 -0.2232254 -0.04766786
v 0.11831726 -0.22022949 -0.010108138
v 0.11831726 0.22023048 -0.010108138
v 0.1299237 0.2232241 -0.04766786
v 0.1299237 0.2232241 -0.04766786
v 0.11831726 0.22023048 -0.010108138
v 0.01609253 0.22023048 0.08170458
v 0.016481323 0.2232241 0.047667008
v 0.016481323 0.2232241 0.047667008
v 0.01609253 0.22023048 0.08170458
v -0.10030273 0.22023048 -0.010108138
v -0.11268555 0.2232241 -0.04766786
v -0.11268555 0.2232241 -0.04766786
v -0.10030273 0.22023048 -0.010108138
v -0.10030273 -0.22022949 -0.010108138
v -0.11268555 -0.2232254 -0.04766786
v -0.11268555 -0.2232254 -0.04766786
v -0.10030273 -0.22022949 -0.010108138
v 0.01609253 -0.22022949 0.08170454
v 0.016481323 -0.2232254 0.047667008
v 0.016481323 -0.2232254 0.047667008
v 0.01609253 -0.22022949 0.08170454
v 0.11831726 -0.22022949 -0.010108138
v 0.1299237 -0.2232254 -0.04766786
v 0.016481323 -0.2232254 0.047667008
v 0.1299237 -0.2232254 -0.04766786
v 0.1299237 0.2232241 -0.04766786
v 0.016481323 0.2232241 0.047667008
v -0.11268555 -0.2232254 -0.04766786
v -0.11268555 0.2232241 -0.04766786
vt 0.35546875 0.72265625
vt 0.35546875 0.6352539
vt 0.3347168 0.6352539
vt 0.3347168 0.72265625
vt 0.31274414 0.6352539
vt 0.31274414 0.72265625
vt 0.18286133 0.6328125
vt 0.18847656 0.6328125
vt 0.18847656 0.6850586
vt 0.1829834 0.6850586
vt 0.41015625 0.51660156
vt 0.41015625 0.5234375
vt 0.3894043 0.5239258
vt 0.38964844 0.51708984
vt 0.38964844 0.51708984
vt 0.3894043 0.5239258
vt 0.36743164 0.5239258
vt 0.36743164 0.51708984
vt 0.14953613 0.6850586
vt 0.14575195 0.6855469
vt 0.14575195 0.6328125
vt 0.14941406 0.6328125
vt 0.36743164 0.4819336
vt 0.36743164 0.47265625
vt 0.3894043 0.47265625
vt 0.3894043 0.4819336
vt 0.3894043 0.4819336
vt 0.3894043 0.47265625
vt 0.41015625 0.47265625
vt 0.41015625 0.4819336
vt 0.38793945 0.46240234
vt 0.41845703 0.46240234
vt 0.41845703 0.53808594
vt 0.38793945 0.53808594
vt 0.35668945 0.46240234
vt 0.35668945 0.53808594
vn 0.66796875 0 0.7441406
vn 0.66796875 0 0.7441406
vn 0.031951904 0 0.9995117
vn 0.031951904 0 0.9995117
vn -0.6191406 0 0.78515625
vn -0.6191406 0 0.78515625
vn 0.9555664 0 0.29516602
vn 0.9555664 0 0.29516602
vn 0.9555664 0 0.29516602
vn 0.9555664 0 0.29516602
vn 0.084228516 0.9916992 0.0970459
vn 0.084228516 0.9916992 0.0970459
vn 0.084228516 0.9916992 0.0970459
vn 0.084228516 0.9916992 0.0970459
vn -0.072509766 0.9926758 0.09515381
vn -0.072509766 0.9926758 0.09515381
vn -0.072509766 0.9926758 0.09515381
vn -0.072509766 0.9926758 0.09515381
vn -0.94970703 0 0.31298828
vn -0.94970703 0 0.31298828
vn -0.94970703 0 0.31298828
vn -0.94970703 0 0.31298828
vn -0.0725708 -0.9926758 0.09527588
vn -0.0725708 -0.9926758 0.09527588
vn -0.0725708 -0.9926758 0.09527588
vn -0.0725708 -0.9926758 0.09527588
vn 0.08428955 -0.9916992 0.09710693
vn 0.08428955 -0.9916992 0.09710693
vn 0.08428955 -0.9916992 0.09710693
vn 0.08428955 -0.9916992 0.09710693
vn -0.03152466 0 -0.9995117
vn -0.6435547 0 -0.765625
vn -0.6435547 0 -0.765625
vn -0.03152466 0 -0.9995117
vn 0.59375 0 -0.8046875
vn 0.59375 0 -0.8046875
g Temple_OBJ_Giwa_03_0
f 3/3/3 2/2/2 1/1/1
f 4/4/4 3/3/3 1/1/1
f 5/5/5 3/3/3 4/4/4
f 6/6/6 5/5/5 4/4/4
f 9/9/9 8/8/8 7/7/7
f 10/10/10 9/9/9 7/7/7
f 13/13/13 12/12/12 11/11/11
f 14/14/14 13/13/13 11/11/11
f 17/17/17 16/16/16 15/15/15
f 18/18/18 17/17/17 15/15/15
f 21/21/21 20/20/20 19/19/19
f 22/22/22 21/21/21 19/19/19
f 25/25/25 24/24/24 23/23/23
f 26/26/26 25/25/25 23/23/23
f 29/29/29 28/28/28 27/27/27
f 30/30/30 29/29/29 27/27/27
f 33/33/33 32/32/32 31/31/31
f 34/34/34 33/33/33 31/31/31
f 34/34/34 31/31/31 35/35/35
f 36/36/36 34/34/34 35/35/35
