g Temple_STR_House_04_Door_02
v 0.08800087 -4.844665E-07 -1.4428136E-07
v 0.0880005 1.2452463 2.4074767
v 0.08800028 1.2452463 -1.4428136E-07
v 0.08800108 -4.844665E-07 2.4074767
v 0.08800108 -4.844665E-07 2.4074767
v 8.720398E-07 -4.844665E-07 -1.3658816E-07
v 1.077938E-06 -4.844665E-07 2.4074767
v 0.08800087 -4.844665E-07 -1.4428136E-07
v 0.0880005 1.2452463 2.4074767
v 1.077938E-06 -4.844665E-07 2.4074767
v 4.965782E-07 1.2452463 2.4074767
v 0.08800108 -4.844665E-07 2.4074767
v 0.08800028 1.2452463 -1.4428136E-07
v 4.965782E-07 1.2452463 2.4074767
v 2.906799E-07 1.2452463 -1.3658813E-07
v 0.0880005 1.2452463 2.4074767
v 0.08800087 -4.844665E-07 -1.4428136E-07
v 2.906799E-07 1.2452463 -1.3658813E-07
v 8.720398E-07 -4.844665E-07 -1.3658816E-07
v 0.08800028 1.2452463 -1.4428136E-07
v 1.077938E-06 -4.844665E-07 2.4074767
v 2.906799E-07 1.2452463 -1.3658813E-07
v 4.965782E-07 1.2452463 2.4074767
v 8.720398E-07 -4.844665E-07 -1.3658816E-07
vt 0.5 0
vt 0 1
vt 0 0
vt 0.5 1
vt 0.47094727 0.99853516
vt 0.50390625 -0.00049448013
vt 0.50390625 0.99853516
vt 0.47094727 -0.00049448013
vt 2.9981136E-05 0.00013971329
vt 0.34350586 0.023361206
vt 2.9981136E-05 0.023361206
vt 0.34350586 0.00013971329
vt 0.50390625 -0.00049448013
vt 0.47094727 0.99853516
vt 0.47094727 -0.00049448013
vt 0.50390625 0.99853516
vt 2.9981136E-05 0.00013971329
vt 0.34350586 0.023361206
vt 2.9981136E-05 0.023361206
vt 0.34350586 0.00013971329
vt 0.5 1
vt 0 0
vt 0 1
vt 0.5 0
vn 1 4.7683716E-07 0
vn 1 0 0
vn 1 0 0
vn 1 4.7683716E-07 0
vn -0 -1 0
vn -0 -1 0
vn -0 -1 0
vn -0 -1 0
vn -0 0 1
vn -0 0 1
vn -0 0 1
vn -0 0 1
vn -0 1 0
vn -0 1 0
vn -0 1 0
vn -0 1 0
vn -0 0 -1
vn -0 0 -1
vn -0 0 -1
vn -0 0 -1
vn -1 -4.7683716E-07 0
vn -1 0 0
vn -1 0 0
vn -1 -4.7683716E-07 0
g Temple_STR_House_04_Door_02_0
f 3/3/3 2/2/2 1/1/1
f 4/4/4 1/1/1 2/2/2
f 7/7/7 6/6/6 5/5/5
f 8/8/8 5/5/5 6/6/6
f 11/11/11 10/10/10 9/9/9
f 12/12/12 9/9/9 10/10/10
f 15/15/15 14/14/14 13/13/13
f 16/16/16 13/13/13 14/14/14
f 19/19/19 18/18/18 17/17/17
f 20/20/20 17/17/17 18/18/18
f 23/23/23 22/22/22 21/21/21
f 24/24/24 21/21/21 22/22/22
