g Temple_STR_House_04_Wall
v -3.2000003 -1.4636424 -1.5058291
v -3.2000012 -4.698001 1.505829
v -3.2000012 -4.698001 -1.5058291
v -3.2000003 -1.4636424 1.505829
v 3.199999 -3.100586E-06 1.505829
v 3.1999986 -4.698001 -1.5058291
v 3.1999986 -4.698001 1.505829
v 3.199999 -3.100586E-06 -1.5058291
v 3.2000012 4.697998 1.505829
v 3.2000012 4.697998 -1.5058291
v 2.7130125E-06 4.698001 -1.5058291
v -3.2000003 4.697999 1.505829
v -3.2000003 4.697998 -1.5058291
v 2.7130125E-06 4.698001 1.505829
v 3.2000012 4.697998 1.505829
v 3.2000012 4.697998 -1.5058291
v -2.3254393E-06 -4.6979976 1.505829
v -3.2000012 -4.698001 -1.5058291
v -3.2000012 -4.698001 1.505829
v -2.7130125E-06 -4.6979976 -1.5058291
v 3.1999986 -4.698001 -1.5058291
v 3.1999986 -4.698001 1.505829
v -3.2000003 1.4161515 1.505829
v -3.2000003 -2.1316528E-06 -1.5058291
v -3.2000003 1.4161515 -1.5058291
v -3.2000003 -2.1316528E-06 1.505829
v -3.2000003 -1.4636424 -1.5058291
v -3.2000003 -1.4636424 1.505829
v -3.2000003 4.697998 -1.5058291
v -3.2000003 1.4161515 1.505829
v -3.2000003 1.4161515 -1.5058291
v -3.2000003 4.697999 1.505829
vt 0.9555664 0
vt 1.9628906 1
vt 1.9628906 0
vt 0.9555664 1
vt 0.5 1
vt -0.96240234 0
vt -0.96240234 1
vt 0.5 0
vt 1.9628906 1
vt 1.9628906 0
vt 0.5 0
vt 1.5205078 1
vt 1.5205078 0
vt 0.5 1
vt -0.5209961 1
vt -0.5209961 0
vt 0.5 1
vt -0.5209961 0
vt -0.5209961 1
vt 0.5 0
vt 1.5205078 0
vt 1.5205078 1
vt -0.058380127 1.046875
vt 0.32788086 0.09466553
vt -0.058380127 0.09466553
vt 0.32788086 1.046875
vt 0.7270508 0.09466553
vt 0.7270508 1.046875
vt -0.96240234 0
vt 0.05911255 1
vt 0.05911255 0
vt -0.96240234 1
vn -1 2.9802322E-07 0
vn -1 2.9802322E-07 0
vn -1 2.9802322E-07 0
vn -1 2.9802322E-07 0
vn 1 0 0
vn 1 0 0
vn 1 0 0
vn 1 0 0
vn 1 -4.7683716E-07 0
vn 1 -4.7683716E-07 0
vn -7.748604E-07 1 -1.7881393E-07
vn -7.748604E-07 1 -1.7881393E-07
vn -7.748604E-07 1 -1.7881393E-07
vn -5.9604645E-07 1 0
vn 7.748604E-07 1 0
vn 7.748604E-07 1 0
vn 9.536743E-07 -1 0
vn 9.536743E-07 -1 0
vn 9.536743E-07 -1 0
vn 9.536743E-07 -1 0
vn -9.536743E-07 -1 0
vn -9.536743E-07 -1 0
vn -1 0 0
vn -1 0 0
vn -1 0 0
vn -1 0 0
vn -1 0 0
vn -1 0 0
vn -1 0 0
vn -1 0 0
vn -1 0 0
vn -1 0 0
g Temple_STR_House_04_Wall_0
f 3/3/3 2/2/2 1/1/1
f 4/4/4 1/1/1 2/2/2
f 7/7/7 6/6/6 5/5/5
f 8/8/8 5/5/5 6/6/6
f 5/5/5 8/8/8 9/9/9
f 10/10/10 9/9/9 8/8/8
f 13/13/13 12/12/12 11/11/11
f 14/14/14 11/11/11 12/12/12
f 14/14/14 15/15/15 11/11/11
f 16/16/16 11/11/11 15/15/15
f 19/19/19 18/18/18 17/17/17
f 20/20/20 17/17/17 18/18/18
f 20/20/20 21/21/21 17/17/17
f 22/22/22 17/17/17 21/21/21
f 25/25/25 24/24/24 23/23/23
f 26/26/26 23/23/23 24/24/24
f 24/24/24 27/27/27 26/26/26
f 28/28/28 26/26/26 27/27/27
f 31/31/31 30/30/30 29/29/29
f 32/32/32 29/29/29 30/30/30
