g Temple_STR_RegionBorder_02
v 6 0 0
v -0 0.19999999 4.8485375E-13
v 6 0.19999999 8.617817E-14
v -0 2.7721396E-13 3.33681E-13
v -0 0.19999999 4.8485375E-13
v -0 2.7721396E-13 -0.009999999
v -0 0.19999999 -0.009999999
v -0 2.7721396E-13 3.33681E-13
vt -26.34375 44
vt -24.84375 43.9375
vt -26.34375 43.9375
vt -24.84375 44
vt -24.84375 43.9375
vt -24.828125 44
vt -24.828125 43.9375
vt -24.84375 44
vn -0 0 1
vn -0 0 1
vn -0 0 1
vn -0 0 1
vn -1 0 0
vn -1 0 0
vn -1 0 0
vn -1 0 0
g Temple_STR_RegionBorder_02_0
f 3/3/3 2/2/2 1/1/1
f 4/4/4 1/1/1 2/2/2
f 7/7/7 6/6/6 5/5/5
f 8/8/8 5/5/5 6/6/6
