g Temple_STR_Pagoda_Floor_L
v 5.2 9.689331E-08 0.1
v -0 9.689331E-08 0.1
v -0 5.2000003 0.1
v 5.2 5.2000003 0.1
v 5.2 9.689331E-08 0.1
v 5.2 9.689331E-08 6.6006845E-14
v -0 9.689331E-08 3.8511428E-13
v -0 9.689331E-08 0.1
v 5.2 5.2000003 2.6927297E-13
v 5.2 9.689331E-08 6.6006845E-14
v 5.2 9.689331E-08 0.1
v 5.2 5.2000003 0.1
v -0 5.2000003 3.4563764E-13
v 5.2 5.2000003 2.6927297E-13
v 5.2 5.2000003 0.1
v -0 5.2000003 0.1
v -0 5.2000003 0.1
v -0 9.689331E-08 0.1
v -0 9.689331E-08 3.8511428E-13
v -0 5.2000003 3.4563764E-13
v 5.2 5.2000003 2.6927297E-13
v -0 5.2000003 3.4563764E-13
v -0 9.689331E-08 3.8511428E-13
v 5.2 9.689331E-08 6.6006845E-14
vt 1.0664062 0.2166748
vt 0.19995117 0.2166748
vt 0.19995117 1.0830078
vt 1.0664062 1.0830078
vt 1.0664062 0.016662598
vt 1.0664062 0
vt 0.19995117 0
vt 0.19995117 0.016662598
vt 1.0830078 0
vt 0.2166748 0
vt 0.2166748 0.016662598
vt 1.0830078 0.016662598
vt -0.19995117 0
vt -1.0664062 0
vt -1.0664062 0.016662598
vt -0.19995117 0.016662598
vt -1.0830078 0.016662598
vt -0.2166748 0.016662598
vt -0.2166748 0
vt -1.0830078 0
vt -1.0664062 1.0830078
vt -0.19995117 1.0830078
vt -0.19995117 0.2166748
vt -1.0664062 0.2166748
vn -0 0 1
vn -0 0 1
vn -0 0 1
vn -0 0 1
vn -0 -1 0
vn -0 -1 0
vn -0 -1 0
vn -0 -1 0
vn 1 0 0
vn 1 0 0
vn 1 0 0
vn 1 0 0
vn -0 1 0
vn -0 1 0
vn -0 1 0
vn -0 1 0
vn -1 0 0
vn -1 0 0
vn -1 0 0
vn -1 0 0
vn -0 0 -1
vn -0 0 -1
vn -0 0 -1
vn -0 0 -1
g Temple_STR_Pagoda_Floor_L_0
f 3/3/3 2/2/2 1/1/1
f 4/4/4 3/3/3 1/1/1
f 7/7/7 6/6/6 5/5/5
f 8/8/8 7/7/7 5/5/5
f 11/11/11 10/10/10 9/9/9
f 12/12/12 11/11/11 9/9/9
f 15/15/15 14/14/14 13/13/13
f 16/16/16 15/15/15 13/13/13
f 19/19/19 18/18/18 17/17/17
f 20/20/20 19/19/19 17/17/17
f 23/23/23 22/22/22 21/21/21
f 24/24/24 23/23/23 21/21/21
