g Temple_STR_House_03_RoofSide
v 9.30137 -1.3981767 -1.7768961
v 9.182736 -0.70658475 -1.2847238
v 9.182736 -1.3981767 -1.7768961
v 9.30137 -0.70658475 -1.2847244
v 9.182736 -0.17560633 -0.88055724
v 9.30137 -0.17560633 -0.88055724
v 9.30137 -4.6508785E-06 -0.73443496
v 9.182736 -4.6508785E-06 -0.73443496
v 9.305069 -1.6376798 -1.4772083
v 9.305069 -0.7114635 -1.2786186
v 9.305069 -1.4030539 -1.7707903
v 9.305069 -0.94608486 -0.98503685
v 9.305069 -0.18049131 -0.8744524
v 9.305069 -0.42189983 -0.59581757
v 9.305069 -4.6508785E-06 -0.72440934
v 9.305069 -4.6508785E-06 -0.27883103
v 9.305069 -1.4030539 -1.7707903
v 9.30137 -0.70658475 -1.2847244
v 9.30137 -1.3981767 -1.7768961
v 9.305069 -0.7114635 -1.2786186
v 9.30137 -0.17560633 -0.88055724
v 9.305069 -0.18049131 -0.8744524
v 9.30137 -4.6508785E-06 -0.73443496
v 9.305069 -4.6508785E-06 -0.72440934
v 9.182736 0.706577 -1.2847238
v 9.30137 1.3981689 -1.7768961
v 9.182736 1.3981689 -1.7768961
v 9.30137 0.706577 -1.2847244
v 9.182736 0.17559858 -0.88055724
v 9.30137 0.17559858 -0.88055724
v 9.30137 -4.6508785E-06 -0.73443496
v 9.182736 -4.6508785E-06 -0.73443496
v 9.305069 0.71145576 -1.2786186
v 9.305069 1.6376721 -1.4772083
v 9.305069 1.4030461 -1.7707903
v 9.305069 0.9460771 -0.98503685
v 9.305069 0.18048355 -0.8744524
v 9.305069 0.42189208 -0.59581757
v 9.305069 -4.6508785E-06 -0.72440934
v 9.305069 -4.6508785E-06 -0.27883103
v 9.30137 0.706577 -1.2847244
v 9.305069 1.4030461 -1.7707903
v 9.30137 1.3981689 -1.7768961
v 9.305069 0.71145576 -1.2786186
v 9.30137 0.17559858 -0.88055724
v 9.305069 0.18048355 -0.8744524
v 9.30137 -4.6508785E-06 -0.73443496
v 9.305069 -4.6508785E-06 -0.72440934
v 0.9506249 -9.647912 -1.2847236
v 1.6422168 -9.766542 -1.7768961
v 1.6422175 -9.647912 -1.7768961
v 0.9506249 -9.766542 -1.2847244
v 0.41964644 -9.647909 -0.88055724
v 0.41964644 -9.766542 -0.88055724
v 0.244044 -9.766542 -0.73443496
v 0.244044 -9.647909 -0.73443496
v 0.95550364 -9.770239 -1.2786186
v 1.8817207 -9.770239 -1.477208
v 1.6470954 -9.770239 -1.7707903
v 1.1901265 -9.770239 -0.98503655
v 0.42453143 -9.770239 -0.8744521
v 0.66594154 -9.770239 -0.5958174
v 0.244044 -9.770239 -0.7244092
v 0.244044 -9.770239 -0.27883103
v 0.9506249 -9.766542 -1.2847244
v 1.6470954 -9.770239 -1.7707903
v 1.6422168 -9.766542 -1.7768961
v 0.95550364 -9.770239 -1.2786186
v 0.41964644 -9.766542 -0.88055724
v 0.42453143 -9.770239 -0.8744521
v 0.244044 -9.766542 -0.73443496
v 0.244044 -9.770239 -0.7244092
v -1.1541287 -9.766542 -1.7768961
v -0.46253687 -9.647912 -1.2847236
v -1.1541295 -9.647909 -1.7768961
v -0.46253687 -9.766542 -1.2847244
v 0.068440005 -9.647909 -0.88055724
v 0.068441555 -9.766542 -0.88055724
v 0.244044 -9.766542 -0.73443496
v 0.244044 -9.647909 -0.73443496
v -1.3936328 -9.770239 -1.477208
v -0.46741566 -9.770239 -1.2786186
v -1.1590067 -9.770239 -1.7707903
v -0.702037 -9.770239 -0.98503655
v 0.06355658 -9.770239 -0.8744521
v -0.17785348 -9.770239 -0.5958174
v 0.244044 -9.770239 -0.7244092
v 0.244044 -9.770239 -0.27883103
v -1.1590067 -9.770239 -1.7707903
v -0.46253687 -9.766542 -1.2847244
v -1.1541287 -9.766542 -1.7768961
v -0.46741566 -9.770239 -1.2786186
v 0.068441555 -9.766542 -0.88055724
v 0.06355658 -9.770239 -0.8744521
v 0.244044 -9.766542 -0.73443496
v 0.244044 -9.770239 -0.7244092
v 9.34708 -0.89169747 -1.0459235
v 9.34708 -1.4780725 -1.6532182
v 9.34708 -1.5884519 -1.5011418
v 9.34708 -0.7695561 -1.188719
v 9.347081 -0.3765367 -0.6472065
v 9.347081 -0.25775945 -0.7708315
v 9.347081 -4.6508785E-06 -0.55945337
v 9.347081 -4.6508785E-06 -0.33677962
v 9.34708 -0.7695561 -1.188719
v 9.196105 -0.25775945 -0.7708315
v 9.196105 -0.7695561 -1.188719
v 9.347081 -0.25775945 -0.7708315
v 9.196105 -4.6508785E-06 -0.55945337
v 9.347081 -4.6508785E-06 -0.55945337
v 9.34708 -1.4780725 -1.6532182
v 9.196105 -0.7695561 -1.188719
v 9.196105 -1.4780725 -1.6532182
v 9.34708 -0.7695561 -1.188719
v 9.34708 1.4780647 -1.6532182
v 9.34708 0.8916897 -1.0459235
v 9.34708 1.588444 -1.5011418
v 9.34708 0.7695483 -1.188719
v 9.347081 0.37652892 -0.6472065
v 9.347081 0.2577517 -0.7708315
v 9.347081 -4.6508785E-06 -0.55945337
v 9.347081 -4.6508785E-06 -0.33677962
v 9.196105 0.2577517 -0.7708315
v 9.34708 0.7695483 -1.188719
v 9.196105 0.7695483 -1.188719
v 9.347081 0.2577517 -0.7708315
v 9.196105 -4.6508785E-06 -0.55945337
v 9.347081 -4.6508785E-06 -0.55945337
v 9.34708 1.4780647 -1.6532182
v 9.196105 0.7695483 -1.188719
v 9.34708 0.7695483 -1.188719
v 9.196105 1.4780647 -1.6532182
v 1.7221135 -9.812252 -1.653218
v 1.1357375 -9.812252 -1.0459231
v 1.832492 -9.812252 -1.5011414
v 1.013597 -9.812252 -1.1887186
v 0.62057453 -9.812252 -0.647206
v 0.50180036 -9.812252 -0.7708311
v 0.24404323 -9.812252 -0.55945283
v 0.24404323 -9.812252 -0.33677906
v 0.50180036 -9.661278 -0.7708311
v 1.013597 -9.812252 -1.1887186
v 1.013597 -9.661278 -1.1887186
v 0.50180036 -9.812252 -0.7708311
v 0.24404323 -9.661278 -0.55945283
v 0.24404323 -9.812252 -0.55945283
v 1.7221135 -9.812252 -1.653218
v 1.013597 -9.661278 -1.1887186
v 1.013597 -9.812252 -1.1887186
v 1.7221135 -9.661278 -1.653218
v -0.6476496 -9.812252 -1.0459231
v -1.2340254 -9.812252 -1.653218
v -1.3444047 -9.812252 -1.5011414
v -0.5255082 -9.812252 -1.1887186
v -0.13248725 -9.812252 -0.647206
v -0.013711565 -9.812252 -0.7708311
v 0.24404323 -9.812252 -0.55945283
v 0.24404323 -9.812252 -0.33677906
v -0.5255082 -9.812252 -1.1887186
v -0.013711565 -9.661278 -0.7708311
v -0.5255082 -9.661278 -1.1887186
v -0.013711565 -9.812252 -0.7708311
v 0.24404323 -9.661278 -0.55945283
v 0.24404323 -9.812252 -0.55945283
v -1.2340254 -9.812252 -1.653218
v -0.5255082 -9.661278 -1.1887186
v -1.2340254 -9.661278 -1.653218
v -0.5255082 -9.812252 -1.1887186
v 9.262459 0.31318554 -0.34137815
v 9.262459 -2.1438954 -1.7436984
v 9.262459 -0.31319016 -0.34137836
v 9.262459 2.143883 -1.7436986
v -0.06914771 -9.727634 -0.34137815
v 2.3879333 -9.727634 -1.7436986
v -1.8998445 -9.727634 -1.7436986
v 0.5572295 -9.727634 -0.34137836
v 9.323553 1.8887498 -1.469359
v 9.228454 -1.8887591 -1.4230782
v 9.228454 1.8887514 -1.4230801
v 9.323554 -1.8887607 -1.4693574
v 9.258443 -1.8887591 -1.6339576
v 9.164278 1.8887498 -1.6339593
v 9.164279 -1.8887607 -1.6339576
v 9.258442 1.8887514 -1.6339593
v 9.324178 -1.8887591 -1.591838
v 9.324178 1.8887514 -1.5918399
v 9.324178 1.8887514 -1.5918399
v 9.323554 -1.8887607 -1.4693574
v 9.323553 1.8887498 -1.469359
v 9.324178 -1.8887591 -1.591838
v -1.6447111 -9.788725 -1.4693589
v 2.1327991 -9.693626 -1.4230782
v 2.1328015 -9.788725 -1.4693573
v -1.6447111 -9.693626 -1.4230798
v -1.6447111 -9.629451 -1.6339592
v 2.1327991 -9.723616 -1.6339574
v 2.1328015 -9.629451 -1.6339574
v -1.6447111 -9.723616 -1.6339592
v 2.1327991 -9.789348 -1.5918379
v -1.6447111 -9.789348 -1.5918397
v -1.6447111 -9.789348 -1.5918397
v 2.1328015 -9.788725 -1.4693573
v 2.1327991 -9.789348 -1.5918379
v -1.6447111 -9.788725 -1.4693589
vt 0.40014648 0.20275879
vt 0.60009766 0.13623047
vt 0.40014648 0.13623047
vt 0.60009766 0.20275879
vt 0.80029297 0.13623047
vt 0.80029297 0.20275879
vt 0.8642578 0.20275879
vt 0.8642578 0.13623047
vt 0.40014648 0.30517578
vt 0.60009766 0.20568848
vt 0.40014648 0.20568848
vt 0.60009766 0.30517578
vt 0.80029297 0.20568848
vt 0.80029297 0.30517578
vt 0.86621094 0.20568848
vt 0.9423828 0.30029297
vt 0.40014648 0.20568848
vt 0.60009766 0.20275879
vt 0.40014648 0.20275879
vt 0.60009766 0.20568848
vt 0.80029297 0.20275879
vt 0.80029297 0.20568848
vt 0.8642578 0.20275879
vt 0.86621094 0.20568848
vt 0.60009766 0.13623047
vt 0.40014648 0.20275879
vt 0.40014648 0.13623047
vt 0.60009766 0.20275879
vt 0.80029297 0.13623047
vt 0.80029297 0.20275879
vt 0.8642578 0.20275879
vt 0.8642578 0.13623047
vt 0.60009766 0.20568848
vt 0.40014648 0.30517578
vt 0.40014648 0.20568848
vt 0.60009766 0.30517578
vt 0.80029297 0.20568848
vt 0.80029297 0.30517578
vt 0.86621094 0.20568848
vt 0.9423828 0.30029297
vt 0.60009766 0.20275879
vt 0.40014648 0.20568848
vt 0.40014648 0.20275879
vt 0.60009766 0.20568848
vt 0.80029297 0.20275879
vt 0.80029297 0.20568848
vt 0.8642578 0.20275879
vt 0.86621094 0.20568848
vt 0.60009766 0.13623047
vt 0.40014648 0.20275879
vt 0.40014648 0.13623047
vt 0.60009766 0.20275879
vt 0.80029297 0.13623047
vt 0.80029297 0.20275879
vt 0.8642578 0.20275879
vt 0.8642578 0.13623047
vt 0.60009766 0.20568848
vt 0.40014648 0.30517578
vt 0.40014648 0.20568848
vt 0.60009766 0.30517578
vt 0.80029297 0.20568848
vt 0.80029297 0.30517578
vt 0.86621094 0.20568848
vt 0.9423828 0.30029297
vt 0.60009766 0.20275879
vt 0.40014648 0.20568848
vt 0.40014648 0.20275879
vt 0.60009766 0.20568848
vt 0.80029297 0.20275879
vt 0.80029297 0.20568848
vt 0.8642578 0.20275879
vt 0.86621094 0.20568848
vt 0.40014648 0.20275879
vt 0.60009766 0.13623047
vt 0.40014648 0.13623047
vt 0.60009766 0.20275879
vt 0.80029297 0.13623047
vt 0.80029297 0.20275879
vt 0.8642578 0.20275879
vt 0.8642578 0.13623047
vt 0.40014648 0.30517578
vt 0.60009766 0.20568848
vt 0.40014648 0.20568848
vt 0.60009766 0.30517578
vt 0.80029297 0.20568848
vt 0.80029297 0.30517578
vt 0.86621094 0.20568848
vt 0.9423828 0.30029297
vt 0.40014648 0.20568848
vt 0.60009766 0.20275879
vt 0.40014648 0.20275879
vt 0.60009766 0.20568848
vt 0.80029297 0.20275879
vt 0.80029297 0.20568848
vt 0.8642578 0.20275879
vt 0.86621094 0.20568848
vt 0.43286133 0.99121094
vt 0.140625 0.94873047
vt 0.140625 0.99121094
vt 0.43286133 0.94873047
vt 0.69189453 0.99121094
vt 0.69189453 0.94873047
vt 0.82470703 0.94873047
vt 0.8808594 0.99121094
vt 0.43286133 0.94873047
vt 0.69189453 0.8520508
vt 0.43286133 0.8520508
vt 0.69189453 0.94873047
vt 0.82470703 0.8520508
vt 0.82470703 0.94873047
vt 0.140625 0.94873047
vt 0.43286133 0.8520508
vt 0.140625 0.8520508
vt 0.43286133 0.94873047
vt 0.140625 0.94873047
vt 0.43286133 0.99121094
vt 0.140625 0.99121094
vt 0.43286133 0.94873047
vt 0.69189453 0.99121094
vt 0.69189453 0.94873047
vt 0.82470703 0.94873047
vt 0.8808594 0.99121094
vt 0.69189453 0.8520508
vt 0.43286133 0.94873047
vt 0.43286133 0.8520508
vt 0.69189453 0.94873047
vt 0.82470703 0.8520508
vt 0.82470703 0.94873047
vt 0.140625 0.94873047
vt 0.43286133 0.8520508
vt 0.43286133 0.94873047
vt 0.140625 0.8520508
vt 0.140625 0.94873047
vt 0.43286133 0.99121094
vt 0.140625 0.99121094
vt 0.43286133 0.94873047
vt 0.69189453 0.99121094
vt 0.69189453 0.94873047
vt 0.82470703 0.94873047
vt 0.8808594 0.99121094
vt 0.69189453 0.8520508
vt 0.43286133 0.94873047
vt 0.43286133 0.8520508
vt 0.69189453 0.94873047
vt 0.82470703 0.8520508
vt 0.82470703 0.94873047
vt 0.140625 0.94873047
vt 0.43286133 0.8520508
vt 0.43286133 0.94873047
vt 0.140625 0.8520508
vt 0.43286133 0.99121094
vt 0.140625 0.94873047
vt 0.140625 0.99121094
vt 0.43286133 0.94873047
vt 0.69189453 0.99121094
vt 0.69189453 0.94873047
vt 0.82470703 0.94873047
vt 0.8808594 0.99121094
vt 0.43286133 0.94873047
vt 0.69189453 0.8520508
vt 0.43286133 0.8520508
vt 0.69189453 0.94873047
vt 0.82470703 0.8520508
vt 0.82470703 0.94873047
vt 0.140625 0.94873047
vt 0.43286133 0.8520508
vt 0.140625 0.8520508
vt 0.43286133 0.94873047
vt 0.6225586 0.8901367
vt -0.32885742 0.25878906
vt 0.37890625 0.89160156
vt 1.3398438 0.24645996
vt 0.6225586 0.8901367
vt -0.32885742 0.25878906
vt 1.3398438 0.24645996
vt 0.37890625 0.89160156
vt -0.9790039 0.8725586
vt 0.0076408386 0.90771484
vt -0.9790039 0.90771484
vt 0.0076408386 0.8725586
vt 2.0078125 0.80615234
vt 1.0205078 0.7651367
vt 2.0078125 0.7651367
vt 1.0205078 0.80615234
vt 2.0078125 0.83203125
vt 1.0205078 0.83203125
vt 1.0205078 0.83203125
vt 2.0078125 0.8725586
vt 1.0205078 0.8725586
vt 2.0078125 0.83203125
vt -0.9790039 0.8725586
vt 0.0076408386 0.90771484
vt 0.0076408386 0.8725586
vt -0.9790039 0.90771484
vt 1.0205078 0.7651367
vt 2.0078125 0.80615234
vt 2.0078125 0.7651367
vt 1.0205078 0.80615234
vt 2.0078125 0.83203125
vt 1.0205078 0.83203125
vt 1.0205078 0.83203125
vt 2.0078125 0.8725586
vt 2.0078125 0.83203125
vt 1.0205078 0.8725586
vn -3.5762787E-07 0.57958984 -0.8149414
vn -3.9339066E-06 0.59277344 -0.8051758
vn -0 0.57958984 -0.8149414
vn -3.9339066E-06 0.59277344 -0.8051758
vn -2.3841858E-07 0.6225586 -0.78222656
vn -0 0.6225586 -0.78222656
vn -0 2.2053719E-06 -1
vn -0 2.1457672E-06 -1
vn 1 0 0
vn 1 0 0
vn 1 0 0
vn 1 0 0
vn 1 0 0
vn 1 0 0
vn 1 0 0
vn 1 0 0
vn 0.9033203 0.24841309 -0.3491211
vn 0.9038086 0.25390625 -0.34472656
vn 0.9033203 0.24841309 -0.3491211
vn 0.9038086 0.2536621 -0.3449707
vn 0.9038086 0.26635742 -0.3347168
vn 0.9038086 0.26635742 -0.3347168
vn 0.9379883 1.3709068E-06 -0.3461914
vn 0.9379883 5.9604645E-07 -0.3461914
vn -3.9339066E-06 -0.59277344 -0.8051758
vn -3.5762787E-07 -0.57958984 -0.8149414
vn -0 -0.57958984 -0.8149414
vn -3.9339066E-06 -0.59277344 -0.8051758
vn -2.3841858E-07 -0.6225586 -0.78222656
vn -0 -0.6225586 -0.78222656
vn -0 2.2053719E-06 -1
vn -0 2.1457672E-06 -1
vn 1 0 0
vn 1 0 0
vn 1 0 0
vn 1 0 0
vn 1 0 0
vn 1 0 0
vn 1 0 0
vn 1 0 0
vn 0.9038086 -0.25390625 -0.34472656
vn 0.9033203 -0.24841309 -0.3491211
vn 0.9033203 -0.24841309 -0.3491211
vn 0.9038086 -0.2536621 -0.3449707
vn 0.9038086 -0.26635742 -0.3347168
vn 0.9038086 -0.26635742 -0.3347168
vn 0.9379883 1.3709068E-06 -0.3461914
vn 0.9379883 5.9604645E-07 -0.3461914
vn -0.59277344 5.1259995E-06 -0.8051758
vn -0.57958984 3.874302E-06 -0.8149414
vn -0.57958984 3.7550926E-06 -0.8149414
vn -0.59277344 4.887581E-06 -0.8051758
vn -0.6225586 2.9802322E-07 -0.78222656
vn -0.6225586 0 -0.78222656
vn -1.6093254E-06 1.66893E-06 -1
vn -2.2053719E-06 0 -1
vn -0 -1 0
vn -0 -1 0
vn -0 -1 0
vn -0 -1 0
vn -0 -1 0
vn -0 -1 0
vn -0 -1 0
vn -0 -1 0
vn -0.2536621 -0.9038086 -0.34448242
vn -0.24816895 -0.9038086 -0.34887695
vn -0.24816895 -0.9038086 -0.34887695
vn -0.25341797 -0.9038086 -0.34472656
vn -0.26611328 -0.9042969 -0.33447266
vn -0.26611328 -0.9038086 -0.33447266
vn -0 -0.93847656 -0.34594727
vn -0 -0.93847656 -0.34594727
vn 0.57958984 4.23193E-06 -0.8149414
vn 0.59277344 5.1259995E-06 -0.8051758
vn 0.57958984 4.1127205E-06 -0.8149414
vn 0.59277344 5.364418E-06 -0.8051758
vn 0.6225586 6.67572E-06 -0.78222656
vn 0.6225586 8.106232E-06 -0.78222656
vn -1.6093254E-06 1.66893E-06 -1
vn -2.2053719E-06 0 -1
vn -0 -1 0
vn -0 -1 0
vn -0 -1 0
vn -0 -1 0
vn -0 -1 0
vn -0 -1 0
vn -0 -1 0
vn -0 -1 0
vn 0.24816895 -0.9038086 -0.34887695
vn 0.2536621 -0.9038086 -0.34448242
vn 0.24816895 -0.9038086 -0.34887695
vn 0.25341797 -0.9038086 -0.34472656
vn 0.26611328 -0.9042969 -0.33447266
vn 0.26611328 -0.9038086 -0.33447266
vn -0 -0.93847656 -0.34594727
vn -0 -0.93847656 -0.34594727
vn 1 -3.5762787E-07 -2.9802322E-07
vn 1 0 0
vn 1 0 0
vn 1 -3.5762787E-07 -2.9802322E-07
vn 1 -3.5762787E-07 -3.5762787E-07
vn 1 -2.9802322E-07 -2.9802322E-07
vn 1 0 0
vn 1 0 0
vn -0 0.6323242 -0.77441406
vn -0 0.6323242 -0.77441406
vn -0 0.6323242 -0.77441406
vn -0 0.6323242 -0.77441406
vn -0 0.63427734 -0.7734375
vn -0 0.63427734 -0.7734375
vn -0 0.54833984 -0.8364258
vn -0 0.54833984 -0.8364258
vn -0 0.54833984 -0.8364258
vn -0 0.54833984 -0.8364258
vn 1 0 0
vn 1 3.5762787E-07 -2.9802322E-07
vn 1 0 0
vn 1 3.5762787E-07 -2.9802322E-07
vn 1 3.5762787E-07 -3.5762787E-07
vn 1 2.9802322E-07 -2.9802322E-07
vn 1 0 0
vn 1 0 0
vn -0 -0.6323242 -0.77441406
vn -0 -0.6323242 -0.77441406
vn -0 -0.6323242 -0.77441406
vn -0 -0.6323242 -0.77441406
vn -0 -0.63427734 -0.7734375
vn -0 -0.63427734 -0.7734375
vn -0 -0.54833984 -0.8364258
vn -0 -0.54833984 -0.8364258
vn -0 -0.54833984 -0.8364258
vn -0 -0.54833984 -0.8364258
vn -0 -1 0
vn -0 -1 0
vn -0 -1 0
vn -0 -1 0
vn -0 -1 0
vn -0 -1 0
vn -0 -1 0
vn -0 -1 0
vn -0.6323242 0 -0.77441406
vn -0.6323242 0 -0.77441406
vn -0.6323242 0 -0.77441406
vn -0.6323242 0 -0.77441406
vn -0.63427734 0 -0.7734375
vn -0.63427734 0 -0.7734375
vn -0.54833984 0 -0.8364258
vn -0.54833984 0 -0.8364258
vn -0.54833984 0 -0.8364258
vn -0.54833984 0 -0.8364258
vn -0 -1 0
vn -0 -1 0
vn -0 -1 0
vn -0 -1 0
vn -0 -1 0
vn -0 -1 0
vn -0 -1 0
vn -0 -1 0
vn 0.6323242 0 -0.77441406
vn 0.6323242 0 -0.77441406
vn 0.6323242 0 -0.77441406
vn 0.6323242 0 -0.77441406
vn 0.63427734 0 -0.7734375
vn 0.63427734 0 -0.7734375
vn 0.54833984 0 -0.8364258
vn 0.54833984 0 -0.8364258
vn 0.54833984 0 -0.8364258
vn 0.54833984 0 -0.8364258
vn 1 0 0
vn 1 0 0
vn 1 0 0
vn 1 0 0
vn -0 -1 0
vn -0 -1 0
vn -0 -1 0
vn -0 -1 0
vn 0.8466797 3.5762787E-07 0.53222656
vn 0.4375 4.7683716E-07 0.89941406
vn 0.4375 4.7683716E-07 0.89941406
vn 0.8466797 2.9802322E-07 0.53222656
vn 0.28100586 -3.5762787E-07 -0.95947266
vn -0 -4.172325E-07 -1
vn -0 -4.172325E-07 -1
vn 0.28100586 -4.172325E-07 -0.95947266
vn 0.87841797 -1.7881393E-07 -0.47753906
vn 0.87841797 -1.1920929E-07 -0.47753906
vn 0.87841797 -1.1920929E-07 -0.47753906
vn 0.8466797 2.9802322E-07 0.53222656
vn 0.8466797 3.5762787E-07 0.53222656
vn 0.87841797 -1.7881393E-07 -0.47753906
vn -2.3841858E-07 -0.8466797 0.53222656
vn -4.172325E-07 -0.4375 0.89941406
vn -2.3841858E-07 -0.8466797 0.53222656
vn -4.172325E-07 -0.4375 0.89941406
vn 4.7683716E-07 0 -1
vn 4.7683716E-07 -0.28100586 -0.95947266
vn 4.7683716E-07 0 -1
vn 4.7683716E-07 -0.28100586 -0.95947266
vn 2.3841858E-07 -0.87841797 -0.47753906
vn 2.3841858E-07 -0.87841797 -0.47753906
vn 2.3841858E-07 -0.87841797 -0.47753906
vn -2.3841858E-07 -0.8466797 0.53222656
vn 2.3841858E-07 -0.87841797 -0.47753906
vn -2.3841858E-07 -0.8466797 0.53222656
g Temple_STR_House_03_RoofSide_0
f 3/3/3 2/2/2 1/1/1
f 4/4/4 1/1/1 2/2/2
f 2/2/2 5/5/5 4/4/4
f 6/6/6 4/4/4 5/5/5
f 6/6/6 5/5/5 7/7/7
f 8/8/8 7/7/7 5/5/5
f 11/11/11 10/10/10 9/9/9
f 12/12/12 9/9/9 10/10/10
f 10/10/10 13/13/13 12/12/12
f 14/14/14 12/12/12 13/13/13
f 13/13/13 15/15/15 14/14/14
f 16/16/16 14/14/14 15/15/15
f 19/19/19 18/18/18 17/17/17
f 20/20/20 17/17/17 18/18/18
f 18/18/18 21/21/21 20/20/20
f 22/22/22 20/20/20 21/21/21
f 21/21/21 23/23/23 22/22/22
f 24/24/24 22/22/22 23/23/23
f 27/27/27 26/26/26 25/25/25
f 28/28/28 25/25/25 26/26/26
f 25/25/25 28/28/28 29/29/29
f 30/30/30 29/29/29 28/28/28
f 30/30/30 31/31/31 29/29/29
f 32/32/32 29/29/29 31/31/31
f 35/35/35 34/34/34 33/33/33
f 36/36/36 33/33/33 34/34/34
f 33/33/33 36/36/36 37/37/37
f 38/38/38 37/37/37 36/36/36
f 37/37/37 38/38/38 39/39/39
f 40/40/40 39/39/39 38/38/38
f 43/43/43 42/42/42 41/41/41
f 44/44/44 41/41/41 42/42/42
f 41/41/41 44/44/44 45/45/45
f 46/46/46 45/45/45 44/44/44
f 45/45/45 46/46/46 47/47/47
f 48/48/48 47/47/47 46/46/46
f 51/51/51 50/50/50 49/49/49
f 52/52/52 49/49/49 50/50/50
f 49/49/49 52/52/52 53/53/53
f 54/54/54 53/53/53 52/52/52
f 54/54/54 55/55/55 53/53/53
f 56/56/56 53/53/53 55/55/55
f 59/59/59 58/58/58 57/57/57
f 60/60/60 57/57/57 58/58/58
f 57/57/57 60/60/60 61/61/61
f 62/62/62 61/61/61 60/60/60
f 61/61/61 62/62/62 63/63/63
f 64/64/64 63/63/63 62/62/62
f 67/67/67 66/66/66 65/65/65
f 68/68/68 65/65/65 66/66/66
f 65/65/65 68/68/68 69/69/69
f 70/70/70 69/69/69 68/68/68
f 69/69/69 70/70/70 71/71/71
f 72/72/72 71/71/71 70/70/70
f 75/75/75 74/74/74 73/73/73
f 76/76/76 73/73/73 74/74/74
f 74/74/74 77/77/77 76/76/76
f 78/78/78 76/76/76 77/77/77
f 78/78/78 77/77/77 79/79/79
f 80/80/80 79/79/79 77/77/77
f 83/83/83 82/82/82 81/81/81
f 84/84/84 81/81/81 82/82/82
f 82/82/82 85/85/85 84/84/84
f 86/86/86 84/84/84 85/85/85
f 85/85/85 87/87/87 86/86/86
f 88/88/88 86/86/86 87/87/87
f 91/91/91 90/90/90 89/89/89
f 92/92/92 89/89/89 90/90/90
f 90/90/90 93/93/93 92/92/92
f 94/94/94 92/92/92 93/93/93
f 93/93/93 95/95/95 94/94/94
f 96/96/96 94/94/94 95/95/95
g Temple_STR_House_03_RoofSide_1
f 99/99/99 98/98/98 97/97/97
f 100/100/100 97/97/97 98/98/98
f 97/97/97 100/100/100 101/101/101
f 102/102/102 101/101/101 100/100/100
f 102/102/102 103/103/103 101/101/101
f 104/104/104 101/101/101 103/103/103
f 107/107/107 106/106/106 105/105/105
f 108/108/108 105/105/105 106/106/106
f 106/106/106 109/109/109 108/108/108
f 110/110/110 108/108/108 109/109/109
f 113/113/113 112/112/112 111/111/111
f 114/114/114 111/111/111 112/112/112
f 117/117/117 116/116/116 115/115/115
f 118/118/118 115/115/115 116/116/116
f 116/116/116 119/119/119 118/118/118
f 120/120/120 118/118/118 119/119/119
f 120/120/120 119/119/119 121/121/121
f 122/122/122 121/121/121 119/119/119
f 125/125/125 124/124/124 123/123/123
f 126/126/126 123/123/123 124/124/124
f 123/123/123 126/126/126 127/127/127
f 128/128/128 127/127/127 126/126/126
f 131/131/131 130/130/130 129/129/129
f 132/132/132 129/129/129 130/130/130
f 135/135/135 134/134/134 133/133/133
f 136/136/136 133/133/133 134/134/134
f 134/134/134 137/137/137 136/136/136
f 138/138/138 136/136/136 137/137/137
f 138/138/138 137/137/137 139/139/139
f 140/140/140 139/139/139 137/137/137
f 143/143/143 142/142/142 141/141/141
f 144/144/144 141/141/141 142/142/142
f 141/141/141 144/144/144 145/145/145
f 146/146/146 145/145/145 144/144/144
f 149/149/149 148/148/148 147/147/147
f 150/150/150 147/147/147 148/148/148
f 153/153/153 152/152/152 151/151/151
f 154/154/154 151/151/151 152/152/152
f 151/151/151 154/154/154 155/155/155
f 156/156/156 155/155/155 154/154/154
f 156/156/156 157/157/157 155/155/155
f 158/158/158 155/155/155 157/157/157
f 161/161/161 160/160/160 159/159/159
f 162/162/162 159/159/159 160/160/160
f 160/160/160 163/163/163 162/162/162
f 164/164/164 162/162/162 163/163/163
f 167/167/167 166/166/166 165/165/165
f 168/168/168 165/165/165 166/166/166
g Temple_STR_House_03_RoofSide_2
f 171/171/171 170/170/170 169/169/169
f 172/172/172 169/169/169 170/170/170
f 175/175/175 174/174/174 173/173/173
f 176/176/176 173/173/173 174/174/174
g Temple_STR_House_03_RoofSide_3
f 179/179/179 178/178/178 177/177/177
f 180/180/180 177/177/177 178/178/178
f 183/183/183 182/182/182 181/181/181
f 184/184/184 181/181/181 182/182/182
f 181/181/181 184/184/184 185/185/185
f 186/186/186 185/185/185 184/184/184
f 189/189/189 188/188/188 187/187/187
f 190/190/190 187/187/187 188/188/188
f 193/193/193 192/192/192 191/191/191
f 194/194/194 191/191/191 192/192/192
f 197/197/197 196/196/196 195/195/195
f 198/198/198 195/195/195 196/196/196
f 196/196/196 199/199/199 198/198/198
f 200/200/200 198/198/198 199/199/199
f 203/203/203 202/202/202 201/201/201
f 204/204/204 201/201/201 202/202/202
