g Temple_STR_House_05
v -6.9999986 8.000001 0.099999994
v 1.2079664E-06 8 1.5642918E-13
v 1.2079664E-06 8 0.099999994
v -6.9999986 8.000001 2.2559732E-17
v -7.000001 -9.999998 0
v -6.9999986 8.000001 0.099999994
v -7.000001 -9.999998 0.099999994
v -6.9999986 8.000001 2.2559732E-17
v -1.5099579E-06 -9.999999 0.099999994
v 1.2079664E-06 8 1.5642918E-13
v -1.5099579E-06 -9.999999 1.5645174E-13
v 1.2079664E-06 8 0.099999994
v -1.5099579E-06 -9.999999 1.5645174E-13
v -7.000001 -9.999998 0.099999994
v -1.5099579E-06 -9.999999 0.099999994
v -7.000001 -9.999998 0
v -6.9999986 8.000001 0.099999994
v -6.699999 7.7000003 0.099999994
v -6.7000012 -9.699999 0.099999994
v -0.29999882 7.6999993 0.099999994
v -7.000001 -9.999998 0.099999994
v 1.2079664E-06 8 0.099999994
v -0.30000147 -9.7 0.099999994
v -1.5099579E-06 -9.999999 0.099999994
vt 1.4003906 0.020004272
vt 0 0
vt -0 0.020004272
vt 1.4003906 0
vt 2 -0
vt -1.5996094 0.020004272
vt 2 0.020004272
vt -1.5996094 -0
vt -2 0.020004272
vt 1.5996094 0
vt -2 0
vt 1.5996094 0.020004272
vt 0 0
vt -1.4003906 0.020004272
vt -0 0.020004272
vt -1.4003906 0
vt 1.4003906 -1.5996094
vt 1.3398438 -1.5400391
vt 1.3398438 1.9404297
vt 0.05999756 -1.5400391
vt 1.4003906 2
vt -0 -1.5996094
vt 0.05999756 1.9404297
vt 0 2
vn -0 1 0
vn -0 1 0
vn -0 1 0
vn -0 1 0
vn -1 0 0
vn -1 0 0
vn -1 0 0
vn -1 0 0
vn 1 0 0
vn 1 0 0
vn 1 0 0
vn 1 0 0
vn -0 -1 0
vn -0 -1 0
vn -0 -1 0
vn -0 -1 0
vn -0 0 1
vn -0 0 1
vn -0 0 1
vn -0 0 1
vn -0 0 1
vn -0 0 1
vn -0 0 1
vn -0 0 1
g Temple_STR_House_05_0
f 3/3/3 2/2/2 1/1/1
f 4/4/4 1/1/1 2/2/2
f 7/7/7 6/6/6 5/5/5
f 8/8/8 5/5/5 6/6/6
f 11/11/11 10/10/10 9/9/9
f 12/12/12 9/9/9 10/10/10
f 15/15/15 14/14/14 13/13/13
f 16/16/16 13/13/13 14/14/14
f 19/19/19 18/18/18 17/17/17
f 18/18/18 20/20/20 17/17/17
f 21/21/21 19/19/19 17/17/17
f 17/17/17 20/20/20 22/22/22
f 19/19/19 21/21/21 23/23/23
f 22/22/22 20/20/20 24/24/24
f 20/20/20 23/23/23 24/24/24
f 23/23/23 21/21/21 24/24/24
