g Bg_Church_STR_Base_Terrain_03
v 0.39999998 2.8 8.2
v -0 0 8.2
v -0 2.8 8.2
v 1.64 0 8.2
v 0.39999998 13.799998 8.2
v 1.64 12.66 8.2
v 20.199999 13.799998 8.2
v 9.36 12.66 8.2
v 15.7 7.7999997 8.2
v 9.36 7.7999997 8.2
v 20.199999 4.7999997 8.2
v 15.7 4.7999997 8.2
vt 0.70458984 0.98779297
vt 0.63183594 0.9975586
vt 0.70458984 0.9980469
vt 0.63183594 0.95458984
vt 0.9916992 0.9902344
vt 0.96191406 0.9580078
vt 0.99658203 0.4741211
vt 0.9638672 0.75634766
vt 0.8388672 0.58984375
vt 0.83740234 0.7553711
vt 0.76171875 0.47192383
vt 0.7607422 0.58935547
vn -0 0 1
vn -0 0 1
vn -0 0 1
vn -0 0 1
vn -0 0 1
vn -0 0 1
vn -0 0 1
vn -0 0 1
vn -0 0 1
vn -0 0 1
vn -0 0 1
vn -0 0 1
g Bg_Church_STR_Base_Terrain_03_0
f 3/3/3 2/2/2 1/1/1
f 2/2/2 4/4/4 1/1/1
f 4/4/4 5/5/5 1/1/1
f 6/6/6 5/5/5 4/4/4
f 7/7/7 5/5/5 6/6/6
f 8/8/8 7/7/7 6/6/6
f 9/9/9 7/7/7 8/8/8
f 10/10/10 9/9/9 8/8/8
f 11/11/11 7/7/7 9/9/9
f 12/12/12 11/11/11 9/9/9
