g Bg_Church_Water_SidePlan
v 23.646574 2.4449978 -0.5000235
v 25.267809 3.3341975 -0.5000235
v 25.267809 2.4449978 -0.5000235
v 23.646574 3.3341975 -0.5000235
v 25.267809 4.2233973 -0.5000235
v 22.025337 2.4449978 -0.5000235
v 23.646574 4.2233973 -0.5000235
v 22.025337 3.3341975 -0.5000235
v 20.4041 2.4449978 -0.5000235
v 22.025337 4.2233973 -0.5000235
v 20.4041 3.3341975 -0.5000235
v 18.782864 2.4449978 -0.5000235
v 20.4041 4.2233973 -0.5000235
v 18.782864 3.3341975 -0.5000235
v 17.161629 2.4449978 -0.5000235
v 18.782864 4.2233973 -0.5000235
v 17.161629 3.3341975 -0.5000235
v 15.540393 2.4449978 -0.5000235
v 17.161629 4.2233973 -0.5000235
v 15.540393 3.3341975 -0.5000235
v 15.540393 4.2233973 -0.5000235
v -25.267807 -4.3627143 0.5000235
v -25.267813 -2.338254 0.500023
v -8.806453 -2.338259 0.5000185
v -8.500346 -4.3627157 0.50002044
v 9.193542 4.3617396 -0.49997756
v 9.499652 2.3372858 -0.49997663
v 10.684461 4.3627157 -0.4999754
v 10.684443 2.337285 -0.49997678
vt 3.6484375 0.63671875
vt 3.7382812 0.68652344
vt 3.7382812 0.63671875
vt 3.6484375 0.68652344
vt 3.7382812 0.7363281
vt 3.5585938 0.63671875
vt 3.6484375 0.7363281
vt 3.5585938 0.68652344
vt 3.4667969 0.63671875
vt 3.5585938 0.7363281
vt 3.4667969 0.68652344
vt 3.3769531 0.63671875
vt 3.4667969 0.7363281
vt 3.3769531 0.68652344
vt 3.2871094 0.63671875
vt 3.3769531 0.7363281
vt 3.2871094 0.68652344
vt 3.1972656 0.63671875
vt 3.2871094 0.7363281
vt 3.1972656 0.68652344
vt 3.1972656 0.7363281
vt 0.9301758 0.25561523
vt 0.9301758 0.36914062
vt 1.8447266 0.36914062
vt 1.8613281 0.25561523
vt 2.8457031 0.7441406
vt 2.8613281 0.6308594
vt 2.9277344 0.7441406
vt 2.9277344 0.6308594
vn -0 0 1
vn -0 0 1
vn -0 0 1
vn -0 0 1
vn -0 0 1
vn -0 0 1
vn -0 0 1
vn -0 0 1
vn -0 0 1
vn -0 0 1
vn -0 0 1
vn -0 0 1
vn -0 0 1
vn -0 0 1
vn -0 0 1
vn -0 0 1
vn -0 0 1
vn -0 0 1
vn -0 0 1
vn -0 0 1
vn -0 0 1
vn 2.3841858E-07 5.9604645E-07 1
vn 2.3841858E-07 5.9604645E-07 1
vn 0.026687622 0.0040359497 0.9995117
vn 0.025741577 0.0038928986 0.9995117
vn 0.025741577 0.0038909912 0.9995117
vn 0.026687622 0.0040359497 0.9995117
vn -7.1525574E-07 -1.7881393E-07 1
vn -7.1525574E-07 -1.7881393E-07 1
g Bg_Church_Water_SidePlan_0
f 3/3/3 2/2/2 1/1/1
f 2/2/2 4/4/4 1/1/1
f 2/2/2 5/5/5 4/4/4
f 1/1/1 4/4/4 6/6/6
f 5/5/5 7/7/7 4/4/4
f 4/4/4 8/8/8 6/6/6
f 4/4/4 7/7/7 8/8/8
f 6/6/6 8/8/8 9/9/9
f 7/7/7 10/10/10 8/8/8
f 8/8/8 11/11/11 9/9/9
f 8/8/8 10/10/10 11/11/11
f 9/9/9 11/11/11 12/12/12
f 10/10/10 13/13/13 11/11/11
f 11/11/11 14/14/14 12/12/12
f 11/11/11 13/13/13 14/14/14
f 12/12/12 14/14/14 15/15/15
f 13/13/13 16/16/16 14/14/14
f 14/14/14 17/17/17 15/15/15
f 14/14/14 16/16/16 17/17/17
f 15/15/15 17/17/17 18/18/18
f 16/16/16 19/19/19 17/17/17
f 17/17/17 20/20/20 18/18/18
f 17/17/17 19/19/19 20/20/20
f 19/19/19 21/21/21 20/20/20
f 24/24/24 23/23/23 22/22/22
f 25/25/25 24/24/24 22/22/22
f 26/26/26 24/24/24 25/25/25
f 27/27/27 26/26/26 25/25/25
f 28/28/28 26/26/26 27/27/27
f 29/29/29 28/28/28 27/27/27
