g Church_STR_RegionBorder_01
v 0.19999999 0 0
v -0 4.3012037 1.435593E-11
v 0.19999999 4.3012037 1.435593E-11
v -0 0 0
v -0 4.3012037 1.435593E-11
v 0.19999999 4.3012037 -0.009999999
v 0.19999999 4.3012037 1.435593E-11
v -0 4.3012037 -0.009999999
vt 27.859375 5.9492188
vt 28.9375 6
vt 28.9375 5.9492188
vt 27.859375 6
vt 28.9375 6
vt 28.9375 5.9492188
vt 28.9375 5.9492188
vt 28.9375 6
vn -0 0 1
vn -0 0 1
vn -0 0 1
vn -0 0 1
vn -0 1 0
vn -0 1 0
vn -0 1 0
vn -0 1 0
g Church_STR_RegionBorder_01_0
f 3/3/3 2/2/2 1/1/1
f 4/4/4 1/1/1 2/2/2
f 7/7/7 6/6/6 5/5/5
f 8/8/8 5/5/5 6/6/6
