g Church_STR_RegionBorder_04
v 8.651386E-12 9.240466E-14 2.1512959E-13
v 0.19999999 8.2 6.641585E-14
v 0.19999999 0 2.1512959E-13
v -0 8.2 0
v -0 8.2 0
v 0.19999999 8.2 -0.009999999
v 0.19999999 8.2 6.641585E-14
v -0 8.2 -0.009999999
vt 9.546875 -0.049987793
vt 7.4960938 -0
vt 9.546875 -0
vt 7.4960938 -0.049987793
vt 7.4960938 -0.049987793
vt 7.4921875 -0
vt 7.4960938 -0
vt 7.4921875 -0.049987793
vn -0 0 1
vn -0 0 1
vn -0 0 1
vn -0 0 1
vn -0 1 0
vn -0 1 0
vn -0 1 0
vn -0 1 0
g Church_STR_RegionBorder_04_0
f 3/3/3 2/2/2 1/1/1
f 4/4/4 1/1/1 2/2/2
f 7/7/7 6/6/6 5/5/5
f 8/8/8 5/5/5 6/6/6
