g Church_STR_RegionBorder_06
v 3.5487726 0 0
v -0 0.19999999 2.598881E-14
v 3.5487726 0.19999999 1.4438228E-15
v -0 0 8.662936E-15
v -0 0.19999999 2.598881E-14
v -0 0 -0.009999999
v -0 0.19999999 -0.009999999
v -0 0 8.662936E-15
vt -23.234375 -10.046875
vt -24.125 -10
vt -23.234375 -10
vt -24.125 -10.046875
vt -24.125 -10
vt -24.125 -10.046875
vt -24.125 -10
vt -24.125 -10.046875
vn -0 0 1
vn -0 0 1
vn -0 0 1
vn -0 0 1
vn -1 0 0
vn -1 0 0
vn -1 0 0
vn -1 0 0
g Church_STR_RegionBorder_06_0
f 3/3/3 2/2/2 1/1/1
f 4/4/4 1/1/1 2/2/2
f 7/7/7 6/6/6 5/5/5
f 8/8/8 5/5/5 6/6/6
