g Church_STR_RegionBorder_05
v 3.2937245 0 8.544922E-06
v -0.7062744 0 1.0147094E-05
v -0.7062744 0.19999999 1.0147094E-05
v 3.2937245 0.19999999 8.544922E-06
v -0.7062744 0.19999999 1.0147094E-05
v -0.7062744 0 1.0147094E-05
v -0.7062744 0 -0.009989852
v -0.7062744 0.19999999 -0.009989852
vt -15.78125 -6.0507812
vt -16.6875 -6.0507812
vt -16.6875 -6
vt -15.78125 -6
vt -16.6875 -6
vt -16.6875 -6.0507812
vt -16.59375 -6.0507812
vt -16.59375 -6
vn -0 0 1
vn -0 0 1
vn -0 0 1
vn -0 0 1
vn -1 0 0
vn -1 0 0
vn -1 0 0
vn -1 0 0
g Church_STR_RegionBorder_05_0
f 3/3/3 2/2/2 1/1/1
f 4/4/4 3/3/3 1/1/1
f 7/7/7 6/6/6 5/5/5
f 8/8/8 7/7/7 5/5/5
