g Church_STR_House_05_02_Roof
v -6.680791 9.65918 3.2300005
v 8.519209 9.659183 3.2300005
v 8.519209 9.659183 3.2000003
v -6.6807895 9.65918 3.2000003
v -6.680791 9.619855 3.2300005
v -6.680791 9.6138735 3.2796414
v 8.519208 9.613876 3.2796412
v 8.519209 9.619858 3.2300005
v 8.519208 9.613876 3.2796412
v -6.680791 9.6138735 3.2796414
v -6.680791 13.122729 3.6521416
v 8.519208 13.122731 3.6521416
v 8.519208 13.129069 3.7118912
v -6.680791 13.129067 3.7118912
v -6.680791 13.5198555 3.7589858
v 8.519208 13.519858 3.7589858
v -6.680791 13.122729 3.6521416
v -6.680791 13.119751 3.7007132
v 8.519208 13.119753 3.7007132
v 8.519208 13.122731 3.6521416
v 8.519209 9.619858 3.2300005
v 8.519209 9.659183 3.2300005
v -6.680791 9.65918 3.2300005
v -6.680791 9.619855 3.2300005
v 8.519208 13.910646 3.7118912
v 8.519208 13.519858 3.7589858
v -6.680791 13.5198555 3.7589858
v -6.680791 13.910645 3.7118912
v -6.680791 13.916982 3.6521416
v 8.519208 13.916985 3.6521416
v 8.519208 13.919963 3.7007132
v -6.680791 13.919961 3.7007132
v -5.6105833 17.38053 3.2300005
v -6.680792 17.38053 3.2300005
v -6.6807895 17.38053 3.2000003
v -5.610581 17.38053 3.2000003
v -4.797833 17.380531 3.2300005
v -4.7978306 17.380531 3.2000003
v 7.68088 17.380531 3.2300005
v 7.680881 17.380531 3.2000003
v 8.198072 17.380531 3.2300005
v 8.198072 17.380531 3.2000003
v 8.519208 17.380531 3.2300005
v 8.519208 17.380531 3.2000003
v -6.680792 17.425837 3.2796414
v -6.680792 17.419855 3.2300005
v -5.6105833 17.419855 3.2300005
v -5.6105833 17.425837 3.2796414
v 8.1980715 17.42584 3.2796412
v 8.519206 17.42584 3.2796412
v 8.519206 17.04123 3.320471
v 8.1980715 17.04123 3.320471
v 8.198072 13.916985 3.6521416
v 8.519208 13.916985 3.6521416
v 7.68088 13.916985 3.6521416
v 7.6808786 17.04123 3.320471
v -4.797832 13.916982 3.6521416
v -4.797833 17.041227 3.3204715
v -5.6105824 13.916982 3.6521416
v -4.797833 17.425837 3.2796414
v 7.6808786 17.42584 3.2796412
v -5.6105833 17.041227 3.3204715
v -6.680791 13.916982 3.6521416
v -6.6807933 17.041227 3.3204715
v -6.680792 17.425837 3.2796414
v -5.6105833 17.425837 3.2796414
v 8.519208 17.380531 3.2300005
v 8.519208 17.419859 3.2300005
v 8.198072 17.419859 3.2300005
v 8.198072 17.380531 3.2300005
v 7.68088 17.380531 3.2300005
v 7.68088 17.419859 3.2300005
v -4.797833 17.380531 3.2300005
v -4.797833 17.419855 3.2300005
v -5.6105833 17.38053 3.2300005
v -5.6105833 17.419855 3.2300005
v -6.680792 17.38053 3.2300005
v -6.680792 17.419855 3.2300005
v -4.797833 17.455622 3.2760525
v -5.6105833 17.455622 3.2760525
v -5.6105833 17.44964 3.2264116
v -4.797833 17.44964 3.2264116
v -5.6105833 17.425837 3.2796414
v -4.797833 17.041227 3.3204715
v -5.6105833 17.041227 3.3204715
v -4.797833 17.425837 3.2796414
v -4.797833 17.455622 3.2760525
v -5.6105833 17.455622 3.2760525
v 7.6808786 17.42584 3.2796412
v -4.797833 17.425837 3.2796414
v -4.797833 17.419855 3.2300005
v 7.68088 17.419859 3.2300005
v 7.6808786 17.42584 3.2796412
v 8.1980715 17.04123 3.320471
v 7.6808786 17.04123 3.320471
v 8.1980715 17.42584 3.2796412
v 8.1980715 17.455626 3.2760522
v 7.6808786 17.455626 3.2760522
v 8.519206 17.42584 3.2796412
v 8.1980715 17.42584 3.2796412
v 8.198072 17.419859 3.2300005
v 8.519208 17.419859 3.2300005
v 8.1980715 17.455626 3.2760522
v 7.6808786 17.455626 3.2760522
v 7.68088 17.449644 3.2264116
v 8.198072 17.449644 3.2264116
v -4.797833 17.425837 3.2796414
v -4.797833 17.455622 3.2760525
v -4.797833 17.44964 3.2264116
v -4.797833 17.419855 3.2300005
v -4.797833 17.419855 3.2300005
v -4.797833 17.44964 3.2264116
v -5.6105833 17.44964 3.2264116
v -5.6105833 17.419855 3.2300005
v -5.6105833 17.419855 3.2300005
v -5.6105833 17.44964 3.2264116
v -5.6105833 17.455622 3.2760525
v -5.6105833 17.425837 3.2796414
v 8.1980715 17.42584 3.2796412
v 8.1980715 17.455626 3.2760522
v 8.198072 17.449644 3.2264116
v 8.198072 17.419859 3.2300005
v 8.198072 17.419859 3.2300005
v 8.198072 17.449644 3.2264116
v 7.68088 17.449644 3.2264116
v 7.68088 17.419859 3.2300005
v 7.68088 17.419859 3.2300005
v 7.68088 17.449644 3.2264116
v 7.6808786 17.455626 3.2760522
v 7.6808786 17.42584 3.2796412
v -6.680791 13.129067 3.7118912
v 8.519208 13.129069 3.7118912
v 8.519208 13.119753 3.7007132
v -6.680791 13.119751 3.7007132
v 8.519208 13.910646 3.7118912
v -6.680791 13.910645 3.7118912
v -6.680791 13.919961 3.7007132
v 8.519208 13.919963 3.7007132
vt 2.5 -1.0556641
vt -0.033966064 -1.0556641
vt -0.033966064 -1.0498047
vt 2.5 -1.0498047
vt 0.25268555 0.09539795
vt 0.25268555 0.10235596
vt 2.0605469 0.10235596
vt 2.0605469 0.09539795
vt 2.0605469 0.10235596
vt 0.25268555 0.10235596
vt 0.25268555 0.55029297
vt 2.0605469 0.55029297
vt 1.6699219 0.8041992
vt -0.044281006 0.8041992
vt -0.044281006 0.8642578
vt 1.6699219 0.8642578
vt -0.044281006 0.7993164
vt -0.044281006 0.8022461
vt 1.6699219 0.8022461
vt 1.6699219 0.7993164
vt -0.033966064 -1.0556641
vt -0.033966064 -1.0556641
vt 2.5 -1.0556641
vt 2.5 -1.0556641
vt 1.7998047 0.8041992
vt 1.7998047 0.8642578
vt 0.085876465 0.8642578
vt 0.085876465 0.8041992
vt 0.085876465 0.7993164
vt 1.7998047 0.7993164
vt 1.7998047 0.8022461
vt 0.085876465 0.8022461
vt 2.3203125 -1.0556641
vt 2.5 -1.0556641
vt 2.5 -1.0498047
vt 2.3203125 -1.0498047
vt 2.1855469 -1.0556641
vt 2.1855469 -1.0498047
vt 0.105773926 -1.0556641
vt 0.105773926 -1.0498047
vt 0.019561768 -1.0556641
vt 0.019561768 -1.0498047
vt -0.033966064 -1.0556641
vt -0.033966064 -1.0498047
vt -0.87841797 0.10235596
vt -0.87841797 0.09539795
vt -1.0058594 0.09539795
vt -1.0058594 0.10235596
vt -2.6484375 0.10235596
vt -2.6855469 0.10235596
vt -2.6855469 0.1517334
vt -2.6484375 0.1517334
vt -2.6484375 0.5488281
vt -2.6855469 0.5488281
vt -2.5859375 0.5488281
vt -2.5859375 0.1517334
vt -1.1025391 0.5488281
vt -1.1025391 0.1517334
vt -1.0058594 0.5488281
vt -1.1025391 0.10235596
vt -2.5859375 0.10235596
vt -1.0058594 0.1517334
vt -0.87841797 0.5488281
vt -0.87841797 0.1517334
vt -0.87841797 0.10235596
vt -1.0058594 0.10235596
vt -0.033966064 -1.0556641
vt -0.033966064 -1.0556641
vt 0.019561768 -1.0556641
vt 0.019561768 -1.0556641
vt 0.105773926 -1.0556641
vt 0.105773926 -1.0556641
vt 2.1855469 -1.0556641
vt 2.1855469 -1.0556641
vt 2.3203125 -1.0556641
vt 2.3203125 -1.0556641
vt 2.5 -1.0556641
vt 2.5 -1.0556641
vt -1.1025391 0.10235596
vt -1.0058594 0.10235596
vt -1.0058594 0.09539795
vt -1.1025391 0.09539795
vt 0.9501953 0.20336914
vt 0.8520508 0.24780273
vt 0.9501953 0.24780273
vt 0.8520508 0.20336914
vt 0.8520508 0.20031738
vt 0.9501953 0.20031738
vt -2.5859375 0.10235596
vt -1.1025391 0.10235596
vt -1.1025391 0.09539795
vt -2.5859375 0.09539795
vt 0.85791016 0.6533203
vt 0.80078125 0.69873047
vt 0.85791016 0.69873047
vt 0.80078125 0.6533203
vt 0.80078125 0.6503906
vt 0.85791016 0.6503906
vt -2.6855469 0.10235596
vt -2.6484375 0.10235596
vt -2.6484375 0.09539795
vt -2.6855469 0.09539795
vt -2.6484375 0.10235596
vt -2.5859375 0.10235596
vt -2.5859375 0.09539795
vt -2.6484375 0.09539795
vt -1.1025391 0.10235596
vt -1.1025391 0.10235596
vt -1.1025391 0.09539795
vt -1.1025391 0.09539795
vt -0.7495117 0.09539795
vt -0.7495117 0.09539795
vt -0.6958008 0.09539795
vt -0.6958008 0.09539795
vt -1.0058594 0.09539795
vt -1.0058594 0.09539795
vt -1.0058594 0.10235596
vt -1.0058594 0.10235596
vt -2.6484375 0.10235596
vt -2.6484375 0.10235596
vt -2.6484375 0.09539795
vt -2.6484375 0.09539795
vt -1.6044922 0.09539795
vt -1.6044922 0.09539795
vt -1.5703125 0.09539795
vt -1.5703125 0.09539795
vt -2.5859375 0.09539795
vt -2.5859375 0.09539795
vt -2.5859375 0.10235596
vt -2.5859375 0.10235596
vt -0.044281006 0.8041992
vt 1.6699219 0.8041992
vt 1.6699219 0.8022461
vt -0.044281006 0.8022461
vt 1.7998047 0.8041992
vt 0.085876465 0.8041992
vt 0.085876465 0.8022461
vt 1.7998047 0.8022461
vn 1.7881393E-07 -1 0
vn 1.7881393E-07 -1 0
vn 1.7881393E-07 -1 0
vn 1.7881393E-07 -1 0
vn 1.7881393E-07 -0.9926758 -0.119628906
vn 1.7881393E-07 -0.9926758 -0.119628906
vn 1.7881393E-07 -0.9926758 -0.119628906
vn 1.7881393E-07 -0.9926758 -0.119628906
vn -0 -0.10559082 0.9946289
vn -0 -0.10559082 0.9946289
vn -0 -0.10559082 0.9946289
vn -0 -0.10559082 0.9946289
vn -0 -0.119628906 0.9926758
vn -0 -0.119628906 0.9926758
vn -0 0 1
vn -0 0 1
vn 1.7881393E-07 -0.9980469 -0.06121826
vn 1.7881393E-07 -0.9980469 -0.06121826
vn 1.7881393E-07 -0.9980469 -0.06121826
vn 1.7881393E-07 -0.9980469 -0.06121826
vn -0 0 -1
vn -0 0 -1
vn -0 0 -1
vn -0 0 -1
vn -0 0.119628906 0.9926758
vn -0 0 1
vn -0 0 1
vn -0 0.119628906 0.9926758
vn -1.7881393E-07 0.9980469 -0.06121826
vn -1.7881393E-07 0.9980469 -0.06121826
vn -1.7881393E-07 0.9980469 -0.06121826
vn -1.7881393E-07 0.9980469 -0.06121826
vn -7.748604E-07 1 0
vn -0 1 0
vn -0 1 0
vn -7.748604E-07 1 0
vn -7.748604E-07 1 0
vn -7.748604E-07 1 0
vn -0 1 0
vn -0 1 0
vn -0 1 0
vn -0 1 0
vn -0 1 0
vn -0 1 0
vn -0 0.9926758 -0.119628906
vn -0 0.9926758 -0.119628906
vn -0 0.9926758 -0.119628906
vn -0 0.9926758 -0.119628906
vn -0 0.11022949 0.9941406
vn -1.7881393E-07 0.10559082 0.9946289
vn -2.3841858E-07 0.10559082 0.9946289
vn -1.1920929E-07 0.10559082 0.9946289
vn -1.1920929E-07 0.10559082 0.9946289
vn -2.3841858E-07 0.10559082 0.9946289
vn -0 0.10559082 0.9946289
vn -0 0.10559082 0.9946289
vn -0 0.10559082 0.9946289
vn -0 0.10559082 0.9946289
vn -0 0.10559082 0.9946289
vn -0 0.11022949 0.9941406
vn -0 0.11022949 0.9941406
vn -0 0.10559082 0.9946289
vn -0 0.10559082 0.9946289
vn -0 0.10559082 0.9946289
vn -0 0.10559082 0.9946289
vn -0 0.11022949 0.9941406
vn -0 0 -1
vn -0 0 -1
vn -0 -0.03994751 -0.99902344
vn -0 0 -1
vn -0 0 -1
vn -0 -0.03994751 -0.99902344
vn -0 0 -1
vn -0 -0.03994751 -0.99902344
vn -0 0 -1
vn -0 -0.03994751 -0.99902344
vn -0 0 -1
vn -0 0 -1
vn -0 0.9926758 -0.119628906
vn -0 0.9926758 -0.119628906
vn -0 0.9926758 -0.119628906
vn -0 0.9926758 -0.119628906
vn -0 0.11022949 0.9941406
vn -0 0.10559082 0.9946289
vn -0 0.10559082 0.9946289
vn -0 0.11022949 0.9941406
vn -0 0.119628906 0.9926758
vn -0 0.119628906 0.9926758
vn -1.7881393E-07 0.9926758 -0.119628906
vn -1.7881393E-07 0.9926758 -0.119628906
vn -1.7881393E-07 0.9926758 -0.119628906
vn -1.7881393E-07 0.9926758 -0.119628906
vn -0 0.11022949 0.9941406
vn -1.1920929E-07 0.10559082 0.9946289
vn -0 0.10559082 0.9946289
vn -0 0.11022949 0.9941406
vn -0 0.119628906 0.9926758
vn -0 0.119628906 0.9926758
vn -0 0.9926758 -0.119628906
vn -0 0.9926758 -0.119628906
vn -0 0.9926758 -0.119628906
vn -0 0.9926758 -0.119628906
vn -0 0.9926758 -0.119628906
vn -0 0.9926758 -0.119628906
vn -0 0.9926758 -0.119628906
vn -0 0.9926758 -0.119628906
vn 1 0 0
vn 1 0 0
vn 1 0 0
vn 1 0 0
vn -0 -0.03994751 -0.99902344
vn -0 -0.119628906 -0.9926758
vn -0 -0.119628906 -0.9926758
vn -0 -0.03994751 -0.99902344
vn -1 0 0
vn -1 0 0
vn -1 0 0
vn -1 0 0
vn 1 2.9206276E-06 2.425909E-05
vn 1 2.9206276E-06 2.425909E-05
vn 1 2.9206276E-06 2.425909E-05
vn 1 2.9206276E-06 2.425909E-05
vn -0 -0.03994751 -0.99902344
vn -0 -0.119628906 -0.9926758
vn -0 -0.119628906 -0.9926758
vn -0 -0.03994751 -0.99902344
vn -1 -2.9206276E-06 -2.425909E-05
vn -1 -2.9206276E-06 -2.425909E-05
vn -1 -2.9206276E-06 -2.425909E-05
vn -1 -2.9206276E-06 -2.425909E-05
vn 1.1920929E-07 -0.7680664 0.6401367
vn 1.1920929E-07 -0.7680664 0.6401367
vn 1.1920929E-07 -0.7680664 0.6401367
vn 1.1920929E-07 -0.7680664 0.6401367
vn -1.1920929E-07 0.7680664 0.6401367
vn -1.1920929E-07 0.7680664 0.6401367
vn -1.1920929E-07 0.7680664 0.6401367
vn -1.1920929E-07 0.7680664 0.6401367
g Church_STR_House_05_02_Roof_0
f 3/3/3 2/2/2 1/1/1
f 4/4/4 3/3/3 1/1/1
f 7/7/7 6/6/6 5/5/5
f 8/8/8 7/7/7 5/5/5
f 11/11/11 10/10/10 9/9/9
f 12/12/12 11/11/11 9/9/9
f 15/15/15 14/14/14 13/13/13
f 16/16/16 15/15/15 13/13/13
f 19/19/19 18/18/18 17/17/17
f 20/20/20 19/19/19 17/17/17
f 23/23/23 22/22/22 21/21/21
f 24/24/24 23/23/23 21/21/21
f 27/27/27 26/26/26 25/25/25
f 28/28/28 27/27/27 25/25/25
f 31/31/31 30/30/30 29/29/29
f 32/32/32 31/31/31 29/29/29
f 35/35/35 34/34/34 33/33/33
f 36/36/36 35/35/35 33/33/33
f 36/36/36 33/33/33 37/37/37
f 38/38/38 36/36/36 37/37/37
f 38/38/38 37/37/37 39/39/39
f 40/40/40 38/38/38 39/39/39
f 40/40/40 39/39/39 41/41/41
f 42/42/42 40/40/40 41/41/41
f 42/42/42 41/41/41 43/43/43
f 44/44/44 42/42/42 43/43/43
f 47/47/47 46/46/46 45/45/45
f 48/48/48 47/47/47 45/45/45
f 51/51/51 50/50/50 49/49/49
f 52/52/52 51/51/51 49/49/49
f 51/51/51 52/52/52 53/53/53
f 54/54/54 51/51/51 53/53/53
f 53/53/53 52/52/52 55/55/55
f 52/52/52 56/56/56 55/55/55
f 55/55/55 56/56/56 57/57/57
f 56/56/56 58/58/58 57/57/57
f 57/57/57 58/58/58 59/59/59
f 58/58/58 56/56/56 60/60/60
f 56/56/56 61/61/61 60/60/60
f 58/58/58 62/62/62 59/59/59
f 59/59/59 62/62/62 63/63/63
f 62/62/62 64/64/64 63/63/63
f 64/64/64 62/62/62 65/65/65
f 62/62/62 66/66/66 65/65/65
f 69/69/69 68/68/68 67/67/67
f 70/70/70 69/69/69 67/67/67
f 69/69/69 70/70/70 71/71/71
f 72/72/72 69/69/69 71/71/71
f 72/72/72 71/71/71 73/73/73
f 74/74/74 72/72/72 73/73/73
f 74/74/74 73/73/73 75/75/75
f 76/76/76 74/74/74 75/75/75
f 76/76/76 75/75/75 77/77/77
f 78/78/78 76/76/76 77/77/77
f 81/81/81 80/80/80 79/79/79
f 82/82/82 81/81/81 79/79/79
f 85/85/85 84/84/84 83/83/83
f 84/84/84 86/86/86 83/83/83
f 86/86/86 87/87/87 83/83/83
f 87/87/87 88/88/88 83/83/83
f 91/91/91 90/90/90 89/89/89
f 92/92/92 91/91/91 89/89/89
f 95/95/95 94/94/94 93/93/93
f 94/94/94 96/96/96 93/93/93
f 96/96/96 97/97/97 93/93/93
f 97/97/97 98/98/98 93/93/93
f 101/101/101 100/100/100 99/99/99
f 102/102/102 101/101/101 99/99/99
f 105/105/105 104/104/104 103/103/103
f 106/106/106 105/105/105 103/103/103
f 109/109/109 108/108/108 107/107/107
f 110/110/110 109/109/109 107/107/107
f 113/113/113 112/112/112 111/111/111
f 114/114/114 113/113/113 111/111/111
f 117/117/117 116/116/116 115/115/115
f 118/118/118 117/117/117 115/115/115
f 121/121/121 120/120/120 119/119/119
f 122/122/122 121/121/121 119/119/119
f 125/125/125 124/124/124 123/123/123
f 126/126/126 125/125/125 123/123/123
f 129/129/129 128/128/128 127/127/127
f 130/130/130 129/129/129 127/127/127
f 133/133/133 132/132/132 131/131/131
f 134/134/134 133/133/133 131/131/131
f 137/137/137 136/136/136 135/135/135
f 138/138/138 137/137/137 135/135/135
