g FX_BI_Hyunwoo_Skill04_Range_01
v -0.15342231 -0.420697 0
v -0.15718302 -0.420697 0
v -0.15718302 -0.1695214 0
v -0.15342231 -0.1695214 0
v -0.16459171 -0.15679169 0
v -0.15342231 -0.049620092 0
v -0.16459171 -0.049620055 0
v -0.15342231 -0.0005552292 0
v -0.16459171 -0.0005552292 0
v 0.15410364 -0.1695214 0
v 0.15786432 -0.420697 0
v 0.15410364 -0.420697 0
v 0.15786432 -0.1695214 0
v 0.16527301 -0.15679169 0
v 0.15410364 -0.049620092 0
v 0.16527301 -0.049620055 0
v 0.15410364 -0.0005552292 0
v 0.16527301 -0.0005552292 0
v -0.1476152 -0.049620055 2.3841856E-08
v -0.14999999 -0.0008639526 2.3841856E-08
v -0.1476152 -0.0008639526 2.3841856E-08
v -0.14999999 -0.049620055 2.3841856E-08
v -0.14761521 -0.41847914 2.3841856E-08
v -0.14999999 -0.42086396 2.3841856E-08
v -0 -0.42086396 2.3841856E-08
v -0 -0.41847914 2.3841856E-08
v 0.14761521 -0.41847914 2.3841856E-08
v 0.14999999 -0.42086396 2.3841856E-08
v 0.14999999 -0.049620055 2.3841856E-08
v 0.1476152 -0.049620055 2.3841856E-08
v 0.14999999 -0.0008639526 2.3841856E-08
v 0.1476152 -0.0008639526 2.3841856E-08
vt 0.44815218 0.48893154
vt 0.44815218 0.48893154
vt 0.44815218 0.600783
vt 0.44815218 0.600783
vt 0.44815218 0.600783
vt 0.44815218 0.75952655
vt 0.4481522 0.7542339
vt 0.44815218 0.824486
vt 0.44815218 0.824486
vt 0.5600037 0.600783
vt 0.5600037 0.48893154
vt 0.5600037 0.48893154
vt 0.5600037 0.600783
vt 0.5600037 0.600783
vt 0.5600037 0.75952655
vt 0.5600037 0.75423384
vt 0.5600037 0.824486
vt 0.5600037 0.824486
vt 0.17544053 0.75323194
vt 0.17019713 0.8298029
vt 0.17544053 0.8298029
vt 0.17019713 0.75323194
vt 0.17544053 0.17394242
vt 0.17019713 0.17019713
vt 0.5 0.17019713
vt 0.5 0.17394242
vt 0.82455945 0.17394242
vt 0.8298029 0.17019713
vt 0.8298029 0.75323194
vt 0.82455945 0.75323194
vt 0.8298029 0.8298029
vt 0.82455945 0.8298029
vn -0 0 1
vn -0 0 1
vn -0 0 1
vn -0 0 1
vn -0 0 1
vn -0 0 1
vn -0 0 1
vn -0 0 1
vn -0 0 1
vn -0 0 1
vn -0 0 1
vn -0 0 1
vn -0 0 1
vn -0 0 1
vn -0 0 1
vn -0 0 1
vn -0 0 1
vn -0 0 1
vn -0 0 1
vn -0 0 1
vn -0 0 1
vn -0 0 1
vn -0 0 1
vn -0 0 1
vn -0 0 1
vn -0 0 1
vn -0 0 1
vn -0 0 1
vn -0 0 1
vn -0 0 1
vn -0 0 1
vn -0 0 1
g FX_BI_Hyunwoo_Skill04_Range_01_0
f 3/3/3 2/2/2 1/1/1
f 1/1/1 4/4/4 3/3/3
f 3/3/3 4/4/4 5/5/5
f 6/6/6 5/5/5 4/4/4
f 5/5/5 6/6/6 7/7/7
f 7/7/7 6/6/6 8/8/8
f 8/8/8 9/9/9 7/7/7
f 12/12/12 11/11/11 10/10/10
f 13/13/13 10/10/10 11/11/11
f 10/10/10 13/13/13 14/14/14
f 14/14/14 15/15/15 10/10/10
f 16/16/16 15/15/15 14/14/14
f 17/17/17 15/15/15 16/16/16
f 16/16/16 18/18/18 17/17/17
f 21/21/21 20/20/20 19/19/19
f 22/22/22 19/19/19 20/20/20
f 19/19/19 22/22/22 23/23/23
f 24/24/24 23/23/23 22/22/22
f 25/25/25 23/23/23 24/24/24
f 23/23/23 25/25/25 26/26/26
f 27/27/27 26/26/26 25/25/25
f 25/25/25 28/28/28 27/27/27
f 27/27/27 28/28/28 29/29/29
f 27/27/27 29/29/29 30/30/30
f 30/30/30 29/29/29 31/31/31
f 30/30/30 31/31/31 32/32/32
