g FX_BI_Hyunwoo_Skill04_Range_02
v 2.2629152E-11 -0.00089324947 2.3841856E-08
v -0.14481306 -0.23998503 2.3841856E-08
v -0.14481306 -0.00089324947 2.3841856E-08
v 2.2629152E-11 -0.23998506 2.3841856E-08
v 0.14481306 -0.00089324947 2.3841856E-08
v -0.14481308 -0.41573104 2.3841856E-08
v 0.14481306 -0.23998506 2.3841856E-08
v 2.2629152E-11 -0.41573104 2.3841856E-08
v 0.14481308 -0.41573104 2.3841856E-08
vt 0.5000001 0.8058912
vt 0.12605664 0.66149086
vt 0.1260567 0.8058912
vt 0.50000006 0.66149086
vt 0.87394357 0.8058912
vt 0.12605642 0.18033463
vt 0.8739435 0.66149086
vt 0.49999988 0.18033457
vt 0.8739433 0.18033451
vn -0 0 1
vn -0 0 1
vn -0 0 1
vn -0 0 1
vn -0 0 1
vn -0 0 1
vn -0 0 1
vn -0 0 1
vn -0 0 1
g FX_BI_Hyunwoo_Skill04_Range_02_0
f 3/3/3 2/2/2 1/1/1
f 2/2/2 4/4/4 1/1/1
f 1/1/1 4/4/4 5/5/5
f 2/2/2 6/6/6 4/4/4
f 4/4/4 7/7/7 5/5/5
f 6/6/6 8/8/8 4/4/4
f 4/4/4 8/8/8 7/7/7
f 8/8/8 9/9/9 7/7/7
