g FX_BI_Hyunwoo_Skill04_Range_01
v -0.3896927 -1.0685704 0
v -0.39924487 -1.0685704 0
v -0.39924487 -0.43058437 0
v -0.3896927 -0.43058437 0
v -0.41806296 -0.39825088 0
v -0.3896927 -0.12603503 0
v -0.41806296 -0.12603495 0
v -0.3896927 -0.0014102821 0
v -0.41806296 -0.0014102821 0
v 0.39142326 -0.43058437 0
v 0.40097538 -1.0685704 0
v 0.39142326 -1.0685704 0
v 0.40097538 -0.43058437 0
v 0.41979346 -0.39825088 0
v 0.39142326 -0.12603503 0
v 0.41979346 -0.12603495 0
v 0.39142326 -0.0014102821 0
v 0.41979346 -0.0014102821 0
v -0.3749426 -0.12603495 6.055832E-08
v -0.38099998 -0.0021944398 6.055832E-08
v -0.3749426 -0.0021944398 6.055832E-08
v -0.38099998 -0.12603495 6.055832E-08
v -0.37494263 -1.062937 6.055832E-08
v -0.38099998 -1.0689944 6.055832E-08
v -0 -1.0689944 6.055832E-08
v -0 -1.062937 6.055832E-08
v 0.37494263 -1.062937 6.055832E-08
v 0.38099998 -1.0689944 6.055832E-08
v 0.38099998 -0.12603495 6.055832E-08
v 0.3749426 -0.12603495 6.055832E-08
v 0.38099998 -0.0021944398 6.055832E-08
v 0.3749426 -0.0021944398 6.055832E-08
vt 0.77894247 0.16668662
vt 0.77591574 0.16582172
vt 0.77597696 0.551222
vt 0.7792369 0.5545355
vt 0.7715366 0.58028287
vt 0.7797779 0.748905
vt 0.770966 0.75457996
vt 0.7811538 0.831199
vt 0.77220356 0.8338134
vt 0.88512254 0.55305165
vt 0.8880925 0.16705376
vt 0.88511026 0.16676398
vt 0.88829756 0.55209947
vt 0.8929361 0.5799109
vt 0.8846307 0.74870193
vt 0.8933996 0.75468266
vt 0.8831469 0.83137906
vt 0.89210474 0.8340704
vt 0.17544053 0.75323194
vt 0.17019713 0.8298029
vt 0.17544053 0.8298029
vt 0.17019713 0.75323194
vt 0.17544053 0.17394242
vt 0.17019713 0.17019713
vt 0.5 0.17019713
vt 0.5 0.17394242
vt 0.82455945 0.17394242
vt 0.8298029 0.17019713
vt 0.8298029 0.75323194
vt 0.82455945 0.75323194
vt 0.8298029 0.8298029
vt 0.82455945 0.8298029
vn -0 0 1
vn -0 0 1
vn -0 0 1
vn -0 0 1
vn -0 0 1
vn -0 0 1
vn -0 0 1
vn -0 0 1
vn -0 0 1
vn -0 0 1
vn -0 0 1
vn -0 0 1
vn -0 0 1
vn -0 0 1
vn -0 0 1
vn -0 0 1
vn -0 0 1
vn -0 0 1
vn -0 0 1
vn -0 0 1
vn -0 0 1
vn -0 0 1
vn -0 0 1
vn -0 0 1
vn -0 0 1
vn -0 0 1
vn -0 0 1
vn -0 0 1
vn -0 0 1
vn -0 0 1
vn -0 0 1
vn -0 0 1
g FX_BI_Hyunwoo_Skill04_Range_01_0
f 3/3/3 2/2/2 1/1/1
f 1/1/1 4/4/4 3/3/3
f 3/3/3 4/4/4 5/5/5
f 6/6/6 5/5/5 4/4/4
f 5/5/5 6/6/6 7/7/7
f 7/7/7 6/6/6 8/8/8
f 8/8/8 9/9/9 7/7/7
f 12/12/12 11/11/11 10/10/10
f 13/13/13 10/10/10 11/11/11
f 10/10/10 13/13/13 14/14/14
f 14/14/14 15/15/15 10/10/10
f 16/16/16 15/15/15 14/14/14
f 17/17/17 15/15/15 16/16/16
f 16/16/16 18/18/18 17/17/17
f 21/21/21 20/20/20 19/19/19
f 22/22/22 19/19/19 20/20/20
f 19/19/19 22/22/22 23/23/23
f 24/24/24 23/23/23 22/22/22
f 25/25/25 23/23/23 24/24/24
f 23/23/23 25/25/25 26/26/26
f 27/27/27 26/26/26 25/25/25
f 25/25/25 28/28/28 27/27/27
f 27/27/27 28/28/28 29/29/29
f 27/27/27 29/29/29 30/30/30
f 30/30/30 29/29/29 31/31/31
f 30/30/30 31/31/31 32/32/32
