g Fx_Fbx_WSkill_Tonfa_01
v 0.40917674 0.18124348 3.8156702E-07
v 0.11397996 0.14400157 4.52835E-07
v 0.14316559 0.115028284 4.184858E-07
v 0.3585874 0.26774973 4.1045612E-07
v 0.7328141 0.15311185 3.2871066E-07
v 0.0790789 0.16575408 4.8572355E-07
v 0.6803702 0.3123395 3.445683E-07
v 1.197508 -5.2234157E-08 3.0219215E-07
v 1.1674839 0.2664705 2.9041436E-07
v 0.29001686 0.34082985 4.037755E-07
v 0.040212482 0.179195 4.964289E-07
v 0.5938102 0.45590526 3.6630703E-07
v 1.0789174 0.5195792 2.8723323E-07
v 0.20690377 0.39681938 4.362412E-07
v -0.0006703659 0.18365033 5.168362E-07
v 0.47747368 0.57660997 3.928369E-07
v 0.93624943 0.7466339 2.9280827E-07
v 0.11341573 0.4329107 4.4900486E-07
v -0.04151958 0.17889667 5.313782E-07
v 0.3371945 0.6684009 3.8468056E-07
v 0.7466341 0.9362494 3.0685993E-07
v 0.014240522 0.44729412 4.78617E-07
v -0.08028679 0.16517234 5.3431796E-07
v 0.18000726 0.72667557 4.1662804E-07
v 0.51957935 1.0789174 2.9053663E-07
v -0.08564875 0.43924838 5.0451933E-07
v -0.11502815 0.14316559 5.39335E-07
v 0.013793592 0.7485116 4.4416217E-07
v 0.26647076 1.167484 3.3811142E-07
v -0.1812433 0.40917686 5.254128E-07
v -0.1440015 0.11397996 5.366413E-07
v -0.15311173 0.73281413 4.7996815E-07
v 1.5770222E-07 1.1975081 3.7004472E-07
v -0.26774952 0.35858753 5.5932344E-07
v -0.165754 0.0790789 5.645185E-07
v -0.3123394 0.6803706 5.081845E-07
v -0.26647043 1.1674842 4.0916723E-07
v -0.34082964 0.29001692 5.673602E-07
v -0.1791949 0.04021248 5.471878E-07
v -0.45590517 0.5938103 5.321648E-07
v -0.5195791 1.0789175 4.290852E-07
v -0.39681903 0.20690382 5.300465E-07
v -0.18365023 -0.0006703681 5.6181227E-07
v -0.5766096 0.4774736 5.888534E-07
v -0.7466338 0.9362496 5.0595384E-07
v -0.43291023 0.113415726 5.999285E-07
v -0.17889652 -0.04151958 5.332774E-07
v -0.6684006 0.33719456 6.0102684E-07
v -0.9362493 0.7466342 5.4246414E-07
v -0.4472936 0.01424048 5.8659293E-07
v -0.1651722 -0.08028684 5.0116097E-07
v -0.72667515 0.18000722 6.062215E-07
v -1.0789173 0.5195794 5.749323E-07
v -0.43924803 -0.08564884 5.670025E-07
v -0.14316548 -0.11502818 4.670736E-07
v -0.7485113 0.013793563 6.041768E-07
v -1.1674839 0.26647082 6.017302E-07
v -0.40917647 -0.18124339 5.421393E-07
v -0.11397986 -0.14400154 4.3272433E-07
v -0.732814 -0.15311177 5.949956E-07
v -1.197508 2.33274E-07 6.21514E-07
v -0.35858715 -0.26774964 5.132502E-07
v -0.07907881 -0.16575405 3.9983564E-07
v -0.68037045 -0.31233943 5.7913786E-07
v -1.167484 -0.26647037 6.3329185E-07
v -0.2900167 -0.34082985 4.8178396E-07
v -0.040212374 -0.17919499 3.8913035E-07
v -0.5938101 -0.45590523 5.5739923E-07
v -1.0789175 -0.5195791 6.36473E-07
v -0.2069036 -0.39681932 4.493182E-07
v 0.000670477 -0.1836503 3.68723E-07
v -0.47747332 -0.57660985 5.308692E-07
v -0.93624943 -0.74663407 6.308979E-07
v -0.11341548 -0.43291068 4.3655447E-07
v 0.041519716 -0.17889659 3.5418108E-07
v -0.33719438 -0.668401 5.008786E-07
v -0.7466339 -0.93624943 6.168462E-07
v -0.014240313 -0.44729415 4.0217404E-07
v 0.080286965 -0.16517226 3.3216793E-07
v -0.18000692 -0.7266756 4.6893112E-07
v -0.5195791 -1.0789175 5.5687553E-07
v 0.08564906 -0.4392482 3.8104008E-07
v 0.1150283 -0.14316548 3.4622417E-07
v -0.013793209 -0.7485115 4.3662865E-07
v -0.26647034 -1.1674842 5.474477E-07
v 0.18124357 -0.40917668 3.6014652E-07
v 0.14400162 -0.11397984 3.4891804E-07
v 0.15311214 -0.7328141 4.055911E-07
v 3.6945727E-07 -1.1975081 5.1188135E-07
v 0.2677498 -0.35858727 3.262359E-07
v 0.16575411 -0.07907873 3.2104086E-07
v 0.31233975 -0.6803702 3.7737476E-07
v 0.26647106 -1.1674839 4.763919E-07
v 0.34082988 -0.2900167 3.1819923E-07
v 0.17919496 -0.040212277 3.3837154E-07
v 0.4559054 -0.5938099 3.5339448E-07
v 0.51957977 -1.0789173 4.1832692E-07
v 0.3968194 -0.2069036 3.173659E-07
v 0.18365026 0.00067057536 3.6189405E-07
v 0.5766101 -0.47747317 3.348527E-07
v 0.7466345 -0.9362491 4.1775215E-07
v 0.43291083 -0.113415375 3.2377778E-07
v 0.17889659 0.041519843 3.90429E-07
v 0.6684012 -0.33719414 3.2267937E-07
v 0.93625 -0.74663335 3.8124185E-07
v 0.44729415 -0.014240048 3.3711336E-07
v 0.16517225 0.08028709 3.843984E-07
v 0.7266757 -0.1800066 3.174848E-07
v 1.0789177 -0.5195784 3.487737E-07
v 0.43924809 0.08564936 3.5670394E-07
v 0.14316559 0.115028284 4.184858E-07
v 0.40917674 0.18124348 3.8156702E-07
v 0.74851185 -0.013792819 3.195294E-07
v 1.1674842 -0.2664696 3.2197588E-07
v 0.7328141 0.15311185 3.2871066E-07
v 1.197508 -5.2234157E-08 3.0219215E-07
vt 1.9933343 0.3349998
vt 1.92223 0
vt 1.9933343 0
vt 1.92223 0.3349998
vt 1.9933343 0.66999984
vt 1.8511255 0
vt 1.92223 0.66999984
vt 1.9933343 1.0049999
vt 1.92223 1.0049999
vt 1.8511255 0.3349998
vt 1.7800212 0
vt 1.8511255 0.66999984
vt 1.8511255 1.0049999
vt 1.7800212 0.3349998
vt 1.7089174 0
vt 1.7800212 0.66999984
vt 1.7800212 1.0049999
vt 1.7089174 0.3349998
vt 1.6378126 0
vt 1.7089174 0.66999984
vt 1.7089174 1.0049999
vt 1.6378126 0.3349998
vt 1.5667086 0
vt 1.6378126 0.66999984
vt 1.6378126 1.0049999
vt 1.5667086 0.3349998
vt 1.4956043 0
vt 1.5667086 0.66999984
vt 1.5667086 1.0049999
vt 1.4956043 0.3349998
vt 1.4244995 0
vt 1.4956043 0.66999984
vt 1.4956043 1.0049999
vt 1.4244995 0.3349998
vt 1.3533959 0
vt 1.4244995 0.66999984
vt 1.4244995 1.0049999
vt 1.3533959 0.3349998
vt 1.2822912 0
vt 1.3533959 0.66999984
vt 1.3533959 1.0049999
vt 1.2822912 0.3349998
vt 1.2111869 0
vt 1.2822912 0.66999984
vt 1.2822912 1.0049999
vt 1.2111869 0.3349998
vt 1.1400826 0
vt 1.2111869 0.66999984
vt 1.2111869 1.0049999
vt 1.1400826 0.3349998
vt 1.0689785 0
vt 1.1400826 0.66999984
vt 1.1400826 1.0049999
vt 1.0689785 0.3349998
vt 0.99787384 0
vt 1.0689785 0.66999984
vt 1.0689785 1.0049999
vt 0.99787384 0.3349998
vt 0.9267697 0
vt 0.99787384 0.66999984
vt 0.99787384 1.0049999
vt 0.9267697 0.3349998
vt 0.85566515 0
vt 0.9267697 0.66999984
vt 0.9267697 1.0049999
vt 0.85566515 0.3349998
vt 0.784561 0
vt 0.85566515 0.66999984
vt 0.85566515 1.0049999
vt 0.784561 0.3349998
vt 0.7134567 0
vt 0.784561 0.66999984
vt 0.784561 1.0049999
vt 0.7134567 0.3349998
vt 0.6423525 0
vt 0.7134567 0.66999984
vt 0.7134567 1.0049999
vt 0.6423525 0.3349998
vt 0.57124823 2.3841858E-07
vt 0.6423525 0.66999984
vt 0.6423525 1.0049999
vt 0.57124823 0.33500028
vt 0.5001437 2.3841858E-07
vt 0.57124823 0.6700003
vt 0.57124823 1.0050001
vt 0.5001437 0.33500028
vt 0.42903954 2.3841858E-07
vt 0.5001437 0.6700003
vt 0.5001437 1.0050001
vt 0.42903954 0.33500028
vt 0.357935 2.3841858E-07
vt 0.42903954 0.6700003
vt 0.42903954 1.0050001
vt 0.357935 0.33500028
vt 0.28683084 2.3841858E-07
vt 0.357935 0.6700003
vt 0.357935 1.0050001
vt 0.28683084 0.33500028
vt 0.21572655 2.3841858E-07
vt 0.28683084 0.6700003
vt 0.28683084 1.0050001
vt 0.21572655 0.33500028
vt 0.14462239 2.3841858E-07
vt 0.21572655 0.6700003
vt 0.21572655 1.0050001
vt 0.14462239 0.33500028
vt 0.07351798 2.3841858E-07
vt 0.14462239 0.6700003
vt 0.14462239 1.0050001
vt 0.07351798 0.33500028
vt 0.00241369 2.3841858E-07
vt 0.00241369 0.33500028
vt 0.07351798 0.6700003
vt 0.07351798 1.0050001
vt 0.00241369 0.6700003
vt 0.00241369 1.0050001
vn -1.9026406E-07 2.2797535E-07 -1
vn -2.7248768E-07 1.2225263E-07 -1
vn -2.4288218E-07 3.6287577E-07 -1
vn -2.1719791E-07 0 -1
vn -1.05459655E-07 0 -1
vn -3.2579175E-07 0 -1
vn -1.4467919E-07 0 -1
vn -0 0 -1
vn -1.060017E-07 0 -1
vn -2.4061146E-07 0 -1
vn -3.0976187E-07 0 -1
vn -1.680802E-07 0 -1
vn -1.5348482E-07 0 -1
vn -2.2221522E-07 0 -1
vn -3.073036E-07 -1.1913218E-07 -1
vn -1.5391764E-07 0 -1
vn -1.622552E-07 0 -1
vn -2.4585538E-07 0 -1
vn -2.3779604E-07 -1.3178983E-07 -1
vn -1.4534083E-07 -1.3518176E-07 -1
vn -1.3339587E-07 -1.5091615E-07 -1
vn -2.421889E-07 -1.1022596E-07 -1
vn -1.6876285E-07 -1.1413227E-07 -1
vn -2.0896759E-07 -1.1527043E-07 -1
vn -1.6338564E-07 -1.5756899E-07 -1
vn -1.870665E-07 -1.219834E-07 -1
vn -1.9982198E-07 0 -1
vn -1.9008206E-07 -1.4055568E-07 -1
vn -1.9420412E-07 -1.4928729E-07 -1
vn -1.8878076E-07 -1.1783738E-07 -1
vn -2.4452046E-07 0 -1
vn -1.610826E-07 -1.6399623E-07 -1
vn -1.4574948E-07 -1.7953595E-07 -1
vn -1.6045264E-07 -1.2086936E-07 -1
vn -0 1.3192397E-07 -1
vn -0 -1.7959697E-07 -1
vn -0 -1.9975145E-07 -1
vn -0 0 -1
vn -1.1299649E-07 -2.2485041E-07 -1
vn -1.0371287E-07 -1.6823824E-07 -1
vn -0 -2.2323586E-07 -1
vn -1.3188921E-07 0 -1
vn -1.812795E-07 0 -1
vn -1.2368031E-07 -1.3397666E-07 -1
vn -1.17614846E-07 -2.1169082E-07 -1
vn -1.7725878E-07 0 -1
vn -1.4653655E-07 3.2890227E-07 -1
vn -0 -1.0574828E-07 -1
vn -0 -1.3740328E-07 -1
vn -0 1.8531219E-07 -1
vn -2.612677E-07 3.3533377E-07 -1
vn -0 0 -1
vn -0 0 -1
vn -1.6395924E-07 2.1047813E-07 -1
vn -3.6742753E-07 2.9134873E-07 -1
vn -0 0 -1
vn -0 0 -1
vn -2.4942258E-07 1.9725374E-07 -1
vn -4.4399007E-07 2.056587E-07 -1
vn -1.05459364E-07 0 -1
vn -0 0 -1
vn -3.2068442E-07 1.482575E-07 -1
vn -4.0103663E-07 0 -1
vn -1.6129637E-07 0 -1
vn -1.06001586E-07 0 -1
vn -3.392987E-07 0 -1
vn -3.0976219E-07 0 -1
vn -2.086458E-07 0 -1
vn -1.5348469E-07 0 -1
vn -2.8298498E-07 0 -1
vn -3.278483E-07 -1.06601476E-07 -1
vn -2.2613668E-07 0 -1
vn -1.8984304E-07 0 -1
vn -2.8288622E-07 0 -1
vn -3.1310537E-07 -1.3509415E-07 -1
vn -2.4037587E-07 0 -1
vn -2.2395166E-07 0 -1
vn -2.7451784E-07 -1.07790875E-07 -1
vn -1.1029765E-07 -1.2996377E-07 -1
vn -2.0968984E-07 0 -1
vn -2.0791919E-07 0 -1
vn -1.7590595E-07 -1.281036E-07 -1
vn -1.43228E-07 0 -1
vn -1.7199017E-07 -1.4340954E-07 -1
vn -1.4710689E-07 -1.5928849E-07 -1
vn -1.4593219E-07 -1.2101049E-07 -1
vn -2.4451978E-07 0 -1
vn -1.5289238E-07 -1.6258491E-07 -1
vn -1.4102743E-07 -1.8020026E-07 -1
vn -1.6045233E-07 -1.2086925E-07 -1
vn -0 0 -1
vn -1.2696486E-07 -1.6614648E-07 -1
vn -1.1980589E-07 -1.8392919E-07 -1
vn -0 0 -1
vn -0 1.7961652E-07 -1
vn -0 -1.4083382E-07 -1
vn -0 -1.6036321E-07 -1
vn -0 0 -1
vn -0 2.7332737E-07 -1
vn -0 -1.13054455E-07 -1
vn -0 -1.4900428E-07 -1
vn -0 1.2673968E-07 -1
vn -1.1798313E-07 1.6044396E-07 -1
vn -0 0 -1
vn -0 -1.3740294E-07 -1
vn -0 1.3048015E-07 -1
vn -1.6006533E-07 2.6950255E-07 -1
vn -0 0 -1
vn -0 0 -1
vn -1.247144E-07 1.5185606E-07 -1
vn -2.4288218E-07 3.6287577E-07 -1
vn -1.9026406E-07 2.2797535E-07 -1
vn -0 0 -1
vn -0 0 -1
vn -1.05459655E-07 0 -1
vn -0 0 -1
g Fx_Fbx_WSkill_Tonfa_01_0
f 3/3/3 2/2/2 1/1/1
f 2/2/2 4/4/4 1/1/1
f 1/1/1 4/4/4 5/5/5
f 2/2/2 6/6/6 4/4/4
f 4/4/4 7/7/7 5/5/5
f 5/5/5 7/7/7 8/8/8
f 7/7/7 9/9/9 8/8/8
f 6/6/6 10/10/10 4/4/4
f 4/4/4 10/10/10 7/7/7
f 6/6/6 11/11/11 10/10/10
f 7/7/7 12/12/12 9/9/9
f 10/10/10 12/12/12 7/7/7
f 12/12/12 13/13/13 9/9/9
f 11/11/11 14/14/14 10/10/10
f 10/10/10 14/14/14 12/12/12
f 11/11/11 15/15/15 14/14/14
f 12/12/12 16/16/16 13/13/13
f 14/14/14 16/16/16 12/12/12
f 16/16/16 17/17/17 13/13/13
f 15/15/15 18/18/18 14/14/14
f 14/14/14 18/18/18 16/16/16
f 15/15/15 19/19/19 18/18/18
f 16/16/16 20/20/20 17/17/17
f 18/18/18 20/20/20 16/16/16
f 20/20/20 21/21/21 17/17/17
f 19/19/19 22/22/22 18/18/18
f 18/18/18 22/22/22 20/20/20
f 19/19/19 23/23/23 22/22/22
f 20/20/20 24/24/24 21/21/21
f 22/22/22 24/24/24 20/20/20
f 24/24/24 25/25/25 21/21/21
f 23/23/23 26/26/26 22/22/22
f 22/22/22 26/26/26 24/24/24
f 23/23/23 27/27/27 26/26/26
f 24/24/24 28/28/28 25/25/25
f 26/26/26 28/28/28 24/24/24
f 28/28/28 29/29/29 25/25/25
f 27/27/27 30/30/30 26/26/26
f 26/26/26 30/30/30 28/28/28
f 27/27/27 31/31/31 30/30/30
f 28/28/28 32/32/32 29/29/29
f 30/30/30 32/32/32 28/28/28
f 32/32/32 33/33/33 29/29/29
f 31/31/31 34/34/34 30/30/30
f 30/30/30 34/34/34 32/32/32
f 31/31/31 35/35/35 34/34/34
f 32/32/32 36/36/36 33/33/33
f 34/34/34 36/36/36 32/32/32
f 36/36/36 37/37/37 33/33/33
f 35/35/35 38/38/38 34/34/34
f 34/34/34 38/38/38 36/36/36
f 35/35/35 39/39/39 38/38/38
f 36/36/36 40/40/40 37/37/37
f 38/38/38 40/40/40 36/36/36
f 40/40/40 41/41/41 37/37/37
f 39/39/39 42/42/42 38/38/38
f 38/38/38 42/42/42 40/40/40
f 39/39/39 43/43/43 42/42/42
f 40/40/40 44/44/44 41/41/41
f 42/42/42 44/44/44 40/40/40
f 44/44/44 45/45/45 41/41/41
f 43/43/43 46/46/46 42/42/42
f 42/42/42 46/46/46 44/44/44
f 43/43/43 47/47/47 46/46/46
f 44/44/44 48/48/48 45/45/45
f 46/46/46 48/48/48 44/44/44
f 48/48/48 49/49/49 45/45/45
f 47/47/47 50/50/50 46/46/46
f 46/46/46 50/50/50 48/48/48
f 47/47/47 51/51/51 50/50/50
f 48/48/48 52/52/52 49/49/49
f 50/50/50 52/52/52 48/48/48
f 52/52/52 53/53/53 49/49/49
f 51/51/51 54/54/54 50/50/50
f 50/50/50 54/54/54 52/52/52
f 51/51/51 55/55/55 54/54/54
f 52/52/52 56/56/56 53/53/53
f 54/54/54 56/56/56 52/52/52
f 56/56/56 57/57/57 53/53/53
f 55/55/55 58/58/58 54/54/54
f 54/54/54 58/58/58 56/56/56
f 55/55/55 59/59/59 58/58/58
f 56/56/56 60/60/60 57/57/57
f 58/58/58 60/60/60 56/56/56
f 60/60/60 61/61/61 57/57/57
f 59/59/59 62/62/62 58/58/58
f 58/58/58 62/62/62 60/60/60
f 59/59/59 63/63/63 62/62/62
f 60/60/60 64/64/64 61/61/61
f 62/62/62 64/64/64 60/60/60
f 64/64/64 65/65/65 61/61/61
f 63/63/63 66/66/66 62/62/62
f 62/62/62 66/66/66 64/64/64
f 63/63/63 67/67/67 66/66/66
f 64/64/64 68/68/68 65/65/65
f 66/66/66 68/68/68 64/64/64
f 68/68/68 69/69/69 65/65/65
f 67/67/67 70/70/70 66/66/66
f 66/66/66 70/70/70 68/68/68
f 67/67/67 71/71/71 70/70/70
f 68/68/68 72/72/72 69/69/69
f 70/70/70 72/72/72 68/68/68
f 72/72/72 73/73/73 69/69/69
f 71/71/71 74/74/74 70/70/70
f 70/70/70 74/74/74 72/72/72
f 71/71/71 75/75/75 74/74/74
f 72/72/72 76/76/76 73/73/73
f 74/74/74 76/76/76 72/72/72
f 76/76/76 77/77/77 73/73/73
f 75/75/75 78/78/78 74/74/74
f 74/74/74 78/78/78 76/76/76
f 75/75/75 79/79/79 78/78/78
f 76/76/76 80/80/80 77/77/77
f 78/78/78 80/80/80 76/76/76
f 80/80/80 81/81/81 77/77/77
f 79/79/79 82/82/82 78/78/78
f 78/78/78 82/82/82 80/80/80
f 79/79/79 83/83/83 82/82/82
f 80/80/80 84/84/84 81/81/81
f 82/82/82 84/84/84 80/80/80
f 84/84/84 85/85/85 81/81/81
f 83/83/83 86/86/86 82/82/82
f 82/82/82 86/86/86 84/84/84
f 83/83/83 87/87/87 86/86/86
f 84/84/84 88/88/88 85/85/85
f 86/86/86 88/88/88 84/84/84
f 88/88/88 89/89/89 85/85/85
f 87/87/87 90/90/90 86/86/86
f 86/86/86 90/90/90 88/88/88
f 87/87/87 91/91/91 90/90/90
f 88/88/88 92/92/92 89/89/89
f 90/90/90 92/92/92 88/88/88
f 92/92/92 93/93/93 89/89/89
f 91/91/91 94/94/94 90/90/90
f 90/90/90 94/94/94 92/92/92
f 91/91/91 95/95/95 94/94/94
f 92/92/92 96/96/96 93/93/93
f 94/94/94 96/96/96 92/92/92
f 96/96/96 97/97/97 93/93/93
f 95/95/95 98/98/98 94/94/94
f 94/94/94 98/98/98 96/96/96
f 95/95/95 99/99/99 98/98/98
f 96/96/96 100/100/100 97/97/97
f 98/98/98 100/100/100 96/96/96
f 100/100/100 101/101/101 97/97/97
f 99/99/99 102/102/102 98/98/98
f 98/98/98 102/102/102 100/100/100
f 99/99/99 103/103/103 102/102/102
f 100/100/100 104/104/104 101/101/101
f 102/102/102 104/104/104 100/100/100
f 104/104/104 105/105/105 101/101/101
f 103/103/103 106/106/106 102/102/102
f 102/102/102 106/106/106 104/104/104
f 103/103/103 107/107/107 106/106/106
f 104/104/104 108/108/108 105/105/105
f 106/106/106 108/108/108 104/104/104
f 108/108/108 109/109/109 105/105/105
f 107/107/107 110/110/110 106/106/106
f 106/106/106 110/110/110 108/108/108
f 107/107/107 111/111/111 110/110/110
f 111/111/111 112/112/112 110/110/110
f 108/108/108 113/113/113 109/109/109
f 110/110/110 113/113/113 108/108/108
f 110/110/110 112/112/112 113/113/113
f 113/113/113 114/114/114 109/109/109
f 112/112/112 115/115/115 113/113/113
f 113/113/113 115/115/115 114/114/114
f 115/115/115 116/116/116 114/114/114
