g Fx_Fbx_WSkill_Tonfa_01
v 1.197508 -5.2234157E-08 3.0219215E-07
v 1.1674839 0.2664705 2.9041436E-07
v 0.6803702 0.3123395 3.445683E-07
v 0.7328141 0.15311185 3.2871066E-07
v 0.3585874 0.26774973 4.1045612E-07
v 0.40917674 0.18124348 3.8156702E-07
v 0.11397996 0.14400157 4.52835E-07
v 0.14316559 0.115028284 4.184858E-07
v 0.5938102 0.45590526 3.6630703E-07
v 1.0789174 0.5195792 2.8723323E-07
v 0.29001686 0.34082985 4.037755E-07
v 0.0790789 0.16575408 4.8572355E-07
v 0.47747368 0.57660997 3.928369E-07
v 0.93624943 0.7466339 2.9280827E-07
v 0.20690377 0.39681938 4.362412E-07
v 0.040212482 0.179195 4.964289E-07
v 0.3371945 0.6684009 3.8468056E-07
v 0.7466341 0.9362494 3.0685993E-07
v 0.11341573 0.4329107 4.4900486E-07
v -0.0006703659 0.18365033 5.168362E-07
v 0.18000726 0.72667557 4.1662804E-07
v 0.51957935 1.0789174 2.9053663E-07
v 0.014240522 0.44729412 4.78617E-07
v -0.04151958 0.17889667 5.313782E-07
v 0.013793592 0.7485116 4.4416217E-07
v 0.26647076 1.167484 3.3811142E-07
v -0.08564875 0.43924838 5.0451933E-07
v -0.08028679 0.16517234 5.3431796E-07
v -0.15311173 0.73281413 4.7996815E-07
v 1.5770222E-07 1.1975081 3.7004472E-07
v -0.1812433 0.40917686 5.254128E-07
v -0.11502815 0.14316559 5.39335E-07
v -0.3123394 0.6803706 5.081845E-07
v -0.26647043 1.1674842 4.0916723E-07
v -0.26774952 0.35858753 5.5932344E-07
v -0.1440015 0.11397996 5.366413E-07
v -0.45590517 0.5938103 5.321648E-07
v -0.5195791 1.0789175 4.290852E-07
v -0.34082964 0.29001692 5.673602E-07
v -0.165754 0.0790789 5.645185E-07
v -0.5766096 0.4774736 5.888534E-07
v -0.7466338 0.9362496 5.0595384E-07
v -0.39681903 0.20690382 5.300465E-07
v -0.1791949 0.04021248 5.471878E-07
v -0.6684006 0.33719456 6.0102684E-07
v -0.9362493 0.7466342 5.4246414E-07
v -0.43291023 0.113415726 5.999285E-07
v -0.18365023 -0.0006703681 5.6181227E-07
v -0.72667515 0.18000722 6.062215E-07
v -1.0789173 0.5195794 5.749323E-07
v -0.4472936 0.01424048 5.8659293E-07
v -0.17889652 -0.04151958 5.332774E-07
v -0.7485113 0.013793563 6.041768E-07
v -1.1674839 0.26647082 6.017302E-07
v -0.43924803 -0.08564884 5.670025E-07
v -0.1651722 -0.08028684 5.0116097E-07
v -0.732814 -0.15311177 5.949956E-07
v -1.197508 2.33274E-07 6.21514E-07
v -0.40917647 -0.18124339 5.421393E-07
v -0.14316548 -0.11502818 4.670736E-07
v -0.68037045 -0.31233943 5.7913786E-07
v -1.167484 -0.26647037 6.3329185E-07
v -0.35858715 -0.26774964 5.132502E-07
v -0.11397986 -0.14400154 4.3272433E-07
v -0.5938101 -0.45590523 5.5739923E-07
v -1.0789175 -0.5195791 6.36473E-07
v -0.2900167 -0.34082985 4.8178396E-07
v -0.07907881 -0.16575405 3.9983564E-07
v -0.47747332 -0.57660985 5.308692E-07
v -0.93624943 -0.74663407 6.308979E-07
v -0.2069036 -0.39681932 4.493182E-07
v -0.040212374 -0.17919499 3.8913035E-07
v -0.33719438 -0.668401 5.008786E-07
v -0.7466339 -0.93624943 6.168462E-07
v -0.11341548 -0.43291068 4.3655447E-07
v 0.000670477 -0.1836503 3.68723E-07
v -0.18000692 -0.7266756 4.6893112E-07
v -0.5195791 -1.0789175 5.5687553E-07
v -0.014240313 -0.44729415 4.0217404E-07
v 0.041519716 -0.17889659 3.5418108E-07
v -0.013793209 -0.7485115 4.3662865E-07
v -0.26647034 -1.1674842 5.474477E-07
v 0.08564906 -0.4392482 3.8104008E-07
v 0.080286965 -0.16517226 3.3216793E-07
v 0.15311214 -0.7328141 4.055911E-07
v 3.6945727E-07 -1.1975081 5.1188135E-07
v 0.18124357 -0.40917668 3.6014652E-07
v 0.1150283 -0.14316548 3.4622417E-07
v 0.31233975 -0.6803702 3.7737476E-07
v 0.26647106 -1.1674839 4.763919E-07
v 0.2677498 -0.35858727 3.262359E-07
v 0.14400162 -0.11397984 3.4891804E-07
v 0.4559054 -0.5938099 3.5339448E-07
v 0.51957977 -1.0789173 4.1832692E-07
v 0.34082988 -0.2900167 3.1819923E-07
v 0.16575411 -0.07907873 3.2104086E-07
v 0.5766101 -0.47747317 3.348527E-07
v 0.7466345 -0.9362491 4.1775215E-07
v 0.3968194 -0.2069036 3.173659E-07
v 0.17919496 -0.040212277 3.3837154E-07
v 0.6684012 -0.33719414 3.2267937E-07
v 0.93625 -0.74663335 3.8124185E-07
v 0.43291083 -0.113415375 3.2377778E-07
v 0.18365026 0.00067057536 3.6189405E-07
v 0.7266757 -0.1800066 3.174848E-07
v 1.0789177 -0.5195784 3.487737E-07
v 0.44729415 -0.014240048 3.3711336E-07
v 0.17889659 0.041519843 3.90429E-07
v 0.74851185 -0.013792819 3.195294E-07
v 1.1674842 -0.2664696 3.2197588E-07
v 0.43924809 0.08564936 3.5670394E-07
v 0.16517225 0.08028709 3.843984E-07
v 0.7328141 0.15311185 3.2871066E-07
v 1.197508 -5.2234157E-08 3.0219215E-07
v 0.40917674 0.18124348 3.8156702E-07
v 0.14316559 0.115028284 4.184858E-07
vt 1.9933343 1.0049999
vt 1.92223 1.0049999
vt 1.92223 0.66999984
vt 1.9933343 0.66999984
vt 1.92223 0.3349998
vt 1.9933343 0.3349998
vt 1.92223 0
vt 1.9933343 0
vt 1.8511255 0.66999984
vt 1.8511255 1.0049999
vt 1.8511255 0.3349998
vt 1.8511255 0
vt 1.7800212 0.66999984
vt 1.7800212 1.0049999
vt 1.7800212 0.3349998
vt 1.7800212 0
vt 1.7089174 0.66999984
vt 1.7089174 1.0049999
vt 1.7089174 0.3349998
vt 1.7089174 0
vt 1.6378126 0.66999984
vt 1.6378126 1.0049999
vt 1.6378126 0.3349998
vt 1.6378126 0
vt 1.5667086 0.66999984
vt 1.5667086 1.0049999
vt 1.5667086 0.3349998
vt 1.5667086 0
vt 1.4956043 0.66999984
vt 1.4956043 1.0049999
vt 1.4956043 0.3349998
vt 1.4956043 0
vt 1.4244995 0.66999984
vt 1.4244995 1.0049999
vt 1.4244995 0.3349998
vt 1.4244995 0
vt 1.3533959 0.66999984
vt 1.3533959 1.0049999
vt 1.3533959 0.3349998
vt 1.3533959 0
vt 1.2822912 0.66999984
vt 1.2822912 1.0049999
vt 1.2822912 0.3349998
vt 1.2822912 0
vt 1.2111869 0.66999984
vt 1.2111869 1.0049999
vt 1.2111869 0.3349998
vt 1.2111869 0
vt 1.1400826 0.66999984
vt 1.1400826 1.0049999
vt 1.1400826 0.3349998
vt 1.1400826 0
vt 1.0689785 0.66999984
vt 1.0689785 1.0049999
vt 1.0689785 0.3349998
vt 1.0689785 0
vt 0.99787384 0.66999984
vt 0.99787384 1.0049999
vt 0.99787384 0.3349998
vt 0.99787384 0
vt 0.9267697 0.66999984
vt 0.9267697 1.0049999
vt 0.9267697 0.3349998
vt 0.9267697 0
vt 0.85566515 0.66999984
vt 0.85566515 1.0049999
vt 0.85566515 0.3349998
vt 0.85566515 0
vt 0.784561 0.66999984
vt 0.784561 1.0049999
vt 0.784561 0.3349998
vt 0.784561 0
vt 0.7134567 0.66999984
vt 0.7134567 1.0049999
vt 0.7134567 0.3349998
vt 0.7134567 0
vt 0.6423525 0.66999984
vt 0.6423525 1.0049999
vt 0.6423525 0.3349998
vt 0.6423525 0
vt 0.57124823 0.6700003
vt 0.57124823 1.0050001
vt 0.57124823 0.33500028
vt 0.57124823 2.3841858E-07
vt 0.5001437 0.6700003
vt 0.5001437 1.0050001
vt 0.5001437 0.33500028
vt 0.5001437 2.3841858E-07
vt 0.42903954 0.6700003
vt 0.42903954 1.0050001
vt 0.42903954 0.33500028
vt 0.42903954 2.3841858E-07
vt 0.357935 0.6700003
vt 0.357935 1.0050001
vt 0.357935 0.33500028
vt 0.357935 2.3841858E-07
vt 0.28683084 0.6700003
vt 0.28683084 1.0050001
vt 0.28683084 0.33500028
vt 0.28683084 2.3841858E-07
vt 0.21572655 0.6700003
vt 0.21572655 1.0050001
vt 0.21572655 0.33500028
vt 0.21572655 2.3841858E-07
vt 0.14462239 0.6700003
vt 0.14462239 1.0050001
vt 0.14462239 0.33500028
vt 0.14462239 2.3841858E-07
vt 0.07351798 0.6700003
vt 0.07351798 1.0050001
vt 0.07351798 0.33500028
vt 0.07351798 2.3841858E-07
vt 0.00241369 0.6700003
vt 0.00241369 1.0050001
vt 0.00241369 0.33500028
vt 0.00241369 2.3841858E-07
vn -0 0 -1
vn -1.060017E-07 0 -1
vn -1.4467919E-07 0 -1
vn -1.05459655E-07 0 -1
vn -2.1719791E-07 0 -1
vn -1.9026406E-07 2.2797535E-07 -1
vn -2.7248768E-07 1.2225263E-07 -1
vn -2.4288218E-07 3.6287577E-07 -1
vn -1.680802E-07 0 -1
vn -1.5348482E-07 0 -1
vn -2.4061146E-07 0 -1
vn -3.2579175E-07 0 -1
vn -1.5391764E-07 0 -1
vn -1.622552E-07 0 -1
vn -2.2221522E-07 0 -1
vn -3.0976187E-07 0 -1
vn -1.4534083E-07 -1.3518176E-07 -1
vn -1.3339587E-07 -1.5091615E-07 -1
vn -2.4585538E-07 0 -1
vn -3.073036E-07 -1.1913218E-07 -1
vn -2.0896759E-07 -1.1527043E-07 -1
vn -1.6338564E-07 -1.5756899E-07 -1
vn -2.421889E-07 -1.1022596E-07 -1
vn -2.3779604E-07 -1.3178983E-07 -1
vn -1.9008206E-07 -1.4055568E-07 -1
vn -1.9420412E-07 -1.4928729E-07 -1
vn -1.870665E-07 -1.219834E-07 -1
vn -1.6876285E-07 -1.1413227E-07 -1
vn -1.610826E-07 -1.6399623E-07 -1
vn -1.4574948E-07 -1.7953595E-07 -1
vn -1.8878076E-07 -1.1783738E-07 -1
vn -1.9982198E-07 0 -1
vn -0 -1.7959697E-07 -1
vn -0 -1.9975145E-07 -1
vn -1.6045264E-07 -1.2086936E-07 -1
vn -2.4452046E-07 0 -1
vn -1.0371287E-07 -1.6823824E-07 -1
vn -0 -2.2323586E-07 -1
vn -0 0 -1
vn -0 1.3192397E-07 -1
vn -1.2368031E-07 -1.3397666E-07 -1
vn -1.17614846E-07 -2.1169082E-07 -1
vn -1.3188921E-07 0 -1
vn -1.1299649E-07 -2.2485041E-07 -1
vn -0 -1.0574828E-07 -1
vn -0 -1.3740328E-07 -1
vn -1.7725878E-07 0 -1
vn -1.812795E-07 0 -1
vn -0 0 -1
vn -0 0 -1
vn -0 1.8531219E-07 -1
vn -1.4653655E-07 3.2890227E-07 -1
vn -0 0 -1
vn -0 0 -1
vn -1.6395924E-07 2.1047813E-07 -1
vn -2.612677E-07 3.3533377E-07 -1
vn -1.05459364E-07 0 -1
vn -0 0 -1
vn -2.4942258E-07 1.9725374E-07 -1
vn -3.6742753E-07 2.9134873E-07 -1
vn -1.6129637E-07 0 -1
vn -1.06001586E-07 0 -1
vn -3.2068442E-07 1.482575E-07 -1
vn -4.4399007E-07 2.056587E-07 -1
vn -2.086458E-07 0 -1
vn -1.5348469E-07 0 -1
vn -3.392987E-07 0 -1
vn -4.0103663E-07 0 -1
vn -2.2613668E-07 0 -1
vn -1.8984304E-07 0 -1
vn -2.8298498E-07 0 -1
vn -3.0976219E-07 0 -1
vn -2.4037587E-07 0 -1
vn -2.2395166E-07 0 -1
vn -2.8288622E-07 0 -1
vn -3.278483E-07 -1.06601476E-07 -1
vn -2.0968984E-07 0 -1
vn -2.0791919E-07 0 -1
vn -2.7451784E-07 -1.07790875E-07 -1
vn -3.1310537E-07 -1.3509415E-07 -1
vn -1.7199017E-07 -1.4340954E-07 -1
vn -1.4710689E-07 -1.5928849E-07 -1
vn -1.7590595E-07 -1.281036E-07 -1
vn -1.1029765E-07 -1.2996377E-07 -1
vn -1.5289238E-07 -1.6258491E-07 -1
vn -1.4102743E-07 -1.8020026E-07 -1
vn -1.4593219E-07 -1.2101049E-07 -1
vn -1.43228E-07 0 -1
vn -1.2696486E-07 -1.6614648E-07 -1
vn -1.1980589E-07 -1.8392919E-07 -1
vn -1.6045233E-07 -1.2086925E-07 -1
vn -2.4451978E-07 0 -1
vn -0 -1.4083382E-07 -1
vn -0 -1.6036321E-07 -1
vn -0 0 -1
vn -0 0 -1
vn -0 -1.13054455E-07 -1
vn -0 -1.4900428E-07 -1
vn -0 0 -1
vn -0 1.7961652E-07 -1
vn -0 0 -1
vn -0 -1.3740294E-07 -1
vn -0 1.2673968E-07 -1
vn -0 2.7332737E-07 -1
vn -0 0 -1
vn -0 0 -1
vn -0 1.3048015E-07 -1
vn -1.1798313E-07 1.6044396E-07 -1
vn -0 0 -1
vn -0 0 -1
vn -1.247144E-07 1.5185606E-07 -1
vn -1.6006533E-07 2.6950255E-07 -1
vn -1.05459655E-07 0 -1
vn -0 0 -1
vn -1.9026406E-07 2.2797535E-07 -1
vn -2.4288218E-07 3.6287577E-07 -1
g Fx_Fbx_WSkill_Tonfa_01_0
f 3/3/3 2/2/2 1/1/1
f 4/4/4 3/3/3 1/1/1
f 5/5/5 3/3/3 4/4/4
f 6/6/6 5/5/5 4/4/4
f 7/7/7 5/5/5 6/6/6
f 8/8/8 7/7/7 6/6/6
f 3/3/3 9/9/9 2/2/2
f 9/9/9 10/10/10 2/2/2
f 11/11/11 9/9/9 3/3/3
f 5/5/5 11/11/11 3/3/3
f 12/12/12 11/11/11 5/5/5
f 7/7/7 12/12/12 5/5/5
f 9/9/9 13/13/13 10/10/10
f 13/13/13 14/14/14 10/10/10
f 15/15/15 13/13/13 9/9/9
f 11/11/11 15/15/15 9/9/9
f 16/16/16 15/15/15 11/11/11
f 12/12/12 16/16/16 11/11/11
f 13/13/13 17/17/17 14/14/14
f 17/17/17 18/18/18 14/14/14
f 19/19/19 17/17/17 13/13/13
f 15/15/15 19/19/19 13/13/13
f 20/20/20 19/19/19 15/15/15
f 16/16/16 20/20/20 15/15/15
f 17/17/17 21/21/21 18/18/18
f 21/21/21 22/22/22 18/18/18
f 23/23/23 21/21/21 17/17/17
f 19/19/19 23/23/23 17/17/17
f 24/24/24 23/23/23 19/19/19
f 20/20/20 24/24/24 19/19/19
f 21/21/21 25/25/25 22/22/22
f 25/25/25 26/26/26 22/22/22
f 27/27/27 25/25/25 21/21/21
f 23/23/23 27/27/27 21/21/21
f 28/28/28 27/27/27 23/23/23
f 24/24/24 28/28/28 23/23/23
f 25/25/25 29/29/29 26/26/26
f 29/29/29 30/30/30 26/26/26
f 31/31/31 29/29/29 25/25/25
f 27/27/27 31/31/31 25/25/25
f 32/32/32 31/31/31 27/27/27
f 28/28/28 32/32/32 27/27/27
f 29/29/29 33/33/33 30/30/30
f 33/33/33 34/34/34 30/30/30
f 35/35/35 33/33/33 29/29/29
f 31/31/31 35/35/35 29/29/29
f 36/36/36 35/35/35 31/31/31
f 32/32/32 36/36/36 31/31/31
f 33/33/33 37/37/37 34/34/34
f 37/37/37 38/38/38 34/34/34
f 39/39/39 37/37/37 33/33/33
f 35/35/35 39/39/39 33/33/33
f 40/40/40 39/39/39 35/35/35
f 36/36/36 40/40/40 35/35/35
f 37/37/37 41/41/41 38/38/38
f 41/41/41 42/42/42 38/38/38
f 43/43/43 41/41/41 37/37/37
f 39/39/39 43/43/43 37/37/37
f 44/44/44 43/43/43 39/39/39
f 40/40/40 44/44/44 39/39/39
f 41/41/41 45/45/45 42/42/42
f 45/45/45 46/46/46 42/42/42
f 47/47/47 45/45/45 41/41/41
f 43/43/43 47/47/47 41/41/41
f 48/48/48 47/47/47 43/43/43
f 44/44/44 48/48/48 43/43/43
f 45/45/45 49/49/49 46/46/46
f 49/49/49 50/50/50 46/46/46
f 51/51/51 49/49/49 45/45/45
f 47/47/47 51/51/51 45/45/45
f 52/52/52 51/51/51 47/47/47
f 48/48/48 52/52/52 47/47/47
f 49/49/49 53/53/53 50/50/50
f 53/53/53 54/54/54 50/50/50
f 55/55/55 53/53/53 49/49/49
f 51/51/51 55/55/55 49/49/49
f 56/56/56 55/55/55 51/51/51
f 52/52/52 56/56/56 51/51/51
f 53/53/53 57/57/57 54/54/54
f 57/57/57 58/58/58 54/54/54
f 59/59/59 57/57/57 53/53/53
f 55/55/55 59/59/59 53/53/53
f 60/60/60 59/59/59 55/55/55
f 56/56/56 60/60/60 55/55/55
f 57/57/57 61/61/61 58/58/58
f 61/61/61 62/62/62 58/58/58
f 63/63/63 61/61/61 57/57/57
f 59/59/59 63/63/63 57/57/57
f 64/64/64 63/63/63 59/59/59
f 60/60/60 64/64/64 59/59/59
f 61/61/61 65/65/65 62/62/62
f 65/65/65 66/66/66 62/62/62
f 67/67/67 65/65/65 61/61/61
f 63/63/63 67/67/67 61/61/61
f 68/68/68 67/67/67 63/63/63
f 64/64/64 68/68/68 63/63/63
f 65/65/65 69/69/69 66/66/66
f 69/69/69 70/70/70 66/66/66
f 71/71/71 69/69/69 65/65/65
f 67/67/67 71/71/71 65/65/65
f 72/72/72 71/71/71 67/67/67
f 68/68/68 72/72/72 67/67/67
f 69/69/69 73/73/73 70/70/70
f 73/73/73 74/74/74 70/70/70
f 75/75/75 73/73/73 69/69/69
f 71/71/71 75/75/75 69/69/69
f 76/76/76 75/75/75 71/71/71
f 72/72/72 76/76/76 71/71/71
f 73/73/73 77/77/77 74/74/74
f 77/77/77 78/78/78 74/74/74
f 79/79/79 77/77/77 73/73/73
f 75/75/75 79/79/79 73/73/73
f 80/80/80 79/79/79 75/75/75
f 76/76/76 80/80/80 75/75/75
f 77/77/77 81/81/81 78/78/78
f 81/81/81 82/82/82 78/78/78
f 83/83/83 81/81/81 77/77/77
f 79/79/79 83/83/83 77/77/77
f 84/84/84 83/83/83 79/79/79
f 80/80/80 84/84/84 79/79/79
f 81/81/81 85/85/85 82/82/82
f 85/85/85 86/86/86 82/82/82
f 87/87/87 85/85/85 81/81/81
f 83/83/83 87/87/87 81/81/81
f 88/88/88 87/87/87 83/83/83
f 84/84/84 88/88/88 83/83/83
f 85/85/85 89/89/89 86/86/86
f 89/89/89 90/90/90 86/86/86
f 91/91/91 89/89/89 85/85/85
f 87/87/87 91/91/91 85/85/85
f 92/92/92 91/91/91 87/87/87
f 88/88/88 92/92/92 87/87/87
f 89/89/89 93/93/93 90/90/90
f 93/93/93 94/94/94 90/90/90
f 95/95/95 93/93/93 89/89/89
f 91/91/91 95/95/95 89/89/89
f 96/96/96 95/95/95 91/91/91
f 92/92/92 96/96/96 91/91/91
f 93/93/93 97/97/97 94/94/94
f 97/97/97 98/98/98 94/94/94
f 99/99/99 97/97/97 93/93/93
f 95/95/95 99/99/99 93/93/93
f 100/100/100 99/99/99 95/95/95
f 96/96/96 100/100/100 95/95/95
f 97/97/97 101/101/101 98/98/98
f 101/101/101 102/102/102 98/98/98
f 103/103/103 101/101/101 97/97/97
f 99/99/99 103/103/103 97/97/97
f 104/104/104 103/103/103 99/99/99
f 100/100/100 104/104/104 99/99/99
f 101/101/101 105/105/105 102/102/102
f 105/105/105 106/106/106 102/102/102
f 107/107/107 105/105/105 101/101/101
f 103/103/103 107/107/107 101/101/101
f 108/108/108 107/107/107 103/103/103
f 104/104/104 108/108/108 103/103/103
f 105/105/105 109/109/109 106/106/106
f 109/109/109 110/110/110 106/106/106
f 111/111/111 109/109/109 105/105/105
f 107/107/107 111/111/111 105/105/105
f 112/112/112 111/111/111 107/107/107
f 108/108/108 112/112/112 107/107/107
f 109/109/109 113/113/113 110/110/110
f 113/113/113 114/114/114 110/110/110
f 115/115/115 113/113/113 109/109/109
f 111/111/111 115/115/115 109/109/109
f 116/116/116 115/115/115 111/111/111
f 112/112/112 116/116/116 111/111/111
