g Fx_Fbx_HyunwooATK
v -0.34470224 2.2254238 0.0007711243
v -0.40033257 2.1361063 0.0007711243
v -0.6413568 2.410191 0.0007711243
v -0.6981701 2.3189816 0.0007711243
v -0.45310396 2.0489125 0.0007711243
v -0.7544192 2.2260628 0.0007711243
v -0.5020806 1.9631197 0.0007711243
v -0.8089197 2.1306303 0.0007711243
v -0.54645723 1.8780204 0.0007711243
v -0.8604454 2.0318735 0.0007711243
v -0.5855719 1.7928528 0.0007711243
v -0.9077234 1.9289993 0.0007711243
v -0.61888707 1.7067376 0.0007711243
v -0.9494396 1.8212516 0.0007711243
v -0.6459492 1.618582 0.0007711243
v -0.9842514 1.7079421 0.0007711243
v -0.66628724 1.527054 0.0007711243
v -1.0108212 1.5884606 0.0007711243
v -0.67929703 1.4306111 0.0007711243
v -1.0278544 1.4622668 0.0007711243
v -1.0341316 1.3288659 0.0007711243
v -0.6841467 1.3275709 0.0007711243
v -1.0285242 1.1877617 0.0007711243
v -0.6797318 1.2162576 0.0007711243
v -0.6651155 1.0984213 0.0007711243
v -1.0099521 1.0373435 0.0007711243
v -0.6391773 0.98623496 0.0007711243
v -0.9750625 0.8859294 0.0007711243
v -0.922935 0.7446379 0.0007711243
v -0.6019511 0.88525945 0.0007711243
v -0.8564527 0.6147046 0.0007711243
v -0.55386335 0.7912064 0.0007711243
v -0.77813506 0.49615106 0.0007711243
v -0.49605185 0.7036334 0.0007711243
v -0.6904474 0.3888573 0.0007711243
v -0.42981318 0.6225363 0.0007711243
v -0.5957681 0.2926168 0.0007711243
v -0.35670185 0.5481825 0.0007711243
v -0.49638966 0.20718636 0.0007711243
v -0.27853575 0.48096025 0.0007711243
v -0.39452764 0.13231565 0.0007711243
v -0.1973706 0.42128366 0.0007711243
v -0.29233548 0.06776622 0.0007711243
v -0.11545714 0.3695318 0.0007711243
v -0.19190566 0.013315105 0.0007711243
v -0.035237435 0.326034 0.0007711243
v 0.040599696 0.29107332 0.0007711243
v -0.09525275 -0.031246241 0.0007711243
v -0.007085237 -0.06491077 0.0007711243
v 0.11792318 0.26145667 0.0007711243
vt 4.569558E-08 1
vt 4.732268E-08 0.9627763
vt 1 1
vt 1 0.96277636
vt 4.8950998E-08 0.9255247
vt 1 0.9255248
vt 5.0582546E-08 0.8881992
vt 1 0.88819927
vt 5.2220933E-08 0.8507173
vt 1 0.85071737
vt 5.3872075E-08 0.8129436
vt 1 0.8129437
vt 5.554489E-08 0.774674
vt 1 0.77467406
vt 5.725179E-08 0.73562473
vt 1 0.7356248
vt 5.9008908E-08 0.6954265
vt 1 0.6954266
vt 6.083607E-08 0.65362597
vt 1.0000001 0.653626
vt 1.0000001 0.6096948
vt 6.2756364E-08 0.6096947
vt 1.0000001 0.5630452
vt 6.4795486E-08 0.56304514
vt 6.69809E-08 0.51304865
vt 1.0000001 0.5130487
vt 6.9196986E-08 0.4623505
vt 1.0000001 0.4623505
vt 1.0000001 0.41355002
vt 7.133012E-08 0.41355002
vt 1.0000001 0.3661412
vt 7.3402425E-08 0.3661412
vt 1.0000001 0.31981003
vt 7.542763E-08 0.31981003
vt 1.0000001 0.27442455
vt 7.741149E-08 0.2744245
vt 1.0000001 0.2300145
vt 7.9352716E-08 0.23001444
vt 1.0000001 0.18674642
vt 8.1244025E-08 0.18674636
vt 1.0000001 0.14489871
vt 8.3073246E-08 0.14489865
vt 1.0000001 0.10483873
vt 8.482432E-08 0.10483867
vt 1.0000001 0.06700325
vt 8.647817E-08 0.06700319
vt 8.801338E-08 0.03188157
vt 1.0000001 0.03188163
vt 1.0000001 5.9604645E-08
vt 8.940697E-08 0
vn -0 0 1
vn -0 0 1
vn -0 0 1
vn -0 0 1
vn -0 0 1
vn -0 0 1
vn -0 0 1
vn -0 0 1
vn -0 0 1
vn -0 0 1
vn -0 0 1
vn -0 0 1
vn -0 0 1
vn -0 0 1
vn -0 0 1
vn -0 0 1
vn -0 0 1
vn -0 0 1
vn -0 0 1
vn -0 0 1
vn -0 0 1
vn -0 0 1
vn -0 0 1
vn -0 0 1
vn -0 0 1
vn -0 0 1
vn -0 0 1
vn -0 0 1
vn -0 0 1
vn -0 0 1
vn -0 0 1
vn -0 0 1
vn -0 0 1
vn -0 0 1
vn -0 0 1
vn -0 0 1
vn -0 0 1
vn -0 0 1
vn -0 0 1
vn -0 0 1
vn -0 0 1
vn -0 0 1
vn -0 0 1
vn -0 0 1
vn -0 0 1
vn -0 0 1
vn -0 0 1
vn -0 0 1
vn -0 0 1
vn -0 0 1
g Fx_Fbx_HyunwooATK_0
f 3/3/3 2/2/2 1/1/1
f 3/3/3 4/4/4 2/2/2
f 4/4/4 5/5/5 2/2/2
f 4/4/4 6/6/6 5/5/5
f 6/6/6 7/7/7 5/5/5
f 6/6/6 8/8/8 7/7/7
f 8/8/8 9/9/9 7/7/7
f 10/10/10 9/9/9 8/8/8
f 10/10/10 11/11/11 9/9/9
f 12/12/12 11/11/11 10/10/10
f 12/12/12 13/13/13 11/11/11
f 14/14/14 13/13/13 12/12/12
f 14/14/14 15/15/15 13/13/13
f 16/16/16 15/15/15 14/14/14
f 16/16/16 17/17/17 15/15/15
f 17/17/17 16/16/16 18/18/18
f 18/18/18 19/19/19 17/17/17
f 19/19/19 18/18/18 20/20/20
f 19/19/19 20/20/20 21/21/21
f 21/21/21 22/22/22 19/19/19
f 22/22/22 21/21/21 23/23/23
f 23/23/23 24/24/24 22/22/22
f 23/23/23 25/25/25 24/24/24
f 25/25/25 23/23/23 26/26/26
f 27/27/27 25/25/25 26/26/26
f 27/27/27 26/26/26 28/28/28
f 27/27/27 28/28/28 29/29/29
f 29/29/29 30/30/30 27/27/27
f 30/30/30 29/29/29 31/31/31
f 31/31/31 32/32/32 30/30/30
f 32/32/32 31/31/31 33/33/33
f 33/33/33 34/34/34 32/32/32
f 34/34/34 33/33/33 35/35/35
f 35/35/35 36/36/36 34/34/34
f 36/36/36 35/35/35 37/37/37
f 37/37/37 38/38/38 36/36/36
f 38/38/38 37/37/37 39/39/39
f 39/39/39 40/40/40 38/38/38
f 40/40/40 39/39/39 41/41/41
f 41/41/41 42/42/42 40/40/40
f 42/42/42 41/41/41 43/43/43
f 43/43/43 44/44/44 42/42/42
f 44/44/44 43/43/43 45/45/45
f 45/45/45 46/46/46 44/44/44
f 47/47/47 46/46/46 45/45/45
f 45/45/45 48/48/48 47/47/47
f 47/47/47 48/48/48 49/49/49
f 49/49/49 50/50/50 47/47/47
