g Bg_Pond_Decal_Mud_03
v -4.5629444 -0.38737303 1.6887695
v -2.9551904 0.17669433 1.6719793
v -3.3002782 -1.0631152 1.7319342
v -1.797749 -1.5848389 1.7184106
v -4.176509 0.67700684 1.6378632
v -1.5772997 -0.26140136 1.7123382
v -2.9359813 2.0232372 1.583324
v -1.0018604 1.4034277 1.6355108
v -3.934978 2.3885596 1.5541022
v -0.82451904 3.7270606 1.521557
v -2.7635229 3.9253857 1.4966217
v -3.331682 4.1988134 1.4608734
v -0.68716794 4.963081 1.4600048
v -2.6651537 5.2550583 1.4239264
v -3.1610644 5.3282566 1.414881
v -0.58349365 7.550542 1.2447656
v -2.8477783 7.9310594 1.2447625
vt 0.05319214 0.5102539
vt 0.14648438 0.67285156
vt 0.009185791 0.6738281
vt -0.010002136 0.82373047
vt 0.18029785 0.5102539
vt 0.15454102 0.8413086
vt 0.29956055 0.6591797
vt 0.33154297 0.8466797
vt 0.35083008 0.5253906
vt 0.5644531 0.8144531
vt 0.5395508 0.6123047
vt 0.5595703 0.52001953
vt 0.7558594 0.7763672
vt 0.7597656 0.56103516
vt 0.76171875 0.51220703
vt 0.9980469 0.74121094
vt 0.9580078 0.49853516
vn 0.23864746 -0.049560547 0.96972656
vn 0.105407715 -0.074157715 0.9916992
vn 0.10797119 -0.028411865 0.99365234
vn 0.0066986084 -0.011894226 1
vn 0.21166992 -0.09277344 0.97314453
vn -0.003332138 -0.06964111 0.9975586
vn 0.08496094 -0.11218262 0.9902344
vn -0.0090408325 -0.10736084 0.9941406
vn 0.18066406 -0.10491943 0.97802734
vn -0.006832123 -0.09802246 0.9951172
vn 0.07714844 -0.09436035 0.9926758
vn 0.15441895 -0.089782715 0.9838867
vn -0.008926392 -0.101135254 0.9946289
vn 0.057403564 -0.095825195 0.99365234
vn 0.12359619 -0.08874512 0.98828125
vn -0.011184692 -0.10412598 0.9946289
vn 0.005821228 -0.10192871 0.9946289
g Bg_Pond_Decal_Mud_03_0
f 3/3/3 2/2/2 1/1/1
f 3/3/3 4/4/4 2/2/2
f 2/2/2 5/5/5 1/1/1
f 4/4/4 6/6/6 2/2/2
f 2/2/2 7/7/7 5/5/5
f 2/2/2 6/6/6 7/7/7
f 6/6/6 8/8/8 7/7/7
f 7/7/7 9/9/9 5/5/5
f 7/7/7 8/8/8 10/10/10
f 7/7/7 11/11/11 9/9/9
f 11/11/11 7/7/7 10/10/10
f 11/11/11 12/12/12 9/9/9
f 10/10/10 13/13/13 11/11/11
f 11/11/11 14/14/14 12/12/12
f 13/13/13 14/14/14 11/11/11
f 14/14/14 15/15/15 12/12/12
f 14/14/14 13/13/13 16/16/16
f 14/14/14 17/17/17 15/15/15
f 17/17/17 14/14/14 16/16/16
