g Bg_Pond_STR_Control_Roof
v -0.8000005 -3.5020053 6.1
v -0.79999995 0.16093901 6.0699997
v -0.79999995 0.16093901 6.1
v -0.8000005 -3.5020053 6.0699997
v 4.9999995 0.4999992 6.1
v 4.999999 -3.1286838 6.0699997
v 4.999999 -3.1286838 6.1
v 4.9999995 0.4999992 6.0699997
v 4.9999995 0.4999992 6.1
v -0.17661434 0.5 6.0699997
v 4.9999995 0.4999992 6.0699997
v -0.17661434 0.5 6.1
v 3.2199354 -4.7000003 6.0699997
v 0.089354865 -4.7 6.1
v 3.2199354 -4.7000003 6.1
v 0.08935487 -4.7 6.0699997
v 3.8625479 -3.8487146 6.1
v 4.428298 -3.3107758 6.1
v 4.1293683 -3.7115762 6.1
v 4.9999995 0.4999992 6.1
v 4.999999 -3.1286838 6.1
v -0.4532532 0.38393566 6.1
v -0.17661434 0.5 6.1
v -0.6016515 0.24985379 6.1
v 3.7158682 -4.3267155 6.1
v -0.8000005 -3.5020053 6.1
v -0.79999995 0.16093901 6.1
v -0.65672916 -3.6415517 6.1
v -0.4985524 -3.863945 6.1
v -0.65672916 -3.7415516 6.1
v 0.089354865 -4.7 6.1
v 3.2199354 -4.7000003 6.1
v -0.18690144 -4.3564024 6.1
v -0.3442957 -4.2330046 6.1
v -0.037208267 -4.6163864 6.1
vt 0.7709961 0.03277588
vt 0.17028809 0.027862549
vt 0.17028809 0.03277588
vt 0.7709961 0.027862549
vt 0.114746094 0.96728516
vt 0.70947266 0.97216797
vt 0.70947266 0.96728516
vt 0.114746094 0.97216797
vt 0.44262695 0.37695312
vt 0.44750977 1.2255859
vt 0.44750977 0.37695312
vt 0.44262695 1.2255859
vt 0.97216797 0.67529297
vt 0.96728516 0.16223145
vt 0.96728516 0.67529297
vt 0.97216797 0.16223145
vt 0.8276367 0.7807617
vt 0.7392578 0.87353516
vt 0.8051758 0.82470703
vt 0.114746094 0.96728516
vt 0.70947266 0.96728516
vt 0.13378906 0.07324219
vt 0.114746094 0.11859131
vt 0.15576172 0.048919678
vt 0.90625 0.75683594
vt 0.7709961 0.01638794
vt 0.17028809 0.01638794
vt 0.79345703 0.039886475
vt 0.8300781 0.0657959
vt 0.8100586 0.039886475
vt 0.96728516 0.16223145
vt 0.96728516 0.67529297
vt 0.91064453 0.116882324
vt 0.890625 0.09112549
vt 0.9536133 0.14147949
vn -1 1.1920929E-07 0
vn -1 1.1920929E-07 0
vn -1 1.1920929E-07 0
vn -1 1.1920929E-07 0
vn 1 -1.7881393E-07 0
vn 1 -1.7881393E-07 0
vn 1 -1.7881393E-07 0
vn 1 -1.7881393E-07 0
vn 1.7881393E-07 1 0
vn 1.7881393E-07 1 0
vn 1.7881393E-07 1 0
vn 1.7881393E-07 1 0
vn -1.7881393E-07 -1 0
vn -1.7881393E-07 -1 0
vn -1.7881393E-07 -1 0
vn -1.7881393E-07 -1 0
vn -0 0 1
vn -0 0 1
vn -0 0 1
vn -0 0 1
vn -0 0 1
vn -0 0 1
vn -0 0 1
vn -0 0 1
vn -0 0 1
vn -0 0 1
vn -0 0 1
vn -0 0 1
vn -0 0 1
vn -0 0 1
vn -0 0 1
vn -0 0 1
vn -0 0 1
vn -0 0 1
vn -0 0 1
g Bg_Pond_STR_Control_Roof_0
f 3/3/3 2/2/2 1/1/1
f 4/4/4 1/1/1 2/2/2
f 7/7/7 6/6/6 5/5/5
f 8/8/8 5/5/5 6/6/6
f 11/11/11 10/10/10 9/9/9
f 12/12/12 9/9/9 10/10/10
f 15/15/15 14/14/14 13/13/13
f 16/16/16 13/13/13 14/14/14
f 19/19/19 18/18/18 17/17/17
f 18/18/18 20/20/20 17/17/17
f 21/21/21 20/20/20 18/18/18
f 17/17/17 20/20/20 22/22/22
f 20/20/20 23/23/23 22/22/22
f 24/24/24 17/17/17 22/22/22
f 25/25/25 17/17/17 24/24/24
f 26/26/26 25/25/25 24/24/24
f 27/27/27 26/26/26 24/24/24
f 28/28/28 25/25/25 26/26/26
f 29/29/29 25/25/25 28/28/28
f 30/30/30 29/29/29 28/28/28
f 31/31/31 25/25/25 29/29/29
f 32/32/32 25/25/25 31/31/31
f 33/33/33 31/31/31 29/29/29
f 34/34/34 33/33/33 29/29/29
f 35/35/35 31/31/31 33/33/33
