g Bg_Pond_Decal_Mud_02
v 5.111767 -5.9746637 0.050928533
v 5.196241 -7.414412 -0.097776905
v 3.9432874 -8.515439 -0.2856267
v 2.7749083 -5.9642553 -0.13320306
v 4.2556524 -3.0138533 0.16750905
v 1.666882 -4.1312943 -0.023420542
v 1.4838749 -3.89472 -0.022672461
v 3.2674048 -1.515741 0.1875689
v 1.1346915 0.6549097 0.15226063
v -1.4012414 -1.4358435 -0.028727159
vt 0.8461914 0.74316406
vt 0.9975586 0.6899414
vt 1.0332031 0.5073242
vt 0.7104492 0.5126953
vt 0.5371094 0.81689453
vt 0.4272461 0.5209961
vt 0.39526367 0.52246094
vt 0.3479004 0.83935547
vt 0.02079773 0.83935547
vt -0.0107421875 0.48657227
vn -0.07476807 -0.14294434 0.9868164
vn -0.084106445 -0.16674805 0.9824219
vn -0.084106445 -0.16674805 0.9824219
vn -0.07055664 -0.13208008 0.98876953
vn -0.060821533 -0.08294678 0.9946289
vn -0.060516357 -0.07891846 0.9951172
vn -0.05630493 -0.04559326 0.9975586
vn -0.05569458 -0.043762207 0.9975586
vn -0.053741455 -0.037994385 0.9980469
vn -0.053741455 -0.037994385 0.9980469
g Bg_Pond_Decal_Mud_02_0
f 3/3/3 2/2/2 1/1/1
f 4/4/4 3/3/3 1/1/1
f 1/1/1 5/5/5 4/4/4
f 5/5/5 6/6/6 4/4/4
f 7/7/7 6/6/6 5/5/5
f 8/8/8 7/7/7 5/5/5
f 8/8/8 9/9/9 7/7/7
f 9/9/9 10/10/10 7/7/7
