g Common_OBJ_PondStair_01_Deco
v 0.19558716 -0.1216925 0.10847536
v 0.17558616 0.05121501 0.12847622
v 0.19558811 0.068671085 0.108476445
v 0.17558704 -0.12169739 0.12847579
v -0.22031616 0.11906616 0.1284764
v -0.22031493 -0.12169739 -0.12847579
v -0.22031616 0.11906616 -0.1284764
v -0.22031493 -0.12169739 0.12847579
v 0.10093577 0.08416532 0.12847635
v -0.22031616 0.11906616 0.1284764
v 0.07738919 0.11906616 0.1284764
v 0.12687768 0.05836511 0.12847623
v -0.22031493 -0.12169739 0.12847579
v 0.17558704 -0.12169739 0.12847579
v 0.17558616 0.05121501 0.12847622
v 0.19558778 0.0009428596 -0.08742135
v 0.19558838 0.11903686 0.09812334
v 0.19558838 0.11903685 -0.10095833
v 0.19558716 -0.1216925 0.10847536
v 0.19558811 0.068671085 0.108476445
v 0.1955874 -0.07321098 -0.091049366
v 0.19558716 -0.1216925 -0.08649742
v 0.1158234 -0.12169471 -0.10547057
v 0.19558716 -0.1216925 0.10847536
v 0.19558716 -0.1216925 -0.08649742
v -0.22031493 -0.12169739 0.12847579
v 0.17558704 -0.12169739 0.12847579
v 0.10228896 -0.12169512 -0.10775605
v -0.22031493 -0.12169739 -0.12847579
v 0.09793438 -0.12169739 -0.12847579
v 0.065415144 0.0033155344 -0.1284761
v -0.22031493 -0.12169739 -0.12847579
v 0.09793438 -0.12169739 -0.12847579
v 0.09180683 0.051176824 -0.12847622
v -0.22031616 0.11906616 -0.1284764
v 0.09477943 0.11906616 -0.12847641
v 0.09477943 0.11906616 -0.12847641
v -0.22031616 0.11906616 0.1284764
v -0.22031616 0.11906616 -0.1284764
v 0.14077829 0.119046025 0.09718324
v 0.07738919 0.11906616 0.1284764
v 0.111301735 0.119061366 -0.10489028
v 0.19558838 0.11903686 0.09812334
v 0.19558838 0.11903685 -0.10095833
v 0.19558838 0.11903686 0.09812334
v 0.19558811 0.068671085 0.108476445
v 0.14077829 0.119046025 0.09718324
v 0.07738919 0.11906616 0.1284764
v 0.19558811 0.068671085 0.108476445
v 0.10093577 0.08416532 0.12847635
v 0.14077829 0.119046025 0.09718324
v 0.19558811 0.068671085 0.108476445
v 0.07738919 0.11906616 0.1284764
v 0.12687768 0.05836511 0.12847623
v 0.19558811 0.068671085 0.108476445
v 0.17558616 0.05121501 0.12847622
v 0.10093577 0.08416532 0.12847635
v 0.19558811 0.068671085 0.108476445
v 0.12687768 0.05836511 0.12847623
v 0.19558778 0.0009428596 -0.08742135
v 0.19558838 0.11903685 -0.10095833
v 0.111301735 0.119061366 -0.10489028
v 0.10228896 -0.12169512 -0.10775605
v 0.09180683 0.051176824 -0.12847622
v 0.065415144 0.0033155344 -0.1284761
v 0.10228896 -0.12169512 -0.10775605
v 0.065415144 0.0033155344 -0.1284761
v 0.09793438 -0.12169739 -0.12847579
v 0.1955874 -0.07321098 -0.091049366
v 0.1158234 -0.12169471 -0.10547057
v 0.19558716 -0.1216925 -0.08649742
v 0.19558778 0.0009428596 -0.08742135
v 0.111301735 0.119061366 -0.10489028
v 0.1955874 -0.07321098 -0.091049366
v 0.10228896 -0.12169512 -0.10775605
v 0.111301735 0.119061366 -0.10489028
v 0.09180683 0.051176824 -0.12847622
v 0.09477943 0.11906616 -0.12847641
v 0.1158234 -0.12169471 -0.10547057
v 0.111301735 0.119061366 -0.10489028
v 0.10228896 -0.12169512 -0.10775605
v 0.1955874 -0.07321098 -0.091049366
vt 12 -0.1829834
vt 12.1015625 -0.1661377
vt 12.1171875 -0.1829834
vt 12 -0.1661377
vt 0.59228516 0.78222656
vt 0.65185547 0.7182617
vt 0.59228516 0.7182617
vt 0.65185547 0.78222656
vt 12.125 -0.12298584
vt 12.140625 0.06286621
vt 12.140625 -0.109375
vt 12.109375 -0.13793945
vt 12 0.06286621
vt 12 -0.1661377
vt 12.1015625 -0.1661377
vt 0.625 0.7285156
vt 0.65527344 0.7758789
vt 0.65527344 0.7246094
vt 0.5932617 0.7788086
vt 0.64208984 0.7788086
vt 0.60595703 0.72753906
vt 0.5932617 0.7285156
vt 0.6088867 0.7211914
vt 0.5878906 0.7783203
vt 0.5878906 0.7265625
vt 0.6982422 0.7836914
vt 0.5932617 0.7836914
vt 0.61279297 0.72216797
vt 0.6982422 0.71533203
vt 0.61376953 0.71533203
vt 12.078125 -0.10241699
vt 12 0.06286621
vt 12 -0.12121582
vt 12.1015625 -0.11767578
vt 12.140625 0.06286621
vt 12.140625 -0.119384766
vt 0.6147461 0.71533203
vt 0.6982422 0.7836914
vt 0.6982422 0.71533203
vt 0.60253906 0.7753906
vt 0.6191406 0.7836914
vt 0.61035156 0.7216797
vt 0.5878906 0.7753906
vt 0.5878906 0.72265625
vt 0.3996582 0.62060547
vt 0.4038086 0.67333984
vt 0.45581055 0.61621094
vt 0.5283203 0.6230469
vt 0.4038086 0.67333984
vt 0.5019531 0.65478516
vt 0.45581055 0.61621094
vt 0.4038086 0.67333984
vt 0.5283203 0.6230469
vt 0.47753906 0.6845703
vt 0.4038086 0.67333984
vt 0.4284668 0.6972656
vt 0.5019531 0.65478516
vt 0.4038086 0.67333984
vt 0.47753906 0.6845703
vt 0.45263672 0.578125
vt 0.57421875 0.57177734
vt 0.5698242 0.4855957
vt 0.3256836 0.46972656
vt 0.5024414 0.45043945
vt 0.4506836 0.42919922
vt 0.3256836 0.46972656
vt 0.4506836 0.42919922
vt 0.32421875 0.43237305
vt 0.37670898 0.5800781
vt 0.3239746 0.49926758
vt 0.3269043 0.5830078
vt 0.45263672 0.578125
vt 0.5698242 0.4855957
vt 0.37670898 0.5800781
vt 0.3256836 0.46972656
vt 0.5698242 0.4855957
vt 0.5024414 0.45043945
vt 0.57177734 0.4560547
vt 0.3239746 0.49926758
vt 0.5698242 0.4855957
vt 0.3256836 0.46972656
vt 0.37670898 0.5800781
vn 0.70703125 8.34465E-07 0.70703125
vn 0.70703125 -6.854534E-06 0.70703125
vn 0.70703125 -7.56979E-06 0.70703125
vn 0.70703125 1.847744E-06 0.70703125
vn -1 -5.066395E-06 0
vn -1 -5.066395E-06 0
vn -1 -5.066395E-06 0
vn -1 -5.066395E-06 0
vn -2.9802322E-07 -3.9339066E-06 1
vn -0 -2.5629997E-06 1
vn -0 -1.3709068E-06 1
vn -0 -2.861023E-06 1
vn -0 -2.503395E-06 1
vn -0 -2.503395E-06 1
vn -0 -2.503395E-06 1
vn 1 -5.066395E-06 0
vn 1 -5.066395E-06 1.7881393E-07
vn 1 -5.00679E-06 0
vn 1 -5.066395E-06 0
vn 1 -5.00679E-06 1.4305115E-06
vn 1 -5.1259995E-06 0
vn 1 -5.1259995E-06 0
vn 2.0623207E-05 -1 9.23872E-06
vn 1.0609627E-05 -1 -7.331371E-05
vn 2.759695E-05 -1 0
vn 8.881092E-06 -1 -5.00679E-06
vn -0 -1 -0.00024414062
vn 1.5437603E-05 -1 4.7028065E-05
vn 6.735325E-06 -1 4.4703484E-06
vn -0 -1 0.0001090765
vn -0 -2.3841858E-06 -1
vn -0 -2.503395E-06 -1
vn -0 -2.503395E-06 -1
vn -0 -2.6226044E-06 -1
vn -0 -2.5629997E-06 -1
vn -0 -2.8014183E-06 -1
vn 7.426739E-05 1 4.607439E-05
vn 2.3722649E-05 1 -6.3180923E-06
vn -0 1 0
vn 0.000108361244 1 -1.001358E-05
vn -0 1 -0.0006432533
vn 0.00024294853 1 3.1113625E-05
vn 0.00019788742 1 3.8564205E-05
vn 0.00029087067 1 0
vn -0.01676941 0.20129395 0.9794922
vn -0.01676941 0.20129395 0.9794922
vn -0.01676941 0.20129395 0.9794922
vn 0.22839355 0.15405273 0.9614258
vn 0.22839355 0.15405273 0.9614258
vn 0.22839355 0.15405273 0.9614258
vn 0.36572266 0.56396484 0.7402344
vn 0.36572266 0.56396484 0.7402344
vn 0.36572266 0.56396484 0.7402344
vn 0.10223389 0.69677734 0.70996094
vn 0.10223389 0.69677734 0.70996094
vn 0.10223389 0.69677734 0.70996094
vn 0.23803711 0.23937988 0.94140625
vn 0.23803711 0.23937988 0.94140625
vn 0.23803711 0.23937988 0.94140625
vn 0.04626465 -0.11376953 -0.9921875
vn 0.04626465 -0.11376953 -0.9921875
vn 0.04626465 -0.11376953 -0.9921875
vn 0.19116211 -0.105407715 -0.9760742
vn 0.19116211 -0.105407715 -0.9760742
vn 0.19116211 -0.105407715 -0.9760742
vn 0.9482422 0.2467041 -0.19934082
vn 0.9482422 0.2467041 -0.19934082
vn 0.9482422 0.2467041 -0.19934082
vn 0.23046875 -0.09094238 -0.96875
vn 0.23046875 -0.09094238 -0.96875
vn 0.23046875 -0.09094238 -0.96875
vn 0.265625 0.04711914 -0.9628906
vn 0.265625 0.04711914 -0.9628906
vn 0.265625 0.04711914 -0.9628906
vn 0.8017578 -0.022918701 -0.5966797
vn 0.8017578 -0.022918701 -0.5966797
vn 0.8017578 -0.022918701 -0.5966797
vn 0.8183594 -0.035827637 -0.5732422
vn 0.1665039 0.005504608 -0.98583984
vn 0.1665039 0.005504608 -0.98583984
vn 0.1665039 0.005504608 -0.98583984
vn 0.17456055 0.0056533813 -0.9848633
g Common_OBJ_PondStair_01_Deco_0
f 3/3/3 2/2/2 1/1/1
f 4/4/4 1/1/1 2/2/2
f 7/7/7 6/6/6 5/5/5
f 8/8/8 5/5/5 6/6/6
f 11/11/11 10/10/10 9/9/9
f 10/10/10 12/12/12 9/9/9
f 13/13/13 12/12/12 10/10/10
f 14/14/14 12/12/12 13/13/13
f 15/15/15 12/12/12 14/14/14
f 18/18/18 17/17/17 16/16/16
f 17/17/17 19/19/19 16/16/16
f 20/20/20 19/19/19 17/17/17
f 16/16/16 19/19/19 21/21/21
f 19/19/19 22/22/22 21/21/21
f 25/25/25 24/24/24 23/23/23
f 24/24/24 26/26/26 23/23/23
f 27/27/27 26/26/26 24/24/24
f 23/23/23 26/26/26 28/28/28
f 26/26/26 29/29/29 28/28/28
f 29/29/29 30/30/30 28/28/28
f 33/33/33 32/32/32 31/31/31
f 31/31/31 32/32/32 34/34/34
f 32/32/32 35/35/35 34/34/34
f 35/35/35 36/36/36 34/34/34
f 39/39/39 38/38/38 37/37/37
f 38/38/38 40/40/40 37/37/37
f 41/41/41 40/40/40 38/38/38
f 40/40/40 42/42/42 37/37/37
f 43/43/43 42/42/42 40/40/40
f 44/44/44 42/42/42 43/43/43
g Common_OBJ_PondStair_01_Deco_1
f 47/47/47 46/46/46 45/45/45
f 50/50/50 49/49/49 48/48/48
f 53/53/53 52/52/52 51/51/51
f 56/56/56 55/55/55 54/54/54
f 59/59/59 58/58/58 57/57/57
f 62/62/62 61/61/61 60/60/60
f 65/65/65 64/64/64 63/63/63
f 68/68/68 67/67/67 66/66/66
f 71/71/71 70/70/70 69/69/69
f 74/74/74 73/73/73 72/72/72
f 77/77/77 76/76/76 75/75/75
f 78/78/78 76/76/76 77/77/77
f 81/81/81 80/80/80 79/79/79
f 79/79/79 80/80/80 82/82/82
