g Pond_STR_Bride_handrail
v -10.580524 3.9580712 4.192719
v 9.179475 3.872136 4.2272205
v 9.179475 3.9580696 4.192718
v -10.580524 3.8721373 4.227221
v 9.179475 3.8940082 4.3172016
v -10.580524 3.8940094 4.317202
v 9.179475 3.9799416 4.2826996
v -10.580524 3.979943 4.2827
v 9.179475 3.9580696 4.192718
v -10.580524 3.9580712 4.192719
v 9.179475 3.907746 4.030265
v -10.580524 3.9027627 3.9377983
v -10.580524 3.9077475 4.0302653
v 9.179475 3.9027615 3.9377978
v -10.580524 3.9935691 3.9196553
v 9.179475 3.993568 3.9196544
v -10.580524 3.998554 4.0121226
v 9.179475 3.9985528 4.0121217
v -10.580524 3.9077475 4.0302653
v 9.179475 3.907746 4.030265
v -6.3287706 -3.9640038 4.2930083
v -9.855004 -3.9640038 4.293008
v -9.855004 -3.8718193 4.2842336
v -6.3287706 -3.8718188 4.2842336
v -9.855004 -3.8673358 4.1917415
v -6.3287706 -3.867335 4.1917415
v -9.855004 -3.9595196 4.2005157
v -6.3287706 -3.959519 4.2005157
v -6.3287706 -3.9640038 4.2930083
v -9.855004 -3.9640038 4.293008
v 9.179995 -3.9053874 4.0026793
v 9.179995 -3.9972093 4.014665
v -2.4313543 -3.997207 4.0146637
v -2.4313538 -3.905385 4.002678
v -2.4313538 -3.9041295 3.9100857
v 9.179995 -3.904132 3.910087
v -2.4313543 -3.9959514 3.9220707
v 9.179995 -3.9959538 3.9220724
v 9.179995 -3.9972093 4.014665
v -2.4313543 -3.997207 4.0146637
v 9.179995 -3.964002 4.2930093
v -2.4313543 -3.9640033 4.2930083
v -2.4313543 -3.871818 4.284234
v 9.179995 -3.8718169 4.284234
v 9.179995 -3.8673332 4.1917415
v -2.431355 -3.8673346 4.1917415
v -2.431355 -3.9595184 4.200516
v 9.179995 -3.9595172 4.2005167
v -2.4313543 -3.9640033 4.2930083
v 9.179995 -3.964002 4.2930093
v -5.6173954 -4.047992 4.014663
v -4.9131866 -4.283178 4.014663
v -4.9131866 -4.2819223 3.9220703
v -5.6173954 -4.046737 3.9220703
v -6.3216043 -3.9972064 4.014663
v -4.913186 -4.1901007 3.910085
v -6.3216043 -3.995951 3.9220703
v -9.855003 -3.9972057 4.014663
v -9.855003 -3.9959502 3.92207
v -9.855003 -3.9041283 3.9100847
v -5.617395 -3.954915 3.910085
v -4.913186 -4.191356 4.0026774
v -6.321604 -3.904129 3.910085
v -9.855003 -3.9053838 4.002677
v -5.617395 -3.9561706 4.0026774
v -4.9131866 -4.283178 4.014663
v -5.6173954 -4.047992 4.014663
v -6.321604 -3.9053845 4.0026774
v -6.3216043 -3.9972064 4.014663
v -9.855003 -3.9972057 4.014663
v -2.8687413 -4.108305 4.0146637
v -2.4313538 -3.9972064 4.014664
v -2.4313538 -3.9959514 3.9220707
v -2.8687413 -4.10705 3.9220707
v -3.7369878 -3.9972064 4.0146637
v -2.431353 -3.904129 3.910086
v -3.7369878 -3.9959514 3.9220707
v -2.8687408 -4.015228 3.910086
v -2.431353 -3.905385 4.002678
v -3.7369878 -3.904129 3.9100857
v -2.8687408 -4.016484 4.002678
v -2.4313538 -3.9972064 4.014664
v -3.7369878 -3.905385 4.002678
v -2.8687413 -4.108305 4.0146637
v -3.7369878 -3.9972064 4.0146637
v -3.7369878 -3.905385 4.002678
v -3.7369878 -3.9972064 4.0146637
v -3.7369878 -3.9959514 3.9220707
v -3.7369878 -3.904129 3.9100857
v -5.7831316 -4.0989823 4.2930083
v -6.328769 -3.9444647 4.2930083
v -6.328769 -3.8522797 4.284234
v -5.7831316 -4.0067973 4.284234
v -6.32877 -3.847796 4.1917415
v -5.783132 -4.0023136 4.1917415
v -6.32877 -3.9399798 4.200516
v -5.783132 -4.0944977 4.200516
v -6.328769 -3.9444647 4.2930083
v -5.7831316 -4.0989823 4.2930083
v -5.7831316 -4.0067973 4.284234
v -5.783132 -4.0023136 4.1917415
v -5.783132 -4.0944977 4.200516
v -5.7831316 -4.0989823 4.2930083
v -4.913186 -4.191356 4.0026774
v -4.913186 -4.1901007 3.910085
v -4.9131866 -4.2819223 3.9220703
v -4.9131866 -4.283178 4.014663
vt -0.5756836 0.26123047
vt 1.5751953 0.27148438
vt 1.5751953 0.26123047
vt -0.5756836 0.27148438
vt 1.5751953 0.28149414
vt -0.5756836 0.28149414
vt 1.5751953 0.2915039
vt -0.5756836 0.2915039
vt 1.5751953 0.3017578
vt -0.5756836 0.3017578
vt 1.5751953 0.031082153
vt -0.5756836 0.021011353
vt -0.5756836 0.031082153
vt 1.5751953 0.021011353
vt -0.5756836 0.010925293
vt 1.5751953 0.010925293
vt -0.5756836 0.0008406639
vt 1.5751953 0.0008406639
vt -0.5756836 -0.009239197
vt 1.5751953 -0.009239197
vt 1.1767578 0.42114258
vt 1.5751953 0.42114258
vt 1.5751953 0.41064453
vt 1.1767578 0.41064453
vt 1.5751953 0.40014648
vt 1.1767578 0.40014648
vt 1.5751953 0.38964844
vt 1.1767578 0.38964844
vt 1.1767578 0.3791504
vt 1.5751953 0.3791504
vt -0.5756836 0.19873047
vt -0.5756836 0.20922852
vt 0.7368164 0.20922852
vt 0.7368164 0.19873047
vt 0.7368164 0.18823242
vt -0.5756836 0.18823242
vt 0.7368164 0.17785645
vt -0.5756836 0.17785645
vt -0.5756836 0.1673584
vt 0.7368164 0.1673584
vt -0.5756836 0.42114258
vt 0.7368164 0.42114258
vt 0.7368164 0.41064453
vt -0.5756836 0.41064453
vt -0.5756836 0.40014648
vt 0.7368164 0.40014648
vt 0.7368164 0.38964844
vt -0.5756836 0.38964844
vt 0.7368164 0.3791504
vt -0.5756836 0.3791504
vt 1.0966797 0.1673584
vt 1.0175781 0.1673584
vt 1.0175781 0.17785645
vt 1.0966797 0.17785645
vt 1.1767578 0.1673584
vt 1.0175781 0.18823242
vt 1.1767578 0.17785645
vt 1.5751953 0.1673584
vt 1.5751953 0.17785645
vt 1.5751953 0.18823242
vt 1.0966797 0.18823242
vt 1.0175781 0.19873047
vt 1.1767578 0.18823242
vt 1.5751953 0.19873047
vt 1.0966797 0.19873047
vt 1.0175781 0.20922852
vt 1.0966797 0.20922852
vt 1.1767578 0.19873047
vt 1.1767578 0.20922852
vt 1.5751953 0.20922852
vt 0.7861328 0.1673584
vt 0.7368164 0.1673584
vt 0.7368164 0.17785645
vt 0.7861328 0.17785645
vt 0.88427734 0.1673584
vt 0.7368164 0.18823242
vt 0.88427734 0.17785645
vt 0.7861328 0.18823242
vt 0.7368164 0.19873047
vt 0.88427734 0.18823242
vt 0.7861328 0.19873047
vt 0.7368164 0.20922852
vt 0.88427734 0.19873047
vt 0.7861328 0.20922852
vt 0.88427734 0.20922852
vt 0.4194336 0.5229492
vt 0.47192383 0.52978516
vt 0.4711914 0.47705078
vt 0.41870117 0.47021484
vt 1.1152344 0.42114258
vt 1.1767578 0.42114258
vt 1.1767578 0.41064453
vt 1.1152344 0.41064453
vt 1.1767578 0.40014648
vt 1.1152344 0.40014648
vt 1.1767578 0.38964844
vt 1.1152344 0.38964844
vt 1.1767578 0.3791504
vt 1.1152344 0.3791504
vt 0.5185547 0.5390625
vt 0.52246094 0.45263672
vt 0.43652344 0.4609375
vt 0.4321289 0.5473633
vt 1.0175781 0.19873047
vt 1.0175781 0.18823242
vt 1.0175781 0.17785645
vt 1.0175781 0.20922852
vn -0 0.45751953 -0.88916016
vn -0 -0.88916016 -0.45751953
vn -0 0.45751953 -0.88916016
vn -0 -0.88916016 -0.45751953
vn -0 -0.45751953 0.88916016
vn -0 -0.45751953 0.88916016
vn -0 0.88916016 0.45751953
vn -0 0.88916016 0.45751953
vn -0 0.45751953 -0.88916016
vn -0 0.45751953 -0.88916016
vn -0 -0.61279297 0.79003906
vn -0 -0.79003906 -0.61279297
vn -0 -0.61279297 0.79003906
vn -0 -0.79003906 -0.61279297
vn -0 0.61279297 -0.79003906
vn -0 0.61279297 -0.79003906
vn -0 0.79003906 0.61279297
vn -0 0.79003906 0.61279297
vn -0 -0.61279297 0.79003906
vn -0 -0.61279297 0.79003906
vn -0 -0.6904297 0.72314453
vn -0 -0.6904297 0.72314453
vn -1.7881393E-07 0.72314453 0.6904297
vn -1.7881393E-07 0.72314453 0.6904297
vn -1.1920929E-07 0.6904297 -0.72314453
vn -1.1920929E-07 0.6904297 -0.72314453
vn -0 -0.72314453 -0.6904297
vn -0 -0.72314453 -0.6904297
vn -0 -0.6904297 0.72314453
vn -0 -0.6904297 0.72314453
vn -0 0.7470703 0.66503906
vn -2.3841858E-07 -0.66503906 0.7470703
vn -2.3841858E-07 -0.66503906 0.7470703
vn -0 0.7470703 0.66503906
vn 2.3841858E-07 0.66503906 -0.7470703
vn 2.3841858E-07 0.66503906 -0.7470703
vn -0 -0.7470703 -0.66503906
vn -0 -0.7470703 -0.66503906
vn -2.3841858E-07 -0.66503906 0.7470703
vn -2.3841858E-07 -0.66503906 0.7470703
vn -0 -0.6904297 0.72314453
vn -0 -0.6904297 0.72314453
vn -1.1920929E-07 0.72314453 0.6904297
vn -1.1920929E-07 0.72314453 0.6904297
vn -0 0.6904297 -0.72314453
vn -0 0.6904297 -0.72314453
vn -0 -0.72314453 -0.6904297
vn -0 -0.72314453 -0.6904297
vn -0 -0.6904297 0.72314453
vn -0 -0.6904297 0.72314453
vn -0.121154785 -0.6152344 0.7788086
vn -0.23852539 -0.71435547 0.65771484
vn -0.25683594 -0.76904297 -0.5854492
vn -0.1430664 -0.7089844 -0.6904297
vn -0.023498535 -0.6542969 0.7558594
vn 0.18359375 0.5498047 -0.8149414
vn -0.02670288 -0.7397461 -0.6723633
vn -1.7881393E-07 -0.66503906 0.7470703
vn -0 -0.7470703 -0.66503906
vn 1.7881393E-07 0.66503906 -0.7470703
vn 0.1373291 0.68115234 -0.71875
vn 0.21984863 0.6582031 0.72021484
vn 0.024337769 0.6738281 -0.73828125
vn -0 0.7470703 0.66503906
vn 0.1496582 0.75439453 0.63916016
vn -0.23852539 -0.71435547 0.65771484
vn -0.121154785 -0.6152344 0.7788086
vn 0.027053833 0.7529297 0.65722656
vn -0.023498535 -0.6542969 0.7558594
vn -1.7881393E-07 -0.66503906 0.7470703
vn 0.0435791 -0.7084961 0.70458984
vn 0.14746094 -0.5805664 0.80078125
vn 0.17346191 -0.68310547 -0.70947266
vn 0.046783447 -0.7763672 -0.62841797
vn -0.080078125 -0.62597656 0.7758789
vn -0.18041992 0.70996094 -0.68066406
vn -0.091918945 -0.71875 -0.6894531
vn -0.036071777 0.6069336 -0.7939453
vn -0.19592285 0.7709961 0.60595703
vn 0.08874512 0.69384766 -0.71484375
vn -0.04373169 0.70703125 0.7060547
vn 0.14746094 -0.5805664 0.80078125
vn 0.09790039 0.7651367 0.63671875
vn 0.0435791 -0.7084961 0.70458984
vn -0.080078125 -0.62597656 0.7758789
vn -1 0 0
vn -1 0 0
vn -1 0 0
vn -1 0 0
vn -0.20739746 -0.7324219 0.6484375
vn -0.16955566 -0.5986328 0.78271484
vn 0.2130127 0.7524414 0.62353516
vn 0.18334961 0.64746094 0.7397461
vn 0.20739746 0.7324219 -0.6484375
vn 0.16955566 0.5986328 -0.78271484
vn -0.18334961 -0.64746094 -0.7397461
vn -0.2130127 -0.7524414 -0.62353516
vn -0.16955566 -0.5986328 0.78271484
vn -0.20739746 -0.7324219 0.6484375
vn 1 -2.9802322E-07 -3.33786E-06
vn 1 -2.9802322E-07 -3.33786E-06
vn 1 -2.9802322E-07 -3.33786E-06
vn 1 -2.9802322E-07 -3.33786E-06
vn 1 -6.67572E-06 0
vn 1 -6.67572E-06 0
vn 1 -6.67572E-06 0
vn 1 -6.67572E-06 0
g Pond_STR_Bride_handrail_0
f 3/3/3 2/2/2 1/1/1
f 2/2/2 4/4/4 1/1/1
f 4/4/4 2/2/2 5/5/5
f 6/6/6 4/4/4 5/5/5
f 6/6/6 5/5/5 7/7/7
f 8/8/8 6/6/6 7/7/7
f 7/7/7 9/9/9 8/8/8
f 9/9/9 10/10/10 8/8/8
f 13/13/13 12/12/12 11/11/11
f 12/12/12 14/14/14 11/11/11
f 14/14/14 12/12/12 15/15/15
f 16/16/16 14/14/14 15/15/15
f 16/16/16 15/15/15 17/17/17
f 18/18/18 16/16/16 17/17/17
f 17/17/17 19/19/19 18/18/18
f 19/19/19 20/20/20 18/18/18
f 23/23/23 22/22/22 21/21/21
f 24/24/24 23/23/23 21/21/21
f 23/23/23 24/24/24 25/25/25
f 24/24/24 26/26/26 25/25/25
f 27/27/27 25/25/25 26/26/26
f 28/28/28 27/27/27 26/26/26
f 28/28/28 29/29/29 27/27/27
f 29/29/29 30/30/30 27/27/27
f 33/33/33 32/32/32 31/31/31
f 34/34/34 33/33/33 31/31/31
f 35/35/35 34/34/34 31/31/31
f 36/36/36 35/35/35 31/31/31
f 37/37/37 35/35/35 36/36/36
f 38/38/38 37/37/37 36/36/36
f 37/37/37 38/38/38 39/39/39
f 40/40/40 37/37/37 39/39/39
f 43/43/43 42/42/42 41/41/41
f 44/44/44 43/43/43 41/41/41
f 43/43/43 44/44/44 45/45/45
f 46/46/46 43/43/43 45/45/45
f 47/47/47 46/46/46 45/45/45
f 48/48/48 47/47/47 45/45/45
f 49/49/49 47/47/47 48/48/48
f 50/50/50 49/49/49 48/48/48
f 53/53/53 52/52/52 51/51/51
f 54/54/54 53/53/53 51/51/51
f 54/54/54 51/51/51 55/55/55
f 53/53/53 54/54/54 56/56/56
f 57/57/57 54/54/54 55/55/55
f 57/57/57 55/55/55 58/58/58
f 59/59/59 57/57/57 58/58/58
f 57/57/57 59/59/59 60/60/60
f 54/54/54 61/61/61 56/56/56
f 54/54/54 57/57/57 61/61/61
f 56/56/56 61/61/61 62/62/62
f 63/63/63 57/57/57 60/60/60
f 57/57/57 63/63/63 61/61/61
f 63/63/63 60/60/60 64/64/64
f 61/61/61 65/65/65 62/62/62
f 61/61/61 63/63/63 65/65/65
f 66/66/66 62/62/62 65/65/65
f 67/67/67 66/66/66 65/65/65
f 63/63/63 68/68/68 65/65/65
f 67/67/67 65/65/65 68/68/68
f 68/68/68 63/63/63 64/64/64
f 69/69/69 67/67/67 68/68/68
f 69/69/69 68/68/68 64/64/64
f 70/70/70 69/69/69 64/64/64
f 73/73/73 72/72/72 71/71/71
f 74/74/74 73/73/73 71/71/71
f 74/74/74 71/71/71 75/75/75
f 73/73/73 74/74/74 76/76/76
f 77/77/77 74/74/74 75/75/75
f 74/74/74 78/78/78 76/76/76
f 74/74/74 77/77/77 78/78/78
f 76/76/76 78/78/78 79/79/79
f 77/77/77 80/80/80 78/78/78
f 78/78/78 81/81/81 79/79/79
f 78/78/78 80/80/80 81/81/81
f 82/82/82 79/79/79 81/81/81
f 80/80/80 83/83/83 81/81/81
f 84/84/84 82/82/82 81/81/81
f 84/84/84 81/81/81 83/83/83
f 85/85/85 84/84/84 83/83/83
f 88/88/88 87/87/87 86/86/86
f 89/89/89 88/88/88 86/86/86
f 92/92/92 91/91/91 90/90/90
f 93/93/93 92/92/92 90/90/90
f 92/92/92 93/93/93 94/94/94
f 93/93/93 95/95/95 94/94/94
f 96/96/96 94/94/94 95/95/95
f 97/97/97 96/96/96 95/95/95
f 98/98/98 96/96/96 97/97/97
f 99/99/99 98/98/98 97/97/97
f 102/102/102 101/101/101 100/100/100
f 103/103/103 102/102/102 100/100/100
f 106/106/106 105/105/105 104/104/104
f 107/107/107 106/106/106 104/104/104
