g Pond_STR_Stair_03_RegionBorder_01
v -3.2584136E-08 -0.19999999 -1.0766301E-14
v 1.9744024E-37 1.2118796E-30 -2.2559732E-17
v 3.3999996 -5.539303E-07 1.8262101E-13
v 3.3999996 -0.20000055 1.7187727E-13
v -3.2584136E-08 -0.19999999 -1.0766301E-14
v -3.2584136E-08 -0.19999999 -0.009999999
v 8.751887E-23 5.37187E-16 -0.009999999
v 1.9744024E-37 1.2118796E-30 -2.2559732E-17
v 3.3999996 -5.539303E-07 1.8262101E-13
v 3.3999996 -5.539303E-07 -0.009999999
v 3.3999996 -0.20000055 -0.009999999
v 3.3999996 -0.20000055 1.7187727E-13
vt -216.125 45.9375
vt -216.125 46
vt -215.25 46
vt -215.25 45.9375
vt -216.125 45.9375
vt -216.125 45.9375
vt -216.125 46
vt -216.125 46
vt -215.25 46
vt -215.25 46
vt -215.25 45.9375
vt -215.25 45.9375
vn -0 0 1
vn -0 0 1
vn -0 0 1
vn -0 0 1
vn -1 0 0
vn -1 0 0
vn -1 0 0
vn -1 0 0
vn 1 0 0
vn 1 0 0
vn 1 0 0
vn 1 0 0
g Pond_STR_Stair_03_RegionBorder_01_0
f 3/3/3 2/2/2 1/1/1
f 4/4/4 3/3/3 1/1/1
f 7/7/7 6/6/6 5/5/5
f 8/8/8 7/7/7 5/5/5
f 11/11/11 10/10/10 9/9/9
f 12/12/12 11/11/11 9/9/9
