g Pond_STR_Bridge_02_Floor
v -7.799999 1.7960968 3.150003
v -9.499999 2.2 3.150003
v -7.799999 2.2 3.150003
v -9.499999 1.7960968 3.150003
v -7.799999 1.6960968 3.150003
v -9.499999 1.6960974 3.150003
v 7.7999997 1.7960968 3.150003
v 9.5 1.6960974 3.150003
v 7.7999997 1.6960968 3.150003
v 9.5 1.7960968 3.150003
v 7.7999997 2.2 3.150003
v 9.5 2.2 3.150003
v -2.7999992 1.7960968 3.150003
v -4.0725994 2.2 3.150003
v -2.7999992 2.2 3.150003
v -5.6092057 2.2 3.150003
v -7.6999993 2.2 3.150003
v -7.6999993 1.7960968 3.150003
v -2.6999996 1.6960968 3.150003
v -7.799999 1.6960968 3.150003
v -2.6999996 1.6960968 3.150003
v -2.7999992 1.7960968 3.150003
v -2.6999996 1.7960968 3.150003
v -2.6999996 2.2 3.150003
v -2.7999992 2.2 3.150003
v 2.7077332 1.7960968 3.150003
v -2.6999996 2.2 3.150003
v 2.7077332 2.2 3.150003
v -2.6999996 1.7960968 3.150003
v 2.7077332 1.6960968 3.150003
v -2.6999996 1.6960968 3.150003
v 2.8 1.7960968 3.150003
v 7.7999997 1.6960968 3.150003
v 2.7077332 1.6960968 3.150003
v 7.7 1.7960968 3.150003
v 2.8 2.2 3.150003
v 7.7 2.2 3.150003
v 7.7999997 1.6960968 3.150003
v 7.7 1.7960968 3.150003
v 7.7999997 1.7960968 3.150003
v 7.7999997 2.2 3.150003
v 7.7 2.2 3.150003
v -7.6999993 1.7960968 3.150003
v -7.799999 2.2 3.150003
v -7.6999993 2.2 3.150003
v -7.799999 1.7960968 3.150003
v -7.799999 1.6960968 3.150003
v 2.8 1.7960968 3.150003
v 2.7077332 1.6960968 3.150003
v 2.7077332 1.7960968 3.150003
v 2.7077332 2.2 3.150003
v 2.8 2.2 3.150003
v -1.9013464 -3.8 3.150003
v -2.0013463 -3.3 3.150003
v -1.9013464 -3.3999999 3.150003
v -2.0013463 -3.8 3.150003
v 9.5 -3.8 3.150003
v 2.1077325 -3.3 3.150003
v 9.5 -3.3 3.150003
v 2.1077325 -3.8 3.150003
v -2.0013463 -3.8 3.150003
v -9.499999 -3.3 3.150003
v -2.0013463 -3.3 3.150003
v -9.499999 -3.8 3.150003
v -1.9013464 -3.3999999 3.150003
v 2.0077324 -3.8 3.150003
v -1.9013464 -3.8 3.150003
v 2.0077324 -3.3999999 3.150003
v 2.1077325 -3.3 3.150003
v -2.0013463 -3.3 3.150003
v 2.1077325 -3.8 3.150003
v 2.0077324 -3.3999999 3.150003
v 2.1077325 -3.3 3.150003
v 2.0077324 -3.8 3.150003
v -5.6081696 2.2 3.350003
v -9.499999 2.3999999 3.350003
v -5.6086454 2.3999999 3.350003
v -9.499999 2.2 3.350003
v -5.6081696 2.2 3.350003
v -9.499999 2.2 3.150003
v -9.499999 2.2 3.350003
v -7.799999 2.2 3.150003
v -7.6999993 2.2 3.150003
v -5.6092057 2.2 3.150003
v 9.5 2.2 3.350003
v -4.0725994 2.2 3.150003
v -4.0726056 2.2 3.350003
v -2.7999992 2.2 3.150003
v -2.6999996 2.2 3.150003
v 2.7077332 2.2 3.150003
v 2.8 2.2 3.150003
v 7.7 2.2 3.150003
v 7.7999997 2.2 3.150003
v 9.5 2.2 3.150003
v -4.0711145 2.3999999 3.350003
v 9.5 2.2 3.350003
v -4.0726056 2.2 3.350003
v 9.5 2.3999999 3.350003
v -4.1524644 2.1730926 3.3569536
v -4.076658 2.3925977 3.3512042
v -4.0735507 2.2149487 3.351635
v -4.7119455 2.3808763 3.392852
v -4.7597885 2.1602776 3.396773
v -4.091931 2.3919396 3.151706
v -4.840377 2.3784044 3.3123028
v -4.8487754 2.3726087 3.201341
v -4.7119455 2.3808763 3.392852
v -4.076658 2.3925977 3.3512042
v -4.7597885 2.1602776 3.396773
v -4.845013 2.158549 3.2018597
v -4.832262 2.159099 3.3685052
v -4.0880823 2.1724298 3.1522381
v -4.1524644 2.1730926 3.3569536
v -4.0763392 2.1729333 3.305634
v -5.600054 2.3892627 3.3759308
v -4.9359694 2.19419 3.3671367
v -5.6071777 2.1896203 3.3772795
v -4.897528 2.2258434 3.3662114
v -4.8975 2.3504796 3.3654547
v -5.2334876 2.3919764 3.3703253
v -4.9359694 2.19419 3.3671367
v -5.613651 2.190974 3.1393511
v -5.6071777 2.1896203 3.3772795
v -4.854403 2.1933556 3.1275456
v -4.850035 2.1943614 3.2770183
v -4.911565 2.3927405 3.1274223
v -5.600054 2.3892627 3.3759308
v -5.6066318 2.387633 3.138023
v -5.2334876 2.3919764 3.3703253
v -4.8727856 2.3942664 3.32508
v -4.842887 2.394024 3.2765656
v -9.499999 3.8 3.350003
v -5.6086454 2.3999999 3.350003
v -9.499999 2.3999999 3.350003
v -4.0711145 2.3999999 3.350003
v 9.5 2.3999999 3.350003
v -6.952918 3.8 3.350003
v -4.3968177 3.8 3.350003
v 9.5 3.8 3.350003
v -9.499999 1.6960974 3.150003
v -2.0013463 -3.3 3.150003
v -9.499999 -3.3 3.150003
v -7.799999 1.6960968 3.150003
v -2.6999996 1.6960968 3.150003
v 2.7077332 1.6960968 3.150003
v 2.1077325 -3.3 3.150003
v 9.5 -3.3 3.150003
v 7.7999997 1.6960968 3.150003
v 9.5 1.6960974 3.150003
v -4.7119455 2.3808763 3.392852
v -4.83338 2.2739313 3.3800507
v -4.840377 2.3784044 3.3123028
v -4.1524644 2.1730926 3.3569536
v -4.0735507 2.2149487 3.351635
v -4.0763392 2.1729333 3.305634
v -4.911565 2.3927405 3.1274223
v -4.8495836 2.328319 3.126634
v -4.842887 2.394024 3.2765656
v -4.9359694 2.19419 3.3671367
v -4.897528 2.2258434 3.3662114
v -4.850035 2.1943614 3.2770183
v -4.8975 2.3504796 3.3654547
v -5.2334876 2.3919764 3.3703253
v -4.8727856 2.3942664 3.32508
v -5.6086454 2.3999999 3.1560771
v -4.0711145 2.3999999 3.350003
v -4.0711145 2.3999999 3.1560771
v -5.6086454 2.3999999 3.350003
v -4.0725994 2.2 3.150003
v -5.6086454 2.3999999 3.1560771
v -4.0711145 2.3999999 3.1560771
v -5.6092057 2.2 3.150003
v -5.6086454 2.3999999 3.1560771
v -5.6081696 2.2 3.350003
v -5.6086454 2.3999999 3.350003
v -5.6092057 2.2 3.150003
v -4.0711145 2.3999999 3.1560771
v -4.0726056 2.2 3.350003
v -4.0725994 2.2 3.150003
v -4.0711145 2.3999999 3.350003
v -4.83338 2.2739313 3.3800507
v -4.7597885 2.1602776 3.396773
v -4.832262 2.159099 3.3685052
v -4.7119455 2.3808763 3.392852
v -4.832262 2.159099 3.3685052
v -4.840377 2.3784044 3.3123028
v -4.83338 2.2739313 3.3800507
v -4.8487754 2.3726087 3.201341
v -4.845013 2.158549 3.2018597
v -4.0880823 2.1724298 3.1522381
v -4.076658 2.3925977 3.3512042
v -4.091931 2.3919396 3.151706
v -4.0735507 2.2149487 3.351635
v -4.0763392 2.1729333 3.305634
v -5.6066318 2.387633 3.138023
v -5.6071777 2.1896203 3.3772795
v -5.613651 2.190974 3.1393511
v -5.600054 2.3892627 3.3759308
v -4.842887 2.394024 3.2765656
v -4.8975 2.3504796 3.3654547
v -4.8727856 2.3942664 3.32508
v -4.897528 2.2258434 3.3662114
v -4.850035 2.1943614 3.2770183
v -4.8495836 2.328319 3.126634
v -4.850035 2.1943614 3.2770183
v -4.842887 2.394024 3.2765656
v -4.854403 2.1933556 3.1275456
vt 10.890625 -5.4335938
vt 11.4765625 -5.5664062
vt 10.890625 -5.5664062
vt 11.4765625 -5.4335938
vt 10.890625 -5.3984375
vt 11.4765625 -5.3984375
vt 5.484375 -5.4335938
vt 4.8984375 -5.3984375
vt 5.484375 -5.3984375
vt 4.8984375 -5.4335938
vt 5.484375 -5.5664062
vt 4.8984375 -5.5664062
vt 9.078125 -5.2265625
vt 9.515625 -5.359375
vt 9.078125 -5.359375
vt 10.046875 -5.359375
vt 10.7734375 -5.359375
vt 10.7734375 -5.2265625
vt 9.0390625 -5.1914062
vt 10.8046875 -5.1914062
vt 9.3359375 -5.5664062
vt 9.296875 -5.6015625
vt 9.296875 -5.5664062
vt 9.15625 -5.5664062
vt 9.15625 -5.6015625
vt 7.25 -5.4335938
vt 9.125 -5.5664062
vt 7.25 -5.5664062
vt 9.125 -5.4335938
vt 7.25 -5.3984375
vt 9.125 -5.3984375
vt 7.1367188 -5.2265625
vt 5.4023438 -5.1914062
vt 7.1679688 -5.1914062
vt 5.4375 -5.2265625
vt 7.1367188 -5.359375
vt 5.4375 -5.359375
vt 9.2421875 -2.1894531
vt 9.203125 -2.2226562
vt 9.203125 -2.1894531
vt 9.0625 -2.1894531
vt 9.0625 -2.2226562
vt 9.390625 -7.3554688
vt 9.25 -7.390625
vt 9.25 -7.3554688
vt 9.390625 -7.390625
vt 9.421875 -7.390625
vt 9.2109375 -3.3632812
vt 9.25 -3.3925781
vt 9.2109375 -3.3925781
vt 9.0703125 -3.3925781
vt 9.0703125 -3.3632812
vt 16.25 -2.3945312
vt 16.421875 -2.3613281
vt 16.390625 -2.3945312
vt 16.25 -2.3613281
vt 20.09375 -2.5664062
vt 17.59375 -2.3984375
vt 20.09375 -2.3984375
vt 17.59375 -2.5664062
vt 16.203125 -2.5664062
vt 13.671875 -2.3984375
vt 16.203125 -2.3984375
vt 13.671875 -2.5664062
vt 16.265625 -2.2226562
vt 17.59375 -2.3574219
vt 16.265625 -2.3574219
vt 17.59375 -2.2226562
vt 17.625 -2.1894531
vt 16.234375 -2.1894531
vt 17.578125 -2.390625
vt 17.703125 -2.3574219
vt 17.75 -2.390625
vt 17.578125 -2.3574219
vt 4.8046875 11.0859375
vt 3.8242188 11.1328125
vt 4.8046875 11.1328125
vt 3.8242188 11.0859375
vt 4.8046875 11.0859375
vt 3.8242188 11.03125
vt 3.8242188 11.0859375
vt 4.2539062 11.03125
vt 4.2773438 11.03125
vt 4.8046875 11.03125
vt 8.6171875 11.0859375
vt 5.1953125 11.03125
vt 5.1953125 11.0859375
vt 5.515625 11.03125
vt 5.5390625 11.03125
vt 6.90625 11.03125
vt 6.9296875 11.03125
vt 8.1640625 11.03125
vt 8.1953125 11.03125
vt 8.6171875 11.03125
vt 5.1953125 11.1328125
vt 8.6171875 11.0859375
vt 5.1953125 11.0859375
vt 8.6171875 11.1328125
vt 16.59375 -0.85839844
vt 16.609375 -0.91552734
vt 16.609375 -0.8691406
vt 16.4375 -0.91552734
vt 16.421875 -0.85839844
vt 16.609375 -0.91552734
vt 16.40625 -0.9472656
vt 16.40625 -0.91552734
vt 16.4375 -0.97216797
vt 16.609375 -0.97216797
vt 16.421875 -0.91552734
vt 16.40625 -0.97216797
vt 16.40625 -0.9248047
vt 16.609375 -0.97216797
vt 16.59375 -0.91552734
vt 16.609375 -0.92871094
vt 16.1875 -0.91552734
vt 16.375 -0.85839844
vt 16.1875 -0.85839844
vt 16.390625 -0.8671875
vt 16.390625 -0.90283203
vt 16.296875 -0.91552734
vt 16.375 -0.91552734
vt 16.1875 -0.97216797
vt 16.1875 -0.91552734
vt 16.40625 -0.97216797
vt 16.40625 -0.94091797
vt 16.390625 -0.91552734
vt 16.1875 -0.97216797
vt 16.1875 -0.91552734
vt 16.296875 -0.97216797
vt 16.390625 -0.9609375
vt 16.40625 -0.9472656
vt 9.8359375 16.109375
vt 10.484375 15.8828125
vt 9.8359375 15.8828125
vt 10.734375 15.8828125
vt 13 15.8828125
vt 10.2578125 16.109375
vt 10.6875 16.109375
vt 13 16.109375
vt -0.33740234 1.265625
vt 0.9121094 0.4333496
vt -0.33740234 0.4333496
vt -0.0541687 1.265625
vt 0.79589844 1.265625
vt 1.6972656 1.265625
vt 1.5966797 0.4333496
vt 2.8300781 0.4333496
vt 2.5449219 1.265625
vt 2.8300781 1.265625
vt 0.5498047 0.31860352
vt 0.49658203 0.3684082
vt 0.54345703 0.38916016
vt 0.47827148 0.47192383
vt 0.52197266 0.47192383
vt 0.50439453 0.43237305
vt 0.44067383 0.51708984
vt 0.47973633 0.51708984
vt 0.45629883 0.4621582
vt 0.5595703 0.41381836
vt 0.5390625 0.42163086
vt 0.55029297 0.4699707
vt 0.35546875 0.121154785
vt 0.671875 0.07232666
vt 0.328125 0.060028076
vt 0.22143555 0.10449219
vt 0.7792969 0.17480469
vt 0.7792969 0.10449219
vt 0.22143555 0.17480469
vt 0.7788086 0.03189087
vt 0.22143555 0.10449219
vt 0.7792969 0.10449219
vt 0.2211914 0.03189087
vt 0.22143555 0.10449219
vt 0.14892578 0.17480469
vt 0.22143555 0.17480469
vt 0.14892578 0.10229492
vt 0.7792969 0.10449219
vt 0.8510742 0.033569336
vt 0.7788086 0.03189087
vt 0.8496094 0.1060791
vt 0.49658203 0.3684082
vt 0.45947266 0.32080078
vt 0.45141602 0.36010742
vt 0.5498047 0.31860352
vt 0.47314453 0.36791992
vt 0.5473633 0.38867188
vt 0.51220703 0.3635254
vt 0.54541016 0.42993164
vt 0.47314453 0.42993164
vt 0.4753418 0.3371582
vt 0.5410156 0.40307617
vt 0.5410156 0.3371582
vt 0.48779297 0.40307617
vt 0.4753418 0.38793945
vt 0.5341797 0.47827148
vt 0.47705078 0.42089844
vt 0.4777832 0.47802734
vt 0.5341797 0.42089844
vt 0.45629883 0.4621582
vt 0.48095703 0.41748047
vt 0.45874023 0.43676758
vt 0.5390625 0.42163086
vt 0.55029297 0.4699707
vt 0.47973633 0.51708984
vt 0.5488281 0.47436523
vt 0.45629883 0.4621582
vt 0.5419922 0.5253906
vn -0 0 1
vn -0 0 1
vn -0 0 1
vn -0 0 1
vn -0 0 1
vn -0 0 1
vn -0 0 1
vn -0 0 1
vn -0 0 1
vn -0 0 1
vn -0 0 1
vn -0 0 1
vn -0 0 1
vn -0 -0.010154724 1
vn -0 0 1
vn -0 -0.010108948 1
vn -0 0 1
vn -0 0 1
vn -0 0 1
vn -0 0 1
vn -0 0 1
vn -0 0 1
vn -0 0 1
vn -0 0 1
vn -0 0 1
vn -0 0 1
vn -0 0 1
vn -0 0 1
vn -0 0 1
vn -0 0 1
vn -0 0 1
vn -0 0 1
vn -0 0 1
vn -0 0 1
vn -0 0 1
vn -0 0 1
vn -0 0 1
vn -0 0 1
vn -0 0 1
vn -0 0 1
vn -0 0 1
vn -0 0 1
vn -0 0 1
vn -0 0 1
vn -0 0 1
vn -0 0 1
vn -0 0 1
vn -0 0 1
vn -0 0 1
vn -0 0 1
vn -0 0 1
vn -0 0 1
vn -0 0 1
vn -0 0 1
vn -0 0 1
vn -0 0 1
vn -0 0 1
vn -0 0 1
vn -0 0 1
vn -0 0 1
vn -0 0 1
vn -0 0 1
vn -0 0 1
vn -0 0 1
vn -0 0 1
vn -0 0 1
vn -0 0 1
vn -0 0 1
vn -0 0 1
vn -0 0 1
vn -0 0 1
vn -0 0 1
vn -0 0 1
vn -0 0 1
vn -0 0 1
vn -0 0 1
vn -0 0 1
vn -0 0 1
vn -0 -1 0
vn -0 -1 0
vn -0 -1 0
vn -0 -1 0
vn -0 -1 0
vn -0 -1 0
vn -0 -1 0
vn -0 -1 0
vn -0 -1 0
vn -0 -1 0
vn -0 -1 0
vn -0 -1 0
vn -0 -1 0
vn -0 -1 0
vn -0 -1 0
vn -0 -1 0
vn -0 0 1
vn -0 0 1
vn -0 0 1
vn -0 0 1
vn 0.06536865 0.003566742 0.9980469
vn 0.06536865 0.003566742 0.9980469
vn 0.06536865 0.0035629272 0.9980469
vn 0.009437561 0.015731812 1
vn -0.12768555 -0.017349243 0.9916992
vn -0.019500732 1 -0.0062675476
vn -0.025146484 0.99902344 -0.032989502
vn -0.028778076 0.99853516 -0.049957275
vn -0.0184021 1 -0.0014410019
vn -0.018569946 1 -0.0018758774
vn 0.0178833 -1 0.00217247
vn 0.017745972 -1 0.0011043549
vn 0.015434265 -1 0.0021190643
vn 0.015945435 -1 0.0067825317
vn 0.016189575 -1 0.008323669
vn 0.00011444092 -1 0.0032730103
vn 0.015129089 0.0063209534 1
vn 0.015960693 0.009277344 1
vn 0.015068054 0.0062179565 1
vn 0.015586853 0.007537842 1
vn 0.01524353 0.0060691833 1
vn 0.01524353 0.0060768127 1
vn 0.0047454834 -1 0.003414154
vn 0.0059547424 -1 -0.0035953522
vn 0.006717682 -1 -0.005870819
vn 0.0044670105 -1 0.005001068
vn 0.008781433 -1 0.0064735413
vn -0.006793976 1 -0.0065345764
vn -0.007461548 1 -0.00667572
vn -0.0074501038 1 -0.0066452026
vn -0.0074424744 1 -0.006717682
vn -0.005886078 1 -0.006565094
vn -0.0033550262 1 -0.0070610046
vn -0 0 1
vn -0 0 1
vn -0 0 1
vn -0 0 1
vn -0 0 1
vn -0 0 1
vn -0 -1.7881393E-07 1
vn -0 0 1
vn -0 0 1
vn -0 0 1
vn -0 0 1
vn -0 0 1
vn -0 0 1
vn -0 0 1
vn -0 0 1
vn -0 0 1
vn -0 0 1
vn -0 0 1
vn -0.4794922 0.45458984 0.7504883
vn -0.4794922 0.45458984 0.7504883
vn -0.4794922 0.45458984 0.7504883
vn 0.4050293 -0.6870117 0.60302734
vn 0.4050293 -0.6870117 0.60302734
vn 0.4050293 -0.6870117 0.60302734
vn 0.68115234 0.6591797 -0.31933594
vn 0.68115234 0.6591797 -0.31933594
vn 0.68115234 0.6591797 -0.31933594
vn 0.5493164 -0.65185547 0.52246094
vn 0.5493164 -0.65185547 0.52246094
vn 0.5493164 -0.65185547 0.52246094
vn 0.09088135 0.64697266 0.7573242
vn 0.09088135 0.64697266 0.7573242
vn 0.09088135 0.64697266 0.7573242
vn -0 -1 0
vn -0 -1 0
vn -0 -1 0
vn -0 -1 0
vn -0 -0.010154724 1
vn -0 -0.030349731 0.9995117
vn -0 -0.030349731 0.9995117
vn -0 -0.010108948 1
vn 1 -0.00013232231 -0.0025901794
vn 1 -0.000182271 -0.0026416779
vn 1 0.002380371 0
vn 1 -0.0026454926 -0.0051841736
vn -1 0.0074424744 -1.603365E-05
vn -1 0.0074424744 -1.6331673E-05
vn -1 0.0074272156 -3.20673E-05
vn -1 0.007457733 0
vn -0.20495605 0.0113220215 0.9785156
vn -0.12768555 -0.017349243 0.9916992
vn -0.36035156 -0.09680176 0.9277344
vn 0.009437561 0.015731812 1
vn -0.9970703 -0.017333984 0.076293945
vn -0.9970703 -0.017333984 0.07635498
vn -0.9970703 -0.017364502 0.076171875
vn -0.9970703 -0.017333984 0.07635498
vn -0.9970703 -0.017333984 0.07635498
vn 0.9970703 0.017303467 -0.07635498
vn 0.9970703 0.01727295 -0.07635498
vn 0.9970703 0.017288208 -0.07635498
vn 0.9970703 0.017303467 -0.07635498
vn 0.9970703 0.017471313 -0.07635498
vn -0.99902344 0.035827637 0.027374268
vn -0.99902344 0.035827637 0.027374268
vn -0.99902344 0.035827637 0.027389526
vn -0.99902344 0.035827637 0.027374268
vn 0.86083984 -0.008483887 0.50878906
vn 0.8515625 0.0030326843 0.52441406
vn 0.8515625 0.0032520294 0.52441406
vn 0.8701172 -0.020492554 0.49194336
vn 0.8779297 -0.030349731 0.47802734
vn 0.99902344 -0.035858154 -0.028930664
vn 0.99902344 -0.035858154 -0.028930664
vn 0.99902344 -0.035827637 -0.028915405
vn 0.99902344 -0.035858154 -0.028945923
g Pond_STR_Bridge_02_Floor_0
f 3/3/3 2/2/2 1/1/1
f 4/4/4 1/1/1 2/2/2
f 1/1/1 4/4/4 5/5/5
f 6/6/6 5/5/5 4/4/4
f 9/9/9 8/8/8 7/7/7
f 10/10/10 7/7/7 8/8/8
f 7/7/7 10/10/10 11/11/11
f 12/12/12 11/11/11 10/10/10
f 15/15/15 14/14/14 13/13/13
f 14/14/14 16/16/16 13/13/13
f 16/16/16 17/17/17 13/13/13
f 17/17/17 18/18/18 13/13/13
f 13/13/13 18/18/18 19/19/19
f 20/20/20 19/19/19 18/18/18
f 23/23/23 22/22/22 21/21/21
f 23/23/23 24/24/24 22/22/22
f 25/25/25 22/22/22 24/24/24
f 28/28/28 27/27/27 26/26/26
f 29/29/29 26/26/26 27/27/27
f 26/26/26 29/29/29 30/30/30
f 31/31/31 30/30/30 29/29/29
f 34/34/34 33/33/33 32/32/32
f 35/35/35 32/32/32 33/33/33
f 32/32/32 35/35/35 36/36/36
f 37/37/37 36/36/36 35/35/35
f 40/40/40 39/39/39 38/38/38
f 40/40/40 41/41/41 39/39/39
f 42/42/42 39/39/39 41/41/41
f 45/45/45 44/44/44 43/43/43
f 44/44/44 46/46/46 43/43/43
f 46/46/46 47/47/47 43/43/43
f 50/50/50 49/49/49 48/48/48
f 50/50/50 48/48/48 51/51/51
f 52/52/52 51/51/51 48/48/48
f 55/55/55 54/54/54 53/53/53
f 56/56/56 53/53/53 54/54/54
f 59/59/59 58/58/58 57/57/57
f 60/60/60 57/57/57 58/58/58
f 63/63/63 62/62/62 61/61/61
f 64/64/64 61/61/61 62/62/62
f 67/67/67 66/66/66 65/65/65
f 68/68/68 65/65/65 66/66/66
f 68/68/68 69/69/69 65/65/65
f 70/70/70 65/65/65 69/69/69
f 73/73/73 72/72/72 71/71/71
f 74/74/74 71/71/71 72/72/72
f 77/77/77 76/76/76 75/75/75
f 78/78/78 75/75/75 76/76/76
f 81/81/81 80/80/80 79/79/79
f 80/80/80 82/82/82 79/79/79
f 82/82/82 83/83/83 79/79/79
f 83/83/83 84/84/84 79/79/79
f 87/87/87 86/86/86 85/85/85
f 86/86/86 88/88/88 85/85/85
f 88/88/88 89/89/89 85/85/85
f 89/89/89 90/90/90 85/85/85
f 90/90/90 91/91/91 85/85/85
f 91/91/91 92/92/92 85/85/85
f 92/92/92 93/93/93 85/85/85
f 93/93/93 94/94/94 85/85/85
f 97/97/97 96/96/96 95/95/95
f 98/98/98 95/95/95 96/96/96
f 101/101/101 100/100/100 99/99/99
f 100/100/100 102/102/102 99/99/99
f 102/102/102 103/103/103 99/99/99
f 106/106/106 105/105/105 104/104/104
f 105/105/105 107/107/107 104/104/104
f 107/107/107 108/108/108 104/104/104
f 111/111/111 110/110/110 109/109/109
f 110/110/110 112/112/112 109/109/109
f 112/112/112 113/113/113 109/109/109
f 114/114/114 113/113/113 112/112/112
f 117/117/117 116/116/116 115/115/115
f 116/116/116 118/118/118 115/115/115
f 118/118/118 119/119/119 115/115/115
f 119/119/119 120/120/120 115/115/115
f 123/123/123 122/122/122 121/121/121
f 122/122/122 124/124/124 121/121/121
f 124/124/124 125/125/125 121/121/121
f 128/128/128 127/127/127 126/126/126
f 127/127/127 129/129/129 126/126/126
f 129/129/129 130/130/130 126/126/126
f 130/130/130 131/131/131 126/126/126
g Pond_STR_Bridge_02_Floor_1
f 134/134/134 133/133/133 132/132/132
f 133/133/133 135/135/135 132/132/132
f 135/135/135 136/136/136 132/132/132
f 136/136/136 137/137/137 132/132/132
f 138/138/138 137/137/137 136/136/136
f 139/139/139 138/138/138 136/136/136
g Pond_STR_Bridge_02_Floor_2
f 142/142/142 141/141/141 140/140/140
f 141/141/141 143/143/143 140/140/140
f 144/144/144 143/143/143 141/141/141
f 145/145/145 144/144/144 141/141/141
f 146/146/146 145/145/145 141/141/141
f 147/147/147 145/145/145 146/146/146
f 148/148/148 145/145/145 147/147/147
f 149/149/149 148/148/148 147/147/147
g Pond_STR_Bridge_02_Floor_3
f 152/152/152 151/151/151 150/150/150
f 155/155/155 154/154/154 153/153/153
f 158/158/158 157/157/157 156/156/156
f 161/161/161 160/160/160 159/159/159
f 164/164/164 163/163/163 162/162/162
f 167/167/167 166/166/166 165/165/165
f 168/168/168 165/165/165 166/166/166
f 171/171/171 170/170/170 169/169/169
f 172/172/172 169/169/169 170/170/170
f 175/175/175 174/174/174 173/173/173
f 176/176/176 173/173/173 174/174/174
f 179/179/179 178/178/178 177/177/177
f 180/180/180 177/177/177 178/178/178
f 183/183/183 182/182/182 181/181/181
f 182/182/182 184/184/184 181/181/181
f 187/187/187 186/186/186 185/185/185
f 186/186/186 188/188/188 185/185/185
f 188/188/188 189/189/189 185/185/185
f 192/192/192 191/191/191 190/190/190
f 191/191/191 193/193/193 190/190/190
f 193/193/193 194/194/194 190/190/190
f 197/197/197 196/196/196 195/195/195
f 198/198/198 195/195/195 196/196/196
f 201/201/201 200/200/200 199/199/199
f 200/200/200 202/202/202 199/199/199
f 202/202/202 203/203/203 199/199/199
f 206/206/206 205/205/205 204/204/204
f 207/207/207 204/204/204 205/205/205
