g Pond_STR_Stair_02_RegionBorder_01
v -3.2584136E-08 -0.19999999 4.713179E-13
v -5.182409E-26 8.443216E-33 4.655426E-13
v 5.4 -8.797718E-07 6.010364E-13
v 5.4 -0.20000087 6.053679E-13
v -3.2584136E-08 -0.19999999 -0.009999999
v 1.1131975E-15 -1.8136288E-22 -0.009999999
v -5.182409E-26 8.443216E-33 4.655426E-13
v -3.2584136E-08 -0.19999999 4.713179E-13
v 5.4 -8.797718E-07 6.010364E-13
v 5.4 -8.797718E-07 -0.009999999
v 5.4 -0.20000087 -0.009999999
v 5.4 -0.20000087 6.053679E-13
vt 4.6484375 -17.046875
vt 4.6484375 -17
vt 5.9960938 -17
vt 5.9960938 -17.046875
vt 4.6445312 -17.046875
vt 4.6445312 -17
vt 4.6484375 -17
vt 4.6484375 -17.046875
vt 5.9960938 -17
vt 6 -17
vt 6 -17.046875
vt 5.9960938 -17.046875
vn -0 0 1
vn -0 0 1
vn -0 0 1
vn -0 0 1
vn -1 0 0
vn -1 0 0
vn -1 0 0
vn -1 0 0
vn 1 0 0
vn 1 0 0
vn 1 0 0
vn 1 0 0
g Pond_STR_Stair_02_RegionBorder_01_0
f 3/3/3 2/2/2 1/1/1
f 4/4/4 3/3/3 1/1/1
f 7/7/7 6/6/6 5/5/5
f 8/8/8 7/7/7 5/5/5
f 11/11/11 10/10/10 9/9/9
f 12/12/12 11/11/11 9/9/9
