g Pond_STR_Bridge_02_RegionBorder_01
v 9.299994 2.1900012 3.160001
v 9.499995 2.1900012 3.160001
v 9.499995 1.7000012 3.160001
v 9.499995 -3.7999988 3.160001
v 9.299994 -3.7999988 3.160001
v 9.499995 2.400001 3.360001
v 9.299994 3.8000004 3.360001
v 9.499995 3.8000004 3.360001
v 9.299994 2.400001 3.360001
v 9.499995 2.1900012 3.360001
v 9.299994 2.1900012 3.360001
v 9.499995 2.1900012 3.360001
v 9.499995 2.1900012 3.160001
v 9.299994 2.1900012 3.160001
v 9.299994 2.1900012 3.360001
v 9.299994 3.8000004 3.360001
v 9.299994 3.8000004 3.350001
v 9.499995 3.8000004 3.350001
v 9.499995 3.8000004 3.360001
v 9.499995 -3.7999988 3.160001
v 9.499995 -3.7999988 3.150001
v 9.299994 -3.7999988 3.150001
v 9.299994 -3.7999988 3.160001
vt -3.9121094 -16
vt -3.9121094 -16.046875
vt -4.0351562 -16.046875
vt -5.4101562 -16.046875
vt -5.4101562 -16
vt -4 -16.046875
vt -3.6503906 -16
vt -3.6503906 -16.046875
vt -4 -16
vt -4.0507812 -16.046875
vt -4.0507812 -16
vt -4.0507812 -16.046875
vt -4.1015625 -16.046875
vt -4.1015625 -16
vt -4.0507812 -16
vt -3.6503906 -16
vt -3.6484375 -16
vt -3.6484375 -16.046875
vt -3.6503906 -16.046875
vt -5.4101562 -16.046875
vt -5.4101562 -16.046875
vt -5.4101562 -16
vt -5.4101562 -16
vn -0 0 1
vn -0 0 1
vn -0 0 1
vn -0 0 1
vn -0 0 1
vn -0 0 1
vn -0 0 1
vn -0 0 1
vn -0 0 1
vn -0 0 1
vn -0 0 1
vn -0 -1 0
vn -0 -1 0
vn -0 -1 0
vn -0 -1 0
vn -0 1 0
vn -0 1 0
vn -0 1 0
vn -0 1 0
vn -0 -1 0
vn -0 -1 0
vn -0 -1 0
vn -0 -1 0
g Pond_STR_Bridge_02_RegionBorder_01_0
f 3/3/3 2/2/2 1/1/1
f 1/1/1 4/4/4 3/3/3
f 1/1/1 5/5/5 4/4/4
f 8/8/8 7/7/7 6/6/6
f 7/7/7 9/9/9 6/6/6
f 6/6/6 9/9/9 10/10/10
f 9/9/9 11/11/11 10/10/10
f 14/14/14 13/13/13 12/12/12
f 15/15/15 14/14/14 12/12/12
f 18/18/18 17/17/17 16/16/16
f 19/19/19 18/18/18 16/16/16
f 22/22/22 21/21/21 20/20/20
f 23/23/23 22/22/22 20/20/20
