g Pond_STR_Bridge_01_FadeCol
v -8.803192 4.9000006 -3.0517577E-07
v 9.23832 4.9000006 -3.0517577E-07
v 9.23832 -3.2999992 -3.0517577E-07
v -8.803192 -3.2999992 -3.0517577E-07
v -8.803192 -3.2999992 -3.0517577E-07
v -8.803192 -3.2999992 -0.19999969
v -8.803192 4.9000006 -0.19999969
v -8.803192 4.9000006 -3.0517577E-07
v 9.23832 -3.2999992 -3.0517577E-07
v 9.23832 -3.2999992 -0.19999969
v -8.803192 -3.2999992 -0.19999969
v -8.803192 -3.2999992 -3.0517577E-07
v 9.23832 4.9000006 -3.0517577E-07
v 9.23832 4.9000006 -0.19999969
v 9.23832 -3.2999992 -0.19999969
v 9.23832 -3.2999992 -3.0517577E-07
v -8.803192 4.9000006 -3.0517577E-07
v -8.803192 4.9000006 -0.19999969
v 9.23832 4.9000006 -0.19999969
v 9.23832 4.9000006 -3.0517577E-07
v 9.23832 4.9000006 -0.19999969
v -8.803192 4.9000006 -0.19999969
v -8.803192 -3.2999992 -0.19999969
v 9.23832 -3.2999992 -0.19999969
vt -2.2832031 1.921875
vt -6.03125 1.921875
vt -6.03125 2.796875
vt -2.2832031 2.796875
vt -2.2832031 2.796875
vt -2.2832031 2.796875
vt -2.2832031 1.921875
vt -2.2832031 1.921875
vt -6.03125 2.796875
vt -6.03125 2.796875
vt -2.2832031 2.796875
vt -2.2832031 2.796875
vt -6.03125 1.921875
vt -6.03125 1.921875
vt -6.03125 2.796875
vt -6.03125 2.796875
vt -2.2832031 1.921875
vt -2.2832031 1.921875
vt -6.03125 1.921875
vt -6.03125 1.921875
vt -6.03125 1.921875
vt -2.2832031 1.921875
vt -2.2832031 2.796875
vt -6.03125 2.796875
vn -0 0 1
vn -0 0 1
vn -0 0 1
vn -0 0 1
vn -1 0 0
vn -1 0 0
vn -1 0 0
vn -1 0 0
vn -0 -1 0
vn -0 -1 0
vn -0 -1 0
vn -0 -1 0
vn 1 0 0
vn 1 0 0
vn 1 0 0
vn 1 0 0
vn -0 1 0
vn -0 1 0
vn -0 1 0
vn -0 1 0
vn -0 0 -1
vn -0 0 -1
vn -0 0 -1
vn -0 0 -1
g Pond_STR_Bridge_01_FadeCol_0
f 3/3/3 2/2/2 1/1/1
f 4/4/4 3/3/3 1/1/1
f 7/7/7 6/6/6 5/5/5
f 8/8/8 7/7/7 5/5/5
f 11/11/11 10/10/10 9/9/9
f 12/12/12 11/11/11 9/9/9
f 15/15/15 14/14/14 13/13/13
f 16/16/16 15/15/15 13/13/13
f 19/19/19 18/18/18 17/17/17
f 20/20/20 19/19/19 17/17/17
f 23/23/23 22/22/22 21/21/21
f 24/24/24 23/23/23 21/21/21
