g Pond_STR_Bridge_04_C_02
v 20.63499 -3.571333 1.1003503
v 16.125034 -3.5713327 1.1003503
v 16.125034 -0.08158211 1.1003503
v 20.63499 -0.08158195 1.1003503
v 20.63499 1.310563 1.1003503
v 16.125034 1.3105633 1.1003503
vt 0.41357422 0.6801758
vt 0.3996582 0.6801758
vt 0.3996582 0.69140625
vt 0.41357422 0.69140625
vt 0.41357422 0.6953125
vt 0.3996582 0.6953125
vn -0 0 1
vn -0 0 1
vn -0 0 1
vn -0 0 1
vn -0 0 1
vn -0 0 1
g Pond_STR_Bridge_04_C_02_0
f 3/3/3 2/2/2 1/1/1
f 4/4/4 3/3/3 1/1/1
f 3/3/3 4/4/4 5/5/5
f 6/6/6 3/3/3 5/5/5
