g Pond_STR_Bridge_handrail
v 4.127721 -7.167821 4.2981977
v -8.096494 -4.8706393 4.287374
v -8.1020155 -4.9004364 4.1998715
v 4.122199 -7.1976175 4.2106953
v 5.0264616 -7.4185324 4.298979
v 4.1053925 -7.286985 4.2281876
v -8.118825 -4.989803 4.2173643
v 5.0209403 -7.4483294 4.2114763
v 7.2798777 -7.760176 4.300988
v 7.2743564 -7.789973 4.2134857
v 5.004133 -7.5376964 4.228969
v 7.257549 -7.879339 4.2309785
v 4.1109138 -7.257188 4.31569
v -8.113303 -4.9600067 4.304867
v 5.0096545 -7.5078998 4.3164716
v 7.26307 -7.8495426 4.318481
v 4.1277213 -7.167821 4.2981977
v -8.096494 -4.8706393 4.287374
v 5.026462 -7.4185324 4.298979
v 7.2798777 -7.760176 4.300988
v 7.2755003 -7.784791 4.0209885
v -8.1176815 -4.9846215 4.024867
v -8.100873 -4.8952546 4.0073743
v 7.2586913 -7.8741584 4.038481
v -8.123203 -5.014418 3.9373648
v 7.25317 -7.9039545 3.9509785
v -8.106394 -4.925051 3.919872
v 7.269979 -7.814588 3.933486
v -8.100873 -4.8952546 4.0073743
v 7.2755003 -7.784791 4.0209885
vt 1.4599609 0.39770508
vt -1.1210938 0.39770508
vt -1.1210938 0.4169922
vt 1.4599609 0.4169922
vt 1.6464844 0.39770508
vt 1.4599609 0.4362793
vt -1.1210938 0.4362793
vt 1.6464844 0.4169922
vt 2.125 0.39770508
vt 2.125 0.4169922
vt 1.6464844 0.4362793
vt 2.125 0.4362793
vt 1.4599609 0.4555664
vt -1.1210938 0.4555664
vt 1.6464844 0.4555664
vt 2.125 0.4555664
vt 1.4599609 0.47460938
vt -1.1210938 0.47460938
vt 1.6464844 0.47460938
vt 2.125 0.47460938
vt -1.2617188 0.5385742
vt 2.3242188 0.5600586
vt 2.3242188 0.5385742
vt -1.2617188 0.5600586
vt 2.3242188 0.5810547
vt -1.2617188 0.5810547
vt 2.3242188 0.60253906
vt -1.2617188 0.60253906
vt 2.3242188 0.62353516
vt -1.2617188 0.62353516
vn 0.21435547 0.92041016 -0.3269043
vn 0.17480469 0.92871094 -0.32714844
vn 0.09307861 0.49121094 -0.86621094
vn 0.117614746 0.49975586 -0.85791016
vn 0.19873047 0.9238281 -0.32714844
vn -0.1953125 -0.8378906 -0.50927734
vn -0.1595459 -0.8510742 -0.5
vn 0.10119629 0.4699707 -0.8769531
vn 0.14196777 0.93408203 -0.32714844
vn 0.07739258 0.5053711 -0.859375
vn -0.18225098 -0.8535156 -0.48779297
vn -0.12878418 -0.8520508 -0.5073242
vn -0.11071777 -0.4736328 0.87353516
vn -0.09307861 -0.49121094 0.86621094
vn -0.109802246 -0.50683594 0.85498047
vn -0.07409668 -0.48339844 0.8720703
vn 0.041870117 0.18432617 0.9819336
vn 0.034057617 0.18579102 0.9819336
vn 0.038970947 0.18493652 0.9819336
vn 0.02748108 0.18701172 0.9819336
vn 0.1595459 0.8510742 0.5
vn -0.09307861 -0.49121094 0.86621094
vn 0.1595459 0.8510742 0.5
vn -0.09307861 -0.49121094 0.86621094
vn -0.1595459 -0.8510742 -0.5
vn -0.1595459 -0.8510742 -0.5
vn 0.09307861 0.49121094 -0.86621094
vn 0.09307861 0.49121094 -0.86621094
vn 0.1595459 0.8510742 0.5
vn 0.1595459 0.8510742 0.5
g Pond_STR_Bridge_handrail_0
f 3/3/3 2/2/2 1/1/1
f 4/4/4 3/3/3 1/1/1
f 4/4/4 1/1/1 5/5/5
f 4/4/4 6/6/6 3/3/3
f 6/6/6 7/7/7 3/3/3
f 8/8/8 4/4/4 5/5/5
f 6/6/6 4/4/4 8/8/8
f 8/8/8 5/5/5 9/9/9
f 10/10/10 8/8/8 9/9/9
f 11/11/11 8/8/8 10/10/10
f 11/11/11 6/6/6 8/8/8
f 12/12/12 11/11/11 10/10/10
f 6/6/6 13/13/13 7/7/7
f 13/13/13 6/6/6 11/11/11
f 13/13/13 14/14/14 7/7/7
f 15/15/15 11/11/11 12/12/12
f 15/15/15 13/13/13 11/11/11
f 16/16/16 15/15/15 12/12/12
f 13/13/13 17/17/17 14/14/14
f 17/17/17 13/13/13 15/15/15
f 17/17/17 18/18/18 14/14/14
f 19/19/19 17/17/17 15/15/15
f 19/19/19 15/15/15 16/16/16
f 20/20/20 19/19/19 16/16/16
f 23/23/23 22/22/22 21/21/21
f 22/22/22 24/24/24 21/21/21
f 22/22/22 25/25/25 24/24/24
f 25/25/25 26/26/26 24/24/24
f 26/26/26 25/25/25 27/27/27
f 28/28/28 26/26/26 27/27/27
f 27/27/27 29/29/29 28/28/28
f 29/29/29 30/30/30 28/28/28
