g ItemBox_Suitcase_02
v 0.2153666 -0.3705168 -0.11005665
v 0.24124473 -0.3617345 0.1093213
v 0.24124473 -0.3617345 -0.11005665
v 0.2153666 -0.3705168 0.1093213
v -0.21536659 -0.3705168 -0.11005665
v -0.21536659 -0.3705168 0.1093213
v -0.24124473 -0.3617345 -0.11005665
v -0.24124473 -0.3617345 0.1093213
v 0.2502525 -0.33585638 0.1093213
v 0.24124473 -0.3617345 -0.11005665
v 0.24124473 -0.3617345 0.1093213
v 0.2502525 -0.33585638 -0.11005665
v 0.2502525 0.33585638 -0.110056646
v 0.2502525 0.33585638 0.1093213
v 0.24124473 0.3617345 -0.110056646
v 0.24124473 0.3617345 0.1093213
v -0.24124473 -0.3617345 -0.11005665
v -0.2502525 -0.33585638 0.1093213
v -0.24124473 -0.3617345 0.1093213
v -0.2502525 -0.33585638 -0.11005665
v -0.2502525 0.33585638 -0.110056646
v -0.2502525 0.33585638 0.1093213
v -0.24124473 0.3617345 -0.110056646
v -0.24124473 0.3617345 0.1093213
v 0.2153666 0.3705168 0.1093213
v 0.24124473 0.3617345 -0.110056646
v 0.24124473 0.3617345 0.1093213
v 0.2153666 0.3705168 -0.110056646
v -0.21536659 0.3705168 -0.110056646
v -0.21536659 0.3705168 0.1093213
v -0.24124473 0.3617345 0.1093213
v -0.24124473 0.3617345 -0.110056646
v 0.24124473 -0.3617345 0.1093213
v 0.2502525 0.33585638 0.1093213
v 0.2502525 -0.33585638 0.1093213
v -0.21536659 -0.3705168 0.1093213
v 0.2153666 -0.3705168 0.1093213
v -0.21536659 0.3705168 0.1093213
v 0.24124473 0.3617345 0.1093213
v 0.2153666 0.3705168 0.1093213
v -0.2502525 0.33585638 0.1093213
v -0.24124473 0.3617345 0.1093213
v -0.2502525 -0.33585638 0.1093213
v -0.24124473 -0.3617345 0.1093213
v -0.2502525 0.33585638 -0.110056646
v -0.21536659 0.3705168 -0.110056646
v -0.24124473 0.3617345 -0.110056646
v -0.21536659 -0.3705168 -0.11005665
v -0.24124473 -0.3617345 -0.11005665
v -0.2502525 -0.33585638 -0.11005665
v 0.24124473 -0.3617345 -0.11005665
v 0.2153666 -0.3705168 -0.11005665
v 0.2502525 0.33585638 -0.110056646
v 0.2502525 -0.33585638 -0.11005665
v 0.24124473 0.3617345 -0.110056646
v 0.2153666 0.3705168 -0.110056646
v 0.250872 -0.17934005 -0.026777754
v 0.25086197 -0.18572025 0.030488243
v 0.25086308 -0.17934005 0.024108047
v 0.25086215 -0.26887122 0.030488232
v 0.25087294 -0.26887175 -0.03315795
v 0.2508731 -0.18572025 -0.03315795
v 0.25086325 -0.27525145 0.024108037
v 0.25087184 -0.2752519 -0.026777754
v 0.26145214 -0.243019 -0.013773651
v 0.26145214 -0.23609856 0.002932453
v 0.26145217 -0.23609851 -0.0068539903
v 0.26145217 -0.2597253 -0.006853952
v 0.26145214 -0.25280556 -0.013773689
v 0.2614521 -0.2528056 0.009852009
v 0.2614521 -0.24301903 0.009851971
v 0.26145214 -0.2597252 0.0029324149
v 0.26030982 -0.20037133 0.030334186
v 0.25661182 -0.21462986 -0.017700605
v 0.26030982 -0.22024196 0.030334186
v 0.25661182 -0.20598352 -0.017700605
v 0.25877592 -0.21942592 0.03671341
v 0.25877592 -0.23418728 0.026956473
v 0.25877592 -0.23418728 0.03671341
v 0.25877592 -0.21942592 0.026956473
v 0.25877592 -0.18642613 0.03671341
v 0.25877592 -0.20118754 0.026956473
v 0.25877592 -0.20118754 0.03671341
v 0.25877592 -0.18642613 0.026956473
v 0.25826782 -0.21942596 0.02818302
v 0.25826782 -0.20118749 0.03548684
v 0.25826782 -0.20118749 0.02818302
v 0.25826782 -0.21942596 0.03548684
v 0.26789406 -0.099474944 -0.0059878635
v 0.26789406 -0.08886094 -0.0067141363
v 0.26789004 -0.094637394 -0.044949405
v 0.26789406 -0.11665771 -0.0059878635
v 0.2585003 -0.099526286 0.0073383376
v 0.25850028 -0.11660637 0.0073383376
v 0.26789227 -0.12064529 -0.076518945
v 0.26789406 -0.12727171 -0.0067141387
v 0.26789474 -0.11276001 -0.09509901
v 0.26789415 -0.0873418 -0.06411372
v 0.2678957 -0.093553886 -0.10297013
v 0.2678957 -0.06811238 -0.0713356
v 0.2678957 0.06811238 -0.0713356
v 0.2678957 0.09355388 -0.10297014
v 0.26789415 0.0873418 -0.06411372
v 0.26789474 0.11276001 -0.09509901
v 0.26789004 0.094637394 -0.044949405
v 0.26789227 0.12064529 -0.076518945
v 0.26789406 0.11665771 -0.005987859
v 0.26789406 0.12727171 -0.006714134
v 0.26789406 0.099474944 -0.005987859
v 0.26789406 0.08886094 -0.006714134
v 0.25850028 0.11660637 0.0073383427
v 0.2585003 0.099526286 0.0073383427
v 0.2508725 -0.18414715 0.034079943
v 0.2508625 -0.2105361 0.05902519
v 0.2508671 -0.18166621 0.047022913
v 0.2508671 -0.239406 0.047022913
v 0.2508725 -0.23692508 0.034079943
v 0.25086483 -0.07641597 -0.009486313
v 0.25086212 -0.08541138 0.014474082
v 0.25086483 -0.07641597 0.007739956
v 0.25086212 -0.13073455 -0.016220441
v 0.25086212 -0.08541138 -0.016220441
v 0.25086483 -0.13972996 0.0077399537
v 0.25086212 -0.13073455 0.014474082
v 0.25086483 -0.13972996 -0.009486313
v 0.26341087 -0.12390669 -0.0052300645
v 0.2634109 -0.1166396 0.0052703046
v 0.26341087 -0.1166396 -0.0052300645
v 0.26341084 -0.12390669 0.0052703046
v 0.2627355 -0.123906955 -0.0035994481
v 0.26273543 -0.12507053 0.0036395548
v 0.2627355 -0.123906955 0.0036395548
v 0.26273546 -0.12507053 -0.0035994481
v 0.2627355 -0.123906955 0.0036395548
v 0.26341087 -0.12390669 -0.0052300645
v 0.2627355 -0.123906955 -0.0035994481
v 0.26341084 -0.12390669 0.0052703046
v 0.26341084 -0.0922867 0.0052703046
v 0.26341087 -0.099553786 -0.0052300645
v 0.2634109 -0.099553786 0.0052703046
v 0.26341087 -0.0922867 -0.0052300645
v 0.26273543 -0.091122866 0.0036395548
v 0.2627355 -0.09228643 -0.0035994481
v 0.2627355 -0.09228643 0.0036395548
v 0.26273546 -0.091122866 -0.0035994481
v 0.2627355 -0.09228643 0.0036395548
v 0.26341087 -0.0922867 -0.0052300645
v 0.26341084 -0.0922867 0.0052703046
v 0.2627355 -0.09228643 -0.0035994481
v 0.25086308 0.17934005 0.024108047
v 0.2508731 0.18572025 -0.03315795
v 0.250872 0.17934005 -0.026777754
v 0.25087294 0.26887175 -0.03315795
v 0.25086215 0.26887122 0.030488243
v 0.25086197 0.18572025 0.030488243
v 0.25087184 0.2752519 -0.026777754
v 0.25086325 0.27525145 0.024108037
v 0.26145217 0.2597253 -0.006853952
v 0.2614521 0.2528056 0.009852009
v 0.26145214 0.2597252 0.0029324149
v 0.26145214 0.23609856 0.002932453
v 0.2614521 0.24301903 0.009851971
v 0.26145214 0.243019 -0.013773651
v 0.26145214 0.25280556 -0.013773689
v 0.26145217 0.23609851 -0.0068539903
v 0.25661182 0.20598352 -0.017700605
v 0.26030982 0.22024196 0.030334191
v 0.25661182 0.21462986 -0.017700605
v 0.26030982 0.20037133 0.030334191
v 0.25877592 0.21942592 0.026956473
v 0.25877592 0.23418728 0.03671341
v 0.25877592 0.23418728 0.026956473
v 0.25877592 0.21942592 0.03671341
v 0.25877592 0.20118754 0.026956473
v 0.25877592 0.18642613 0.03671341
v 0.25877592 0.20118754 0.03671341
v 0.25877592 0.18642613 0.026956473
v 0.25826782 0.21942596 0.035486843
v 0.25826782 0.20118749 0.028183026
v 0.25826782 0.20118749 0.035486843
v 0.25826782 0.21942596 0.02818303
v 0.2508671 0.18166621 0.047022913
v 0.2508725 0.23692508 0.034079943
v 0.2508725 0.18414715 0.034079943
v 0.2508625 0.2105361 0.05902518
v 0.2508671 0.239406 0.047022913
v 0.25086212 0.13073455 -0.016220436
v 0.25086483 0.13972996 0.0077399537
v 0.25086483 0.13972996 -0.009486313
v 0.25086212 0.08541138 0.014474082
v 0.25086212 0.13073455 0.014474082
v 0.25086483 0.07641598 -0.00948631
v 0.25086212 0.08541138 -0.016220441
v 0.25086483 0.07641597 0.0077399537
v 0.26341084 0.12390669 0.0052703046
v 0.26341087 0.1166396 -0.0052300645
v 0.2634109 0.1166396 0.0052703046
v 0.26341087 0.12390669 -0.0052300645
v 0.26273543 0.12507053 0.0036395597
v 0.2627355 0.123906955 -0.0035994481
v 0.2627355 0.123906955 0.0036395597
v 0.26273546 0.12507053 -0.0035994481
v 0.2627355 0.123906955 0.0036395597
v 0.26341087 0.12390669 -0.0052300645
v 0.26341084 0.12390669 0.0052703046
v 0.2627355 0.123906955 -0.0035994481
v 0.26341087 0.0922867 -0.0052300645
v 0.2634109 0.099553786 0.0052703046
v 0.26341087 0.099553786 -0.0052300645
v 0.26341084 0.0922867 0.0052703046
v 0.2627355 0.09228643 -0.0035994481
v 0.26273543 0.091122866 0.0036395597
v 0.2627355 0.09228643 0.0036395597
v 0.26273546 0.091122866 -0.0035994481
v 0.2627355 0.09228643 0.0036395597
v 0.26341087 0.0922867 -0.0052300645
v 0.2627355 0.09228643 -0.0035994481
v 0.26341084 0.0922867 0.0052703046
vt 0.16210938 0.73046875
vt 0.16918945 0.81396484
vt 0.16918945 0.73046875
vt 0.16210938 0.81396484
vt 0.008262634 0.73046875
vt 0.008262634 0.81396484
vt 0.0011777878 0.73046875
vt 0.0011777878 0.81396484
vt 0.1829834 0.81396484
vt 0.17297363 0.73046875
vt 0.17297363 0.81396484
vt 0.1829834 0.73046875
vt 0.42285156 0.73046875
vt 0.42285156 0.81396484
vt 0.43286133 0.73046875
vt 0.43286133 0.81396484
vt 0.43286133 0.73046875
vt 0.42285156 0.81396484
vt 0.43286133 0.81396484
vt 0.42285156 0.73046875
vt 0.1829834 0.73046875
vt 0.1829834 0.81396484
vt 0.17297363 0.73046875
vt 0.17297363 0.81396484
vt 0.008262634 0.81396484
vt 0.0011777878 0.73046875
vt 0.0011777878 0.81396484
vt 0.008262634 0.73046875
vt 0.16210938 0.73046875
vt 0.16210938 0.81396484
vt 0.16918945 0.81396484
vt 0.16918945 0.73046875
vt 0.27563477 0.81933594
vt 0.5283203 0.8154297
vt 0.2849121 0.8154297
vt 0.27148438 0.98583984
vt 0.27148438 0.82910156
vt 0.5415039 0.98583984
vt 0.53759766 0.81933594
vt 0.5415039 0.82910156
vt 0.5283203 0.99902344
vt 0.53759766 0.9951172
vt 0.2849121 0.99902344
vt 0.27563477 0.9951172
vt 0.25756836 0.8154297
vt 0.27075195 0.82910156
vt 0.2668457 0.8198242
vt 0.0007753372 0.82910156
vt 0.004753113 0.8198242
vt 0.014091492 0.8154297
vt 0.004753113 0.9951172
vt 0.0007753372 0.98583984
vt 0.25756836 0.99902344
vt 0.014091492 0.99902344
vt 0.2668457 0.9951172
vt 0.27075195 0.98583984
vt 0.9086914 0.70751953
vt 0.8876953 0.7050781
vt 0.8901367 0.70751953
vt 0.8876953 0.6743164
vt 0.9111328 0.6743164
vt 0.9111328 0.7050781
vt 0.8901367 0.671875
vt 0.9086914 0.671875
vt 0.9033203 0.7626953
vt 0.89697266 0.7651367
vt 0.9008789 0.7651367
vt 0.9008789 0.75634766
vt 0.9033203 0.75878906
vt 0.89453125 0.75878906
vt 0.89453125 0.7626953
vt 0.89697266 0.75634766
vt 0.86865234 0.76660156
vt 0.8857422 0.76123047
vt 0.86865234 0.75927734
vt 0.8857422 0.76464844
vt 0.8725586 0.70166016
vt 0.87646484 0.69628906
vt 0.8725586 0.69628906
vt 0.87646484 0.70166016
vt 0.8725586 0.71484375
vt 0.87646484 0.70947266
vt 0.8725586 0.70947266
vt 0.87646484 0.71484375
vt 0.87646484 0.70214844
vt 0.8725586 0.7089844
vt 0.87646484 0.7089844
vt 0.8725586 0.70214844
vt 0.9355469 0.61328125
vt 0.9355469 0.6171875
vt 0.94970703 0.6147461
vt 0.9355469 0.6069336
vt 0.92822266 0.61328125
vt 0.92822266 0.6069336
vt 0.9609375 0.60546875
vt 0.9355469 0.60302734
vt 0.96777344 0.60839844
vt 0.95654297 0.6176758
vt 0.9707031 0.6152344
vt 0.9589844 0.6245117
vt 0.9589844 0.67333984
vt 0.9707031 0.6826172
vt 0.95654297 0.68066406
vt 0.96777344 0.6894531
vt 0.94970703 0.68310547
vt 0.9609375 0.6923828
vt 0.9355469 0.69091797
vt 0.9355469 0.6948242
vt 0.9355469 0.6845703
vt 0.9355469 0.68115234
vt 0.92822266 0.69091797
vt 0.92822266 0.6845703
vt 0.8798828 0.6875
vt 0.8701172 0.6777344
vt 0.875 0.6879883
vt 0.875 0.66748047
vt 0.8798828 0.66796875
vt 0.90234375 0.7392578
vt 0.8930664 0.73583984
vt 0.8959961 0.7392578
vt 0.90478516 0.7192383
vt 0.90478516 0.73583984
vt 0.8959961 0.7158203
vt 0.8930664 0.7192383
vt 0.90234375 0.7158203
vt 0.8798828 0.7265625
vt 0.8745117 0.72753906
vt 0.8823242 0.72753906
vt 0.8769531 0.7265625
vt 0.8798828 0.7265625
vt 0.8769531 0.7265625
vt 0.8769531 0.7265625
vt 0.87939453 0.7265625
vt 0.8769531 0.7265625
vt 0.8798828 0.7265625
vt 0.8798828 0.7265625
vt 0.8769531 0.7265625
vt 0.8769531 0.72558594
vt 0.8823242 0.7246094
vt 0.8745117 0.7246094
vt 0.8798828 0.72558594
vt 0.8769531 0.72558594
vt 0.8798828 0.72558594
vt 0.8769531 0.72558594
vt 0.87939453 0.72558594
vt 0.8769531 0.72558594
vt 0.8798828 0.72558594
vt 0.8769531 0.72558594
vt 0.8798828 0.72558594
vt 0.8901367 0.70751953
vt 0.9111328 0.7050781
vt 0.9086914 0.70751953
vt 0.9111328 0.6743164
vt 0.8876953 0.6743164
vt 0.8876953 0.7050781
vt 0.9086914 0.671875
vt 0.8901367 0.671875
vt 0.9008789 0.75634766
vt 0.89453125 0.75878906
vt 0.89697266 0.75634766
vt 0.89697266 0.7651367
vt 0.89453125 0.7626953
vt 0.9033203 0.7626953
vt 0.9033203 0.75878906
vt 0.9008789 0.7651367
vt 0.8857422 0.76464844
vt 0.86865234 0.75927734
vt 0.8857422 0.76123047
vt 0.86865234 0.76660156
vt 0.87646484 0.70166016
vt 0.8725586 0.69628906
vt 0.87646484 0.69628906
vt 0.8725586 0.70166016
vt 0.87646484 0.70947266
vt 0.8725586 0.71484375
vt 0.8725586 0.70947266
vt 0.87646484 0.71484375
vt 0.8725586 0.70214844
vt 0.87646484 0.7089844
vt 0.8725586 0.7089844
vt 0.87646484 0.70214844
vt 0.875 0.6879883
vt 0.8798828 0.66796875
vt 0.8798828 0.6875
vt 0.8701172 0.6777344
vt 0.875 0.66748047
vt 0.90478516 0.7192383
vt 0.8959961 0.7158203
vt 0.90234375 0.7158203
vt 0.8930664 0.73583984
vt 0.8930664 0.7192383
vt 0.90234375 0.7392578
vt 0.90478516 0.73583984
vt 0.8959961 0.7392578
vt 0.8769531 0.7265625
vt 0.8823242 0.72753906
vt 0.8745117 0.72753906
vt 0.8798828 0.7265625
vt 0.8769531 0.7265625
vt 0.8798828 0.7265625
vt 0.8769531 0.7265625
vt 0.87939453 0.7265625
vt 0.8769531 0.7265625
vt 0.8798828 0.7265625
vt 0.8769531 0.7265625
vt 0.8798828 0.7265625
vt 0.8798828 0.72558594
vt 0.8745117 0.7246094
vt 0.8823242 0.7246094
vt 0.8769531 0.72558594
vt 0.8798828 0.72558594
vt 0.8769531 0.72558594
vt 0.8769531 0.72558594
vt 0.87939453 0.72558594
vt 0.8769531 0.72558594
vt 0.8798828 0.72558594
vt 0.8798828 0.72558594
vt 0.8769531 0.72558594
vn 0.1628418 -0.9868164 0
vn 0.70458984 -0.70996094 0
vn 0.70458984 -0.70996094 0
vn 0.1628418 -0.9868164 0
vn -0.1628418 -0.9868164 0
vn -0.1628418 -0.9868164 0
vn -0.70458984 -0.70996094 0
vn -0.70458984 -0.70996094 0
vn 0.98583984 -0.16674805 0
vn 0.70458984 -0.70996094 0
vn 0.70458984 -0.70996094 0
vn 0.98583984 -0.16674805 0
vn 0.98583984 0.16674805 0
vn 0.98583984 0.16674805 0
vn 0.70458984 0.70996094 0
vn 0.70458984 0.70996094 0
vn -0.70458984 -0.70996094 0
vn -0.98583984 -0.16674805 0
vn -0.70458984 -0.70996094 0
vn -0.98583984 -0.16674805 0
vn -0.98583984 0.16674805 0
vn -0.98583984 0.16674805 0
vn -0.70458984 0.70996094 0
vn -0.70458984 0.70996094 0
vn 0.1628418 0.9868164 0
vn 0.70458984 0.70996094 0
vn 0.70458984 0.70996094 0
vn 0.1628418 0.9868164 0
vn -0.1628418 0.9868164 0
vn -0.1628418 0.9868164 0
vn -0.70458984 0.70996094 0
vn -0.70458984 0.70996094 0
vn -0 0 1
vn -0 0 1
vn -0 0 1
vn -0 0 1
vn -0 0 1
vn -0 0 1
vn -0 0 1
vn -0 0 1
vn -0 0 1
vn -0 0 1
vn -0 0 1
vn -0 0 1
vn -0 0 -1
vn -0 0 -1
vn -0 0 -1
vn -0 0 -1
vn -0 0 -1
vn -0 0 -1
vn -0 0 -1
vn -0 0 -1
vn -0 0 -1
vn -0 0 -1
vn -0 0 -1
vn -0 0 -1
vn 1 -1.1920929E-07 0.00017309189
vn 1 2.3841858E-06 0.00017499924
vn 1 3.1590462E-06 0.00017499924
vn 1 2.3841858E-07 0.0001705885
vn 1 -1.9669533E-06 0.00016915798
vn 1 -1.9669533E-06 0.00017380714
vn 1 1.013279E-06 0.00016915798
vn 1 -3.2186508E-06 0.00016868114
vn 1 1.7881393E-07 -7.748604E-07
vn 1 -4.7683716E-07 2.3841858E-06
vn 1 -4.529953E-06 1.9073486E-06
vn 1 7.1525574E-07 9.536743E-07
vn 1 0 -4.053116E-06
vn 1 0 4.1127205E-06
vn 1 0 5.364418E-06
vn 1 2.503395E-06 2.861023E-06
vn 0.9970703 0 -0.07678223
vn 0.9970703 0 -0.07678223
vn 0.9970703 0 -0.07678223
vn 0.9970703 0 -0.07678223
vn 1 0 0
vn 1 0 0
vn 1 0 0
vn 1 0 0
vn 1 0 0
vn 1 0 0
vn 1 0 0
vn 1 0 0
vn 1 0 0
vn 1 0 0
vn 1 0 0
vn 1 0 0
vn 0.9790039 -2.026558E-06 0.20300293
vn 1 -8.46386E-06 -0.00010383129
vn 1 2.926588E-05 3.993511E-06
vn 0.9790039 1.7106533E-05 0.20300293
vn 0.8173828 0 0.5761719
vn 0.8173828 -6.556511E-07 0.5761719
vn 1 -9.357929E-06 7.259846E-05
vn 1 2.7418137E-06 -2.5868416E-05
vn 1 -5.6505203E-05 8.189678E-05
vn 1 -0.00011062622 0.000102996826
vn 1 -2.7120113E-05 3.129244E-05
vn 1 -2.259016E-05 1.7642975E-05
vn 1 2.259016E-05 1.7642975E-05
vn 1 2.7120113E-05 3.129244E-05
vn 1 0.00011062622 0.000102996826
vn 1 5.6505203E-05 8.189678E-05
vn 1 -2.926588E-05 3.993511E-06
vn 1 9.357929E-06 7.259846E-05
vn 0.9790039 -1.7344952E-05 0.20300293
vn 1 -2.7418137E-06 -2.5868416E-05
vn 0.9790039 2.2649765E-06 0.20300293
vn 1 8.46386E-06 -0.00010383129
vn 0.8173828 0 0.5761719
vn 0.8173828 6.556511E-07 0.5761719
vn 1 5.543232E-06 0.00040745735
vn 1 -2.1457672E-06 0.00039744377
vn 1 1.2278557E-05 0.00041270256
vn 1 -1.66893E-06 0.0004079342
vn 1 0 0.00041508675
vn 1 -8.5532665E-05 -3.9935112E-05
vn 1 -8.946657E-05 5.0902367E-05
vn 1 -0.00030064583 0
vn 1 8.946657E-05 -5.0902367E-05
vn 1 0 -0.0004014969
vn 1 8.5532665E-05 3.9935112E-05
vn 1 0 0.0004014969
vn 1 0.00030064583 0
vn 1 -3.0398369E-06 -5.364418E-07
vn 1 -4.827976E-06 7.1525574E-07
vn 1 0 -2.6226044E-06
vn 1 -7.867813E-06 2.861023E-06
vn 1 -3.4749508E-05 4.2915344E-06
vn 1 -5.8472157E-05 4.7683716E-07
vn 1 -6.145239E-05 0
vn 1 -3.1769276E-05 4.7683716E-06
vn 0.000395298 -1 0
vn 0.000395298 -1 0
vn 0.000395298 -1 0
vn 0.000395298 -1 0
vn 1 4.827976E-06 -5.364418E-07
vn 1 3.0398369E-06 7.1525574E-07
vn 1 7.867813E-06 -2.6226044E-06
vn 1 0 2.861023E-06
vn 1 5.8472157E-05 4.7683716E-07
vn 1 3.4749508E-05 4.2915344E-06
vn 1 6.145239E-05 0
vn 1 3.1769276E-05 4.7683716E-06
vn 0.000395298 1 0
vn 0.000395298 1 0
vn 0.000395298 1 0
vn 0.000395298 1 0
vn 1 -1.7881393E-07 0.00017309189
vn 1 2.2649765E-06 0.00017499924
vn 1 3.1590462E-06 0.00017499924
vn 1 6.556511E-07 0.0001705885
vn 1 -1.5497208E-06 0.00016915798
vn 1 -2.0861626E-06 0.00017392635
vn 1 2.503395E-06 0.00016915798
vn 1 -1.7285347E-06 0.00016868114
vn 1 -7.1525574E-07 9.536743E-07
vn 1 0 4.1127205E-06
vn 1 -2.503395E-06 2.861023E-06
vn 1 4.7683716E-07 2.3841858E-06
vn 1 0 5.364418E-06
vn 1 -1.7881393E-07 -7.748604E-07
vn 1 0 -4.053116E-06
vn 1 4.529953E-06 1.9073486E-06
vn 0.9970703 0 -0.07678223
vn 0.9970703 0 -0.07678223
vn 0.9970703 0 -0.07678223
vn 0.9970703 0 -0.07678223
vn 1 0 0
vn 1 0 0
vn 1 0 0
vn 1 0 0
vn 1 0 0
vn 1 0 0
vn 1 0 0
vn 1 0 0
vn 1 0 0
vn 1 0 0
vn 1 0 0
vn 1 0 0
vn 1 -1.66893E-06 0.0004079342
vn 1 5.543232E-06 0.00040745735
vn 1 0 0.00041508675
vn 1 -2.1457672E-06 0.00039744377
vn 1 1.2278557E-05 0.00041270256
vn 1 -8.946657E-05 -5.0902367E-05
vn 1 -8.5532665E-05 3.9935112E-05
vn 1 -0.00030064583 0
vn 1 8.946657E-05 5.0902367E-05
vn 1 0 0.0004014969
vn 1 8.5532665E-05 -3.9935112E-05
vn 1 0 -0.0004014969
vn 1 0.00030064583 0
vn 1 4.827976E-06 -5.364418E-07
vn 1 3.0398369E-06 7.1525574E-07
vn 1 7.867813E-06 -2.6226044E-06
vn 1 0 2.861023E-06
vn 1 5.8472157E-05 4.7683716E-07
vn 1 3.4749508E-05 4.2915344E-06
vn 1 6.145239E-05 0
vn 1 3.1769276E-05 4.7683716E-06
vn 0.000395298 1 0
vn 0.000395298 1 0
vn 0.000395298 1 0
vn 0.000395298 1 0
vn 1 -3.0398369E-06 -5.364418E-07
vn 1 -4.827976E-06 7.1525574E-07
vn 1 0 -2.6226044E-06
vn 1 -7.867813E-06 2.861023E-06
vn 1 -3.4749508E-05 4.2915344E-06
vn 1 -5.8472157E-05 4.7683716E-07
vn 1 -6.145239E-05 0
vn 1 -3.1769276E-05 4.7683716E-06
vn 0.000395298 -1 0
vn 0.000395298 -1 0
vn 0.000395298 -1 0
vn 0.000395298 -1 0
g ItemBox_Suitcase_02_0
f 3/3/3 2/2/2 1/1/1
f 4/4/4 1/1/1 2/2/2
f 1/1/1 4/4/4 5/5/5
f 6/6/6 5/5/5 4/4/4
f 5/5/5 6/6/6 7/7/7
f 8/8/8 7/7/7 6/6/6
f 11/11/11 10/10/10 9/9/9
f 12/12/12 9/9/9 10/10/10
f 12/12/12 13/13/13 9/9/9
f 14/14/14 9/9/9 13/13/13
f 13/13/13 15/15/15 14/14/14
f 16/16/16 14/14/14 15/15/15
f 19/19/19 18/18/18 17/17/17
f 20/20/20 17/17/17 18/18/18
f 20/20/20 18/18/18 21/21/21
f 22/22/22 21/21/21 18/18/18
f 21/21/21 22/22/22 23/23/23
f 24/24/24 23/23/23 22/22/22
f 27/27/27 26/26/26 25/25/25
f 28/28/28 25/25/25 26/26/26
f 28/28/28 29/29/29 25/25/25
f 30/30/30 25/25/25 29/29/29
f 30/30/30 29/29/29 31/31/31
f 32/32/32 31/31/31 29/29/29
f 35/35/35 34/34/34 33/33/33
f 34/34/34 36/36/36 33/33/33
f 36/36/36 37/37/37 33/33/33
f 38/38/38 36/36/36 34/34/34
f 39/39/39 38/38/38 34/34/34
f 40/40/40 38/38/38 39/39/39
f 41/41/41 36/36/36 38/38/38
f 42/42/42 41/41/41 38/38/38
f 43/43/43 36/36/36 41/41/41
f 44/44/44 36/36/36 43/43/43
f 47/47/47 46/46/46 45/45/45
f 46/46/46 48/48/48 45/45/45
f 48/48/48 49/49/49 45/45/45
f 49/49/49 50/50/50 45/45/45
f 51/51/51 48/48/48 46/46/46
f 52/52/52 48/48/48 51/51/51
f 53/53/53 51/51/51 46/46/46
f 54/54/54 51/51/51 53/53/53
f 55/55/55 53/53/53 46/46/46
f 56/56/56 55/55/55 46/46/46
f 59/59/59 58/58/58 57/57/57
f 58/58/58 60/60/60 57/57/57
f 60/60/60 61/61/61 57/57/57
f 61/61/61 62/62/62 57/57/57
f 63/63/63 61/61/61 60/60/60
f 64/64/64 61/61/61 63/63/63
f 67/67/67 66/66/66 65/65/65
f 66/66/66 68/68/68 65/65/65
f 68/68/68 69/69/69 65/65/65
f 70/70/70 68/68/68 66/66/66
f 71/71/71 70/70/70 66/66/66
f 72/72/72 68/68/68 70/70/70
f 75/75/75 74/74/74 73/73/73
f 76/76/76 73/73/73 74/74/74
f 79/79/79 78/78/78 77/77/77
f 80/80/80 77/77/77 78/78/78
f 83/83/83 82/82/82 81/81/81
f 84/84/84 81/81/81 82/82/82
f 87/87/87 86/86/86 85/85/85
f 88/88/88 85/85/85 86/86/86
f 91/91/91 90/90/90 89/89/89
f 89/89/89 92/92/92 91/91/91
f 89/89/89 93/93/93 92/92/92
f 94/94/94 92/92/92 93/93/93
f 95/95/95 91/91/91 92/92/92
f 96/96/96 95/95/95 92/92/92
f 95/95/95 97/97/97 91/91/91
f 98/98/98 91/91/91 97/97/97
f 97/97/97 99/99/99 98/98/98
f 100/100/100 98/98/98 99/99/99
f 100/100/100 99/99/99 101/101/101
f 102/102/102 101/101/101 99/99/99
f 101/101/101 102/102/102 103/103/103
f 104/104/104 103/103/103 102/102/102
f 103/103/103 104/104/104 105/105/105
f 106/106/106 105/105/105 104/104/104
f 106/106/106 107/107/107 105/105/105
f 106/106/106 108/108/108 107/107/107
f 109/109/109 105/105/105 107/107/107
f 110/110/110 105/105/105 109/109/109
f 107/107/107 111/111/111 109/109/109
f 112/112/112 109/109/109 111/111/111
f 115/115/115 114/114/114 113/113/113
f 114/114/114 116/116/116 113/113/113
f 116/116/116 117/117/117 113/113/113
f 120/120/120 119/119/119 118/118/118
f 119/119/119 121/121/121 118/118/118
f 121/121/121 122/122/122 118/118/118
f 123/123/123 121/121/121 119/119/119
f 124/124/124 123/123/123 119/119/119
f 125/125/125 121/121/121 123/123/123
f 128/128/128 127/127/127 126/126/126
f 129/129/129 126/126/126 127/127/127
f 132/132/132 131/131/131 130/130/130
f 133/133/133 130/130/130 131/131/131
f 136/136/136 135/135/135 134/134/134
f 137/137/137 134/134/134 135/135/135
f 140/140/140 139/139/139 138/138/138
f 141/141/141 138/138/138 139/139/139
f 144/144/144 143/143/143 142/142/142
f 145/145/145 142/142/142 143/143/143
f 148/148/148 147/147/147 146/146/146
f 149/149/149 146/146/146 147/147/147
f 152/152/152 151/151/151 150/150/150
f 151/151/151 153/153/153 150/150/150
f 153/153/153 154/154/154 150/150/150
f 154/154/154 155/155/155 150/150/150
f 156/156/156 154/154/154 153/153/153
f 157/157/157 154/154/154 156/156/156
f 160/160/160 159/159/159 158/158/158
f 159/159/159 161/161/161 158/158/158
f 162/162/162 161/161/161 159/159/159
f 161/161/161 163/163/163 158/158/158
f 163/163/163 164/164/164 158/158/158
f 165/165/165 163/163/163 161/161/161
f 168/168/168 167/167/167 166/166/166
f 169/169/169 166/166/166 167/167/167
f 172/172/172 171/171/171 170/170/170
f 173/173/173 170/170/170 171/171/171
f 176/176/176 175/175/175 174/174/174
f 177/177/177 174/174/174 175/175/175
f 180/180/180 179/179/179 178/178/178
f 181/181/181 178/178/178 179/179/179
f 184/184/184 183/183/183 182/182/182
f 183/183/183 185/185/185 182/182/182
f 186/186/186 185/185/185 183/183/183
f 189/189/189 188/188/188 187/187/187
f 188/188/188 190/190/190 187/187/187
f 191/191/191 190/190/190 188/188/188
f 190/190/190 192/192/192 187/187/187
f 192/192/192 193/193/193 187/187/187
f 194/194/194 192/192/192 190/190/190
f 197/197/197 196/196/196 195/195/195
f 198/198/198 195/195/195 196/196/196
f 201/201/201 200/200/200 199/199/199
f 202/202/202 199/199/199 200/200/200
f 205/205/205 204/204/204 203/203/203
f 206/206/206 203/203/203 204/204/204
f 209/209/209 208/208/208 207/207/207
f 210/210/210 207/207/207 208/208/208
f 213/213/213 212/212/212 211/211/211
f 214/214/214 211/211/211 212/212/212
f 217/217/217 216/216/216 215/215/215
f 218/218/218 215/215/215 216/216/216
