g ItemBox_CartonBox_01
v -0.26732826 -0.44357538 0.598254
v -0.2673009 -0.44349378 -5.0922165E-05
v -0.26729897 0.44349167 0.00024139
v -0.26732826 0.44357502 0.5982542
v -0.26732826 0.44357502 0.5982542
v 0.26738155 0.44357505 0.59814847
v 0.26738155 -0.44357538 0.59814835
v -0.26732826 -0.44357538 0.598254
v -0.26732826 0.44357502 0.5982542
v -0.26729897 0.44349167 0.00024139
v 0.26584488 0.43811506 0.0001850842
v 0.26738155 0.44357505 0.59814847
v -0.2673009 -0.44349378 -5.0922165E-05
v 0.26605654 -0.4431778 5.508832E-05
v 0.26584488 0.43811506 0.0001850842
v -0.26729897 0.44349167 0.00024139
v 0.26738155 -0.44357538 0.59814835
v 0.26738155 0.44357505 0.59814847
v 0.26584488 0.43811506 0.0001850842
v 0.26605654 -0.4431778 5.508832E-05
v -0.26732826 -0.44357538 0.598254
v 0.26738155 -0.44357538 0.59814835
v 0.26605654 -0.4431778 5.508832E-05
v -0.2673009 -0.44349378 -5.0922165E-05
vt 0.41503906 0.16711426
vt 0.41455078 0.002483368
vt 0.16918945 0.0026111603
vt 0.16906738 0.16723633
vt 0.16906738 0.16723633
vt 0.16882324 0.31469727
vt 0.41479492 0.31469727
vt 0.41503906 0.16711426
vt 0.16906738 0.16723633
vt 0.0032672882 0.16601562
vt 0.002702713 0.31396484
vt 0.16882324 0.31469727
vt 0.8359375 0.39794922
vt 0.83691406 0.25048828
vt 0.5932617 0.2512207
vt 0.5913086 0.39794922
vt 0.41479492 0.31469727
vt 0.16882324 0.31469727
vt 0.17053223 0.4802246
vt 0.41430664 0.4802246
vt 0.41503906 0.16711426
vt 0.41479492 0.31469727
vt 0.5800781 0.31469727
vt 0.5805664 0.16699219
vn -1 0 0
vn -1 0 -4.7385693E-05
vn -1 0 -4.7326088E-05
vn -1 0 0
vn 0.00019073486 0 1
vn 0.00019073486 0 1
vn 0.00019073486 0 1
vn 0.00019073486 0 1
vn 0.0049591064 1 -0.0045776367
vn 0.0049591064 1 -0.0046424866
vn 0.0049591064 1 -0.0046424866
vn 0.0049591064 1 -0.0045776367
vn -0 0.00038146973 -1
vn -0 0.00038146973 -1
vn -0 0.00038146973 -1
vn -0 0.00038146973 -1
vn 1 0 -0.0022888184
vn 1 0 -0.0022888184
vn 1 0 -0.0023937225
vn 1 0 -0.0023937225
vn 0.00038146973 -1 -0.00038146973
vn 0.00038146973 -1 -0.00038146973
vn 0.00038146973 -1 -0.00040102005
vn 0.00038146973 -1 -0.00040102005
g ItemBox_CartonBox_01_0
f 3/3/3 2/2/2 1/1/1
f 4/4/4 3/3/3 1/1/1
f 7/7/7 6/6/6 5/5/5
f 8/8/8 7/7/7 5/5/5
f 11/11/11 10/10/10 9/9/9
f 12/12/12 11/11/11 9/9/9
f 15/15/15 14/14/14 13/13/13
f 16/16/16 15/15/15 13/13/13
f 19/19/19 18/18/18 17/17/17
f 20/20/20 19/19/19 17/17/17
f 23/23/23 22/22/22 21/21/21
f 24/24/24 23/23/23 21/21/21
