g Fx_Fbx_UISkillGlow_01
v -1.2003666 0.31537274 -5.2824742E-08
v -1.2003666 0.6406351 1.1416219E-07
v -2.838328E-08 1.3461205 1.6770109E-07
v -2.3359015E-09 0.97957927 3.8839887E-09
v 1.2003666 0.68626297 1.6663186E-07
v 1.2003666 0.3153728 -3.550647E-10
v -1.1775804 -1.4217625 -2.7071172E-07
v -1.1775804 0.101235904 -1.3224617E-07
v -1.5899731E-08 0.7274869 -7.913504E-08
v 3.004199E-08 -1.4217625 -2.4497487E-07
v 1.1775804 0.101235956 -8.07725E-08
v 1.1775804 -1.4217625 -2.1923805E-07
vt 0.008165269 0.616661
vt 0.008165269 0.75276977
vt 0.5 1
vt 0.5 0.86389124
vt 0.99183476 0.75276977
vt 0.99183476 0.616661
vt 0.008165269 0.016349768
vt 0.008165269 0.55206543
vt 0.5 0.7863331
vt 0.5 0.016349768
vt 0.99183476 0.55206543
vt 0.99183476 0.016349768
vn 2.2689177E-07 -4.7817633E-07 1
vn 2.2689177E-07 -4.7817633E-07 1
vn -0 -4.6318135E-07 1
vn -0 -4.6338297E-07 1
vn -2.4519724E-07 -4.485896E-07 1
vn -2.4519724E-07 -4.4858965E-07 1
vn -0 0 1
vn -0 0 1
vn -0 0 1
vn -0 0 1
vn -0 0 1
vn -0 0 1
g Fx_Fbx_UISkillGlow_01_0
f 3/3/3 2/2/2 1/1/1
f 4/4/4 3/3/3 1/1/1
f 3/3/3 4/4/4 5/5/5
f 4/4/4 6/6/6 5/5/5
f 9/9/9 8/8/8 7/7/7
f 10/10/10 9/9/9 7/7/7
f 11/11/11 9/9/9 10/10/10
f 12/12/12 11/11/11 10/10/10
