g Fx_Fbx_MoveTarget_02
v 0.10167755 0.119369544 0.12630248
v 0.0914493 -0.11397479 0.065525316
v 0.0914493 0.11397488 0.065525346
v 0.10167749 -0.119369484 0.12630244
v 0.118397616 0.12816094 0.18614817
v 0.118397616 -0.12816095 0.18614809
v 0.14290565 0.13955145 0.24414533
v 0.1429056 -0.13955157 0.24414529
v 0.17683032 0.1526743 0.2970038
v 0.17683032 -0.15267436 0.29700375
v 0.2219308 0.16658732 0.34244004
v 0.2219308 -0.16658744 0.34243995
v 0.2796259 0.18018776 0.3789996
v 0.2796259 -0.18018793 0.3789995
v 0.35045084 0.19226085 0.40656692
v 0.35045084 -0.19226098 0.40656683
v 0.43214116 0.20096616 0.4240133
v 0.43214116 -0.20096643 0.4240132
v 0.51995534 0.2047564 0.4173632
v 0.5199552 -0.20475654 0.41736338
v 0.61963224 0.20690483 0.4030897
v 0.61963224 -0.20690505 0.40308964
v -0.15421583 0.028370561 0.12630248
v 0.052980423 0.1361848 0.065525316
v -0.14442977 0.022209968 0.065525346
v 0.05253826 0.14774004 0.12630244
v -0.17018944 0.038454864 0.18614817
v 0.05179182 0.16661583 0.18614809
v -0.19230792 0.053984202 0.24414533
v 0.04940239 0.19353567 0.24414529
v -0.22063501 0.0768024 0.2970038
v 0.043804713 0.22947676 0.29700375
v -0.25523424 0.108904034 0.34244004
v 0.033303536 0.27549145 0.34243995
v -0.2958601 0.15206924 0.3789996
v 0.01623435 0.33225712 0.3789995
v -0.3417282 0.20736893 0.40656692
v -0.008722544 0.39962986 0.40656683
v -0.39011246 0.27376214 0.4240133
v -0.042028584 0.47472847 0.4240132
v -0.43730193 0.34791636 0.4173632
v -0.08265327 0.5526727 0.41736338
v -0.489001 0.43316486 0.4030897
v -0.13063113 0.6400698 0.40308964
v 0.052538298 -0.1477401 0.12630248
v -0.1444297 -0.022210022 0.065525316
v 0.052980497 -0.13618483 0.065525346
v -0.15421574 -0.028370565 0.12630244
v 0.051791828 -0.16661578 0.18614817
v -0.17018944 -0.038454883 0.18614809
v 0.049402285 -0.19353564 0.24414533
v -0.19230798 -0.053984124 0.24414529
v 0.043804694 -0.22947669 0.2970038
v -0.22063501 -0.076802395 0.29700375
v 0.033303488 -0.2754914 0.34244004
v -0.25523433 -0.108904004 0.34243995
v 0.016234254 -0.33225697 0.3789996
v -0.29586023 -0.1520692 0.3789995
v -0.008722629 -0.39962977 0.40656692
v -0.34172827 -0.20736891 0.40656683
v -0.042028725 -0.47472826 0.4240133
v -0.3901126 -0.27376205 0.4240132
v -0.08265339 -0.55267274 0.4173632
v -0.43730193 -0.3479162 0.41736335
v -0.1306312 -0.64006966 0.4030897
v -0.48900107 -0.43316475 0.40308964
vt -0.03340543 -5.844049E-08
vt -0.1508669 1
vt -0.15086688 -5.844049E-08
vt -0.033405438 1
vt 0.08256403 -5.844049E-08
vt 0.08256404 1
vt 0.19645767 -5.844049E-08
vt 0.1964576 1
vt 0.3080877 -5.844049E-08
vt 0.3080877 1
vt 0.4177992 -5.844049E-08
vt 0.41779912 1
vt 0.52661264 0
vt 0.5266126 1
vt 0.6363328 0
vt 0.6363328 1
vt 0.7495621 0
vt 0.749562 1
vt 0.86956364 0
vt 0.8695636 1
vt 1 0
vt 1 1
vt -0.03340543 -5.844049E-08
vt -0.1508669 1
vt -0.15086688 -5.844049E-08
vt -0.033405438 1
vt 0.08256403 -5.844049E-08
vt 0.08256404 1
vt 0.19645767 -5.844049E-08
vt 0.1964576 1
vt 0.3080877 -5.844049E-08
vt 0.3080877 1
vt 0.4177992 -5.844049E-08
vt 0.41779912 1
vt 0.52661264 0
vt 0.5266126 1
vt 0.6363328 0
vt 0.6363328 1
vt 0.7495621 0
vt 0.749562 1
vt 0.86956364 0
vt 0.8695636 1
vt 1 0
vt 1 1
vt -0.03340543 -5.844049E-08
vt -0.1508669 1
vt -0.15086688 -5.844049E-08
vt -0.033405438 1
vt 0.08256403 -5.844049E-08
vt 0.08256404 1
vt 0.19645767 -5.844049E-08
vt 0.1964576 1
vt 0.3080877 -5.844049E-08
vt 0.3080877 1
vt 0.4177992 -5.844049E-08
vt 0.41779912 1
vt 0.52661264 0
vt 0.5266126 1
vt 0.6363328 0
vt 0.6363328 1
vt 0.7495621 0
vt 0.749562 1
vt 0.86956364 0
vt 0.8695636 1
vt 1 0
vt 1 1
vn -0.9751593 0 0.22150493
vn -0.986133 0 0.16595703
vn -0.986133 0 0.165957
vn -0.9751593 0 0.22150493
vn -0.94190663 0 0.33587503
vn -0.94190663 0 0.33587503
vn -0.8796833 0 0.4755599
vn -0.8796834 0 0.4755599
vn -0.7710767 0 0.63674223
vn -0.77107674 0 0.63674223
vn -0.61482096 -1.6965431E-07 0.7886667
vn -0.6148209 -1.696543E-07 0.7886667
vn -0.4411827 -1.8894991E-07 0.8974173
vn -0.44118267 -1.889499E-07 0.89741737
vn -0.28017676 -1.9086659E-07 0.9599484
vn -0.28017676 -1.9086656E-07 0.9599484
vn -0.060511563 0 0.9981675
vn -0.06051153 0 0.9981675
vn 0.10937589 1.1892862E-07 0.99400043
vn 0.109375864 1.1892862E-07 0.99400043
vn 0.1417528 1.11583276E-07 0.989902
vn 0.14175281 1.1158326E-07 0.989902
vn 0.4875796 -0.8445127 0.221505
vn 0.49306646 -0.85401624 0.16595711
vn 0.49306646 -0.85401624 0.16595711
vn 0.48757958 -0.8445127 0.22150497
vn 0.47095335 -0.81571496 0.33587503
vn 0.47095335 -0.81571496 0.3358751
vn 0.43984172 -0.761828 0.47556004
vn 0.43984175 -0.76182795 0.47556007
vn 0.38553855 -0.66777194 0.63674223
vn 0.38553855 -0.66777194 0.63674223
vn 0.30741066 -0.53245044 0.78866667
vn 0.3074107 -0.53245044 0.7886667
vn 0.22059155 -0.3820753 0.8974173
vn 0.22059155 -0.38207534 0.8974173
vn 0.14008857 -0.24264011 0.9599484
vn 0.14008856 -0.24264008 0.9599484
vn 0.03025577 -0.05240448 0.9981675
vn 0.03025578 -0.052404486 0.9981675
vn -0.054688048 0.09472224 0.99400043
vn -0.054688036 0.09472222 0.99400043
vn -0.070876494 0.122761466 0.989902
vn -0.070876494 0.12276148 0.989902
vn 0.48757958 0.8445127 0.22150497
vn 0.4930665 0.85401624 0.16595708
vn 0.4930665 0.85401624 0.16595711
vn 0.48757952 0.8445127 0.221505
vn 0.47095323 0.8157151 0.33587515
vn 0.47095323 0.8157151 0.33587515
vn 0.43984163 0.76182824 0.47555983
vn 0.4398416 0.7618282 0.47555983
vn 0.38553825 0.6677722 0.6367422
vn 0.38553825 0.6677722 0.6367422
vn 0.3074103 0.5324507 0.7886667
vn 0.30741027 0.5324507 0.7886667
vn 0.22059114 0.38207555 0.8974173
vn 0.22059113 0.38207555 0.8974173
vn 0.14008819 0.2426403 0.9599484
vn 0.14008817 0.24264027 0.9599484
vn 0.030255686 0.052404482 0.9981675
vn 0.030255653 0.05240442 0.9981675
vn -0.054687887 -0.094722375 0.99400043
vn -0.054687876 -0.09472237 0.99400043
vn -0.07087626 -0.12276145 0.989902
vn -0.07087626 -0.12276145 0.989902
g Fx_Fbx_MoveTarget_02_0
f 3/3/3 2/2/2 1/1/1
f 2/2/2 4/4/4 1/1/1
f 1/1/1 4/4/4 5/5/5
f 4/4/4 6/6/6 5/5/5
f 5/5/5 6/6/6 7/7/7
f 6/6/6 8/8/8 7/7/7
f 7/7/7 8/8/8 9/9/9
f 8/8/8 10/10/10 9/9/9
f 9/9/9 10/10/10 11/11/11
f 10/10/10 12/12/12 11/11/11
f 11/11/11 12/12/12 13/13/13
f 12/12/12 14/14/14 13/13/13
f 13/13/13 14/14/14 15/15/15
f 14/14/14 16/16/16 15/15/15
f 15/15/15 16/16/16 17/17/17
f 16/16/16 18/18/18 17/17/17
f 17/17/17 18/18/18 19/19/19
f 18/18/18 20/20/20 19/19/19
f 19/19/19 20/20/20 21/21/21
f 20/20/20 22/22/22 21/21/21
f 25/25/25 24/24/24 23/23/23
f 24/24/24 26/26/26 23/23/23
f 23/23/23 26/26/26 27/27/27
f 26/26/26 28/28/28 27/27/27
f 27/27/27 28/28/28 29/29/29
f 28/28/28 30/30/30 29/29/29
f 29/29/29 30/30/30 31/31/31
f 30/30/30 32/32/32 31/31/31
f 31/31/31 32/32/32 33/33/33
f 32/32/32 34/34/34 33/33/33
f 33/33/33 34/34/34 35/35/35
f 34/34/34 36/36/36 35/35/35
f 35/35/35 36/36/36 37/37/37
f 36/36/36 38/38/38 37/37/37
f 37/37/37 38/38/38 39/39/39
f 38/38/38 40/40/40 39/39/39
f 39/39/39 40/40/40 41/41/41
f 40/40/40 42/42/42 41/41/41
f 41/41/41 42/42/42 43/43/43
f 42/42/42 44/44/44 43/43/43
f 47/47/47 46/46/46 45/45/45
f 46/46/46 48/48/48 45/45/45
f 45/45/45 48/48/48 49/49/49
f 48/48/48 50/50/50 49/49/49
f 49/49/49 50/50/50 51/51/51
f 50/50/50 52/52/52 51/51/51
f 51/51/51 52/52/52 53/53/53
f 52/52/52 54/54/54 53/53/53
f 53/53/53 54/54/54 55/55/55
f 54/54/54 56/56/56 55/55/55
f 55/55/55 56/56/56 57/57/57
f 56/56/56 58/58/58 57/57/57
f 57/57/57 58/58/58 59/59/59
f 58/58/58 60/60/60 59/59/59
f 59/59/59 60/60/60 61/61/61
f 60/60/60 62/62/62 61/61/61
f 61/61/61 62/62/62 63/63/63
f 62/62/62 64/64/64 63/63/63
f 63/63/63 64/64/64 65/65/65
f 64/64/64 66/66/66 65/65/65
