g Fx_Fbx_Stun_01
v 2.3100808 0.00059603795 0.11780882
v 2.5229921 -0.005164855 -0.06884029
v 2.4988422 -0.3970403 -0.08429279
v 2.2869747 -0.37434694 0.10302402
v 2.410235 -0.7911016 -0.100145645
v 2.205793 -0.73540336 0.088502996
v 2.2597303 -1.167039 -0.1159934
v 2.0677946 -1.0801116 0.07397575
v 2.050846 -1.5151724 -0.13183619
v 1.8761259 -1.3995601 0.059442393
v 1.7886103 -1.8264751 -0.14767385
v 1.6353222 -1.6854267 0.044902857
v 1.4794389 -2.092818 -0.16350637
v 1.3512055 -1.9301908 0.030357113
v 1.1309739 -2.3071804 -0.17933391
v 1.0307455 -2.1273298 0.015805358
v 0.7519034 -2.463828 -0.19515644
v 0.6818837 -2.271498 0.0012475585
v 0.35173926 -2.5584717 -0.21097392
v 0.31334013 -2.3586671 -0.013316278
v -0.05941821 -2.5883827 -0.22678635
v -0.06560605 -2.386239 -0.027886162
v -0.47114006 -2.5524716 -0.24259377
v -0.44534767 -2.353121 -0.042461976
v -0.8729276 -2.4513214 -0.25839618
v -0.81619656 -2.2597637 -0.057043828
v -1.254483 -2.287185 -0.27419347
v -1.168628 -2.1081598 -0.07163157
v -1.6059783 -2.0639305 -0.28998587
v -1.4935237 -1.9018044 -0.08622518
v -1.9182972 -1.7869555 -0.30577335
v -1.7824147 -1.6456114 -0.10082458
v -2.1832764 -1.4630604 -0.3215556
v -2.0276964 -1.3457997 -0.11542997
v -2.3939285 -1.1002661 -0.3373331
v -2.222826 -1.0097457 -0.13004105
v -2.5446095 -0.7076359 -0.35310555
v -2.362505 -0.64579296 -0.14465798
v -2.631182 -0.2950295 -0.3688731
v -2.4428134 -0.26305875 -0.15928058
v -2.6511214 0.12712665 -0.38463572
v -2.4613261 0.12881036 -0.17390892
v -2.6035922 0.54811096 -0.40039328
v -2.4171796 0.51987 -0.18854298
v -2.4894764 0.95718724 -0.41614592
v -2.3111055 0.9001322 -0.20318267
v -2.3113587 1.3438653 -0.4318937
v -2.1454227 1.2598238 -0.21782807
v -2.0734677 1.6981767 -0.44763666
v -1.923986 1.5896356 -0.23247907
v -1.7815816 2.010928 -0.4633746
v -1.6521004 1.8809624 -0.24713553
v -1.4428803 2.2739441 -0.4791077
v -1.3363895 2.1261306 -0.26179764
v -1.0657749 2.4802785 -0.4948359
v -0.9846404 2.3185956 -0.27646527
v -0.6596944 2.6243975 -0.5105592
v -0.6056055 2.4531207 -0.29113838
v -0.23485544 2.7023273 -0.5262777
v -0.20878941 2.5259142 -0.30581692
v 0.19800317 2.7117646 -0.5419916
v 0.19578658 2.5347388 -0.3205008
v 0.62787545 2.6521416 -0.5577005
v 0.59784836 2.478978 -0.3351902
v 1.0437969 2.5246491 -0.57340467
v 0.9871179 2.3596592 -0.34988487
v 1.4350908 2.3322165 -0.5891038
v 1.3535851 2.1794403 -0.36458492
v 1.7916644 2.0794427 -0.60479826
v 1.6877583 1.942551 -0.37929034
v 2.104266 1.7724847 -0.620488
v 1.9809148 1.6546926 -0.39400107
v 2.364715 1.4189167 -0.63617283
v 2.2253268 1.3229028 -0.40871704
v 2.5661287 1.0275329 -0.65185297
v 2.4144638 0.9553831 -0.42343825
v 2.703095 0.60813373 -0.6675285
v 2.5431664 0.5613007 -0.4381646
v 2.7718213 0.17127827 -0.68319935
v 2.6077898 0.15054962 -0.45289606
v 2.7702367 -0.27197322 -0.6988655
v 2.6063035 -0.26648876 -0.46763274
v 2.698056 -0.71035117 -0.71452665
v 2.5383508 -0.67920864 -0.48237455
v 2.5567906 -1.1326619 -0.7301833
v 2.405273 -1.0770555 -0.49712148
v 2.3497245 -1.5280588 -0.74583524
v 2.210079 -1.4497916 -0.5118735
v 2.0818317 -1.8863413 -0.7614826
v 1.9573839 -1.7877551 -0.52663046
v 1.7596616 -2.1982064 -0.77712536
v 1.6532997 -2.082118 -0.54139245
v 1.3911766 -2.45549 -0.79276353
v 1.3052801 -2.3251173 -0.5561594
v 0.9855621 -2.651382 -0.808397
v 0.9219479 -2.5102527 -0.5709313
v 0.552988 -2.78061 -0.8240258
v 0.5128766 -2.6324632 -0.5857083
v 0.1043544 -2.8395777 -0.83965003
v 0.08836038 -2.6882644 -0.60049
v -0.3489752 -2.8264608 -0.85526973
v -0.34086514 -2.6758492 -0.6152766
v -0.79546154 -2.7412686 -0.870885
v -0.7638751 -2.5951407 -0.630068
v -1.223696 -2.5858464 -0.8864955
v -1.1698455 -2.4478035 -0.6448643
v -1.6226779 -2.363841 -0.9021016
v -1.5483161 -2.2372158 -0.65966547
v -1.9821091 -2.0806108 -0.9177031
v -1.8894764 -1.9683882 -0.6744712
v -2.2926495 -1.7430997 -0.93330014
v -2.1844127 -1.6478429 -0.68928176
v -2.546163 -1.3596716 -0.94889265
v -2.425334 -1.2834675 -0.7040971
v -2.7359362 -0.9398914 -0.9644806
v -2.6057897 -0.88430774 -0.7189169
v -2.8568468 -0.4942971 -0.98006415
v -2.720835 -0.46034542 -0.7337416
v -2.9055078 -0.034137145 -0.9956431
v -2.7671652 -0.022259988 -0.7485709
v -2.880359 0.42893505 -1.0112178
v -2.7432122 0.41885498 -0.76340467
v -2.7817142 0.8831204 -1.0267881
v -2.649194 0.85176015 -0.77824306
v -2.6117663 1.3168042 -1.042354
v -2.4871166 1.2653707 -0.79308605
v -2.3784003 1.712293 -1.0576601
v -2.259203 1.6516192 -0.8080345
vt 2.2351742E-08 1
vt 7.450581E-09 5.9604645E-08
vt 0.014558919 5.9604645E-08
vt 0.014558926 1
vt 0.029160209 5.9604645E-08
vt 0.029160224 1
vt 0.0438039 5.9604645E-08
vt 0.043803908 1
vt 0.058489963 5.9604645E-08
vt 0.05848998 1
vt 0.07321842 5.9604645E-08
vt 0.073218435 1
vt 0.08798926 5.9604645E-08
vt 0.08798928 1
vt 0.10280249 5.9604645E-08
vt 0.10280251 1
vt 0.117658116 5.9604645E-08
vt 0.11765813 1
vt 0.13255613 5.9604645E-08
vt 0.13255613 1
vt 0.14749652 5.9604645E-08
vt 0.14749652 1
vt 0.1624793 5.9604645E-08
vt 0.1624793 1
vt 0.17750448 5.9604645E-08
vt 0.17750448 1
vt 0.19257204 5.9604645E-08
vt 0.19257204 1
vt 0.20768197 5.9604645E-08
vt 0.20768197 1
vt 0.22283433 5.9604645E-08
vt 0.22283433 1
vt 0.23802903 5.9604645E-08
vt 0.23802903 1
vt 0.25326613 5.9604645E-08
vt 0.25326616 1
vt 0.26854566 5.9604645E-08
vt 0.2685457 1
vt 0.28386754 5.9604645E-08
vt 0.28386757 1
vt 0.29923183 5.9604645E-08
vt 0.29923186 1
vt 0.3146385 5.9604645E-08
vt 0.31463853 1
vt 0.33008757 5.9604645E-08
vt 0.3300876 1
vt 0.345579 5.9604645E-08
vt 0.34557903 1
vt 0.3611129 5.9604645E-08
vt 0.36111292 1
vt 0.37668914 5.9604645E-08
vt 0.37668917 1
vt 0.39230776 5.9604645E-08
vt 0.3923078 1
vt 0.40796876 5.9604645E-08
vt 0.4079688 1
vt 0.42367217 5.9604645E-08
vt 0.4236722 1
vt 0.43941802 5.9604645E-08
vt 0.43941805 1
vt 0.45520625 5.9604645E-08
vt 0.45520627 1
vt 0.47103682 5.9604645E-08
vt 0.47103685 1
vt 0.48690984 5.9604645E-08
vt 0.48690987 1
vt 0.50282526 5.9604645E-08
vt 0.50282526 1
vt 0.518783 5.9604645E-08
vt 0.518783 1
vt 0.5347831 5.9604645E-08
vt 0.5347831 1
vt 0.5508257 5.9604645E-08
vt 0.5508257 1
vt 0.5669106 5.9604645E-08
vt 0.5669106 1
vt 0.583038 5.9604645E-08
vt 0.583038 1
vt 0.59920776 5.9604645E-08
vt 0.59920776 1
vt 0.61541986 5.9604645E-08
vt 0.61541986 1
vt 0.6316744 5.9604645E-08
vt 0.6316744 1
vt 0.6479713 5.9604645E-08
vt 0.6479713 1
vt 0.6643107 5.9604645E-08
vt 0.6643107 1
vt 0.68069243 5.9604645E-08
vt 0.68069243 1
vt 0.6971164 0
vt 0.6971164 1
vt 0.713583 0
vt 0.713583 1
vt 0.7300918 0
vt 0.7300918 1
vt 0.7466432 0
vt 0.7466432 1
vt 0.7632369 0
vt 0.7632369 1
vt 0.7798729 0
vt 0.7798729 1
vt 0.79655135 0
vt 0.79655135 1
vt 0.81327236 0
vt 0.81327236 1
vt 0.83003557 0
vt 0.83003557 1
vt 0.8468412 0
vt 0.8468412 1
vt 0.8636893 0
vt 0.8636893 1
vt 0.8805798 0
vt 0.8805798 1
vt 0.8975127 0
vt 0.8975127 1
vt 0.91448796 0
vt 0.91448796 1
vt 0.93150556 0
vt 0.93150556 1
vt 0.9485656 0
vt 0.9485656 1
vt 0.9656681 0
vt 0.9656681 1
vt 0.9828129 0
vt 0.9828129 1
vt 1 0
vt 1 1
vn 0.656515 -0.07007387 0.7510511
vn 0.656515 -0.07007387 0.75105107
vn 0.6500036 -0.12237076 0.7500139
vn 0.6500036 -0.12237024 0.7500139
vn 0.62685615 -0.22528917 0.74585265
vn 0.62685627 -0.22528888 0.7458526
vn 0.58737034 -0.32391497 0.7416705
vn 0.58737034 -0.32391503 0.7416705
vn 0.5323283 -0.41564748 0.7374712
vn 0.53232867 -0.415647 0.7374713
vn 0.46293133 -0.4980275 0.73325527
vn 0.4629318 -0.49802697 0.73325527
vn 0.38077098 -0.56880546 0.7290225
vn 0.3807709 -0.5688056 0.7290225
vn 0.28778905 -0.62600386 0.72477347
vn 0.28778905 -0.62600386 0.72477347
vn 0.1862349 -0.66796994 0.7205087
vn 0.18623497 -0.6679699 0.7205087
vn 0.07860983 -0.6934245 0.7162282
vn 0.07861025 -0.6934245 0.7162282
vn -0.03239485 -0.7015001 0.7119327
vn -0.032394454 -0.7015002 0.7119326
vn -0.14396799 -0.69176865 0.70762235
vn -0.14396743 -0.69176877 0.7076224
vn -0.25324693 -0.66425765 0.7032978
vn -0.25324655 -0.66425776 0.7032978
vn -0.35739353 -0.61945677 0.69895864
vn -0.35739386 -0.6194566 0.6989586
vn -0.45367023 -0.55830693 0.6946054
vn -0.45367026 -0.5583069 0.6946054
vn -0.5395074 -0.4821846 0.69023895
vn -0.53950703 -0.48218492 0.690239
vn -0.61257637 -0.3928709 0.68585896
vn -0.6125766 -0.39287055 0.68585896
vn -0.6708533 -0.29250604 0.68146604
vn -0.6708534 -0.29250595 0.68146604
vn -0.712672 -0.1835426 0.6770604
vn -0.7126722 -0.18354169 0.67706037
vn -0.7367738 -0.06868123 0.672642
vn -0.7367737 -0.06868115 0.67264205
vn -0.74234253 0.04919394 0.6682122
vn -0.7423426 0.049193386 0.6682121
vn -0.7290338 0.16708867 0.6637703
vn -0.7290338 0.16708864 0.6637703
vn -0.6969863 0.28197762 0.65931696
vn -0.6969863 0.28197768 0.65931696
vn -0.64682335 0.3908812 0.6548522
vn -0.6468233 0.39088136 0.6548522
vn -0.5796434 0.49094188 0.6503765
vn -0.5796434 0.4909418 0.65037656
vn -0.49699488 0.5795014 0.6458903
vn -0.49699518 0.57950115 0.6458903
vn -0.4008406 0.65417194 0.6413937
vn -0.400841 0.6541716 0.6413937
vn -0.29351243 0.71289915 0.63688713
vn -0.293513 0.7128989 0.63688713
vn -0.17765214 0.7540206 0.63237065
vn -0.1776528 0.75402045 0.6323706
vn -0.0561483 0.7763113 0.62784404
vn -0.05614836 0.7763112 0.6278441
vn 0.06793889 0.7790197 0.62330776
vn 0.06793805 0.7790198 0.6233079
vn 0.19145212 0.761892 0.6187621
vn 0.19145232 0.761892 0.618762
vn 0.31122196 0.7251825 0.61420774
vn 0.3112216 0.7251826 0.61420774
vn 0.42414346 0.6696524 0.6096457
vn 0.42414322 0.6696526 0.6096457
vn 0.52726233 0.5965556 0.6050751
vn 0.5272623 0.5965557 0.6050751
vn 0.6178493 0.50760853 0.60049635
vn 0.6178489 0.5076089 0.60049635
vn 0.6934735 0.40495148 0.5959101
vn 0.6934734 0.4049516 0.59590995
vn 0.7520701 0.29109532 0.59131557
vn 0.7520703 0.2910948 0.5913155
vn 0.79199386 0.16886003 0.58671296
vn 0.7919939 0.16885951 0.58671296
vn 0.812065 0.04130552 0.5821033
vn 0.81206495 0.041305654 0.5821033
vn 0.81160545 -0.08834563 0.5774873
vn 0.81160545 -0.08834565 0.5774873
vn 0.7904601 -0.2167913 0.57286495
vn 0.79046005 -0.2167915 0.57286495
vn 0.74900424 -0.34073424 0.5682366
vn 0.7490045 -0.3407338 0.56823665
vn 0.6881393 -0.45696586 0.5636014
vn 0.6881391 -0.45696634 0.5636013
vn 0.60927206 -0.5624521 0.55895907
vn 0.60927135 -0.5624529 0.55895907
vn 0.51428103 -0.65441126 0.5543113
vn 0.51428074 -0.65441144 0.55431116
vn 0.40547457 -0.7303874 0.54965866
vn 0.40547496 -0.73038715 0.5496587
vn 0.28553545 -0.7883171 0.5450007
vn 0.28553528 -0.7883171 0.5450007
vn 0.1574505 -0.82658666 0.5403369
vn 0.15744874 -0.82658696 0.5403368
vn 0.024434544 -0.84407514 0.5356679
vn 0.02443338 -0.84407526 0.5356679
vn -0.11014454 -0.84018636 0.5309945
vn -0.11014468 -0.8401863 0.5309945
vn -0.24285458 -0.81486934 0.52631706
vn -0.24285436 -0.81486934 0.5263172
vn -0.37028918 -0.7686236 0.52163553
vn -0.3702893 -0.7686236 0.5216356
vn -0.48915413 -0.7024895 0.5169496
vn -0.48915443 -0.70248926 0.5169496
vn -0.59635323 -0.6180233 0.5122597
vn -0.59635323 -0.6180234 0.5122597
vn -0.6890682 -0.5172636 0.50756615
vn -0.6890683 -0.5172635 0.5075661
vn -0.76483405 -0.40268072 0.5028689
vn -0.7648342 -0.40268028 0.50286883
vn -0.8216061 -0.27711284 0.49816856
vn -0.8216061 -0.27711284 0.49816856
vn -0.8578121 -0.14370106 0.4934657
vn -0.85781217 -0.1437008 0.49346563
vn -0.87239903 -0.005807104 0.4887598
vn -0.87239915 -0.0058056964 0.4887598
vn -0.8648619 0.13307531 0.48405048
vn -0.8648617 0.13307618 0.4840504
vn -0.835259 0.2694013 0.4793384
vn -0.8352589 0.26940146 0.4793385
vn -0.7842135 0.39967135 0.47462824
vn -0.78421336 0.39967167 0.4746282
vn -0.7515811 0.46171808 0.4711077
vn -0.7515811 0.46171808 0.47110772
g Fx_Fbx_Stun_01_0
f 3/3/3 2/2/2 1/1/1
f 4/4/4 3/3/3 1/1/1
f 5/5/5 3/3/3 4/4/4
f 6/6/6 5/5/5 4/4/4
f 7/7/7 5/5/5 6/6/6
f 8/8/8 7/7/7 6/6/6
f 9/9/9 7/7/7 8/8/8
f 10/10/10 9/9/9 8/8/8
f 11/11/11 9/9/9 10/10/10
f 12/12/12 11/11/11 10/10/10
f 13/13/13 11/11/11 12/12/12
f 14/14/14 13/13/13 12/12/12
f 15/15/15 13/13/13 14/14/14
f 16/16/16 15/15/15 14/14/14
f 17/17/17 15/15/15 16/16/16
f 18/18/18 17/17/17 16/16/16
f 19/19/19 17/17/17 18/18/18
f 20/20/20 19/19/19 18/18/18
f 21/21/21 19/19/19 20/20/20
f 22/22/22 21/21/21 20/20/20
f 23/23/23 21/21/21 22/22/22
f 24/24/24 23/23/23 22/22/22
f 25/25/25 23/23/23 24/24/24
f 26/26/26 25/25/25 24/24/24
f 27/27/27 25/25/25 26/26/26
f 28/28/28 27/27/27 26/26/26
f 29/29/29 27/27/27 28/28/28
f 30/30/30 29/29/29 28/28/28
f 31/31/31 29/29/29 30/30/30
f 32/32/32 31/31/31 30/30/30
f 33/33/33 31/31/31 32/32/32
f 34/34/34 33/33/33 32/32/32
f 35/35/35 33/33/33 34/34/34
f 36/36/36 35/35/35 34/34/34
f 37/37/37 35/35/35 36/36/36
f 38/38/38 37/37/37 36/36/36
f 39/39/39 37/37/37 38/38/38
f 40/40/40 39/39/39 38/38/38
f 41/41/41 39/39/39 40/40/40
f 42/42/42 41/41/41 40/40/40
f 43/43/43 41/41/41 42/42/42
f 44/44/44 43/43/43 42/42/42
f 45/45/45 43/43/43 44/44/44
f 46/46/46 45/45/45 44/44/44
f 47/47/47 45/45/45 46/46/46
f 48/48/48 47/47/47 46/46/46
f 49/49/49 47/47/47 48/48/48
f 50/50/50 49/49/49 48/48/48
f 51/51/51 49/49/49 50/50/50
f 52/52/52 51/51/51 50/50/50
f 53/53/53 51/51/51 52/52/52
f 54/54/54 53/53/53 52/52/52
f 55/55/55 53/53/53 54/54/54
f 56/56/56 55/55/55 54/54/54
f 57/57/57 55/55/55 56/56/56
f 58/58/58 57/57/57 56/56/56
f 59/59/59 57/57/57 58/58/58
f 60/60/60 59/59/59 58/58/58
f 61/61/61 59/59/59 60/60/60
f 62/62/62 61/61/61 60/60/60
f 63/63/63 61/61/61 62/62/62
f 64/64/64 63/63/63 62/62/62
f 65/65/65 63/63/63 64/64/64
f 66/66/66 65/65/65 64/64/64
f 67/67/67 65/65/65 66/66/66
f 68/68/68 67/67/67 66/66/66
f 69/69/69 67/67/67 68/68/68
f 70/70/70 69/69/69 68/68/68
f 71/71/71 69/69/69 70/70/70
f 72/72/72 71/71/71 70/70/70
f 73/73/73 71/71/71 72/72/72
f 74/74/74 73/73/73 72/72/72
f 75/75/75 73/73/73 74/74/74
f 76/76/76 75/75/75 74/74/74
f 77/77/77 75/75/75 76/76/76
f 78/78/78 77/77/77 76/76/76
f 79/79/79 77/77/77 78/78/78
f 80/80/80 79/79/79 78/78/78
f 81/81/81 79/79/79 80/80/80
f 82/82/82 81/81/81 80/80/80
f 83/83/83 81/81/81 82/82/82
f 84/84/84 83/83/83 82/82/82
f 85/85/85 83/83/83 84/84/84
f 86/86/86 85/85/85 84/84/84
f 87/87/87 85/85/85 86/86/86
f 88/88/88 87/87/87 86/86/86
f 89/89/89 87/87/87 88/88/88
f 90/90/90 89/89/89 88/88/88
f 91/91/91 89/89/89 90/90/90
f 92/92/92 91/91/91 90/90/90
f 93/93/93 91/91/91 92/92/92
f 94/94/94 93/93/93 92/92/92
f 95/95/95 93/93/93 94/94/94
f 96/96/96 95/95/95 94/94/94
f 97/97/97 95/95/95 96/96/96
f 98/98/98 97/97/97 96/96/96
f 99/99/99 97/97/97 98/98/98
f 100/100/100 99/99/99 98/98/98
f 101/101/101 99/99/99 100/100/100
f 102/102/102 101/101/101 100/100/100
f 103/103/103 101/101/101 102/102/102
f 104/104/104 103/103/103 102/102/102
f 105/105/105 103/103/103 104/104/104
f 106/106/106 105/105/105 104/104/104
f 107/107/107 105/105/105 106/106/106
f 108/108/108 107/107/107 106/106/106
f 109/109/109 107/107/107 108/108/108
f 110/110/110 109/109/109 108/108/108
f 111/111/111 109/109/109 110/110/110
f 112/112/112 111/111/111 110/110/110
f 113/113/113 111/111/111 112/112/112
f 114/114/114 113/113/113 112/112/112
f 115/115/115 113/113/113 114/114/114
f 116/116/116 115/115/115 114/114/114
f 117/117/117 115/115/115 116/116/116
f 118/118/118 117/117/117 116/116/116
f 119/119/119 117/117/117 118/118/118
f 120/120/120 119/119/119 118/118/118
f 121/121/121 119/119/119 120/120/120
f 122/122/122 121/121/121 120/120/120
f 123/123/123 121/121/121 122/122/122
f 124/124/124 123/123/123 122/122/122
f 125/125/125 123/123/123 124/124/124
f 126/126/126 125/125/125 124/124/124
f 127/127/127 125/125/125 126/126/126
f 128/128/128 127/127/127 126/126/126
