g Bg_Cemetery_STR_Base_RegionBorder_02
v 6.2505236 7.964127E-12 2.9684996E-12
v 5.1160564 0.19999999 2.9439548E-12
v 6.2505236 0.19999999 2.9555052E-12
v 1.0273459 0.19999999 2.9468424E-12
v -0 0.19999999 9.991254E-13
v -0 0 0
v -0 0.19999999 9.991254E-13
v -0 0 -0.009999999
v -0 0.19999999 -0.009999999
v -0 0 0
vt -156 -16
vt -155.75 -16.046875
vt -156 -16.046875
vt -154.75 -16.046875
vt -154.5 -16.046875
vt -154.5 -16
vt -154.5 -16.046875
vt -154.5 -16
vt -154.5 -16.046875
vt -154.5 -16
vn -0 0 1
vn -0 0 1
vn -0 0 1
vn -0 0 1
vn -0 0 1
vn -0 0 1
vn -1 0 0
vn -1 0 0
vn -1 0 0
vn -1 0 0
g Bg_Cemetery_STR_Base_RegionBorder_02_0
f 3/3/3 2/2/2 1/1/1
f 2/2/2 4/4/4 1/1/1
f 4/4/4 5/5/5 1/1/1
f 5/5/5 6/6/6 1/1/1
f 9/9/9 8/8/8 7/7/7
f 10/10/10 7/7/7 8/8/8
