g Bg_Cemetery_Water_SidePlan
v -19.409721 6.1035153E-06 -6.1035155E-07
v -19.409721 2.084398 -6.1035155E-07
v -0 2.084398 -6.1035155E-07
v -0 6.1035153E-06 -6.1035155E-07
v 1.5837353 6.1035153E-06 -6.1035155E-07
v 1.5837353 2.084398 -6.1035155E-07
v -0 -20.572905 -6.1035155E-07
v 1.5837353 -20.572905 -6.1035155E-07
vt -1.4443359 2.0859375
vt -1.4443359 2.4453125
vt 2.1503906 2.4453125
vt 2.1503906 2.0859375
vt 2.4453125 2.0859375
vt 2.4453125 2.4453125
vt 2.1503906 -1.4443359
vt 2.4453125 -1.4443359
vn -0 0 1
vn -0 0 1
vn -0 0 1
vn -0 0 1
vn -0 0 1
vn -0 0 1
vn -0 0 1
vn -0 0 1
g Bg_Cemetery_Water_SidePlan_0
f 3/3/3 2/2/2 1/1/1
f 4/4/4 3/3/3 1/1/1
f 3/3/3 4/4/4 5/5/5
f 6/6/6 3/3/3 5/5/5
f 4/4/4 7/7/7 5/5/5
f 7/7/7 8/8/8 5/5/5
