g Bg_Cemetery_STR_Base_RegionBorder_04
v 4 0 1.7325873E-14
v -0 0 2.0213518E-14
v -0 0.19837552 2.3101165E-14
v 4 0 1.7325873E-14
v -0 0.19999999 2.3101165E-14
v 4 0.19999999 0
v -0 0.19837552 2.3101165E-14
v -0 0.19837552 2.3101165E-14
v -0 0 -0.009999999
v -0 0.19837552 -0.009999999
v -0 0 2.0213518E-14
vt 30 15
vt 31 15
vt 31 14.953125
vt 30 15
vt 31 14.953125
vt 30 14.953125
vt 31 14.953125
vt 31 14.953125
vt 31 15
vt 31 14.953125
vt 31 15
vn -0 0 1
vn -0 0 1
vn -0 0 1
vn -0 0 1
vn -0 0 1
vn -0 0 1
vn -0 0 1
vn -1 0 0
vn -1 0 0
vn -1 0 0
vn -1 0 0
g Bg_Cemetery_STR_Base_RegionBorder_04_0
f 3/3/3 2/2/2 1/1/1
f 6/6/6 5/5/5 4/4/4
f 5/5/5 7/7/7 4/4/4
f 10/10/10 9/9/9 8/8/8
f 11/11/11 8/8/8 9/9/9
