g Bg_Cemetery_STR_Base_RegionBorder_03
v 3.5487726 0 1.2994405E-14
v -0 0.19999999 1.8769696E-14
v 3.5582712 0.19999999 7.219114E-15
v -0 1.15505826E-14 3.7539392E-14
v -0 0.19999999 1.8769696E-14
v -0 1.15505826E-14 -0.009999999
v -0 0.19999999 -0.009999999
v -0 1.15505826E-14 3.7539392E-14
vt -161.25 -16
vt -160.375 -16.046875
vt -161.25 -16.046875
vt -160.375 -16
vt -160.375 -16.046875
vt -160.375 -16
vt -160.375 -16.046875
vt -160.375 -16
vn -0 0 1
vn -0 0 1
vn -0 0 1
vn -0 0 1
vn -1 0 0
vn -1 0 0
vn -1 0 0
vn -1 0 0
g Bg_Cemetery_STR_Base_RegionBorder_03_0
f 3/3/3 2/2/2 1/1/1
f 4/4/4 1/1/1 2/2/2
f 7/7/7 6/6/6 5/5/5
f 8/8/8 5/5/5 6/6/6
