g Cemetery_STR_GraveBase_03
v -6.1 1.5 0.59999996
v -6.1 4.4 0.59999996
v -6.1 4.5 0.59999996
v -6.1 1.5 0.59999996
v -6.1 1.5999999 0.59999996
v -6.1 4.4 0.59999996
v 8 -6.2999997 0.39999998
v 8 -6.2999997 0.39071387
v 7.979999 -6.2999997 0.39071387
v 4.02 -6.2999997 0.39999998
v 4.02 -6.2999997 0.19999999
v 7.979999 -6.2999997 0.19999999
v 4 -5.7 0.39999998
v 8 -5.7 0.39999998
v 8 -6.2999997 0.39999998
v 4.02 -6.2999997 0.39999998
v 4 -6.2999997 0.39999998
v 8 -5.7 0.59999996
v 8 -5.7 0.39999998
v 4 -5.7 0.39999998
v 4 -5.7 0.59999996
v 8 -5.7 0.59999996
v 4 -5.7 0.59999996
v 4 -5.1 0.59999996
v 8 -5.1 0.59999996
v 8 -4.5 1
v 8 -4.5 0.79999995
v 4 -4.5 0.79999995
v 4 -4.5 1
v 8 -4.5 1
v 4 -4.5 1
v 4 -4.1 1
v 8 -4.1 1
v 4 -4.5 0.79999995
v 8 -4.5 0.79999995
v 8 -5.1 0.79999995
v 5.054886 -4.7 0.79999995
v 5.418189 -4.7999997 0.79999995
v 5.55089 -5.1 0.79999995
v 5.418189 -5.043563 0.79999995
v 5.1865373 -4.7999997 0.79999995
v 4.954886 -4.7 0.79999995
v 4.954886 -5.043563 0.79999995
v 4.7624774 -5.1 0.79999995
v 4 -5.1 0.79999995
v 8 -5.1 0.79999995
v 8 -5.1 0.59999996
v 4 -5.1 0.59999996
v 5.213112 -5.1 0.70131326
v 4 -5.1 0.79999995
v 5.418189 -5.1 0.72999996
v 5.55089 -5.1 0.79999995
v 5.3646536 -5.1 0.72999996
v 4.954886 -5.1 0.72999996
v 5.01518 -5.1 0.72999996
v 4.954886 -5.1 0.765
v 4.7624774 -5.1 0.79999995
v -6.0998063 1.5999999 0.39993754
v -6.5 1.5999999 0.39999998
v -6.5 4.4 0.39999998
v -6.100006 4.4 0.39994502
v -6.1 4.4 0.59999996
v -6.1 1.5999999 0.59999996
v -6.0998063 1.5999999 0.39993754
v -6.100006 4.4 0.39994502
v -6.1 4.5 0.59999996
v -5.7 4.5 0.59999996
v -5.7 1.5 0.59999996
v -6.1 1.5 0.59999996
v -5.7 4.5 0.79999995
v -5.7 1.5 0.79999995
v -5.7 1.5 0.59999996
v -5.7 4.5 0.59999996
v -5.2999997 4.5 1
v -5.2999997 1.5 1
v -5.2999997 1.5 0.79999995
v -5.2999997 4.5 0.79999995
v -5.2999997 1.5 0.79999995
v -5.7 1.5 0.79999995
v -5.7 4.5 0.79999995
v -5.2999997 4.5 0.79999995
v -6.5 4.4 0.39999998
v -6.5 1.5999999 0.39999998
v -6.5 1.5999999 0.19999999
v -6.5 4.4 0.19999999
v -5.1 1.5 1
v -5.2999997 1.5 1
v -5.2999997 4.5 1
v -5.1 4.5 1
v 4.02 12.9 0.39999998
v 4.02 12.9 0.19999999
v 7.979999 12.9 0.19999999
v 7.979999 12.9 0.39999998
v 7.979999 12.9 0.39999998
v 8 12.9 0.39999998
v 8 12.3 0.39999998
v 4 12.3 0.39999998
v 4.02 12.9 0.39999998
v 4 12.9 0.39999998
v 4 12.3 0.59999996
v 4 12.3 0.39999998
v 8 12.3 0.39999998
v 8 12.3 0.59999996
v 8 11.7 0.59999996
v 4 11.7 0.59999996
v 4 12.3 0.59999996
v 8 12.3 0.59999996
v 4 11.7 0.79999995
v 4 11.7 0.59999996
v 8 11.7 0.59999996
v 8 11.7 0.79999995
v 4 11.099999 1
v 4 11.099999 0.79999995
v 8 11.099999 0.79999995
v 8 11.099999 1
v 8 11.099999 0.79999995
v 4 11.099999 0.79999995
v 4 11.7 0.79999995
v 8 11.7 0.79999995
v 8 10.7 1
v 4 10.7 1
v 4 11.099999 1
v 8 11.099999 1
v 8 -4.1 1
v 4 -4.1 1
v 4 -3.8999999 1
v 8 -3.8999999 1
v -4.9 1.5 1
v -5.1 1.5 1
v -5.1 4.5 1
v -4.9 4.5 1
v 8 10.5 1
v 4 10.5 1
v 4 10.7 1
v 8 10.7 1
v 5.418189 -5.043563 0.79999995
v 5.55089 -5.1 0.79999995
v 5.418189 -5.1 0.72999996
v 4.954886 -5.043563 0.79999995
v 4.954886 -5.1 0.765
v 4.7624774 -5.1 0.79999995
v 5.2300677 -5.0688367 0.72999996
v 5.213112 -5.1 0.70131326
v 5.01518 -5.1 0.72999996
v 5.3646536 -5.1 0.72999996
v 5.213112 -5.1 0.70131326
v 5.2300677 -5.0688367 0.72999996
v 5.418189 -4.7999997 0.79999995
v 5.418189 -4.7999997 0.72999996
v 5.1865373 -4.7999997 0.72999996
v 5.1865373 -4.7999997 0.79999995
v 5.1865373 -4.7999997 0.72999996
v 5.418189 -4.7999997 0.72999996
v 5.418189 -5.1 0.72999996
v 5.3646536 -5.1 0.72999996
v 5.2300677 -5.0688367 0.72999996
v 5.01518 -5.1 0.72999996
v 5.054886 -4.7 0.72999996
v 4.954886 -4.7 0.72999996
v 4.954886 -5.1 0.72999996
v 5.418189 -5.043563 0.79999995
v 5.418189 -5.1 0.72999996
v 5.418189 -4.7999997 0.72999996
v 5.418189 -4.7999997 0.79999995
v 5.1865373 -4.7999997 0.79999995
v 5.1865373 -4.7999997 0.72999996
v 5.054886 -4.7 0.72999996
v 5.054886 -4.7 0.79999995
v 5.054886 -4.7 0.79999995
v 5.054886 -4.7 0.72999996
v 4.954886 -4.7 0.72999996
v 4.954886 -4.7 0.79999995
v 4.954886 -4.7 0.72999996
v 4.954886 -5.1 0.72999996
v 4.954886 -5.1 0.765
v 4.954886 -5.043563 0.79999995
v 4.954886 -4.7 0.79999995
vt -2.2441406 0.8178711
vt -3.1269531 0.8178711
vt -3.15625 0.8178711
vt -2.2441406 0.8178711
vt -2.2753906 0.8178711
vt -3.1269531 0.8178711
vt 3.4960938 -1.1835938
vt 3.4960938 -1.1865234
vt 3.4902344 -1.1865234
vt 2.2851562 -1.1835938
vt 2.2851562 -1.2441406
vt 3.4902344 -1.2441406
vt 2.2792969 -1.0009766
vt 3.4960938 -1.0009766
vt 3.4960938 -1.1835938
vt 2.2851562 -1.1835938
vt 2.2792969 -1.1835938
vt 2.8554688 -1.1816406
vt 2.8554688 -1.2431641
vt 1.6386719 -1.2431641
vt 1.6386719 -1.1816406
vt 2.8554688 -1.1816406
vt 1.6386719 -1.1816406
vt 1.6386719 -0.9995117
vt 2.8554688 -0.9995117
vt 2.4277344 -1.1835938
vt 2.4277344 -1.2441406
vt 1.2109375 -1.2441406
vt 1.2109375 -1.1835938
vt 2.4277344 -1.1835938
vt 1.2109375 -1.1835938
vt 1.2109375 -1.0615234
vt 2.4277344 -1.0615234
vt 0.99560547 -0.9995117
vt 2.2128906 -0.9995117
vt 2.2128906 -1.1826172
vt 1.3164062 -1.0605469
vt 1.4267578 -1.0908203
vt 1.4677734 -1.1826172
vt 1.4267578 -1.1650391
vt 1.3564453 -1.0908203
vt 1.2861328 -1.0605469
vt 1.2861328 -1.1650391
vt 1.2275391 -1.1826172
vt 0.99560547 -1.1826172
vt 2.2128906 -1.1826172
vt 2.2128906 -1.2431641
vt 0.99560547 -1.2431641
vt 1.3642578 -1.2119141
vt 0.99560547 -1.1826172
vt 1.4267578 -1.203125
vt 1.4677734 -1.1826172
vt 1.4101562 -1.203125
vt 1.2861328 -1.203125
vt 1.3046875 -1.203125
vt 1.2861328 -1.1923828
vt 1.2275391 -1.1826172
vt -2.6445312 0.93896484
vt -2.6445312 0.8173828
vt -3.4960938 0.8173828
vt -3.4960938 0.93896484
vt -3.1269531 0.8178711
vt -2.2753906 0.8178711
vt -2.2753906 0.75683594
vt -3.1269531 0.75683594
vt -3.15625 0.8178711
vt -3.15625 0.9394531
vt -2.2441406 0.9394531
vt -2.2441406 0.8178711
vt -2.6523438 0.8178711
vt -1.7402344 0.8178711
vt -1.7402344 0.75683594
vt -2.6523438 0.75683594
vt -2.5722656 0.8208008
vt -1.6591797 0.8208008
vt -1.6591797 0.7597656
vt -2.5722656 0.7597656
vt -1.7402344 0.9394531
vt -1.7402344 0.8178711
vt -2.6523438 0.8178711
vt -2.6523438 0.9394531
vt -3.4960938 0.8173828
vt -2.6445312 0.8173828
vt -2.6445312 0.75683594
vt -3.4960938 0.75683594
vt -1.6591797 0.88134766
vt -1.6591797 0.8208008
vt -2.5722656 0.8208008
vt -2.5722656 0.88134766
vt 5.3476562 3.8183594
vt 5.3476562 3.7578125
vt 4.1445312 3.7578125
vt 4.1445312 3.8183594
vt 4.1445312 3.8183594
vt 4.1367188 3.8183594
vt 4.1367188 4
vt 5.3554688 4
vt 5.3476562 3.8183594
vt 5.3554688 3.8183594
vt 4.5664062 3.8183594
vt 4.5664062 3.7558594
vt 3.3515625 3.7558594
vt 3.3515625 3.8183594
vt 3.3515625 4
vt 4.5664062 4
vt 4.5664062 3.8183594
vt 3.3515625 3.8183594
vt 3.7832031 3.8164062
vt 3.7832031 3.7558594
vt 2.5664062 3.7558594
vt 2.5664062 3.8164062
vt 3.5703125 3.8183594
vt 3.5703125 3.7558594
vt 2.3535156 3.7558594
vt 2.3535156 3.8183594
vt 2.5664062 4
vt 3.7832031 4
vt 3.7832031 3.8164062
vt 2.5664062 3.8164062
vt 2.3535156 3.9394531
vt 3.5703125 3.9394531
vt 3.5703125 3.8183594
vt 2.3535156 3.8183594
vt 2.34375 -0.91552734
vt 1.1992188 -0.91552734
vt 1.1992188 -0.85839844
vt 2.34375 -0.85839844
vt -2.1289062 2.0839844
vt -2.1289062 2.140625
vt -1.2705078 2.140625
vt -1.2705078 2.0839844
vt 2.1796875 3.0839844
vt 1.0351562 3.0839844
vt 1.0351562 3.140625
vt 2.1796875 3.140625
vt -1.6630859 2.2910156
vt -1.6816406 2.3300781
vt -1.6416016 2.3066406
vt -1.4804688 2.2910156
vt -1.4912109 2.3066406
vt -1.4375 2.3339844
vt -1.5849609 2.2988281
vt -1.5800781 2.3105469
vt -1.5195312 2.3066406
vt -1.6259766 2.3066406
vt -1.5791016 2.3105469
vt -1.5849609 2.2988281
vt -1.6416016 2.1953125
vt -1.6416016 2.2167969
vt -1.5712891 2.2167969
vt -1.5712891 2.1953125
vt -1.5712891 2.2167969
vt -1.6416016 2.2167969
vt -1.6416016 2.3066406
vt -1.6259766 2.3066406
vt -1.5849609 2.2988281
vt -1.5195312 2.3066406
vt -1.5322266 2.1855469
vt -1.5019531 2.1855469
vt -1.5019531 2.3066406
vt -1.6630859 2.2910156
vt -1.6416016 2.3066406
vt -1.6416016 2.2167969
vt -1.6630859 2.2167969
vt -1.5820312 2.1660156
vt -1.5820312 2.1855469
vt -1.5322266 2.1855469
vt -1.5322266 2.1660156
vt -1.5322266 2.1660156
vt -1.5322266 2.1855469
vt -1.5019531 2.1855469
vt -1.5019531 2.1660156
vt -1.5019531 2.1855469
vt -1.5019531 2.3066406
vt -1.4912109 2.3066406
vt -1.4804688 2.2910156
vt -1.4804688 2.1855469
vn -0 0 1
vn -0 0 1
vn -0 0 1
vn -0 0 1
vn -0 0 1
vn -0 0 1
vn -0 -1 0
vn -0 -1 0
vn -0 -1 0
vn -0 -1 0
vn -0 -1 0
vn -0 -1 0
vn -0 0 1
vn -0 0 1
vn -0 0 1
vn -0 0 1
vn -0 0 1
vn -0 -1 0
vn -0 -1 0
vn -0 -1 0
vn -0 -1 0
vn -0 0 1
vn -0 0 1
vn -0 0 1
vn -0 0 1
vn -0 -1 0
vn -0 -1 0
vn -0 -1 0
vn -0 -1 0
vn -0 0 1
vn -0 0 1
vn -0 0 1
vn -0 0 1
vn -0 0 1
vn -0 0 1
vn -0 0 1
vn -0 0 1
vn -0 0 1
vn -0 0 1
vn -0 0 1
vn -0 0 1
vn -0 0 1
vn -0 0 1
vn -0 0 1
vn -0 0 1
vn -0 -1 0
vn -0 -1 0
vn -0 -1 0
vn -0 -1 0
vn -0 -1 0
vn -0 -1 0
vn -0 -1 0
vn -0 -1 0
vn -0 -1 0
vn -0 -1 0
vn -0 -1 0
vn -0 -1 0
vn 0.00013744831 -2.682209E-06 1
vn 0.00015604496 0 1
vn 0.00013744831 -2.682209E-06 1
vn 0.00013744831 -2.682209E-06 1
vn -1 -7.1287155E-05 3.0517578E-05
vn -1 0 -0.00096702576
vn -1 -7.1287155E-05 3.0517578E-05
vn -1 -7.1287155E-05 3.0517578E-05
vn -0 0 1
vn -0 0 1
vn -0 0 1
vn -0 0 1
vn -1 0 0
vn -1 0 0
vn -1 0 0
vn -1 0 0
vn -1 0 0
vn -1 0 0
vn -1 0 0
vn -1 0 0
vn -0 0 1
vn -0 0 1
vn -0 0 1
vn -0 0 1
vn -1 0 0
vn -1 0 0
vn -1 0 0
vn -1 0 0
vn -0 0 1
vn -0 0 1
vn -0 0 1
vn -0 0 1
vn -0 1 0
vn -0 1 0
vn -0 1 0
vn -0 1 0
vn -0 0 1
vn -0 0 1
vn -0 0 1
vn -0 0 1
vn -0 0 1
vn -0 0 1
vn -0 1 0
vn -0 1 0
vn -0 1 0
vn -0 1 0
vn -0 0 1
vn -0 0 1
vn -0 0 1
vn -0 0 1
vn -0 1 0
vn -0 1 0
vn -0 1 0
vn -0 1 0
vn -0 1 0
vn -0 1 0
vn -0 1 0
vn -0 1 0
vn -0 0 1
vn -0 0 1
vn -0 0 1
vn -0 0 1
vn -0 0 1
vn -0 0 1
vn -0 0 1
vn -0 0 1
vn -0 0 1
vn -0 0 1
vn -0 0 1
vn -0 0 1
vn -0 0 1
vn -0 0 1
vn -0 0 1
vn -0 0 1
vn -0 0 1
vn -0 0 1
vn -0 0 1
vn -0 0 1
vn -0.31420898 -0.7392578 0.5957031
vn -0.31420898 -0.7392578 0.5957031
vn -0.31420898 -0.7392578 0.5957031
vn 0.15283203 -0.5209961 0.83984375
vn 0.15283203 -0.5209961 0.83984375
vn 0.15283203 -0.5209961 0.83984375
vn 0.101989746 -0.703125 0.7036133
vn 0.101989746 -0.703125 0.7036133
vn 0.101989746 -0.703125 0.7036133
vn -0.14501953 -0.62646484 0.7661133
vn -0.14501953 -0.62646484 0.7661133
vn -0.14501953 -0.62646484 0.7661133
vn -0 -1 0
vn -0 -1 0
vn -0 -1 0
vn -0 -1 0
vn -0 0 1
vn -0 0 1
vn -0 0 1
vn -0 0 1
vn -0 0 1
vn -0 0 1
vn -0 0 1
vn -0 0 1
vn -0 0 1
vn -1 0 0
vn -1 0 0
vn -1 0 0
vn -1 0 0
vn -0.60498047 -0.7963867 0
vn -0.60498047 -0.7963867 0
vn -0.60498047 -0.7963867 0
vn -0.60498047 -0.7963867 0
vn -0 -1 0
vn -0 -1 0
vn -0 -1 0
vn -0 -1 0
vn 1 0 0
vn 1 0 0
vn 1 0 0
vn 1 0 0
vn 1 0 0
g Cemetery_STR_GraveBase_03_0
f 3/3/3 2/2/2 1/1/1
f 6/6/6 5/5/5 4/4/4
f 9/9/9 8/8/8 7/7/7
f 9/9/9 7/7/7 10/10/10
f 9/9/9 10/10/10 11/11/11
f 11/11/11 12/12/12 9/9/9
f 15/15/15 14/14/14 13/13/13
f 13/13/13 16/16/16 15/15/15
f 13/13/13 17/17/17 16/16/16
f 20/20/20 19/19/19 18/18/18
f 21/21/21 20/20/20 18/18/18
f 24/24/24 23/23/23 22/22/22
f 25/25/25 24/24/24 22/22/22
f 28/28/28 27/27/27 26/26/26
f 29/29/29 28/28/28 26/26/26
f 32/32/32 31/31/31 30/30/30
f 33/33/33 32/32/32 30/30/30
f 36/36/36 35/35/35 34/34/34
f 34/34/34 37/37/37 36/36/36
f 37/37/37 38/38/38 36/36/36
f 38/38/38 39/39/39 36/36/36
f 39/39/39 38/38/38 40/40/40
f 37/37/37 41/41/41 38/38/38
f 34/34/34 42/42/42 37/37/37
f 34/34/34 43/43/43 42/42/42
f 34/34/34 44/44/44 43/43/43
f 34/34/34 45/45/45 44/44/44
f 48/48/48 47/47/47 46/46/46
f 46/46/46 49/49/49 48/48/48
f 50/50/50 48/48/48 49/49/49
f 46/46/46 51/51/51 49/49/49
f 46/46/46 52/52/52 51/51/51
f 49/49/49 51/51/51 53/53/53
f 49/49/49 54/54/54 50/50/50
f 49/49/49 55/55/55 54/54/54
f 54/54/54 56/56/56 50/50/50
f 56/56/56 57/57/57 50/50/50
f 60/60/60 59/59/59 58/58/58
f 61/61/61 60/60/60 58/58/58
f 64/64/64 63/63/63 62/62/62
f 65/65/65 64/64/64 62/62/62
f 68/68/68 67/67/67 66/66/66
f 66/66/66 69/69/69 68/68/68
f 72/72/72 71/71/71 70/70/70
f 73/73/73 72/72/72 70/70/70
f 76/76/76 75/75/75 74/74/74
f 77/77/77 76/76/76 74/74/74
f 80/80/80 79/79/79 78/78/78
f 81/81/81 80/80/80 78/78/78
f 84/84/84 83/83/83 82/82/82
f 85/85/85 84/84/84 82/82/82
f 88/88/88 87/87/87 86/86/86
f 89/89/89 88/88/88 86/86/86
f 92/92/92 91/91/91 90/90/90
f 93/93/93 92/92/92 90/90/90
f 96/96/96 95/95/95 94/94/94
f 94/94/94 97/97/97 96/96/96
f 94/94/94 98/98/98 97/97/97
f 98/98/98 99/99/99 97/97/97
f 102/102/102 101/101/101 100/100/100
f 103/103/103 102/102/102 100/100/100
f 106/106/106 105/105/105 104/104/104
f 107/107/107 106/106/106 104/104/104
f 110/110/110 109/109/109 108/108/108
f 111/111/111 110/110/110 108/108/108
f 114/114/114 113/113/113 112/112/112
f 115/115/115 114/114/114 112/112/112
f 118/118/118 117/117/117 116/116/116
f 119/119/119 118/118/118 116/116/116
f 122/122/122 121/121/121 120/120/120
f 123/123/123 122/122/122 120/120/120
g Cemetery_STR_GraveBase_03_1
f 126/126/126 125/125/125 124/124/124
f 127/127/127 126/126/126 124/124/124
f 130/130/130 129/129/129 128/128/128
f 131/131/131 130/130/130 128/128/128
f 134/134/134 133/133/133 132/132/132
f 135/135/135 134/134/134 132/132/132
g Cemetery_STR_GraveBase_03_2
f 138/138/138 137/137/137 136/136/136
f 141/141/141 140/140/140 139/139/139
f 144/144/144 143/143/143 142/142/142
f 147/147/147 146/146/146 145/145/145
f 150/150/150 149/149/149 148/148/148
f 151/151/151 150/150/150 148/148/148
f 154/154/154 153/153/153 152/152/152
f 152/152/152 155/155/155 154/154/154
f 152/152/152 156/156/156 155/155/155
f 152/152/152 157/157/157 156/156/156
f 152/152/152 158/158/158 157/157/157
f 158/158/158 159/159/159 157/157/157
f 159/159/159 160/160/160 157/157/157
f 163/163/163 162/162/162 161/161/161
f 164/164/164 163/163/163 161/161/161
f 167/167/167 166/166/166 165/165/165
f 168/168/168 167/167/167 165/165/165
f 171/171/171 170/170/170 169/169/169
f 172/172/172 171/171/171 169/169/169
f 175/175/175 174/174/174 173/173/173
f 173/173/173 176/176/176 175/175/175
f 173/173/173 177/177/177 176/176/176
