g Aya_001_LOD1_Eye
v 0.012499999 -0.07371907 1.6608
v 0.0213 -0.07771908 1.6769
v 0.026499998 -0.06891908 1.6705
v 0.048899997 -0.07161908 1.6883999
v 0.0214 -0.066419065 1.6578
v 0.0119 -0.073119074 1.6530999
v 0.028 -0.068219066 1.6446999
v 0.031199997 -0.064419076 1.6500999
v 0.0476 -0.06601907 1.6775
v 0.048899997 -0.056319073 1.6494999
v 0.0411 -0.06281908 1.6342999
v 0.057599995 -0.048419073 1.6380999
v 0.0621 -0.05461908 1.6761
v 0.0661 -0.055119075 1.6889999
v 0.062199995 -0.047519073 1.6582999
v 0.066 -0.04081907 1.65
v 0.0671 -0.044619072 1.6712
v 0.0724 -0.042319085 1.6894
v 0.0711 -0.031619072 1.6686999
v -0.012499999 -0.07371907 1.6608
v -0.026499998 -0.06891908 1.6705
v -0.0213 -0.07771908 1.6769
v -0.048899997 -0.07161908 1.6883999
v -0.0214 -0.066419065 1.6578
v -0.0119 -0.073119074 1.6530999
v -0.028 -0.068219066 1.6446999
v -0.031199997 -0.064419076 1.6500999
v -0.0476 -0.06601907 1.6775
v -0.048899997 -0.056319073 1.6494999
v -0.0411 -0.06281908 1.6342999
v -0.057599995 -0.048419073 1.6380999
v -0.0621 -0.05461908 1.6761
v -0.0661 -0.055119075 1.6889999
v -0.062199995 -0.047519073 1.6582999
v -0.066 -0.04081907 1.65
v -0.0671 -0.044619072 1.6712
v -0.0724 -0.042319085 1.6894
v -0.0711 -0.031619072 1.6686999
vt 0.171875 0.8989258
vt 0.18273926 0.921875
vt 0.19177246 0.90966797
vt 0.2211914 0.93408203
vt 0.18444824 0.8935547
vt 0.17102051 0.8886719
vt 0.18786621 0.87597656
vt 0.19494629 0.8823242
vt 0.22070312 0.91796875
vt 0.21899414 0.875
vt 0.20153809 0.86083984
vt 0.22802734 0.8569336
vt 0.2446289 0.90966797
vt 0.25268555 0.9277344
vt 0.24291992 0.8803711
vt 0.24938965 0.8652344
vt 0.2578125 0.8964844
vt 0.27807617 0.9067383
vt 0.2763672 0.8833008
vt 0.171875 0.8989258
vt 0.19177246 0.90966797
vt 0.18273926 0.921875
vt 0.2211914 0.93408203
vt 0.18444824 0.8935547
vt 0.17102051 0.8886719
vt 0.18786621 0.87597656
vt 0.19494629 0.8823242
vt 0.22070312 0.91796875
vt 0.21899414 0.875
vt 0.20153809 0.86083984
vt 0.22802734 0.8569336
vt 0.2446289 0.90966797
vt 0.25268555 0.9277344
vt 0.24291992 0.8803711
vt 0.24938965 0.8652344
vt 0.2578125 0.8964844
vt 0.27807617 0.9067383
vt 0.2763672 0.8833008
vn 0.5808245 -0.76288354 -0.28399232
vn 0.4461204 -0.7462972 -0.49398094
vn 0.37995556 -0.832636 -0.40292814
vn 0.50001365 -0.74710596 -0.4379715
vn 0.38521793 -0.91968936 -0.07601693
vn 0.5463028 -0.83320725 0.08555082
vn 0.44101387 -0.8563106 0.26877302
vn 0.3720111 -0.9261694 0.061789367
vn 0.48041257 -0.79677564 -0.3665411
vn 0.53892994 -0.8367615 -0.09687579
vn 0.53037214 -0.8389572 0.121886104
vn 0.6628691 -0.7444141 -0.08032639
vn 0.7265881 -0.6350425 -0.26228023
vn 0.76196444 -0.586849 -0.2738951
vn 0.76452184 -0.62062055 -0.17417374
vn 0.83129954 -0.53848135 -0.13776407
vn 0.87977767 -0.4345907 -0.19267133
vn 0.8769898 -0.42290267 -0.22812784
vn 0.9089476 -0.38166225 -0.16777427
vn -0.5808245 -0.76288354 -0.28399232
vn -0.37995562 -0.832636 -0.40292814
vn -0.4461204 -0.7462971 -0.4939809
vn -0.50001365 -0.747106 -0.43797153
vn -0.38521793 -0.91968936 -0.076016925
vn -0.5463028 -0.83320725 0.08555083
vn -0.44101384 -0.8563106 0.26877302
vn -0.3720111 -0.9261694 0.061789367
vn -0.48041257 -0.79677564 -0.3665411
vn -0.53892994 -0.8367615 -0.09687578
vn -0.53037214 -0.8389572 0.12188609
vn -0.6628691 -0.7444141 -0.08032639
vn -0.726588 -0.63504255 -0.26228023
vn -0.76196444 -0.586849 -0.2738951
vn -0.76452184 -0.62062055 -0.17417374
vn -0.83129954 -0.53848135 -0.13776407
vn -0.87977767 -0.4345907 -0.19267133
vn -0.8769898 -0.42290267 -0.22812784
vn -0.9089476 -0.38166225 -0.16777427
g Aya_001_LOD1_Eye_0
f 3/3/3 2/2/2 1/1/1
f 2/2/2 3/3/3 4/4/4
f 5/5/5 3/3/3 1/1/1
f 1/1/1 6/6/6 5/5/5
f 5/5/5 6/6/6 7/7/7
f 3/3/3 5/5/5 8/8/8
f 8/8/8 5/5/5 7/7/7
f 3/3/3 9/9/9 4/4/4
f 9/9/9 3/3/3 8/8/8
f 10/10/10 8/8/8 7/7/7
f 10/10/10 9/9/9 8/8/8
f 11/11/11 10/10/10 7/7/7
f 11/11/11 12/12/12 10/10/10
f 4/4/4 9/9/9 13/13/13
f 13/13/13 9/9/9 10/10/10
f 14/14/14 4/4/4 13/13/13
f 15/15/15 10/10/10 12/12/12
f 15/15/15 13/13/13 10/10/10
f 16/16/16 15/15/15 12/12/12
f 14/14/14 13/13/13 17/17/17
f 17/17/17 13/13/13 15/15/15
f 17/17/17 15/15/15 16/16/16
f 18/18/18 14/14/14 17/17/17
f 19/19/19 17/17/17 16/16/16
f 18/18/18 17/17/17 19/19/19
f 22/22/22 21/21/21 20/20/20
f 21/21/21 22/22/22 23/23/23
f 21/21/21 24/24/24 20/20/20
f 25/25/25 20/20/20 24/24/24
f 25/25/25 24/24/24 26/26/26
f 24/24/24 21/21/21 27/27/27
f 24/24/24 27/27/27 26/26/26
f 28/28/28 21/21/21 23/23/23
f 21/21/21 28/28/28 27/27/27
f 27/27/27 29/29/29 26/26/26
f 28/28/28 29/29/29 27/27/27
f 29/29/29 30/30/30 26/26/26
f 31/31/31 30/30/30 29/29/29
f 28/28/28 23/23/23 32/32/32
f 28/28/28 32/32/32 29/29/29
f 23/23/23 33/33/33 32/32/32
f 29/29/29 34/34/34 31/31/31
f 32/32/32 34/34/34 29/29/29
f 34/34/34 35/35/35 31/31/31
f 32/32/32 33/33/33 36/36/36
f 32/32/32 36/36/36 34/34/34
f 34/34/34 36/36/36 35/35/35
f 33/33/33 37/37/37 36/36/36
f 36/36/36 38/38/38 35/35/35
f 36/36/36 37/37/37 38/38/38
