g scp_we_ammo_sniper_rifle_bullet_case
v 0.010544607 -0.04717679 0.0060880375
v -0.0105446065 -0.047176797 0.0060880375
v 1.5966717E-09 -0.047176797 0.012175951
v -5.322239E-10 -0.047176793 -0.012175734
v 0.010544607 -0.047176793 -0.006087834
v -0.0105446065 -0.047176793 -0.006087834
v -0.0105446065 -0.047176793 -0.006087834
v -5.32224E-10 0.032859933 -0.012175745
v -0.01054461 0.03285993 -0.0060878457
v -5.322239E-10 -0.047176793 -0.012175734
v 0.01054461 0.03285993 -0.0060878457
v 0.010544607 -0.047176793 -0.006087834
v -0.0105446065 -0.047176797 0.0060880375
v -0.01054461 0.03285993 -0.0060878457
v -0.01054461 0.032859936 0.0060880277
v -0.0105446065 -0.047176793 -0.006087834
v -0.01054461 0.032859936 0.0060880277
v 1.5966717E-09 -0.047176797 0.012175951
v -0.0105446065 -0.047176797 0.0060880375
v 1.5966722E-09 0.03285993 0.012175932
v 0.010544607 -0.04717679 0.0060880375
v 0.01054461 0.032859936 0.0060880277
v 0.010544607 -0.047176793 -0.006087834
v 0.01054461 0.032859936 0.0060880277
v 0.01054461 0.03285993 -0.0060878457
v 0.010544607 -0.04717679 0.0060880375
v -0.00625561 0.047176674 0.0036117693
v 1.0279967E-09 0.039170265 0.007839314
v -0.0067890123 0.039170265 0.0039196974
v 1.1242062E-09 0.047176674 0.0072234273
v 0.0067890137 0.039170265 0.0039196974
v 0.006255612 0.047176674 0.00361177
v 0.0067890137 0.039170258 -0.0039195823
v 0.006255611 0.047176674 -0.0036115895
v -1.3876553E-10 0.047176667 -0.0072232476
v 0.0067890137 0.039170258 -0.0039195823
v -3.4266565E-10 0.039170254 -0.0078392
v -0.00625561 0.047176674 -0.0036115895
v -0.0067890123 0.039170265 0.0039196974
v -0.0067890123 0.039170258 -0.0039195823
v -5.32224E-10 0.032859933 -0.012175745
v -0.0067890123 0.039170258 -0.0039195823
v -0.01054461 0.03285993 -0.0060878457
v -3.4266565E-10 0.039170254 -0.0078392
v 0.01054461 0.03285993 -0.0060878457
v 0.0067890137 0.039170258 -0.0039195823
v -0.0067890123 0.039170265 0.0039196974
v -0.01054461 0.03285993 -0.0060878457
v -0.01054461 0.032859936 0.0060880277
v 1.0279967E-09 0.039170265 0.007839314
v -0.01054461 0.032859936 0.0060880277
v -0.0067890123 0.039170265 0.0039196974
v 1.5966722E-09 0.03285993 0.012175932
v 0.0067890137 0.039170265 0.0039196974
v 0.01054461 0.032859936 0.0060880277
v 0.0067890137 0.039170258 -0.0039195823
v 0.01054461 0.032859936 0.0060880277
v 0.01054461 0.03285993 -0.0060878457
v -0.00625561 0.047176674 0.0036117693
v 0.006255612 0.047176674 0.00361177
v 1.1242062E-09 0.047176674 0.0072234273
v -1.3876553E-10 0.047176667 -0.0072232476
v -0.00625561 0.047176674 -0.0036115895
v 0.006255611 0.047176674 -0.0036115895
vt 0.78384256 0.98928577
vt 0.78384256 0.99058807
vt 0.7841613 0.9899369
vt 0.78288627 0.9899369
vt 0.78320503 0.98928577
vt 0.78320503 0.99058807
vt 0.7817663 0.9890828
vt 0.853037 0.9899687
vt 0.853037 0.9890828
vt 0.7817663 0.9899687
vt 0.853037 0.9908547
vt 0.7817663 0.9908547
vt 0.7817663 0.9892935
vt 0.853037 0.9903165
vt 0.853037 0.9892935
vt 0.7817663 0.9903165
vt 0.853037 0.9908556
vt 0.7817663 0.9899697
vt 0.7817663 0.9908556
vt 0.853037 0.9899697
vt 0.7817663 0.98908377
vt 0.853037 0.98908377
vt 0.7817663 0.98930556
vt 0.853037 0.99032855
vt 0.853037 0.98930556
vt 0.7817663 0.99032855
vt 0.8679118 0.98951334
vt 0.86089325 0.9899697
vt 0.86089325 0.99054
vt 0.8679118 0.9899697
vt 0.86089325 0.98939925
vt 0.8679118 0.9894645
vt 0.8608932 0.98948777
vt 0.8679118 0.9895254
vt 0.8679118 0.9899687
vt 0.8608932 0.99053913
vt 0.8608932 0.9899687
vt 0.8679118 0.9894636
vt 0.86089325 0.9894757
vt 0.8608932 0.98939836
vt 0.853037 0.9899687
vt 0.8608932 0.98939836
vt 0.853037 0.9890828
vt 0.8608932 0.9899687
vt 0.853037 0.9908547
vt 0.8608932 0.99053913
vt 0.86089325 0.9894757
vt 0.853037 0.9903165
vt 0.853037 0.9892935
vt 0.86089325 0.9899697
vt 0.853037 0.9908556
vt 0.86089325 0.99054
vt 0.853037 0.9899697
vt 0.86089325 0.98939925
vt 0.853037 0.98908377
vt 0.8608932 0.98948777
vt 0.853037 0.99032855
vt 0.853037 0.98930556
vt 0.60164 0.8547484
vt 0.60164 0.8360794
vt 0.5962508 0.845414
vt 0.6178078 0.845414
vt 0.61241853 0.8547484
vt 0.61241853 0.8360795
vn 2.8263096E-07 -1 0
vn 2.8263096E-07 -1 -2.9371904E-07
vn 4.5220952E-07 -1 -7.8325235E-07
vn 1.13052685E-07 -1 0
vn -2.2610337E-07 -1 3.9162464E-07
vn -2.261034E-07 -1 -3.916246E-07
vn -0.8660249 -1.0115133E-07 -0.50000095
vn -0 -1.572366E-07 -1
vn -0.8660248 -1.0944474E-07 -0.5000011
vn -0 -1.5335024E-07 -1
vn 0.8660248 0 -0.50000095
vn 0.8660248 0 -0.5000011
vn -0.866025 0 0.5000007
vn -0.8660248 -1.0944474E-07 -0.5000011
vn -0.8660249 0 0.50000083
vn -0.8660249 -1.0115133E-07 -0.50000095
vn -0.8660249 0 0.50000083
vn -1.0953916E-07 1.7279878E-07 1
vn -0.866025 0 0.5000007
vn -0 1.7668518E-07 1
vn 0.866025 0 0.5000007
vn 0.8660249 0 0.5000009
vn 0.8660248 0 -0.5000011
vn 0.8660249 0 0.5000009
vn 0.8660248 0 -0.50000095
vn 0.866025 0 0.5000007
vn -0.86347306 0.07669979 0.49852923
vn -0 0.07669762 0.99705446
vn -0.8634742 0.076699756 0.49852714
vn -0 0.07669762 0.99705446
vn 0.8634743 0.07669972 0.49852705
vn 0.86347306 0.07669968 0.49852917
vn 0.8634727 0.076703764 -0.4985291
vn 0.86347413 0.07670374 -0.4985269
vn -0 0.0767057 -0.99705374
vn 0.8634727 0.076703764 -0.4985291
vn -0 0.0767057 -0.99705374
vn -0.86347413 0.07670381 -0.4985268
vn -0.8634742 0.076699756 0.49852714
vn -0.8634728 0.07670374 -0.49852905
vn -0 0.566369 -0.82415175
vn -0.7137338 0.5663713 -0.41207728
vn -0.7137349 0.56637114 -0.4120753
vn -0 0.566369 -0.82415175
vn 0.7137349 0.5663712 -0.41207537
vn 0.71373385 0.5663711 -0.41207746
vn -0.7137334 0.56637424 0.41207388
vn -0.7137349 0.56637114 -0.4120753
vn -0.7137325 0.5663741 0.41207546
vn -0 0.5663748 0.8241479
vn -0.7137325 0.5663741 0.41207546
vn -0.7137334 0.56637424 0.41207388
vn -0 0.5663748 0.8241479
vn 0.71373355 0.5663742 0.41207382
vn 0.7137325 0.56637406 0.41207546
vn 0.71373385 0.5663711 -0.41207746
vn 0.7137325 0.56637406 0.41207546
vn 0.7137349 0.5663712 -0.41207537
vn -0 1 0
vn -0 1 0
vn -0 1 0
vn -1.5245103E-06 1 0
vn 1.5245105E-06 1 0
vn -1.5245103E-06 1 0
g scp_we_ammo_sniper_rifle_bullet_case_0
f 3/3/3 2/2/2 1/1/1
f 2/2/2 4/4/4 1/1/1
f 1/1/1 4/4/4 5/5/5
f 6/6/6 4/4/4 2/2/2
f 9/9/9 8/8/8 7/7/7
f 10/10/10 7/7/7 8/8/8
f 8/8/8 11/11/11 10/10/10
f 12/12/12 10/10/10 11/11/11
f 15/15/15 14/14/14 13/13/13
f 16/16/16 13/13/13 14/14/14
f 19/19/19 18/18/18 17/17/17
f 20/20/20 17/17/17 18/18/18
f 18/18/18 21/21/21 20/20/20
f 22/22/22 20/20/20 21/21/21
f 25/25/25 24/24/24 23/23/23
f 26/26/26 23/23/23 24/24/24
f 29/29/29 28/28/28 27/27/27
f 30/30/30 27/27/27 28/28/28
f 28/28/28 31/31/31 30/30/30
f 32/32/32 30/30/30 31/31/31
f 31/31/31 33/33/33 32/32/32
f 34/34/34 32/32/32 33/33/33
f 34/34/34 36/36/36 35/35/35
f 37/37/37 35/35/35 36/36/36
f 35/35/35 37/37/37 38/38/38
f 27/27/27 38/38/38 39/39/39
f 40/40/40 38/38/38 37/37/37
f 40/40/40 39/39/39 38/38/38
f 43/43/43 42/42/42 41/41/41
f 44/44/44 41/41/41 42/42/42
f 41/41/41 44/44/44 45/45/45
f 46/46/46 45/45/45 44/44/44
f 42/42/42 48/48/48 47/47/47
f 49/49/49 47/47/47 48/48/48
f 52/52/52 51/51/51 50/50/50
f 53/53/53 50/50/50 51/51/51
f 50/50/50 53/53/53 54/54/54
f 55/55/55 54/54/54 53/53/53
f 54/54/54 57/57/57 56/56/56
f 58/58/58 56/56/56 57/57/57
f 61/61/61 60/60/60 59/59/59
f 60/60/60 62/62/62 59/59/59
f 59/59/59 62/62/62 63/63/63
f 64/64/64 62/62/62 60/60/60
