g Alley_STR_House_01_Side_02
v -2.24 1.06 1.8000009
v 0.099999994 1.06 1.8000009
v 0.099999994 0.95 1.8000009
v -2.35 0.95 1.8000009
v -2.35 8.05 1.8000009
v -2.24 7.939999 1.8000009
v -2.24 1.06 1.8000009
v -2.35 0.95 1.8000009
v 0.099999994 8.05 1.8000009
v 0.099999994 7.939999 1.8000009
v -2.24 7.939999 1.8000009
v -2.35 8.05 1.8000009
v -2.24 7.939999 1.8000009
v 0.099999994 7.939999 1.8000009
v 0.099999994 7.939999 1.4600009
v -2.24 7.939999 1.4600009
v -2.24 1.06 1.8000009
v -2.24 1.06 1.4600009
v 0.099999994 1.06 1.4600009
v 0.099999994 1.06 1.8000009
v -2.24 1.06 1.8000009
v -2.24 7.939999 1.8000009
v -2.24 7.939999 1.4600009
v -2.24 1.06 1.4600009
v -2.35 8.05 1.8000009
v -2.35 0.95 1.8000009
v -2.35 0.95 1.7000008
v -2.35 8.05 1.7000008
v 0.099999994 8 0.20000091
v 0.099999994 8 1.7000008
v -2.3 8 1.7000008
v -2.3 8 0.20000091
v -2.3 1 0.20000091
v -2.3 8 0.20000091
v -2.3 8 1.7000008
v -2.3 1 1.7000008
v -2.3 1 1.7000008
v 0.099999994 1 1.7000008
v 0.099999994 1 0.20000091
v -2.3 1 0.20000091
v -2.35 8.05 1.8000009
v -2.35 8.05 1.7000008
v 0.099999994 8.05 1.7000008
v 0.099999994 8.05 1.8000009
v -2.35 0.95 1.8000009
v 0.099999994 0.95 1.8000009
v 0.099999994 0.95 1.7000008
v -2.35 0.95 1.7000008
v -2.32 0.97999996 9.155273E-07
v -2.32 8.0199995 9.155273E-07
v -2.32 8.0199995 0.20000091
v -2.32 0.97999996 0.20000091
v 0.099999994 8.0199995 0.20000091
v 0.099999994 8 0.20000091
v -2.3 8 0.20000091
v -2.32 8.0199995 0.20000091
v 0.099999994 8.0199995 9.155273E-07
v 0.099999994 8.0199995 0.20000091
v -2.32 8.0199995 0.20000091
v -2.32 8.0199995 9.155273E-07
v -2.32 0.97999996 0.20000091
v 0.099999994 0.97999996 0.20000091
v 0.099999994 0.97999996 9.155273E-07
v -2.32 0.97999996 9.155273E-07
v -2.3 1 0.20000091
v 0.099999994 1 0.20000091
v 0.099999994 0.97999996 0.20000091
v -2.32 0.97999996 0.20000091
v -2.32 8.0199995 0.20000091
v -2.3 8 0.20000091
v -2.3 1 0.20000091
v -2.32 0.97999996 0.20000091
v -2.3030736 0.9807495 0.20000091
v -2.0882363 0.99660766 0.7000009
v -2.0882363 0.98538816 0.20000091
v -2.3030736 0.991969 0.7000009
v -2.0882363 0.99660766 1.2000009
v -2.3030736 0.991969 1.2000008
v -2.0882363 0.98538816 1.7000009
v -2.3030736 0.9807495 1.7000008
v -2.0882363 1.0013855 1.7000009
v -2.0882363 0.99660766 1.2000009
v -2.0882363 0.98538816 1.7000009
v -2.0882363 1.0126048 1.2000009
v -2.0882363 0.99660766 0.7000009
v -2.0882363 1.0126048 0.7000009
v -2.0882363 0.98538816 0.20000091
v -2.0882363 1.0013855 0.20000091
v -0.24243484 0.9823633 1.3790251
v -0.242435 0.9823633 0.70241207
v -0.7134923 0.9823633 0.70241207
v -0.7134922 0.9823633 1.3790251
v -0.7134922 0.9823633 1.3790251
v -0.7134922 0.9977612 1.3790251
v -0.24243484 0.9977612 1.3790251
v -0.24243484 0.9823633 1.3790251
v -0.24243484 0.9823633 1.3790251
v -0.24243484 0.9977612 1.3790251
v -0.242435 0.9977612 0.70241207
v -0.242435 0.9823633 0.70241207
v -0.7134923 0.9823633 0.70241207
v -0.7134923 0.9977612 0.70241207
v -0.7134922 0.9977612 1.3790251
v -0.7134922 0.9823633 1.3790251
v -0.242435 0.9823633 0.70241207
v -0.242435 0.9977612 0.70241207
v -0.7134923 0.9977612 0.70241207
v -0.7134923 0.9823633 0.70241207
v -2.24 7.939999 1.4600009
v 0.099999994 7.939999 1.4600009
v 0.099999994 1.06 1.4600009
v -2.24 1.06 1.4600009
vt 0.9819336 0.59472656
vt 0.9819336 0.49536133
vt 0.97753906 0.49536133
vt 0.97753906 0.5991211
vt 0.88378906 0.70458984
vt 0.8886719 0.7001953
vt 0.8886719 0.40722656
vt 0.88378906 0.4025879
vt 0.9770508 0.49536133
vt 0.9819336 0.49536133
vt 0.9819336 0.59472656
vt 0.9770508 0.5991211
vt 0.9819336 0.59472656
vt 0.9819336 0.49536133
vt 0.99658203 0.49536133
vt 0.99658203 0.59472656
vt 0.9819336 0.59472656
vt 0.99658203 0.59472656
vt 0.99658203 0.49536133
vt 0.9819336 0.49536133
vt 0.8886719 0.40722656
vt 0.8886719 0.7001953
vt 0.90283203 0.7001953
vt 0.90283203 0.40722656
vt 0.88378906 0.70458984
vt 0.88378906 0.4025879
vt 0.87939453 0.4025879
vt 0.87939453 0.70458984
vt 0.42797852 0.34448242
vt 0.42797852 0.40820312
vt 0.32617188 0.40820312
vt 0.32617188 0.34448242
vt 0.42797852 0.34448242
vt 0.32617188 0.34448242
vt 0.32617188 0.40820312
vt 0.42797852 0.40820312
vt 0.32617188 0.40820312
vt 0.42797852 0.40820312
vt 0.42797852 0.34448242
vt 0.32617188 0.34448242
vt 0.9770508 0.5991211
vt 0.97314453 0.5991211
vt 0.97314453 0.49536133
vt 0.9770508 0.49536133
vt 0.97753906 0.5991211
vt 0.97753906 0.49536133
vt 0.97314453 0.49536133
vt 0.97314453 0.5991211
vt 0.42797852 0.33520508
vt 0.32617188 0.33520508
vt 0.32617188 0.34375
vt 0.42797852 0.34375
vt 0.42797852 0.34375
vt 0.42797852 0.34448242
vt 0.32617188 0.34448242
vt 0.32543945 0.34375
vt 0.42797852 0.33520508
vt 0.42797852 0.34375
vt 0.32543945 0.34375
vt 0.32543945 0.33520508
vt 0.32543945 0.34375
vt 0.42797852 0.34375
vt 0.42797852 0.33520508
vt 0.32543945 0.33520508
vt 0.32617188 0.34448242
vt 0.42797852 0.34448242
vt 0.42797852 0.34375
vt 0.32543945 0.34375
vt 0.32617188 0.34375
vt 0.32617188 0.34448242
vt 0.42797852 0.34448242
vt 0.42797852 0.34375
vt 0.32617188 0.34448242
vt 0.3347168 0.36572266
vt 0.3347168 0.34448242
vt 0.32617188 0.36572266
vt 0.3347168 0.3869629
vt 0.32617188 0.3869629
vt 0.3347168 0.40820312
vt 0.32617188 0.40820312
vt 0.33544922 0.40820312
vt 0.3347168 0.3869629
vt 0.3347168 0.40820312
vt 0.33544922 0.3869629
vt 0.3347168 0.36572266
vt 0.33544922 0.36572266
vt 0.3347168 0.34448242
vt 0.33544922 0.34448242
vt 0.41357422 0.39453125
vt 0.41357422 0.36572266
vt 0.3935547 0.36572266
vt 0.3935547 0.39453125
vt 0.39526367 0.38110352
vt 0.3947754 0.38085938
vt 0.3947754 0.38964844
vt 0.39526367 0.38964844
vt 0.39526367 0.37890625
vt 0.3947754 0.3786621
vt 0.3947754 0.39135742
vt 0.39526367 0.39135742
vt 0.39526367 0.37890625
vt 0.3947754 0.3786621
vt 0.3947754 0.39135742
vt 0.39526367 0.39135742
vt 0.39526367 0.38110352
vt 0.3947754 0.38085938
vt 0.3947754 0.38964844
vt 0.39526367 0.38964844
vt 0.5629883 0.00207901
vt -0.0018482208 0.00207901
vt -0.0018482208 1.5058594
vt 0.5629883 1.5058594
vn -0 0 1
vn -0 0 1
vn -0 0 1
vn -0 0 1
vn -0 0 1
vn -0 0 1
vn -0 0 1
vn -0 0 1
vn -0 0 1
vn -0 0 1
vn -0 0 1
vn -0 0 1
vn -0 -1 0
vn -0 -1 0
vn -0 -1 0
vn -0 -1 0
vn -0 1 0
vn -0 1 0
vn -0 1 0
vn -0 1 0
vn 1 0 0
vn 1 0 0
vn 1 0 0
vn 1 0 0
vn -1 0 0
vn -1 0 0
vn -1 0 0
vn -1 0 0
vn -0 1 0
vn -0 1 0
vn -0 1 0
vn -0 1 0
vn -1 0 0
vn -1 0 0
vn -1 0 0
vn -1 0 0
vn -0 -1 0
vn -0 -1 0
vn -0 -1 0
vn -0 -1 0
vn -0 1 0
vn -0 1 0
vn -0 1 0
vn -0 1 0
vn -0 -1 0
vn -0 -1 0
vn -0 -1 0
vn -0 -1 0
vn -1 0 0
vn -1 0 0
vn -1 0 0
vn -1 0 0
vn -0 0 1
vn -0 0 1
vn -0 0 1
vn -0 0 1
vn -0 1 0
vn -0 1 0
vn -0 1 0
vn -0 1 0
vn -0 -1 0
vn -0 -1 0
vn -0 -1 0
vn -0 -1 0
vn -0 0 1
vn -0 0 1
vn -0 0 1
vn -0 0 1
vn -0 0 1
vn -0 0 1
vn -0 0 1
vn -0 0 1
vn 0.021575928 -0.9995117 0.02243042
vn 0.021591187 -1 0
vn 0.021575928 -0.9995117 0.02243042
vn 0.021591187 -1 0
vn 0.021591187 -1 0
vn 0.021591187 -1 0
vn 0.021575928 -0.9995117 -0.02243042
vn 0.021575928 -0.9995117 -0.02243042
vn 1 0 0
vn 1 0 0
vn 1 0 0
vn 1 0 0
vn 1 0 0
vn 1 0 0
vn 1 0 0
vn 1 0 0
vn -0 -1 0
vn -0 -1 0
vn -0 -1 0
vn -0 -1 0
vn -0 0 1
vn -0 0 1
vn -0 0 1
vn -0 0 1
vn 1 0 -2.3841858E-07
vn 1 0 -2.3841858E-07
vn 1 0 -2.3841858E-07
vn 1 0 -2.3841858E-07
vn -1 0 1.1920929E-07
vn -1 0 1.1920929E-07
vn -1 0 1.1920929E-07
vn -1 0 1.1920929E-07
vn -0 0 -1
vn -0 0 -1
vn -0 0 -1
vn -0 0 -1
vn -0 0 1
vn -0 0 1
vn -0 0 1
vn -0 0 1
g Alley_STR_House_01_Side_02_0
f 3/3/3 2/2/2 1/1/1
f 4/4/4 3/3/3 1/1/1
f 7/7/7 6/6/6 5/5/5
f 8/8/8 7/7/7 5/5/5
f 11/11/11 10/10/10 9/9/9
f 12/12/12 11/11/11 9/9/9
f 15/15/15 14/14/14 13/13/13
f 16/16/16 15/15/15 13/13/13
f 19/19/19 18/18/18 17/17/17
f 20/20/20 19/19/19 17/17/17
f 23/23/23 22/22/22 21/21/21
f 24/24/24 23/23/23 21/21/21
f 27/27/27 26/26/26 25/25/25
f 28/28/28 27/27/27 25/25/25
f 31/31/31 30/30/30 29/29/29
f 32/32/32 31/31/31 29/29/29
f 35/35/35 34/34/34 33/33/33
f 36/36/36 35/35/35 33/33/33
f 39/39/39 38/38/38 37/37/37
f 40/40/40 39/39/39 37/37/37
f 43/43/43 42/42/42 41/41/41
f 44/44/44 43/43/43 41/41/41
f 47/47/47 46/46/46 45/45/45
f 48/48/48 47/47/47 45/45/45
f 51/51/51 50/50/50 49/49/49
f 52/52/52 51/51/51 49/49/49
f 55/55/55 54/54/54 53/53/53
f 56/56/56 55/55/55 53/53/53
f 59/59/59 58/58/58 57/57/57
f 60/60/60 59/59/59 57/57/57
f 63/63/63 62/62/62 61/61/61
f 64/64/64 63/63/63 61/61/61
f 67/67/67 66/66/66 65/65/65
f 68/68/68 67/67/67 65/65/65
f 71/71/71 70/70/70 69/69/69
f 72/72/72 71/71/71 69/69/69
f 75/75/75 74/74/74 73/73/73
f 74/74/74 76/76/76 73/73/73
f 74/74/74 77/77/77 76/76/76
f 77/77/77 78/78/78 76/76/76
f 78/78/78 77/77/77 79/79/79
f 80/80/80 78/78/78 79/79/79
f 83/83/83 82/82/82 81/81/81
f 82/82/82 84/84/84 81/81/81
f 82/82/82 85/85/85 84/84/84
f 85/85/85 86/86/86 84/84/84
f 86/86/86 85/85/85 87/87/87
f 88/88/88 86/86/86 87/87/87
f 91/91/91 90/90/90 89/89/89
f 92/92/92 91/91/91 89/89/89
f 95/95/95 94/94/94 93/93/93
f 96/96/96 95/95/95 93/93/93
f 99/99/99 98/98/98 97/97/97
f 100/100/100 99/99/99 97/97/97
f 103/103/103 102/102/102 101/101/101
f 104/104/104 103/103/103 101/101/101
f 107/107/107 106/106/106 105/105/105
f 108/108/108 107/107/107 105/105/105
g Alley_STR_House_01_Side_02_1
f 111/111/111 110/110/110 109/109/109
f 112/112/112 111/111/111 109/109/109
