g Alley_STR_House_12_Floor_Deco_Re
v 3.4619522 -12.386141 0.11872894
v 4.8879733 -12.386141 0.11872909
v 4.8879733 -12.386141 0.0987291
v 3.4619522 -12.386141 0.09872894
v 3.4619517 -12.055003 0.11872894
v 4.8879733 -12.055003 0.11872909
v 4.8879733 -12.386141 0.11872909
v 3.4619522 -12.386141 0.11872894
v 3.4577582 -12.207957 0.13872895
v 5.362887 -12.207957 0.13872895
v 5.362887 -12.249896 0.13872895
v 3.4577577 -12.249896 0.13872895
v 3.4577582 -12.207957 0.11872894
v 5.362887 -12.207957 0.11872894
v 5.362887 -12.207957 0.13872895
v 3.4577582 -12.207957 0.13872895
v 3.4577577 -12.249896 0.13872895
v 5.362887 -12.249896 0.13872895
v 5.362887 -12.249896 0.11872894
v 3.4577577 -12.249896 0.11872894
v 3.4619517 -12.055003 0.09872894
v 4.8879733 -12.055003 0.0987291
v 4.8879733 -12.055003 0.11872909
v 3.4619517 -12.055003 0.11872894
v 6.313994 -12.055002 0.11873016
v 4.8879733 -12.055003 0.11872909
v 4.8879733 -12.055003 0.0987291
v 6.313994 -12.055002 0.09873016
v 6.313994 -12.38614 0.09873016
v 4.8879733 -12.386141 0.0987291
v 4.8879733 -12.386141 0.11872909
v 6.313994 -12.38614 0.11873016
v 6.313994 -12.38614 0.11873016
v 4.8879733 -12.386141 0.11872909
v 4.8879733 -12.055003 0.11872909
v 6.313994 -12.055002 0.11873016
v 7.7400193 -12.055001 0.118731074
v 6.313994 -12.055002 0.11873016
v 6.313994 -12.055002 0.09873016
v 7.7400193 -12.055001 0.09873108
v 7.7400193 -12.386139 0.09873108
v 6.313994 -12.38614 0.09873016
v 6.313994 -12.38614 0.11873016
v 7.7400193 -12.386139 0.118731074
v 7.7400193 -12.386139 0.118731074
v 6.313994 -12.38614 0.11873016
v 6.313994 -12.055002 0.11873016
v 7.7400193 -12.055001 0.118731074
v 9.166046 -12.054999 0.118730925
v 7.7400193 -12.055001 0.118731074
v 7.7400193 -12.055001 0.09873108
v 9.166046 -12.054999 0.09873092
v 9.166046 -12.386137 0.09873092
v 7.7400193 -12.386139 0.09873108
v 7.7400193 -12.386139 0.118731074
v 9.166046 -12.386137 0.118730925
v 9.166046 -12.386137 0.118730925
v 7.7400193 -12.386139 0.118731074
v 7.7400193 -12.055001 0.118731074
v 9.166046 -12.054999 0.118730925
v 7.2680154 -12.249891 0.13872895
v 5.362887 -12.249896 0.13872895
v 5.362887 -12.207957 0.13872895
v 7.2680163 -12.2079525 0.13872895
v 5.362887 -12.207957 0.11872894
v 7.2680163 -12.2079525 0.11872894
v 7.2680163 -12.2079525 0.13872895
v 5.362887 -12.207957 0.13872895
v 7.2680154 -12.249891 0.11872894
v 5.362887 -12.249896 0.11872894
v 5.362887 -12.249896 0.13872895
v 7.2680154 -12.249891 0.13872895
v 9.173144 -12.249891 0.13872895
v 7.2680154 -12.249891 0.13872895
v 7.2680163 -12.2079525 0.13872895
v 9.173144 -12.2079525 0.13872895
v 9.173144 -12.2079525 0.13872895
v 7.2680163 -12.2079525 0.13872895
v 7.2680163 -12.2079525 0.11872894
v 9.173144 -12.2079525 0.11872894
v 9.173144 -12.249891 0.11872894
v 7.2680154 -12.249891 0.11872894
v 7.2680154 -12.249891 0.13872895
v 9.173144 -12.249891 0.13872895
v 7.2654395 -12.069725 0.13872895
v 7.26544 -12.111664 0.13872895
v 5.360311 -12.111659 0.13872895
v 5.3603106 -12.06972 0.13872895
v 5.3603106 -12.06972 0.13872895
v 5.3603106 -12.06972 0.11872894
v 7.2654395 -12.069725 0.11872894
v 7.2654395 -12.069725 0.13872895
v 7.26544 -12.111664 0.13872895
v 7.26544 -12.111664 0.11872894
v 5.360311 -12.111659 0.11872894
v 5.360311 -12.111659 0.13872895
v 5.3603106 -12.06972 0.13872895
v 5.360311 -12.111659 0.13872895
v 3.4551823 -12.111659 0.13872895
v 3.4551823 -12.06972 0.13872895
v 7.26544 -12.111664 0.13872895
v 7.2654395 -12.069725 0.13872895
v 9.170568 -12.069725 0.13872895
v 9.170568 -12.111664 0.13872895
v 7.2654395 -12.069725 0.13872895
v 7.2654395 -12.069725 0.11872894
v 9.170568 -12.069725 0.11872894
v 9.170568 -12.069725 0.13872895
v 5.3603106 -12.06972 0.11872894
v 5.3603106 -12.06972 0.13872895
v 3.4551823 -12.06972 0.13872895
v 3.4551823 -12.06972 0.11872894
v 5.360311 -12.111659 0.13872895
v 5.360311 -12.111659 0.11872894
v 3.4551823 -12.111659 0.11872894
v 3.4551823 -12.111659 0.13872895
v 7.26544 -12.111664 0.11872894
v 7.26544 -12.111664 0.13872895
v 9.170568 -12.111664 0.13872895
v 9.170568 -12.111664 0.11872894
v 0.0042614746 -6.683529 0.11872894
v 0.0042614746 -8.10955 0.11872909
v 0.0042614746 -8.10955 0.0987291
v 0.0042614746 -6.683529 0.09872894
v 0.33540037 -6.683529 0.09872894
v 0.33539915 -8.10955 0.0987291
v 0.33539915 -8.10955 0.11872909
v 0.33540037 -6.683529 0.11872894
v 0.33540037 -6.683529 0.11872894
v 0.33539915 -8.10955 0.11872909
v 0.0042614746 -8.10955 0.11872909
v 0.0042614746 -6.683529 0.11872894
v 0.335401 -9.535571 0.11873016
v 0.33539915 -8.10955 0.11872909
v 0.33539915 -8.10955 0.0987291
v 0.335401 -9.535571 0.09873016
v 0.0042633056 -9.535571 0.09873016
v 0.0042614746 -8.10955 0.0987291
v 0.0042614746 -8.10955 0.11872909
v 0.0042633056 -9.535571 0.11873016
v 0.0042633056 -9.535571 0.11873016
v 0.0042614746 -8.10955 0.11872909
v 0.33539915 -8.10955 0.11872909
v 0.335401 -9.535571 0.11873016
v 0.3354016 -10.9615965 0.118731074
v 0.335401 -9.535571 0.11873016
v 0.335401 -9.535571 0.09873016
v 0.3354016 -10.9615965 0.09873108
v 0.004263916 -10.9615965 0.09873108
v 0.0042633056 -9.535571 0.09873016
v 0.0042633056 -9.535571 0.11873016
v 0.004263916 -10.9615965 0.118731074
v 0.004263916 -10.9615965 0.118731074
v 0.0042633056 -9.535571 0.11873016
v 0.335401 -9.535571 0.11873016
v 0.3354016 -10.9615965 0.118731074
v 0.33540222 -12.387622 0.118730925
v 0.3354016 -10.9615965 0.118731074
v 0.3354016 -10.9615965 0.09873108
v 0.33540222 -12.387622 0.09873092
v 0.004264526 -12.387622 0.09873092
v 0.004263916 -10.9615965 0.09873108
v 0.004263916 -10.9615965 0.118731074
v 0.004264526 -12.387622 0.118730925
v 0.004264526 -12.387622 0.118730925
v 0.004263916 -10.9615965 0.118731074
v 0.3354016 -10.9615965 0.118731074
v 0.33540222 -12.387622 0.118730925
v 0.046722412 -10.489592 0.13872895
v 0.04671753 -8.584463 0.13872895
v 0.088656 -8.584464 0.13872895
v 0.08866089 -10.489592 0.13872895
v 0.088656 -8.584464 0.11872894
v 0.08866089 -10.489592 0.11872894
v 0.08866089 -10.489592 0.13872895
v 0.088656 -8.584464 0.13872895
v 0.046722412 -10.489592 0.11872894
v 0.04671753 -8.584463 0.11872894
v 0.04671753 -8.584463 0.13872895
v 0.046722412 -10.489592 0.13872895
v 0.046722412 -12.394721 0.13872895
v 0.046722412 -10.489592 0.13872895
v 0.08866089 -10.489592 0.13872895
v 0.08866089 -12.394721 0.13872895
v 0.08865722 -6.6793346 0.13872895
v 0.088656 -8.584464 0.13872895
v 0.04671753 -8.584463 0.13872895
v 0.04671875 -6.6793346 0.13872895
v 0.08865722 -6.6793346 0.11872894
v 0.088656 -8.584464 0.11872894
v 0.088656 -8.584464 0.13872895
v 0.08865722 -6.6793346 0.13872895
v 0.08866089 -12.394721 0.13872895
v 0.08866089 -10.489592 0.13872895
v 0.08866089 -10.489592 0.11872894
v 0.08866089 -12.394721 0.11872894
v 0.046722412 -12.394721 0.11872894
v 0.046722412 -10.489592 0.11872894
v 0.046722412 -10.489592 0.13872895
v 0.046722412 -12.394721 0.13872895
v 0.04671875 -6.6793346 0.13872895
v 0.04671753 -8.584463 0.13872895
v 0.04671753 -8.584463 0.11872894
v 0.04671875 -6.6793346 0.11872894
v 0.25343138 -10.487017 0.13872895
v 0.21149291 -10.487017 0.13872895
v 0.2114978 -8.581888 0.13872895
v 0.25343627 -8.581887 0.13872895
v 0.25343627 -8.581887 0.13872895
v 0.25343627 -8.581887 0.11872894
v 0.25343138 -10.487017 0.11872894
v 0.25343138 -10.487017 0.13872895
v 0.21149291 -10.487017 0.13872895
v 0.21149291 -10.487017 0.11872894
v 0.2114978 -8.581888 0.11872894
v 0.2114978 -8.581888 0.13872895
v 0.25343627 -8.581887 0.13872895
v 0.2114978 -8.581888 0.13872895
v 0.21149902 -6.676759 0.13872895
v 0.2534375 -6.676759 0.13872895
v 0.21149291 -10.487017 0.13872895
v 0.25343138 -10.487017 0.13872895
v 0.25343138 -12.392146 0.13872895
v 0.21149291 -12.392146 0.13872895
v 0.25343138 -10.487017 0.13872895
v 0.25343138 -10.487017 0.11872894
v 0.25343138 -12.392146 0.11872894
v 0.25343138 -12.392146 0.13872895
v 0.25343627 -8.581887 0.11872894
v 0.25343627 -8.581887 0.13872895
v 0.2534375 -6.676759 0.13872895
v 0.2534375 -6.676759 0.11872894
v 0.2114978 -8.581888 0.13872895
v 0.2114978 -8.581888 0.11872894
v 0.21149902 -6.676759 0.11872894
v 0.21149902 -6.676759 0.13872895
v 0.21149291 -10.487017 0.11872894
v 0.21149291 -10.487017 0.13872895
v 0.21149291 -12.392146 0.13872895
v 0.21149291 -12.392146 0.11872894
vt 0.671875 0.5161133
vt 0.5371094 0.5161133
vt 0.5371094 0.5180664
vt 0.671875 0.5180664
vt 0.5371094 0.5161133
vt 0.671875 0.5161133
vt 0.671875 0.48461914
vt 0.5371094 0.48461914
vt 0.6953125 0.55908203
vt 0.8515625 0.55908203
vt 0.8515625 0.55566406
vt 0.6953125 0.55566406
vt 0.6953125 0.5605469
vt 0.8515625 0.5605469
vt 0.8515625 0.55908203
vt 0.6953125 0.55908203
vt 0.8515625 0.55908203
vt 0.6953125 0.55908203
vt 0.6953125 0.5605469
vt 0.8515625 0.5605469
vt 0.5371094 0.5180664
vt 0.671875 0.5180664
vt 0.671875 0.5161133
vt 0.5371094 0.5161133
vt 0.671875 0.5161133
vt 0.5371094 0.5161133
vt 0.5371094 0.5180664
vt 0.671875 0.5180664
vt 0.5371094 0.5180664
vt 0.671875 0.5180664
vt 0.671875 0.5161133
vt 0.5371094 0.5161133
vt 0.5371094 0.5161133
vt 0.671875 0.5161133
vt 0.671875 0.48461914
vt 0.5371094 0.48461914
vt 0.671875 0.5161133
vt 0.5371094 0.5161133
vt 0.5371094 0.5180664
vt 0.671875 0.5180664
vt 0.5371094 0.5180664
vt 0.671875 0.5180664
vt 0.671875 0.5161133
vt 0.5371094 0.5161133
vt 0.5371094 0.5161133
vt 0.671875 0.5161133
vt 0.671875 0.48461914
vt 0.5371094 0.48461914
vt 0.671875 0.5161133
vt 0.5371094 0.5161133
vt 0.5371094 0.5180664
vt 0.671875 0.5180664
vt 0.5371094 0.5180664
vt 0.671875 0.5180664
vt 0.671875 0.5161133
vt 0.5371094 0.5161133
vt 0.5371094 0.5161133
vt 0.671875 0.5161133
vt 0.671875 0.48461914
vt 0.5371094 0.48461914
vt 0.8515625 0.55566406
vt 0.6953125 0.55566406
vt 0.6953125 0.55908203
vt 0.8515625 0.55908203
vt 0.6953125 0.5605469
vt 0.8515625 0.5605469
vt 0.8515625 0.55908203
vt 0.6953125 0.55908203
vt 0.6953125 0.5605469
vt 0.8515625 0.5605469
vt 0.8515625 0.55908203
vt 0.6953125 0.55908203
vt 0.8515625 0.55566406
vt 0.6953125 0.55566406
vt 0.6953125 0.55908203
vt 0.8515625 0.55908203
vt 0.8515625 0.55908203
vt 0.6953125 0.55908203
vt 0.6953125 0.5605469
vt 0.8515625 0.5605469
vt 0.6953125 0.5605469
vt 0.8515625 0.5605469
vt 0.8515625 0.55908203
vt 0.6953125 0.55908203
vt 0.6953125 0.55908203
vt 0.6953125 0.55566406
vt 0.8515625 0.55566406
vt 0.8515625 0.55908203
vt 0.8515625 0.55908203
vt 0.8515625 0.5605469
vt 0.6953125 0.5605469
vt 0.6953125 0.55908203
vt 0.8515625 0.55908203
vt 0.8515625 0.5605469
vt 0.6953125 0.5605469
vt 0.6953125 0.55908203
vt 0.6953125 0.55908203
vt 0.6953125 0.55566406
vt 0.8515625 0.55566406
vt 0.8515625 0.55908203
vt 0.8515625 0.55566406
vt 0.8515625 0.55908203
vt 0.6953125 0.55908203
vt 0.6953125 0.55566406
vt 0.8515625 0.55908203
vt 0.8515625 0.5605469
vt 0.6953125 0.5605469
vt 0.6953125 0.55908203
vt 0.6953125 0.5605469
vt 0.6953125 0.55908203
vt 0.8515625 0.55908203
vt 0.8515625 0.5605469
vt 0.8515625 0.55908203
vt 0.8515625 0.5605469
vt 0.6953125 0.5605469
vt 0.6953125 0.55908203
vt 0.6953125 0.5605469
vt 0.6953125 0.55908203
vt 0.8515625 0.55908203
vt 0.8515625 0.5605469
vt 0.671875 0.5161133
vt 0.5371094 0.5161133
vt 0.5371094 0.5180664
vt 0.671875 0.5180664
vt 0.5371094 0.5180664
vt 0.671875 0.5180664
vt 0.671875 0.5161133
vt 0.5371094 0.5161133
vt 0.5371094 0.5161133
vt 0.671875 0.5161133
vt 0.671875 0.48461914
vt 0.5371094 0.48461914
vt 0.671875 0.5161133
vt 0.5371094 0.5161133
vt 0.5371094 0.5180664
vt 0.671875 0.5180664
vt 0.5371094 0.5180664
vt 0.671875 0.5180664
vt 0.671875 0.5161133
vt 0.5371094 0.5161133
vt 0.5371094 0.5161133
vt 0.671875 0.5161133
vt 0.671875 0.48461914
vt 0.5371094 0.48461914
vt 0.671875 0.5161133
vt 0.5371094 0.5161133
vt 0.5371094 0.5180664
vt 0.671875 0.5180664
vt 0.5371094 0.5180664
vt 0.671875 0.5180664
vt 0.671875 0.5161133
vt 0.5371094 0.5161133
vt 0.5371094 0.5161133
vt 0.671875 0.5161133
vt 0.671875 0.48461914
vt 0.5371094 0.48461914
vt 0.671875 0.5161133
vt 0.5371094 0.5161133
vt 0.5371094 0.5180664
vt 0.671875 0.5180664
vt 0.5371094 0.5180664
vt 0.671875 0.5180664
vt 0.671875 0.5161133
vt 0.5371094 0.5161133
vt 0.5371094 0.5161133
vt 0.671875 0.5161133
vt 0.671875 0.48461914
vt 0.5371094 0.48461914
vt 0.8515625 0.55566406
vt 0.6953125 0.55566406
vt 0.6953125 0.55908203
vt 0.8515625 0.55908203
vt 0.6953125 0.5605469
vt 0.8515625 0.5605469
vt 0.8515625 0.55908203
vt 0.6953125 0.55908203
vt 0.6953125 0.5605469
vt 0.8515625 0.5605469
vt 0.8515625 0.55908203
vt 0.6953125 0.55908203
vt 0.8515625 0.55566406
vt 0.6953125 0.55566406
vt 0.6953125 0.55908203
vt 0.8515625 0.55908203
vt 0.6953125 0.55908203
vt 0.8515625 0.55908203
vt 0.8515625 0.55566406
vt 0.6953125 0.55566406
vt 0.6953125 0.5605469
vt 0.8515625 0.5605469
vt 0.8515625 0.55908203
vt 0.6953125 0.55908203
vt 0.8515625 0.55908203
vt 0.6953125 0.55908203
vt 0.6953125 0.5605469
vt 0.8515625 0.5605469
vt 0.6953125 0.5605469
vt 0.8515625 0.5605469
vt 0.8515625 0.55908203
vt 0.6953125 0.55908203
vt 0.8515625 0.55908203
vt 0.6953125 0.55908203
vt 0.6953125 0.5605469
vt 0.8515625 0.5605469
vt 0.6953125 0.55908203
vt 0.6953125 0.55566406
vt 0.8515625 0.55566406
vt 0.8515625 0.55908203
vt 0.8515625 0.55908203
vt 0.8515625 0.5605469
vt 0.6953125 0.5605469
vt 0.6953125 0.55908203
vt 0.8515625 0.55908203
vt 0.8515625 0.5605469
vt 0.6953125 0.5605469
vt 0.6953125 0.55908203
vt 0.6953125 0.55908203
vt 0.6953125 0.55566406
vt 0.8515625 0.55566406
vt 0.8515625 0.55908203
vt 0.8515625 0.55566406
vt 0.8515625 0.55908203
vt 0.6953125 0.55908203
vt 0.6953125 0.55566406
vt 0.8515625 0.55908203
vt 0.8515625 0.5605469
vt 0.6953125 0.5605469
vt 0.6953125 0.55908203
vt 0.6953125 0.5605469
vt 0.6953125 0.55908203
vt 0.8515625 0.55908203
vt 0.8515625 0.5605469
vt 0.8515625 0.55908203
vt 0.8515625 0.5605469
vt 0.6953125 0.5605469
vt 0.6953125 0.55908203
vt 0.6953125 0.5605469
vt 0.6953125 0.55908203
vt 0.8515625 0.55908203
vt 0.8515625 0.5605469
vn -0 -1 0
vn -0 -1 0
vn -0 -1 0
vn -0 -1 0
vn -1.1920929E-07 0 1
vn -1.1920929E-07 0 1
vn -1.1920929E-07 0 1
vn -1.1920929E-07 0 1
vn -0 0 1
vn -0 0 1
vn -0 0 1
vn -0 0 1
vn -0 1 0
vn -0 1 0
vn -0 1 0
vn -0 1 0
vn -0 -1 0
vn -0 -1 0
vn -0 -1 0
vn -0 -1 0
vn -0 1 0
vn -0 1 0
vn -0 1 0
vn -0 1 0
vn -8.34465E-07 1 0
vn -8.34465E-07 1 0
vn -8.34465E-07 1 0
vn -8.34465E-07 1 0
vn 8.34465E-07 -1 0
vn 8.34465E-07 -1 0
vn 8.34465E-07 -1 0
vn 8.34465E-07 -1 0
vn -7.748604E-07 0 1
vn -7.748604E-07 0 1
vn -7.748604E-07 0 1
vn -7.748604E-07 0 1
vn -8.34465E-07 1 0
vn -8.34465E-07 1 0
vn -8.34465E-07 1 0
vn -8.34465E-07 1 0
vn 8.34465E-07 -1 0
vn 8.34465E-07 -1 0
vn 8.34465E-07 -1 0
vn 8.34465E-07 -1 0
vn -6.556511E-07 0 1
vn -6.556511E-07 0 1
vn -6.556511E-07 0 1
vn -6.556511E-07 0 1
vn -8.34465E-07 1 0
vn -8.34465E-07 1 0
vn -8.34465E-07 1 0
vn -8.34465E-07 1 0
vn 8.34465E-07 -1 0
vn 8.34465E-07 -1 0
vn 8.34465E-07 -1 0
vn 8.34465E-07 -1 0
vn 1.1920929E-07 0 1
vn 1.1920929E-07 0 1
vn 1.1920929E-07 0 1
vn 1.1920929E-07 0 1
vn -0 0 1
vn -0 0 1
vn -0 0 1
vn -0 0 1
vn -2.5629997E-06 1 0
vn -2.5629997E-06 1 0
vn -2.5629997E-06 1 0
vn -2.5629997E-06 1 0
vn 2.5629997E-06 -1 0
vn 2.5629997E-06 -1 0
vn 2.5629997E-06 -1 0
vn 2.5629997E-06 -1 0
vn -0 0 1
vn -0 0 1
vn -0 0 1
vn -0 0 1
vn -0 1 0
vn -0 1 0
vn -0 1 0
vn -0 1 0
vn -0 -1 0
vn -0 -1 0
vn -0 -1 0
vn -0 -1 0
vn -0 0 1
vn -0 0 1
vn -0 0 1
vn -0 0 1
vn 2.5629997E-06 1 0
vn 2.5629997E-06 1 0
vn 2.5629997E-06 1 0
vn 2.5629997E-06 1 0
vn -2.5629997E-06 -1 0
vn -2.5629997E-06 -1 0
vn -2.5629997E-06 -1 0
vn -2.5629997E-06 -1 0
vn -0 0 1
vn -0 0 1
vn -0 0 1
vn -0 0 1
vn -0 0 1
vn -0 0 1
vn -0 0 1
vn -0 0 1
vn -0 1 0
vn -0 1 0
vn -0 1 0
vn -0 1 0
vn -0 1 0
vn -0 1 0
vn -0 1 0
vn -0 1 0
vn -0 -1 0
vn -0 -1 0
vn -0 -1 0
vn -0 -1 0
vn -0 -1 0
vn -0 -1 0
vn -0 -1 0
vn -0 -1 0
vn -1 0 0
vn -1 0 0
vn -1 0 0
vn -1 0 0
vn 1 -8.34465E-07 0
vn 1 -8.34465E-07 0
vn 1 -8.34465E-07 0
vn 1 -8.34465E-07 0
vn -0 1.1920929E-07 1
vn -0 1.1920929E-07 1
vn -0 1.1920929E-07 1
vn -0 1.1920929E-07 1
vn 1 1.3113022E-06 0
vn 1 1.3113022E-06 0
vn 1 1.3113022E-06 0
vn 1 1.3113022E-06 0
vn -1 -1.3113022E-06 0
vn -1 -1.3113022E-06 0
vn -1 -1.3113022E-06 0
vn -1 -1.3113022E-06 0
vn -0 7.748604E-07 1
vn -0 7.748604E-07 1
vn -0 7.748604E-07 1
vn -0 7.748604E-07 1
vn 1 4.172325E-07 0
vn 1 4.172325E-07 0
vn 1 4.172325E-07 0
vn 1 4.172325E-07 0
vn -1 -4.172325E-07 0
vn -1 -4.172325E-07 0
vn -1 -4.172325E-07 0
vn -1 -4.172325E-07 0
vn -0 6.556511E-07 1
vn -0 6.556511E-07 1
vn -0 6.556511E-07 1
vn -0 6.556511E-07 1
vn 1 4.172325E-07 0
vn 1 4.172325E-07 0
vn 1 4.172325E-07 0
vn 1 4.172325E-07 0
vn -1 -4.172325E-07 0
vn -1 -4.172325E-07 0
vn -1 -4.172325E-07 0
vn -1 -4.172325E-07 0
vn -0 -1.1920929E-07 1
vn -0 -1.1920929E-07 1
vn -0 -1.1920929E-07 1
vn -0 -1.1920929E-07 1
vn -0 0 1
vn -0 0 1
vn -0 0 1
vn -0 0 1
vn 1 2.5629997E-06 0
vn 1 2.5629997E-06 0
vn 1 2.5629997E-06 0
vn 1 2.5629997E-06 0
vn -1 -2.5629997E-06 0
vn -1 -2.5629997E-06 0
vn -1 -2.5629997E-06 0
vn -1 -2.5629997E-06 0
vn -0 0 1
vn -0 0 1
vn -0 0 1
vn -0 0 1
vn -0 0 1
vn -0 0 1
vn -0 0 1
vn -0 0 1
vn 1 -6.556511E-07 0
vn 1 -6.556511E-07 0
vn 1 -6.556511E-07 0
vn 1 -6.556511E-07 0
vn 1 0 0
vn 1 0 0
vn 1 0 0
vn 1 0 0
vn -1 0 0
vn -1 0 0
vn -1 0 0
vn -1 0 0
vn -1 6.556511E-07 0
vn -1 6.556511E-07 0
vn -1 6.556511E-07 0
vn -1 6.556511E-07 0
vn -0 0 1
vn -0 0 1
vn -0 0 1
vn -0 0 1
vn 1 -2.5629997E-06 0
vn 1 -2.5629997E-06 0
vn 1 -2.5629997E-06 0
vn 1 -2.5629997E-06 0
vn -1 2.5629997E-06 0
vn -1 2.5629997E-06 0
vn -1 2.5629997E-06 0
vn -1 2.5629997E-06 0
vn -0 0 1
vn -0 0 1
vn -0 0 1
vn -0 0 1
vn -0 0 1
vn -0 0 1
vn -0 0 1
vn -0 0 1
vn 1 0 0
vn 1 0 0
vn 1 0 0
vn 1 0 0
vn 1 -6.556511E-07 0
vn 1 -6.556511E-07 0
vn 1 -6.556511E-07 0
vn 1 -6.556511E-07 0
vn -1 6.556511E-07 0
vn -1 6.556511E-07 0
vn -1 6.556511E-07 0
vn -1 6.556511E-07 0
vn -1 0 0
vn -1 0 0
vn -1 0 0
vn -1 0 0
g Alley_STR_House_12_Floor_Deco_Re_0
f 3/3/3 2/2/2 1/1/1
f 4/4/4 3/3/3 1/1/1
f 7/7/7 6/6/6 5/5/5
f 8/8/8 7/7/7 5/5/5
f 11/11/11 10/10/10 9/9/9
f 12/12/12 11/11/11 9/9/9
f 15/15/15 14/14/14 13/13/13
f 16/16/16 15/15/15 13/13/13
f 19/19/19 18/18/18 17/17/17
f 20/20/20 19/19/19 17/17/17
f 23/23/23 22/22/22 21/21/21
f 24/24/24 23/23/23 21/21/21
f 27/27/27 26/26/26 25/25/25
f 28/28/28 27/27/27 25/25/25
f 31/31/31 30/30/30 29/29/29
f 32/32/32 31/31/31 29/29/29
f 35/35/35 34/34/34 33/33/33
f 36/36/36 35/35/35 33/33/33
f 39/39/39 38/38/38 37/37/37
f 40/40/40 39/39/39 37/37/37
f 43/43/43 42/42/42 41/41/41
f 44/44/44 43/43/43 41/41/41
f 47/47/47 46/46/46 45/45/45
f 48/48/48 47/47/47 45/45/45
f 51/51/51 50/50/50 49/49/49
f 52/52/52 51/51/51 49/49/49
f 55/55/55 54/54/54 53/53/53
f 56/56/56 55/55/55 53/53/53
f 59/59/59 58/58/58 57/57/57
f 60/60/60 59/59/59 57/57/57
f 63/63/63 62/62/62 61/61/61
f 64/64/64 63/63/63 61/61/61
f 67/67/67 66/66/66 65/65/65
f 68/68/68 67/67/67 65/65/65
f 71/71/71 70/70/70 69/69/69
f 72/72/72 71/71/71 69/69/69
f 75/75/75 74/74/74 73/73/73
f 76/76/76 75/75/75 73/73/73
f 79/79/79 78/78/78 77/77/77
f 80/80/80 79/79/79 77/77/77
f 83/83/83 82/82/82 81/81/81
f 84/84/84 83/83/83 81/81/81
f 87/87/87 86/86/86 85/85/85
f 88/88/88 87/87/87 85/85/85
f 91/91/91 90/90/90 89/89/89
f 92/92/92 91/91/91 89/89/89
f 95/95/95 94/94/94 93/93/93
f 96/96/96 95/95/95 93/93/93
f 99/99/99 98/98/98 97/97/97
f 100/100/100 99/99/99 97/97/97
f 103/103/103 102/102/102 101/101/101
f 104/104/104 103/103/103 101/101/101
f 107/107/107 106/106/106 105/105/105
f 108/108/108 107/107/107 105/105/105
f 111/111/111 110/110/110 109/109/109
f 112/112/112 111/111/111 109/109/109
f 115/115/115 114/114/114 113/113/113
f 116/116/116 115/115/115 113/113/113
f 119/119/119 118/118/118 117/117/117
f 120/120/120 119/119/119 117/117/117
f 123/123/123 122/122/122 121/121/121
f 124/124/124 123/123/123 121/121/121
f 127/127/127 126/126/126 125/125/125
f 128/128/128 127/127/127 125/125/125
f 131/131/131 130/130/130 129/129/129
f 132/132/132 131/131/131 129/129/129
f 135/135/135 134/134/134 133/133/133
f 136/136/136 135/135/135 133/133/133
f 139/139/139 138/138/138 137/137/137
f 140/140/140 139/139/139 137/137/137
f 143/143/143 142/142/142 141/141/141
f 144/144/144 143/143/143 141/141/141
f 147/147/147 146/146/146 145/145/145
f 148/148/148 147/147/147 145/145/145
f 151/151/151 150/150/150 149/149/149
f 152/152/152 151/151/151 149/149/149
f 155/155/155 154/154/154 153/153/153
f 156/156/156 155/155/155 153/153/153
f 159/159/159 158/158/158 157/157/157
f 160/160/160 159/159/159 157/157/157
f 163/163/163 162/162/162 161/161/161
f 164/164/164 163/163/163 161/161/161
f 167/167/167 166/166/166 165/165/165
f 168/168/168 167/167/167 165/165/165
f 171/171/171 170/170/170 169/169/169
f 172/172/172 171/171/171 169/169/169
f 175/175/175 174/174/174 173/173/173
f 176/176/176 175/175/175 173/173/173
f 179/179/179 178/178/178 177/177/177
f 180/180/180 179/179/179 177/177/177
f 183/183/183 182/182/182 181/181/181
f 184/184/184 183/183/183 181/181/181
f 187/187/187 186/186/186 185/185/185
f 188/188/188 187/187/187 185/185/185
f 191/191/191 190/190/190 189/189/189
f 192/192/192 191/191/191 189/189/189
f 195/195/195 194/194/194 193/193/193
f 196/196/196 195/195/195 193/193/193
f 199/199/199 198/198/198 197/197/197
f 200/200/200 199/199/199 197/197/197
f 203/203/203 202/202/202 201/201/201
f 204/204/204 203/203/203 201/201/201
f 207/207/207 206/206/206 205/205/205
f 208/208/208 207/207/207 205/205/205
f 211/211/211 210/210/210 209/209/209
f 212/212/212 211/211/211 209/209/209
f 215/215/215 214/214/214 213/213/213
f 216/216/216 215/215/215 213/213/213
f 219/219/219 218/218/218 217/217/217
f 220/220/220 219/219/219 217/217/217
f 223/223/223 222/222/222 221/221/221
f 224/224/224 223/223/223 221/221/221
f 227/227/227 226/226/226 225/225/225
f 228/228/228 227/227/227 225/225/225
f 231/231/231 230/230/230 229/229/229
f 232/232/232 231/231/231 229/229/229
f 235/235/235 234/234/234 233/233/233
f 236/236/236 235/235/235 233/233/233
f 239/239/239 238/238/238 237/237/237
f 240/240/240 239/239/239 237/237/237
