g Alley_STR_Bridge_01
v -2.6499999 -2 0.4353137
v 2.649995 -2 0.3353137
v -2.6499999 -2 0.3353137
v 2.649995 -2 0.4353137
v 2.649995 1.6999999 0.3353137
v -2.6499999 1.6999999 0.4353137
v 2.649995 1.6999999 0.4353137
v -2.6499999 1.6999999 0.3353137
v -2.45 1.6999999 0.3353137
v -2.6499999 -1.9399999 0.03531372
v -0.9 -1.9399999 0.3353137
v -0.9 -1.9399999 0.03531372
v -2.6499999 -1.9399999 0.3353137
v -2.6499999 -1.9800024 -0.46468627
v 2.649995 -1.9800024 -0.66468626
v -2.6499999 -1.9800024 -0.66468626
v 2.649995 -1.9800024 -0.46468627
v -2.6499999 1.9799999 -0.46468627
v -0.9 1.8399975 -0.46468627
v -2.6499999 1.8399975 -0.46468627
v -0.9 1.9599999 -0.46468627
v 2.649995 1.9799999 -0.46468627
v -0.7 1.9599999 -0.46468627
v 0.84999996 1.8399975 -0.46468627
v -0.7 1.8399975 -0.46468627
v 0.84999996 1.9599999 -0.46468627
v 2.649995 1.9799999 -0.46468627
v -0.9 1.9599999 -0.46468627
v 1.0499951 1.9599999 -0.46468627
v 2.649995 1.8399975 -0.46468627
v 1.0499951 1.8399975 -0.46468627
v -2.6499999 -1.6999999 0.4353137
v 2.649995 -2 0.4353137
v -2.6499999 -2 0.4353137
v 2.649995 -1.6999999 0.4353137
v -2.6499999 2 0.4353137
v 2.649995 1.6999999 0.4353137
v -2.6499999 1.6999999 0.4353137
v 2.649995 2 0.4353137
v 2.649995 1.9799999 -0.66468626
v -2.6499999 1.9799999 -0.46468627
v -2.6499999 1.9799999 -0.66468626
v 2.649995 1.9799999 -0.46468627
v -2.6499999 -1.6999999 0.4353137
v 2.649995 -1.6999999 0.3353137
v 2.649995 -1.6999999 0.4353137
v -2.45 -1.6999999 0.3353137
v -2.6499999 -1.6999999 0.3353137
v -2.6499999 -2 0.3353137
v -0.9 -1.9399999 0.3353137
v -2.6499999 -1.9399999 0.3353137
v -0.9 -1.9599999 0.3353137
v 2.649995 -2 0.3353137
v -0.7 -1.9599999 0.3353137
v 0.84999996 -1.9399999 0.3353137
v -0.7 -1.9399999 0.3353137
v 0.84999996 -1.9599999 0.3353137
v 2.649995 -2 0.3353137
v -0.9 -1.9599999 0.3353137
v 1.0499951 -1.9599999 0.3353137
v 2.649995 -1.9399999 0.3353137
v 1.0499951 -1.9399999 0.3353137
v 2.649995 2 0.3353137
v -2.6499999 2 0.4353137
v -2.6499999 2 0.3353137
v 2.649995 2 0.4353137
v -0.7 -1.9399999 0.03531372
v 0.84999996 -1.9399999 0.3353137
v 0.84999996 -1.9399999 0.03531372
v -0.7 -1.9399999 0.3353137
v 1.0499951 -1.9399999 0.3353137
v 2.649995 -1.9399999 0.03531372
v 1.0499951 -1.9399999 0.03531372
v 2.649995 -1.9399999 0.3353137
v 2.649995 -1.9800024 -0.46468627
v 1.0499951 -1.8399999 -0.46468627
v 2.649995 -1.8399999 -0.46468627
v 1.0499951 -1.9599999 -0.46468627
v 0.84999996 -1.9599999 -0.46468627
v -0.7 -1.9599999 -0.46468627
v -0.9 -1.9599999 -0.46468627
v -0.7 -1.8399999 -0.46468627
v 0.84999996 -1.8399999 -0.46468627
v -0.9 -1.9599999 -0.46468627
v -2.6499999 -1.8399999 -0.46468627
v -0.9 -1.8399999 -0.46468627
v -2.6499999 -1.9800024 -0.46468627
v 2.649995 -1.9800024 -0.46468627
v -0.9 1.9399976 0.03531372
v -2.6499999 1.9399976 0.3353137
v -2.6499999 1.9399976 0.03531372
v -0.9 1.9399976 0.3353137
v 2.649995 2 0.3353137
v 1.0499951 1.9399976 0.3353137
v 2.649995 1.9399976 0.3353137
v 1.0499951 1.9599999 0.3353137
v 0.84999996 1.9599999 0.3353137
v -0.7 1.9399976 0.3353137
v 0.84999996 1.9399976 0.3353137
v -0.7 1.9599999 0.3353137
v -0.9 1.9599999 0.3353137
v -0.9 1.9599999 0.3353137
v -2.6499999 1.9399976 0.3353137
v -0.9 1.9399976 0.3353137
v -2.6499999 2 0.3353137
v 2.649995 2 0.3353137
v 2.649995 1.9399976 0.3353137
v 1.0499951 1.9399976 0.03531372
v 2.649995 1.9399976 0.03531372
v 1.0499951 1.9399976 0.3353137
v 0.84999996 1.9399976 0.03531372
v -0.7 1.9399976 0.3353137
v -0.7 1.9399976 0.03531372
v 0.84999996 1.9399976 0.3353137
v -0.9 1.8399975 -0.46468627
v -2.6499999 1.8399975 0.03531372
v -2.6499999 1.8399975 -0.46468627
v -0.9 1.8399975 0.03531372
v 1.0499951 -1.8399999 0.03531372
v 2.649995 -1.8399999 -0.46468627
v 1.0499951 -1.8399999 -0.46468627
v 2.649995 -1.8399999 0.03531372
v 1.0499951 -1.9399999 0.03531372
v 2.649995 -1.8399999 0.03531372
v 1.0499951 -1.8399999 0.03531372
v 2.649995 -1.9399999 0.03531372
v -0.7 -1.8399999 -0.46468627
v 0.84999996 -1.8399999 0.03531372
v 0.84999996 -1.8399999 -0.46468627
v -0.7 -1.8399999 0.03531372
v -0.7 -1.9399999 0.03531372
v 0.84999996 -1.8399999 0.03531372
v -0.7 -1.8399999 0.03531372
v 0.84999996 -1.9399999 0.03531372
v -2.6499999 -1.8399999 0.03531372
v -0.9 -1.8399999 -0.46468627
v -2.6499999 -1.8399999 -0.46468627
v -0.9 -1.8399999 0.03531372
v -2.6499999 -1.9399999 0.03531372
v -0.9 -1.8399999 0.03531372
v -2.6499999 -1.8399999 0.03531372
v -0.9 -1.9399999 0.03531372
v -0.7 1.8399975 0.03531372
v 0.84999996 1.9399976 0.03531372
v -0.7 1.9399976 0.03531372
v 0.84999996 1.8399975 0.03531372
v -2.6499999 1.8399975 0.03531372
v -0.9 1.9399976 0.03531372
v -2.6499999 1.9399976 0.03531372
v -0.9 1.8399975 0.03531372
v 2.649995 1.8399975 -0.46468627
v 1.0499951 1.8399975 0.03531372
v 1.0499951 1.8399975 -0.46468627
v 2.649995 1.8399975 0.03531372
v 0.84999996 1.8399975 -0.46468627
v -0.7 1.8399975 0.03531372
v -0.7 1.8399975 -0.46468627
v 0.84999996 1.8399975 0.03531372
v 1.0499951 1.8399975 0.03531372
v 2.649995 1.9399976 0.03531372
v 1.0499951 1.9399976 0.03531372
v 2.649995 1.8399975 0.03531372
v 1.0499951 -1.9399999 0.03531372
v 1.0499951 -1.9599999 0.3353137
v 1.0499951 -1.9399999 0.3353137
v 1.0499951 -1.9599999 -0.46468627
v 1.0499951 -1.8399999 -0.46468627
v 1.0499951 -1.8399999 0.03531372
v 0.84999996 -1.9399999 0.03531372
v 0.84999996 -1.8399999 -0.46468627
v 0.84999996 -1.8399999 0.03531372
v 0.84999996 -1.9599999 -0.46468627
v 0.84999996 -1.9399999 0.3353137
v 0.84999996 -1.9599999 0.3353137
v -0.7 -1.9399999 0.03531372
v -0.7 -1.9599999 0.3353137
v -0.7 -1.9399999 0.3353137
v -0.7 -1.9599999 -0.46468627
v -0.7 -1.8399999 -0.46468627
v -0.7 -1.8399999 0.03531372
v -0.9 -1.9399999 0.03531372
v -0.9 -1.8399999 -0.46468627
v -0.9 -1.8399999 0.03531372
v -0.9 -1.9599999 -0.46468627
v -0.9 -1.9399999 0.3353137
v -0.9 -1.9599999 0.3353137
v 0.84999996 -1.9599999 -0.46468627
v 1.0499951 -1.9599999 0.3353137
v 1.0499951 -1.9599999 -0.46468627
v 0.84999996 -1.9599999 0.3353137
v -0.9 -1.9599999 -0.46468627
v -0.7 -1.9599999 0.3353137
v -0.7 -1.9599999 -0.46468627
v -0.9 -1.9599999 0.3353137
v -0.7 1.9599999 -0.46468627
v -0.9 1.9599999 0.3353137
v -0.9 1.9599999 -0.46468627
v -0.7 1.9599999 0.3353137
v -0.7 1.9599999 -0.46468627
v -0.7 1.9399976 0.3353137
v -0.7 1.9599999 0.3353137
v -0.7 1.9399976 0.03531372
v -0.7 1.8399975 0.03531372
v -0.7 1.8399975 -0.46468627
v 1.0499951 1.9599999 -0.46468627
v 0.84999996 1.9599999 0.3353137
v 0.84999996 1.9599999 -0.46468627
v 1.0499951 1.9599999 0.3353137
v 1.0499951 1.9599999 -0.46468627
v 1.0499951 1.9399976 0.3353137
v 1.0499951 1.9599999 0.3353137
v 1.0499951 1.9399976 0.03531372
v 1.0499951 1.8399975 0.03531372
v 1.0499951 1.8399975 -0.46468627
v 0.84999996 1.9399976 0.3353137
v 0.84999996 1.9599999 -0.46468627
v 0.84999996 1.9599999 0.3353137
v 0.84999996 1.9399976 0.03531372
v 0.84999996 1.8399975 -0.46468627
v 0.84999996 1.8399975 0.03531372
v -0.9 1.9399976 0.3353137
v -0.9 1.9599999 -0.46468627
v -0.9 1.9599999 0.3353137
v -0.9 1.9399976 0.03531372
v -0.9 1.8399975 -0.46468627
v -0.9 1.8399975 0.03531372
vt 19.859375 -0.27514648
vt 21.328125 -0.30297852
vt 19.859375 -0.30297852
vt 21.328125 -0.27514648
vt 21.328125 -0.30297852
vt 19.859375 -0.27514648
vt 21.328125 -0.27514648
vt 19.859375 -0.30297852
vt 19.921875 -0.30297852
vt 19.796875 -0.5883789
vt 20.28125 -0.5048828
vt 20.28125 -0.5883789
vt 19.796875 -0.5048828
vt 19.859375 -0.29711914
vt 21.328125 -0.35253906
vt 19.859375 -0.35253906
vt 21.328125 -0.29711914
vt 20.703125 -0.3359375
vt 20.203125 -0.29711914
vt 20.703125 -0.29711914
vt 20.203125 -0.33032227
vt 19.21875 -0.3359375
vt 20.15625 -0.33032227
vt 19.71875 -0.29711914
vt 20.15625 -0.29711914
vt 19.71875 -0.33032227
vt 19.21875 -0.3359375
vt 20.203125 -0.33032227
vt 19.671875 -0.33032227
vt 19.21875 -0.29711914
vt 19.671875 -0.29711914
vt 19.859375 -0.19189453
vt 21.328125 -0.27514648
vt 19.859375 -0.27514648
vt 21.328125 -0.19189453
vt 19.859375 -0.19189453
vt 21.328125 -0.27514648
vt 19.859375 -0.27514648
vt 21.328125 -0.19189453
vt 19.21875 -0.35253906
vt 20.703125 -0.29711914
vt 20.703125 -0.35253906
vt 19.21875 -0.29711914
vt 19.796875 -0.2758789
vt 18.328125 -0.3034668
vt 18.328125 -0.2758789
vt 19.75 -0.3034668
vt 19.796875 -0.3034668
vt 19.859375 -0.30297852
vt 20.34375 -0.31958008
vt 19.859375 -0.31958008
vt 20.34375 -0.31396484
vt 21.328125 -0.30297852
vt 20.40625 -0.31396484
vt 20.828125 -0.31958008
vt 20.40625 -0.31958008
vt 20.828125 -0.31396484
vt 21.328125 -0.30297852
vt 20.34375 -0.31396484
vt 20.890625 -0.31396484
vt 21.328125 -0.31958008
vt 20.890625 -0.31958008
vt 18.328125 -0.3034668
vt 19.796875 -0.2758789
vt 19.796875 -0.3034668
vt 18.328125 -0.2758789
vt 20.328125 -0.5883789
vt 20.765625 -0.5048828
vt 20.765625 -0.5883789
vt 20.328125 -0.5048828
vt 20.8125 -0.5048828
vt 21.265625 -0.5883789
vt 20.8125 -0.5883789
vt 21.265625 -0.5048828
vt 21.328125 -0.33520508
vt 20.890625 -0.29638672
vt 21.328125 -0.29711914
vt 20.890625 -0.32958984
vt 20.828125 -0.32958984
vt 20.40625 -0.32958984
vt 20.34375 -0.32958984
vt 20.40625 -0.29638672
vt 20.828125 -0.29638672
vt 20.34375 -0.32958984
vt 19.859375 -0.29711914
vt 20.34375 -0.29638672
vt 19.859375 -0.33520508
vt 21.328125 -0.33520508
vt 20.140625 -0.5883789
vt 20.625 -0.5048828
vt 20.625 -0.5883789
vt 20.140625 -0.5048828
vt 18.328125 -0.3034668
vt 18.78125 -0.3203125
vt 18.328125 -0.3203125
vt 18.78125 -0.31469727
vt 18.828125 -0.31469727
vt 19.265625 -0.3203125
vt 18.828125 -0.3203125
vt 19.265625 -0.31469727
vt 19.3125 -0.31469727
vt 19.3125 -0.31469727
vt 19.796875 -0.3203125
vt 19.3125 -0.3203125
vt 19.796875 -0.3034668
vt 18.328125 -0.3034668
vt 19.15625 -0.5048828
vt 19.59375 -0.5883789
vt 19.15625 -0.5883789
vt 19.59375 -0.5048828
vt 19.65625 -0.5883789
vt 20.078125 -0.5048828
vt 20.078125 -0.5883789
vt 19.65625 -0.5048828
vt 10.5 -1
vt 10.9921875 -0.86083984
vt 10.9921875 -1
vt 10.5 -0.86083984
vt 11 -1.3515625
vt 11.4765625 -1.5019531
vt 11 -1.5019531
vt 11.4765625 -1.3515625
vt -10.6953125 5.0078125
vt -11 5.0273438
vt -10.6953125 5.0273438
vt -11 5.0078125
vt 10.5 -0.50146484
vt 10.9609375 -0.3515625
vt 10.9609375 -0.50146484
vt 10.5 -0.3515625
vt -10.3671875 5.0078125
vt -10.65625 5.0273438
vt -10.3671875 5.0273438
vt -10.65625 5.0078125
vt 10.0078125 -0.86035156
vt 10.5 -0.9995117
vt 10.0078125 -0.9995117
vt 10.5 -0.86035156
vt -10 5.0078125
vt -10.328125 5.0273438
vt -10 5.0273438
vt -10.328125 5.0078125
vt -10.3671875 5.7226562
vt -10.65625 5.7421875
vt -10.3671875 5.7421875
vt -10.65625 5.7226562
vt -10 5.7226562
vt -10.328125 5.7421875
vt -10 5.7421875
vt -10.328125 5.7226562
vt 9.5546875 -0.9980469
vt 10 -0.8588867
vt 10 -0.9980469
vt 9.5546875 -0.8588867
vt 10.0703125 -0.99902344
vt 10.5 -0.8598633
vt 10.5 -0.99902344
vt 10.0703125 -0.8598633
vt -10.6953125 5.7226562
vt -11 5.7421875
vt -10.6953125 5.7421875
vt -11 5.7226562
vt 20.15625 -0.13122559
vt 20.25 -0.125
vt 20.25 -0.13122559
vt 20 -0.125
vt 20 -0.16247559
vt 20.15625 -0.16247559
vt 20.15625 -0.056243896
vt 20 -0.024978638
vt 20.15625 -0.024978638
vt 20 -0.062469482
vt 20.25 -0.056243896
vt 20.25 -0.062469482
vt 20.40625 -0.12927246
vt 20.5 -0.123046875
vt 20.5 -0.12927246
vt 20.25 -0.123046875
vt 20.25 -0.16052246
vt 20.40625 -0.16052246
vt 20.40625 -0.054260254
vt 20.25 -0.023025513
vt 20.40625 -0.023025513
vt 20.25 -0.060516357
vt 20.5 -0.054260254
vt 20.5 -0.060516357
vt 20 -0.062469482
vt 20.25 -0.125
vt 20 -0.125
vt 20.25 -0.062469482
vt 20.25 -0.060516357
vt 20.5 -0.123046875
vt 20.25 -0.123046875
vt 20.5 -0.060516357
vt 20.25 -0.060516357
vt 20.5 -0.123046875
vt 20.25 -0.123046875
vt 20.5 -0.060516357
vt 20.25 -0.060516357
vt 20.5 -0.054260254
vt 20.5 -0.060516357
vt 20.40625 -0.054260254
vt 20.40625 -0.023025513
vt 20.25 -0.023025513
vt 20.5 -0.0592041
vt 20.75 -0.1217041
vt 20.5 -0.1217041
vt 20.75 -0.0592041
vt 20.5 -0.0592041
vt 20.75 -0.052978516
vt 20.75 -0.0592041
vt 20.65625 -0.052978516
vt 20.65625 -0.021713257
vt 20.5 -0.021713257
vt 20.75 -0.12792969
vt 20.5 -0.1217041
vt 20.75 -0.1217041
vt 20.65625 -0.12792969
vt 20.5 -0.15917969
vt 20.65625 -0.15917969
vt 20.5 -0.12927246
vt 20.25 -0.123046875
vt 20.5 -0.123046875
vt 20.40625 -0.12927246
vt 20.25 -0.16052246
vt 20.40625 -0.16052246
vn -0 -1 0
vn -0 -1 0
vn -0 -1 0
vn -0 -1 0
vn -0 -1 0
vn -0 -1 0
vn -0 -1 0
vn -0 -1 0
vn -0 -1 0
vn -0 -1 0
vn -0 -1 0
vn -0 -1 0
vn -0 -1 0
vn -0 -1 0
vn -0 -1 0
vn -0 -1 0
vn -0 -1 0
vn -0 0 1
vn -0 0 1
vn -0 0 1
vn -0 0 1
vn -0 0 1
vn -0 0 1
vn -0 0 1
vn -0 0 1
vn -0 0 1
vn -0 0 1
vn -0 0 1
vn -0 0 1
vn -0 0 1
vn -0 0 1
vn -0 0 1
vn -0 0 1
vn -0 0 1
vn -0 0 1
vn -0 0 1
vn -0 0 1
vn -0 0 1
vn -0 0 1
vn -0 1 0
vn -0 1 0
vn -0 1 0
vn -0 1 0
vn -0 1 0
vn -0 1 0
vn -0 1 0
vn -0 1 0
vn -0 1 0
vn -0 0 -1
vn -0 0 -1
vn -0 0 -1
vn -0 0 -1
vn -0 0 -1
vn -0 0 -1
vn -0 0 -1
vn -0 0 -1
vn -0 0 -1
vn -0 0 -1
vn -0 0 -1
vn -0 0 -1
vn -0 0 -1
vn -0 0 -1
vn -0 1 0
vn -0 1 0
vn -0 1 0
vn -0 1 0
vn -0 -1 0
vn -0 -1 0
vn -0 -1 0
vn -0 -1 0
vn -0 -1 0
vn -0 -1 0
vn -0 -1 0
vn -0 -1 0
vn -0 0 1
vn -0 0 1
vn -0 0 1
vn -0 0 1
vn -0 0 1
vn -0 0 1
vn -0 0 1
vn -0 0 1
vn -0 0 1
vn -0 0 1
vn -0 0 1
vn -0 0 1
vn -0 0 1
vn -0 0 1
vn -0 1 0
vn -0 1 0
vn -0 1 0
vn -0 1 0
vn -0 0 -1
vn -0 0 -1
vn -0 0 -1
vn -0 0 -1
vn -0 0 -1
vn -0 0 -1
vn -0 0 -1
vn -0 0 -1
vn -0 0 -1
vn -0 0 -1
vn -0 0 -1
vn -0 0 -1
vn -0 0 -1
vn -0 0 -1
vn -0 1 0
vn -0 1 0
vn -0 1 0
vn -0 1 0
vn -0 1 0
vn -0 1 0
vn -0 1 0
vn -0 1 0
vn -0 1 0
vn -0 1 0
vn -0 1 0
vn -0 1 0
vn -0 -1 0
vn -0 -1 0
vn -0 -1 0
vn -0 -1 0
vn -0 0 -1
vn -0 0 -1
vn -0 0 -1
vn -0 0 -1
vn -0 -1 0
vn -0 -1 0
vn -0 -1 0
vn -0 -1 0
vn -0 0 -1
vn -0 0 -1
vn -0 0 -1
vn -0 0 -1
vn -0 -1 0
vn -0 -1 0
vn -0 -1 0
vn -0 -1 0
vn -0 0 -1
vn -0 0 -1
vn -0 0 -1
vn -0 0 -1
vn -0 0 -1
vn -0 0 -1
vn -0 0 -1
vn -0 0 -1
vn -0 0 -1
vn -0 0 -1
vn -0 0 -1
vn -0 0 -1
vn -0 1 0
vn -0 1 0
vn -0 1 0
vn -0 1 0
vn -0 1 0
vn -0 1 0
vn -0 1 0
vn -0 1 0
vn -0 0 -1
vn -0 0 -1
vn -0 0 -1
vn -0 0 -1
vn 1 0 0
vn 1 0 0
vn 1 0 0
vn 1 0 0
vn 1 0 0
vn 1 0 0
vn -1 0 0
vn -1 0 0
vn -1 0 0
vn -1 0 0
vn -1 0 0
vn -1 0 0
vn 1 0 0
vn 1 0 0
vn 1 0 0
vn 1 0 0
vn 1 0 0
vn 1 0 0
vn -1 0 0
vn -1 0 0
vn -1 0 0
vn -1 0 0
vn -1 0 0
vn -1 0 0
vn -0 -1 0
vn -0 -1 0
vn -0 -1 0
vn -0 -1 0
vn -0 -1 0
vn -0 -1 0
vn -0 -1 0
vn -0 -1 0
vn -0 1 0
vn -0 1 0
vn -0 1 0
vn -0 1 0
vn 1 0 0
vn 1 0 0
vn 1 0 0
vn 1 0 0
vn 1 0 0
vn 1 0 0
vn -0 1 0
vn -0 1 0
vn -0 1 0
vn -0 1 0
vn 1 0 0
vn 1 0 0
vn 1 0 0
vn 1 0 0
vn 1 0 0
vn 1 0 0
vn -1 0 0
vn -1 0 0
vn -1 0 0
vn -1 0 0
vn -1 0 0
vn -1 0 0
vn -1 0 0
vn -1 0 0
vn -1 0 0
vn -1 0 0
vn -1 0 0
vn -1 0 0
g Alley_STR_Bridge_01_0
f 3/3/3 2/2/2 1/1/1
f 4/4/4 1/1/1 2/2/2
f 7/7/7 6/6/6 5/5/5
f 6/6/6 8/8/8 5/5/5
f 8/8/8 9/9/9 5/5/5
f 12/12/12 11/11/11 10/10/10
f 13/13/13 10/10/10 11/11/11
f 16/16/16 15/15/15 14/14/14
f 17/17/17 14/14/14 15/15/15
f 20/20/20 19/19/19 18/18/18
f 19/19/19 21/21/21 18/18/18
f 21/21/21 22/22/22 18/18/18
f 25/25/25 24/24/24 23/23/23
f 24/24/24 26/26/26 23/23/23
f 26/26/26 27/27/27 23/23/23
f 23/23/23 27/27/27 28/28/28
f 29/29/29 27/27/27 26/26/26
f 30/30/30 27/27/27 29/29/29
f 31/31/31 30/30/30 29/29/29
f 34/34/34 33/33/33 32/32/32
f 35/35/35 32/32/32 33/33/33
f 38/38/38 37/37/37 36/36/36
f 39/39/39 36/36/36 37/37/37
f 42/42/42 41/41/41 40/40/40
f 43/43/43 40/40/40 41/41/41
f 46/46/46 45/45/45 44/44/44
f 45/45/45 47/47/47 44/44/44
f 47/47/47 48/48/48 44/44/44
f 51/51/51 50/50/50 49/49/49
f 50/50/50 52/52/52 49/49/49
f 52/52/52 53/53/53 49/49/49
f 56/56/56 55/55/55 54/54/54
f 55/55/55 57/57/57 54/54/54
f 57/57/57 58/58/58 54/54/54
f 54/54/54 58/58/58 59/59/59
f 60/60/60 58/58/58 57/57/57
f 61/61/61 58/58/58 60/60/60
f 62/62/62 61/61/61 60/60/60
f 65/65/65 64/64/64 63/63/63
f 66/66/66 63/63/63 64/64/64
f 69/69/69 68/68/68 67/67/67
f 70/70/70 67/67/67 68/68/68
f 73/73/73 72/72/72 71/71/71
f 74/74/74 71/71/71 72/72/72
f 77/77/77 76/76/76 75/75/75
f 76/76/76 78/78/78 75/75/75
f 78/78/78 79/79/79 75/75/75
f 79/79/79 80/80/80 75/75/75
f 80/80/80 81/81/81 75/75/75
f 82/82/82 80/80/80 79/79/79
f 83/83/83 82/82/82 79/79/79
f 86/86/86 85/85/85 84/84/84
f 85/85/85 87/87/87 84/84/84
f 84/84/84 87/87/87 88/88/88
f 91/91/91 90/90/90 89/89/89
f 92/92/92 89/89/89 90/90/90
f 95/95/95 94/94/94 93/93/93
f 94/94/94 96/96/96 93/93/93
f 96/96/96 97/97/97 93/93/93
f 97/97/97 98/98/98 93/93/93
f 99/99/99 98/98/98 97/97/97
f 98/98/98 100/100/100 93/93/93
f 100/100/100 101/101/101 93/93/93
f 104/104/104 103/103/103 102/102/102
f 103/103/103 105/105/105 102/102/102
f 102/102/102 105/105/105 106/106/106
f 109/109/109 108/108/108 107/107/107
f 110/110/110 107/107/107 108/108/108
f 113/113/113 112/112/112 111/111/111
f 114/114/114 111/111/111 112/112/112
g Alley_STR_Bridge_01_1
f 117/117/117 116/116/116 115/115/115
f 118/118/118 115/115/115 116/116/116
f 121/121/121 120/120/120 119/119/119
f 122/122/122 119/119/119 120/120/120
f 125/125/125 124/124/124 123/123/123
f 126/126/126 123/123/123 124/124/124
f 129/129/129 128/128/128 127/127/127
f 130/130/130 127/127/127 128/128/128
f 133/133/133 132/132/132 131/131/131
f 134/134/134 131/131/131 132/132/132
f 137/137/137 136/136/136 135/135/135
f 138/138/138 135/135/135 136/136/136
f 141/141/141 140/140/140 139/139/139
f 142/142/142 139/139/139 140/140/140
f 145/145/145 144/144/144 143/143/143
f 146/146/146 143/143/143 144/144/144
f 149/149/149 148/148/148 147/147/147
f 150/150/150 147/147/147 148/148/148
f 153/153/153 152/152/152 151/151/151
f 154/154/154 151/151/151 152/152/152
f 157/157/157 156/156/156 155/155/155
f 158/158/158 155/155/155 156/156/156
f 161/161/161 160/160/160 159/159/159
f 162/162/162 159/159/159 160/160/160
g Alley_STR_Bridge_01_2
f 165/165/165 164/164/164 163/163/163
f 164/164/164 166/166/166 163/163/163
f 166/166/166 167/167/167 163/163/163
f 167/167/167 168/168/168 163/163/163
f 171/171/171 170/170/170 169/169/169
f 170/170/170 172/172/172 169/169/169
f 172/172/172 173/173/173 169/169/169
f 174/174/174 173/173/173 172/172/172
f 177/177/177 176/176/176 175/175/175
f 176/176/176 178/178/178 175/175/175
f 178/178/178 179/179/179 175/175/175
f 179/179/179 180/180/180 175/175/175
f 183/183/183 182/182/182 181/181/181
f 182/182/182 184/184/184 181/181/181
f 184/184/184 185/185/185 181/181/181
f 186/186/186 185/185/185 184/184/184
f 189/189/189 188/188/188 187/187/187
f 190/190/190 187/187/187 188/188/188
f 193/193/193 192/192/192 191/191/191
f 194/194/194 191/191/191 192/192/192
f 197/197/197 196/196/196 195/195/195
f 198/198/198 195/195/195 196/196/196
f 201/201/201 200/200/200 199/199/199
f 200/200/200 202/202/202 199/199/199
f 202/202/202 203/203/203 199/199/199
f 203/203/203 204/204/204 199/199/199
f 207/207/207 206/206/206 205/205/205
f 208/208/208 205/205/205 206/206/206
f 211/211/211 210/210/210 209/209/209
f 210/210/210 212/212/212 209/209/209
f 212/212/212 213/213/213 209/209/209
f 213/213/213 214/214/214 209/209/209
f 217/217/217 216/216/216 215/215/215
f 216/216/216 218/218/218 215/215/215
f 219/219/219 218/218/218 216/216/216
f 220/220/220 218/218/218 219/219/219
f 223/223/223 222/222/222 221/221/221
f 222/222/222 224/224/224 221/221/221
f 225/225/225 224/224/224 222/222/222
f 226/226/226 224/224/224 225/225/225
