g Alley_STR_Lane_02
v 3.2820556 2.5464795 -2.257212E-13
v 0.33827442 2.8 -4.4589554E-13
v 3.283585 2.8 -2.2560682E-13
v 0.29999998 2.711497 -4.4875816E-13
v 0.31192383 2.5116332 -4.4786635E-13
v 0.29999998 2.5668824 -4.4875816E-13
v 3.2792284 2.4209816 -2.2593265E-13
v 0.33515364 2.2999997 -4.4612892E-13
v 0.3115039 2.408191 -4.4789774E-13
v 3.2540598 2.2999997 -2.2781508E-13
v 26.955647 10 0.19999999
v 27.155647 7.8999996 0.19999999
v 26.955647 7.8999996 0.19999999
v 27.155647 10 0.19999999
v 22.605646 10.099999 0.19999999
v 22.805647 8 0.19999999
v 22.605646 7.7999997 0.19999999
v 22.805647 9.9 0.19999999
v 31.305647 9.9 0.19999999
v 31.505646 7.7999997 0.19999999
v 31.305647 8 0.19999999
v 31.505646 10.099999 0.19999999
v 31.505646 10.099999 0.19999999
v 22.805647 9.9 0.19999999
v 22.605646 10.099999 0.19999999
v 31.305647 9.9 0.19999999
v 22.805647 8 0.19999999
v 31.505646 7.7999997 0.19999999
v 22.605646 7.7999997 0.19999999
v 31.305647 8 0.19999999
v 34.604977 8.756296 0.19999999
v 36.70498 8.956296 0.19999999
v 36.904976 8.756296 0.19999999
v 34.804977 8.956296 0.19999999
v 34.804977 14.099999 0.19999999
v 36.904976 14.299999 0.19999999
v 36.70498 14.099999 0.19999999
v 34.604977 14.299999 0.19999999
v 34.604977 9.556296 0.19999999
v 34.804977 8.956296 0.19999999
v 34.604977 8.756296 0.19999999
v 34.804977 9.556296 0.19999999
v 36.70498 8.956296 0.19999999
v 36.904976 9.556296 0.19999999
v 36.904976 8.756296 0.19999999
v 36.70498 9.556296 0.19999999
v 36.70498 13.5 0.19999999
v 36.904976 14.299999 0.19999999
v 36.904976 13.5 0.19999999
v 36.70498 14.099999 0.19999999
v 34.604977 13.5 0.19999999
v 34.804977 14.099999 0.19999999
v 34.804977 13.5 0.19999999
v 34.604977 14.299999 0.19999999
v 17.02935 8.171136 0.19999999
v 19.12935 8.371136 0.19999999
v 19.32935 8.171136 0.19999999
v 17.229351 8.371136 0.19999999
v 19.12935 8.371136 0.19999999
v 19.32935 13.714839 0.19999999
v 19.32935 8.171136 0.19999999
v 19.12935 13.514838 0.19999999
v 17.02935 13.714839 0.19999999
v 19.12935 13.514838 0.19999999
v 17.229351 13.514838 0.19999999
v 19.32935 13.714839 0.19999999
v 17.02935 13.714839 0.19999999
v 17.229351 8.371136 0.19999999
v 17.02935 8.171136 0.19999999
v 17.229351 13.514838 0.19999999
v 22.605646 14.599999 0.19999999
v 22.805647 12.5 0.19999999
v 22.605646 12.3 0.19999999
v 22.805647 14.4 0.19999999
v 31.305647 14.4 0.19999999
v 31.505646 12.3 0.19999999
v 31.305647 12.5 0.19999999
v 31.505646 14.599999 0.19999999
v 31.505646 14.599999 0.19999999
v 22.805647 14.4 0.19999999
v 22.605646 14.599999 0.19999999
v 31.305647 14.4 0.19999999
v 22.805647 12.5 0.19999999
v 31.505646 12.3 0.19999999
v 22.605646 12.3 0.19999999
v 31.305647 12.5 0.19999999
v 26.955647 14.5 0.19999999
v 27.155647 12.4 0.19999999
v 26.955647 12.4 0.19999999
v 27.155647 14.5 0.19999999
v 3.2886522 3.9052367 -2.2522782E-13
v 3.3 4.034162 -2.2437908E-13
v 3.3 3.9221065 -2.2437908E-13
v 3.275703 3.7888014 -2.2619631E-13
v 3.2742674 4.114453 -2.2630369E-13
v 0.29999998 4.0440555 -4.4875816E-13
v 0.3580945 4.2 -4.4441312E-13
v 3.260564 4.2 -2.273286E-13
v 0.29999998 4.133416 -4.4875816E-13
v 0.4079004 3.6999998 -4.4068799E-13
v 3.2374916 3.6999998 -2.2905427E-13
v 0.35167968 3.8564553 -4.448929E-13
v 0.35717773 3.7537787 -4.444817E-13
v 0.3380725 0.19999999 -4.459106E-13
v 3.2842674 0.26200682 -2.2555577E-13
v 3.2662935 0.19999999 -2.2690011E-13
v 0.317417 0.33083495 -4.474555E-13
v 0.3145703 0.27488524 -4.4766843E-13
v 0.3098291 0.5639722 -4.4802302E-13
v 0.29999998 0.39139652 -4.4875816E-13
v 0.29999998 0.546468 -4.4875816E-13
v 3.2723193 0.35100585 -2.264494E-13
v 3.2628653 0.7 -2.271565E-13
v 3.3 0.49156776 -2.2437908E-13
v 3.3 0.5814838 -2.2437908E-13
v 0.30939454 0.6302588 -4.4805555E-13
v 0.33796147 0.7 -4.459189E-13
v 0.31281736 1.1951782 -4.4779954E-13
v 0.29999998 0.9695253 -4.4875816E-13
v 0.29999998 1.1620157 -4.4875816E-13
v 3.2844336 1.2946142 -2.2554335E-13
v 0.32530192 0.9 -4.4686577E-13
v 3.2672472 0.9 -2.2682876E-13
v 3.2757714 0.9885986 -2.2619122E-13
v 3.3 1.0352306 -2.2437908E-13
v 3.3 1.2524841 -2.2437908E-13
v 3.2863867 1.318164 -2.2539727E-13
v 0.32778698 1.4 -4.466799E-13
v 0.30535156 1.2972534 -4.483579E-13
v 3.2695546 1.4 -2.2665618E-13
v 3.270991 1.7714916 -2.2654875E-13
v 3.3 1.9146758 -2.2437908E-13
v 3.3 1.8331677 -2.2437908E-13
v 3.2858934 1.9662108 -2.2543416E-13
v 0.3232129 1.9495507 -4.4702203E-13
v 3.2620637 1.5999999 -2.2721644E-13
v 3.2725682 1.6745776 -2.2643079E-13
v 0.31341797 2.0451097 -4.477546E-13
v 3.2739305 2.0124168 -2.263289E-13
v 3.2922266 1.987854 -2.249605E-13
v 0.3393255 2.1 -4.4581689E-13
v 3.2600048 2.061489 -2.2737045E-13
v 3.2027125 2.1 -2.316555E-13
v 0.3615674 1.6864673 -4.4415334E-13
v 0.38309085 1.6478271 -4.4254357E-13
v 0.39198112 1.5999998 -4.418786E-13
v 0.29999998 1.7538342 -4.4875816E-13
v 0.29999998 1.9032816 -4.4875816E-13
v 0.30978328 1.7182276 -4.4802646E-13
v 0.33017674 3 -4.465012E-13
v 3.3 3.0890057 -2.2437908E-13
v 3.2807121 3 -2.2582167E-13
v 3.2649844 3.5 -2.2699801E-13
v 3.2834911 3.35 -2.2561381E-13
v 3.3 3.2872155 -2.2437908E-13
v 3.2870703 3.4229882 -2.2534612E-13
v 0.341875 3.2284374 -4.456262E-13
v 0.29999998 3.173313 -4.4875816E-13
v 0.29999998 3.0874834 -4.4875816E-13
v 0.31157228 3.2075777 -4.4789265E-13
v 0.3067041 3.3046484 -4.4825675E-13
v 0.32258788 3.4150171 -4.4706876E-13
v 0.398848 3.5 -4.4136502E-13
v 0.31221682 3.3677855 -4.4784443E-13
vt -2.2636719 1.4072266
vt -2.1386719 2.8613281
vt -2.1386719 1.40625
vt -2.1835938 2.8808594
vt -2.28125 2.875
vt -2.2539062 2.8808594
vt -2.3261719 1.4091797
vt -2.3867188 2.8632812
vt -2.3320312 2.875
vt -2.3867188 1.4208984
vt 0.010688782 1.171875
vt 0.12902832 -0.07006836
vt 0.010688782 -0.07006836
vt 0.12902832 1.171875
vt 0.009361267 -4.1757812
vt 0.12768555 -5.4179688
vt 0.009361267 -5.5351562
vt 0.12768555 -4.2929688
vt 0.010688782 1.1132812
vt 0.12902832 -0.12927246
vt 0.010688782 -0.010910034
vt 0.12902832 1.2314453
vt 1.1279297 -0.12030029
vt 1.0097656 5.0273438
vt 1.1279297 5.1445312
vt 1.0097656 -0.002002716
vt 0.12805176 5.0195312
vt 0.009742737 -0.12573242
vt 0.009735107 5.140625
vt 0.12805176 -0.007385254
vt -17.828125 15.9765625
vt -17.71875 14.734375
vt -17.828125 14.6171875
vt -17.71875 15.859375
vt -17.828125 21.265625
vt -17.703125 20.03125
vt -17.828125 20.140625
vt -17.703125 21.390625
vt -17.53125 16.375
vt -17.40625 16.03125
vt -17.53125 15.90625
vt -17.40625 16.375
vt -17.53125 16.03125
vt -17.40625 16.375
vt -17.40625 15.90625
vt -17.53125 16.375
vt -17.515625 18.625
vt -17.40625 19.09375
vt -17.40625 18.625
vt -17.515625 18.984375
vt -17.53125 18.625
vt -17.40625 18.984375
vt -17.40625 18.625
vt -17.53125 19.09375
vt -17.828125 15.9765625
vt -17.71875 14.734375
vt -17.828125 14.6171875
vt -17.71875 15.859375
vt -17.828125 16.09375
vt -17.71875 19.25
vt -17.71875 15.9765625
vt -17.828125 19.140625
vt -17.703125 21.390625
vt -17.828125 20.140625
vt -17.828125 21.265625
vt -17.703125 20.03125
vt -17.828125 19.25
vt -17.71875 16.09375
vt -17.828125 15.9765625
vt -17.71875 19.140625
vt 0.009361267 -4.1757812
vt 0.12768555 -5.4179688
vt 0.009361267 -5.5351562
vt 0.12768555 -4.2929688
vt 0.010688782 1.1132812
vt 0.12902832 -0.12927246
vt 0.010688782 -0.010910034
vt 0.12902832 1.2314453
vt 1.1279297 -0.12030029
vt 1.0097656 5.0273438
vt 1.1279297 5.1445312
vt 1.0097656 -0.002002716
vt 0.12805176 5.0195312
vt 0.009742737 -0.12573242
vt 0.009735107 5.140625
vt 0.12805176 -0.007385254
vt 0.010688782 1.171875
vt 0.12902832 -0.07006836
vt 0.010688782 -0.07006836
vt 0.12902832 1.171875
vt -10.28125 -2.6269531
vt -10.21875 -2.6308594
vt -10.2734375 -2.6308594
vt -10.34375 -2.6191406
vt -10.1796875 -2.6191406
vt -10.21875 -1.1494141
vt -10.140625 -1.1787109
vt -10.140625 -2.6113281
vt -10.171875 -1.1494141
vt -10.3828125 -1.203125
vt -10.3828125 -2.6015625
vt -10.3046875 -1.1748047
vt -10.359375 -1.1777344
vt -2.3867188 2.8613281
vt -2.3554688 1.40625
vt -2.3867188 1.4150391
vt -2.3222656 2.8710938
vt -2.3496094 2.8730469
vt -2.2070312 2.875
vt -2.2910156 2.8808594
vt -2.2148438 2.8808594
vt -2.3125 1.4121094
vt -2.1386719 1.4169922
vt -2.2421875 1.3984375
vt -2.1972656 1.3984375
vt -2.1738281 2.875
vt -2.1386719 2.8613281
vt -2.2402344 4.2734375
vt -2.3515625 4.28125
vt -2.2578125 4.28125
vt -2.1914062 2.8066406
vt -2.3867188 4.2695312
vt -2.3867188 2.8144531
vt -2.3417969 2.8105469
vt -2.3203125 2.7988281
vt -2.2128906 2.7988281
vt -2.1796875 2.8046875
vt -2.1386719 4.265625
vt -2.1894531 4.2773438
vt -2.1386719 2.8144531
vt -10.3046875 -2.6171875
vt -10.2265625 -2.6308594
vt -10.2734375 -2.6308594
vt -10.203125 -2.625
vt -10.2109375 -1.1611328
vt -10.3828125 -2.6132812
vt -10.3515625 -2.6191406
vt -10.1640625 -1.15625
vt -10.1796875 -2.6191406
vt -10.1953125 -2.6269531
vt -10.140625 -1.1689453
vt -10.15625 -2.6113281
vt -10.140625 -2.5839844
vt -10.34375 -1.1796875
vt -10.359375 -1.1904297
vt -10.3828125 -1.1953125
vt -10.3125 -1.1494141
vt -10.234375 -1.1494141
vt -10.328125 -1.1542969
vt -2.3867188 4.265625
vt -2.3417969 2.7988281
vt -2.3867188 2.8085938
vt -2.1386719 2.8164062
vt -2.2128906 2.8066406
vt -2.2441406 2.7988281
vt -2.1777344 2.8046875
vt -2.2734375 4.2617188
vt -2.3007812 4.28125
vt -2.34375 4.28125
vt -2.2832031 4.2734375
vt -2.2363281 4.2773438
vt -2.1816406 4.2695312
vt -2.1386719 4.2304688
vt -2.2050781 4.2734375
vn -0 0 1
vn -0 0 1
vn -0 0 1
vn -0 0 1
vn -0 0 1
vn -0 0 1
vn -0 0 1
vn -0 0 1
vn -0 0 1
vn -0 0 1
vn -0 0 1
vn -0 0 1
vn -0 0 1
vn -0 0 1
vn -0 0 1
vn -0 0 1
vn -0 0 1
vn -0 0 1
vn -0 0 1
vn -0 0 1
vn -0 0 1
vn -0 0 1
vn -0 0 1
vn -0 0 1
vn -0 0 1
vn -0 0 1
vn -0 0 1
vn -0 0 1
vn -0 0 1
vn -0 0 1
vn -0 0 1
vn -0 0 1
vn -0 0 1
vn -0 0 1
vn -0 0 1
vn -0 0 1
vn -0 0 1
vn -0 0 1
vn -0 0 1
vn -0 0 1
vn -0 0 1
vn -0 0 1
vn -0 0 1
vn -0 0 1
vn -0 0 1
vn -0 0 1
vn -0 0 1
vn -0 0 1
vn -0 0 1
vn -0 0 1
vn -0 0 1
vn -0 0 1
vn -0 0 1
vn -0 0 1
vn -0 0 1
vn -0 0 1
vn -0 0 1
vn -0 0 1
vn -0 0 1
vn -0 0 1
vn -0 0 1
vn -0 0 1
vn -0 0 1
vn -0 0 1
vn -0 0 1
vn -0 0 1
vn -0 0 1
vn -0 0 1
vn -0 0 1
vn -0 0 1
vn -0 0 1
vn -0 0 1
vn -0 0 1
vn -0 0 1
vn -0 0 1
vn -0 0 1
vn -0 0 1
vn -0 0 1
vn -0 0 1
vn -0 0 1
vn -0 0 1
vn -0 0 1
vn -0 0 1
vn -0 0 1
vn -0 0 1
vn -0 0 1
vn -0 0 1
vn -0 0 1
vn -0 0 1
vn -0 0 1
vn -0 0 1
vn -0 0 1
vn -0 0 1
vn -0 0 1
vn -0 0 1
vn -0 0 1
vn -0 0 1
vn -0 0 1
vn -0 0 1
vn -0 0 1
vn -0 0 1
vn -0 0 1
vn -0 0 1
vn -0 0 1
vn -0 0 1
vn -0 0 1
vn -0 0 1
vn -0 0 1
vn -0 0 1
vn -0 0 1
vn -0 0 1
vn -0 0 1
vn -0 0 1
vn -0 0 1
vn -0 0 1
vn -0 0 1
vn -0 0 1
vn -0 0 1
vn -0 0 1
vn -0 0 1
vn -0 0 1
vn -0 0 1
vn -0 0 1
vn -0 0 1
vn -0 0 1
vn -0 0 1
vn -0 0 1
vn -0 0 1
vn -0 0 1
vn -0 0 1
vn -0 0 1
vn -0 0 1
vn -0 0 1
vn -0 0 1
vn -0 0 1
vn -0 0 1
vn -0 0 1
vn -0 0 1
vn -0 0 1
vn -0 0 1
vn -0 0 1
vn -0 0 1
vn -0 0 1
vn -0 0 1
vn -0 0 1
vn -0 0 1
vn -0 0 1
vn -0 0 1
vn -0 0 1
vn -0 0 1
vn -0 0 1
vn -0 0 1
vn -0 0 1
vn -0 0 1
vn -0 0 1
vn -0 0 1
vn -0 0 1
vn -0 0 1
vn -0 0 1
vn -0 0 1
vn -0 0 1
vn -0 0 1
vn -0 0 1
vn -0 0 1
g Alley_STR_Lane_02_0
f 3/3/3 2/2/2 1/1/1
f 2/2/2 4/4/4 1/1/1
f 4/4/4 5/5/5 1/1/1
f 6/6/6 5/5/5 4/4/4
f 5/5/5 7/7/7 1/1/1
f 8/8/8 7/7/7 5/5/5
f 9/9/9 8/8/8 5/5/5
f 10/10/10 7/7/7 8/8/8
f 13/13/13 12/12/12 11/11/11
f 14/14/14 11/11/11 12/12/12
f 17/17/17 16/16/16 15/15/15
f 18/18/18 15/15/15 16/16/16
f 21/21/21 20/20/20 19/19/19
f 22/22/22 19/19/19 20/20/20
f 25/25/25 24/24/24 23/23/23
f 26/26/26 23/23/23 24/24/24
f 29/29/29 28/28/28 27/27/27
f 30/30/30 27/27/27 28/28/28
f 33/33/33 32/32/32 31/31/31
f 34/34/34 31/31/31 32/32/32
f 37/37/37 36/36/36 35/35/35
f 38/38/38 35/35/35 36/36/36
f 41/41/41 40/40/40 39/39/39
f 42/42/42 39/39/39 40/40/40
f 45/45/45 44/44/44 43/43/43
f 46/46/46 43/43/43 44/44/44
f 49/49/49 48/48/48 47/47/47
f 50/50/50 47/47/47 48/48/48
f 53/53/53 52/52/52 51/51/51
f 54/54/54 51/51/51 52/52/52
f 57/57/57 56/56/56 55/55/55
f 58/58/58 55/55/55 56/56/56
f 61/61/61 60/60/60 59/59/59
f 62/62/62 59/59/59 60/60/60
f 65/65/65 64/64/64 63/63/63
f 66/66/66 63/63/63 64/64/64
f 69/69/69 68/68/68 67/67/67
f 70/70/70 67/67/67 68/68/68
f 73/73/73 72/72/72 71/71/71
f 74/74/74 71/71/71 72/72/72
f 77/77/77 76/76/76 75/75/75
f 78/78/78 75/75/75 76/76/76
f 81/81/81 80/80/80 79/79/79
f 82/82/82 79/79/79 80/80/80
f 85/85/85 84/84/84 83/83/83
f 86/86/86 83/83/83 84/84/84
f 89/89/89 88/88/88 87/87/87
f 90/90/90 87/87/87 88/88/88
f 93/93/93 92/92/92 91/91/91
f 92/92/92 94/94/94 91/91/91
f 95/95/95 94/94/94 92/92/92
f 96/96/96 94/94/94 95/95/95
f 97/97/97 96/96/96 95/95/95
f 98/98/98 97/97/97 95/95/95
f 99/99/99 96/96/96 97/97/97
f 100/100/100 94/94/94 96/96/96
f 101/101/101 94/94/94 100/100/100
f 102/102/102 100/100/100 96/96/96
f 103/103/103 100/100/100 102/102/102
f 106/106/106 105/105/105 104/104/104
f 105/105/105 107/107/107 104/104/104
f 107/107/107 108/108/108 104/104/104
f 109/109/109 107/107/107 105/105/105
f 110/110/110 107/107/107 109/109/109
f 111/111/111 110/110/110 109/109/109
f 112/112/112 109/109/109 105/105/105
f 113/113/113 109/109/109 112/112/112
f 114/114/114 113/113/113 112/112/112
f 115/115/115 113/113/113 114/114/114
f 116/116/116 109/109/109 113/113/113
f 117/117/117 116/116/116 113/113/113
f 120/120/120 119/119/119 118/118/118
f 119/119/119 121/121/121 118/118/118
f 122/122/122 121/121/121 119/119/119
f 123/123/123 121/121/121 122/122/122
f 124/124/124 121/121/121 123/123/123
f 125/125/125 121/121/121 124/124/124
f 126/126/126 121/121/121 125/125/125
f 121/121/121 127/127/127 118/118/118
f 127/127/127 128/128/128 118/118/118
f 128/128/128 129/129/129 118/118/118
f 130/130/130 128/128/128 127/127/127
f 133/133/133 132/132/132 131/131/131
f 132/132/132 134/134/134 131/131/131
f 134/134/134 135/135/135 131/131/131
f 135/135/135 136/136/136 131/131/131
f 136/136/136 137/137/137 131/131/131
f 138/138/138 135/135/135 134/134/134
f 139/139/139 138/138/138 134/134/134
f 140/140/140 139/139/139 134/134/134
f 141/141/141 138/138/138 139/139/139
f 142/142/142 141/141/141 139/139/139
f 143/143/143 141/141/141 142/142/142
f 144/144/144 136/136/136 135/135/135
f 145/145/145 136/136/136 144/144/144
f 146/146/146 136/136/136 145/145/145
f 147/147/147 144/144/144 135/135/135
f 148/148/148 147/147/147 135/135/135
f 149/149/149 144/144/144 147/147/147
f 152/152/152 151/151/151 150/150/150
f 151/151/151 153/153/153 150/150/150
f 154/154/154 153/153/153 151/151/151
f 155/155/155 154/154/154 151/151/151
f 156/156/156 153/153/153 154/154/154
f 153/153/153 157/157/157 150/150/150
f 157/157/157 158/158/158 150/150/150
f 158/158/158 159/159/159 150/150/150
f 160/160/160 158/158/158 157/157/157
f 161/161/161 157/157/157 153/153/153
f 162/162/162 161/161/161 153/153/153
f 163/163/163 162/162/162 153/153/153
f 164/164/164 161/161/161 162/162/162
