g Alley_STR_House_02_Decal_01
v 7.4695554 -10.719155 0.6370431
v 1.7072449 -10.719155 0.33894667
v 1.6303087 -10.719155 1.8261493
v 7.366185 -10.719155 2.6352723
v 2.91942 -10.719155 2.1479917
v 3.132185 -10.719155 2.4162385
v 3.090863 -10.719155 2.2237368
v 1.9326123 -10.719155 1.7128407
v 1.4454052 -10.719155 2.8173797
v 2.6036534 -10.719155 3.3282733
v 14.357915 -10.719155 0.1711531
v 13.712709 -10.719155 0.22760054
v 13.770298 -10.719155 0.88574845
v 14.415485 -10.719155 0.82929975
v 14.305649 -10.719155 2.8176677
v 13.849738 -10.719155 0.23207305
v 11.408034 -10.719155 0.66261196
v 11.863945 -10.719155 3.2482066
vt 0.8930664 0.009849548
vt 0.0004811287 0.009849548
vt 0.00048160553 0.24023438
vt 0.8930664 0.31933594
vt 0.20214844 0.27954102
vt 0.23718262 0.31933594
vt 0.6015625 0.85595703
vt 0.46313477 0.85595703
vt 0.46313477 0.9873047
vt 0.6015625 0.9873047
vt 0.46020508 0.8730469
vt 0.35546875 0.8730469
vt 0.35546875 0.97998047
vt 0.46020508 0.97998047
vt 0.26953125 0.55566406
vt 0.26953125 0.2709961
vt 0.00083065033 0.2709961
vt 0.00083112717 0.55566406
vn -0 -1 0
vn -0 -1 0
vn -0 -1 0
vn -0 -1 0
vn -0 -1 0
vn -0 -1 0
vn -0 -1 0
vn -0 -1 0
vn -0 -1 0
vn -0 -1 0
vn -0 -1 0
vn -0 -1 0
vn -0 -1 0
vn -0 -1 0
vn -0 -1 0
vn -0 -1 0
vn -0 -1 0
vn -0 -1 0
g Alley_STR_House_02_Decal_01_0
f 3/3/3 2/2/2 1/1/1
f 1/1/1 4/4/4 3/3/3
f 4/4/4 5/5/5 3/3/3
f 4/4/4 6/6/6 5/5/5
f 9/9/9 8/8/8 7/7/7
f 10/10/10 9/9/9 7/7/7
f 13/13/13 12/12/12 11/11/11
f 14/14/14 13/13/13 11/11/11
f 17/17/17 16/16/16 15/15/15
f 18/18/18 17/17/17 15/15/15
