g Alleyl_STR_RegionBorder_02
v -0 0.19999999 1.0693312E-14
v 5.4 0.19999999 1.1209931E-12
v 5.4 0 1.1102998E-12
v -0 6.699337E-13 0
v -0 6.699337E-13 -0.009999999
v -0 0.19999999 -0.009999999
v -0 0.19999999 1.0693312E-14
v -0 6.699337E-13 0
vt 17 -3.0507812
vt 15.6484375 -3.0507812
vt 15.6484375 -3
vt 17 -3
vt 17 -3
vt 17 -3.0507812
vt 17 -3.0507812
vt 17 -3
vn -0 0 1
vn -0 0 1
vn -0 0 1
vn -0 0 1
vn -1 0 0
vn -1 0 0
vn -1 0 0
vn -1 0 0
g Alleyl_STR_RegionBorder_02_0
f 3/3/3 2/2/2 1/1/1
f 4/4/4 3/3/3 1/1/1
f 7/7/7 6/6/6 5/5/5
f 8/8/8 7/7/7 5/5/5
