g Alley_STR_RegionBorder_06
v -0.099999994 1.6999999 -4.959106E-07
v 0.099999994 -1.6999999 -4.959106E-07
v -0.099999994 -1.6999999 -4.959106E-07
v 0.099999994 1.6999999 -4.959106E-07
v -0.099999994 1.6999999 -4.959106E-07
v 0.099999994 1.6999999 -0.01
v 0.099999994 1.6999999 -4.959106E-07
v -0.099999994 1.6999999 -0.01
v 0.099999994 -1.6999999 -4.959106E-07
v -0.099999994 -1.6999999 -0.01
v -0.099999994 -1.6999999 -4.959106E-07
v 0.099999994 -1.6999999 -0.01
vt -28.578125 -22.046875
vt -27.734375 -22
vt -27.734375 -22.046875
vt -28.578125 -22
vt -28.578125 -22.046875
vt -28.578125 -22
vt -28.578125 -22
vt -28.578125 -22.046875
vt -27.734375 -22
vt -27.734375 -22.046875
vt -27.734375 -22.046875
vt -27.734375 -22
vn -0 0 1
vn -0 0 1
vn -0 0 1
vn -0 0 1
vn -0 1 0
vn -0 1 0
vn -0 1 0
vn -0 1 0
vn -0 -1 0
vn -0 -1 0
vn -0 -1 0
vn -0 -1 0
g Alley_STR_RegionBorder_06_0
f 3/3/3 2/2/2 1/1/1
f 4/4/4 1/1/1 2/2/2
f 7/7/7 6/6/6 5/5/5
f 8/8/8 5/5/5 6/6/6
f 11/11/11 10/10/10 9/9/9
f 12/12/12 9/9/9 10/10/10
