g Alley
v 0.67961806 1.9569354 0.0018920925
v 0.70870405 1.950691 0.001892093
v 0.70870405 1.9046806 0.0018920925
v 0.67197096 1.9046806 0.0018920925
v 0.62591547 1.956894 0.0018920936
v 0.70870405 1.8972175 0.001892095
v 0.6243381 1.927969 0.0018920909
v 0.62441945 1.9557766 0.0018920933
v 0.6224684 1.9259721 0.0018920904
v 0.67197096 1.8972175 0.0018920947
v 0.59543025 1.9046806 0.0018920925
v 0.59543025 1.9259721 0.0018920915
v 0.67197096 1.8950931 0.0018920543
v 0.5688124 1.9259999 0.0018920925
v 0.5688124 1.9046806 0.0018920923
v 0.70870405 1.8950931 0.0018920536
v 0.5619999 1.9013945 0.0018921943
v 0.70870405 1.8799047 0.0018920543
v 0.5619999 1.9259999 0.001892198
v 0.42999992 1.9267915 0.0018921543
v 0.49924257 1.8249999 0.0018920518
v 0.4979999 1.8237573 0.0018920517
v 0.562 1.8852426 0.0018920518
v 0.4979999 1.81 0.0018920518
v 0.5646084 1.882634 0.0018920518
v 0.49080428 1.81 0.0018920518
v 0.6194703 1.865 0.0018920518
v 0.47965723 1.8165421 0.0018920613
v 0.6664154 1.8649998 0.0018920513
v 0.6674984 1.8612341 0.0018920524
v 0.6703768 1.8612341 0.0018920518
v 0.67175734 1.8250002 0.0018920517
v 0.67197096 1.867263 0.0018920518
v 0.67299986 1.8237573 0.0018920518
v 0.47369197 1.81 0.0018920517
v 0.4609999 1.8438973 0.0018920518
v 0.4609999 1.8164593 0.0018920517
v 0.4600629 1.8450001 0.0018920518
v 0.42999992 1.8449999 0.0018921543
v 0.70375276 1.7979999 0.0018920518
v 0.67299986 1.7979997 0.0018920518
v 0.70592296 1.8549734 0.0018920536
v 0.7074079 1.8164787 0.0018920524
v 0.7076365 1.8347551 0.0018920529
vn -0 0 1
vn -0 0 1
vn -0 1.7881393E-07 1
vn -0 1.1920929E-07 1
vn -0 0 1
vn -0 -9.4771385E-06 1
vn -0 0 1
vn -0 0 1
vn -0 0 1
vn -0 -9.4771385E-06 1
vn -0 0 1
vn -0 0 1
vn -0 -9.953976E-06 1
vn 7.6293945E-06 0 1
vn 8.583069E-06 0 1
vn -0 -9.953976E-06 1
vn 4.1127205E-06 -5.364418E-07 1
vn 1.7881393E-07 -7.1525574E-07 1
vn 7.688999E-06 -4.172325E-07 1
vn 1.7881393E-07 -7.1525574E-07 1
vn 1.7881393E-07 -7.1525574E-07 1
vn 1.7881393E-07 -7.1525574E-07 1
vn 1.7881393E-07 -7.1525574E-07 1
vn 1.7881393E-07 -7.1525574E-07 1
vn 1.7881393E-07 -7.1525574E-07 1
vn 1.7881393E-07 -7.1525574E-07 1
vn 1.7881393E-07 -7.1525574E-07 1
vn 1.7881393E-07 -7.1525574E-07 1
vn 1.7881393E-07 -7.1525574E-07 1
vn 1.7881393E-07 -7.1525574E-07 1
vn 1.7881393E-07 -7.1525574E-07 1
vn 1.7881393E-07 -7.1525574E-07 1
vn 1.7881393E-07 -7.1525574E-07 1
vn 1.7881393E-07 -7.1525574E-07 1
vn 1.7881393E-07 -7.1525574E-07 1
vn 1.7881393E-07 -7.1525574E-07 1
vn 1.7881393E-07 -7.1525574E-07 1
vn 1.7881393E-07 -7.1525574E-07 1
vn 1.7881393E-07 -7.1525574E-07 1
vn 1.7881393E-07 -7.1525574E-07 1
vn 1.7881393E-07 -7.1525574E-07 1
vn 1.7881393E-07 -7.1525574E-07 1
vn 1.7881393E-07 -7.1525574E-07 1
vn 1.7881393E-07 -7.1525574E-07 1
g Alley_0
f 3/3/3 2/2/2 1/1/1
f 1/1/1 4/4/4 3/3/3
f 1/1/1 5/5/5 4/4/4
f 3/3/3 4/4/4 6/6/6
f 5/5/5 7/7/7 4/4/4
f 5/5/5 8/8/8 7/7/7
f 7/7/7 9/9/9 4/4/4
f 4/4/4 10/10/10 6/6/6
f 9/9/9 11/11/11 4/4/4
f 9/9/9 12/12/12 11/11/11
f 6/6/6 10/10/10 13/13/13
f 11/11/11 12/12/12 14/14/14
f 15/15/15 11/11/11 14/14/14
f 16/16/16 6/6/6 13/13/13
f 15/15/15 14/14/14 17/17/17
f 18/18/18 16/16/16 13/13/13
f 14/14/14 19/19/19 17/17/17
f 17/17/17 19/19/19 20/20/20
f 20/20/20 21/21/21 17/17/17
f 20/20/20 22/22/22 21/21/21
f 23/23/23 17/17/17 21/21/21
f 20/20/20 24/24/24 22/22/22
f 25/25/25 23/23/23 21/21/21
f 20/20/20 26/26/26 24/24/24
f 27/27/27 25/25/25 21/21/21
f 20/20/20 28/28/28 26/26/26
f 29/29/29 27/27/27 21/21/21
f 30/30/30 29/29/29 21/21/21
f 31/31/31 30/30/30 21/21/21
f 31/31/31 21/21/21 32/32/32
f 33/33/33 31/31/31 32/32/32
f 33/33/33 32/32/32 34/34/34
f 20/20/20 35/35/35 28/28/28
f 13/13/13 33/33/33 34/34/34
f 20/20/20 36/36/36 35/35/35
f 35/35/35 36/36/36 37/37/37
f 20/20/20 38/38/38 36/36/36
f 20/20/20 39/39/39 38/38/38
f 13/13/13 34/34/34 40/40/40
f 40/40/40 34/34/34 41/41/41
f 13/13/13 40/40/40 42/42/42
f 13/13/13 42/42/42 18/18/18
f 42/42/42 40/40/40 43/43/43
f 43/43/43 44/44/44 42/42/42
