g Alley_STR_Base_Stair
v 12.721719 15.019941 0.40002027
v 12.721719 15.019941 0.3200203
v 12.721719 15.019941 0.2200203
v 11.221719 15.019941 1.2200203
v 11.5017185 15.019941 1.2200203
v 11.5017185 8.5525875 1.2200203
v 11.221719 8.5525875 1.2200203
v 12.421719 15.019941 0.42002028
v 12.701718 15.019941 0.42002028
v 12.701718 8.5525875 0.42002028
v 12.421719 8.5525875 0.42002028
v 11.821718 15.019941 0.8200202
v 12.101719 15.019941 0.8200202
v 12.101719 8.5525875 0.8200202
v 11.821718 8.5525875 0.8200202
v 12.121718 15.019941 0.6200202
v 12.401718 15.019941 0.6200202
v 12.401718 8.5525875 0.6200202
v 12.121718 8.5525875 0.6200202
v 8.221719 15.019941 1.6200203
v 8.5017185 15.019941 1.6200203
v 8.5017185 8.5525875 1.6200203
v 8.221719 8.5525875 1.6200203
v 12.721719 15.019941 0.2200203
v 13.0017185 15.019941 0.2200203
v 13.0017185 8.5525875 0.2200203
v 12.721719 8.5525875 0.2200203
v 7.621718 15.019941 2.0200202
v 7.901718 15.019941 2.0200202
v 7.901718 8.5525875 2.0200202
v 7.621718 8.5525875 2.0200202
v 7.3217187 15.019941 2.22002
v 7.6017184 15.019941 2.22002
v 7.6017184 8.5525875 2.22002
v 7.3217187 8.5525875 2.22002
v 10.921719 15.019941 1.4200202
v 11.201718 15.019941 1.4200202
v 11.201718 8.5525875 1.4200202
v 10.921719 8.5525875 1.4200202
v 11.521718 15.019941 1.0200202
v 11.801719 15.019941 1.0200202
v 11.801719 8.5525875 1.0200202
v 11.521718 8.5525875 1.0200202
v 7.9217186 15.019941 1.8200202
v 8.201718 15.019941 1.8200202
v 8.201718 8.5525875 1.8200202
v 7.9217186 8.5525875 1.8200202
v 7.0217185 15.019941 2.4200199
v 7.3017187 15.019941 2.4200199
v 7.3017187 8.5525875 2.4200199
v 7.0217185 8.5525875 2.4200199
v 11.521718 8.5525875 1.2000203
v 11.521718 15.019941 1.2000203
v 11.521718 15.019941 1.0200202
v 11.521718 8.5525875 1.0200202
v 7.621718 8.5525875 2.2000198
v 7.621718 15.019941 2.2000198
v 7.621718 15.019941 2.0200202
v 7.621718 8.5525875 2.0200202
v 13.021718 15.019941 0.020020293
v 13.021718 8.5525875 0.020020293
v 13.021718 8.5525875 0.20002028
v 13.021718 15.019941 0.20002028
v 12.421719 8.5525875 0.60002023
v 12.421719 15.019941 0.60002023
v 12.421719 15.019941 0.42002028
v 12.421719 8.5525875 0.42002028
v 8.521718 8.5525875 1.6000199
v 8.521718 15.019941 1.6000199
v 8.521718 15.019941 1.4200202
v 8.521718 8.5525875 1.4200202
v 11.221719 8.5525875 1.4000202
v 11.221719 15.019941 1.4000202
v 11.221719 15.019941 1.2200203
v 11.221719 8.5525875 1.2200203
v 7.3217187 8.5525875 2.40002
v 7.3217187 15.019941 2.40002
v 7.3217187 15.019941 2.22002
v 7.3217187 8.5525875 2.22002
v 12.721719 15.019941 0.2200203
v 12.721719 8.5525875 0.2200203
v 12.721719 8.5525875 0.40002027
v 12.721719 15.019941 0.40002027
v 12.121718 8.5525875 0.8000202
v 12.121718 15.019941 0.8000202
v 12.121718 15.019941 0.6200202
v 12.121718 8.5525875 0.6200202
v 8.221719 8.5525875 1.8000202
v 8.221719 15.019941 1.8000202
v 8.221719 15.019941 1.6200203
v 8.221719 8.5525875 1.6200203
v 11.821718 8.5525875 1.0000203
v 11.821718 15.019941 1.0000203
v 11.821718 15.019941 0.8200202
v 11.821718 8.5525875 0.8200202
v 7.9217186 8.5525875 2.00002
v 7.9217186 15.019941 2.00002
v 7.9217186 15.019941 1.8200202
v 7.9217186 8.5525875 1.8200202
v 11.5017185 8.5525875 1.2200203
v 11.5017185 15.019941 1.2200203
v 11.521718 15.019941 1.2000203
v 11.521718 8.5525875 1.2000203
v 7.6017184 8.5525875 2.22002
v 7.6017184 15.019941 2.22002
v 7.621718 15.019941 2.2000198
v 7.621718 8.5525875 2.2000198
v 13.0017185 8.5525875 0.2200203
v 13.0017185 15.019941 0.2200203
v 13.021718 15.019941 0.20002028
v 13.021718 8.5525875 0.20002028
v 8.5017185 8.5525875 1.6200203
v 8.5017185 15.019941 1.6200203
v 8.521718 15.019941 1.6000199
v 8.521718 8.5525875 1.6000199
v 7.3017187 8.5525875 2.4200199
v 7.3017187 15.019941 2.4200199
v 7.3217187 15.019941 2.40002
v 7.3217187 8.5525875 2.40002
v 12.401718 8.5525875 0.6200202
v 12.401718 15.019941 0.6200202
v 12.421719 15.019941 0.60002023
v 12.421719 8.5525875 0.60002023
v 11.201718 8.5525875 1.4200202
v 11.201718 15.019941 1.4200202
v 11.221719 15.019941 1.4000202
v 11.221719 8.5525875 1.4000202
v 12.701718 8.5525875 0.42002028
v 12.701718 15.019941 0.42002028
v 12.721719 15.019941 0.40002027
v 12.721719 8.5525875 0.40002027
v 8.201718 8.5525875 1.8200202
v 8.201718 15.019941 1.8200202
v 8.221719 15.019941 1.8000202
v 8.221719 8.5525875 1.8000202
v 12.101719 8.5525875 0.8200202
v 12.101719 15.019941 0.8200202
v 12.121718 15.019941 0.8000202
v 12.121718 8.5525875 0.8000202
v 11.801719 8.5525875 1.0200202
v 11.801719 15.019941 1.0200202
v 11.821718 15.019941 1.0000203
v 11.821718 8.5525875 1.0000203
v 7.901718 8.5525875 2.0200202
v 7.901718 15.019941 2.0200202
v 7.9217186 15.019941 2.00002
v 7.9217186 8.5525875 2.00002
v 8.521718 15.019941 1.4200202
v 10.921719 15.019941 1.4200202
v 10.921719 8.5525875 1.4200202
v 8.521718 8.5525875 1.4200202
v 0.02171875 15.019941 2.4200199
v 7.0217185 15.019941 2.4200199
v 7.0217185 8.5525875 2.4200199
v 0.02171875 8.5525875 2.4200199
vt 19.4375 7.8164062
vt 19.4375 7.7695312
vt 19.4375 7.7109375
vt 19.4375 8
vt 19.4375 7.8320312
vt 15.59375 7.8320312
vt 15.59375 8
vt 19.4375 8
vt 19.4375 7.8320312
vt 15.59375 7.8320312
vt 15.59375 8
vt 19.4375 8
vt 19.4375 7.8320312
vt 15.59375 7.8320312
vt 15.59375 8
vt 19.4375 8
vt 19.4375 7.8320312
vt 15.59375 7.8320312
vt 15.59375 8
vt 19.4375 10
vt 19.4375 9.8359375
vt 15.59375 9.8359375
vt 15.59375 10
vt 19.4375 7
vt 19.4375 6.8320312
vt 15.59375 6.8320312
vt 15.59375 7
vt 19.4375 10
vt 19.4375 9.8359375
vt 15.59375 9.8359375
vt 15.59375 10
vt 19.4375 11
vt 19.4375 10.8359375
vt 15.59375 10.8359375
vt 15.59375 11
vt 19.4375 8
vt 19.4375 7.8320312
vt 15.59375 7.8320312
vt 15.59375 8
vt 19.4375 8
vt 19.4375 7.8320312
vt 15.59375 7.8320312
vt 15.59375 8
vt 19.4375 10
vt 19.4375 9.8359375
vt 15.59375 9.8359375
vt 15.59375 10
vt 19.4375 11
vt 19.4375 10.8359375
vt 15.59375 10.8359375
vt 15.59375 11
vt 15.59375 7.8164062
vt 19.4375 7.8164062
vt 19.4375 7.7109375
vt 15.59375 7.7109375
vt 15.59375 10.8203125
vt 19.4375 10.8203125
vt 19.4375 10.7109375
vt 15.59375 10.7109375
vt 19.4375 6.7109375
vt 15.59375 6.7109375
vt 15.59375 6.8164062
vt 19.4375 6.8164062
vt 15.59375 7.8164062
vt 19.4375 7.8164062
vt 19.4375 7.7109375
vt 15.59375 7.7109375
vt 15.59375 9.8203125
vt 19.4375 9.8203125
vt 19.4375 9.7109375
vt 15.59375 9.7109375
vt 15.59375 7.8164062
vt 19.4375 7.8164062
vt 19.4375 7.7109375
vt 15.59375 7.7109375
vt 15.59375 10.8203125
vt 19.4375 10.8203125
vt 19.4375 10.7109375
vt 15.59375 10.7109375
vt 19.4375 7.7109375
vt 15.59375 7.7109375
vt 15.59375 7.8164062
vt 19.4375 7.8164062
vt 15.59375 7.8164062
vt 19.4375 7.8164062
vt 19.4375 7.7109375
vt 15.59375 7.7109375
vt 15.59375 9.8203125
vt 19.4375 9.8203125
vt 19.4375 9.7109375
vt 15.59375 9.7109375
vt 15.59375 7.8164062
vt 19.4375 7.8164062
vt 19.4375 7.7109375
vt 15.59375 7.7109375
vt 15.59375 9.8203125
vt 19.4375 9.8203125
vt 19.4375 9.7109375
vt 15.59375 9.7109375
vt 15.59375 7.8320312
vt 19.4375 7.8320312
vt 19.4375 7.8164062
vt 15.59375 7.8164062
vt 15.59375 10.8359375
vt 19.4375 10.8359375
vt 19.4375 10.8203125
vt 15.59375 10.8203125
vt 15.59375 6.8320312
vt 19.4375 6.8320312
vt 19.4375 6.8164062
vt 15.59375 6.8164062
vt 15.59375 9.8359375
vt 19.4375 9.8359375
vt 19.4375 9.8203125
vt 15.59375 9.8203125
vt 15.59375 10.8359375
vt 19.4375 10.8359375
vt 19.4375 10.8203125
vt 15.59375 10.8203125
vt 15.59375 7.8320312
vt 19.4375 7.8320312
vt 19.4375 7.8164062
vt 15.59375 7.8164062
vt 15.59375 7.8320312
vt 19.4375 7.8320312
vt 19.4375 7.8164062
vt 15.59375 7.8164062
vt 15.59375 7.8320312
vt 19.4375 7.8320312
vt 19.4375 7.8164062
vt 15.59375 7.8164062
vt 15.59375 9.8359375
vt 19.4375 9.8359375
vt 19.4375 9.8203125
vt 15.59375 9.8203125
vt 15.59375 7.8320312
vt 19.4375 7.8320312
vt 19.4375 7.8164062
vt 15.59375 7.8164062
vt 15.59375 7.8320312
vt 19.4375 7.8320312
vt 19.4375 7.8164062
vt 15.59375 7.8164062
vt 15.59375 9.8359375
vt 19.4375 9.8359375
vt 19.4375 9.8203125
vt 15.59375 9.8203125
vt 1.1005859 2.5019531
vt 1.5009766 2.5019531
vt 1.5009766 1.4248047
vt 1.1005859 1.4248047
vt -0.1661377 2.5
vt 1.0009766 2.5
vt 1.0009766 1.4228516
vt -0.1661377 1.4228516
vn 1 0 0
vn 1 0 0
vn 1 0 0
vn -0 0 1
vn -0 0 1
vn -0 0 1
vn -0 0 1
vn -0 0 1
vn -0 0 1
vn -0 0 1
vn -0 0 1
vn -0 0 1
vn -0 0 1
vn -0 0 1
vn -0 0 1
vn -0 0 1
vn -0 0 1
vn -0 0 1
vn -0 0 1
vn -0 0 1
vn -0 0 1
vn -0 0 1
vn -0 0 1
vn -0 0 1
vn -0 0 1
vn -0 0 1
vn -0 0 1
vn -0 0 1
vn -0 0 1
vn -0 0 1
vn -0 0 1
vn -0 0 1
vn -0 0 1
vn -0 0 1
vn -0 0 1
vn -0 0 1
vn -0 0 1
vn -0 0 1
vn -0 0 1
vn -0 0 1
vn -0 0 1
vn -0 0 1
vn -0 0 1
vn -0 0 1
vn -0 0 1
vn -0 0 1
vn -0 0 1
vn -0 0 1
vn -0 0 1
vn -0 0 1
vn -0 0 1
vn 1 0 0
vn 1 0 0
vn 1 0 0
vn 1 0 0
vn 1 0 0
vn 1 0 0
vn 1 0 0
vn 1 0 0
vn 1 0 0
vn 1 0 0
vn 1 0 0
vn 1 0 0
vn 1 0 0
vn 1 0 0
vn 1 0 0
vn 1 0 0
vn 1 0 0
vn 1 0 0
vn 1 0 0
vn 1 0 0
vn 1 0 0
vn 1 0 0
vn 1 0 0
vn 1 0 0
vn 1 0 0
vn 1 0 0
vn 1 0 0
vn 1 0 0
vn 1 0 0
vn 1 0 0
vn 1 0 0
vn 1 0 0
vn 1 0 0
vn 1 0 0
vn 1 0 0
vn 1 0 0
vn 1 0 0
vn 1 0 0
vn 1 0 0
vn 1 0 0
vn 1 0 0
vn 1 0 0
vn 1 0 0
vn 1 0 0
vn 1 0 0
vn 1 0 0
vn 1 0 0
vn 1 0 0
vn 0.70703125 0 0.70703125
vn 0.70703125 0 0.70703125
vn 0.70703125 0 0.70703125
vn 0.70703125 0 0.70703125
vn 0.70703125 0 0.70703125
vn 0.70703125 0 0.70703125
vn 0.70703125 0 0.70703125
vn 0.70703125 0 0.70703125
vn 0.70703125 0 0.70703125
vn 0.70703125 0 0.70703125
vn 0.70703125 0 0.70703125
vn 0.70703125 0 0.70703125
vn 0.70703125 0 0.70703125
vn 0.70703125 0 0.70703125
vn 0.70703125 0 0.70703125
vn 0.70703125 0 0.70703125
vn 0.70703125 0 0.70703125
vn 0.70703125 0 0.70703125
vn 0.70703125 0 0.70703125
vn 0.70703125 0 0.70703125
vn 0.70703125 0 0.70703125
vn 0.70703125 0 0.70703125
vn 0.70703125 0 0.70703125
vn 0.70703125 0 0.70703125
vn 0.70703125 0 0.70703125
vn 0.70703125 0 0.70703125
vn 0.70703125 0 0.70703125
vn 0.70703125 0 0.70703125
vn 0.70703125 0 0.70703125
vn 0.70703125 0 0.70703125
vn 0.70703125 0 0.70703125
vn 0.70703125 0 0.70703125
vn 0.70703125 0 0.70703125
vn 0.70703125 0 0.70703125
vn 0.70703125 0 0.70703125
vn 0.70703125 0 0.70703125
vn 0.70703125 0 0.70703125
vn 0.70703125 0 0.70703125
vn 0.70703125 0 0.70703125
vn 0.70703125 0 0.70703125
vn 0.70703125 0 0.70703125
vn 0.70703125 0 0.70703125
vn 0.70703125 0 0.70703125
vn 0.70703125 0 0.70703125
vn 0.70703125 0 0.70703125
vn 0.70703125 0 0.70703125
vn 0.70703125 0 0.70703125
vn 0.70703125 0 0.70703125
vn -0 0 1
vn -0 0 1
vn -0 0 1
vn -0 0 1
vn -0 0 1
vn -0 0 1
vn -0 0 1
vn -0 0 1
g Alley_STR_Base_Stair_0
f 3/3/3 2/2/2 1/1/1
f 6/6/6 5/5/5 4/4/4
f 7/7/7 6/6/6 4/4/4
f 10/10/10 9/9/9 8/8/8
f 11/11/11 10/10/10 8/8/8
f 14/14/14 13/13/13 12/12/12
f 15/15/15 14/14/14 12/12/12
f 18/18/18 17/17/17 16/16/16
f 19/19/19 18/18/18 16/16/16
f 22/22/22 21/21/21 20/20/20
f 23/23/23 22/22/22 20/20/20
f 26/26/26 25/25/25 24/24/24
f 27/27/27 26/26/26 24/24/24
f 30/30/30 29/29/29 28/28/28
f 31/31/31 30/30/30 28/28/28
f 34/34/34 33/33/33 32/32/32
f 35/35/35 34/34/34 32/32/32
f 38/38/38 37/37/37 36/36/36
f 39/39/39 38/38/38 36/36/36
f 42/42/42 41/41/41 40/40/40
f 43/43/43 42/42/42 40/40/40
f 46/46/46 45/45/45 44/44/44
f 47/47/47 46/46/46 44/44/44
f 50/50/50 49/49/49 48/48/48
f 51/51/51 50/50/50 48/48/48
f 54/54/54 53/53/53 52/52/52
f 55/55/55 54/54/54 52/52/52
f 58/58/58 57/57/57 56/56/56
f 59/59/59 58/58/58 56/56/56
f 62/62/62 61/61/61 60/60/60
f 63/63/63 62/62/62 60/60/60
f 66/66/66 65/65/65 64/64/64
f 67/67/67 66/66/66 64/64/64
f 70/70/70 69/69/69 68/68/68
f 71/71/71 70/70/70 68/68/68
f 74/74/74 73/73/73 72/72/72
f 75/75/75 74/74/74 72/72/72
f 78/78/78 77/77/77 76/76/76
f 79/79/79 78/78/78 76/76/76
f 82/82/82 81/81/81 80/80/80
f 80/80/80 83/83/83 82/82/82
f 86/86/86 85/85/85 84/84/84
f 87/87/87 86/86/86 84/84/84
f 90/90/90 89/89/89 88/88/88
f 91/91/91 90/90/90 88/88/88
f 94/94/94 93/93/93 92/92/92
f 95/95/95 94/94/94 92/92/92
f 98/98/98 97/97/97 96/96/96
f 99/99/99 98/98/98 96/96/96
f 102/102/102 101/101/101 100/100/100
f 103/103/103 102/102/102 100/100/100
f 106/106/106 105/105/105 104/104/104
f 107/107/107 106/106/106 104/104/104
f 110/110/110 109/109/109 108/108/108
f 111/111/111 110/110/110 108/108/108
f 114/114/114 113/113/113 112/112/112
f 115/115/115 114/114/114 112/112/112
f 118/118/118 117/117/117 116/116/116
f 119/119/119 118/118/118 116/116/116
f 122/122/122 121/121/121 120/120/120
f 123/123/123 122/122/122 120/120/120
f 126/126/126 125/125/125 124/124/124
f 127/127/127 126/126/126 124/124/124
f 130/130/130 129/129/129 128/128/128
f 131/131/131 130/130/130 128/128/128
f 134/134/134 133/133/133 132/132/132
f 135/135/135 134/134/134 132/132/132
f 138/138/138 137/137/137 136/136/136
f 139/139/139 138/138/138 136/136/136
f 142/142/142 141/141/141 140/140/140
f 143/143/143 142/142/142 140/140/140
f 146/146/146 145/145/145 144/144/144
f 147/147/147 146/146/146 144/144/144
g Alley_STR_Base_Stair_1
f 150/150/150 149/149/149 148/148/148
f 151/151/151 150/150/150 148/148/148
f 154/154/154 153/153/153 152/152/152
f 155/155/155 154/154/154 152/152/152
