g Alley_STR_Drain_01
v 42.5 21.199999 1.3374366E-13
v 42.399998 21.3 1.3374366E-13
v 43.5 21.3 2.1640744E-13
v 43.399998 21.199999 2.1640744E-13
v 42.5 20.699999 1.3374366E-13
v 42.399998 20.6 1.3374366E-13
v 42.399998 21.3 1.3374366E-13
v 42.5 21.199999 1.3374366E-13
v 43.5 20.6 2.1640744E-13
v 42.399998 20.6 1.3374366E-13
v 42.5 20.699999 1.3374366E-13
v 43.399998 20.699999 2.1640744E-13
v 43.5 20.6 2.1640744E-13
v 43.399998 20.699999 2.1640744E-13
v 43.399998 21.199999 2.1640744E-13
v 43.5 21.3 2.1640744E-13
v 44.749992 -8.499995 -2.7465828E-06
v 44.749973 -7.3156743 -2.7465824E-06
v 44.849976 -7.415674 -2.7465826E-06
v 44.849995 -8.399996 -2.7465828E-06
v 45.449993 -8.499995 -2.7465828E-06
v 44.749992 -8.499995 -2.7465828E-06
v 44.849995 -8.399996 -2.7465828E-06
v 45.349995 -8.399996 -2.7465828E-06
v 44.849976 -7.415674 -2.7465826E-06
v 44.749973 -7.3156743 -2.7465824E-06
v 45.449974 -7.3156743 -2.7465826E-06
v 45.349976 -7.415674 -2.7465826E-06
v 45.349995 -8.399996 -2.7465828E-06
v 45.349976 -7.415674 -2.7465826E-06
v 45.449974 -7.3156743 -2.7465826E-06
v 45.449993 -8.499995 -2.7465828E-06
v 38.40001 -9.299995 -2.746582E-06
v 38.399994 -7.499996 -2.746581E-06
v 38.499992 -7.3999963 -2.746581E-06
v 38.500008 -9.399996 -2.746582E-06
v 38.500008 -9.399996 -2.746582E-06
v 37.80001 -9.399996 -2.746582E-06
v 37.900013 -9.299995 -2.746582E-06
v 38.40001 -9.299995 -2.746582E-06
v 37.80001 -9.399996 -2.746582E-06
v 37.799995 -7.3999963 -2.746581E-06
v 37.899994 -7.499996 -2.746581E-06
v 37.900013 -9.299995 -2.746582E-06
v 37.899994 -7.499996 -2.746581E-06
v 37.799995 -7.3999963 -2.746581E-06
v 38.499992 -7.3999963 -2.746581E-06
v 38.399994 -7.499996 -2.746581E-06
vt 0.009239197 0.36767578
vt -0.018676758 0.3955078
vt 0.28833008 0.3955078
vt 0.26049805 0.36767578
vt -0.1303711 0.36767578
vt -0.1583252 0.3955078
vt 0.03717041 0.3955078
vt 0.009239197 0.36767578
vt 0.28833008 0.20007324
vt -0.018676758 0.20007324
vt 0.009239197 0.22802734
vt 0.26049805 0.22802734
vt 0.097473145 0.19995117
vt 0.12536621 0.22790527
vt 0.26489258 0.22790527
vt 0.29296875 0.19995117
vt 0.28833008 0.20007324
vt -0.042236328 0.20007324
vt -0.014305115 0.22790527
vt 0.26049805 0.22802734
vt 0.29296875 0.19995117
vt 0.097473145 0.19995117
vt 0.12536621 0.22790527
vt 0.26489258 0.22790527
vt -0.1303711 0.36767578
vt -0.1583252 0.3955078
vt 0.03717041 0.3955078
vt 0.009239197 0.36767578
vt 0.26049805 0.36767578
vt -0.014305115 0.36767578
vt -0.042236328 0.3955078
vt 0.28833008 0.3955078
vt 0.26049805 0.36767578
vt -0.24206543 0.36767578
vt -0.27001953 0.3955078
vt 0.28833008 0.3955078
vt 0.29296875 0.19995117
vt 0.097473145 0.19995117
vt 0.12536621 0.22790527
vt 0.26489258 0.22790527
vt 0.28833008 0.20007324
vt -0.27001953 0.20007324
vt -0.24206543 0.22790527
vt 0.26049805 0.22802734
vt -0.1303711 0.36767578
vt -0.1583252 0.3955078
vt 0.03717041 0.3955078
vt 0.009239197 0.36767578
vn -0 0 1
vn -0 0 1
vn -0 0 1
vn -0 0 1
vn -0 0 1
vn -0 0 1
vn -0 0 1
vn -0 0 1
vn -0 0 1
vn -0 0 1
vn -0 0 1
vn -0 0 1
vn -0 0 1
vn -0 0 1
vn -0 0 1
vn -0 0 1
vn -0 0 1
vn -0 0 1
vn -0 0 1
vn -0 0 1
vn -0 0 1
vn -0 0 1
vn -0 0 1
vn -0 0 1
vn -0 0 1
vn -0 0 1
vn -0 0 1
vn -0 0 1
vn -0 0 1
vn -0 0 1
vn -0 0 1
vn -0 0 1
vn -0 0 1
vn -0 0 1
vn -0 0 1
vn -0 0 1
vn -0 0 1
vn -0 0 1
vn -0 0 1
vn -0 0 1
vn -0 0 1
vn -0 0 1
vn -0 0 1
vn -0 0 1
vn -0 0 1
vn -0 0 1
vn -0 0 1
vn -0 0 1
g Alley_STR_Drain_01_0
f 3/3/3 2/2/2 1/1/1
f 4/4/4 3/3/3 1/1/1
f 7/7/7 6/6/6 5/5/5
f 8/8/8 7/7/7 5/5/5
f 11/11/11 10/10/10 9/9/9
f 12/12/12 11/11/11 9/9/9
f 15/15/15 14/14/14 13/13/13
f 16/16/16 15/15/15 13/13/13
f 19/19/19 18/18/18 17/17/17
f 20/20/20 19/19/19 17/17/17
f 23/23/23 22/22/22 21/21/21
f 24/24/24 23/23/23 21/21/21
f 27/27/27 26/26/26 25/25/25
f 28/28/28 27/27/27 25/25/25
f 31/31/31 30/30/30 29/29/29
f 32/32/32 31/31/31 29/29/29
f 35/35/35 34/34/34 33/33/33
f 36/36/36 35/35/35 33/33/33
f 39/39/39 38/38/38 37/37/37
f 40/40/40 39/39/39 37/37/37
f 43/43/43 42/42/42 41/41/41
f 44/44/44 43/43/43 41/41/41
f 47/47/47 46/46/46 45/45/45
f 48/48/48 47/47/47 45/45/45
