g Bg_Alley_STR_Base_Wall_04
v -13.349999 0.97999996 -0.29999998
v -13.349999 -0.9799951 -0.29999998
v -13.349999 -0.9799951 0.19999999
v -13.349999 -0.9799951 0.29999998
v -13.349999 0.97999996 0.29999998
v -13.349999 0.97999996 -0.29999998
v -13.349999 0.97999996 0.29999998
v -10.806747 0.97999996 0.29999998
v -10.806747 0.97999996 -0.29999998
v 13.349999 0.97999996 0.29999998
v 13.349999 -0.5199951 0.29999998
v 13.349999 -0.5199951 0.19999999
v 13.349999 -0.5199951 -0.29999998
v 13.349999 0.97999996 -0.29999998
v 1.9499999 -0.9799951 -0.29999998
v 1.9499999 -0.32 -0.29999998
v 1.9499999 -0.32 0.19999999
v 1.9499999 -0.9799951 0.19999999
v -8.270347 0.97999996 -0.29999998
v -10.806747 0.97999996 -0.29999998
v -10.806747 0.97999996 0.29999998
v -8.270347 0.97999996 0.29999998
v -10.806747 -0.9799951 -0.29999998
v -10.806747 -0.9799951 0.19999999
v -13.349999 -0.9799951 0.19999999
v -13.349999 -0.9799951 -0.29999998
v -10.806747 -0.9799951 -0.29999998
v -8.270347 -0.9799951 -0.29999998
v -8.270347 -0.9799951 0.19999999
v -10.806747 -0.9799951 0.19999999
v -5.7325487 0.9799975 -0.29999998
v -8.270347 0.97999996 -0.29999998
v -8.270347 0.97999996 0.29999998
v -5.7325487 0.97999996 0.29999998
v -8.270347 -0.9799951 -0.29999998
v -5.7325487 -0.9799951 -0.29999998
v -5.7325487 -0.9799951 0.19999999
v -8.270347 -0.9799951 0.19999999
v -3.1905339 0.9799975 -0.29999995
v -5.7325487 0.9799975 -0.29999998
v -5.7325487 0.97999996 0.29999998
v -3.1905353 0.97999996 0.29999998
v -5.7325487 -0.9799951 -0.29999998
v -3.1905346 -0.9799951 -0.29999998
v -3.1905346 -0.9799951 0.19999999
v -5.7325487 -0.9799951 0.19999999
v -0.6568512 0.9799975 -0.29999995
v -3.1905339 0.9799975 -0.29999995
v -3.1905353 0.97999996 0.29999998
v -0.6568506 0.97999996 0.29999998
v -3.1905346 -0.9799951 -0.29999998
v -0.6568506 -0.9799951 -0.29999998
v -0.6568506 -0.9799951 0.19999999
v -3.1905346 -0.9799951 0.19999999
v 1.8876489 0.9799975 -0.29999995
v -0.6568512 0.9799975 -0.29999995
v -0.6568506 0.97999996 0.29999998
v 1.8876489 0.9800024 0.29999998
v 4.4069514 0.9799975 -0.29999992
v 1.8876489 0.9799975 -0.29999995
v 1.8876489 0.9800024 0.29999998
v 4.4069514 0.9800024 0.29999998
v -0.6568506 -0.9799951 -0.29999998
v 1.9499999 -0.9799951 -0.29999998
v 1.9499999 -0.9799951 0.19999999
v -0.6568506 -0.9799951 0.19999999
v 6.9496365 0.9799975 -0.29999992
v 4.4069514 0.9799975 -0.29999992
v 4.4069514 0.9800024 0.29999998
v 6.949636 0.9800024 0.29999998
v 9.480427 0.9799975 -0.29999995
v 6.9496365 0.9799975 -0.29999992
v 6.949636 0.9800024 0.29999998
v 9.480427 0.9800024 0.29999998
v 12.016716 0.97999996 -0.29999998
v 9.480427 0.9799975 -0.29999995
v 9.480427 0.9800024 0.29999998
v 12.016716 0.9800024 0.29999998
v 13.349999 0.97999996 -0.29999998
v 12.016716 0.97999996 -0.29999998
v 12.016716 0.9800024 0.29999998
v 13.349999 0.97999996 0.29999998
v 1.9499999 -0.32 -0.29999998
v 3.7450414 -0.32 -0.29999998
v 3.7450414 -0.32 0.19999999
v 1.9499999 -0.32 0.19999999
v 11.225615 -0.5199951 -0.29999998
v 13.349999 -0.5199951 -0.29999998
v 13.349999 -0.5199951 0.19999999
v 11.225615 -0.5199951 0.19999999
v 8.8301 -0.32 -0.29999998
v 9.95 -0.32 -0.29999998
v 9.95 -0.32 0.19999999
v 8.8301 -0.32 0.19999999
v 9.95 -0.5199951 0.19999999
v 9.95 -0.32 0.19999999
v 9.95 -0.32 -0.29999998
v 9.95 -0.5199951 -0.29999998
v 3.7450414 -0.32 -0.29999998
v 6.28636 -0.32 -0.29999998
v 6.28636 -0.32 0.19999999
v 3.7450414 -0.32 0.19999999
v 6.28636 -0.32 -0.29999998
v 8.8301 -0.32 -0.29999998
v 8.8301 -0.32 0.19999999
v 6.28636 -0.32 0.19999999
v 9.95 -0.5199951 -0.29999998
v 11.225615 -0.5199951 -0.29999998
v 11.225615 -0.5199951 0.19999999
v 9.95 -0.5199951 0.19999999
vt 0.8852539 0.121276855
vt 0.5058594 0.121276855
vt 0.5058594 0.21862793
vt 0.5058594 0.23803711
vt 0.8852539 0.23803711
vt 0.5058594 0.121276855
vt 0.5058594 0.23803711
vt 0.99853516 0.23803711
vt 0.99853516 0.121276855
vt 0.5058594 0.23803711
vt 0.8852539 0.23803711
vt 0.8852539 0.21862793
vt 0.8852539 0.121276855
vt 0.5058594 0.121276855
vt 0.8574219 0.21887207
vt 0.98583984 0.21887207
vt 0.98583984 0.121520996
vt 0.8574219 0.121520996
vt 0.9980469 0.121276855
vt 0.5058594 0.121276855
vt 0.5058594 0.23803711
vt 0.9980469 0.23803711
vt 0.99853516 0.21862793
vt 0.99853516 0.12133789
vt 0.5058594 0.121276855
vt 0.5058594 0.21862793
vt 0.5058594 0.21862793
vt 0.9980469 0.21862793
vt 0.9980469 0.121398926
vt 0.5058594 0.12133789
vt 0.9980469 0.121276855
vt 0.5058594 0.121276855
vt 0.5058594 0.23803711
vt 0.9980469 0.23803711
vt 0.5058594 0.21862793
vt 0.9980469 0.21875
vt 0.9980469 0.121398926
vt 0.5058594 0.121398926
vt 0.9980469 0.121276855
vt 0.5058594 0.121276855
vt 0.5058594 0.23803711
vt 0.9980469 0.23803711
vt 0.5058594 0.21875
vt 0.9980469 0.21875
vt 0.9980469 0.12145996
vt 0.5058594 0.121398926
vt 0.9980469 0.121276855
vt 0.5058594 0.121276855
vt 0.5058594 0.23803711
vt 0.9980469 0.23803711
vt 0.5058594 0.21875
vt 0.9980469 0.21875
vt 0.9980469 0.121520996
vt 0.5058594 0.12145996
vt 0.99902344 0.121276855
vt 0.5058594 0.121276855
vt 0.5058594 0.23803711
vt 0.99902344 0.23803711
vt 0.99658203 0.121276855
vt 0.5058594 0.121276855
vt 0.5058594 0.23803711
vt 0.99658203 0.23803711
vt 0.5058594 0.21875
vt 0.99902344 0.21850586
vt 0.99902344 0.12188721
vt 0.5058594 0.121520996
vt 0.99853516 0.121276855
vt 0.50341797 0.121276855
vt 0.50341797 0.23803711
vt 0.99853516 0.23803711
vt 0.9980469 0.121276855
vt 0.5053711 0.121276855
vt 0.5053711 0.23803711
vt 0.9980469 0.23803711
vt 0.9980469 0.121276855
vt 0.50439453 0.121276855
vt 0.50439453 0.23803711
vt 0.9980469 0.23803711
vt 0.7651367 0.121276855
vt 0.5053711 0.121276855
vt 0.5053711 0.23803711
vt 0.7651367 0.23803711
vt 0.6489258 0.21887207
vt 0.9980469 0.21887207
vt 0.9980469 0.12158203
vt 0.6489258 0.121520996
vt 0.50439453 0.21899414
vt 0.91748047 0.21911621
vt 0.91748047 0.12182617
vt 0.50439453 0.1217041
vt 0.50390625 0.21887207
vt 0.7216797 0.21899414
vt 0.7216797 0.12164307
vt 0.50390625 0.12164307
vt 1.75 0.12164307
vt 1.7109375 0.12164307
vt 1.7109375 0.21899414
vt 1.75 0.21899414
vt 0.50390625 0.21887207
vt 0.99853516 0.21887207
vt 0.99853516 0.12164307
vt 0.50390625 0.12158203
vt 0.50390625 0.21887207
vt 0.99853516 0.21887207
vt 0.99853516 0.12164307
vt 0.50390625 0.12164307
vt 1.75 0.21899414
vt 1.9980469 0.21899414
vt 1.9980469 0.1217041
vt 1.75 0.12164307
vn 1 0 0
vn 1 0 0
vn 1 0 0
vn 1 0 0
vn 1 0 0
vn -0 -1 0
vn -0 -1 0
vn -0 -1 0
vn -0 -1 0
vn -1 0 0
vn -1 0 0
vn -1 0 0
vn -1 0 0
vn -1 0 0
vn -1 0 0
vn -1 0 0
vn -1 0 0
vn -1 0 0
vn -0 -1 0
vn -0 -1 0
vn -0 -1 0
vn -0 -1 0
vn -0 1 0
vn -0 1 0
vn -0 1 0
vn -0 1 0
vn -0 1 0
vn -0 1 0
vn -0 1 0
vn -0 1 0
vn -4.7683716E-07 -1 2.026558E-06
vn -4.7683716E-07 -1 2.026558E-06
vn -4.7683716E-07 -1 2.026558E-06
vn -4.7683716E-07 -1 2.026558E-06
vn -0 1 0
vn -0 1 0
vn -0 1 0
vn -0 1 0
vn -0 -1 4.053116E-06
vn -0 -1 4.053116E-06
vn -0 -1 4.053116E-06
vn -0 -1 4.053116E-06
vn -0 1 0
vn -0 1 0
vn -0 1 0
vn -0 1 0
vn -0 -1 4.053116E-06
vn -0 -1 4.053116E-06
vn -0 -1 4.053116E-06
vn -0 -1 4.053116E-06
vn -0 1 0
vn -0 1 0
vn -0 1 0
vn -0 1 0
vn 4.7683716E-07 -1 6.0796738E-06
vn 4.7683716E-07 -1 6.0796738E-06
vn 4.7683716E-07 -1 6.0796738E-06
vn 4.7683716E-07 -1 6.0796738E-06
vn -0 -1 8.165836E-06
vn -0 -1 8.165836E-06
vn -0 -1 8.165836E-06
vn -0 -1 8.165836E-06
vn -0 1 0
vn -0 1 0
vn -0 1 0
vn -0 1 0
vn -0 -1 8.165836E-06
vn -0 -1 8.165836E-06
vn -0 -1 8.165836E-06
vn -0 -1 8.165836E-06
vn -0 -1 8.165836E-06
vn -0 -1 8.165836E-06
vn -0 -1 8.165836E-06
vn -0 -1 8.165836E-06
vn 4.7683716E-07 -1 6.0796738E-06
vn 4.7683716E-07 -1 6.0796738E-06
vn 4.7683716E-07 -1 6.0796738E-06
vn 4.7683716E-07 -1 6.0796738E-06
vn -8.940697E-07 -1 2.026558E-06
vn -8.940697E-07 -1 2.026558E-06
vn -8.940697E-07 -1 2.026558E-06
vn -8.940697E-07 -1 2.026558E-06
vn -0 1 0
vn -0 1 0
vn -0 1 0
vn -0 1 0
vn -0 1 0
vn -0 1 0
vn -0 1 0
vn -0 1 0
vn -0 1 0
vn -0 1 0
vn -0 1 0
vn -0 1 0
vn 1 0 0
vn 1 0 0
vn 1 0 0
vn 1 0 0
vn -0 1 0
vn -0 1 0
vn -0 1 0
vn -0 1 0
vn -0 1 0
vn -0 1 0
vn -0 1 0
vn -0 1 0
vn -0 1 0
vn -0 1 0
vn -0 1 0
vn -0 1 0
g Bg_Alley_STR_Base_Wall_04_0
f 3/3/3 2/2/2 1/1/1
f 1/1/1 4/4/4 3/3/3
f 1/1/1 5/5/5 4/4/4
f 8/8/8 7/7/7 6/6/6
f 9/9/9 8/8/8 6/6/6
f 12/12/12 11/11/11 10/10/10
f 10/10/10 13/13/13 12/12/12
f 10/10/10 14/14/14 13/13/13
f 17/17/17 16/16/16 15/15/15
f 18/18/18 17/17/17 15/15/15
f 21/21/21 20/20/20 19/19/19
f 22/22/22 21/21/21 19/19/19
f 25/25/25 24/24/24 23/23/23
f 26/26/26 25/25/25 23/23/23
f 29/29/29 28/28/28 27/27/27
f 30/30/30 29/29/29 27/27/27
f 33/33/33 32/32/32 31/31/31
f 34/34/34 33/33/33 31/31/31
f 37/37/37 36/36/36 35/35/35
f 38/38/38 37/37/37 35/35/35
f 41/41/41 40/40/40 39/39/39
f 42/42/42 41/41/41 39/39/39
f 45/45/45 44/44/44 43/43/43
f 46/46/46 45/45/45 43/43/43
f 49/49/49 48/48/48 47/47/47
f 50/50/50 49/49/49 47/47/47
f 53/53/53 52/52/52 51/51/51
f 54/54/54 53/53/53 51/51/51
f 57/57/57 56/56/56 55/55/55
f 58/58/58 57/57/57 55/55/55
f 61/61/61 60/60/60 59/59/59
f 62/62/62 61/61/61 59/59/59
f 65/65/65 64/64/64 63/63/63
f 66/66/66 65/65/65 63/63/63
f 69/69/69 68/68/68 67/67/67
f 70/70/70 69/69/69 67/67/67
f 73/73/73 72/72/72 71/71/71
f 74/74/74 73/73/73 71/71/71
f 77/77/77 76/76/76 75/75/75
f 78/78/78 77/77/77 75/75/75
f 81/81/81 80/80/80 79/79/79
f 82/82/82 81/81/81 79/79/79
f 85/85/85 84/84/84 83/83/83
f 86/86/86 85/85/85 83/83/83
f 89/89/89 88/88/88 87/87/87
f 90/90/90 89/89/89 87/87/87
f 93/93/93 92/92/92 91/91/91
f 94/94/94 93/93/93 91/91/91
f 97/97/97 96/96/96 95/95/95
f 98/98/98 97/97/97 95/95/95
f 101/101/101 100/100/100 99/99/99
f 102/102/102 101/101/101 99/99/99
f 105/105/105 104/104/104 103/103/103
f 106/106/106 105/105/105 103/103/103
f 109/109/109 108/108/108 107/107/107
f 110/110/110 109/109/109 107/107/107
