g Bg_School_Water_SidePlan
v 23.20568 -4.4390783 -3.0517577E-07
v 41.444805 -4.4390783 -3.0517577E-07
v 41.444805 -6.489808 -3.0517577E-07
v 23.20568 -6.489808 -3.0517577E-07
v 21.218351 -6.489808 -3.0517577E-07
v 21.218351 -4.716925 -3.0517577E-07
v 23.20568 -2.7558825 -3.0517577E-07
v 21.218351 -2.7558825 -3.0517577E-07
v 11.330537 -4.716925 -3.0517577E-07
v 11.330537 -2.7558825 -3.0517577E-07
v 4.4941797 -1.4985338 -3.0517577E-07
v 4.4941797 -3.5164952 -3.0517577E-07
v -0 -1.4985338 -3.0517577E-07
v -0 -3.5164952 -3.0517577E-07
v -1.6119677 -1.4985338 -3.0517577E-07
v -1.6119677 -3.5164952 -3.0517577E-07
v -0 3.6621093E-06 -3.0517577E-07
v -1.6119677 3.6621093E-06 -3.0517577E-07
v -1.6573633 6.3799305 -3.0517577E-07
v -1.6573633 32.02503 -3.0517577E-07
v -0.06902344 32.02503 -3.0517577E-07
v -0.06902344 6.3799305 -3.0517577E-07
vt 0.7993164 -1.0849609
vt 2.4472656 -1.0849609
vt 2.4472656 -1.2744141
vt 0.7993164 -1.2744141
vt 0.6196289 -1.2744141
vt 0.6196289 -1.1113281
vt 0.7993164 -0.9301758
vt 0.6196289 -0.9301758
vt -0.27392578 -1.1113281
vt -0.27392578 -0.9301758
vt -0.89208984 -0.8144531
vt -0.89208984 -1
vt -1.2978516 -0.8144531
vt -1.2978516 -1
vt -1.4433594 -0.8144531
vt -1.4433594 -1
vt -1.2978516 -0.67626953
vt -1.4433594 -0.67626953
vt -1.4482422 -0.08856201
vt -1.4482422 2.2734375
vt -1.3046875 2.2734375
vt -1.3046875 -0.08856201
vn -0 0 1
vn -0 0 1
vn -0 0 1
vn -0 0 1
vn -0 0 1
vn -0 0 1
vn -0 0 1
vn -0 0 1
vn -0 0 1
vn -0 0 1
vn -0 0 1
vn -0 0 1
vn -0 0 1
vn -0 0 1
vn -0 0 1
vn -0 0 1
vn -0 0 1
vn -0 0 1
vn -0 0 1
vn -0 0 1
vn -0 0 1
vn -0 0 1
g Bg_School_Water_SidePlan_0
f 3/3/3 2/2/2 1/1/1
f 4/4/4 3/3/3 1/1/1
f 4/4/4 1/1/1 5/5/5
f 1/1/1 6/6/6 5/5/5
f 1/1/1 7/7/7 6/6/6
f 7/7/7 8/8/8 6/6/6
f 9/9/9 6/6/6 8/8/8
f 10/10/10 9/9/9 8/8/8
f 9/9/9 10/10/10 11/11/11
f 12/12/12 9/9/9 11/11/11
f 12/12/12 11/11/11 13/13/13
f 14/14/14 12/12/12 13/13/13
f 14/14/14 13/13/13 15/15/15
f 16/16/16 14/14/14 15/15/15
f 13/13/13 17/17/17 15/15/15
f 17/17/17 18/18/18 15/15/15
f 21/21/21 20/20/20 19/19/19
f 22/22/22 21/21/21 19/19/19
