g School_STR_Base_01_Position
v 0.6123901 -2.696118 3.0017583
v -9.3876095 -2.696118 3.0017583
v -9.3876095 0.103881836 3.0017583
v 0.6123901 0.103881836 3.0017583
v -0.19937134 -6.7169237 3.0017583
v -10.199371 -6.7169237 3.0017583
v -10.199371 -3.9169238 3.0017583
v -0.19937134 -3.9169238 3.0017583
v -12.067327 -28.685425 3.0017583
v -12.457011 -25.912672 3.0017583
v -2.554331 -24.520943 3.0017583
v -2.164646 -27.293694 3.0017583
v 2.6757762 -16.031446 3.0017583
v -3.1197796 -14.478531 3.0017583
v -2.498613 -12.16031 3.0017583
v 3.2969408 -13.713223 3.0017583
v -7.291349 -19.105988 3.0017583
v -12.191349 -19.105988 3.0017583
v -12.191349 -13.1059885 3.0017583
v -7.291349 -13.1059885 3.0017583
vt 4.0859375 8.125
vt 0.9589844 8.125
vt 0.9589844 9
vt 4.0859375 9
vt 3.8300781 6.8632812
vt 0.7055664 6.8632812
vt 0.7055664 7.7382812
vt 3.8300781 7.7382812
vt 0.12176514 0
vt 0 0.8666992
vt 3.09375 1.3017578
vt 3.2167969 0.43481445
vt 4.7304688 3.9550781
vt 2.9179688 4.4414062
vt 3.1113281 5.1640625
vt 4.921875 4.6796875
vt 1.6142578 2.9941406
vt 0.08300781 2.9941406
vt 0.08300781 4.8671875
vt 1.6142578 4.8671875
vn -0 0 1
vn -0 0 1
vn -0 0 1
vn -0 0 1
vn -0 0 1
vn -0 0 1
vn -0 0 1
vn -0 0 1
vn -0 0 1
vn -0 0 1
vn -0 0 1
vn -0 0 1
vn -0 0 1
vn -0 0 1
vn -0 0 1
vn -0 0 1
vn -0 0 1
vn -0 0 1
vn -0 0 1
vn -0 0 1
g School_STR_Base_01_Position_0
f 3/3/3 2/2/2 1/1/1
f 1/1/1 4/4/4 3/3/3
f 7/7/7 6/6/6 5/5/5
f 5/5/5 8/8/8 7/7/7
f 11/11/11 10/10/10 9/9/9
f 9/9/9 12/12/12 11/11/11
f 15/15/15 14/14/14 13/13/13
f 13/13/13 16/16/16 15/15/15
f 19/19/19 18/18/18 17/17/17
f 17/17/17 20/20/20 19/19/19
