g School_STR_Watertaps_01_Water
v 1.0244768 0.073140256 0.8973975
v 1.3004037 1.3716198 0.8973975
v 1.3004037 0.073140256 0.8973975
v 1.0244768 1.3716198 0.8973975
v 0.74854976 0.073140256 0.8973975
v 1.3004037 2.6700995 0.8973975
v 0.74854976 1.3716198 0.8973975
v 0.47262287 0.073140256 0.8973975
v 1.0244768 2.6700995 0.8973975
v 1.3004037 3.968579 0.8973975
v 0.47262287 1.3716198 0.8973975
v 0.19669594 0.073140256 0.8973975
v 0.19669594 1.3716198 0.8973975
v 0.74854976 2.6700995 0.8973975
v 1.0244768 3.968579 0.8973975
v 1.3004037 5.2670584 0.8973975
v 1.0244768 5.2670584 0.8973975
v 0.47262287 2.6700995 0.8973975
v 0.19669594 2.6700995 0.8973975
v 0.74854976 3.968579 0.8973975
v 0.74854976 5.2670584 0.8973975
v 0.47262287 3.968579 0.8973975
v 0.19669594 3.968579 0.8973975
v 0.47262287 5.2670584 0.8973975
v 0.19669594 5.2670584 0.8973975
vt -0.18725586 0.42114258
vt 0.15637207 0.3425293
vt -0.18725586 0.3425293
vt 0.15637207 0.42114258
vt -0.18725586 0.5
vt 0.5 0.3425293
vt 0.15637207 0.5
vt -0.18725586 0.5786133
vt 0.5 0.42114258
vt 0.84375 0.3425293
vt 0.15637207 0.5786133
vt -0.18725586 0.65771484
vt 0.15637207 0.65771484
vt 0.5 0.5
vt 0.84375 0.42114258
vt 1.1875 0.3425293
vt 1.1875 0.42114258
vt 0.5 0.5786133
vt 0.5 0.65771484
vt 0.84375 0.5
vt 1.1875 0.5
vt 0.84375 0.5786133
vt 0.84375 0.65771484
vt 1.1875 0.5786133
vt 1.1875 0.65771484
vn -0 0 1
vn -0 0 1
vn -0 0 1
vn -0 0 1
vn -0 0 1
vn -0 0 1
vn -0 0 1
vn -0 0 1
vn -0 0 1
vn -0 0 1
vn -0 0 1
vn -0 0 1
vn -0 0 1
vn -0 0 1
vn -0 0 1
vn -0 0 1
vn -0 0 1
vn -0 0 1
vn -0 0 1
vn -0 0 1
vn -0 0 1
vn -0 0 1
vn -0 0 1
vn -0 0 1
vn -0 0 1
g School_STR_Watertaps_01_Water_0
f 3/3/3 2/2/2 1/1/1
f 2/2/2 4/4/4 1/1/1
f 1/1/1 4/4/4 5/5/5
f 2/2/2 6/6/6 4/4/4
f 4/4/4 7/7/7 5/5/5
f 5/5/5 7/7/7 8/8/8
f 6/6/6 9/9/9 4/4/4
f 4/4/4 9/9/9 7/7/7
f 6/6/6 10/10/10 9/9/9
f 7/7/7 11/11/11 8/8/8
f 8/8/8 11/11/11 12/12/12
f 11/11/11 13/13/13 12/12/12
f 9/9/9 14/14/14 7/7/7
f 7/7/7 14/14/14 11/11/11
f 10/10/10 15/15/15 9/9/9
f 9/9/9 15/15/15 14/14/14
f 10/10/10 16/16/16 15/15/15
f 16/16/16 17/17/17 15/15/15
f 11/11/11 18/18/18 13/13/13
f 14/14/14 18/18/18 11/11/11
f 18/18/18 19/19/19 13/13/13
f 15/15/15 20/20/20 14/14/14
f 15/15/15 17/17/17 20/20/20
f 14/14/14 20/20/20 18/18/18
f 17/17/17 21/21/21 20/20/20
f 18/18/18 22/22/22 19/19/19
f 20/20/20 22/22/22 18/18/18
f 20/20/20 21/21/21 22/22/22
f 22/22/22 23/23/23 19/19/19
f 21/21/21 24/24/24 22/22/22
f 22/22/22 24/24/24 23/23/23
f 24/24/24 25/25/25 23/23/23
