g School_STR_RegionBorder_04
v -32.30002 25.8 3.0117524
v -32.50002 25.8 3.0117524
v -32.50002 28.599998 3.0117524
v -32.30002 28.599998 3.0117524
v -32.30002 25.8 3.0117524
v -32.30002 25.8 3.0017521
v -32.50002 25.8 3.0017521
v -32.50002 25.8 3.0117524
v -32.50002 28.599998 3.0017521
v -32.30002 28.599998 3.0017521
v -32.30002 28.599998 3.0117524
v -32.50002 28.599998 3.0117524
vt -12.9765625 -19.046875
vt -12.9765625 -19
vt -12.2734375 -19
vt -12.2734375 -19.046875
vt -12.9765625 -19.046875
vt -12.9765625 -19.046875
vt -12.9765625 -19
vt -12.9765625 -19
vt -12.2734375 -19
vt -12.2734375 -19.046875
vt -12.2734375 -19.046875
vt -12.2734375 -19
vn -0 0 1
vn -0 0 1
vn -0 0 1
vn -0 0 1
vn -0 -1 0
vn -0 -1 0
vn -0 -1 0
vn -0 -1 0
vn -0 1 0
vn -0 1 0
vn -0 1 0
vn -0 1 0
g School_STR_RegionBorder_04_0
f 3/3/3 2/2/2 1/1/1
f 4/4/4 3/3/3 1/1/1
f 7/7/7 6/6/6 5/5/5
f 8/8/8 7/7/7 5/5/5
f 11/11/11 10/10/10 9/9/9
f 12/12/12 11/11/11 9/9/9
