g School_STR_RegionBorder_01
v 32.49998 -34.399994 3.0117524
v 32.29998 -34.399994 3.0117524
v 32.39998 -34.399994 3.0117524
v 32.29998 -29.599995 3.0117524
v 32.49998 -29.599995 3.0117524
v 32.39998 -29.599995 3.0117524
v 32.49998 -34.399994 3.0117524
v 32.39998 -29.599995 3.0117524
v 32.49998 -29.599995 3.0117524
v 32.39998 -34.399994 3.0117524
v 32.29998 -29.599995 3.0117524
v 32.29998 -34.399994 3.0117524
v 32.39998 -34.399994 3.0017521
v 32.49998 -34.399994 3.0117524
v 32.49998 -34.399994 3.0017521
v 32.29998 -34.399994 3.0117524
v 32.29998 -34.399994 3.0017521
v 32.49998 -29.599995 3.0117524
v 32.39998 -29.599995 3.0017521
v 32.49998 -29.599995 3.0017521
v 32.29998 -29.599995 3.0117524
v 32.29998 -29.599995 3.0017521
vt -1.5009766 20
vt -1.5009766 19.953125
vt -1.5009766 19.96875
vt -2.7011719 19.953125
vt -2.7011719 20
vt -2.7011719 19.96875
vt -1.5009766 20
vt -2.7011719 19.96875
vt -2.7011719 20
vt -1.5009766 19.96875
vt -2.7011719 19.953125
vt -1.5009766 19.953125
vt -1.4990234 19.96875
vt -1.5009766 20
vt -1.4990234 20
vt -1.5009766 19.953125
vt -1.4990234 19.953125
vt -2.7011719 20
vt -2.703125 19.96875
vt -2.703125 20
vt -2.7011719 19.953125
vt -2.703125 19.953125
vn -0 -1 0
vn -0 -1 0
vn -0 -1 0
vn -0 1 0
vn -0 1 0
vn -0 1 0
vn -0 0 1
vn -0 0 1
vn -0 0 1
vn -0 0 1
vn -0 0 1
vn -0 0 1
vn -0 -1 0
vn -0 -1 0
vn -0 -1 0
vn -0 -1 0
vn -0 -1 0
vn -0 1 0
vn -0 1 0
vn -0 1 0
vn -0 1 0
vn -0 1 0
g School_STR_RegionBorder_01_0
f 3/3/3 2/2/2 1/1/1
f 6/6/6 5/5/5 4/4/4
f 9/9/9 8/8/8 7/7/7
f 7/7/7 8/8/8 10/10/10
f 8/8/8 11/11/11 10/10/10
f 11/11/11 12/12/12 10/10/10
f 15/15/15 14/14/14 13/13/13
f 14/14/14 16/16/16 13/13/13
f 16/16/16 17/17/17 13/13/13
f 20/20/20 19/19/19 18/18/18
f 18/18/18 19/19/19 21/21/21
f 19/19/19 22/22/22 21/21/21
