g School_STR_RegionBorder_05
v -20.300018 -29.999994 3.008236
v -20.50002 -29.999994 3.008236
v -20.50002 -23.799995 3.008236
v -20.300018 -23.799995 3.008236
v -20.50002 -23.799995 3.008236
v -20.50002 -23.799995 2.998236
v -20.300018 -23.799995 2.998236
v -20.300018 -23.799995 3.008236
v -20.300018 -29.999994 2.998236
v -20.50002 -29.999994 2.998236
v -20.50002 -29.999994 3.008236
v -20.300018 -29.999994 3.008236
vt -29.625 -22.046875
vt -29.625 -22
vt -28.078125 -22
vt -28.078125 -22.046875
vt -28.078125 -22
vt -28.078125 -22
vt -28.078125 -22.046875
vt -28.078125 -22.046875
vt -29.625 -22.046875
vt -29.625 -22
vt -29.625 -22
vt -29.625 -22.046875
vn -0 0 1
vn -0 0 1
vn -0 0 1
vn -0 0 1
vn -0 1 0
vn -0 1 0
vn -0 1 0
vn -0 1 0
vn -0 -1 0
vn -0 -1 0
vn -0 -1 0
vn -0 -1 0
g School_STR_RegionBorder_05_0
f 3/3/3 2/2/2 1/1/1
f 4/4/4 3/3/3 1/1/1
f 7/7/7 6/6/6 5/5/5
f 8/8/8 7/7/7 5/5/5
f 11/11/11 10/10/10 9/9/9
f 12/12/12 11/11/11 9/9/9
