g School_STR_House_01_Door_03
v 12.773222 0.75999755 -0.45
v 11.8975 0.75999755 -0.45
v 11.8975 0.75999755 -0.84999996
v 12.773222 0.75999755 -0.84999996
v 12.773222 0.73999757 -0.84999996
v 11.8975 0.73999757 -0.84999996
v 11.8975 0.73999757 -0.45
v 12.773222 0.73999757 -0.45
v 11.861875 0.75999755 -0.45
v 11.018232 0.75999755 -0.45
v 11.018232 0.75999755 -0.84999996
v 11.861875 0.75999755 -0.84999996
v 11.861875 0.73999757 -0.84999996
v 11.018232 0.73999757 -0.84999996
v 11.018232 0.73999757 -0.45
v 11.861875 0.73999757 -0.45
v 10.974999 0.75999755 -0.45
v 10.15 0.75999755 -0.45
v 10.15 0.75999755 -0.84999996
v 10.974999 0.75999755 -0.84999996
v 10.974999 0.73999757 -0.84999996
v 10.15 0.73999757 -0.84999996
v 10.15 0.73999757 -0.45
v 10.974999 0.73999757 -0.45
v 10.105875 0.75999755 -0.45
v 9.238555 0.75999755 -0.45
v 9.238555 0.75999755 -0.84999996
v 10.105875 0.75999755 -0.84999996
v 10.105875 0.73999757 -0.84999996
v 9.238555 0.73999757 -0.84999996
v 9.238555 0.73999757 -0.45
v 10.105875 0.73999757 -0.45
v 9.244492 0.62493896 -3.1999998
v 9.244582 0.62493896 -1.8125961
v 9.244673 0.87207764 -1.8125961
v 9.244673 0.87207764 -3.1999998
v 9.194673 0.62493896 -3.2001357
v 9.194673 0.62493896 -1.8125961
v 9.244582 0.62493896 -1.8125961
v 9.244492 0.62493896 -3.1999998
v 9.244673 0.87207764 -1.8125961
v 9.194673 0.87207764 -1.8125961
v 9.194673 0.87207764 -3.2001357
v 9.244673 0.87207764 -3.1999998
v 9.244673 0.62493896 -0.4501358
v 9.244673 0.87207764 -0.4501358
v 9.244673 0.87207764 -1.8125961
v 9.244582 0.62493896 -1.8125961
v 9.244673 0.87207764 -0.4501358
v 9.244673 0.62493896 -0.4501358
v 11.116389 0.62493896 -0.4501358
v 11.116389 0.87207764 -0.4501358
v 9.244673 0.62493896 -0.4501358
v 9.244582 0.62493896 -1.8125961
v 9.194673 0.62493896 -1.8125961
v 9.194673 0.62493896 -0.4001358
v 9.244673 0.87207764 -0.4501358
v 9.194673 0.87207764 -0.4001358
v 9.194673 0.87207764 -1.8125961
v 9.244673 0.87207764 -1.8125961
v 12.76563 0.8720752 -0.45015898
v 12.815627 0.8720752 -0.400159
v 11.116389 0.87207764 -0.4001358
v 11.116389 0.87207764 -0.4501358
v 12.76563 0.8720752 -0.45015898
v 11.116389 0.87207764 -0.4501358
v 11.116389 0.62493896 -0.4501358
v 12.76563 0.62493896 -0.45015898
v 9.244673 0.87207764 -0.4501358
v 11.116389 0.87207764 -0.4501358
v 11.116389 0.87207764 -0.4001358
v 9.194673 0.87207764 -0.4001358
v 9.244673 0.62493896 -0.4501358
v 9.194673 0.62493896 -0.4001358
v 11.116389 0.62493896 -0.4001358
v 11.116389 0.62493896 -0.4501358
v 12.76563 0.62493896 -0.45015898
v 11.116389 0.62493896 -0.4501358
v 11.116389 0.62493896 -0.4001358
v 12.815627 0.62493896 -0.400159
v 12.765793 0.6249365 -3.200046
v 12.765613 0.8720752 -3.200046
v 12.76561 0.8720752 -1.8126422
v 12.7657 0.6249365 -1.8126422
v 12.81561 0.6249365 -3.2001817
v 12.765793 0.6249365 -3.200046
v 12.7657 0.6249365 -1.8126422
v 12.81561 0.6249365 -1.8126422
v 12.76561 0.8720752 -1.8126422
v 12.765613 0.8720752 -3.200046
v 12.81561 0.8720752 -3.2001817
v 12.81561 0.8720752 -1.8126422
v 12.76563 0.62493896 -0.45015898
v 12.7657 0.6249365 -1.8126422
v 12.76561 0.8720752 -1.8126422
v 12.76563 0.8720752 -0.45015898
v 12.76563 0.62493896 -0.45015898
v 12.815627 0.62493896 -0.400159
v 12.81561 0.6249365 -1.8126422
v 12.7657 0.6249365 -1.8126422
v 12.76563 0.8720752 -0.45015898
v 12.76561 0.8720752 -1.8126422
v 12.81561 0.8720752 -1.8126422
v 12.815627 0.8720752 -0.400159
v 11.078515 0.8485083 -3.1899998
v 11.078515 0.8485083 -3.200068
v 12.767873 0.8485083 -3.1999996
v 12.767873 0.8485083 -3.1801357
v 11.078515 0.8485083 -3.180136
v 11.078515 0.6485083 -3.180136
v 12.767873 0.6485083 -3.1801357
v 12.767873 0.6485083 -3.200045
v 11.078515 0.6485083 -3.2000227
v 12.767873 0.7985083 -3.1701357
v 11.078515 0.7985083 -3.170136
v 11.078515 0.8485083 -3.180136
v 12.767873 0.8485083 -3.1801357
v 12.767873 0.6485083 -3.1801357
v 11.078515 0.6485083 -3.180136
v 11.078515 0.69850826 -3.170136
v 12.767873 0.69850826 -3.1701357
v 12.767873 0.69850826 -3.1701357
v 11.078515 0.69850826 -3.170136
v 11.078515 0.7985083 -3.170136
v 12.767873 0.7985083 -3.1701357
v 9.206189 0.8485083 -3.1999998
v 11.078515 0.8485083 -3.200068
v 11.078515 0.8485083 -3.1899998
v 9.206189 0.8485083 -3.180136
v 11.078515 0.8485083 -3.180136
v 11.078515 0.6485083 -3.180136
v 11.078515 0.6485083 -3.2000227
v 9.206189 0.6485083 -3.2000453
v 9.206189 0.6485083 -3.180136
v 9.206189 0.7985083 -3.170136
v 9.206189 0.8485083 -3.180136
v 11.078515 0.8485083 -3.180136
v 11.078515 0.7985083 -3.170136
v 9.206189 0.6485083 -3.180136
v 9.206189 0.69850826 -3.170136
v 11.078515 0.69850826 -3.170136
v 11.078515 0.6485083 -3.180136
v 9.206189 0.69850826 -3.170136
v 9.206189 0.7985083 -3.170136
v 11.078515 0.7985083 -3.170136
v 11.078515 0.69850826 -3.170136
v 12.787443 0.81850827 -0.8501358
v 12.787443 0.6785083 -0.8501358
v 11.077932 0.6785083 -0.8501358
v 11.077932 0.81850827 -0.8501358
v 12.787443 0.6785083 -0.8501358
v 12.787443 0.6785083 -0.90013593
v 11.077932 0.6785083 -0.90013593
v 11.077932 0.6785083 -0.8501358
v 11.077932 0.6785083 -0.90013593
v 12.787443 0.6785083 -0.90013593
v 12.787443 0.81850827 -0.90013593
v 11.077932 0.81850827 -0.90013593
v 12.787443 0.81850827 -0.90013593
v 12.787443 0.81850827 -0.8501358
v 11.077932 0.81850827 -0.8501358
v 11.077932 0.81850827 -0.90013593
v 9.206216 0.81850827 -0.8501358
v 11.077932 0.81850827 -0.8501358
v 11.077932 0.6785083 -0.8501358
v 9.206216 0.6785083 -0.8501358
v 9.206216 0.6785083 -0.8501358
v 11.077932 0.6785083 -0.8501358
v 11.077932 0.6785083 -0.90013593
v 9.206216 0.6785083 -0.90013593
v 9.206216 0.6785083 -0.90013593
v 11.077932 0.6785083 -0.90013593
v 11.077932 0.81850827 -0.90013593
v 9.206216 0.81850827 -0.90013593
v 9.206216 0.81850827 -0.90013593
v 11.077932 0.81850827 -0.90013593
v 11.077932 0.81850827 -0.8501358
v 9.206216 0.81850827 -0.8501358
v 10.102859 0.7885083 -0.8501358
v 10.102859 0.7885083 -0.4501358
v 10.102859 0.7085083 -0.4501358
v 10.102859 0.7085083 -0.8501358
v 10.152859 0.7085083 -0.8501358
v 10.152859 0.7085083 -0.4501358
v 10.152859 0.7885083 -0.4501358
v 10.152859 0.7885083 -0.8501358
v 10.102859 0.7085083 -0.4501358
v 10.152859 0.7085083 -0.4501358
v 10.152859 0.7085083 -0.8501358
v 10.102859 0.7085083 -0.8501358
v 10.102859 0.7885083 -0.8501358
v 10.152859 0.7885083 -0.8501358
v 10.152859 0.7885083 -0.4501358
v 10.102859 0.7885083 -0.4501358
v 10.976101 0.7885083 -0.8501358
v 10.976101 0.7885083 -0.4501358
v 10.976101 0.7085083 -0.4501358
v 10.976101 0.7085083 -0.8501358
v 11.026101 0.7085083 -0.8501358
v 11.026101 0.7085083 -0.4501358
v 11.026101 0.7885083 -0.4501358
v 11.026101 0.7885083 -0.8501358
v 10.976101 0.7085083 -0.4501358
v 11.026101 0.7085083 -0.4501358
v 11.026101 0.7085083 -0.8501358
v 10.976101 0.7085083 -0.8501358
v 10.976101 0.7885083 -0.8501358
v 11.026101 0.7885083 -0.8501358
v 11.026101 0.7885083 -0.4501358
v 10.976101 0.7885083 -0.4501358
v 11.85322 0.7885083 -0.8501358
v 11.85322 0.7885083 -0.4501358
v 11.85322 0.7085083 -0.4501358
v 11.85322 0.7085083 -0.8501358
v 11.90322 0.7085083 -0.8501358
v 11.90322 0.7085083 -0.4501358
v 11.90322 0.7885083 -0.4501358
v 11.90322 0.7885083 -0.8501358
v 11.85322 0.7085083 -0.4501358
v 11.90322 0.7085083 -0.4501358
v 11.90322 0.7085083 -0.8501358
v 11.85322 0.7085083 -0.8501358
v 11.85322 0.7885083 -0.8501358
v 11.90322 0.7885083 -0.8501358
v 11.90322 0.7885083 -0.4501358
v 11.85322 0.7885083 -0.4501358
vt 0.003332138 0.26733398
vt 0.003332138 0.33422852
vt 0.034851074 0.33422852
vt 0.034851074 0.26733398
vt 0.034851074 0.26733398
vt 0.034851074 0.33422852
vt 0.003332138 0.33422852
vt 0.003332138 0.26733398
vt 0.003332138 0.2692871
vt 0.003332138 0.33422852
vt 0.034851074 0.33422852
vt 0.034851074 0.2692871
vt 0.034851074 0.2692871
vt 0.034851074 0.33422852
vt 0.003332138 0.33422852
vt 0.003332138 0.2692871
vt 0.003332138 0.2692871
vt 0.003332138 0.33422852
vt 0.034851074 0.33422852
vt 0.034851074 0.2692871
vt 0.034851074 0.2692871
vt 0.034851074 0.33422852
vt 0.003332138 0.33422852
vt 0.003332138 0.2692871
vt 0.003332138 0.26733398
vt 0.003332138 0.33422852
vt 0.034851074 0.33422852
vt 0.034851074 0.26733398
vt 0.034851074 0.26733398
vt 0.034851074 0.33422852
vt 0.003332138 0.33422852
vt 0.003332138 0.26733398
vt 0.35546875 0.36767578
vt 0.22888184 0.36767578
vt 0.22888184 0.38598633
vt 0.35546875 0.38598633
vt 0.35546875 0.390625
vt 0.22888184 0.390625
vt 0.22888184 0.38598633
vt 0.35546875 0.38598633
vt 0.22888184 0.38598633
vt 0.22888184 0.390625
vt 0.35546875 0.390625
vt 0.35546875 0.38598633
vt 0.23242188 0.36767578
vt 0.23242188 0.38598633
vt 0.35546875 0.38598633
vt 0.35546875 0.36767578
vt 0.23620605 0.3720703
vt 0.23620605 0.3864746
vt 0.3552246 0.3864746
vt 0.3552246 0.3720703
vt 0.23242188 0.38598633
vt 0.35546875 0.38598633
vt 0.35546875 0.390625
vt 0.22766113 0.390625
vt 0.23242188 0.38598633
vt 0.22766113 0.390625
vt 0.35546875 0.390625
vt 0.35546875 0.38598633
vt 0.23620605 0.3864746
vt 0.23327637 0.3894043
vt 0.3552246 0.3894043
vt 0.3552246 0.3864746
vt 0.23620605 0.3720703
vt 0.3552246 0.3720703
vt 0.3552246 0.3864746
vt 0.23620605 0.3864746
vt 0.23620605 0.3864746
vt 0.3552246 0.3864746
vt 0.3552246 0.3894043
vt 0.23327637 0.3894043
vt 0.23620605 0.3864746
vt 0.23327637 0.3894043
vt 0.3552246 0.3894043
vt 0.3552246 0.3864746
vt 0.23620605 0.3864746
vt 0.3552246 0.3864746
vt 0.3552246 0.3894043
vt 0.23327637 0.3894043
vt 0.35546875 0.36767578
vt 0.35546875 0.38598633
vt 0.22888184 0.38598633
vt 0.22888184 0.36767578
vt 0.35546875 0.390625
vt 0.35546875 0.38598633
vt 0.22888184 0.38598633
vt 0.22888184 0.390625
vt 0.22888184 0.38598633
vt 0.35546875 0.38598633
vt 0.35546875 0.390625
vt 0.22888184 0.390625
vt 0.23242188 0.36767578
vt 0.35546875 0.36767578
vt 0.35546875 0.38598633
vt 0.23242188 0.38598633
vt 0.23242188 0.38598633
vt 0.22766113 0.390625
vt 0.35546875 0.390625
vt 0.35546875 0.38598633
vt 0.23242188 0.38598633
vt 0.35546875 0.38598633
vt 0.35546875 0.390625
vt 0.22766113 0.390625
vt 0.32617188 0.2800293
vt 0.32617188 0.28076172
vt 0.19763184 0.28076172
vt 0.19763184 0.27954102
vt 0.32617188 0.27954102
vt 0.32617188 0.27954102
vt 0.19763184 0.27954102
vt 0.19763184 0.28076172
vt 0.32617188 0.28076172
vt 0.19763184 0.27001953
vt 0.32617188 0.27001953
vt 0.32617188 0.2668457
vt 0.19763184 0.2668457
vt 0.19763184 0.27954102
vt 0.32617188 0.27954102
vt 0.32617188 0.27612305
vt 0.19763184 0.27612305
vt 0.19763184 0.27612305
vt 0.32617188 0.27612305
vt 0.32617188 0.27001953
vt 0.19763184 0.27001953
vt 0.19763184 0.28076172
vt 0.32617188 0.28076172
vt 0.32617188 0.2800293
vt 0.19763184 0.27954102
vt 0.32617188 0.27954102
vt 0.32617188 0.27954102
vt 0.32617188 0.28076172
vt 0.19763184 0.28076172
vt 0.19763184 0.27954102
vt 0.19763184 0.27001953
vt 0.19763184 0.2668457
vt 0.32617188 0.2668457
vt 0.32617188 0.27001953
vt 0.19763184 0.27954102
vt 0.19763184 0.27612305
vt 0.32617188 0.27612305
vt 0.32617188 0.27954102
vt 0.19763184 0.27612305
vt 0.19763184 0.27001953
vt 0.32617188 0.27001953
vt 0.32617188 0.27612305
vt 0.2286377 0.37719727
vt 0.2286377 0.38598633
vt 0.35546875 0.38598633
vt 0.35546875 0.37719727
vt 0.2286377 0.38598633
vt 0.2286377 0.38916016
vt 0.35546875 0.38916016
vt 0.35546875 0.38598633
vt 0.35546875 0.37719727
vt 0.2286377 0.37719727
vt 0.2286377 0.38598633
vt 0.35546875 0.38598633
vt 0.2286377 0.38598633
vt 0.2286377 0.38916016
vt 0.35546875 0.38916016
vt 0.35546875 0.38598633
vt 0.35546875 0.37719727
vt 0.2286377 0.37719727
vt 0.2286377 0.38598633
vt 0.35546875 0.38598633
vt 0.35546875 0.38598633
vt 0.2286377 0.38598633
vt 0.2286377 0.38916016
vt 0.35546875 0.38916016
vt 0.35546875 0.37719727
vt 0.2286377 0.37719727
vt 0.2286377 0.38598633
vt 0.35546875 0.38598633
vt 0.35546875 0.38598633
vt 0.2286377 0.38598633
vt 0.2286377 0.38916016
vt 0.35546875 0.38916016
vt 0.27001953 0.3779297
vt 0.22924805 0.3779297
vt 0.22924805 0.38598633
vt 0.27001953 0.38598633
vt 0.27001953 0.3779297
vt 0.22924805 0.3779297
vt 0.22924805 0.38598633
vt 0.27001953 0.38598633
vt 0.22924805 0.38598633
vt 0.22924805 0.39111328
vt 0.27001953 0.39111328
vt 0.27001953 0.38598633
vt 0.27001953 0.39111328
vt 0.27001953 0.38598633
vt 0.22924805 0.38598633
vt 0.22924805 0.39111328
vt 0.27001953 0.3779297
vt 0.22924805 0.3779297
vt 0.22924805 0.38598633
vt 0.27001953 0.38598633
vt 0.27001953 0.3779297
vt 0.22924805 0.3779297
vt 0.22924805 0.38598633
vt 0.27001953 0.38598633
vt 0.22924805 0.38598633
vt 0.22924805 0.39111328
vt 0.27001953 0.39111328
vt 0.27001953 0.38598633
vt 0.27001953 0.39111328
vt 0.27001953 0.38598633
vt 0.22924805 0.38598633
vt 0.22924805 0.39111328
vt 0.27001953 0.3779297
vt 0.22924805 0.3779297
vt 0.22924805 0.38598633
vt 0.27001953 0.38598633
vt 0.27001953 0.3779297
vt 0.22924805 0.3779297
vt 0.22924805 0.38598633
vt 0.27001953 0.38598633
vt 0.22924805 0.38598633
vt 0.22924805 0.39111328
vt 0.27001953 0.39111328
vt 0.27001953 0.38598633
vt 0.27001953 0.39111328
vt 0.27001953 0.38598633
vt 0.22924805 0.38598633
vt 0.22924805 0.39111328
vn -0 1 0
vn -0 1 0
vn -0 1 0
vn -0 1 0
vn -0 -1 0
vn -0 -1 0
vn -0 -1 0
vn -0 -1 0
vn -0 1 0
vn -0 1 0
vn -0 1 0
vn -0 1 0
vn -0 -1 0
vn -0 -1 0
vn -0 -1 0
vn -0 -1 0
vn -0 1 0
vn -0 1 0
vn -0 1 0
vn -0 1 0
vn -0 -1 0
vn -0 -1 0
vn -0 -1 0
vn -0 -1 0
vn -0 1 0
vn -0 1 0
vn -0 1 0
vn -0 1 0
vn -0 -1 0
vn -0 -1 0
vn -0 -1 0
vn -0 -1 0
vn 1 -0.00054836273 -3.2544136E-05
vn 1 -0.00054836273 -3.2544136E-05
vn 1 -0.00054836273 -3.2544136E-05
vn 1 -0.00054836273 -3.2544136E-05
vn -0 -1 0
vn -0 -1 0
vn -0 -1 0
vn -0 -1 0
vn -0 1 0
vn -0 1 0
vn -0 1 0
vn -0 1 0
vn 1 -0.00018274784 -3.3140182E-05
vn 1 -0.00018274784 -3.3140182E-05
vn 1 -0.00018274784 -3.3140182E-05
vn 1 -0.00018274784 -3.3140182E-05
vn -0 0 -1
vn -0 0 -1
vn -0 0 -1
vn -0 0 -1
vn -0 -1 0
vn -0 -1 0
vn -0 -1 0
vn -0 -1 0
vn -0 1 0
vn -0 1 0
vn -0 1 0
vn -0 1 0
vn 1.4305115E-06 1 -7.1525574E-07
vn 1.4305115E-06 1 -7.1525574E-07
vn 1.4305115E-06 1 -7.1525574E-07
vn 1.4305115E-06 1 -7.1525574E-07
vn -1.4066696E-05 0 -1
vn -1.4066696E-05 0 -1
vn -1.4066696E-05 0 -1
vn -1.4066696E-05 0 -1
vn -0 1 0
vn -0 1 0
vn -0 1 0
vn -0 1 0
vn -0 -1 0
vn -0 -1 0
vn -0 -1 0
vn -0 -1 0
vn -0 -1 0
vn -0 -1 0
vn -0 -1 0
vn -0 -1 0
vn -1 -0.00054836273 -3.4332275E-05
vn -1 -0.00054836273 -3.4332275E-05
vn -1 -0.00054836273 -3.4332275E-05
vn -1 -0.00054836273 -3.4332275E-05
vn -0 -1 0
vn -0 -1 0
vn -0 -1 0
vn -0 -1 0
vn -0 1 0
vn -0 1 0
vn -0 1 0
vn -0 1 0
vn -1 -0.00018274784 -1.8835068E-05
vn -1 -0.00018274784 -1.8835068E-05
vn -1 -0.00018274784 -1.8835068E-05
vn -1 -0.00018274784 -1.8835068E-05
vn -8.940697E-07 -1 1.7881393E-06
vn -8.940697E-07 -1 1.7881393E-06
vn -8.940697E-07 -1 1.7881393E-06
vn -8.940697E-07 -1 1.7881393E-06
vn -0 1 0
vn -0 1 0
vn -0 1 0
vn -0 1 0
vn -0 1 0
vn -0 1 0
vn -0 1 0
vn -0 1 0
vn -0 1 0
vn -0 -1 0
vn -0 -1 0
vn -0 -1 0
vn -0 -1 0
vn -0 0.19616699 0.98046875
vn -0 0.19616699 0.98046875
vn -0 0.19616699 0.98046875
vn -0 0.19616699 0.98046875
vn -0 -0.19616699 0.98046875
vn -0 -0.19616699 0.98046875
vn -0 -0.19616699 0.98046875
vn -0 -0.19616699 0.98046875
vn -0 0 1
vn -0 0 1
vn -0 0 1
vn -0 0 1
vn -0 1 0
vn -0 1 0
vn -0 1 0
vn -0 1 0
vn -0 1 0
vn -0 -1 0
vn -0 -1 0
vn -0 -1 0
vn -0 -1 0
vn -0 0.19616699 0.98046875
vn -0 0.19616699 0.98046875
vn -0 0.19616699 0.98046875
vn -0 0.19616699 0.98046875
vn -0 -0.19616699 0.98046875
vn -0 -0.19616699 0.98046875
vn -0 -0.19616699 0.98046875
vn -0 -0.19616699 0.98046875
vn -0 0 1
vn -0 0 1
vn -0 0 1
vn -0 0 1
vn -0 0 1
vn -0 0 1
vn -0 0 1
vn -0 0 1
vn -0 -1 0
vn -0 -1 0
vn -0 -1 0
vn -0 -1 0
vn -0 0 -1
vn -0 0 -1
vn -0 0 -1
vn -0 0 -1
vn -0 1 0
vn -0 1 0
vn -0 1 0
vn -0 1 0
vn -0 0 1
vn -0 0 1
vn -0 0 1
vn -0 0 1
vn -0 -1 0
vn -0 -1 0
vn -0 -1 0
vn -0 -1 0
vn -0 0 -1
vn -0 0 -1
vn -0 0 -1
vn -0 0 -1
vn -0 1 0
vn -0 1 0
vn -0 1 0
vn -0 1 0
vn -1 0 0
vn -1 0 0
vn -1 0 0
vn -1 0 0
vn 1 0 0
vn 1 0 0
vn 1 0 0
vn 1 0 0
vn -0 -1 0
vn -0 -1 0
vn -0 -1 0
vn -0 -1 0
vn -0 1 0
vn -0 1 0
vn -0 1 0
vn -0 1 0
vn -1 0 0
vn -1 0 0
vn -1 0 0
vn -1 0 0
vn 1 0 0
vn 1 0 0
vn 1 0 0
vn 1 0 0
vn -0 -1 0
vn -0 -1 0
vn -0 -1 0
vn -0 -1 0
vn -0 1 0
vn -0 1 0
vn -0 1 0
vn -0 1 0
vn -1 0 0
vn -1 0 0
vn -1 0 0
vn -1 0 0
vn 1 0 0
vn 1 0 0
vn 1 0 0
vn 1 0 0
vn -0 -1 0
vn -0 -1 0
vn -0 -1 0
vn -0 -1 0
vn -0 1 0
vn -0 1 0
vn -0 1 0
vn -0 1 0
g School_STR_House_01_Door_03_0
f 3/3/3 2/2/2 1/1/1
f 4/4/4 3/3/3 1/1/1
f 7/7/7 6/6/6 5/5/5
f 8/8/8 7/7/7 5/5/5
f 11/11/11 10/10/10 9/9/9
f 12/12/12 11/11/11 9/9/9
f 15/15/15 14/14/14 13/13/13
f 16/16/16 15/15/15 13/13/13
f 19/19/19 18/18/18 17/17/17
f 20/20/20 19/19/19 17/17/17
f 23/23/23 22/22/22 21/21/21
f 24/24/24 23/23/23 21/21/21
f 27/27/27 26/26/26 25/25/25
f 28/28/28 27/27/27 25/25/25
f 31/31/31 30/30/30 29/29/29
f 32/32/32 31/31/31 29/29/29
f 35/35/35 34/34/34 33/33/33
f 36/36/36 35/35/35 33/33/33
f 39/39/39 38/38/38 37/37/37
f 40/40/40 39/39/39 37/37/37
f 43/43/43 42/42/42 41/41/41
f 44/44/44 43/43/43 41/41/41
f 47/47/47 46/46/46 45/45/45
f 48/48/48 47/47/47 45/45/45
f 51/51/51 50/50/50 49/49/49
f 52/52/52 51/51/51 49/49/49
f 55/55/55 54/54/54 53/53/53
f 56/56/56 55/55/55 53/53/53
f 59/59/59 58/58/58 57/57/57
f 60/60/60 59/59/59 57/57/57
f 63/63/63 62/62/62 61/61/61
f 64/64/64 63/63/63 61/61/61
f 67/67/67 66/66/66 65/65/65
f 68/68/68 67/67/67 65/65/65
f 71/71/71 70/70/70 69/69/69
f 72/72/72 71/71/71 69/69/69
f 75/75/75 74/74/74 73/73/73
f 76/76/76 75/75/75 73/73/73
f 79/79/79 78/78/78 77/77/77
f 80/80/80 79/79/79 77/77/77
f 83/83/83 82/82/82 81/81/81
f 84/84/84 83/83/83 81/81/81
f 87/87/87 86/86/86 85/85/85
f 88/88/88 87/87/87 85/85/85
f 91/91/91 90/90/90 89/89/89
f 92/92/92 91/91/91 89/89/89
f 95/95/95 94/94/94 93/93/93
f 96/96/96 95/95/95 93/93/93
f 99/99/99 98/98/98 97/97/97
f 100/100/100 99/99/99 97/97/97
f 103/103/103 102/102/102 101/101/101
f 104/104/104 103/103/103 101/101/101
f 107/107/107 106/106/106 105/105/105
f 105/105/105 108/108/108 107/107/107
f 105/105/105 109/109/109 108/108/108
f 112/112/112 111/111/111 110/110/110
f 113/113/113 112/112/112 110/110/110
f 116/116/116 115/115/115 114/114/114
f 117/117/117 116/116/116 114/114/114
f 120/120/120 119/119/119 118/118/118
f 121/121/121 120/120/120 118/118/118
f 124/124/124 123/123/123 122/122/122
f 125/125/125 124/124/124 122/122/122
f 128/128/128 127/127/127 126/126/126
f 126/126/126 129/129/129 128/128/128
f 129/129/129 130/130/130 128/128/128
f 133/133/133 132/132/132 131/131/131
f 134/134/134 133/133/133 131/131/131
f 137/137/137 136/136/136 135/135/135
f 138/138/138 137/137/137 135/135/135
f 141/141/141 140/140/140 139/139/139
f 142/142/142 141/141/141 139/139/139
f 145/145/145 144/144/144 143/143/143
f 146/146/146 145/145/145 143/143/143
f 149/149/149 148/148/148 147/147/147
f 150/150/150 149/149/149 147/147/147
f 153/153/153 152/152/152 151/151/151
f 154/154/154 153/153/153 151/151/151
f 157/157/157 156/156/156 155/155/155
f 158/158/158 157/157/157 155/155/155
f 161/161/161 160/160/160 159/159/159
f 162/162/162 161/161/161 159/159/159
f 165/165/165 164/164/164 163/163/163
f 166/166/166 165/165/165 163/163/163
f 169/169/169 168/168/168 167/167/167
f 170/170/170 169/169/169 167/167/167
f 173/173/173 172/172/172 171/171/171
f 174/174/174 173/173/173 171/171/171
f 177/177/177 176/176/176 175/175/175
f 178/178/178 177/177/177 175/175/175
f 181/181/181 180/180/180 179/179/179
f 182/182/182 181/181/181 179/179/179
f 185/185/185 184/184/184 183/183/183
f 186/186/186 185/185/185 183/183/183
f 189/189/189 188/188/188 187/187/187
f 190/190/190 189/189/189 187/187/187
f 193/193/193 192/192/192 191/191/191
f 194/194/194 193/193/193 191/191/191
f 197/197/197 196/196/196 195/195/195
f 198/198/198 197/197/197 195/195/195
f 201/201/201 200/200/200 199/199/199
f 202/202/202 201/201/201 199/199/199
f 205/205/205 204/204/204 203/203/203
f 206/206/206 205/205/205 203/203/203
f 209/209/209 208/208/208 207/207/207
f 210/210/210 209/209/209 207/207/207
f 213/213/213 212/212/212 211/211/211
f 214/214/214 213/213/213 211/211/211
f 217/217/217 216/216/216 215/215/215
f 218/218/218 217/217/217 215/215/215
f 221/221/221 220/220/220 219/219/219
f 222/222/222 221/221/221 219/219/219
f 225/225/225 224/224/224 223/223/223
f 226/226/226 225/225/225 223/223/223
