g School_STR_RegionBorder_02
v 32.49998 7.2000046 3.0117524
v 32.29998 7.2000046 3.0117524
v 32.29998 12.000005 3.0117524
v 32.49998 12.000005 3.0117524
v 32.49998 7.2000046 3.0117524
v 32.49998 7.2000046 3.0017521
v 32.29998 7.2000046 3.0017521
v 32.29998 7.2000046 3.0117524
v 32.29998 12.000005 3.0017521
v 32.49998 12.000005 3.0017521
v 32.49998 12.000005 3.0117524
v 32.29998 12.000005 3.0117524
vt -11.8984375 20
vt -11.8984375 19.953125
vt -13.1015625 19.953125
vt -13.1015625 20
vt -11.8984375 20
vt -11.8984375 20
vt -11.8984375 19.953125
vt -11.8984375 19.953125
vt -13.1015625 19.953125
vt -13.1015625 20
vt -13.1015625 20
vt -13.1015625 19.953125
vn -0 0 1
vn -0 0 1
vn -0 0 1
vn -0 0 1
vn -0 -1 0
vn -0 -1 0
vn -0 -1 0
vn -0 -1 0
vn -0 1 0
vn -0 1 0
vn -0 1 0
vn -0 1 0
g School_STR_RegionBorder_02_0
f 3/3/3 2/2/2 1/1/1
f 4/4/4 3/3/3 1/1/1
f 7/7/7 6/6/6 5/5/5
f 8/8/8 7/7/7 5/5/5
f 11/11/11 10/10/10 9/9/9
f 12/12/12 11/11/11 9/9/9
