g School_STR_RegionBorder_03
v 5.7999997 36.80001 3.0117524
v 0.39999998 36.80001 3.0117524
v 0.39999998 37.000008 3.0117524
v 5.7999997 37.000008 3.0117524
v 5.7999997 37.000008 3.0017521
v 5.7999997 36.80001 3.0017521
v 5.7999997 36.80001 3.0117524
v 5.7999997 37.000008 3.0117524
v 0.39999998 37.000008 3.0117524
v 0.39999998 36.80001 3.0117524
v 0.39999998 36.80001 3.0017521
v 0.39999998 37.000008 3.0017521
vt 9.3515625 24.953125
vt 8 24.953125
vt 8 25
vt 9.3515625 25
vt 9.3515625 25
vt 9.3515625 24.953125
vt 9.3515625 24.953125
vt 9.3515625 25
vt 8 25
vt 8 24.953125
vt 7.9960938 24.953125
vt 7.9960938 25
vn -0 0 1
vn -0 0 1
vn -0 0 1
vn -0 0 1
vn 1 0 0
vn 1 0 0
vn 1 0 0
vn 1 0 0
vn -1 0 0
vn -1 0 0
vn -1 0 0
vn -1 0 0
g School_STR_RegionBorder_03_0
f 3/3/3 2/2/2 1/1/1
f 4/4/4 3/3/3 1/1/1
f 7/7/7 6/6/6 5/5/5
f 8/8/8 7/7/7 5/5/5
f 11/11/11 10/10/10 9/9/9
f 12/12/12 11/11/11 9/9/9
