g Bg_Sandy_Beach_STR_Base_NaviCol
v 26.161161 49.914665 3.5212219
v 18.928223 43.319874 1.7729309
v 18.678564 49.914665 2.6410804
v 30.599997 46.960842 3.6999986
v 32.921726 40.168777 3.6999986
v 21.890585 33.45225 0.22029907
v 29.489288 21.781504 -0.87626827
v 41.95934 29.09531 3.2999988
v 36.48364 12.817224 -1.0951159
v 51.116875 18.683002 3.2999988
v 44.177036 6.4918156 -1.3139611
v 53.18907 2.0682056 -1.0951159
v 65.408966 13.982995 3.2999988
v 62.201103 0.044594724 -0.87626827
v 71.592415 13.944914 3.2999988
v 71.10194 -0.9132934 -0.7814453
v 81.24219 -1.1834424 -0.87626827
v 77.61658 14.1672535 3.2999988
v 84.85576 14.649202 3.2999988
v 89.54535 15.139632 3.2999988
v 92.009315 -0.37722534 -0.9387976
v 94.91917 15.286894 3.7499988
v 102.65158 0.6304468 -0.87626827
v 103.03241 14.466237 3.2999988
v 111.96115 12 2.3949401
v 111.96115 14.760844 3.2999988
v 112.62572 0.5906909 -0.8860693
v 130.96117 12 2.3949401
v 130.96115 1.7608459 0.79999876
vt 0.07849121 0.81640625
vt 0.059661865 0.7270508
vt 0.03265381 0.7861328
vt 0.12854004 0.8208008
vt 0.1697998 0.78222656
vt 0.13598633 0.67041016
vt 0.20532227 0.62402344
vt 0.28173828 0.7026367
vt 0.28808594 0.5942383
vt 0.39575195 0.6635742
vt 0.36499023 0.5761719
vt 0.42504883 0.55078125
vt 0.48632812 0.64697266
vt 0.48095703 0.53759766
vt 0.54833984 0.64697266
vt 0.5419922 0.53466797
vt 0.61621094 0.5317383
vt 0.59277344 0.6479492
vt 0.6381836 0.6508789
vt 0.67578125 0.6538086
vt 0.6953125 0.5361328
vt 0.7265625 0.65478516
vt 0.77246094 0.5410156
vt 0.7792969 0.6464844
vt 0.84375 0.6254883
vt 0.8442383 0.64746094
vt 0.84472656 0.53808594
vt 0.9824219 0.61865234
vt 0.9785156 0.54296875
vn -0.11956787 -0.12976074 0.984375
vn -0.14575195 -0.13757324 0.9794922
vn -0.11956787 -0.12976074 0.984375
vn -0.14990234 -0.13879395 0.9790039
vn -0.17883301 -0.17285156 0.96875
vn -0.18041992 -0.17651367 0.96777344
vn -0.20129395 -0.19580078 0.95996094
vn -0.20288086 -0.19470215 0.95947266
vn -0.20129395 -0.2130127 0.9560547
vn -0.15966797 -0.23840332 0.9580078
vn -0.14709473 -0.26171875 0.95410156
vn -0.103271484 -0.26757812 0.9580078
vn -0.062469482 -0.2705078 0.9604492
vn -0.05508423 -0.2705078 0.9609375
vn -0.009162903 -0.26782227 0.9633789
vn -0.009277344 -0.26782227 0.9633789
vn 0.015457153 -0.26123047 0.96533203
vn 0.010375977 -0.26123047 0.96533203
vn 0.022277832 -0.25952148 0.96533203
vn -0.021102905 -0.2668457 0.9633789
vn 0.014060974 -0.27416992 0.9614258
vn -0.020462036 -0.28295898 0.9589844
vn 0.016067505 -0.28686523 0.9580078
vn 0.015960693 -0.28930664 0.95703125
vn -0.005531311 -0.2709961 0.96240234
vn 0.010276794 -0.31152344 0.9501953
vn -0.014350891 -0.25170898 0.96777344
vn -0.037109375 -0.22070312 0.9746094
vn -0.037109375 -0.22070312 0.9746094
g Bg_Sandy_Beach_STR_Base_NaviCol_0
f 3/3/3 2/2/2 1/1/1
f 2/2/2 4/4/4 1/1/1
f 4/4/4 2/2/2 5/5/5
f 2/2/2 6/6/6 5/5/5
f 6/6/6 7/7/7 5/5/5
f 7/7/7 8/8/8 5/5/5
f 7/7/7 9/9/9 8/8/8
f 9/9/9 10/10/10 8/8/8
f 9/9/9 11/11/11 10/10/10
f 11/11/11 12/12/12 10/10/10
f 12/12/12 13/13/13 10/10/10
f 12/12/12 14/14/14 13/13/13
f 13/13/13 14/14/14 15/15/15
f 14/14/14 16/16/16 15/15/15
f 15/15/15 16/16/16 17/17/17
f 18/18/18 15/15/15 17/17/17
f 18/18/18 17/17/17 19/19/19
f 19/19/19 17/17/17 20/20/20
f 17/17/17 21/21/21 20/20/20
f 20/20/20 21/21/21 22/22/22
f 21/21/21 23/23/23 22/22/22
f 23/23/23 24/24/24 22/22/22
f 24/24/24 23/23/23 25/25/25
f 24/24/24 25/25/25 26/26/26
f 23/23/23 27/27/27 25/25/25
f 25/25/25 27/27/27 28/28/28
f 27/27/27 29/29/29 28/28/28
