g Bg_Sandy_Beach_STR_Base_RegionBorder_03
v 0.19999999 3.01 0
v -0 3.01 1.4438228E-15
v -0 8.99 1.4438228E-15
v 0.19999999 8.99 0
v 6.930349E-14 2.3101165E-14 0.19999999
v -0 3.01 0.19999999
v 0.19999999 3.01 0.19999999
v 0.19999999 0 0.19999999
v 0.19999999 8.99 0.19999999
v 0.19999999 8.99 0
v -0 8.99 1.4438228E-15
v -0 8.99 0.19999999
v 0.19999999 8.99 0.19999999
v -0 8.99 0.19999999
v 2.3101165E-14 11 0.19999999
v 0.19999999 11 0.19999999
v -0 3.01 1.4438228E-15
v 0.19999999 3.01 0
v 0.19999999 3.01 0.19999999
v -0 3.01 0.19999999
v 2.3101165E-14 11 0.19
v 0.19999999 11 0.19
v 0.19999999 11 0.19999999
v 2.3101165E-14 11 0.19999999
vt -24.421875 -87
vt -24.421875 -87.0625
vt -25.90625 -87.0625
vt -25.90625 -87
vt -23.65625 -87.0625
vt -24.421875 -87.0625
vt -24.421875 -87
vt -23.65625 -87
vt -25.71875 -88
vt -25.671875 -88
vt -25.671875 -88.0625
vt -25.71875 -88.0625
vt -25.71875 -88
vt -25.71875 -88.0625
vt -26.21875 -88.0625
vt -26.21875 -88
vt -24.46875 -87.0625
vt -24.46875 -87
vt -24.40625 -87
vt -24.40625 -87.0625
vt -26.234375 -88.0625
vt -26.234375 -88
vt -26.21875 -88
vt -26.21875 -88.0625
vn -0 0 1
vn -0 0 1
vn -0 0 1
vn -0 0 1
vn -0 0 1
vn -0 0 1
vn -0 0 1
vn -0 0 1
vn -0 -1 0
vn -0 -1 0
vn -0 -1 0
vn -0 -1 0
vn -0 0 1
vn -0 0 1
vn -0 0 1
vn -0 0 1
vn -0 1 0
vn -0 1 0
vn -0 1 0
vn -0 1 0
vn -0 1 0
vn -0 1 0
vn -0 1 0
vn -0 1 0
g Bg_Sandy_Beach_STR_Base_RegionBorder_03_0
f 3/3/3 2/2/2 1/1/1
f 4/4/4 3/3/3 1/1/1
f 7/7/7 6/6/6 5/5/5
f 8/8/8 7/7/7 5/5/5
f 11/11/11 10/10/10 9/9/9
f 12/12/12 11/11/11 9/9/9
f 15/15/15 14/14/14 13/13/13
f 16/16/16 15/15/15 13/13/13
f 19/19/19 18/18/18 17/17/17
f 20/20/20 19/19/19 17/17/17
f 23/23/23 22/22/22 21/21/21
f 24/24/24 23/23/23 21/21/21
