g Rock_D_03
v -0.053289935 0.07144258 -0.9670717
v 0.55167854 0.07144254 -0.8933676
v 0.9500043 0.07144239 -0.09158275
v 0.3842635 0.071442276 0.7890422
v -0.5065373 0.0714423 0.9470964
v -1.0228696 0.071442515 -0.23704989
v -0.042945743 0.78783286 -0.85970587
v -0.9105341 0.6954283 -0.2159849
v -0.44979694 0.87007993 0.8346844
v 0.33653587 0.78512996 0.6997787
v 0.829146 0.51783407 -0.07544813
v 0.49040824 0.7339941 -0.7908132
v 0.0406995 -0.27034172 -0.06807814
v 0.55167854 0.07144254 -0.8933676
v 0.9500043 0.07144239 -0.09158275
v 0.3842635 0.071442276 0.7890422
v -0.5065373 0.0714423 0.9470964
vt 0.84472656 0.15405273
vt 0.8876953 0.18811035
vt 0.9633789 0.1685791
vt 0.9941406 0.0803833
vt 0.9428711 0.012565613
vt 0.83154297 0.05734253
vt 0.875 0.13208008
vt 0.85498047 0.07318115
vt 0.9272461 0.052886963
vt 0.9536133 0.085754395
vt 0.94384766 0.14465332
vt 0.89697266 0.15039062
vt 0.78515625 0.12609863
vt 0.81884766 0.19055176
vt 0.75390625 0.18652344
vt 0.71972656 0.11779785
vt 0.7416992 0.056854248
vn -0.22045898 -0.44677734 -0.8671875
vn 0.5283203 -0.4267578 -0.7338867
vn 0.92089844 -0.3876953 0.037322998
vn 0.49560547 -0.4465332 0.7451172
vn -0.4255371 -0.43945312 0.7910156
vn -0.8769531 -0.4255371 -0.22265625
vn -0.1673584 0.69384766 -0.7006836
vn -0.7841797 0.57958984 -0.2211914
vn -0.3486328 0.6870117 0.6376953
vn 0.47631836 0.66259766 0.578125
vn 0.8691406 0.49121094 0.060028076
vn 0.49951172 0.6508789 -0.57177734
vn 0.020568848 -0.9995117 -0.012496948
vn 0.5283203 -0.4267578 -0.7338867
vn 0.92089844 -0.3876953 0.037322998
vn 0.49560547 -0.4465332 0.7451172
vn -0.4255371 -0.43945312 0.7910156
g Rock_D_03_0
f 11/11/11 4/4/4 3/3/3
f 2/2/2 11/11/11 3/3/3
f 11/11/11 10/10/10 4/4/4
f 10/10/10 5/5/5 4/4/4
f 2/2/2 12/12/12 11/11/11
f 11/11/11 12/12/12 10/10/10
f 1/1/1 12/12/12 2/2/2
f 10/10/10 12/12/12 7/7/7
f 1/1/1 7/7/7 12/12/12
f 10/10/10 9/9/9 5/5/5
f 10/10/10 7/7/7 9/9/9
f 5/5/5 9/9/9 8/8/8
f 9/9/9 7/7/7 8/8/8
f 8/8/8 7/7/7 1/1/1
f 5/5/5 8/8/8 6/6/6
f 8/8/8 1/1/1 6/6/6
f 1/1/1 13/13/13 6/6/6
f 6/6/6 13/13/13 17/17/17
f 14/14/14 13/13/13 1/1/1
f 17/17/17 13/13/13 16/16/16
f 15/15/15 13/13/13 14/14/14
f 16/16/16 13/13/13 15/15/15
