g Rock_H_02
v -1.3182313 1.0841745 0.68526953
v 0.7958866 -0.10042269 0.9701811
v -0.1994131 0.3708283 1.488526
v 0.35297874 1.3001449 -0.7390162
v -1.316895 -0.259776 -0.033549365
v -1.3061705 1.070968 -0.47129154
v 0.27821475 0.93607855 1.2528034
v 0.99883604 -0.02347027 -0.20120439
v 0.73618275 0.9670218 -0.8928559
v -0.14843886 0.9319089 -1.2796448
v -0.59812397 0.1654724 1.2904994
v -1.3933728 0.23639089 -0.9908031
v -0.8260793 0.027801372 -1.1533566
v 0.8042691 -0.12203815 1.2909518
v 0.9912698 1.1578383 0.3490297
v 1.3057394 0.6681713 0.5650854
v -0.8112248 -0.25900593 0.61915547
v -0.5712284 1.1091826 0.9337823
v 1.025208 0.17224829 -0.7943397
v -1.2606015 -0.11867953 0.73923147
v 1.4514241 0.8313842 -0.49354705
v -1.5893838 0.08381359 -0.006385954
v 0.92562145 1.0494992 -0.62563455
v -0.772041 0.70025265 1.0479709
v -0.26521742 0.17616627 -1.2991098
v 1.2426711 0.85992885 0.8110481
v -1.1495509 0.5101822 -1.3266832
v 0.06708504 -0.28034478 1.1209946
v -0.31495494 1.2403934 -0.63509357
v 0.92109996 -0.08375411 0.27601293
v 0.09520811 1.2092295 0.38701576
v 1.2457445 0.15106302 0.38476172
v -1.033541 0.41538787 1.1654148
v 1.2099273 -0.063640326 0.86444235
v -0.16209987 1.0830086 0.95016134
v -0.097364224 -0.011258403 -0.45353785
v -0.5991663 1.2475514 -0.2748492
v 0.8265408 0.32821763 1.3925722
v 0.21221626 -0.011732565 -0.9390142
v -1.2180394 0.45304942 0.8889442
v -0.43203714 0.49868244 1.4493909
v 0.8290228 0.331104 -1.0531458
v -1.3786471 -0.00663421 -0.4814139
v -0.2262452 0.70611244 1.3593282
v 1.3931391 0.33230826 0.7311647
v -0.0975885 1.0086285 -0.799048
v 1.3836278 0.19585502 -0.061537154
v -0.5602009 -0.19017631 1.1667674
v 1.250004 1.0299633 0.122592494
v -0.667827 -0.055606168 -0.5911757
v 0.053544924 -0.15254927 1.358495
v 1.1934217 0.513736 1.1250945
v -0.21516605 1.2623768 0.6769374
v 0.48353744 -0.16549037 -0.5313683
v 0.9367265 0.3545406 1.1774176
v -0.74195755 0.5035236 1.2070432
v -1.4839327 0.6020201 -0.9086248
v 0.36447883 0.4607739 1.3881019
v -1.0190666 -0.20033707 0.6853586
v 0.69299585 0.9609892 -1.1234684
v -0.5251167 0.7158795 1.2314817
v 1.2090771 0.26287994 0.9729048
v -0.39692652 0.8170859 1.1563689
v -0.67100185 1.1708497 0.077266246
v 1.5177444 0.65780914 0.13027368
v -0.41515964 -0.1697404 0.47970638
v -1.2964648 0.8435961 -0.81741065
v 0.7036532 1.1326629 0.7701612
v 0.9365391 -0.052967176 -0.8916572
v -1.4476274 0.59756714 0.6494578
v 0.84988004 0.85190344 1.20757
v 0.061893824 0.5775638 -1.266934
v -0.5795706 -0.120712586 0.06379532
v -0.6283328 1.0904964 -0.3836811
v 0.7526161 -0.17717302 0.6566678
v -0.31006554 0.14074583 1.4421409
v -1.2226849 1.1404823 0.2167934
v 0.7816914 1.3374804 0.19337766
v 0.5268371 -0.035202425 -0.7080062
v 0.0062469672 0.041796636 1.4566716
v -1.1709855 0.808385 0.88939804
v -1.0576352 -0.24664316 -0.29286495
v 1.1405495 0.98841953 -0.65885764
v -1.5893838 0.08381359 -0.006385954
v -1.2606015 -0.11867953 0.73923147
v -1.0190666 -0.20033707 0.6853586
v -0.8260793 0.027801372 -1.1533566
v -1.3933728 0.23639089 -0.9908031
v -0.5602009 -0.19017631 1.1667674
v 0.92109996 -0.08375411 0.27601293
v 0.7958866 -0.10042269 0.9701811
v 0.21221626 -0.011732565 -0.9390142
v 0.8042691 -0.12203815 1.2909518
v 0.99883604 -0.02347027 -0.20120439
v 0.9365391 -0.052967176 -0.8916572
v -1.3933728 0.23639089 -0.9908031
v 0.9365391 -0.052967176 -0.8916572
v 0.7526161 -0.17717302 0.6566678
vt 0.69873047 0.4177246
vt 0.8857422 0.25439453
vt 0.7758789 0.3215332
vt 0.8066406 0.5078125
vt 0.7006836 0.12475586
vt 0.6904297 0.50146484
vt 0.8129883 0.37670898
vt 0.9560547 0.50878906
vt 0.8330078 0.52978516
vt 0.77441406 0.5571289
vt 0.7265625 0.30615234
vt 0.69433594 0.023117065
vt 0.75683594 0.020339966
vt 0.88134766 0.2866211
vt 0.84716797 0.44750977
vt 0.8886719 0.43554688
vt 0.7373047 0.19445801
vt 0.74609375 0.39892578
vt 0.90527344 0.56347656
vt 0.6245117 0.35327148
vt 0.87890625 0.50146484
vt 0.60839844 0.4494629
vt 0.84277344 0.5073242
vt 0.7236328 0.36938477
vt 0.76953125 0.6142578
vt 0.87353516 0.4194336
vt 0.6923828 0.5805664
vt 0.8120117 0.25317383
vt 0.7661133 0.50439453
vt 0.90966797 0.18603516
vt 0.79052734 0.44067383
vt 0.93603516 0.44506836
vt 0.69677734 0.3515625
vt 0.9345703 0.39990234
vt 0.7763672 0.39624023
vt 0.82128906 0.09698486
vt 0.7480469 0.48388672
vt 0.8833008 0.33862305
vt 0.8286133 0.63183594
vt 0.6738281 0.37475586
vt 0.7553711 0.33325195
vt 0.8696289 0.57373047
vt 0.6948242 0.078430176
vt 0.77246094 0.35205078
vt 0.9121094 0.42089844
vt 0.77734375 0.5239258
vt 0.9277344 0.484375
vt 0.6923828 0.28149414
vt 0.86328125 0.4621582
vt 0.7661133 0.07696533
vt 0.80566406 0.27612305
vt 0.8911133 0.3869629
vt 0.7705078 0.42016602
vt 0.87939453 0.10144043
vt 0.8911133 0.3630371
vt 0.7236328 0.3461914
vt 0.65234375 0.54541016
vt 0.8339844 0.3388672
vt 0.62646484 0.32641602
vt 0.828125 0.54296875
vt 0.74609375 0.359375
vt 0.9086914 0.39404297
vt 0.75683594 0.3696289
vt 0.7397461 0.46142578
vt 0.89501953 0.4663086
vt 0.77685547 0.18591309
vt 0.6791992 0.53222656
vt 0.8330078 0.4189453
vt 0.92822266 0.07220459
vt 0.6669922 0.40698242
vt 0.85253906 0.3881836
vt 0.79345703 0.5786133
vt 0.7680664 0.14379883
vt 0.7392578 0.49560547
vt 0.88671875 0.22216797
vt 0.7626953 0.30297852
vt 0.703125 0.45166016
vt 0.8310547 0.45581055
vt 0.88720703 0.08270264
vt 0.79785156 0.29541016
vt 0.69628906 0.39208984
vt 0.72509766 0.105041504
vt 0.8569336 0.5102539
vt 0.6621094 0.11895752
vt 0.69189453 0.19812012
vt 0.7163086 0.19665527
vt 0.7138672 0.63378906
vt 0.65283203 0.5913086
vt 0.74560547 0.2565918
vt 0.97265625 0.44677734
vt 0.9506836 0.36914062
vt 0.8598633 0.057250977
vt 0.9350586 0.3383789
vt 0.92529297 0.13977051
vt 0.89990234 0.5908203
vt 0.61572266 0.5498047
vt 0.9223633 0.5800781
vt 0.9707031 0.39868164
vn -0.6479492 0.64697266 0.40185547
vn 0.40673828 -0.87939453 0.24743652
vn -0.05847168 0.07525635 0.99560547
vn 0.023910522 0.8017578 -0.59716797
vn -0.4111328 -0.91015625 -0.051452637
vn -0.65527344 0.7207031 -0.22607422
vn 0.045043945 0.6689453 0.7416992
vn 0.44482422 -0.8881836 -0.11633301
vn 0.4716797 0.68066406 -0.5605469
vn 0.012336731 0.64697266 -0.76220703
vn -0.44750977 -0.21264648 0.86865234
vn -0.7246094 -0.4724121 -0.5019531
vn -0.16137695 -0.8041992 -0.5722656
vn 0.5541992 -0.6977539 0.45385742
vn 0.51220703 0.84228516 0.16772461
vn 0.9145508 0.32373047 0.24328613
vn -0.11364746 -0.98876953 -0.09576416
vn -0.11242676 0.6699219 0.7338867
vn 0.84521484 -0.28808594 -0.44970703
vn -0.5878906 -0.5932617 0.5498047
vn 0.84765625 0.4404297 -0.29516602
vn -0.96435547 -0.26098633 0.03994751
vn 0.33129883 0.8930664 -0.30493164
vn -0.06652832 0.39892578 0.9145508
vn 0.09375 -0.45996094 -0.8828125
vn 0.78515625 0.51708984 0.34057617
vn -0.42919922 0.13012695 -0.89404297
vn 0.066711426 -0.9770508 0.20275879
vn -0.41064453 0.66308594 -0.6254883
vn 0.32592773 -0.9428711 -0.06878662
vn -0.020980835 0.9848633 0.17236328
vn 0.6723633 -0.7397461 -0.02218628
vn -0.5395508 0.03427124 0.8413086
vn 0.59472656 -0.7265625 0.34423828
vn -0.024353027 0.82666016 0.5625
vn -0.09173584 -0.96191406 -0.25683594
vn -0.60009766 0.7866211 -0.14697266
vn 0.5341797 0.37280273 0.75878906
vn 0.072387695 -0.9145508 -0.39794922
vn -0.8251953 -0.03262329 0.56347656
vn -0.3671875 0.2529297 0.89501953
vn 0.4658203 -0.14587402 -0.8730469
vn -0.5649414 -0.7504883 -0.3425293
vn -0.15356445 0.5625 0.8125
vn 0.92578125 -0.013572693 0.37768555
vn -0.08734131 0.8496094 -0.5205078
vn 0.80078125 -0.5859375 -0.12322998
vn -0.32104492 -0.78759766 0.5258789
vn 0.8256836 0.56103516 -0.060821533
vn 0.06072998 -0.95458984 -0.29125977
vn 0.008171082 -0.7055664 0.7084961
vn 0.7246094 -0.008056641 0.68896484
vn 0.15405273 0.9584961 0.23962402
vn 0.076171875 -0.9326172 -0.3527832
vn 0.58154297 -0.16467285 0.7963867
vn -0.40039062 0.3479004 0.84765625
vn -0.88134766 0.31079102 -0.3552246
vn 0.13500977 0.22229004 0.9658203
vn -0.24597168 -0.9160156 0.31713867
vn 0.5234375 0.609375 -0.59521484
vn -0.39453125 0.58496094 0.7089844
vn 0.7402344 -0.16992188 0.6503906
vn -0.31958008 0.7573242 0.5698242
vn -0.1315918 0.99072266 -0.03982544
vn 0.9165039 0.38427734 0.11065674
vn 0.06298828 -0.9916992 -0.11303711
vn -0.5986328 0.7006836 -0.3881836
vn 0.19213867 0.9086914 0.3701172
vn 0.49780273 -0.71435547 -0.4921875
vn -0.91259766 0.007217407 0.40893555
vn 0.34594727 0.5371094 0.76953125
vn 0.17687988 -0.020339966 -0.9838867
vn 0.10534668 -0.9926758 -0.06173706
vn -0.37329102 0.85498047 -0.36035156
vn 0.3400879 -0.9404297 -0.0082473755
vn -0.31079102 -0.24145508 0.9194336
vn -0.31933594 0.9472656 -0.019760132
vn 0.31591797 0.9453125 0.08111572
vn 0.0073928833 -0.98095703 -0.19519043
vn -0.01524353 -0.27539062 0.9614258
vn -0.54785156 0.30615234 0.7788086
vn -0.038970947 -0.953125 -0.29956055
vn 0.50683594 0.70458984 -0.4963379
vn -0.96435547 -0.26098633 0.03994751
vn -0.5878906 -0.5932617 0.5498047
vn -0.24597168 -0.9160156 0.31713867
vn -0.16137695 -0.8041992 -0.5722656
vn -0.7246094 -0.4724121 -0.5019531
vn -0.32104492 -0.78759766 0.5258789
vn 0.32592773 -0.9428711 -0.06878662
vn 0.40673828 -0.87939453 0.24743652
vn 0.072387695 -0.9145508 -0.39794922
vn 0.5541992 -0.6977539 0.45385742
vn 0.44482422 -0.8881836 -0.11633301
vn 0.49780273 -0.71435547 -0.4921875
vn -0.7246094 -0.4724121 -0.5019531
vn 0.49780273 -0.71435547 -0.4921875
vn 0.3400879 -0.9404297 -0.0082473755
g Rock_H_02_0
f 96/96/96 22/22/22 57/57/57
f 70/70/70 57/57/57 22/22/22
f 40/40/40 70/70/70 22/22/22
f 22/22/22 20/20/20 40/40/40
f 33/33/33 40/40/40 20/20/20
f 33/33/33 20/20/20 59/59/59
f 59/59/59 48/48/48 33/33/33
f 48/48/48 11/11/11 33/33/33
f 70/70/70 67/67/67 57/57/57
f 6/6/6 67/67/67 70/70/70
f 40/40/40 1/1/1 70/70/70
f 70/70/70 1/1/1 6/6/6
f 67/67/67 27/27/27 57/57/57
f 88/88/88 57/57/57 27/27/27
f 87/87/87 88/88/88 27/27/27
f 27/27/27 67/67/67 10/10/10
f 67/67/67 6/6/6 10/10/10
f 25/25/25 87/87/87 27/27/27
f 27/27/27 10/10/10 25/25/25
f 39/39/39 87/87/87 25/25/25
f 25/25/25 42/42/42 39/39/39
f 42/42/42 95/95/95 39/39/39
f 42/42/42 19/19/19 95/95/95
f 1/1/1 40/40/40 81/81/81
f 81/81/81 40/40/40 33/33/33
f 10/10/10 72/72/72 25/25/25
f 25/25/25 72/72/72 42/42/42
f 60/60/60 72/72/72 10/10/10
f 42/42/42 72/72/72 60/60/60
f 10/10/10 46/46/46 60/60/60
f 10/10/10 6/6/6 46/46/46
f 1/1/1 81/81/81 18/18/18
f 33/33/33 18/18/18 81/81/81
f 60/60/60 9/9/9 42/42/42
f 46/46/46 9/9/9 60/60/60
f 9/9/9 83/83/83 42/42/42
f 19/19/19 42/42/42 21/21/21
f 42/42/42 83/83/83 21/21/21
f 19/19/19 21/21/21 47/47/47
f 47/47/47 8/8/8 19/19/19
f 19/19/19 8/8/8 97/97/97
f 90/90/90 8/8/8 47/47/47
f 65/65/65 21/21/21 83/83/83
f 21/21/21 65/65/65 47/47/47
f 47/47/47 65/65/65 45/45/45
f 32/32/32 90/90/90 47/47/47
f 32/32/32 47/47/47 45/45/45
f 34/34/34 90/90/90 32/32/32
f 34/34/34 32/32/32 45/45/45
f 65/65/65 16/16/16 45/45/45
f 83/83/83 16/16/16 65/65/65
f 34/34/34 91/91/91 90/90/90
f 91/91/91 98/98/98 90/90/90
f 34/34/34 45/45/45 62/62/62
f 16/16/16 62/62/62 45/45/45
f 55/55/55 91/91/91 34/34/34
f 62/62/62 55/55/55 34/34/34
f 55/55/55 93/93/93 91/91/91
f 93/93/93 55/55/55 38/38/38
f 52/52/52 55/55/55 62/62/62
f 16/16/16 52/52/52 62/62/62
f 58/58/58 38/38/38 55/55/55
f 52/52/52 58/58/58 55/55/55
f 80/80/80 38/38/38 58/58/58
f 80/80/80 14/14/14 38/38/38
f 80/80/80 51/51/51 14/14/14
f 2/2/2 14/14/14 51/51/51
f 2/2/2 51/51/51 28/28/28
f 2/2/2 28/28/28 75/75/75
f 51/51/51 89/89/89 28/28/28
f 80/80/80 89/89/89 51/51/51
f 75/75/75 28/28/28 66/66/66
f 66/66/66 28/28/28 89/89/89
f 75/75/75 66/66/66 73/73/73
f 75/75/75 73/73/73 30/30/30
f 17/17/17 66/66/66 89/89/89
f 66/66/66 17/17/17 73/73/73
f 86/86/86 17/17/17 89/89/89
f 86/86/86 73/73/73 17/17/17
f 89/89/89 80/80/80 76/76/76
f 11/11/11 89/89/89 76/76/76
f 3/3/3 76/76/76 80/80/80
f 11/11/11 76/76/76 3/3/3
f 80/80/80 58/58/58 3/3/3
f 30/30/30 73/73/73 54/54/54
f 54/54/54 94/94/94 30/30/30
f 94/94/94 54/54/54 79/79/79
f 69/69/69 94/94/94 79/79/79
f 79/79/79 92/92/92 69/69/69
f 54/54/54 36/36/36 79/79/79
f 79/79/79 36/36/36 92/92/92
f 73/73/73 36/36/36 54/54/54
f 36/36/36 13/13/13 92/92/92
f 73/73/73 86/86/86 5/5/5
f 86/86/86 85/85/85 5/5/5
f 85/85/85 84/84/84 5/5/5
f 36/36/36 73/73/73 82/82/82
f 73/73/73 5/5/5 82/82/82
f 43/43/43 5/5/5 84/84/84
f 82/82/82 5/5/5 43/43/43
f 43/43/43 84/84/84 12/12/12
f 13/13/13 43/43/43 12/12/12
f 36/36/36 50/50/50 13/13/13
f 50/50/50 36/36/36 82/82/82
f 50/50/50 43/43/43 13/13/13
f 50/50/50 82/82/82 43/43/43
f 1/1/1 18/18/18 53/53/53
f 53/53/53 18/18/18 35/35/35
f 77/77/77 1/1/1 53/53/53
f 77/77/77 6/6/6 1/1/1
f 77/77/77 53/53/53 64/64/64
f 77/77/77 64/64/64 6/6/6
f 53/53/53 35/35/35 31/31/31
f 64/64/64 53/53/53 31/31/31
f 6/6/6 64/64/64 74/74/74
f 6/6/6 74/74/74 46/46/46
f 64/64/64 37/37/37 74/74/74
f 64/64/64 31/31/31 37/37/37
f 74/74/74 29/29/29 46/46/46
f 29/29/29 74/74/74 37/37/37
f 46/46/46 29/29/29 9/9/9
f 31/31/31 78/78/78 37/37/37
f 29/29/29 37/37/37 78/78/78
f 29/29/29 4/4/4 9/9/9
f 78/78/78 4/4/4 29/29/29
f 23/23/23 9/9/9 4/4/4
f 78/78/78 23/23/23 4/4/4
f 9/9/9 23/23/23 83/83/83
f 31/31/31 68/68/68 78/78/78
f 68/68/68 31/31/31 35/35/35
f 78/78/78 15/15/15 23/23/23
f 23/23/23 15/15/15 83/83/83
f 15/15/15 78/78/78 68/68/68
f 15/15/15 49/49/49 83/83/83
f 83/83/83 49/49/49 16/16/16
f 26/26/26 49/49/49 15/15/15
f 16/16/16 49/49/49 26/26/26
f 68/68/68 26/26/26 15/15/15
f 26/26/26 52/52/52 16/16/16
f 71/71/71 52/52/52 26/26/26
f 71/71/71 26/26/26 68/68/68
f 71/71/71 58/58/58 52/52/52
f 7/7/7 71/71/71 68/68/68
f 7/7/7 58/58/58 71/71/71
f 35/35/35 7/7/7 68/68/68
f 58/58/58 7/7/7 3/3/3
f 44/44/44 3/3/3 7/7/7
f 44/44/44 7/7/7 35/35/35
f 3/3/3 44/44/44 41/41/41
f 11/11/11 3/3/3 41/41/41
f 56/56/56 11/11/11 41/41/41
f 41/41/41 44/44/44 56/56/56
f 33/33/33 11/11/11 56/56/56
f 56/56/56 24/24/24 33/33/33
f 18/18/18 33/33/33 24/24/24
f 24/24/24 35/35/35 18/18/18
f 61/61/61 56/56/56 44/44/44
f 61/61/61 24/24/24 56/56/56
f 35/35/35 24/24/24 63/63/63
f 35/35/35 63/63/63 44/44/44
f 61/61/61 63/63/63 24/24/24
f 63/63/63 61/61/61 44/44/44
