g Rock_D_02
v 0.78001565 -0.3670018 1.7186745
v 1.7419975 1.020256 -1.0487145
v -2.12815 -0.15234491 0.2874633
v -1.6443969 1.5376981 -0.43126848
v 2.1281502 1.0143405 0.3003814
v 1.5127647 -0.21242777 -0.7115337
v -0.8243697 -0.41373077 -0.5039071
v 0.36698478 1.4945714 -0.11164315
v -1.7713917 0.6476074 1.5788893
v 0.7268326 -0.28817075 -1.4658495
v 0.3657751 1.3224009 -1.8062669
v -0.4467651 1.6446342 1.7370834
v -2.0512204 0.9529656 0.8712249
v -0.27203926 -0.3794726 1.9145465
v 1.1660793 1.1169289 -1.7577199
v 0.4473499 1.7869399 1.081953
v -1.7192003 -0.45631197 0.5015927
v 1.774111 0.7842887 1.4887381
v -1.6983747 -0.1578979 -1.3228539
v 2.1262171 0.5308819 0.47814578
v -1.7302693 0.6241974 -1.8621374
v 0.87880987 0.62372166 1.7951297
v 0.28787076 0.051905964 -1.9145465
v 0.5068563 1.4191607 1.6327188
v -0.867939 -0.21113601 -1.7046572
v -1.6487764 1.5016676 1.3642172
v 1.7945181 0.21019885 1.3388174
v -0.4028014 1.3860534 1.8399293
v 1.5127647 -0.21242777 -0.7115337
v 0.7268326 -0.28817075 -1.4658495
v 0.78001565 -0.3670018 1.7186745
v -1.7192003 -0.45631197 0.5015927
v -0.27203926 -0.3794726 1.9145465
v -2.12815 -0.15234491 0.2874633
v -2.12815 -0.15234491 0.2874633
v 1.7945181 0.21019885 1.3388174
v -1.6983747 -0.1578979 -1.3228539
vt 0.48413086 0.94873047
vt 0.3215332 0.71191406
vt 0.059143066 0.77246094
vt 0.20947266 0.79345703
vt 0.2932129 0.66748047
vt 0.44555664 0.8183594
vt 0.34936523 0.89697266
vt 0.2578125 0.72753906
vt 0.12805176 0.7373047
vt 0.3894043 0.80908203
vt 0.30541992 0.76953125
vt 0.18688965 0.70458984
vt 0.13574219 0.7817383
vt 0.12432861 0.63378906
vt 0.3244629 0.7470703
vt 0.22607422 0.69384766
vt 0.05053711 0.74072266
vt 0.25732422 0.62890625
vt 0.2902832 0.88378906
vt 0.2993164 0.6484375
vt 0.2578125 0.8544922
vt 0.21032715 0.63134766
vt 0.35546875 0.79589844
vt 0.2130127 0.67089844
vt 0.3178711 0.84814453
vt 0.15856934 0.7475586
vt 0.5263672 0.89697266
vt 0.17822266 0.6933594
vt 0.37670898 0.6855469
vt 0.38354492 0.75878906
vt 0.18261719 0.59033203
vt 0.33251953 0.9658203
vt 0.44091797 0.98828125
vt 0.30297852 0.96484375
vt 0.13989258 0.8486328
vt 0.27075195 0.6015625
vt 0.21875 0.8823242
vn 0.3083496 -0.72802734 0.6123047
vn 0.7998047 0.41601562 -0.4326172
vn -0.9008789 -0.4284668 0.066101074
vn -0.54833984 0.8100586 -0.20715332
vn 0.8808594 0.47216797 -0.030029297
vn 0.61865234 -0.73339844 -0.28173828
vn -0.026657104 -0.9951172 -0.09637451
vn 0.12158203 0.9741211 -0.19006348
vn -0.65771484 -0.1026001 0.74658203
vn 0.35424805 -0.7973633 -0.48828125
vn 0.077697754 0.7138672 -0.6958008
vn -0.091552734 0.77001953 0.63134766
vn -0.95703125 0.24743652 0.1505127
vn -0.09161377 -0.64746094 0.75683594
vn 0.5366211 0.45214844 -0.71240234
vn 0.2199707 0.96435547 0.14855957
vn -0.41333008 -0.88623047 0.20861816
vn 0.68066406 0.28271484 0.67578125
vn -0.60498047 -0.6899414 -0.39770508
vn 0.96972656 -0.23852539 0.056732178
vn -0.62939453 0.17443848 -0.7573242
vn 0.20043945 0.08880615 0.97558594
vn 0.16931152 -0.37060547 -0.91308594
vn 0.28344727 0.55371094 0.7832031
vn -0.14001465 -0.7529297 -0.6430664
vn -0.54296875 0.70166016 0.46191406
vn 0.7338867 -0.46240234 0.4975586
vn -0.02734375 0.21813965 0.97558594
vn 0.61865234 -0.73339844 -0.28173828
vn 0.35424805 -0.7973633 -0.48828125
vn 0.3083496 -0.72802734 0.6123047
vn -0.41333008 -0.88623047 0.20861816
vn -0.09161377 -0.64746094 0.75683594
vn -0.9008789 -0.4284668 0.066101074
vn -0.9008789 -0.4284668 0.066101074
vn 0.7338867 -0.46240234 0.4975586
vn -0.60498047 -0.6899414 -0.39770508
g Rock_D_02_0
f 6/6/6 27/27/27 1/1/1
f 7/7/7 6/6/6 1/1/1
f 6/6/6 7/7/7 10/10/10
f 1/1/1 32/32/32 7/7/7
f 1/1/1 33/33/33 32/32/32
f 10/10/10 7/7/7 25/25/25
f 10/10/10 25/25/25 23/23/23
f 19/19/19 7/7/7 32/32/32
f 25/25/25 7/7/7 19/19/19
f 32/32/32 34/34/34 19/19/19
f 25/25/25 19/19/19 21/21/21
f 23/23/23 25/25/25 21/21/21
f 21/21/21 11/11/11 23/23/23
f 23/23/23 11/11/11 15/15/15
f 30/30/30 23/23/23 15/15/15
f 15/15/15 29/29/29 30/30/30
f 15/15/15 11/11/11 2/2/2
f 15/15/15 2/2/2 29/29/29
f 11/11/11 21/21/21 4/4/4
f 2/2/2 11/11/11 8/8/8
f 11/11/11 4/4/4 8/8/8
f 2/2/2 8/8/8 16/16/16
f 16/16/16 8/8/8 4/4/4
f 2/2/2 5/5/5 29/29/29
f 16/16/16 5/5/5 2/2/2
f 29/29/29 5/5/5 20/20/20
f 29/29/29 20/20/20 36/36/36
f 5/5/5 36/36/36 20/20/20
f 5/5/5 18/18/18 36/36/36
f 5/5/5 16/16/16 18/18/18
f 36/36/36 18/18/18 22/22/22
f 31/31/31 36/36/36 22/22/22
f 31/31/31 22/22/22 14/14/14
f 18/18/18 24/24/24 22/22/22
f 18/18/18 16/16/16 24/24/24
f 22/22/22 24/24/24 14/14/14
f 24/24/24 16/16/16 12/12/12
f 12/12/12 16/16/16 4/4/4
f 24/24/24 28/28/28 14/14/14
f 24/24/24 12/12/12 28/28/28
f 4/4/4 26/26/26 12/12/12
f 12/12/12 26/26/26 28/28/28
f 14/14/14 28/28/28 9/9/9
f 9/9/9 28/28/28 26/26/26
f 14/14/14 9/9/9 17/17/17
f 17/17/17 9/9/9 3/3/3
f 3/3/3 9/9/9 13/13/13
f 26/26/26 13/13/13 9/9/9
f 13/13/13 26/26/26 4/4/4
f 13/13/13 4/4/4 21/21/21
f 35/35/35 13/13/13 21/21/21
f 35/35/35 21/21/21 37/37/37
