g Sandy_Beach_OBJ_level_Set_04_mesh
v -25.911625 -1.5051422 59.567307
v -25.977097 -1.5304588 59.50035
v -25.845873 -1.534806 59.554356
v -26.011671 -1.502414 59.537758
v -26.066166 -1.4751546 59.595654
v -26.044153 -1.4970212 59.438736
v -26.011671 -1.502414 59.537758
v -26.034966 -1.5232189 59.370914
v -25.977097 -1.5304588 59.50035
v -26.10326 -1.5006193 59.524662
v -26.044153 -1.4970212 59.438736
v -26.127018 -1.5275211 59.47891
v -26.034966 -1.5232189 59.370914
v -26.207605 -1.4993426 59.524975
v -26.10326 -1.5006193 59.524662
v -26.268183 -1.5265309 59.493958
v -26.127018 -1.5275211 59.47891
v -26.14409 -1.5042945 59.607624
v -26.207605 -1.4993426 59.524975
v -26.19385 -1.533537 59.614708
v -26.268183 -1.5265309 59.493958
v -26.176096 -1.5088981 59.70684
v -26.14409 -1.5042945 59.607624
v -26.223227 -1.5401651 59.75345
v -26.19385 -1.533537 59.614708
v -26.077734 -1.5083606 59.671997
v -26.176096 -1.5088981 59.70684
v -26.085234 -1.5401928 59.720078
v -26.223227 -1.5401651 59.75345
v -25.99317 -1.5124826 59.733
v -26.077734 -1.5083606 59.671997
v -25.962225 -1.5452794 59.790775
v -26.085234 -1.5401928 59.720078
v -25.995895 -1.5071983 59.62882
v -25.99317 -1.5124826 59.733
v -25.951273 -1.5382904 59.649403
v -25.962225 -1.5452794 59.790775
v -25.911625 -1.5051422 59.567307
v -25.995895 -1.5071983 59.62882
v -25.845873 -1.534806 59.554356
v -25.951273 -1.5382904 59.649403
v -46.639675 -1.3811421 53.42528
v -46.60125 -1.4064587 53.33988
v -46.60361 -1.410806 53.481762
v -46.6487 -1.3784139 53.321354
v -46.722496 -1.3511546 53.291763
v -46.568375 -1.3730211 53.25496
v -46.6487 -1.3784139 53.321354
v -46.50188 -1.3992188 53.238747
v -46.60125 -1.4064587 53.33988
v -46.66995 -1.3766192 53.231304
v -46.568375 -1.3730211 53.25496
v -46.63603 -1.4035211 53.192482
v -46.50188 -1.3992188 53.238747
v -46.708344 -1.3753425 53.13428
v -46.66995 -1.3766192 53.231304
v -46.701588 -1.4025309 53.06656
v -46.63603 -1.4035211 53.192482
v -46.762093 -1.3802944 53.223587
v -46.708344 -1.3753425 53.13428
v -46.786858 -1.409537 53.17985
v -46.701588 -1.4025309 53.06656
v -46.866146 -1.3848981 53.23002
v -46.762093 -1.3802944 53.223587
v -46.926743 -1.416165 53.203163
v -46.786858 -1.409537 53.17985
v -46.79779 -1.3843606 53.30887
v -46.866146 -1.3848981 53.23002
v -46.84529 -1.4161928 53.319443
v -46.926743 -1.416165 53.203163
v -46.823708 -1.3884826 53.409866
v -46.79779 -1.3843606 53.30887
v -46.866188 -1.4212793 53.459774
v -46.84529 -1.4161928 53.319443
v -46.72771 -1.3831983 53.36929
v -46.823708 -1.3884826 53.409866
v -46.73058 -1.4142903 53.418346
v -46.866188 -1.4212793 53.459774
v -46.639675 -1.3811421 53.42528
v -46.72771 -1.3831983 53.36929
v -46.60361 -1.410806 53.481762
v -46.73058 -1.4142903 53.418346
v -40.308643 -1.360082 53.843884
v -40.387413 -1.3858336 53.83987
v -40.27362 -1.383677 53.79756
v -40.38863 -1.3618783 53.88344
v -40.39042 -1.3386253 53.95144
v -40.466667 -1.3612921 53.840137
v -40.38863 -1.3618783 53.88344
v -40.499092 -1.3854036 53.792217
v -40.387413 -1.3858336 53.83987
v -40.45373 -1.3637052 53.928413
v -40.466667 -1.3612921 53.840137
v -40.493977 -1.388824 53.913486
v -40.499092 -1.3854036 53.792217
v -40.51903 -1.3659856 53.989212
v -40.45373 -1.3637052 53.928413
v -40.573803 -1.3921003 54.004925
v -40.493977 -1.388824 53.913486
v -40.43105 -1.3656807 54.00421
v -40.51903 -1.3659856 53.989212
v -40.45685 -1.3920577 54.037563
v -40.573803 -1.3921003 54.004925
v -40.393364 -1.3676763 54.085094
v -40.43105 -1.3656807 54.00421
v -40.3945 -1.3945125 54.141727
v -40.45685 -1.3920577 54.037563
v -40.351925 -1.3650748 54.00609
v -40.393364 -1.3676763 54.085094
v -40.327335 -1.3910658 54.04063
v -40.3945 -1.3945125 54.141727
v -40.26334 -1.3640276 53.995274
v -40.351925 -1.3650748 54.00609
v -40.20898 -1.3893067 54.013573
v -40.327335 -1.3910658 54.04063
v -40.32571 -1.3627248 53.931446
v -40.26334 -1.3640276 53.995274
v -40.28442 -1.3872192 53.918453
v -40.20898 -1.3893067 54.013573
v -40.308643 -1.360082 53.843884
v -40.32571 -1.3627248 53.931446
v -40.27362 -1.383677 53.79756
v -40.28442 -1.3872192 53.918453
vt 0.815364 0.92795354
vt 0.8131735 0.9309256
vt 0.8181387 0.92795354
vt 0.8114964 0.9297692
vt 0.8088631 0.92795354
vt 0.8108719 0.93382096
vt 0.8114964 0.9297692
vt 0.81172943 0.93632525
vt 0.8131735 0.9309256
vt 0.8078572 0.93089134
vt 0.8108719 0.93382096
vt 0.8072166 0.9327623
vt 0.81172943 0.93632525
vt 0.8036037 0.9315798
vt 0.8078572 0.93089134
vt 0.8013589 0.9331276
vt 0.8072166 0.9327623
vt 0.80560803 0.92795354
vt 0.8036037 0.9315798
vt 0.803535 0.92795354
vt 0.8013589 0.9331276
vt 0.8036037 0.9243274
vt 0.80560803 0.92795354
vt 0.8013589 0.9227797
vt 0.803535 0.92795354
vt 0.8078572 0.9250158
vt 0.8036037 0.9243274
vt 0.8072166 0.9231448
vt 0.8013589 0.9227797
vt 0.8108719 0.92208624
vt 0.8078572 0.9250158
vt 0.8117293 0.9195819
vt 0.8072166 0.9231448
vt 0.8114964 0.9261379
vt 0.8108719 0.92208624
vt 0.8131735 0.92498165
vt 0.8117293 0.9195819
vt 0.815364 0.92795354
vt 0.8114964 0.9261379
vt 0.8181387 0.92795354
vt 0.8131735 0.92498165
vt 0.815364 0.92795354
vt 0.8131735 0.9309256
vt 0.8181387 0.92795354
vt 0.8114964 0.9297692
vt 0.8088631 0.92795354
vt 0.8108719 0.93382096
vt 0.8114964 0.9297692
vt 0.81172943 0.93632525
vt 0.8131735 0.9309256
vt 0.8078572 0.93089134
vt 0.8108719 0.93382096
vt 0.8072166 0.9327623
vt 0.81172943 0.93632525
vt 0.8036037 0.9315798
vt 0.8078572 0.93089134
vt 0.8013589 0.9331276
vt 0.8072166 0.9327623
vt 0.80560803 0.92795354
vt 0.8036037 0.9315798
vt 0.803535 0.92795354
vt 0.8013589 0.9331276
vt 0.8036037 0.9243274
vt 0.80560803 0.92795354
vt 0.8013589 0.9227797
vt 0.803535 0.92795354
vt 0.8078572 0.9250158
vt 0.8036037 0.9243274
vt 0.8072166 0.9231448
vt 0.8013589 0.9227797
vt 0.8108719 0.92208624
vt 0.8078572 0.9250158
vt 0.8117293 0.9195819
vt 0.8072166 0.9231448
vt 0.8114964 0.9261379
vt 0.8108719 0.92208624
vt 0.8131735 0.92498165
vt 0.8117293 0.9195819
vt 0.815364 0.92795354
vt 0.8114964 0.9261379
vt 0.8181387 0.92795354
vt 0.8131735 0.92498165
vt 0.815364 0.92795354
vt 0.8131735 0.9309256
vt 0.8181387 0.92795354
vt 0.8114964 0.9297692
vt 0.8088631 0.92795354
vt 0.8108719 0.93382096
vt 0.8114964 0.9297692
vt 0.81172943 0.93632525
vt 0.8131735 0.9309256
vt 0.8078572 0.93089134
vt 0.8108719 0.93382096
vt 0.8072166 0.9327623
vt 0.81172943 0.93632525
vt 0.8036037 0.9315798
vt 0.8078572 0.93089134
vt 0.8013589 0.9331276
vt 0.8072166 0.9327623
vt 0.80560803 0.92795354
vt 0.8036037 0.9315798
vt 0.803535 0.92795354
vt 0.8013589 0.9331276
vt 0.8036037 0.9243274
vt 0.80560803 0.92795354
vt 0.8013589 0.9227797
vt 0.803535 0.92795354
vt 0.8078572 0.9250158
vt 0.8036037 0.9243274
vt 0.8072166 0.9231448
vt 0.8013589 0.9227797
vt 0.8108719 0.92208624
vt 0.8078572 0.9250158
vt 0.8117293 0.9195819
vt 0.8072166 0.9231448
vt 0.8114964 0.9261379
vt 0.8108719 0.92208624
vt 0.8131735 0.92498165
vt 0.8117293 0.9195819
vt 0.815364 0.92795354
vt 0.8114964 0.9261379
vt 0.8181387 0.92795354
vt 0.8131735 0.92498165
vn 0.19947608 0.84771293 -0.4915202
vn 0.21359695 0.82622844 -0.5212705
vn 0.21359691 0.82622844 -0.5212705
vn 0.15643443 0.9029748 -0.4002059
vn 0.012370897 0.99865615 0.050328497
vn 0.5381102 0.8269621 -0.16300622
vn 0.45171636 0.88488054 -0.113748565
vn 0.5660354 0.8046317 -0.17936477
vn 0.5660354 0.8046317 -0.17936477
vn -0.36743468 0.9009317 -0.23089781
vn -0.43872386 0.84610295 -0.3027062
vn -0.46178284 0.8247717 -0.32635617
vn -0.46178275 0.8247717 -0.32635617
vn -0.021071138 0.8520345 -0.5230614
vn -0.003250276 0.9061038 -0.4230429
vn -0.02710466 0.830945 -0.5556939
vn -0.02710466 0.830945 -0.5556939
vn -0.36841604 0.8732333 0.31895655
vn -0.45652974 0.81283647 0.36176983
vn -0.48529133 0.78970104 0.37531942
vn -0.48529133 0.789701 0.37531936
vn -0.53704053 0.837253 -0.10293131
vn -0.43861967 0.8945239 -0.08625311
vn -0.56908405 0.8151129 -0.108325094
vn -0.56908405 0.8151129 -0.108325094
vn 0.15484652 0.85815775 0.4894772
vn 0.17066546 0.7938864 0.5836246
vn 0.1755594 0.769483 0.61406434
vn 0.1755594 0.769483 0.6140643
vn -0.2967457 0.8030454 0.5167786
vn -0.25272626 0.8661441 0.43118885
vn -0.3109056 0.7790152 0.5444934
vn -0.31090558 0.7790152 0.54449344
vn 0.4792216 0.87653905 0.045010224
vn 0.57609904 0.8154413 0.0562622
vn 0.60749567 0.79205817 0.059941188
vn 0.60749567 0.79205817 0.05994118
vn 0.36773396 0.79668516 0.4796504
vn 0.29753163 0.8601842 0.4141958
vn 0.3906367 0.77253747 0.50058854
vn 0.3906367 0.77253747 0.50058854
vn 0.53041863 0.847713 0.00622982
vn 0.56327087 0.8262285 0.008512695
vn 0.5632708 0.82622844 0.008512666
vn 0.4296932 0.90297484 -0.0004975621
vn -0.04233638 0.99865615 0.029893601
vn 0.34823596 0.8269622 0.44143546
vn 0.27083367 0.8848806 0.3789927
vn 0.3736616 0.80463177 0.4614594
vn 0.3736616 0.80463177 0.4614594
vn 0.08079039 0.9009317 -0.42637417
vn 0.12161018 0.8461031 -0.5189611
vn 0.13520746 0.8247717 -0.5490634
vn 0.13520749 0.8247717 -0.5490633
vn 0.47925168 0.85203457 -0.21060619
vn 0.39264622 0.9061038 -0.15749517
vn 0.507428 0.830945 -0.22813854
vn 0.507428 0.830945 -0.22813854
vn -0.4314565 0.8732333 -0.22651465
vn -0.5034874 0.8128366 -0.29291162
vn -0.52660334 0.78970104 -0.3147398
vn -0.52660334 0.78970104 -0.31473985
vn -0.10027008 0.83725303 -0.5375437
vn -0.079859436 0.89452404 -0.43982872
vn -0.10694903 0.81511295 -0.56934416
vn -0.10694903 0.81511295 -0.56934416
vn -0.39913976 0.85815775 0.32288188
vn -0.48101056 0.7938864 0.37198547
vn -0.5075615 0.769483 0.38765618
vn -0.50756145 0.769483 0.38765615
vn -0.58944994 0.80304545 -0.087560445
vn -0.4936967 0.8661442 -0.07783255
vn -0.6204214 0.7790153 -0.0906229
vn -0.6204214 0.77901524 -0.09062287
vn 0.13307996 0.87653905 0.46256784
vn 0.15797858 0.8154413 0.5568646
vn 0.16601773 0.79205817 0.58743674
vn 0.16601773 0.79205817 0.58743674
vn -0.31225806 0.7966852 0.5174819
vn -0.2769565 0.8601842 0.42822683
vn -0.32338783 0.7725376 0.54644865
vn -0.32338783 0.7725376 0.54644865
vn -0.23084524 0.8369162 -0.49626783
vn -0.23956066 0.81495273 -0.52769566
vn -0.23956066 0.81495273 -0.5276956
vn -0.20332313 0.89367384 -0.40000853
vn -0.008330849 0.9995578 0.028543636
vn 0.24126358 0.84053135 -0.48507613
vn 0.2083459 0.8968262 -0.39024955
vn 0.2517935 0.81871533 -0.5160478
vn 0.2517935 0.81871533 -0.5160478
vn -0.47243923 0.8777229 0.08002276
vn -0.5705699 0.81775075 0.07572165
vn -0.60241216 0.7947457 0.07401985
vn -0.6024121 0.7947457 0.074019805
vn -0.414139 0.8317728 -0.3696523
vn -0.33603483 0.88994986 -0.30833393
vn -0.43960446 0.8093394 -0.38950953
vn -0.43960446 0.8093394 -0.38950953
vn -0.09883256 0.8692916 0.48431832
vn -0.13127626 0.80713797 0.5755822
vn -0.14197826 0.78341866 0.6050598
vn -0.14197832 0.7834186 0.6050598
vn -0.5067058 0.8121888 0.28913423
vn -0.4261992 0.87369585 0.23454164
vn -0.5327119 0.7886754 0.30693483
vn -0.5327119 0.7886754 0.30693483
vn 0.40118515 0.8800316 0.25415543
vn 0.4799466 0.81974405 0.3125235
vn 0.50543696 0.7966251 0.33154488
vn 0.5054369 0.7966251 0.33154482
vn 0.09148755 0.80884385 0.58086294
vn 0.06245697 0.87052673 0.48814175
vn 0.101142496 0.7852805 0.61082304
vn 0.10114255 0.7852805 0.61082304
vn 0.3366062 0.8951007 -0.29238847
vn 0.41840926 0.8381482 -0.34991607
vn 0.44512734 0.81611437 -0.3685363
vn 0.44512734 0.81611437 -0.3685363
vn 0.553758 0.82636034 0.10237473
vn 0.4546274 0.8848221 0.10199963
vn 0.58599347 0.803846 0.10219193
vn 0.58599347 0.803846 0.10219193
g Sandy_Beach_OBJ_level_Set_04_mesh_0
f 3/3/3 2/2/2 1/1/1
f 2/2/2 4/4/4 1/1/1
f 5/5/5 1/1/1 4/4/4
f 5/5/5 7/7/7 6/6/6
f 8/8/8 6/6/6 7/7/7
f 9/9/9 8/8/8 7/7/7
f 5/5/5 11/11/11 10/10/10
f 12/12/12 10/10/10 11/11/11
f 13/13/13 12/12/12 11/11/11
f 5/5/5 15/15/15 14/14/14
f 16/16/16 14/14/14 15/15/15
f 17/17/17 16/16/16 15/15/15
f 5/5/5 19/19/19 18/18/18
f 20/20/20 18/18/18 19/19/19
f 21/21/21 20/20/20 19/19/19
f 5/5/5 23/23/23 22/22/22
f 24/24/24 22/22/22 23/23/23
f 25/25/25 24/24/24 23/23/23
f 5/5/5 27/27/27 26/26/26
f 28/28/28 26/26/26 27/27/27
f 29/29/29 28/28/28 27/27/27
f 5/5/5 31/31/31 30/30/30
f 32/32/32 30/30/30 31/31/31
f 33/33/33 32/32/32 31/31/31
f 5/5/5 35/35/35 34/34/34
f 36/36/36 34/34/34 35/35/35
f 37/37/37 36/36/36 35/35/35
f 5/5/5 39/39/39 38/38/38
f 40/40/40 38/38/38 39/39/39
f 41/41/41 40/40/40 39/39/39
f 44/44/44 43/43/43 42/42/42
f 43/43/43 45/45/45 42/42/42
f 46/46/46 42/42/42 45/45/45
f 46/46/46 48/48/48 47/47/47
f 49/49/49 47/47/47 48/48/48
f 50/50/50 49/49/49 48/48/48
f 46/46/46 52/52/52 51/51/51
f 53/53/53 51/51/51 52/52/52
f 54/54/54 53/53/53 52/52/52
f 46/46/46 56/56/56 55/55/55
f 57/57/57 55/55/55 56/56/56
f 58/58/58 57/57/57 56/56/56
f 46/46/46 60/60/60 59/59/59
f 61/61/61 59/59/59 60/60/60
f 62/62/62 61/61/61 60/60/60
f 46/46/46 64/64/64 63/63/63
f 65/65/65 63/63/63 64/64/64
f 66/66/66 65/65/65 64/64/64
f 46/46/46 68/68/68 67/67/67
f 69/69/69 67/67/67 68/68/68
f 70/70/70 69/69/69 68/68/68
f 46/46/46 72/72/72 71/71/71
f 73/73/73 71/71/71 72/72/72
f 74/74/74 73/73/73 72/72/72
f 46/46/46 76/76/76 75/75/75
f 77/77/77 75/75/75 76/76/76
f 78/78/78 77/77/77 76/76/76
f 46/46/46 80/80/80 79/79/79
f 81/81/81 79/79/79 80/80/80
f 82/82/82 81/81/81 80/80/80
f 85/85/85 84/84/84 83/83/83
f 84/84/84 86/86/86 83/83/83
f 87/87/87 83/83/83 86/86/86
f 87/87/87 89/89/89 88/88/88
f 90/90/90 88/88/88 89/89/89
f 91/91/91 90/90/90 89/89/89
f 87/87/87 93/93/93 92/92/92
f 94/94/94 92/92/92 93/93/93
f 95/95/95 94/94/94 93/93/93
f 87/87/87 97/97/97 96/96/96
f 98/98/98 96/96/96 97/97/97
f 99/99/99 98/98/98 97/97/97
f 87/87/87 101/101/101 100/100/100
f 102/102/102 100/100/100 101/101/101
f 103/103/103 102/102/102 101/101/101
f 87/87/87 105/105/105 104/104/104
f 106/106/106 104/104/104 105/105/105
f 107/107/107 106/106/106 105/105/105
f 87/87/87 109/109/109 108/108/108
f 110/110/110 108/108/108 109/109/109
f 111/111/111 110/110/110 109/109/109
f 87/87/87 113/113/113 112/112/112
f 114/114/114 112/112/112 113/113/113
f 115/115/115 114/114/114 113/113/113
f 87/87/87 117/117/117 116/116/116
f 118/118/118 116/116/116 117/117/117
f 119/119/119 118/118/118 117/117/117
f 87/87/87 121/121/121 120/120/120
f 122/122/122 120/120/120 121/121/121
f 123/123/123 122/122/122 121/121/121
